<svg id="Layer_1" data-name="Layer 1" xmlns="http://www.w3.org/2000/svg" viewBox="0 0 23 23"><defs><style>.cls-1{fill:#fff;}</style></defs><title>insta</title><path class="cls-1" d="M21.14,19.22a1.92,1.92,0,0,1-1.92,1.92H3.78a1.92,1.92,0,0,1-1.92-1.92V7.95H5.58a6.9,6.9,0,1,0,11.83,0h3.73V19.22h0ZM11.5,6.45a5,5,0,1,1-5,5A5.05,5.05,0,0,1,11.5,6.45Zm7.09-5a2,2,0,1,1-2,2A2,2,0,0,1,18.59,1.49ZM19.22,0H3.78A3.78,3.78,0,0,0,0,3.78V19.22A3.78,3.78,0,0,0,3.78,23H19.22A3.78,3.78,0,0,0,23,19.22V3.78A3.78,3.78,0,0,0,19.22,0Z"/></svg>