<?xml version="1.0" encoding="UTF-8" standalone="no"?>
<svg width="89px" height="57px" viewBox="0 0 89 57" version="1.1" xmlns="http://www.w3.org/2000/svg" xmlns:xlink="http://www.w3.org/1999/xlink" xmlns:sketch="http://www.bohemiancoding.com/sketch/ns">
    <!-- Generator: Sketch 3.3.2 (12043) - http://www.bohemiancoding.com/sketch -->
    <title>img-placeholder</title>
    <desc>Created with Sketch.</desc>
    <defs></defs>
    <g id="Panels" stroke="none" stroke-width="1" fill="none" fill-rule="evenodd" sketch:type="MSPage">
        <g id="04-Constructor/03-Design/2-Main-–-Image" sketch:type="MSArtboardGroup" transform="translate(-121.000000, -409.000000)" fill="#2B4759">
            <g id="Panel" sketch:type="MSLayerGroup">
                <g id="Left-Panel" transform="translate(48.000000, 0.000000)" sketch:type="MSShapeGroup">
                    <g id="BACKGROUND" transform="translate(24.000000, 286.000000)">
                        <g id="image-selector" transform="translate(0.000000, 102.000000)">
                            <g id="img">
                                <path d="M134,30 L129,30 L129,25 C129,22.8 127.2,21 125,21 L53,21 C50.8,21 49,22.8 49,25 L49,65 C49,67.2 50.8,69 53,69 L58,69 L58,74 C58,76.2 59.8,78 62,78 L134,78 C136.2,78 138,76.2 138,74 L138,34 C138,31.8 136.2,30 134,30 L134,30 Z M53,23 L125,23 C126.1,23 127,23.9 127,25 L127,30 L127,37.9 L126.5,38.2 L97,54.7 L84.1,43.8 L83.3,43.2 L83,43.6 L82.8,43.3 L81.9,43.8 L50.9,61.2 L50.9,25 C51,23.9 51.9,23 53,23 L53,23 Z M58,67 L53,67 C51.9,67 51,66.1 51,65 L51,63.4 L83,45.4 L95.9,56.3 L96.7,56.9 L97,56.5 L97.2,56.8 L98.1,56.3 L127.1,40.1 L127.1,65 C127.1,66.1 126.2,67 125.1,67 L58,67 L58,67 Z M136,74 C136,75.1 135.1,76 134,76 L62,76 C60.9,76 60,75.1 60,74 L60,69 L125,69 C127.2,69 129,67.2 129,65 L129,32 L134,32 C135.1,32 136,32.9 136,34 L136,74 Z M63,39 C65.8,39 68,36.8 68,34 C68,31.2 65.8,29 63,29 C60.2,29 58,31.2 58,34 C58,36.8 60.2,39 63,39 Z M63,31 C64.7,31 66,32.3 66,34 C66,35.7 64.7,37 63,37 C61.3,37 60,35.7 60,34 C60,32.3 61.3,31 63,31 L63,31 Z" id="img-placeholder"></path>
                            </g>
                        </g>
                    </g>
                </g>
            </g>
        </g>
    </g>
</svg>