<?xml version="1.0" encoding="utf-8"?>
<!-- Generator: Adobe Illustrator 19.1.0, SVG Export Plug-In . SVG Version: 6.00 Build 0)  -->
<svg version="1.1" id="Layer_1" xmlns="http://www.w3.org/2000/svg" xmlns:xlink="http://www.w3.org/1999/xlink" x="0px" y="0px"
	 width="70px" height="70px" viewBox="-270 362 70 70" style="enable-background:new -270 362 70 70;" xml:space="preserve">
<circle id="grey-circle-bg" style="fill:#EBEDEF;" cx="-235" cy="397" r="35"/>
<ellipse style="fill:#737F89;" cx="-235" cy="410.4" rx="1.6" ry="1.5"/>
<path style="fill:#737F89;" d="M-227.1,415.4h-15.8c-1.5,0-2.7-1.2-2.7-2.7v-31.5c0-1.5,1.2-2.7,2.7-2.7h15.7c1.5,0,2.7,1.2,2.7,2.7
	v31.3C-224.3,414.2-225.6,415.4-227.1,415.4z M-242.9,379.9c-0.8,0-1.4,0.6-1.4,1.4v31.3c0,0.8,0.6,1.4,1.4,1.4h15.7
	c0.8,0,1.4-0.6,1.4-1.4v-31.4c0-0.8-0.6-1.4-1.4-1.4C-227.1,379.9-242.9,379.9-242.9,379.9z"/>
<path style="fill:#737F89;" d="M-229.8,407.2h-10.3c-0.8,0-1.5-0.7-1.5-1.5v-21.4c0-0.8,0.7-1.5,1.5-1.5h10.4c0.8,0,1.5,0.7,1.5,1.5
	v21.4C-228.3,406.4-228.9,407.2-229.8,407.2z M-240.2,383.8c-0.3,0-0.5,0.2-0.5,0.5v21.3c0,0.3,0.2,0.5,0.5,0.5h10.4
	c0.3,0,0.5-0.2,0.5-0.5v-21.3c0-0.3-0.2-0.5-0.5-0.5C-229.9,383.8-240.2,383.8-240.2,383.8z"/>
</svg>
