<?xml version="1.0" encoding="utf-8"?>
<!-- Generator: Adobe Illustrator 18.0.0, SVG Export Plug-In . SVG Version: 6.00 Build 0)  -->
<!DOCTYPE svg PUBLIC "-//W3C//DTD SVG 1.1//EN" "http://www.w3.org/Graphics/SVG/1.1/DTD/svg11.dtd">
<svg version="1.1" id="Layer_1" xmlns="http://www.w3.org/2000/svg" xmlns:xlink="http://www.w3.org/1999/xlink" x="0px" y="0px"
	 viewBox="0 0 60 60" enable-background="new 0 0 60 60" xml:space="preserve">
<circle fill="#747F89" cx="30" cy="30" r="28.2"/>
<g>
	<path fill="#FFFFFF" stroke="#747F89" stroke-width="1.9118" stroke-miterlimit="10" d="M42.3,40.3l-7.8-8.9l7.8-8.9
		c1.3-1.3,1.3-3.5,0-4.8c-1.3-1.3-3.5-1.3-4.8,0L30,26.2l-7.5-8.6c-1.3-1.3-3.5-1.3-4.8,0c-1.3,1.3-1.3,3.5,0,4.8l7.8,8.9l-7.8,8.9
		c-1.3,1.3-1.3,3.5,0,4.8c1.3,1.3,3.5,1.3,4.8,0l7.5-8.6l7.5,8.6c1.3,1.3,3.5,1.3,4.8,0C43.6,43.8,43.6,41.6,42.3,40.3z"/>
</g>
</svg>
