<?xml version="1.0" encoding="utf-8"?>
<!-- Generator: Adobe Illustrator 18.0.0, SVG Export Plug-In . SVG Version: 6.00 Build 0)  -->
<!DOCTYPE svg PUBLIC "-//W3C//DTD SVG 1.1//EN" "http://www.w3.org/Graphics/SVG/1.1/DTD/svg11.dtd">

<svg xmlns="http://www.w3.org/2000/svg" fill="#FFFFFF" viewBox="0 0 685.3 216.3" preserveAspectRatio="xMinYMin meet">
  <g>
    <path d="M368,106.6c0,13.8-2.5,25.9-7.5,36.3c-5,10.4-12.3,18.4-21.7,24c-9.4,5.6-20.3,8.4-32.6,8.4  c-11.9,0-22.4-2.7-31.7-8.2c-9.3-5.5-16.4-13.2-21.5-23.2c-5.1-10-7.6-21.4-7.6-34.1c0-13.7,2.6-25.7,7.7-36.2  c5.1-10.4,12.5-18.4,22.1-24c9.6-5.6,20.7-8.4,33.3-8.4c11.5,0,21.8,2.7,31,8.2c9.1,5.5,16.2,13.2,21.2,23.1  C365.5,82.6,368,93.9,368,106.6z M352.1,108.6c0-16.9-3.9-30-11.8-39.5c-7.9-9.5-18.9-14.2-33-14.2c-8.9,0-16.8,2.2-23.8,6.7  c-7,4.5-12.5,10.9-16.3,19.1c-3.9,8.3-5.8,17.5-5.8,27.7c0,10.4,1.9,19.6,5.6,27.7c3.7,8.1,9,14.4,15.9,18.8  c6.9,4.4,14.7,6.6,23.4,6.6c14.3,0,25.6-4.7,33.7-14.1C348,138.1,352.1,125.1,352.1,108.6z" />
    <path d="M433.6,49c-2.9-1.6-6.2-2.4-9.9-2.4c-10.4,0-15.6,6.5-15.6,19.6v14.3h21.7v12.6h-21.7v80h-14.8v-80h-15.7  V80.5h15.7v-15c0-9.4,2.8-17,8.3-22.8c5.5-5.8,12.6-8.7,21.2-8.7c4.5,0,8.1,0.5,10.8,1.6V49z" />
    <path d="M484.5,49c-2.9-1.6-6.2-2.4-9.9-2.4c-10.4,0-15.6,6.5-15.6,19.6v14.3h21.7v12.6h-21.7v80h-14.8v-80h-15.7  V80.5h15.7v-15c0-9.4,2.8-17,8.3-22.8c5.5-5.8,12.6-8.7,21.2-8.7c4.5,0,8.1,0.5,10.8,1.6V49z" />
    <path d="M511.9,47.3c0,2.8-1,5.1-2.9,6.9c-1.9,1.8-4.2,2.8-6.9,2.8c-2.7,0-5-0.9-6.9-2.7c-1.9-1.8-2.8-4.1-2.8-7  c0-2.6,0.9-4.8,2.8-6.7c1.8-1.9,4.1-2.8,6.9-2.8c2.8,0,5.1,0.9,7,2.8C510.9,42.4,511.9,44.7,511.9,47.3z M509.3,173.1h-14.8V80.5  h14.8V173.1z" />
    <path d="M594,168.8c-7.2,4.3-15.6,6.5-25.4,6.5c-8.4,0-16-1.9-22.7-5.8c-6.7-3.9-12-9.4-15.7-16.5  c-3.7-7.1-5.6-15.1-5.6-24c0-15.3,4.4-27.6,13.2-36.9c8.8-9.3,20.4-13.9,35-13.9c8.1,0,15.2,1.6,21.4,4.7v15.2  c-6.9-4.8-14.3-7.2-22.1-7.2c-9.6,0-17.4,3.4-23.4,10.3c-6,6.8-9,15.7-9,26.5c0,10.8,2.8,19.3,8.5,25.6c5.7,6.3,13.3,9.4,22.9,9.4  c8.1,0,15.7-2.7,22.8-8V168.8z" />
    <path d="M685.3,130.5h-65.4c0.2,10.4,3,18.4,8.3,23.9c5.3,5.5,12.6,8.3,21.9,8.3c10.5,0,20-3.4,28.7-10.1v13.8  c-8.1,6-18.8,9-32.2,9c-13.2,0-23.5-4.3-30.9-12.8c-7.4-8.5-11.1-20.3-11.1-35.4c0-9.2,1.9-17.5,5.6-25.1  c3.7-7.6,8.8-13.4,15.3-17.6c6.5-4.2,13.7-6.2,21.7-6.2c12,0,21.4,3.9,28.1,11.7c6.7,7.8,10.1,18.7,10.1,32.8V130.5z M670.1,117.9  c-0.1-8.6-2.2-15.2-6.2-19.9c-4-4.7-9.7-7.1-17-7.1c-6.9,0-12.7,2.5-17.6,7.4c-4.9,4.9-8,11.5-9.2,19.6H670.1z" />
  </g>
  <polygon points="180.4,198.3 180.4,198.3 180.4,18.6 116,0 0.3,43.4 0,43.5 0,173.4 39.5,158 39.5,52.3 116,34  116,189.4 0.1,173.4 116,216.3 116,216.3 180.4,198.5 180.4,198.3 " />
</svg>