<?xml version="1.0" encoding="utf-8"?>
<!-- Generator: Adobe Illustrator 18.0.0, SVG Export Plug-In . SVG Version: 6.00 Build 0)  -->
<!DOCTYPE svg PUBLIC "-//W3C//DTD SVG 1.1//EN" "http://www.w3.org/Graphics/SVG/1.1/DTD/svg11.dtd">

<svg xmlns="http://www.w3.org/2000/svg" viewBox="0 0 283.5 124.9" preserveAspectRatio="xMidYMid meet">
  <g>
    <path fill="#FFFFFF" d="M283.5,39c0-8.6-7-15.6-15.6-15.6c-4.5,0-8.5,1.9-11.3,4.8C250,23.7,242,21,233.4,21            c-8.7,0-16.8,2.7-23.4,7.4c-3-2.8-7-4.5-11.3-4.5c-3.3,0-6.3,0.9-8.9,2.6c-6.1-10.9-17.7-18.2-31-18.2c-12.2,0-22.9,6.1-29.4,15.4            c-5.4-5.5-12.9-8.9-21.2-8.9c-5.5,0-10.6,1.5-15,4.1C93,8.5,84.5,0,73.9,0C63.4,0,54.8,8.6,54.8,19.1l0,0.7            c-2.1-0.3-4.2-0.5-6.3-0.5c-6.2,0-12.1,1.4-17.4,3.8c-3-1.6-6.4-2.5-10-2.5C9.5,20.7,0,30.2,0,41.8C0,48,2.7,53.5,6.9,57.4            c-0.1,1.3-0.2,2.6-0.2,3.8c0,23.1,18.7,41.8,41.8,41.8c9,0,17.3-2.8,24.1-7.6c6.1,8.4,16,13.9,27.2,13.9c0.3,0,0.5,0,0.8,0            c3.2,9.1,11.9,15.7,22.1,15.7c10.3,0,19.1-6.7,22.2-16c3.6,6.7,10.6,11.3,18.8,11.3c10.2,0,18.7-7.2,20.7-16.7            c1.5,0.2,3,0.3,4.5,0.3c8.3,0,15.8-3.1,21.6-8.3c6.5,4.4,14.4,7,22.9,7c22.5,0,40.7-18.2,40.7-40.8c0-2.8-0.3-5.5-0.8-8.1            C279.2,51.4,283.5,45.7,283.5,39" />
    <path fill="#00AFF0" d="M266.8,33.9h2.9c0,0,0,0,2.2,6.4l2.1-6.4h2.9v9.4H275c0,0,0,0,0-6.6l-2.3,6.6h-1.6c0,0,0,0-2.3-6.6v6.6                h-1.9V33.9z" />
    <polygon fill="#00AFF0" points="258.1,35.7 258.1,33.9 265.7,33.9 265.7,35.7 262.9,35.7 262.9,43.3 260.9,43.3 260.9,35.7  " />
    <path fill="#00AFF0" d="M262.2,57.2c0-12.2-9.8-24.3-26.9-24.3c-14.6,0-24.3,8-27.2,20.6c-2.6-13.9-12-20.6-22.6-20.6                    c-7.2,0-13.2,3.1-15.6,9.4h-0.2v-2.3c0-4.6-2.3-7-6.7-7c-3.2,0-5.2,1.2-6.1,3.5c-1.1-1.8-3.1-3.5-6.6-3.5c-4.1,0-6.1,2.9-7.1,6.6                    l-9.1,33.7h-0.2l-9.6-34.7c-0.9-3.4-3.6-5.6-7.6-5.6c-2.8,0-5.2,1.5-6.4,3.8c-1.2-2.3-3.8-3.8-6.2-3.8c-2.2,0-4.2,1.2-5.7,2.9                    L81.8,54V20.3c0-4.9-2.9-7.4-7.4-7.4c-4.5,0-7.4,2.6-7.4,7.4v46.4c-2.4-7.1-10.7-9.9-17.8-11.5L43,53.7c-4.6-1-7.9-1.8-7.9-5.3                    c0-3.2,3.4-4.6,8.6-4.6c9.4,0,9.6,6.8,15.4,6.8c3.9,0,6.2-3,6.2-6.5c0-6.8-11.4-11.3-22.7-11.3c-10.3,0-22.3,4.5-22.3,16.6                    c0,10,6.7,13.6,15.4,15.7l8.8,2.1c5.3,1.3,8.5,1.9,8.5,5.7c0,3-3.4,5.4-8.6,5.4c-11,0-11.6-9.2-18-9.2c-4.2,0-6,2.9-6,6.2                    c0,7.3,11.2,13.3,24.6,13.3c9.6,0,19.5-4.1,22.2-12.9v5.5c0,4.9,2.9,7.4,7.4,7.4c4.5,0,7.4-2.6,7.4-7.4V70l5.2-4.6l14,19.9                    c1.1,1.6,3.1,3.4,6.7,3.4c4,0,7-3.4,7-7.2c0-2.4-1-4.1-1.5-4.8L97.8,56l11-11.5c0.5-0.5,0.9-0.9,1.2-1.4c0.3,1,0.7,2.2,1.3,3.8                    L126.7,91c-1.1,4.6-3.3,4.7-5.2,4.7H120c-4,0-6.8,2-6.8,6c0,3.6,2.8,6.8,9.4,6.8c9.4,0,13.4-5.3,17-15.5l16.7-47.3v55.4                    c0,4.9,2.9,7.4,7.4,7.4c4.5,0,7.4-2.6,7.4-7.4V81.2h0.2c2.8,4.8,7.8,7.5,14.6,7.5c12.7,0,19.9-8.8,22.1-19.7                    c2.5,10.4,10.8,19.7,27.7,19.7c9,0,23.3-4.2,23.3-13.1c0-2.7-2.6-5.8-6.1-5.8c-6,0-6,7.3-17.2,7.3c-8.6,0-13.7-5.7-13.7-13.6h33.6                    C260.7,63.6,262.2,62.3,262.2,57.2 M182.2,77.2c-9.1,0-11.9-8.9-11.9-16.5c0-8.5,3.2-16.3,11.9-16.2c7.9,0.1,11.8,7.4,11.8,16.2                    C194,67.6,191.7,77,182.2,77.2 M222.1,55.1c1.6-7.2,6.1-11.8,13.5-11.8c6.6,0,11.7,5,12.5,11.8H222.1z" />
  </g>
</svg>