<?xml version="1.0" encoding="UTF-8" standalone="no"?>
<!-- Created with Inkscape (http://www.inkscape.org/) -->

<svg
   xmlns:dc="http://purl.org/dc/elements/1.1/"
   xmlns:cc="http://creativecommons.org/ns#"
   xmlns:rdf="http://www.w3.org/1999/02/22-rdf-syntax-ns#"
   xmlns:svg="http://www.w3.org/2000/svg"
   xmlns="http://www.w3.org/2000/svg"
   xmlns:sodipodi="http://sodipodi.sourceforge.net/DTD/sodipodi-0.dtd"
   xmlns:inkscape="http://www.inkscape.org/namespaces/inkscape"
   width="324.14529mm"
   height="46.437481mm"
   viewBox="0 0 324.14529 46.437481"
   version="1.1"
   id="svg8"
   inkscape:version="0.92.3 (2405546, 2018-03-11)"
   sodipodi:docname="logo_phising.svg">
  <defs
     id="defs2" />
  <sodipodi:namedview
     id="base"
     pagecolor="#ffffff"
     bordercolor="#666666"
     borderopacity="1.0"
     inkscape:pageopacity="0.0"
     inkscape:pageshadow="2"
     inkscape:zoom="0.7"
     inkscape:cx="553.70456"
     inkscape:cy="6.6024102"
     inkscape:document-units="mm"
     inkscape:current-layer="layer1"
     showgrid="false"
     showguides="true"
     inkscape:guide-bbox="true"
     inkscape:window-width="1920"
     inkscape:window-height="1007"
     inkscape:window-x="1920"
     inkscape:window-y="0"
     inkscape:window-maximized="1">
    <sodipodi:guide
       position="-67.87513,21.648021"
       orientation="1,0"
       id="guide954"
       inkscape:locked="false" />
  </sodipodi:namedview>
  <metadata
     id="metadata5">
    <rdf:RDF>
      <cc:Work
         rdf:about="">
        <dc:format>image/svg+xml</dc:format>
        <dc:type
           rdf:resource="http://purl.org/dc/dcmitype/StillImage" />
        <dc:title></dc:title>
      </cc:Work>
    </rdf:RDF>
  </metadata>
  <g
     inkscape:label="Layer 1"
     inkscape:groupmode="layer"
     id="layer1"
     transform="translate(265.14269,-111.31428)">
    <g
       id="g839"
       transform="matrix(0.26458333,0,0,0.26458333,-396.43496,68.797368)" />
    <g
       id="g841"
       transform="matrix(0.26458333,0,0,0.26458333,-396.43496,68.797368)" />
    <g
       id="g843"
       transform="matrix(0.26458333,0,0,0.26458333,-396.43496,68.797368)" />
    <g
       id="g845"
       transform="matrix(0.26458333,0,0,0.26458333,-396.43496,68.797368)" />
    <g
       id="g847"
       transform="matrix(0.26458333,0,0,0.26458333,-396.43496,68.797368)" />
    <g
       id="g849"
       transform="matrix(0.26458333,0,0,0.26458333,-396.43496,68.797368)" />
    <g
       id="g851"
       transform="matrix(0.26458333,0,0,0.26458333,-396.43496,68.797368)" />
    <g
       id="g853"
       transform="matrix(0.26458333,0,0,0.26458333,-396.43496,68.797368)" />
    <g
       id="g855"
       transform="matrix(0.26458333,0,0,0.26458333,-396.43496,68.797368)" />
    <g
       id="g857"
       transform="matrix(0.26458333,0,0,0.26458333,-396.43496,68.797368)" />
    <g
       id="g859"
       transform="matrix(0.26458333,0,0,0.26458333,-396.43496,68.797368)" />
    <g
       id="g861"
       transform="matrix(0.26458333,0,0,0.26458333,-396.43496,68.797368)" />
    <g
       id="g863"
       transform="matrix(0.26458333,0,0,0.26458333,-396.43496,68.797368)" />
    <g
       id="g865"
       transform="matrix(0.26458333,0,0,0.26458333,-396.43496,68.797368)" />
    <g
       id="g867"
       transform="matrix(0.26458333,0,0,0.26458333,-396.43496,68.797368)" />
    <g
       id="g958">
      <text
         id="text817"
         y="143.06929"
         x="-205.70366"
         style="font-style:normal;font-weight:normal;font-size:31.53785706px;line-height:1;font-family:sans-serif;letter-spacing:0px;word-spacing:0px;fill:#cccccc;fill-opacity:1;stroke:none;stroke-width:0.78844637"
         xml:space="preserve"><tspan
           id="tspan819"
           style="font-style:normal;font-variant:normal;font-weight:normal;font-stretch:normal;font-family:Gotham;-inkscape-font-specification:Gotham;letter-spacing:-0.00316276px;word-spacing:-0.00316276px;fill:#cccccc;stroke-width:0.78844637"
           y="143.06929"
           x="-205.70366"
           sodipodi:role="line">phising analyzer</tspan></text>
      <path
         style="fill:#f13540;fill-opacity:1;stroke-width:0.12093063"
         inkscape:connector-curvature="0"
         d="m -217.90648,111.31428 -3.86991,0.002 c -0.71216,3.6e-4 -1.28924,0.57805 -1.28888,1.29057 l 0.001,2.57981 c 3.7e-4,0.7124 0.57806,1.2896 1.29021,1.28924 l 3.8699,-0.002 v 3.86725 c 0,0.71241 0.57746,1.28997 1.28949,1.28997 h 2.57908 c 0.71217,0 1.28949,-0.57756 1.28949,-1.28997 v -3.86725 c 0,-2.85056 -2.31087,-5.16107 -5.16059,-5.15962 z"
         id="path821" />
      <path
         style="fill:#f13540;fill-opacity:1;stroke-width:0.12093063"
         inkscape:connector-curvature="0"
         d="m -263.85272,121.63076 h 2.57982 c 0.71239,0 1.28996,-0.57757 1.28996,-1.28986 v -3.86711 h 3.86978 c 0.7124,0 1.28997,-0.57756 1.28997,-1.28985 v -2.57982 c -1.3e-4,-0.7124 -0.57769,-1.28984 -1.28997,-1.28984 h -3.86978 c -2.8496,0 -5.15975,2.3099 -5.15975,5.15951 v 3.86711 c 0,0.71229 0.57756,1.28986 1.28997,1.28986 z"
         id="path823" />
      <path
         style="fill:#f13540;fill-opacity:1;stroke-width:0.12093063"
         inkscape:connector-curvature="0"
         d="m -214.03537,147.42973 h -2.5791 c -0.71215,0 -1.28948,0.57744 -1.28948,1.28997 v 3.87231 h -3.86857 c -0.71216,0 -1.28949,0.57745 -1.28949,1.28997 v 2.57982 c 0,0.7124 0.57745,1.28996 1.28949,1.28996 h 3.86857 c 2.84865,-1.1e-4 5.15806,-2.31026 5.15806,-5.15986 v -3.87231 c 0,-0.71242 -0.57744,-1.28986 -1.28948,-1.28986 z"
         id="path825" />
      <path
         style="fill:#f13540;fill-opacity:1;stroke-width:0.12093063"
         inkscape:connector-curvature="0"
         d="m -256.11449,152.59214 -3.86858,-0.002 v -3.86965 c 0,-0.71252 -0.57755,-1.28985 -1.28995,-1.28985 h -2.5797 c -0.71241,1.2e-4 -1.28997,0.57744 -1.28997,1.28997 v 3.86833 c 0,2.84912 2.30918,5.15938 5.15842,5.16071 l 3.86725,0.002 c 0.71239,3.6e-4 1.29021,-0.57695 1.29057,-1.28924 l 0.001,-2.57969 c 3.5e-4,-0.71253 -0.57685,-1.29021 -1.28926,-1.29057 z"
         id="path827" />
      <path
         inkscape:connector-curvature="0"
         id="path947"
         d="m -249.46363,124.13013 a 11.832245,11.832245 0 0 0 0.0176,16.68899 11.832245,11.832245 0 0 0 15.20599,1.30986 l 4.33638,4.33638 c 0.78968,0.7897 2.06129,0.7897 2.85098,0 0.78969,-0.7897 0.78957,-2.06117 -1.2e-4,-2.85086 l -4.3449,-4.34489 a 11.832245,11.832245 0 0 0 -1.2008,-15.06819 l -0.1764,-0.1771 a 11.832245,11.832245 0 0 0 -16.68875,0.10581 z m 3.7944,3.76659 a 6.4856947,6.4856947 0 0 1 9.14766,-0.0579 l 0.0968,0.0971 a 6.4856947,6.4856947 0 0 1 -0.0871,9.14742 6.4856947,6.4856947 0 0 1 -9.14765,-0.0387 6.4856947,6.4856947 0 0 1 -0.01,-9.14789 z"
         style="opacity:1;fill:#438b5e;fill-opacity:1;stroke:none;stroke-width:1.63966084;stroke-linecap:butt;stroke-linejoin:round;stroke-miterlimit:4;stroke-dasharray:none;stroke-opacity:1;paint-order:markers stroke fill" />
    </g>
  </g>
</svg>
