<?xml version="1.0" encoding="utf-8"?>
<!-- Generator: Adobe Illustrator 18.0.0, SVG Export Plug-In . SVG Version: 6.00 Build 0)  -->
<!DOCTYPE svg PUBLIC "-//W3C//DTD SVG 1.1//EN" "http://www.w3.org/Graphics/SVG/1.1/DTD/svg11.dtd">
<svg version="1.1" xmlns="http://www.w3.org/2000/svg" xmlns:xlink="http://www.w3.org/1999/xlink" x="0px" y="0px" width="18px"
	 height="90px" viewBox="0 0 18 90" enable-background="new 0 0 18 90" xml:space="preserve">
<g id="FPO">
</g>
<g id="Global_Nav_Small_Icons">
	<path id="Suggested_Search_-_Hover" fill="#5CC3F6" d="M17,74.293l-4.569-4.569C13.406,68.586,14,67.112,14,65.5
		c0-3.584-2.916-6.5-6.5-6.5S1,61.916,1,65.5S3.916,72,7.5,72c1.612,0,3.086-0.594,4.224-1.569L16.293,75L17,74.293z M2,65.5
		C2,62.463,4.462,60,7.5,60s5.5,2.463,5.5,5.5c0,3.039-2.462,5.5-5.5,5.5S2,68.539,2,65.5z"/>
	<path id="Suggested_Search" fill="#A2A2A2" d="M17,29.293l-4.569-4.569C13.406,23.586,14,22.112,14,20.5c0-3.584-2.916-6.5-6.5-6.5
		S1,16.916,1,20.5S3.916,27,7.5,27c1.612,0,3.086-0.594,4.224-1.569L16.293,30L17,29.293z M2,20.5C2,17.463,4.462,15,7.5,15
		s5.5,2.463,5.5,5.5c0,3.039-2.462,5.5-5.5,5.5S2,23.539,2,20.5z"/>
</g>
<g id="Global_Nav_Small_1_">
</g>
<g id="Bag">
</g>
<g id="Global_Nav_Large_Icons">
</g>
<g id="Global_Nav_Large_1_">
</g>
<g id="Guides">
</g>
<g id="NOTES">
</g>
</svg>
