<svg width="128" height="13" viewBox="0 0 128 13" xmlns="http://www.w3.org/2000/svg"><g fill="none" fill-rule="evenodd"><path d="M102.992.404V12.81h2.79v-2.234l.96-.913 1.9 3.146h3.617l-3.488-5.005 3.346-3.268h-3.99l-1.603 1.89-.744.93V.403h-2.788zM92.934 4.536l-1.05 5.65-1.375-5.65h-3.212l-1.352 5.65-1.056-5.65h-2.91l2.15 8.27h3.738l1.047-4.29 1.047 4.29H93.7l2.155-8.27h-2.92zM124.97 9.71c-.355.462-.912.77-1.64.77-.834 0-1.5-.54-1.5-1.823s.666-1.824 1.5-1.824c.728 0 1.285.31 1.64.773V9.71zm2.784-2.768l.155-2.406h-2.547l-.192.906c-.586-.617-1.315-1.128-2.597-1.128-2.322 0-3.59 1.5-3.59 4.343 0 2.844 1.268 4.343 3.59 4.343 1.282 0 2.01-.51 2.598-1.128l.2.936h2.54l-.156-2.435v-3.43zM98.83.45c-.88 0-1.594.714-1.594 1.593 0 .88.713 1.593 1.594 1.593.882 0 1.595-.713 1.595-1.593S99.712.45 98.83.45M101.232 6.28V4.536h-3.997V12.81h3.997v-1.735H99.98V6.28h1.252zM114.4 2.043c0 .88.715 1.594 1.595 1.594s1.595-.714 1.595-1.594c0-.88-.714-1.593-1.595-1.593-.88 0-1.595.713-1.595 1.593M114.845 6.28v4.793h-1.252v1.735h3.997V4.536h-3.997V6.28h1.252z" fill="#FFF"/><path d="M3.233 8.427c.208 0 .41-.015.602-.046.194-.03.363-.09.51-.18.146-.087.265-.214.353-.375.09-.163.134-.374.134-.637 0-.262-.045-.475-.134-.637-.088-.16-.207-.286-.353-.376-.147-.088-.316-.147-.51-.178-.193-.032-.394-.046-.602-.046H1.82v2.477h1.413zm.498-3.89c.52 0 .96.075 1.322.226.363.15.66.35.886.596.228.246.394.527.5.844.103.317.155.645.155.984 0 .33-.052.658-.156.98-.105.318-.27.602-.5.85-.226.246-.522.445-.885.595-.363.15-.803.226-1.32.226H1.818v2.963H0V4.536h3.73zM9.426 9.717c.08.33.21.624.388.886.177.262.41.472.695.63.285.16.632.238 1.042.238.41 0 .757-.078 1.043-.236.286-.16.517-.37.695-.63.178-.262.307-.558.388-.886.08-.328.122-.666.122-1.013 0-.363-.04-.714-.122-1.054-.08-.34-.21-.64-.388-.907-.178-.267-.41-.48-.695-.637-.286-.16-.634-.238-1.043-.238-.41 0-.757.08-1.043.238-.287.158-.52.37-.696.637-.18.266-.308.568-.388.907-.082.34-.122.692-.122 1.055 0 .347.04.685.122 1.012M7.763 6.985c.186-.528.452-.99.8-1.384.347-.39.774-.7 1.28-.924.506-.224 1.076-.336 1.71-.336.64 0 1.212.112 1.714.336.502.223.927.533 1.275.925.347.396.614.857.8 1.385.184.53.277 1.103.277 1.72 0 .6-.094 1.163-.28 1.684-.184.52-.45.974-.798 1.36-.348.386-.773.688-1.275.908-.502.22-1.074.33-1.715.33-.633 0-1.203-.11-1.708-.33-.507-.22-.934-.522-1.28-.91-.35-.384-.615-.838-.8-1.36-.187-.52-.28-1.082-.28-1.683 0-.617.093-1.19.28-1.72M23.046 12.803l-1.402-5.627h-.023l-1.378 5.627H18.4l-2.19-8.266h1.818l1.31 5.627h.023l1.44-5.627h1.7l1.415 5.695h.023l1.355-5.695h1.785l-2.225 8.266h-1.807zM34.215 4.537v1.528h-4.368v1.77h4.01V9.25h-4.01v2.024h4.46v1.528h-6.28V4.537h6.188zM39.464 8.276c.417 0 .73-.092.94-.278.207-.185.31-.485.31-.903 0-.4-.103-.692-.31-.874-.21-.18-.523-.27-.94-.27H37.47v2.326h1.994zm.65-3.74c.37 0 .704.06 1 .18.298.12.553.284.765.492.212.21.374.45.486.723.11.275.168.57.168.888 0 .485-.103.906-.306 1.262-.206.354-.54.625-1.003.81v.023c.223.06.41.156.556.284.147.127.267.277.36.45.093.175.16.365.203.574.042.21.07.417.087.626.007.132.016.285.023.464.008.177.02.358.04.543.02.186.05.36.093.527.043.166.107.307.19.422H40.96c-.102-.262-.164-.574-.187-.937-.024-.363-.058-.71-.104-1.042-.063-.433-.194-.748-.395-.95-.2-.2-.53-.3-.985-.3h-1.82v3.23h-1.82V4.536h4.463zM50.32 4.537v1.528h-4.368v1.77h4.01V9.25h-4.01v2.024h4.46v1.528h-6.28V4.537h6.188zM55.198 11.275c.263 0 .517-.043.764-.128.248-.085.468-.225.662-.422.192-.197.347-.453.463-.77.116-.317.173-.702.173-1.157 0-.417-.04-.794-.12-1.13-.082-.336-.216-.623-.4-.863-.186-.238-.432-.422-.736-.548-.305-.13-.683-.192-1.13-.192h-1.298v5.21h1.622zm.128-6.738c.532 0 1.03.085 1.49.254.458.172.856.426 1.192.766.335.34.598.764.79 1.273.187.508.28 1.107.28 1.794 0 .602-.076 1.157-.23 1.666-.154.51-.39.95-.7 1.32-.314.37-.705.662-1.172.875-.467.212-1.017.318-1.65.318h-3.57V4.537h3.57zM67.56 11.39c.18 0 .35-.016.51-.052.163-.034.306-.092.43-.174.124-.08.222-.19.295-.33.073-.138.11-.316.11-.532 0-.423-.12-.727-.358-.908-.24-.182-.556-.273-.95-.273h-1.983v2.27h1.947zm-.103-3.508c.324 0 .59-.076.8-.23.208-.156.312-.405.312-.754 0-.193-.035-.35-.105-.474-.07-.124-.162-.22-.278-.29-.116-.07-.248-.116-.4-.144-.15-.027-.306-.04-.47-.04h-1.703V7.88h1.843zm.232-3.345c.393 0 .753.035 1.077.104.324.07.602.184.834.342.232.16.412.37.54.63.126.264.19.59.19.974 0 .417-.094.765-.284 1.04-.19.28-.468.507-.84.685.51.148.89.404 1.142.77.25.367.376.81.376 1.327 0 .416-.08.776-.242 1.082-.164.304-.38.552-.656.745-.274.194-.586.336-.938.43-.35.09-.713.137-1.083.137h-4.01V4.537h3.894zM71.176 4.537h2.04l1.934 3.265 1.923-3.265H79.1L76.03 9.63v3.172h-1.818V9.584l-3.036-5.047z" fill="#C5CED8"/></g></svg>