<svg xmlns="http://www.w3.org/2000/svg" width="24" height="24" viewBox="0 0 24 24"><path fill="#FFF" d="M12.563 12.947h-1.816v3.406h1.892c.263 0 2.08-.037 2.08-1.778.037-1.817-2.12-1.628-2.158-1.628zm-.34-5.374h-1.476v2.952s1.06 0 1.513-.037c1.817-.076 1.59-1.4 1.59-1.552 0-.038.19-1.325-1.627-1.363zM12.185 5c1.06 0 2.195.038 2.687.114.492.075.984.227 1.476.492.492.264.87.643 1.135 1.097.265.454.378.984.378 1.552 0 .68-.187 1.286-.49 1.778-.34.53-.832.91-1.44 1.21v.077c.873.19 1.213.568 1.743 1.135.492.568.757 1.325.757 2.27 0 .682-.114 1.288-.38 1.818-.264.53-.605.984-1.06 1.324-.53.417-1.096.72-1.74.87-.68.19-1.476.266-2.422.266H7V5h5.185z"/></svg>