<svg viewBox="0 0 512 512" xmlns="http://www.w3.org/2000/svg" xmlns:xlink="http://www.w3.org/1999/xlink"><title>app_icon</title><defs><linearGradient x1="50%" y1="0%" x2="50%" y2="100%" id="b"><stop stop-color="#FFF" offset="0%"/><stop stop-color="#EBEBEB" stop-opacity=".95" offset="100%"/></linearGradient><linearGradient x1="50%" y1="0%" x2="50%" y2="50%" id="e"><stop stop-opacity=".5" offset="0%"/><stop stop-color="#FFF" stop-opacity="0" offset="100%"/></linearGradient><linearGradient x1="50%" y1="0%" x2="50%" y2="100%" id="d"><stop stop-color="#FFF" offset="0%"/><stop stop-color="#CCC" offset="100%"/></linearGradient><linearGradient x1="50%" y1="0%" x2="50%" y2="100%" id="f"><stop stop-color="#FFF" stop-opacity=".05" offset="0%"/><stop stop-opacity=".05" offset="100%"/></linearGradient><filter x="-50%" y="-50%" width="200%" height="200%" filterUnits="objectBoundingBox" id="a"><feOffset dy="5" in="SourceAlpha" result="shadowOffsetOuter1"/><feGaussianBlur stdDeviation="10" in="shadowOffsetOuter1" result="shadowBlurOuter1"/><feColorMatrix values="0 0 0 0 0 0 0 0 0 0.00392156863 0 0 0 0 0.00392156863 0 0 0 0.175 0" in="shadowBlurOuter1" result="shadowMatrixOuter1"/><feMerge><feMergeNode in="shadowMatrixOuter1"/><feMergeNode in="SourceGraphic"/></feMerge></filter><circle id="c" cx="231" cy="231" r="231"/><linearGradient x1="50%" y1="0%" x2="50%" y2="100%" id="g"><stop stop-color="#F00" offset="0%"/><stop stop-color="#E20000" offset="100%"/></linearGradient><filter x="-50%" y="-50%" width="200%" height="200%" filterUnits="objectBoundingBox" id="h"><feOffset dy="10" in="SourceAlpha" result="shadowOffsetInner1"/><feGaussianBlur stdDeviation="25" in="shadowOffsetInner1" result="shadowBlurInner1"/><feComposite in="shadowBlurInner1" in2="SourceAlpha" operator="arithmetic" k2="-1" k3="1" result="shadowInnerInner1"/><feColorMatrix values="0 0 0 0 0 0 0 0 0 0 0 0 0 0 0 0 0 0 0.175 0" in="shadowInnerInner1" result="shadowMatrixInner1"/><feMerge><feMergeNode in="SourceGraphic"/><feMergeNode in="shadowMatrixInner1"/></feMerge></filter></defs><g fill="none" fill-rule="evenodd"><g filter="url(#a)" transform="translate(25 25)"><use stroke-opacity=".25" stroke="#FFF" stroke-width="12" fill="url(#b)" xlink:href="#c"/><use stroke="url(#d)" stroke-width="10" fill-opacity=".05" fill="url(#e)" xlink:href="#c"/><use stroke="url(#f)" stroke-width="2" xlink:href="#c"/></g><path d="M252.656 259.875V397.03c0 2.512-9.366 3.443-21.656 3.61 0 0-21.656-1.098-21.656-3.61V259.876L94.18 148.475c-1.827-1.84 3.985-10.544 12.954-19.582 8.968-9.038 17.77-14.896 19.43-13.055l104.3 102.6 104.297-102.6c1.828-1.84 10.464 4.017 19.433 13.055 8.968 9.038 14.947 17.742 13.286 19.583l-115.224 111.4z" stroke-opacity=".75" stroke="#FFF" stroke-width="3" fill="url(#g)" filter="url(#h)" transform="translate(25 25)"/></g></svg>