<svg viewBox="0 0 32 32" xmlns="http://www.w3.org/2000/svg"><g fill="none" fill-rule="evenodd"><path d="M9.77 1c2.004.967 3.386 3.02 3.386 5.394 0 3.308-2.68 5.988-5.987 5.988-1.666 0-3.17-.678-4.25-1.77 1.11 2.06 3.285 3.46 5.79 3.46 3.634 0 6.58-2.945 6.58-6.578C15.293 4.22 12.9 1.504 9.77 1z" fill="#FFB200"/><path d="M25.5 13.048c-.41 0-.806.06-1.185.163-.466-3.25-3.256-5.75-6.637-5.75-2.938 0-5.43 1.89-6.34 4.52l-.402-.02c-2.1 0-3.86 1.448-4.345 3.4l-.12-.014c-1.835 0-3.324 1.49-3.324 3.328 0 1.825 1.468 3.302 3.285 3.324L6.423 22H25.37l-.006-.01.137.008c2.475 0 4.48-2.004 4.48-4.476s-2.004-4.474-4.476-4.474z" fill-opacity=".6" fill="#447EFF"/><path d="M16.854 29.885l.005-4.078-3.22 2.808.014.007c-.192.166-.353.373-.47.616-.458.96-.05 2.11.914 2.57.963.463 2.116.06 2.575-.898.157-.332.213-.685.178-1.025zm7.996-1.867l.005-4.078-3.214 2.81.02.005c-.19.167-.352.374-.47.617-.457.96-.05 2.11.913 2.57.96.462 2.113.06 2.57-.9.16-.33.216-.684.18-1.024zm-15.996 0l.005-4.078-3.22 2.81.014.005c-.19.167-.353.374-.47.617-.457.96-.05 2.11.914 2.57.963.462 2.116.06 2.576-.9.157-.33.212-.684.177-1.024z" fill="#005DFF"/></g></svg>