<svg viewBox="0 0 32 32" xmlns="http://www.w3.org/2000/svg"><g fill="none" fill-rule="evenodd"><path d="M25.5 13.048c-.41 0-.806.06-1.185.163-.466-3.25-3.256-5.75-6.637-5.75-2.938 0-5.43 1.89-6.34 4.52l-.402-.02c-2.1 0-3.86 1.448-4.345 3.4l-.12-.014c-1.835 0-3.324 1.49-3.324 3.328 0 1.825 1.468 3.302 3.285 3.324L6.423 22H25.37l-.006-.01.137.008c2.475 0 4.48-2.004 4.48-4.476s-2.004-4.474-4.476-4.474z" fill-opacity=".6" fill="#447EFF"/><path d="M14 28.71l-.256-.958-2.044.546.547-2.042L11.29 26l-.547 2.042-1.495-1.496-.702.7 1.496 1.497L8 29.29l.256.957L10.3 29.7l-.548 2.043.956.257.547-2.044 1.497 1.495.7-.695-1.495-1.496L14 28.71zm10-2l-.254-.958-2.044.55.548-2.045-.958-.257-.548 2.043-1.495-1.496-.706.7 1.496 1.497-2.04.548.255.957 2.044-.55-.55 2.04.956.258.55-2.044 1.496 1.495.7-.703-1.495-1.496L24 26.71z" fill="#005DFF"/></g></svg>