<svg viewBox="0 0 32 32" xmlns="http://www.w3.org/2000/svg"><path d="M2.768 21.61l1.703-.457-1.242-1.245.584-.585 1.246 1.246.458-1.706.797.214-.455 1.703 1.703-.456.215.798-1.7.456 1.245 1.248-.584.584-1.247-1.245-.456 1.702-.8-.216.46-1.7-1.703.456-.214-.8zm4.65 4.482l1.6-.43-1.17-1.17.547-.55 1.17 1.173.43-1.6.752.2-.43 1.6 1.6-.43.2.75-1.6.43 1.17 1.17-.547.55-1.17-1.172-.43 1.6-.75-.2.43-1.6-1.6.428-.203-.745zm6.02-.023l1.43-.39-1.048-1.045.49-.49 1.047 1.047.383-1.43.67.18-.383 1.43 1.43-.383.18.67-1.43.383 1.047 1.048-.492.49-1.045-1.046-.384 1.43-.668-.18.383-1.43-1.43.383-.18-.67zm4.036-4.368l1.227-.328-.893-.898.42-.422.897.897.33-1.225.573.152-.327 1.226 1.226-.33.154.574-1.228.33.897.896-.42.42-.9-.896-.33 1.227-.575-.153.33-1.226-1.228.33-.154-.575zm-.542-4.344l1.02-.274-.747-.746.35-.35.748.747.274-1.02.48.128-.274 1.02 1.02-.272.13.48-1.022.274.75.747-.35.35-.746-.746-.273 1.022-.48-.13.274-1.02-1.02.274-.128-.48zm-3.157-2.26l.682-.184-.5-.5.234-.232.5.5.186-.683.32.085-.184.683.68-.185.086.32-.682.183.5.497-.234.232-.5-.5-.184.682-.318-.087.18-.68-.68.183-.085-.32zm17.07-5.78l-.234-.87-2.944.794.79-2.964-.866-.232-.79 2.965-2.16-2.17-.635.638 2.158 2.17-2.947.794.232.872 2.948-.795-.79 2.967.867.234.79-2.963 2.158 2.17.636-.638-2.158-2.17 2.948-.796zm-8.657-3.464l-.217-.814-2.75.742.738-2.77-.81-.217-.738 2.77-2.017-2.03-.592.598L17.82 6.16l-2.753.743.217.815 2.755-.74-.736 2.77.81.216.737-2.77 2.016 2.03.595-.598-2.02-2.028 2.753-.743zM13.64 7.98l-.207-.783-2.644.713.704-2.66-.778-.208-.71 2.66L8.07 5.755l-.57.57 1.94 1.948-2.644.713.208.782 2.644-.713-.708 2.66.777.21.708-2.66 1.936 1.946.57-.57-1.935-1.944 2.645-.713zm-5.163 6.342l-.193-.722-2.442.658.655-2.456-.72-.194-.653 2.456-1.787-1.797-.526.528 1.79 1.8-2.44.656.193.727 2.44-.66-.652 2.457.718.195.655-2.457L7.3 17.31l.525-.53-1.787-1.797 2.442-.657z" fill="#005DFF" fill-rule="evenodd"/></svg>