<svg xmlns="http://www.w3.org/2000/svg" width="21" height="21" viewBox="0 0 21 21"><path fill="#fff" d="M15.5 17h-10c-.276 0-.5-.224-.5-.5v-9c0-.276.224-.5.5-.5h2c.276 0 .5.224.5.5s-.224.5-.5.5H6v8h9V8h-1.5c-.276 0-.5-.224-.5-.5s.224-.5.5-.5h2c.276 0 .5.224.5.5v9c0 .276-.224.5-.5.5z M12.854 4.146l-2-2C10.76 2.053 10.634 2 10.5 2c-.133 0-.26.053-.354.147l-1.992 2c-.196.196-.195.512 0 .707.198.197.514.194.708 0L10 3.71v8.79c0 .276.224.5.5.5s.5-.224.5-.5V3.707l1.146 1.147c.098.097.226.146.354.146s.256-.05.354-.146c.195-.196.195-.512 0-.708z"/></svg>