<svg xmlns="http://www.w3.org/2000/svg" width="42" height="71"><path opacity=".65" fill="#fff" enable-background="new" d="M41.52 1.125h-7.709c-.498 0-.809.244-.881.599-.07.356-7.434 24.854-8.041 26.977-.432 1.506-1.836 6.814-2.174 8.088l-2.908-7.939c-.707-2.186-6.479-20.108-6.678-20.864-.109-.416-.301-.932-1.029-.932h-8.384c-.537 0-.841.589-.667.954.139.292 11.2 27.613 15.207 37.693l.133 23.588c0 .406.162.648.564.648l6.566-.053c.322 0 .564-.242.564-.648l-.062-22.133v-.979c3.342-9.327 15.938-43.697 16.069-44.068.162-.453.115-.931-.57-.931z"/><path fill="#DAE1ED" d="M40.379 2.271h-5.625c-.498 0-.809.244-.881.599-.07.356-8.434 25.854-9.041 27.978-.432 1.505-1.837 6.814-2.174 8.087l-2.909-7.939c-.706-2.186-7.478-21.108-7.677-21.864-.11-.416-.301-.932-1.029-.932h-5.49c-.537 0-.841.589-.666.954.139.292 10.305 26.614 14.312 36.694l.133 22.588c0 .405.162.647.565.647l4.566-.053c.322 0 .564-.242.564-.647l-.062-21.133v-.979c3.34-9.328 15.852-42.698 15.984-43.069.162-.453.115-.931-.57-.931z"/><path opacity=".1" d="M39.893 3.088l-.973 2.61c-3.322 8.906-12.15 32.562-14.896 40.237l-.059.165v1.155l.105 20.806-3.944-.008-.028-22.174v-.191l-.07-.177c-2.774-6.978-8.383-21.575-11.734-30.296-1.442-3.754-2.054-5.343-2.315-6.015h5.067l.06.186c.1.379 1.265 3.678 3.713 10.591 1.787 5.042 3.635 10.256 3.994 11.363l2.908 7.94 1.094 2.983.812-3.072c.518-1.957 1.764-6.665 2.166-8.068.346-1.206 3.322-10.375 5.715-17.742 2.5-7.705 3.154-9.727 3.326-10.292l5.059-.001m.523-1h-5.625c-.498 0-.811.244-.881.599-.07.356-8.471 26.037-9.078 28.161-.432 1.505-1.836 6.814-2.173 8.087l-2.909-7.939c-.707-2.186-7.479-21.108-7.678-21.864-.11-.416-.301-.932-1.029-.932h-5.49c-.537 0-.841.589-.666.954.136.292 10.205 26.647 14.213 36.726l.028 22.524c0 .404.162.646.565.646l4.816.01c.322 0 .564-.242.564-.646l-.108-21.164v-.979c3.34-9.328 15.889-42.88 16.02-43.251.161-.454.115-.932-.569-.932z"/></svg>