<?xml version="1.0" encoding="utf-8"?>
<!-- Generator: Adobe Illustrator 16.0.0, SVG Export Plug-In . SVG Version: 6.00 Build 0)  -->
<!DOCTYPE svg PUBLIC "-//W3C//DTD SVG 1.1//EN" "http://www.w3.org/Graphics/SVG/1.1/DTD/svg11.dtd">
<svg version="1.1" id="Layer_1" xmlns="http://www.w3.org/2000/svg" xmlns:xlink="http://www.w3.org/1999/xlink" x="0px" y="0px"
	 width="100%" height="100%" viewBox="0 15.278 125 94.445" enable-background="new 0 15.278 125 94.445" xml:space="preserve"
	>
<rect x="6.667" y="21.667" fill="#FFFFFF" width="111.389" height="80.833"/>
<path fill="#0063AF" d="M112.5,83.889V40.278c-5.834,0-13.611-7.5-13.611-13.333H25.556c0,6.111-7.778,13.333-13.611,13.333v43.333
	c5.833,0,13.611,7.5,13.611,13.333h73.333C98.889,91.389,106.666,83.889,112.5,83.889 M65.277,47.5v10.556
	c8.611,1.944,12.5,5.556,12.5,11.667c0,6.389-5,10.277-12.222,10.833v5.556h-5v-5.834c-5-0.555-9.444-2.5-13.333-5.555l3.889-5.278
	c3.055,2.5,6.389,4.167,10,5v-11.11c-8.333-1.945-12.223-5.278-12.223-11.667c0-6.111,5-10.278,11.945-10.833v-2.778h5v3.333
	c4.166,0.556,7.5,1.945,10.555,4.167l-3.333,5.278C70.556,49.167,67.777,48.056,65.277,47.5 M60.833,56.944v-10
	c-3.333,0.278-5.556,2.222-5.556,5C55.278,54.167,56.667,55.556,60.833,56.944 M65.277,64.723V75c3.334-0.277,5.557-1.944,5.557-5
	C70.834,67.5,69.444,66.111,65.277,64.723"/>
<path fill="#0063AF" d="M118.056,102.5H6.667V21.667h111.389V102.5L118.056,102.5z M118.889,15.278H6.111
	c-3.056,0-6.111,2.5-6.111,6.111v82.223c0,3.055,2.5,6.111,6.111,6.111h112.777c3.056,0,6.111-2.5,6.111-6.111V21.389
	C124.723,17.778,122.223,15.278,118.889,15.278"/>
</svg>
