<svg xmlns="http://www.w3.org/2000/svg" xmlns:xlink="http://www.w3.org/1999/xlink" version="1.1" x="0px" y="0px" width="100px" height="95.328px" viewBox="0 0 100 95.328" enable-background="new 0 0 100 95.328" xml:space="preserve"><style>.style0{fill:	#A5D767;}</style><path d="M48.704 76.202L21.823 94.9c-1.779 1.252-4.117-0.442-3.492-2.525l9.486-31.346 c0.273-0.914-0.054-1.905-0.815-2.489L0.912 38.763c-1.731-1.303-0.837-4.06 1.332-4.099l32.741-0.668 c0.95-0.022 1.789-0.637 2.106-1.533L47.838 1.534c0.72-2.045 3.604-2.045 4.3 0l10.751 30.929c0.32 0.9 1.2 1.5 2.1 1.5 l32.736 0.668c2.167 0 3.1 2.8 1.3 4.099L73.008 58.54c-0.766 0.584-1.092 1.575-0.811 2.489l9.479 31.3 c0.618 2.083-1.716 3.777-3.49 2.525L51.316 76.202C50.528 75.7 49.5 75.7 48.7 76.2" class="style0"/></svg>