<svg xmlns="http://www.w3.org/2000/svg" xmlns:xlink="http://www.w3.org/1999/xlink" version="1.1" id="Layer_1" x="0px" y="0px" width="119.228px" height="100px" viewBox="0 0 119.228 100" enable-background="new 0 0 119.228 100" xml:space="preserve">
<g>
	<path fill="#A5D767" d="M86.338 31.959l-11.272 7.853c-0.748 0.512-1.731-0.201-1.465-1.065l3.974-13.148 c0.114-0.381-0.014-0.799-0.332-1.04l-10.947-8.301c-0.725-0.549-0.353-1.697 0.56-1.717l13.73-0.281 c0.396-0.01 0.751-0.267 0.882-0.643l4.514-12.97c0.294-0.861 1.509-0.861 1.8 0l4.506 12.97c0.13 0.4 0.5 0.6 0.9 0.6 l13.735 0.281c0.902 0 1.3 1.2 0.6 1.717l-10.943 8.301c-0.318 0.241-0.453 0.659-0.334 1.04l3.976 13.1 c0.258 0.864-0.723 1.578-1.466 1.065l-11.276-7.853C87.101 31.7 86.7 31.7 86.3 32"/>
	<path fill="#A5D767" d="M37.199 85.392L16.67 99.687c-1.363 0.935-3.153-0.369-2.672-1.95l7.237-23.938 c0.222-0.707-0.027-1.454-0.606-1.896L0.692 56.787c-1.317-1.003-0.631-3.098 1.019-3.132l25.01-0.512 c0.729-0.019 1.374-0.481 1.612-1.174l8.216-23.627c0.542-1.567 2.751-1.567 3.3 0l8.206 23.6 c0.243 0.7 0.9 1.2 1.6 1.174l25.011 0.512c1.654 0 2.3 2.1 1 3.132L55.763 71.9 c-0.578 0.442-0.828 1.19-0.612 1.896l7.241 23.938c0.478 1.582-1.308 2.885-2.667 1.95L39.194 85.4 C38.594 85 37.8 85 37.2 85.4"/>
	<path fill="#A5D767" d="M103.019 78.752l-8.487 5.906c-0.565 0.394-1.303-0.143-1.106-0.799l2.997-9.897 c0.086-0.291-0.014-0.603-0.254-0.792l-8.242-6.242c-0.547-0.414-0.266-1.289 0.42-1.303l10.34-0.205 c0.308-0.008 0.568-0.199 0.669-0.488l3.397-9.766c0.227-0.653 1.139-0.653 1.4 0l3.395 9.8 c0.103 0.3 0.4 0.5 0.7 0.488l10.338 0.205c0.687 0 1 0.9 0.4 1.303l-8.242 6.2 c-0.245 0.19-0.345 0.501-0.259 0.792l2.999 9.897c0.197 0.656-0.543 1.192-1.108 0.799l-8.485-5.906 C103.595 78.6 103.3 78.6 103 78.8"/>
</g>
</svg>
