<?xml version="1.0" encoding="UTF-8" standalone="no"?>
<svg viewBox="0 0 35 35" version="1.1" xmlns="http://www.w3.org/2000/svg" xmlns:xlink="http://www.w3.org/1999/xlink" xmlns:sketch="http://www.bohemiancoding.com/sketch/ns">
    <defs>
        <path id="path-1" d="M0,35 L35,35 L35,0 L0,0 L0,35 Z"></path>
    </defs>
    <g id="Page-1" stroke="none" stroke-width="1" fill="none" fill-rule="evenodd" sketch:type="MSPage">
        <g id="Imported-Layers" sketch:type="MSLayerGroup">
            <g id="Group-3">
                <mask id="mask-2" sketch:name="Clip 2" fill="white">
                    <use xlink:href="#path-1"></use>
                </mask>
                <g id="Clip-2"></g>
                <path d="M29.8816,11.2383 L30.1496,11.5003 C29.6576,10.0303 28.8116,8.6293 27.6156,7.4343 C26.4206,6.2393 24.9746,5.3553 23.5036,4.8643 L23.4826,4.8843 L23.4286,4.9383 L3.4656,24.8893 L3.3876,24.9673 L-0.0004,35.0003 L9.9866,31.6383 C9.9896,31.6453 10.0316,31.6233 10.0316,31.6233 L10.0996,31.5543 L30.1546,11.5113 L29.8816,11.2383 Z M5.4036,32.3773 C5.0176,31.4443 3.6036,30.0563 2.6206,29.6213 L3.9446,25.7013 C6.2226,26.0683 8.8856,28.7483 9.2806,31.0723 L5.4036,32.3773 Z" id="Fill-1" fill="#506074" sketch:type="MSShapeGroup" mask="url(#mask-2)"></path>
            </g>
            <path d="M34.9436,6.7096 C35.5676,4.0086 30.8596,-0.6394 28.2976,0.0736 L28.2766,0.0936 L28.2226,0.1476 L24.9076,3.4606 C27.9146,4.6216 30.5236,7.2416 31.5586,10.1086 L34.9486,6.7206 L34.6756,6.4476 L34.9436,6.7096 Z" id="Fill-4" fill="#506074" sketch:type="MSShapeGroup"></path>
        </g>
    </g>
</svg>