<?xml version="1.0" encoding="utf-8"?>
<!-- Generator: Adobe Illustrator 18.1.0, SVG Export Plug-In . SVG Version: 6.00 Build 0)  -->
<!DOCTYPE svg PUBLIC "-//W3C//DTD SVG 1.1//EN" "http://www.w3.org/Graphics/SVG/1.1/DTD/svg11.dtd">
<svg version="1.1" id="Layer_1" xmlns="http://www.w3.org/2000/svg" xmlns:xlink="http://www.w3.org/1999/xlink" x="0px" y="0px"
	 viewBox="0 0 38 38" enable-background="new 0 0 38 38" xml:space="preserve">
<path fill="#506074" d="M19,0C8.5,0,0,8.5,0,19s8.5,19,19,19s19-8.5,19-19S29.4,0,19,0z M21.1,30.4h-4.2v-3.8h4.2V30.4z M23.2,18.4
	c-2.7,1.5-2.7,2.2-2.7,5.3h-3.1c-0.1-0.7-0.1-1.4-0.1-2.1c0-2.2,1.1-3.7,3-4.7c2-1.2,2.9-1.8,2.9-3.6c0-1.5-1.3-2.5-3.5-2.5
	s-4.2,1.3-5.3,2.6L12,11.2c1.8-2.1,4.3-3.8,8-3.8c4.5,0,6.9,2.3,6.9,5.5C26.9,15.9,25.3,17.3,23.2,18.4z"/>
</svg>
