<?xml version="1.0" encoding="utf-8"?>
<!-- Generator: Adobe Illustrator 18.1.0, SVG Export Plug-In . SVG Version: 6.00 Build 0)  -->
<!DOCTYPE svg PUBLIC "-//W3C//DTD SVG 1.1//EN" "http://www.w3.org/Graphics/SVG/1.1/DTD/svg11.dtd">
<svg version="1.1" id="Layer_1" xmlns="http://www.w3.org/2000/svg" xmlns:xlink="http://www.w3.org/1999/xlink" x="0px" y="0px"
	 viewBox="0 0 34 27" enable-background="new 0 0 34 27" xml:space="preserve">
<path fill="#FFFFFF" d="M33.4,2.6l-1.9-1.9c0,0-1.4-1.4-2.8,0L11.4,18.3l-6.1-6.2c0,0-1.4-1.4-2.8,0L0.6,14c0,0-1.4,1.4,0,2.8
	l7.7,7.9l1.7,1.7c0,0,0.2,0.2,0.5,0.4c0.5,0.3,1.4,0.5,2.3-0.4l1.9-1.9c0,0,0,0,0,0l18.7-19C33.4,5.4,34.8,4,33.4,2.6z"/>
</svg>
