<svg xmlns="http://www.w3.org/2000/svg" viewBox="0 0 189.556 196.93"><style>.style0{fill:#3E6FB3;}</style><path d="M65.575 112.307H50.847l5.503-4.246c5.986-4.64 8.884-7.49 8.884-13.14c0-6.327-4.439-10.481-11.637-10.481 c-6.038 0-9.272 2.466-12.604 7.005l5.213 4.202c2.514-3.092 4.298-4.547 6.907-4.547c2.658 0 4.5 1.6 4.5 4.4 c0 2.799-1.646 4.635-5.846 8.111l-11.253 9.227v5.891h25.018V112.307z" class="style0"/><path d="M75.462 105.262l9.068-10.637v10.637H75.462z M91.704 118.73v-7.368h4.587v-6.101h-4.587V84.336h-6.338 L66.63 106.039l1.22 5.323H84.53v7.368H91.704z" class="style0"/><polygon points="120.6,84 115.6,84 98.7,119.3 103.6,119.3" class="style0"/><polygon points="124.4,91.1 140.4,91.1 125.1,118.7 133.6,118.7 148.9,90.2 148.9,84.6 124.4,84.6" class="style0"/><path d="M95.757 169.674c1.768 0 3.205-1.437 3.205-3.203c0-1.77-1.438-3.202-3.205-3.202 c-1.766 0-3.202 1.433-3.202 3.202C92.555 168.2 94 169.7 95.8 169.7" class="style0"/><path d="M163.53 101.811c0-1.736-1.409-3.14-3.142-3.14c-1.736 0-3.146 1.403-3.146 3.1 c0 1.7 1.4 3.1 3.1 3.146C162.121 105 163.5 103.5 163.5 101.8" class="style0"/><path d="M26.721 101.811c0 1.7 1.4 3.1 3.1 3.146c1.736 0 3.147-1.414 3.147-3.146 c0-1.736-1.411-3.14-3.147-3.14C28.135 98.7 26.7 100.1 26.7 101.8" class="style0"/><path d="M128.711 45.044c-0.474-0.278-1.021-0.426-1.561-0.426c-1.128 0-2.177 0.606-2.73 1.6 c-0.868 1.503-0.348 3.4 1.2 4.302c1.459 0.8 3.5 0.3 4.295-1.162C130.733 47.8 130.2 45.9 128.7 45" class="style0"/><path d="M62.613 159.829c1.459 0.8 3.5 0.3 4.298-1.159c0.418-0.726 0.528-1.577 0.308-2.388 c-0.221-0.807-0.739-1.484-1.466-1.906c-0.478-0.278-1.02-0.419-1.566-0.419c-1.122 0-2.17 0.6-2.73 1.6 C60.595 157 61.1 159 62.6 159.8" class="style0"/><path d="M149.109 132.854c-0.864 1.499-0.348 3.4 1.2 4.291c1.462 0.8 3.5 0.3 4.298-1.163 c0.417-0.718 0.527-1.573 0.308-2.381c-0.217-0.811-0.735-1.484-1.469-1.91c-0.474-0.273-1.01-0.418-1.561-0.418 C150.712 131.3 149.7 131.9 149.1 132.9" class="style0"/><path d="M41.451 70.855c0.868-1.499 0.354-3.424-1.155-4.291c-0.47-0.273-1.016-0.422-1.566-0.422 c-1.122 0-2.169 0.607-2.73 1.581c-0.864 1.499-0.344 3.4 1.2 4.291C38.62 72.9 40.6 72.3 41.5 70.9" class="style0"/><path d="M148.156 64.811c-0.614 0-1.209 0.178-1.729 0.518c-0.698 0.463-1.18 1.17-1.35 2 c-0.167 0.822-0.008 1.7 0.5 2.362c0.924 1.4 2.9 1.8 4.4 0.903c0.702-0.467 1.184-1.178 1.354-2 c0.17-0.821 0.008-1.658-0.455-2.369C150.2 65.3 149.2 64.8 148.2 64.8" class="style0"/><path d="M44.505 139.959c1.45-0.955 1.852-2.91 0.9-4.354c-0.585-0.889-1.57-1.422-2.636-1.422 c-0.609 0-1.205 0.178-1.72 0.521c-0.705 0.463-1.183 1.166-1.357 1.988c-0.165 0.83-0.005 1.7 0.5 2.4 C41.071 140.5 43.1 140.9 44.5 140" class="style0"/><path d="M131.264 153.312c-0.61 0-1.207 0.182-1.722 0.522c-1.449 0.955-1.852 2.903-0.899 4.4 c0.918 1.4 2.9 1.8 4.4 0.896c0.7-0.459 1.177-1.17 1.354-1.992c0.167-0.821 0.007-1.658-0.46-2.365 C133.314 153.8 132.3 153.3 131.3 153.3" class="style0"/><path d="M61.228 50.067c0.702-0.459 1.187-1.162 1.354-1.984c0.167-0.821 0.007-1.666-0.456-2.365 c-0.583-0.889-1.564-1.415-2.63-1.415c-0.611 0-1.209 0.178-1.722 0.516c-0.705 0.466-1.183 1.17-1.353 2 c-0.167 0.821-0.011 1.7 0.5 2.366C57.794 50.6 59.8 51 61.2 50.1" class="style0"/><path d="M94.713 7.396l13.562 7.152l-8.947 8.345c41.24 2.9 74.9 37.3 74.9 79.3 c0 43.819-35.653 79.47-79.477 79.47c-43.818 0-79.471-35.65-79.471-79.47c0-33.817 22.23-62.743 52.063-74.197l2.905 12.4 l29.478-25.023L62.955 0l2.255 12.134C27.393 24.6 0 60.2 0 102.155c0 52.3 42.5 94.8 94.8 94.8 c52.259 0 94.778-42.518 94.778-94.774c0-51.947-42.01-94.249-93.844-94.76" class="style0"/><path d="M95.758 35.995c-1.736 0-3.146 1.414-3.146 3.14c0 1.7 1.4 3.1 3.1 3.1 c1.737 0 3.147-1.406 3.147-3.146C98.906 37.4 97.5 36 95.8 36" class="style0"/></svg>