<svg xmlns="http://www.w3.org/2000/svg" version="1.1" x="0" y="0" width="50" height="44.6" viewBox="0 0 50 44.6" enable-background="new 0 0 50 44.635" xml:space="preserve"><path fill="#406FB3" d="M15.8 31.7c9.7 0 28.6 0 28.6 0 1 0 1.8-0.7 2-1.6 0.2-1.3 0.8-4.7 1.1-6.6 0.8-4.8 1.6-10.4 2.4-15.3C49.9 8.2 50 7.8 50 7.4c0-1.2-1-2.2-2.2-2.2H12.1c0 0-0.7-3-1.1-3.9C10.5 0.4 9.3 0 8.3 0S1.6 0 1.6 0C0.7 0 0 0.7 0 1.6c0 0.9 0.7 1.5 1.6 1.5h4.8c0.7 0 1.2 0.2 1.5 0.5 0.3 0.3 0.5 0.7 0.6 1.2 0 0.1 4.9 25.5 4.9 25.5 -0.4 0.2-0.7 0.4-1 0.6 -2 1.7-1.8 4.5 0.4 6 0.9 0.7 2 0.7 3.1 0.7 0 0 0.7 0 2 0 -0.9 0.7-1.4 1.8-1.4 3 0 2.2 1.8 3.9 3.9 3.9 2.2 0 3.9-1.8 3.9-3.9 0-1.2-0.6-2.3-1.4-3 4.3 0 9.9 0 14.6 0 -0.9 0.7-1.4 1.8-1.4 3 0 2.2 1.8 3.9 3.9 3.9 2.2 0 3.9-1.8 3.9-3.9 0-1.2-0.6-2.3-1.4-3 2.3 0 3.9 0 4.2 0 0.7 0 1.2-0.5 1.2-1.2 0-0.7-0.5-1.2-1.2-1.2H15.8c-1 0-1.7-0.8-1.7-1.7C14.1 32.5 14.8 31.7 15.8 31.7zM36.5 21.1h-4.9v-4.7h5.4L36.5 21.1zM39.7 16.4h5.4l-0.7 4.7H39.3L39.7 16.4zM36.2 23.9l-0.4 4.6h-4.3v-4.6H36.2zM31.5 13.6V8.7h6l-0.4 4.8H31.5zM28.7 13.6h-5.9l-0.4-4.8h6.3V13.6zM28.7 16.4v4.7h-5.2l-0.4-4.7H28.7zM20.6 21.1h-5.5l-0.9-4.7h6L20.6 21.1zM15.7 23.9h5.2l0.4 4.6h-4.7L15.7 23.9zM24.1 28.5l-0.4-4.6h5v4.6H24.1zM38.6 28.5l0.4-4.6h4.8l-0.7 4.6H38.6zM45.5 13.6h-5.6l0.4-4.8h5.9L45.5 13.6zM19.6 8.7l0.4 4.8h-6.3l-0.9-4.8H19.6z"/></svg>