<svg xmlns="http://www.w3.org/2000/svg" viewBox="0 0 60 44.901"><path fill="#046EB4" d="M30.146 20.42v-5.294H25.17v5.293h-2.498l4.958 6.645 4.96-6.646"/><path fill="#046EB4" d="M51.565 37.064c0 .814-.663 1.483-1.478 1.483h-3.29v-3.06h3.29c.814 0 1.478.667 1.478 1.487v.09zm-41.668 0v-.09c0-.82.663-1.486 1.48-1.486h3.304l.005 3.06h-3.31c-.814 0-1.478-.67-1.478-1.484M38.724 10.42l.017 28.127h-7.237v-11.35h-1.465v11.35h-4.814v-9.92h-1.46v9.92h-7.18l-.018-28.127h22.158zm-15.98-8.78H44.9v36.907h-4.258v-.006l-.017-28.12v-1.9h-17.88V1.64zm24.055 27.757V-.26H20.842v8.78h-6.176l.002 1.904.01 18.973H.732V44.64h60V29.398H46.8z"/></svg>
