<svg xmlns="http://www.w3.org/2000/svg" viewBox="0 0 10 11"><g fill="#FFF"><path d="M9.38 2.95H.72c-.343 0-.62.282-.62.628V7.5c0 .344.277.624.62.624h.62V6.377h7.42v1.747h.62c.34 0 .618-.28.618-.624V3.578c0-.346-.277-.627-.62-.627zm-.694 1.592H7.03V3.9h1.655v.642zM8.143 10.25V7.254c0-.136-.11-.252-.25-.252H2.208c-.143 0-.25.112-.25.252v2.996c0 .135.1.252.223.252h5.71c.146 0 .254-.113.254-.252zm-.747-.64H2.688V9.1h4.71v.51zm0-1.157H2.688v-.5h4.71v.5zM2.208 2.5h5.685c.143 0 .25-.11.25-.25v-2c0-.143-.112-.25-.25-.25H2.208c-.143 0-.25.11-.25.25v2c0 .143.11.25.25.25z"/></g></svg>