<svg xmlns="http://www.w3.org/2000/svg" xmlns:xlink="http://www.w3.org/1999/xlink" version="1.1" id="Layer_1" x="0" y="0" viewBox="0 0 30 24" enable-background="new 0 0 30 24" xml:space="preserve">
  <path fill="#A19EA3" d="M24.5 3.9l-19 0c-1 0-1.9 0.9-1.9 2l0 0.5 18.3 0c1.2 0 2.2 1 2.2 2.3l0 11.4h0.3c1 0 1.9-0.9 1.9-2l0-12.2C26.3 4.8 25.5 3.9 24.5 3.9"/>
  <path fill="#A19EA3" d="M28.1 0l-19 0c-1 0-1.9 0.9-1.9 2l0 0.5 18.3 0c1.2 0 2.2 1 2.2 2.3l0 11.4h0.3c1 0 1.9-0.9 1.9-2L30 2C30 0.9 29.2 0 28.1 0"/>
  <path fill="#A19EA3" d="M14 20.6h1.7v-3.8h3.2V15h-3.2v-3.8H14V15h-3.2v1.8H14V20.6zM22.7 22c0 1.1-0.8 2-1.9 2l-19 0c-1 0-1.9-0.9-1.9-2L0 9.8c0-1.1 0.8-2 1.9-2l19 0c1 0 1.8 0.9 1.8 2V22z"/>
</svg>