<svg xmlns="http://www.w3.org/2000/svg" version="1.1" x="0" y="0" width="50" height="31.4" viewBox="0 0 50 31.4" enable-background="new 0 0 50 31.428" xml:space="preserve"><path fill="#406FB3" d="M8.6 12.2c0 1 0.8 1.4 2 1.8v-3.7C9.3 10.4 8.6 11.2 8.6 12.2zM12.2 17.4v3.9c1.3-0.2 2.2-0.9 2.2-2C14.4 18.3 13.5 17.8 12.2 17.4zM0 0v31.4h50V0H0zM12.2 23.6l0 2.1h-1.6l0-2.1c-2.7-0.3-4.3-1.6-5.3-3.3l2.3-1.4c0.9 1.2 1.7 2.1 3 2.4v-4.4c-2.5-0.6-4.9-1.5-4.9-4.5 0-2.6 1.9-4.3 4.9-4.5V6.3h1.9v1.7c2.3 0.3 3.4 1.6 4.3 2.9l-2 1.3c-0.6-0.9-1.2-1.7-2.3-2v3.9c2.9 0.7 4.6 1.5 4.6 4.4C17.1 20.9 15.7 23.3 12.2 23.6zM45 23.6H22.1v-2.9h22.9V23.6zM45 17.1H22.1v-2.9h22.9V17.1zM45 10.7H22.1V7.9h22.9V10.7z"/></svg>