<svg xmlns="http://www.w3.org/2000/svg" viewBox="0 0 53.866 50.23"><path fill="#046EB4" d="M52.104 33.88H41.91v-2.938h5.148v-3.72h-5.15v-3.037h6.13v-1.762h-6.13v-2.84h6.13v-1.764h-6.13v-2.94h10.195v19zm-37.83 0v-9.695h24.295v3.036H27.274v3.722H38.57v2.94H14.272zm24.295 5.144H14.272V35.74H38.57v3.284zM26.442 47.33c-1.43 0-2.584-1.092-2.584-2.44s1.154-2.44 2.583-2.44c1.427 0 2.585 1.094 2.585 2.44s-1.158 2.44-2.585 2.44m-12.17-27.748H38.57v2.84H14.272v-2.84zm0-4.7H38.57v2.937H14.272v-2.94zm0-9.533H38.57v7.768H14.272v-7.77zM10.98 17.82H3.574v1.762h7.403v2.84H3.575v1.763h7.403v9.696H1.763v-19h9.216v2.94zm30.93-4.702V2.803C41.91 1.255 40.58 0 38.937 0h-24.99c-1.642 0-2.97 1.255-2.97 2.803v10.315H0V35.74h10.98V47.43c0 1.547 1.327 2.802 2.968 2.802h24.99c1.642 0 2.972-1.256 2.972-2.802V35.74h11.957V13.12H41.91z"/></svg>
