<svg xmlns="http://www.w3.org/2000/svg" viewBox="0 0 146.25 126">
  <path fill-rule="evenodd" clip-rule="evenodd" fill="#FFF" d="M140 88.94h-26.992c-2.762 0-5-2.24-5-5V37.484c0-2.76 2.238-5 5-5h26.99c2.762 0 5 2.24 5 5V83.94c0 2.76-2.238 5-5 5"/>
  <path fill="#3E6FB3" d="M140 89.94h-26.992c-3.31 0-6-2.69-6-6V37.484c0-3.31 2.69-6 6-6h26.99c3.31 0 6 2.69 6 6V83.94c0 3.31-2.69 6-6 6zm-26.992-56.457c-2.206 0-4 1.794-4 4V83.94c0 2.207 1.794 4 4 4h26.99c2.207 0 4-1.793 4-4V37.484c0-2.206-1.793-4-4-4h-26.99z"/>
  <path fill-rule="evenodd" clip-rule="evenodd" fill="#CFDBEC" d="M112.73 33.518h7.68v54.516h-7.68z"/>
  <path fill-rule="evenodd" clip-rule="evenodd" fill="#CFDBEC" d="M119.083 115.848h-18.428c-1.104 0-2-.895-2-2V57.82c0-1.104.896-2 2-2h18.428c1.105 0 2 .896 2 2v56.027c0 1.106-.895 2-2 2"/>
  <path fill="#3E6FB3" d="M119.083 116.848h-18.428c-1.654 0-3-1.346-3-3V57.82c0-1.654 1.346-3 3-3h18.428c1.654 0 3 1.346 3 3v56.027c0 1.655-1.346 3-3 3zM100.655 56.82c-.552 0-1 .448-1 1v56.027c0 .552.448 1 1 1h18.428c.552 0 1-.448 1-1V57.82c0-.552-.448-1-1-1h-18.428z"/>
  <path fill-rule="evenodd" clip-rule="evenodd" fill="#CFDBEC" d="M103.24 125.08H3.48c-1.105 0-2-.895-2-2V49.458c0-1.105.895-2 2-2h99.76c1.105 0 2 .895 2 2v73.622c0 1.106-.895 2-2 2"/>
  <path fill="#3E6FB3" d="M103.24 126.08H3.48c-1.655 0-3-1.346-3-3V49.458c0-1.654 1.345-3 3-3h99.76c1.655 0 3 1.346 3 3v73.622c0 1.654-1.345 3-3 3zM3.48 48.458c-.553 0-1 .45-1 1v73.622c0 .552.447 1 1 1h99.76c.553 0 1-.448 1-1V49.458c0-.55-.447-1-1-1H3.48z"/>
  <path fill-rule="evenodd" clip-rule="evenodd" fill="#CFDBEC" d="M116.568 27.275c-.828 0-1.5-.672-1.5-1.5v-24c0-.828.672-1.5 1.5-1.5s1.5.672 1.5 1.5v24c0 .828-.672 1.5-1.5 1.5M124.522 27.275c-.828 0-1.5-.672-1.5-1.5v-20c0-.828.672-1.5 1.5-1.5.827 0 1.5.672 1.5 1.5v20c0 .828-.672 1.5-1.5 1.5M132.272 27.275c-.828 0-1.5-.672-1.5-1.5v-16c0-.828.672-1.5 1.5-1.5s1.5.672 1.5 1.5v16c0 .828-.67 1.5-1.5 1.5"/>
  <path fill-rule="evenodd" clip-rule="evenodd" fill="#CEE9E0" d="M93.23 89.492H13.49c-1.103 0-2-.896-2-2V67.82c0-1.106.897-2 2-2H93.23c1.104 0 2 .894 2 2V87.49c0 1.104-.895 2-2 2"/>
  <path fill="#39B990" d="M93.23 90.492H13.49c-1.653 0-3-1.346-3-3V67.82c0-1.655 1.347-3 3-3H93.23c1.654 0 3 1.345 3 3V87.49c0 1.654-1.345 3-3 3zM13.49 66.82c-.55 0-1 .447-1 1V87.49c0 .552.45 1 1 1H93.23c.552 0 1-.448 1-1V67.82c0-.553-.448-1-1-1H13.49z"/>
  <g fill="#39B990">
    <path d="M30.436 81.98c-.9 0-1.416-.36-1.8-1.14l-1.103-2.23c-.205-.407-.324-.792-.324-1.26 0-.526.095-.85.335-1.33l1.104-2.22c.406-.826.922-1.15 1.846-1.15h2.038c.265 0 .6.144.6.6 0 .432-.323.6-.6.6h-2.002c-.516 0-.6.048-.828.504L28.66 76.44c-.155.324-.25.54-.25.912 0 .336.106.54.25.828l1.02 2.074c.24.492.36.527.9.527h1.954c.265 0 .6.146.6.6 0 .433-.323.6-.6.6h-2.098zM37.048 81.38c0 .386-.168.6-.6.6-.433 0-.6-.214-.6-.6v-8.73h4.03c.947 0 1.895.673 1.895 1.74v.827c0 1.127-.936 1.703-1.895 1.703h-1.104l2.697 3.86c.134.18.302.41.302.638 0 .336-.276.562-.61.562-.24 0-.397-.143-.53-.336l-3.31-4.725h-.275v4.46zm0-5.66h2.663c.336 0 .864-.022.864-.503v-.828c0-.48-.492-.54-.852-.54h-2.675v1.87zM49.813 80.78c.312 0 .6.17.6.6s-.288.6-.6.6h-5.325v-9.33h5.325c.312 0 .6.17.6.6s-.288.6-.6.6h-4.126v2.868h1.764c.313 0 .6.166.6.6 0 .432-.287.6-.6.6h-1.763v2.865h4.126zM54.304 73.85h-.444c-.396 0-.73-.145-.73-.6 0-.432.323-.6.695-.6h2.002c.936 0 1.404.383 1.812 1.2l1.055 2.11c.24.49.36.84.36 1.39 0 .48-.133.888-.35 1.32l-1.09 2.183c-.42.852-.96 1.127-1.896 1.127h-1.99c-.313 0-.6-.168-.6-.6s.286-.6.6-.6h.574v-6.93zm1.2 6.93h.227c.505 0 .625-.06.84-.503l1.057-2.135c.132-.275.228-.48.228-.78 0-.407-.132-.634-.3-.98l-.995-2.028c-.252-.516-.36-.504-.912-.504h-.144v6.93zM65.33 80.78h1.764c.312 0 .6.17.6.6s-.288.6-.6.6h-4.726c-.312 0-.6-.167-.6-.6s.288-.6.6-.6h1.763v-6.93H62.37c-.312 0-.6-.168-.6-.6s.288-.6.6-.6h4.726c.312 0 .6.168.6.6s-.288.6-.6.6H65.33v6.93zM71.607 73.85v.432c0 .383-.168.6-.6.6s-.6-.217-.6-.6V72.65h5.925v1.63c0 .384-.168.6-.6.6s-.6-.216-.6-.6v-.43H73.97v7.53c0 .386-.168.6-.6.6s-.6-.214-.6-.6v-7.53h-1.163z"/>
  </g>
  <path fill="#FFF" d="M36.995 105.873h-18c-.552 0-1-.447-1-1v-5c0-.55.448-1 1-1h18c.552 0 1 .45 1 1v5c0 .553-.448 1-1 1"/>
  <g>
    <path fill="#3E6FB3" d="M36.995 106.373h-18c-.827 0-1.5-.673-1.5-1.5v-5c0-.827.673-1.5 1.5-1.5h18c.827 0 1.5.673 1.5 1.5v5c0 .827-.673 1.5-1.5 1.5zm-18-7c-.275 0-.5.225-.5.5v5c0 .275.225.5.5.5h18c.275 0 .5-.225.5-.5v-5c0-.275-.225-.5-.5-.5h-18z"/>
  </g>
  <path fill="#FFF" d="M62.36 105.873h-18c-.553 0-1-.447-1-1v-5c0-.55.447-1 1-1h18c.552 0 1 .45 1 1v5c0 .553-.448 1-1 1"/>
  <g>
    <path fill="#3E6FB3" d="M62.36 106.373h-18c-.828 0-1.5-.673-1.5-1.5v-5c0-.827.672-1.5 1.5-1.5h18c.826 0 1.5.673 1.5 1.5v5c0 .827-.673 1.5-1.5 1.5zm-18-7c-.276 0-.5.225-.5.5v5c0 .275.224.5.5.5h18c.274 0 .5-.225.5-.5v-5c0-.275-.226-.5-.5-.5h-18z"/>
  </g>
  <path fill="#FFF" d="M87.724 105.873h-18c-.552 0-1-.447-1-1v-5c0-.55.448-1 1-1h18c.553 0 1 .45 1 1v5c0 .553-.448 1-1 1"/>
  <g>
    <path fill="#3E6FB3" d="M87.724 106.373h-18c-.826 0-1.5-.673-1.5-1.5v-5c0-.827.674-1.5 1.5-1.5h18c.827 0 1.5.673 1.5 1.5v5c0 .827-.673 1.5-1.5 1.5zm-18-7c-.274 0-.5.225-.5.5v5c0 .275.226.5.5.5h18c.275 0 .5-.225.5-.5v-5c0-.275-.225-.5-.5-.5h-18z"/>
  </g>
</svg>
