<svg viewBox="0 0 147 92" xmlns="http://www.w3.org/2000/svg" xmlns:xlink="http://www.w3.org/1999/xlink"><title>Artboard 1</title><defs><path id="a" d="M9.14329829,28.3674461 C9.14329829,8.1049846 5.50395371,18.6414646 2.67335263,15.80472 C-4.55930807,8.55636154 5.95647894,2.40187686 5.95647894,2.40187686 C7.71651048,1.0753569 10.9349982,0 13.1520856,0 L69.6086753,0 C71.8226676,0 73.6174629,1.79711857 73.6174629,3.99051759 L73.6174629,81.1118208 C73.6174629,83.3157228 71.8257627,85.1023383 69.6086753,85.1023383 L13.1520856,85.1023383 C10.9380933,85.1023383 9.14329797,83.3213042 9.14329799,81.1031182 C9.14329799,81.1031182 9.14329829,48.6299076 9.14329829,28.3674461 Z"/><rect id="c" x="56.26" y="25.738" width="19.961" height="1.93" rx="1.581"/><rect id="d" x="4.795" y="25.389" width="19.961" height="1.93" rx="1.581"/><rect id="e" x="58.498" y="19.358" width="17.723" height="1.93" rx="1.581"/><rect id="f" x="4.795" y="19.303" width="17.723" height="1.93" rx="1.581"/><ellipse id="g" cx="40.277" cy="21.877" rx="11.827" ry="11.904"/><ellipse id="h" cx="40.277" cy="21.877" rx="11.827" ry="11.904"/><rect id="i" x="56.26" y="25.738" width="19.961" height="1.93" rx="1.581"/><rect id="j" x="4.795" y="25.389" width="19.961" height="1.93" rx="1.581"/><rect id="k" x="58.498" y="19.358" width="17.723" height="1.93" rx="1.581"/><rect id="l" x="4.795" y="19.303" width="17.723" height="1.93" rx="1.581"/><path id="m" d="M16.3584268,0 L0,45.793163 L55.922994,45.5087334 L57.4447081,43.5177263 L57.8251366,1.7065775 L55.1621369,0.284429584 L16.3584268,0 Z"/><path d="M51.7914869,34.1659715 L51.7914869,12.4804803 C47.8600064,12.4804803 44.6729118,9.31230471 44.6729118,5.40416209 L-0.564484983,5.40416209 C-0.564484983,9.31230471 -3.75157963,12.4804803 -7.68306011,12.4804803 L-7.68306011,34.1659715 C-3.75157963,34.1659715 -0.564484983,37.3341471 -0.564484983,41.2422897 L-0.564484983,41.2422897 L44.6729118,41.2422897 C44.6729118,37.3341471 47.8600064,34.1659715 51.7914869,34.1659715 Z" id="o"/><ellipse id="p" cx="20.618" cy="23.181" rx="10.487" ry="10.382"/><rect id="q" x=".119" width="101.756" height="64.77" rx="3.6"/><ellipse id="s" cx="106.905" cy="55.635" rx="15.284" ry="15.287"/><path id="t" d="M108.784589,69.6426787 C116.6348,69.6426787 122.998654,63.3548637 122.998654,55.5984508 C122.998654,47.8420379 116.6348,41.5542229 108.784589,41.5542229 C100.934378,41.5542229 94.5705249,47.8420379 94.5705249,55.5984508 C94.5705249,63.3548637 100.934378,69.6426787 108.784589,69.6426787 Z"/></defs><g fill="none" fill-rule="evenodd"><g transform="translate(-23 5.898)"><mask id="b" fill="#fff"><use xlink:href="#a"/></mask><use id="Mask" transform="matrix(-1 0 0 1 73.842 0)" xlink:href="#a"/><g mask="url(#b)"><g transform="translate(34.371 26.341)"><rect id="Imported-Layers" stroke="#8CCE54" stroke-width="1.5" stroke-linecap="round" stroke-linejoin="bevel" fill="#FFF" x=".142" y=".161" width="80.555" height="41.824" rx="3.162"/><g id="Rectangle-217"><use fill="#142538" xlink:href="#c"/><use xlink:href="#c"/></g><g id="Rectangle-217"><use fill="#142538" xlink:href="#d"/><use xlink:href="#d"/></g><g id="Rectangle-217"><use fill="#142538" xlink:href="#e"/><use xlink:href="#e"/></g><g id="Rectangle-217"><use fill="#142538" xlink:href="#f"/><use xlink:href="#f"/></g><use fill="#142538" xlink:href="#g"/><use xlink:href="#g"/><use stroke="#FFF" stroke-width="2.372" xlink:href="#h"/><use xlink:href="#h"/><text id="$" font-family="BentonSans" font-size="12.684" font-weight="420" fill="#FFF"><tspan x="36.122" y="25.834">$</tspan></text></g><g transform="translate(29.114 29.177)"><rect id="Imported-Layers" stroke="#8CCE54" stroke-width="1.5" stroke-linecap="round" stroke-linejoin="bevel" fill="#FFF" x=".142" y=".161" width="80.555" height="41.824" rx="3.162"/><g id="Rectangle-217"><use fill="#142538" xlink:href="#i"/><use xlink:href="#i"/></g><g id="Rectangle-217"><use fill="#142538" xlink:href="#j"/><use xlink:href="#j"/></g><g id="Rectangle-217"><use fill="#142538" xlink:href="#k"/><use xlink:href="#k"/></g><use fill="#142538" xlink:href="#l"/><use xlink:href="#l"/><text font-family="BentonSans" font-size="12.684" font-weight="420" fill="#FFF"><tspan x="36.122" y="25.834">$</tspan></text></g><g transform="matrix(-1 0 0 1 82.087 32.014)"><path d="M14.3764741,0.568859168 L56.4496344,0.568859168 C57.0506227,0.568859168 57.53782,1.5865515 57.53782,2.84370167 L57.53782,43.2338909 C57.53782,44.4902518 57.0495558,45.5087334 56.4496344,45.5087334 L14.1530055,45.5087334" id="Rectangle-16" stroke="#FFF" stroke-width="3" fill="#FFF"/><path d="M13.514524,0.568859168 L56.4496344,0.568859168 C57.0506227,0.568859168 57.53782,1.5865515 57.53782,2.84370167 L57.53782,43.2338909 C57.53782,44.4902518 57.0495558,45.5087334 56.4496344,45.5087334 L14.1530055,45.5087334" stroke="#8CCE54" stroke-width="3"/><mask id="n" fill="#fff"><use xlink:href="#m"/></mask><use xlink:href="#m"/><use xlink:href="#m"/><use stroke="#8CCE54" stroke-width="1.5" fill="#E0F7CD" mask="url(#n)" xlink:href="#o"/><use xlink:href="#o"/><g><use stroke="#8CCE54" stroke-width="1.5" fill="#F2F3F4" mask="url(#n)" xlink:href="#p"/><use xlink:href="#p"/></g></g></g></g><path d="M58.8933342,28.9950408 C58.8933342,28.7216373 59.1026146,28.425257 59.3559653,28.3347746 L86.430703,18.6652254 C86.6862071,18.5739739 87.099701,18.5640449 87.3782659,18.6504961 C87.3782659,18.6504961 91.5893257,19.9573767 93.9373215,20.686065 C101.255992,22.9573767 115.41383,27.3511882 115.41383,27.3511882 C115.678653,27.4333747 116.117563,27.4364684 116.376714,27.3630425 L145.409955,19.1369575 C145.676918,19.061318 145.893334,19.2209096 145.893334,19.491082 L145.893334,79.5171142 C145.893334,79.7883313 145.685742,80.0807966 145.422106,80.1729974 L116.364563,90.3351988 C116.10431,90.426216 115.676579,90.425257 115.41418,90.3347746 L87.3724879,80.6652254 C87.1078586,80.5739739 86.6840537,80.5710059 86.4190901,80.6609042 L59.3675782,89.8390958 C59.1056604,89.9279607 58.8933342,89.7773096 58.8933342,89.5049592 L58.8933342,28.9950408 Z" stroke="#0063B0" stroke-width="2" fill="#E1E9F6" transform="translate(-23)"/><path d="M115.98163 27.5L115.98163 90.04998M86.9816297 18.5L86.9816297 81.04998" stroke="#0063B0" stroke-width="2" transform="translate(-23)"/><g transform="translate(92 .7)"><path d="M18.9102596,43.1651144 C18.1699801,44.1244659 16.9648456,44.1216743 16.2233497,43.1651144 L2.83683328,25.8959627 C1.16262513,23.3618012 0.158100246,20.3208075 0.158100246,17.0263975 C0.158100246,7.90341615 7.92642604,0.554347826 17.569865,0.554347826 C27.2133039,0.554347826 34.9816297,7.90341615 34.9816297,17.0263975 C34.9816297,20.3208075 33.9771048,23.3618012 32.2359283,25.8959627 L18.9102596,43.1651144 Z" stroke="#F4608C" stroke-width="2.5" fill="#FBD0DD"/><ellipse fill="#F4608C" cx="18.114" cy="18.729" rx="5.985" ry="6.098"/></g><g transform="translate(22.5 20.8)"><mask id="r" fill="#fff"><use xlink:href="#q"/></mask><use xlink:href="#q"/><g id="Oval-41"><use fill="#E5E5E5" mask="url(#r)" xlink:href="#s"/><use xlink:href="#s"/></g></g><g transform="translate(22.5 20.8)"><use stroke="#8CCE54" stroke-width="3" fill="#E0F6CD" xlink:href="#t"/><use xlink:href="#t"/></g><path d="M105,55.609 C105,52.296 107.061,50.78 109.14,50.78 C109.317,50.78 109.494,50.78 109.652,50.798 L110.145,49 L110.992,49 L110.445,50.973 C111.59,51.379 112.259,52.296 112.701,53.318 L111.696,53.776 C111.326,52.859 110.833,52.243 110.11,51.978 L108.136,59.257 C108.418,59.363 108.736,59.416 109.07,59.416 C110.357,59.416 111.097,58.799 111.767,57.424 L112.718,57.848 C111.978,59.416 110.903,60.438 109.017,60.438 C108.629,60.438 108.259,60.385 107.889,60.262 L107.273,62.518 L106.426,62.518 L107.149,59.944 C105.88,59.222 105,57.706 105,55.609 L105,55.609 Z M109.105,51.803 C107.73,51.803 106.179,52.771 106.179,55.592 C106.179,57.16 106.691,58.288 107.466,58.904 L109.405,51.82 C109.317,51.803 109.193,51.803 109.105,51.803 L109.105,51.803 Z" fill="#8CCE54" transform="translate(22.5 20.8)"/></g></svg>