<svg xmlns="http://www.w3.org/2000/svg" viewBox="0 0 82 84">
  <path fill="#CFDBEC" d="M41 2.012c-.29 0-.57.097-.764.265l-12.328 10.68 35.808 8.337L41.764 2.277c-.196-.168-.474-.265-.765-.265M4.373 34.42l.314-1.348-1.007.872M78.396 33.963L77.31 32.94l-.556 2.324"/>
  <path fill="#3E6FB3" d="M43.07.765c-1.12-.97-3.02-.972-4.143 0L25.5 12.395l1.205.28 1.203.28 12.33-10.678c.192-.168.472-.265.76-.265.293 0 .57.097.765.265l21.954 19.017 2.088.486 2.09.486L43.07.766z"/>
  <path fill="#FFF" d="M65.958 68.305L5.083 53.975c-1.093-.26-1.77-1.35-1.51-2.443l8.614-36.625c.257-1.093 1.35-1.77 2.442-1.51l60.873 14.33c1.093.257 1.77 1.35 1.512 2.442L68.4 66.792c-.256 1.094-1.35 1.77-2.442 1.512"/>
  <path fill="#39B990" d="M66.427 69.36c-.234 0-.47-.028-.698-.083L4.853 54.947c-1.627-.384-2.64-2.02-2.255-3.645l8.614-36.624c.323-1.376 1.535-2.337 2.947-2.337.235 0 .47.028.7.083l60.873 14.33c.788.186 1.457.668 1.884 1.356.426.687.558 1.5.372 2.29l-8.615 36.62c-.325 1.378-1.537 2.34-2.948 2.34zM14.16 14.34c-.478 0-.89.328-1 .796L4.547 51.76c-.13.555.213 1.11.767 1.24l60.875 14.33c.56.13 1.11-.22 1.24-.766l8.614-36.624c.063-.27.02-.545-.126-.78-.145-.233-.372-.397-.64-.46L14.4 14.37c-.08-.02-.16-.03-.24-.03z"/>
  <path fill-rule="evenodd" clip-rule="evenodd" fill="#39B990" d="M17.48 34.817l-2.845.993c.66 1.895 1.746 3.417 4.08 4.244l-.367 1.557 2.136.504.365-1.557c3.43.45 5.07-1.14 5.557-3.204.617-2.624-1.025-4.038-3.63-5.304l.7-2.98c.693.496 1.058 1.216 1.37 1.98l2.853-1.206c-.59-1.426-1.478-2.704-3.504-3.497l.313-1.33-2.136-.504-.302 1.275c-2.73-.406-4.857.736-5.454 3.268-.648 2.755 1.38 4.143 3.576 5.23l-.76 3.228C18.42 36.958 18 35.97 17.48 34.817m4.542.437c.862.538 1.085 1.006.93 1.662-.177.75-.62 1.14-1.583 1.11l.652-2.772zm-1.95-5.74c.16-.677.656-1.114 1.504-1.093l-.636 2.7c-.758-.474-1.036-.896-.868-1.607"/>
  <path fill="#39B990" d="M34.8 28.69l33.61 7.91-.466 1.978-33.61-7.91zM31.855 41.204l33.607 7.91-.465 1.977-33.608-7.91zM33.324 34.95l33.61 7.913-.466 1.977-33.61-7.914z"/>
  <path fill-rule="evenodd" clip-rule="evenodd" fill="#CFDBEC" d="M2.5 82.654c-.552 0-1-.436-1-.97V35.1c0-.386.056-.51.23-.715.072-.084.2-.215.33-.342L41 60.877 79.87 34.09l.01.007c.374.34.62.595.62 1.002v46.586c0 .533-.447.97-1 .97h-77z"/>
  <path fill="#3E6FB3" d="M80.42 33.237c-.398-.364-1.653-1.455-2.64-2.314l-.257 1.1-.257 1.102 1.035.83L41 59.663 3.68 33.944l1.007-.872.387-1.657.386-1.657-3.776 3.27c-.205.178-.54.507-.71.705C.615 34.147.5 34.515.5 35.1v46.586c0 1.088.896 1.97 2 1.97h77c1.105 0 2-.882 2-1.97V35.1c0-.992-.72-1.533-1.08-1.863m-.92 48.417l-77 .03V35.56l.046.03L30.13 54.6 10.163 72.28c-.413.364-.452.997-.086 1.41.2.224.473.337.75.337.236 0 .472-.082.663-.25L31.827 55.77l8.038 5.54 1.135.782 1.135-.78 8.038-5.543L70.51 73.776c.19.168.43.25.664.25.277 0 .55-.113.75-.336.365-.413.326-1.046-.087-1.41L51.87 54.6l27.566-18.997.063-.044v46.094z"/>
</svg>
