<svg viewBox="0 0 148 82" xmlns="http://www.w3.org/2000/svg" xmlns:xlink="http://www.w3.org/1999/xlink"><defs><path id="a" d="M.643 5.67c0-.546.444-.99 1.002-.99h92.937c.553 0 1.002.44 1.002 1v54.89c0 .55-.445 1-1.002 1l-92.937.27c-.554.002-1.002-.44-1.002-.99V5.67z"/><rect id="b" x="4.776" y=".892" width="96.356" height="56.85" rx="1"/><path d="M85.864 38.592V9.962c-5.43-.152-9.796-4.263-9.93-9.36h-65.08C10.75 5.745 6.34 9.898.864 10.02v28.813l.227-.003c5.657 0 10.24 4.298 10.24 9.6v.173h64.083c-.006-.137-.01-.275-.01-.413 0-5.302 4.586-9.6 10.242-9.6.073 0 .145 0 .218.002z" id="c"/><circle id="d" cx="42.935" cy="25.247" r="14.5"/><ellipse id="e" cx="10.909" cy="10.384" rx="10.909" ry="10.189"/></defs><g fill="none" fill-rule="evenodd"><g transform="translate(-222 -34) translate(211 19) rotate(1 66.509 55.009) translate(1.009 2.009) rotate(6 65.326 52.872) translate(4.826 6.372) rotate(-2 60.763 46.78) translate(2.263 2.78) translate(.998 .933) rotate(-15 58.08 43.375) translate(7.08 12.375)"><use stroke="#8CCE54" stroke-width="2" fill="#E0F6CD" xlink:href="#a"/><use xlink:href="#a"/></g><g transform="translate(-222 -34) translate(211 19) rotate(1 66.509 55.009) translate(1.009 2.009) rotate(6 65.326 52.872) translate(4.826 6.372) rotate(-2 60.763 46.78) translate(2.263 2.78) translate(.998 .933) rotate(-15 58.08 43.375) translate(7.08 12.375)"><use stroke="#8CCE54" stroke-width="2" fill="#FFF" xlink:href="#b"/><use xlink:href="#b"/></g><g transform="translate(-222 -34) translate(211 19) rotate(1 66.509 55.009) translate(1.009 2.009) rotate(6 65.326 52.872) translate(4.826 6.372) rotate(-2 60.763 46.78) translate(2.263 2.78) translate(.998 .933) rotate(-15 58.08 43.375) translate(7.08 12.375) translate(9.226 4.426)"><use stroke="#8CCE54" stroke-linejoin="round" fill="#E0F6CD" xlink:href="#c"/><use xlink:href="#c"/></g><g transform="translate(-222 -34) translate(211 19) rotate(1 66.509 55.009) translate(1.009 2.009) rotate(6 65.326 52.872) translate(4.826 6.372) rotate(-2 60.763 46.78) translate(2.263 2.78) translate(.998 .933) rotate(-15 58.08 43.375) translate(7.08 12.375) translate(9.226 4.426)"><use stroke="#8CCE54" fill="#FFF" xlink:href="#d"/><use xlink:href="#d"/></g><path d="M54.35 36.698c-.13-.74.08-1.368.72-1.672l.525 2.955c-.742-.185-1.105-.502-1.244-1.282zm3.655 3.582c.797.207 1.12.583 1.244 1.283.14.798-.033 1.347-.72 1.672l-.525-2.955zm-3.763 1.33l-2.072 1.867c1.26 1.344 2.744 2.22 5.045 2.06l.255 1.436 2.012-.358-.255-1.435c3.103-.872 3.925-2.8 3.587-4.702-.43-2.417-2.352-3.002-5.046-3.113l-.488-2.746c.775.162 1.35.63 1.897 1.158l2.003-2.048c-1.03-.977-2.253-1.723-4.28-1.647l-.218-1.228-2.012.358.21 1.175c-2.49.655-3.892 2.386-3.478 4.718.45 2.542 2.694 2.96 4.973 3.073l.53 2.974c-1.076-.098-1.797-.77-2.664-1.544z" fill="#8CCE54"/><g><g transform="translate(-222 -34) translate(211 19) translate(97 53) translate(0 .17)"><path d="M.545 1.587C.545.92 1.09.38 1.75.38h56.5c.666 0 1.205.535 1.205 1.207v38.656c0 .666-.533 1.207-1.2 1.207H1.747c-.664 0-1.202-.535-1.202-1.207V1.587z" stroke="#0063B0" stroke-width="2" fill="#EFF3FA"/><g transform="translate(7.636 9.459)"><mask id="f" fill="#fff"><use xlink:href="#e"/></mask><use stroke="#0063B0" fill="#FFF" xlink:href="#e"/><path d="M18.784 19.23c-.054-3.167-2.245-5.722-4.87-5.677l-5.728.097c-2.625.045-4.728 2.672-4.675 5.84l.025 1.342 15.273-.26-.023-1.343z" mask="url(#f)" fill="#0063B0"/></g><path d="M34.364 14h17.488M34.364 20h17.488M34.364 26h17.488" stroke="#0063B0" stroke-width="2" stroke-linecap="round"/><ellipse fill="#0063B0" cx="18.516" cy="17.722" rx="3.843" ry="3.778"/></g></g></g></svg>