<?xml version="1.0" encoding="utf-8"?>
<!-- Generator: Adobe Illustrator 18.0.0, SVG Export Plug-In . SVG Version: 6.00 Build 0)  -->
<!DOCTYPE svg PUBLIC "-//W3C//DTD SVG 1.1//EN" "http://www.w3.org/Graphics/SVG/1.1/DTD/svg11.dtd">
<svg version="1.1" id="Layer_1" xmlns="http://www.w3.org/2000/svg" xmlns:xlink="http://www.w3.org/1999/xlink" x="0px" y="0px" width="158px" height="166px"
	 viewBox="0 0 158 166" enable-background="new 0 0 158 166" xml:space="preserve">
<g>
	<defs>
		<rect id="SVGID_1_" x="0" width="158" height="166"/>
	</defs>
	<clipPath id="SVGID_2_">
		<use xlink:href="#SVGID_1_"  overflow="visible"/>
	</clipPath>
	<g clip-path="url(#SVGID_2_)">
		<defs>
			<path id="SVGID_3_" d="M49,6.7h98.9c2,0,3.7,3.4,3.7,7.6v134.8c0,4.2,0.4,11.6-1.7,11.6H3.5L49,6.7z"/>
		</defs>
		<clipPath id="SVGID_4_">
			<use xlink:href="#SVGID_3_"  overflow="visible"/>
		</clipPath>
		<g clip-path="url(#SVGID_4_)" enable-background="new    ">
			<g>
				<defs>
					<rect id="SVGID_5_" x="3.5" y="6" width="149" height="155"/>
				</defs>
				<clipPath id="SVGID_6_">
					<use xlink:href="#SVGID_5_"  overflow="visible"/>
				</clipPath>
				<g clip-path="url(#SVGID_6_)">
					<defs>
						<rect id="SVGID_7_" x="3.5" y="6.7" width="148.4" height="154"/>
					</defs>
					<clipPath id="SVGID_8_">
						<use xlink:href="#SVGID_7_"  overflow="visible"/>
					</clipPath>
					<g clip-path="url(#SVGID_8_)">
						<defs>
							<rect id="SVGID_9_" x="3.5" y="6" width="149" height="155"/>
						</defs>
						<clipPath id="SVGID_10_">
							<use xlink:href="#SVGID_9_"  overflow="visible"/>
						</clipPath>
						<rect x="-1.5" y="1.7" clip-path="url(#SVGID_10_)" fill="#FFFFFF" width="158.4" height="164"/>
					</g>
				</g>
			</g>
		</g>
	</g>
</g>
<g>
	<defs>
		<rect id="SVGID_11_" x="0" width="158" height="166"/>
	</defs>
	<clipPath id="SVGID_12_">
		<use xlink:href="#SVGID_11_"  overflow="visible"/>
	</clipPath>
	<path clip-path="url(#SVGID_12_)" fill="none" stroke="#88C057" stroke-width="6" stroke-miterlimit="10" d="M50,4h96
		c4.4,0,8,3.6,8,8v142c0,4.4-3.6,8-8,8H2"/>
</g>
<g>
	<defs>
		<rect id="SVGID_13_" x="0" width="158" height="166"/>
	</defs>
	<clipPath id="SVGID_14_">
		<use xlink:href="#SVGID_13_"  overflow="visible"/>
	</clipPath>
	<g clip-path="url(#SVGID_14_)">
		<defs>
			<path id="SVGID_15_" d="M10.8,144.8h100.9l-1.5,1.5c0-14.6,11.8-26.5,26.3-26.5l-1.5,1.5V44.7l1.5,1.5
				c-14.5,0-26.3-11.9-26.3-26.5l1.5,1.5H48.3L10.8,144.8"/>
		</defs>
		<clipPath id="SVGID_16_">
			<use xlink:href="#SVGID_15_"  overflow="visible"/>
		</clipPath>
		<g clip-path="url(#SVGID_16_)" enable-background="new    ">
			<g>
				<defs>
					<rect id="SVGID_17_" x="10.5" y="19" width="126" height="128"/>
				</defs>
				<clipPath id="SVGID_18_">
					<use xlink:href="#SVGID_17_"  overflow="visible"/>
				</clipPath>
				<g clip-path="url(#SVGID_18_)">
					<defs>
						<path id="SVGID_19_" d="M136.5,121.3V44.7c-13.7,0-24.8-11.2-24.8-25H-45.7c0,13.8-11.1,25-24.8,25v76.6
							c13.7,0,24.8,11.2,24.8,25h157.4C111.7,132.5,122.8,121.3,136.5,121.3"/>
					</defs>
					<clipPath id="SVGID_20_">
						<use xlink:href="#SVGID_19_"  overflow="visible"/>
					</clipPath>
					<g clip-path="url(#SVGID_20_)">
						<defs>
							<rect id="SVGID_21_" x="10.5" y="19" width="126" height="128"/>
						</defs>
						<clipPath id="SVGID_22_">
							<use xlink:href="#SVGID_21_"  overflow="visible"/>
						</clipPath>
						<rect x="-75.5" y="14.8" clip-path="url(#SVGID_22_)" fill="#E0ECC6" width="217" height="136.5"/>
					</g>
				</g>
			</g>
		</g>
	</g>
</g>
<g>
	<defs>
		<rect id="SVGID_23_" x="0" width="158" height="166"/>
	</defs>
	<clipPath id="SVGID_24_">
		<use xlink:href="#SVGID_23_"  overflow="visible"/>
	</clipPath>
	<g clip-path="url(#SVGID_24_)">
		<defs>
			<path id="SVGID_25_" d="M10.4,146.3h101.4c0-13.8,11.1-25,24.8-25V44.7c-13.7,0-24.8-11.2-24.8-25h-63L10.4,146.3z"/>
		</defs>
		<clipPath id="SVGID_26_">
			<use xlink:href="#SVGID_25_"  overflow="visible"/>
		</clipPath>
		<g clip-path="url(#SVGID_26_)" enable-background="new    ">
			<g>
				<defs>
					<rect id="SVGID_27_" x="9.5" y="19" width="127" height="128"/>
				</defs>
				<clipPath id="SVGID_28_">
					<use xlink:href="#SVGID_27_"  overflow="visible"/>
				</clipPath>
				<g clip-path="url(#SVGID_28_)">
					<defs>
						<rect id="SVGID_29_" x="9.5" y="19" width="127" height="128"/>
					</defs>
					<clipPath id="SVGID_30_">
						<use xlink:href="#SVGID_29_"  overflow="visible"/>
					</clipPath>
					<path clip-path="url(#SVGID_30_)" fill="none" stroke="#88C057" stroke-width="6" stroke-miterlimit="10" d="M136.5,121.3V44.7
						c-13.7,0-24.8-11.2-24.8-25H-45.7c0,13.8-11.1,25-24.8,25v76.6c13.7,0,24.8,11.2,24.8,25h157.4
						C111.7,132.5,122.8,121.3,136.5,121.3z"/>
				</g>
			</g>
		</g>
	</g>
</g>
<g>
	<defs>
		<rect id="SVGID_31_" x="0" width="158" height="166"/>
	</defs>
	<clipPath id="SVGID_32_">
		<use xlink:href="#SVGID_31_"  overflow="visible"/>
	</clipPath>
	<g clip-path="url(#SVGID_32_)">
		<defs>
			<path id="SVGID_33_" d="M19.1,117.5c2.8,0.8,5.8,1.2,8.9,1.2c19.3,0,35-15.7,35-35.2c0-15.4-9.8-28.5-23.5-33.2L19.1,117.5"/>
		</defs>
		<clipPath id="SVGID_34_">
			<use xlink:href="#SVGID_33_"  overflow="visible"/>
		</clipPath>
		<g clip-path="url(#SVGID_34_)" enable-background="new    ">
			<g>
				<defs>
					<rect id="SVGID_35_" x="18.5" y="50" width="45" height="69"/>
				</defs>
				<clipPath id="SVGID_36_">
					<use xlink:href="#SVGID_35_"  overflow="visible"/>
				</clipPath>
				<g clip-path="url(#SVGID_36_)">
					<defs>
						<path id="SVGID_37_" d="M28,120.2c20.2,0,36.5-16.4,36.5-36.7c0-20.2-16.3-36.7-36.5-36.7S-8.5,63.3-8.5,83.5
							C-8.5,103.8,7.8,120.2,28,120.2"/>
					</defs>
					<clipPath id="SVGID_38_">
						<use xlink:href="#SVGID_37_"  overflow="visible"/>
					</clipPath>
					<g clip-path="url(#SVGID_38_)">
						<defs>
							<rect id="SVGID_39_" x="18.5" y="50" width="45" height="69"/>
						</defs>
						<clipPath id="SVGID_40_">
							<use xlink:href="#SVGID_39_"  overflow="visible"/>
						</clipPath>
						<rect x="-13.5" y="41.9" clip-path="url(#SVGID_40_)" fill="#FFFFFF" width="83" height="83.3"/>
					</g>
				</g>
			</g>
		</g>
	</g>
</g>
<g>
	<defs>
		<rect id="SVGID_41_" x="0" width="158" height="166"/>
	</defs>
	<clipPath id="SVGID_42_">
		<use xlink:href="#SVGID_41_"  overflow="visible"/>
	</clipPath>
	<g clip-path="url(#SVGID_42_)">
		<defs>
			<path id="SVGID_43_" d="M18.7,119c3,0.8,6.1,1.2,9.3,1.2c20.2,0,36.5-16.4,36.5-36.7c0-16.1-10.3-29.7-24.6-34.7L18.7,119z"/>
		</defs>
		<clipPath id="SVGID_44_">
			<use xlink:href="#SVGID_43_"  overflow="visible"/>
		</clipPath>
		<g clip-path="url(#SVGID_44_)" enable-background="new    ">
			<g>
				<defs>
					<rect id="SVGID_45_" x="18.5" y="48" width="46" height="73"/>
				</defs>
				<clipPath id="SVGID_46_">
					<use xlink:href="#SVGID_45_"  overflow="visible"/>
				</clipPath>
				<g clip-path="url(#SVGID_46_)">
					<defs>
						<rect id="SVGID_47_" x="18.5" y="48" width="46" height="73"/>
					</defs>
					<clipPath id="SVGID_48_">
						<use xlink:href="#SVGID_47_"  overflow="visible"/>
					</clipPath>

						<ellipse clip-path="url(#SVGID_48_)" fill="none" stroke="#88C057" stroke-width="6" stroke-miterlimit="10" cx="28" cy="83.5" rx="36.5" ry="36.7"/>
				</g>
			</g>
		</g>
	</g>
</g>
<g>
	<defs>
		<rect id="SVGID_49_" x="0" width="158" height="166"/>
	</defs>
	<clipPath id="SVGID_50_">
		<use xlink:href="#SVGID_49_"  overflow="visible"/>
	</clipPath>
	<g clip-path="url(#SVGID_50_)">
		<defs>
			<path id="SVGID_51_" d="M130.6,31.8c-0.6,0-1.2-0.1-1.7-0.3c-0.5-0.2-1-0.4-1.4-0.6c-0.4-0.2-0.8-0.5-1.1-0.8
				c-0.3-0.3-0.6-0.6-0.8-0.9c-0.2-0.3-0.4-0.6-0.6-0.9l1.3-0.8c0.6,0.9,1.2,1.5,1.9,2c0.7,0.5,1.5,0.7,2.6,0.8v-7.3
				c-0.5-0.2-1-0.3-1.4-0.5c-0.4-0.1-0.8-0.3-1.2-0.5c-0.4-0.2-0.8-0.4-1.1-0.7c-0.3-0.2-0.6-0.5-0.8-0.8c-0.2-0.3-0.4-0.7-0.6-1.1
				c-0.1-0.4-0.2-0.8-0.2-1.3c0-1.2,0.5-2.3,1.4-3.1s2.2-1.3,3.8-1.4v-1.7h1.3v1.8c2.1,0.2,3.8,1.2,4.8,3l-1.3,0.9
				c-0.5-0.8-1-1.4-1.5-1.8c-0.5-0.4-1.2-0.6-2.1-0.7v6.6c0.5,0.1,0.9,0.3,1.2,0.4s0.7,0.3,1.1,0.4c0.4,0.2,0.8,0.4,1.1,0.5
				c0.3,0.2,0.6,0.4,0.9,0.7c0.3,0.3,0.5,0.5,0.7,0.8c0.2,0.3,0.3,0.7,0.4,1.1c0.1,0.4,0.2,0.8,0.2,1.3c0,1.4-0.5,2.5-1.5,3.3
				s-2.4,1.3-4.1,1.4v2.1h-1.3V31.8z M131.9,30.4c0.6,0,1.1-0.1,1.6-0.2c0.5-0.1,0.9-0.3,1.3-0.6c0.4-0.2,0.7-0.6,0.9-1
				c0.2-0.4,0.3-0.9,0.3-1.4c0-0.4-0.1-0.8-0.2-1.2c-0.1-0.4-0.3-0.7-0.6-0.9s-0.5-0.5-0.9-0.7c-0.4-0.2-0.7-0.4-1.1-0.5
				c-0.3-0.1-0.8-0.3-1.3-0.4V30.4z M130.6,15.2c-1.2,0.1-2.1,0.4-2.7,0.9c-0.6,0.5-0.9,1.2-0.9,2c0,0.5,0.1,0.9,0.3,1.2
				c0.2,0.4,0.4,0.7,0.8,0.9c0.4,0.3,0.7,0.5,1.1,0.6c0.4,0.2,0.8,0.3,1.4,0.5V15.2z"/>
		</defs>
		<clipPath id="SVGID_52_">
			<use xlink:href="#SVGID_51_"  overflow="visible"/>
		</clipPath>
		<g clip-path="url(#SVGID_52_)" enable-background="new    ">
			<g>
				<defs>
					<rect id="SVGID_53_" x="124.5" y="12" width="14" height="22"/>
				</defs>
				<clipPath id="SVGID_54_">
					<use xlink:href="#SVGID_53_"  overflow="visible"/>
				</clipPath>
				<g clip-path="url(#SVGID_54_)">
					<defs>
						<rect id="SVGID_55_" x="124.9" y="12.1" width="12.6" height="21.9"/>
					</defs>
					<clipPath id="SVGID_56_">
						<use xlink:href="#SVGID_55_"  overflow="visible"/>
					</clipPath>
					<g clip-path="url(#SVGID_56_)">
						<defs>
							<rect id="SVGID_57_" x="124.5" y="12" width="14" height="22"/>
						</defs>
						<clipPath id="SVGID_58_">
							<use xlink:href="#SVGID_57_"  overflow="visible"/>
						</clipPath>
						<rect x="119.9" y="7.1" clip-path="url(#SVGID_58_)" fill="#88C057" width="22.6" height="31.9"/>
					</g>
				</g>
			</g>
		</g>
	</g>
</g>
<g>
	<defs>
		<rect id="SVGID_59_" x="0" width="158" height="166"/>
	</defs>
	<clipPath id="SVGID_60_">
		<use xlink:href="#SVGID_59_"  overflow="visible"/>
	</clipPath>
	<path clip-path="url(#SVGID_60_)" fill="none" stroke="#88C057" stroke-miterlimit="10" d="M130.6,31.8c-0.6,0-1.2-0.1-1.7-0.3
		c-0.5-0.2-1-0.4-1.4-0.6c-0.4-0.2-0.8-0.5-1.1-0.8c-0.3-0.3-0.6-0.6-0.8-0.9s-0.4-0.6-0.6-0.9l1.3-0.8c0.6,0.9,1.2,1.5,1.9,2
		c0.7,0.5,1.5,0.7,2.6,0.8v-7.3c-0.5-0.2-1-0.3-1.4-0.5c-0.4-0.1-0.8-0.3-1.2-0.5c-0.4-0.2-0.8-0.4-1.1-0.7
		c-0.3-0.2-0.6-0.5-0.8-0.8c-0.2-0.3-0.4-0.7-0.6-1.1c-0.1-0.4-0.2-0.8-0.2-1.3c0-1.2,0.5-2.3,1.4-3.1c0.9-0.8,2.2-1.3,3.8-1.4v-1.7
		h1.3v1.8c2.1,0.2,3.8,1.2,4.8,3l-1.3,0.9c-0.5-0.8-1-1.4-1.5-1.8c-0.5-0.4-1.2-0.6-2.1-0.7v6.6c0.5,0.1,0.9,0.3,1.2,0.4
		c0.3,0.1,0.7,0.3,1.1,0.4c0.4,0.2,0.8,0.4,1.1,0.5c0.3,0.2,0.6,0.4,0.9,0.7c0.3,0.3,0.5,0.5,0.7,0.8c0.2,0.3,0.3,0.7,0.4,1.1
		c0.1,0.4,0.2,0.8,0.2,1.3c0,1.4-0.5,2.5-1.5,3.3c-1,0.9-2.4,1.3-4.1,1.4v2.1h-1.3V31.8z M131.9,30.4c0.6,0,1.1-0.1,1.6-0.2
		c0.5-0.1,0.9-0.3,1.3-0.6c0.4-0.2,0.7-0.6,0.9-1c0.2-0.4,0.3-0.9,0.3-1.4c0-0.4-0.1-0.8-0.2-1.2c-0.1-0.4-0.3-0.7-0.6-0.9
		c-0.2-0.2-0.5-0.5-0.9-0.7c-0.4-0.2-0.7-0.4-1.1-0.5c-0.3-0.1-0.8-0.3-1.3-0.4V30.4z M130.6,15.2c-1.2,0.1-2.1,0.4-2.7,0.9
		c-0.6,0.5-0.9,1.2-0.9,2c0,0.5,0.1,0.9,0.3,1.2c0.2,0.4,0.4,0.7,0.8,0.9c0.4,0.3,0.7,0.5,1.1,0.6c0.4,0.2,0.8,0.3,1.4,0.5V15.2z"/>
</g>
<g>
	<defs>
		<rect id="SVGID_61_" x="0" width="158" height="166"/>
	</defs>
	<clipPath id="SVGID_62_">
		<use xlink:href="#SVGID_61_"  overflow="visible"/>
	</clipPath>
	<g clip-path="url(#SVGID_62_)">
		<defs>
			<path id="SVGID_63_" d="M130.6,149.3c-0.6,0-1.2-0.1-1.7-0.3c-0.5-0.2-1-0.4-1.4-0.6c-0.4-0.2-0.8-0.5-1.1-0.8
				c-0.3-0.3-0.6-0.6-0.8-0.9c-0.2-0.3-0.4-0.6-0.6-0.9l1.3-0.8c0.6,0.9,1.2,1.5,1.9,2c0.7,0.5,1.5,0.7,2.6,0.8v-7.3
				c-0.5-0.2-1-0.3-1.4-0.5c-0.4-0.1-0.8-0.3-1.2-0.5c-0.4-0.2-0.8-0.4-1.1-0.7c-0.3-0.2-0.6-0.5-0.8-0.8c-0.2-0.3-0.4-0.7-0.6-1.1
				c-0.1-0.4-0.2-0.8-0.2-1.3c0-1.2,0.5-2.3,1.4-3.1c0.9-0.8,2.2-1.3,3.8-1.4v-1.7h1.3v1.8c2.1,0.2,3.8,1.2,4.8,3l-1.3,0.9
				c-0.5-0.8-1-1.4-1.5-1.8c-0.5-0.4-1.2-0.6-2.1-0.7v6.6c0.5,0.1,0.9,0.3,1.2,0.4c0.3,0.1,0.7,0.3,1.1,0.4c0.4,0.2,0.8,0.4,1.1,0.5
				c0.3,0.2,0.6,0.4,0.9,0.7c0.3,0.3,0.5,0.5,0.7,0.8c0.2,0.3,0.3,0.7,0.4,1.1c0.1,0.4,0.2,0.8,0.2,1.3c0,1.4-0.5,2.5-1.5,3.3
				c-1,0.9-2.4,1.3-4.1,1.4v2.1h-1.3V149.3z M131.9,147.9c0.6,0,1.1-0.1,1.6-0.2c0.5-0.1,0.9-0.3,1.3-0.6c0.4-0.2,0.7-0.6,0.9-1
				c0.2-0.4,0.3-0.9,0.3-1.4c0-0.4-0.1-0.8-0.2-1.2s-0.3-0.7-0.6-0.9s-0.5-0.5-0.9-0.7c-0.4-0.2-0.7-0.4-1.1-0.5
				c-0.3-0.1-0.8-0.3-1.3-0.4V147.9z M130.6,132.8c-1.2,0.1-2.1,0.4-2.7,0.9c-0.6,0.5-0.9,1.2-0.9,2c0,0.5,0.1,0.9,0.3,1.2
				c0.2,0.4,0.4,0.7,0.8,0.9c0.4,0.3,0.7,0.5,1.1,0.6c0.4,0.2,0.8,0.3,1.4,0.5V132.8z"/>
		</defs>
		<clipPath id="SVGID_64_">
			<use xlink:href="#SVGID_63_"  overflow="visible"/>
		</clipPath>
		<g clip-path="url(#SVGID_64_)" enable-background="new    ">
			<g>
				<defs>
					<rect id="SVGID_65_" x="124.5" y="129" width="14" height="23"/>
				</defs>
				<clipPath id="SVGID_66_">
					<use xlink:href="#SVGID_65_"  overflow="visible"/>
				</clipPath>
				<g clip-path="url(#SVGID_66_)">
					<defs>
						<rect id="SVGID_67_" x="124.9" y="129.6" width="12.6" height="21.9"/>
					</defs>
					<clipPath id="SVGID_68_">
						<use xlink:href="#SVGID_67_"  overflow="visible"/>
					</clipPath>
					<g clip-path="url(#SVGID_68_)">
						<defs>
							<rect id="SVGID_69_" x="124.5" y="129" width="14" height="23"/>
						</defs>
						<clipPath id="SVGID_70_">
							<use xlink:href="#SVGID_69_"  overflow="visible"/>
						</clipPath>
						<rect x="119.9" y="124.6" clip-path="url(#SVGID_70_)" fill="#88C057" width="22.6" height="31.9"/>
					</g>
				</g>
			</g>
		</g>
	</g>
</g>
<g>
	<defs>
		<rect id="SVGID_71_" x="0" width="158" height="166"/>
	</defs>
	<clipPath id="SVGID_72_">
		<use xlink:href="#SVGID_71_"  overflow="visible"/>
	</clipPath>
	<path clip-path="url(#SVGID_72_)" fill="none" stroke="#88C057" stroke-miterlimit="10" d="M130.6,149.3c-0.6,0-1.2-0.1-1.7-0.3
		c-0.5-0.2-1-0.4-1.4-0.6c-0.4-0.2-0.8-0.5-1.1-0.8c-0.3-0.3-0.6-0.6-0.8-0.9s-0.4-0.6-0.6-0.9l1.3-0.8c0.6,0.9,1.2,1.5,1.9,2
		c0.7,0.5,1.5,0.7,2.6,0.8v-7.3c-0.5-0.2-1-0.3-1.4-0.5c-0.4-0.1-0.8-0.3-1.2-0.5c-0.4-0.2-0.8-0.4-1.1-0.7
		c-0.3-0.2-0.6-0.5-0.8-0.8c-0.2-0.3-0.4-0.7-0.6-1.1c-0.1-0.4-0.2-0.8-0.2-1.3c0-1.2,0.5-2.3,1.4-3.1c0.9-0.8,2.2-1.3,3.8-1.4v-1.7
		h1.3v1.8c2.1,0.2,3.8,1.2,4.8,3l-1.3,0.9c-0.5-0.8-1-1.4-1.5-1.8c-0.5-0.4-1.2-0.6-2.1-0.7v6.6c0.5,0.1,0.9,0.3,1.2,0.4
		c0.3,0.1,0.7,0.3,1.1,0.4c0.4,0.2,0.8,0.4,1.1,0.5c0.3,0.2,0.6,0.4,0.9,0.7c0.3,0.3,0.5,0.5,0.7,0.8c0.2,0.3,0.3,0.7,0.4,1.1
		c0.1,0.4,0.2,0.8,0.2,1.3c0,1.4-0.5,2.5-1.5,3.3c-1,0.9-2.4,1.3-4.1,1.4v2.1h-1.3V149.3z M131.9,147.9c0.6,0,1.1-0.1,1.6-0.2
		c0.5-0.1,0.9-0.3,1.3-0.6c0.4-0.2,0.7-0.6,0.9-1c0.2-0.4,0.3-0.9,0.3-1.4c0-0.4-0.1-0.8-0.2-1.2s-0.3-0.7-0.6-0.9s-0.5-0.5-0.9-0.7
		c-0.4-0.2-0.7-0.4-1.1-0.5c-0.3-0.1-0.8-0.3-1.3-0.4V147.9z M130.6,132.8c-1.2,0.1-2.1,0.4-2.7,0.9c-0.6,0.5-0.9,1.2-0.9,2
		c0,0.5,0.1,0.9,0.3,1.2c0.2,0.4,0.4,0.7,0.8,0.9c0.4,0.3,0.7,0.5,1.1,0.6c0.4,0.2,0.8,0.3,1.4,0.5V132.8z"/>

		<path clip-path="url(#SVGID_72_)" fill="none" stroke="#88C057" stroke-width="6" stroke-linecap="square" stroke-miterlimit="10" d="
		M44.2,25.2l2.9-9.6 M13.7,125l2.9-9.6 M21.3,100l2.9-9.6 M28.9,75.1l2.9-9.6 M36.6,50.1l2.9-9.6 M6,150l2.9-9.6"/>
</g>
</svg>
