<?xml version="1.0" encoding="UTF-8" standalone="no"?>
<svg viewBox="0 0 28 42" version="1.1" xmlns="http://www.w3.org/2000/svg" xmlns:xlink="http://www.w3.org/1999/xlink" xmlns:sketch="http://www.bohemiancoding.com/sketch/ns">
    <!-- Generator: Sketch 3.2.2 (9983) - http://www.bohemiancoding.com/sketch -->
    <title>r-coin-1</title>
    <desc>Created with Sketch.</desc>
    <defs></defs>
    <g id="SVG-Assets" stroke="none" stroke-width="1" fill="none" fill-rule="evenodd" sketch:type="MSPage">
        <g id="r-coin-1" sketch:type="MSArtboardGroup">
            <g sketch:type="MSLayerGroup" transform="translate(-3.000000, -1.000000)" id="Small-Breakpoint-(Copy-is-up-to-date)">
                <g sketch:type="MSShapeGroup">
                    <g id="05---Small---Funding---Link-active">
                        <g id="Serve-Card-+-Illustration-2">
                            <g id="Rectangle-264-+-Coins" transform="translate(16.731611, 22.635302) rotate(63.000000) translate(-16.731611, -22.635302) translate(-4.768389, 15.135302)">
                                <g id="Coins-4-+-Coins-5" transform="translate(0.500960, 0.500000)">
                                    <g id="Path-1612" transform="translate(0.000000, 4.000000)">
                                        <g id="path-1-link" fill="#ACE17D">
                                            <path d="M0.92971449,0.89708469 L0.92971449,6.6011556 L7.21623558,8.3123768 L18.6462739,9.453191 L31.2193161,8.3123768 L40.3633468,6.6011556 L40.3633468,0.32667761 L27.7903046,2.60830595 L19.7892778,3.17871304 L11.7882509,2.60830595 L0.92971449,0.89708469 L0.92971449,0.89708469 Z" id="path-1"></path>
                                        </g>
                                        <path d="M0.92971449,0.89708469 L0.92971449,6.6011556 L7.21623558,8.3123768 L18.6462739,9.453191 L31.2193161,8.3123768 L40.3633468,6.6011556 L40.3633468,0.32667761 L27.7903046,2.60830595 L19.7892778,3.17871304 L11.7882509,2.60830595 L0.92971449,0.89708469 L0.92971449,0.89708469 Z" id="path-1"></path>
                                    </g>
                                    <g id="Coins-5" transform="translate(0.000000, 9.000000)">
                                        <g id="path-2-link" stroke="#8CCE54" stroke-width="3">
                                            <path d="M40.1332962,0.46034138 L40.1332962,0.46034138 C40.1332962,2.3507742 31.3058364,3.8827839 20.702231,3.8827839 C9.5271236,3.8827839 0.69966386,2.3507742 0.69966386,0.46034138" id="path-2"></path>
                                        </g>
                                        <path d="M40.1332962,0.46034138 L40.1332962,0.46034138 C40.1332962,2.3507742 31.3058364,3.8827839 20.702231,3.8827839 C9.5271236,3.8827839 0.69966386,2.3507742 0.69966386,0.46034138" id="path-2"></path>
                                    </g>
                                    <g id="Path-1609" transform="translate(0.000000, 3.000000)">
                                        <g id="path-3-link" stroke="#8CCE54" stroke-width="3">
                                            <path d="M0.55748042,0.52927527 L0.55748042,6.5253364" id="path-3"></path>
                                        </g>
                                        <path d="M0.55748042,0.52927527 L0.55748042,6.5253364" id="path-3"></path>
                                    </g>
                                    <g id="Path-1610" transform="translate(40.000000, 3.000000)">
                                        <g id="path-4-link" stroke="#8CCE54" stroke-width="3">
                                            <path d="M0.1332962,0.52927527 L0.1332962,6.5253364" id="path-4"></path>
                                        </g>
                                        <path d="M0.1332962,0.52927527 L0.1332962,6.5253364" id="path-4"></path>
                                    </g>
                                    <g id="Coins-6">
                                        <g id="path-5-link" fill="#E0F6CD">
                                            <path d="M40.3633468,3.75627052 C40.3633468,5.64670332 31.4079529,7.17871304 20.3607797,7.17871304 C9.3136065,7.17871304 0.35821257,5.64670332 0.35821257,3.75627052 C0.35821257,1.86645999 9.3136065,0.333828006 20.3607797,0.333828006 C31.4079529,0.333828006 40.3633468,1.86645999 40.3633468,3.75627052 L40.3633468,3.75627052" id="path-5"></path>
                                        </g>
                                        <path d="M40.3633468,3.75627052 C40.3633468,5.64670332 31.4079529,7.17871304 20.3607797,7.17871304 C9.3136065,7.17871304 0.35821257,5.64670332 0.35821257,3.75627052 C0.35821257,1.86645999 9.3136065,0.333828006 20.3607797,0.333828006 C31.4079529,0.333828006 40.3633468,1.86645999 40.3633468,3.75627052 L40.3633468,3.75627052" id="path-5"></path>
                                    </g>
                                    <g id="Coins-4">
                                        <g id="path-6-link" stroke="#8CCE54" stroke-width="3">
                                            <path d="M40.3633468,3.75627052 C40.3633468,5.64670332 31.4079529,7.17871304 20.3607797,7.17871304 C9.3136065,7.17871304 0.35821257,5.64670332 0.35821257,3.75627052 C0.35821257,1.86645999 9.3136065,0.333828006 20.3607797,0.333828006 C31.4079529,0.333828006 40.3633468,1.86645999 40.3633468,3.75627052 L40.3633468,3.75627052" id="path-6"></path>
                                        </g>
                                        <path d="M40.3633468,3.75627052 C40.3633468,5.64670332 31.4079529,7.17871304 20.3607797,7.17871304 C9.3136065,7.17871304 0.35821257,5.64670332 0.35821257,3.75627052 C0.35821257,1.86645999 9.3136065,0.333828006 20.3607797,0.333828006 C31.4079529,0.333828006 40.3633468,1.86645999 40.3633468,3.75627052 L40.3633468,3.75627052" id="path-6"></path>
                                    </g>
                                </g>
                            </g>
                        </g>
                    </g>
                </g>
            </g>
        </g>
    </g>
</svg>