<?xml version="1.0" encoding="UTF-8" standalone="no"?>
<svg viewBox="0 0 221 76" version="1.1" xmlns="http://www.w3.org/2000/svg" xmlns:xlink="http://www.w3.org/1999/xlink" xmlns:sketch="http://www.bohemiancoding.com/sketch/ns">
    <!-- Generator: Sketch 3.2.2 (9983) - http://www.bohemiancoding.com/sketch -->
    <title>shimmers</title>
    <desc>Created with Sketch.</desc>
    <defs>
        <rect id="path-1" x="47.8284072" y="0" width="51.3341544" height="6" rx="3"></rect>
        <rect id="path-2" x="17.7791461" y="11.75" width="56.3423645" height="6" rx="3"></rect>
        <rect id="path-3" x="0" y="23.5" width="62.6026273" height="6" rx="3"></rect>
        <path d="M85.3926521,6 L46.8260953,6 L46.8260953,6 L51.4708033,6 C53.1241581,6 54.464467,7.34651712 54.464467,9 C54.464467,10.6568542 53.1261822,12 51.4708033,12 L46.8260953,12 L85.3926521,12 L72.9868544,12 C71.3316924,12 69.9899186,10.6534829 69.9899186,9 C69.9899186,7.34314575 71.3376673,6 72.9868544,6 L85.3926521,6 Z" id="path-4"></path>
        <path d="M64.1077588,17.75 L25.5412021,17.75 L25.5412021,17.75 L30.18591,17.75 C31.8392648,17.75 33.1795737,19.0965171 33.1795737,20.75 C33.1795737,22.4068542 31.8412889,23.75 30.18591,23.75 L25.5412021,23.75 L64.1077588,23.75 L51.7019611,23.75 C50.0467992,23.75 48.7050253,22.4034829 48.7050253,20.75 C48.7050253,19.0931458 50.0527741,17.75 51.7019611,17.75 L64.1077588,17.75 Z" id="path-5"></path>
        <rect id="path-6" x="42.820197" y="0" width="56.3423645" height="6" rx="3"></rect>
        <rect id="path-7" x="17.7791461" y="11.75" width="60.8497537" height="6" rx="3"></rect>
        <rect id="path-8" x="0" y="23.5" width="92.6518883" height="6" rx="3"></rect>
        <path d="M83.890189,6 L45.3236323,6 L45.3236323,6 L49.9683402,6 C51.621695,6 52.962004,7.34651712 52.962004,9 C52.962004,10.6568542 51.6237191,12 49.9683402,12 L45.3236323,12 L83.890189,12 L71.4843913,12 C69.8292294,12 68.4874555,10.6534829 68.4874555,9 C68.4874555,7.34314575 69.8352043,6 71.4843913,6 L83.890189,6 Z" id="path-9"></path>
        <path d="M64.1077588,17.75 L25.5412021,17.75 L25.5412021,17.75 L30.18591,17.75 C31.8392648,17.75 33.1795737,19.0965171 33.1795737,20.75 C33.1795737,22.4068542 31.8412889,23.75 30.18591,23.75 L25.5412021,23.75 L64.1077588,23.75 L51.7019611,23.75 C50.0467992,23.75 48.7050253,22.4034829 48.7050253,20.75 C48.7050253,19.0931458 50.0527741,17.75 51.7019611,17.75 L64.1077588,17.75 Z" id="path-10"></path>
        <rect id="path-11" x="0" y="12.25" width="64.6059113" height="6" rx="3"></rect>
        <rect id="path-12" x="13.5221675" y="0.25" width="64.6059113" height="6" rx="3"></rect>
        <rect id="path-13" x="23.0377668" y="24" width="64.6059113" height="6" rx="3"></rect>
        <path d="M67.1126849,18.25 L28.5461282,18.25 L28.5461282,18.25 L33.1908361,18.25 C34.8441909,18.25 36.1844999,19.5965171 36.1844999,21.25 C36.1844999,22.9068542 34.846215,24.25 33.1908361,24.25 L28.5461282,24.25 L67.1126849,24.25 L54.7068872,24.25 C53.0517253,24.25 51.7099514,22.9034829 51.7099514,21.25 C51.7099514,19.5931458 53.0577002,18.25 54.7068872,18.25 L67.1126849,18.25 Z" id="path-14"></path>
        <path d="M56.5954435,6.25 L18.0288868,6.25 L18.0288868,6.25 L22.6735947,6.25 C24.3269496,6.25 25.6672585,7.59651712 25.6672585,9.25 C25.6672585,10.9068542 24.3289736,12.25 22.6735947,12.25 L18.0288868,12.25 L56.5954435,12.25 L44.1896458,12.25 C42.5344839,12.25 41.19271,10.9034829 41.19271,9.25 C41.19271,7.59314575 42.5404588,6.25 44.1896458,6.25 L56.5954435,6.25 Z" id="path-15"></path>
        <rect id="path-16" x="0" y="23.75" width="49.0804598" height="6" rx="3"></rect>
        <rect id="path-17" x="37.5629439" y="0.25" width="38.5625346" height="6" rx="3"></rect>
        <rect id="path-18" x="24.5402299" y="11.75" width="40.5665025" height="6" rx="3"></rect>
        <path d="M53.0896964,17.75 L14.5231397,17.75 L14.5231397,17.75 L19.1678476,17.75 C20.8212024,17.75 22.1615113,19.0965171 22.1615113,20.75 C22.1615113,22.4068542 20.8232265,23.75 19.1678476,23.75 L14.5231397,23.75 L53.0896964,23.75 L40.6838987,23.75 C39.0287368,23.75 37.6869629,22.4034829 37.6869629,20.75 C37.6869629,19.0931458 39.0347117,17.75 40.6838987,17.75 L53.0896964,17.75 Z" id="path-19"></path>
        <path d="M72.3709637,5.75 L33.804407,5.75 L33.804407,5.75 L38.4491149,5.75 C40.1024697,5.75 41.4427787,7.09651712 41.4427787,8.75 C41.4427787,10.4068542 40.1044938,11.75 38.4491149,11.75 L33.804407,11.75 L72.3709637,11.75 L59.965166,11.75 C58.3100041,11.75 56.9682302,10.4034829 56.9682302,8.75 C56.9682302,7.09314575 58.315979,5.75 59.965166,5.75 L72.3709637,5.75 Z" id="path-20"></path>
        <ellipse id="path-21" cx="137.72578" cy="53" rx="4.00656814" ry="4"></ellipse>
        <ellipse id="path-22" cx="227.873563" cy="83" rx="3.50574713" ry="3.5"></ellipse>
        <ellipse id="path-23" cx="60.0985222" cy="87.5" rx="4.00656814" ry="4"></ellipse>
        <ellipse id="path-24" cx="185.303777" cy="45.5" rx="2.00328407" ry="2"></ellipse>
        <path id="path-25" d="M146.477968,15.9746189 C145.84106,15.3377107 143.077501,15.1631234 143.077501,15.1631234 C141.981444,15.0473659 141.978334,14.794887 143.063803,14.576566 C143.063803,14.576566 145.716289,14.1941123 146.456875,13.4535257 C146.896029,13.0143714 147.170588,10.5594009 147.170588,10.5594009 C147.3287,9.4714905 147.659229,9.45652963 147.92809,10.5264763 C147.92809,10.5264763 148.415034,12.9116851 148.977968,13.4746187 C149.594775,14.091426 151.881437,14.5091993 151.881437,14.5091993 C152.952537,14.7545941 152.927417,15.0463299 151.836603,15.1866658 C151.836603,15.1866658 149.585238,15.3251624 148.956875,15.9535257 C148.405497,16.5049033 147.875539,19.3716836 147.875539,19.3716836 C147.644317,20.4463211 147.365794,20.4259886 147.235913,19.3341139 C147.235913,19.3341139 147.020801,16.5174515 146.477968,15.9746189 L146.477968,15.9746189 Z"></path>
        <path id="path-26" d="M97.7068046,18.0184818 C97.2125024,17.5241796 95.5009917,17.4465725 95.5009917,17.4465725 C94.4110533,17.3247621 94.4149721,17.064454 95.4844406,16.838723 C95.4844406,16.838723 97.115668,16.6366371 97.6904346,16.0618705 C98.0312607,15.7210444 98.1737433,14.2370382 98.1737433,14.2370382 C98.3354454,13.1600442 98.669613,13.1488546 98.9502629,14.2287418 C98.9502629,14.2287418 99.210155,15.6413499 99.6470457,16.0782407 C100.125748,16.5569426 101.47816,16.7718329 101.47816,16.7718329 C102.542643,17.0226709 102.523408,17.3202842 101.430946,17.4736049 C101.430946,17.4736049 100.118346,17.514441 99.6306755,18.0021115 C99.2027533,18.4300336 98.8881324,20.2440578 98.8881324,20.2440578 C98.6552883,21.3049994 98.3729813,21.2688758 98.2349134,20.1804942 C98.2349134,20.1804942 98.1280951,18.4397723 97.7068046,18.0184818 L97.7068046,18.0184818 Z"></path>
        <path id="path-27" d="M2.75199998,44.4058405 C2.35069355,44.0045341 1.33602376,43.9981255 1.33602376,43.9981255 C0.244120035,43.8679738 0.238891203,43.5998306 1.31804955,43.3590419 C1.31804955,43.3590419 2.27207713,43.2839697 2.73870978,42.817337 C3.0154144,42.5406324 3.06287528,41.7094397 3.06287528,41.7094397 C3.23183,40.628722 3.57852098,40.6330024 3.86315452,41.6842527 C3.86315452,41.6842527 3.97251696,42.4759313 4.32721309,42.8306274 C4.71585423,43.2192685 5.46349084,43.2962562 5.46349084,43.2962562 C6.52119439,43.5537362 6.48256071,43.8613496 5.39204177,44.0317307 C5.39204177,44.0317307 4.70984511,43.9966276 4.31392271,44.39255 C3.96650785,44.7399649 3.80425536,45.836544 3.80425536,45.836544 C3.56375716,46.905634 3.27395894,46.882149 3.12459246,45.7866942 C3.12459246,45.7866942 3.09403082,44.7478713 2.75199998,44.4058405 L2.75199998,44.4058405 Z"></path>
        <path id="path-28" d="M80.4445098,10.21755 C80.0983404,9.87138058 79.4755732,9.90931411 79.4755732,9.90931411 C78.3942422,9.77304125 78.3923872,9.49883886 79.4729261,9.24462235 C79.4729261,9.24462235 80.0305254,9.24981727 80.4330456,8.84729708 C80.6717327,8.60860997 80.659148,8.15510949 80.659148,8.15510949 C80.8344503,7.07735346 81.1850864,7.07226654 81.4846097,8.13429948 C81.4846097,8.13429948 81.4973353,8.55279838 81.8032984,8.85876144 C82.1385426,9.19400568 82.5091265,9.17684049 82.5091265,9.17684049 C83.5730175,9.44510164 83.554005,9.76202884 82.4504188,9.95242548 C82.4504188,9.95242548 82.1333591,9.86456042 81.791834,10.2060855 C81.4921518,10.5057677 81.4190365,11.1976302 81.4190365,11.1976302 C81.1746639,12.2601436 80.8805756,12.235694 80.720928,11.1420948 C80.720928,11.1420948 80.7395477,10.5125879 80.4445098,10.21755 L80.4445098,10.21755 Z"></path>
        <path id="path-29" d="M169.975825,40.4198961 C169.423449,39.8675205 167.399651,39.6870019 167.399651,39.6870019 C166.315766,39.5299951 166.327703,39.2725385 167.41123,39.0845154 C167.41123,39.0845154 169.284512,38.9064306 169.882135,38.308807 C170.236515,37.9544271 170.348085,36.2458126 170.348085,36.2458126 C170.472061,35.1530856 170.803728,35.1280214 171.113644,36.1974343 C171.113644,36.1974343 171.505005,37.9142773 171.993224,38.4024964 C172.528167,38.9374389 174.186964,39.2787046 174.186964,39.2787046 C175.239019,39.5591908 175.200903,39.8491772 174.105449,39.9601263 C174.105449,39.9601263 172.557391,39.9699346 172.050327,40.4769985 C171.605387,40.921938 171.316262,42.9651414 171.316262,42.9651414 C171.117525,44.0459014 170.832987,44.0344772 170.659957,42.9473084 C170.659957,42.9473084 170.446611,40.8906822 169.975825,40.4198961 L169.975825,40.4198961 Z"></path>
        <path id="path-30" d="M11.4758246,31.9198961 C10.923449,31.3675205 8.89965061,31.1870019 8.89965061,31.1870019 C7.8157657,31.0299951 7.8277025,30.7725385 8.91123036,30.5845154 C8.91123036,30.5845154 10.7845118,30.4064306 11.3821354,29.808807 C11.7365152,29.4544271 11.8480846,27.7458126 11.8480846,27.7458126 C11.9720612,26.6530856 12.3037278,26.6280214 12.6136438,27.6974343 C12.6136438,27.6974343 13.0050051,29.4142773 13.4932242,29.9024964 C14.0281667,30.4374389 15.6869636,30.7787046 15.6869636,30.7787046 C16.7390191,31.0591908 16.7009034,31.3491772 15.6054491,31.4601263 C15.6054491,31.4601263 14.0573907,31.4699346 13.5503268,31.9769985 C13.1053872,32.421938 12.8162618,34.4651414 12.8162618,34.4651414 C12.6175255,35.5459014 12.3329865,35.5344772 12.1599571,34.4473084 C12.1599571,34.4473084 11.9466107,32.3906822 11.4758246,31.9198961 L11.4758246,31.9198961 Z"></path>
        <path id="path-31" d="M44.7878276,16.1994371 C44.0759455,15.4875549 40.9020213,15.1621221 40.9020213,15.1621221 C39.8175893,15.011022 39.8166064,14.7626875 40.914169,14.5826102 C40.914169,14.5826102 43.896888,14.248936 44.6670843,13.4787398 C45.1237966,13.0220275 45.3424859,10.2411539 45.3424859,10.2411539 C45.460895,9.15258754 45.7870928,9.13388244 46.0900272,10.2060709 C46.0900272,10.2060709 46.7585817,12.9702838 47.3877813,13.5994834 C48.0771964,14.2888985 50.744189,14.8803908 50.744189,14.8803908 C51.8077755,15.1581003 51.7771708,15.4433305 50.678961,15.5426862 C50.678961,15.5426862 48.1148591,15.6195426 47.461373,16.2730287 C46.8879506,16.8464511 46.4037219,20.041324 46.4037219,20.041324 C46.2092403,21.1239708 45.9292502,21.1094137 45.7638592,20.02396 C45.7638592,20.02396 45.3945602,16.8061696 44.7878276,16.1994371 L44.7878276,16.1994371 Z"></path>
        <path id="path-32" d="M180.324732,22.3742497 C179.899827,21.9493454 178.702218,21.928448 178.702218,21.928448 C177.607766,21.8048607 177.604643,21.5386252 178.686971,21.2972176 C178.686971,21.2972176 179.819304,21.1836944 180.317323,20.6856748 C180.61264,20.3903582 180.690702,19.3816558 180.690702,19.3816558 C180.861571,18.3010924 181.203208,18.294727 181.486538,19.369804 C181.486538,19.369804 181.630345,20.3175301 182.005898,20.6930833 C182.417392,21.1045776 183.317023,21.213018 183.317023,21.213018 C184.38221,21.465816 184.357882,21.7711545 183.272916,21.9384823 C183.272916,21.9384823 182.407716,21.9309611 181.985163,22.3535144 C181.61438,22.7242973 181.40143,24.0304606 181.40143,24.0304606 C181.16104,25.0907586 180.875137,25.0573758 180.733057,23.9592876 C180.733057,23.9592876 180.686875,22.7363928 180.324732,22.3742497 L180.324732,22.3742497 Z"></path>
        <path id="path-33" d="M183.053558,54.1396036 C182.770109,53.8561544 182.270681,53.8916637 182.270681,53.8916637 C181.375183,53.7819096 181.381038,53.5529308 182.27056,53.339421 C182.27056,53.339421 182.716393,53.3453967 183.048616,53.013173 C183.245619,52.8161704 183.231951,52.465152 183.231951,52.465152 C183.382245,51.5665521 183.675536,51.5628957 183.922442,52.4454784 C183.922442,52.4454784 183.924519,52.7675876 184.175047,53.0181152 C184.44955,53.2926187 184.732724,53.2704118 184.732724,53.2704118 C185.618351,53.4912672 185.588584,53.7580867 184.682223,53.920167 C184.682223,53.920167 184.443095,53.8438905 184.161215,54.1257713 C183.913869,54.3731167 183.858551,54.9166079 183.858551,54.9166079 C183.650285,55.8049807 183.403976,55.7849015 183.273347,54.8737425 C183.273347,54.8737425 183.29514,54.3811855 183.053558,54.1396036 L183.053558,54.1396036 Z"></path>
        <path id="path-34" d="M20.0535584,49.4225685 C19.7701092,49.1391193 19.2706813,49.1746286 19.2706813,49.1746286 C18.3751831,49.0648745 18.3810378,48.8358957 19.2705598,48.6223859 C19.2705598,48.6223859 19.7163926,48.6283616 20.0486163,48.2961379 C20.2456189,48.0991353 20.2319513,47.7481169 20.2319513,47.7481169 C20.3822448,46.849517 20.6755361,46.8458606 20.9224422,47.7284433 C20.9224422,47.7284433 20.9245192,48.0505525 21.1750468,48.3010801 C21.4495503,48.5755836 21.7327237,48.5533767 21.7327237,48.5533767 C22.6183515,48.7742321 22.5885839,49.0410516 21.6822227,49.2031319 C21.6822227,49.2031319 21.4430954,49.1268554 21.1612146,49.4087362 C20.9138691,49.6560816 20.8585508,50.1995728 20.8585508,50.1995728 C20.6502845,51.0879456 20.4039755,51.0678664 20.273347,50.1567074 C20.273347,50.1567074 20.2951403,49.6641504 20.0535584,49.4225685 L20.0535584,49.4225685 Z"></path>
        <path id="path-35" d="M10.3966036,62.7570407 C10.2129419,62.573379 9.88933633,62.5963874 9.88933633,62.5963874 C9.30909601,62.5252719 9.30501488,62.3785518 9.88925762,62.2385603 C9.88925762,62.2385603 10.1781361,62.2424322 10.3934013,62.0271671 C10.5210497,61.8995187 10.5121937,61.6720754 10.5121937,61.6720754 C10.6095768,61.0898253 10.7977562,61.0800606 10.9595991,61.6593279 C10.9595991,61.6593279 10.9609449,61.8680394 11.1232749,62.0303693 C11.3011401,62.2082346 11.484623,62.1938456 11.484623,62.1938456 C12.0584678,62.3369494 12.0391798,62.5098358 11.4656608,62.6115639 C11.4656608,62.6115639 11.2969576,62.5654326 11.1143122,62.748078 C10.9540441,62.9083461 10.9182004,63.2605026 10.9182004,63.2605026 C10.7832538,63.836126 10.6236572,63.8231156 10.5390162,63.2327278 C10.5390162,63.2327278 10.5531372,62.9135743 10.3966036,62.7570407 L10.3966036,62.7570407 Z"></path>
        <path id="path-36" d="M21.7431886,12.8214591 C21.559527,12.6377975 21.2359214,12.6608058 21.2359214,12.6608058 C20.655681,12.5896903 20.6515999,12.4429703 21.2358426,12.3029787 C21.2358426,12.3029787 21.5247212,12.3068507 21.7399864,12.0915855 C21.8676347,11.9639372 21.8587787,11.7364939 21.8587787,11.7364939 C21.9561618,11.1542438 22.1443413,11.144479 22.3061841,11.7237463 C22.3061841,11.7237463 22.3075299,11.9324578 22.4698599,12.0947878 C22.6477251,12.272653 22.831208,12.258264 22.831208,12.258264 C23.4050528,12.4013678 23.3857649,12.5742542 22.8122458,12.6759823 C22.8122458,12.6759823 22.6435427,12.629851 22.4608973,12.8124964 C22.3006292,12.9727645 22.2647855,13.324921 22.2647855,13.324921 C22.1298388,13.9005445 21.9702423,13.8875341 21.8856012,13.2971462 C21.8856012,13.2971462 21.8997222,12.9779927 21.7431886,12.8214591 L21.7431886,12.8214591 Z"></path>
        <path id="path-37" d="M128.243189,2.24548027 C128.059527,2.06181864 127.735921,2.08482696 127.735921,2.08482696 C127.155681,2.0137115 127.1516,1.86699144 127.735843,1.72699991 C127.735843,1.72699991 128.024721,1.73087186 128.239986,1.51560666 C128.367635,1.38795834 128.358779,1.16051504 128.358779,1.16051504 C128.456162,0.578264948 128.644341,0.56850021 128.806184,1.14776748 C128.806184,1.14776748 128.80753,1.35647897 128.96986,1.51880895 C129.147725,1.6966742 129.331208,1.6822852 129.331208,1.6822852 C129.905053,1.82538902 129.885765,1.99827541 129.312246,2.10000353 C129.312246,2.10000353 129.143543,2.05387217 128.960897,2.23651758 C128.800629,2.39678569 128.764785,2.74894219 128.764785,2.74894219 C128.629839,3.32456564 128.470242,3.31155524 128.385601,2.72116741 C128.385601,2.72116741 128.399722,2.40201387 128.243189,2.24548027 L128.243189,2.24548027 Z"></path>
        <path id="path-38" d="M171.179447,68.2454803 C170.995786,68.0618186 170.67218,68.084827 170.67218,68.084827 C170.09194,68.0137115 170.087858,67.8669914 170.672101,67.7269999 C170.672101,67.7269999 170.96098,67.7308719 171.176245,67.5156067 C171.303893,67.3879583 171.295037,67.160515 171.295037,67.160515 C171.39242,66.5782649 171.5806,66.5685002 171.742443,67.1477675 C171.742443,67.1477675 171.743788,67.356479 171.906118,67.518809 C172.083984,67.6966742 172.267467,67.6822852 172.267467,67.6822852 C172.841311,67.825389 172.822023,67.9982754 172.248504,68.1000035 C172.248504,68.1000035 172.079801,68.0538722 171.897156,68.2365176 C171.736888,68.3967857 171.701044,68.7489422 171.701044,68.7489422 C171.566097,69.3245656 171.406501,69.3115552 171.32186,68.7211674 C171.32186,68.7211674 171.335981,68.4020139 171.179447,68.2454803 L171.179447,68.2454803 Z"></path>
    </defs>
    <g id="SVG-Assets" stroke="none" stroke-width="1" fill="none" fill-rule="evenodd" sketch:type="MSPage">
        <g id="shimmers" sketch:type="MSArtboardGroup">
            <g id="Serve-Card-+-Illustration-3" sketch:type="MSLayerGroup" transform="translate(-47.000000, -43.000000)">
                <g id="Cloud" transform="translate(168.275862, 88.000000)">
                    <g id="Rectangle-29">
                        <use fill="#E2F0F9" fill-rule="evenodd" sketch:type="MSShapeGroup" xlink:href="#path-1"></use>
                        <use fill="none" xlink:href="#path-1"></use>
                    </g>
                    <g id="Rectangle-29">
                        <use fill="#E2F0F9" fill-rule="evenodd" sketch:type="MSShapeGroup" xlink:href="#path-2"></use>
                        <use fill="none" xlink:href="#path-2"></use>
                    </g>
                    <g id="Rectangle-29">
                        <use fill="#E2F0F9" fill-rule="evenodd" sketch:type="MSShapeGroup" xlink:href="#path-3"></use>
                        <use fill="none" xlink:href="#path-3"></use>
                    </g>
                    <g id="Rectangle-29">
                        <use fill="#E2F0F9" fill-rule="evenodd" sketch:type="MSShapeGroup" xlink:href="#path-4"></use>
                        <use fill="none" xlink:href="#path-4"></use>
                    </g>
                    <g id="Rectangle-29">
                        <use fill="#E2F0F9" fill-rule="evenodd" sketch:type="MSShapeGroup" xlink:href="#path-5"></use>
                        <use fill="none" xlink:href="#path-5"></use>
                    </g>
                </g>
                <g id="Cloud-2" transform="translate(103.669951, 66.750000) scale(-1, 1) translate(-103.669951, -66.750000) translate(54.088670, 52.000000)">
                    <g id="Rectangle-29">
                        <use fill="#E2F0F9" fill-rule="evenodd" sketch:type="MSShapeGroup" xlink:href="#path-6"></use>
                        <use fill="none" xlink:href="#path-6"></use>
                    </g>
                    <g id="Rectangle-29">
                        <use fill="#E2F0F9" fill-rule="evenodd" sketch:type="MSShapeGroup" xlink:href="#path-7"></use>
                        <use fill="none" xlink:href="#path-7"></use>
                    </g>
                    <g id="Rectangle-29">
                        <use fill="#E2F0F9" fill-rule="evenodd" sketch:type="MSShapeGroup" xlink:href="#path-8"></use>
                        <use fill="none" xlink:href="#path-8"></use>
                    </g>
                    <g id="Rectangle-29">
                        <use fill="#E2F0F9" fill-rule="evenodd" sketch:type="MSShapeGroup" xlink:href="#path-9"></use>
                        <use fill="none" xlink:href="#path-9"></use>
                    </g>
                    <g id="Rectangle-29">
                        <use fill="#E2F0F9" fill-rule="evenodd" sketch:type="MSShapeGroup" xlink:href="#path-10"></use>
                        <use fill="none" xlink:href="#path-10"></use>
                    </g>
                </g>
                <g id="Cloud-3" transform="translate(147.241379, 48.500000)">
                    <g id="Rectangle-29">
                        <use fill="#E2F0F9" fill-rule="evenodd" sketch:type="MSShapeGroup" xlink:href="#path-11"></use>
                        <use fill="none" xlink:href="#path-11"></use>
                    </g>
                    <g id="Rectangle-29">
                        <use fill="#E2F0F9" fill-rule="evenodd" sketch:type="MSShapeGroup" xlink:href="#path-12"></use>
                        <use fill="none" xlink:href="#path-12"></use>
                    </g>
                    <g id="Rectangle-29">
                        <use fill="#E2F0F9" fill-rule="evenodd" sketch:type="MSShapeGroup" xlink:href="#path-13"></use>
                        <use fill="none" xlink:href="#path-13"></use>
                    </g>
                    <g id="Rectangle-29">
                        <use fill="#E2F0F9" fill-rule="evenodd" sketch:type="MSShapeGroup" xlink:href="#path-14"></use>
                        <use fill="none" xlink:href="#path-14"></use>
                    </g>
                    <g id="Rectangle-29">
                        <use fill="#E2F0F9" fill-rule="evenodd" sketch:type="MSShapeGroup" xlink:href="#path-15"></use>
                        <use fill="none" xlink:href="#path-15"></use>
                    </g>
                </g>
                <g id="Cloud-3" transform="translate(84.889163, 103.500000) scale(-1, 1) translate(-84.889163, -103.500000) translate(46.576355, 88.500000)">
                    <g id="Rectangle-29">
                        <use fill="#E2F0F9" fill-rule="evenodd" sketch:type="MSShapeGroup" xlink:href="#path-16"></use>
                        <use fill="none" xlink:href="#path-16"></use>
                    </g>
                    <g id="Rectangle-29">
                        <use fill="#E2F0F9" fill-rule="evenodd" sketch:type="MSShapeGroup" xlink:href="#path-17"></use>
                        <use fill="none" xlink:href="#path-17"></use>
                    </g>
                    <g id="Rectangle-29">
                        <use fill="#E2F0F9" fill-rule="evenodd" sketch:type="MSShapeGroup" xlink:href="#path-18"></use>
                        <use fill="none" xlink:href="#path-18"></use>
                    </g>
                    <g id="Rectangle-29">
                        <use fill="#E2F0F9" fill-rule="evenodd" sketch:type="MSShapeGroup" xlink:href="#path-19"></use>
                        <use fill="none" xlink:href="#path-19"></use>
                    </g>
                    <g id="Rectangle-29">
                        <use fill="#E2F0F9" fill-rule="evenodd" sketch:type="MSShapeGroup" xlink:href="#path-20"></use>
                        <use fill="none" xlink:href="#path-20"></use>
                    </g>
                </g>
                <g id="Serve-Card-+-Illustration">
                    <g id="Imported-EPS-+-Serve-Card-+-Serve-Card" transform="translate(2.003284, 0.000000)">
                        <g id="Oval-59">
                            <use fill="#BDE0F8" fill-rule="evenodd" sketch:type="MSShapeGroup" xlink:href="#path-21"></use>
                            <use fill="none" xlink:href="#path-21"></use>
                        </g>
                        <g id="Oval-61">
                            <use fill="#BDE0F8" fill-rule="evenodd" sketch:type="MSShapeGroup" xlink:href="#path-22"></use>
                            <use fill="none" xlink:href="#path-22"></use>
                        </g>
                        <g id="Oval-59">
                            <use fill="#BDE0F8" fill-rule="evenodd" sketch:type="MSShapeGroup" xlink:href="#path-23"></use>
                            <use fill="none" xlink:href="#path-23"></use>
                        </g>
                        <g id="Oval-60">
                            <use fill="#BDE0F8" fill-rule="evenodd" sketch:type="MSShapeGroup" xlink:href="#path-24"></use>
                            <use fill="none" xlink:href="#path-24"></use>
                        </g>
                        <g id="Shimmers" transform="translate(56.592775, 43.500000)">
                            <g id="Rectangle-204">
                                <use fill="#16669E" fill-rule="evenodd" sketch:type="MSShapeGroup" xlink:href="#path-25"></use>
                                <use fill="none" xlink:href="#path-25"></use>
                            </g>
                            <g id="Rectangle-204">
                                <use fill="#16669E" fill-rule="evenodd" sketch:type="MSShapeGroup" xlink:href="#path-26"></use>
                                <use fill="none" xlink:href="#path-26"></use>
                            </g>
                            <g id="Rectangle-204">
                                <use fill="#16669E" fill-rule="evenodd" sketch:type="MSShapeGroup" xlink:href="#path-27"></use>
                                <use fill="none" xlink:href="#path-27"></use>
                            </g>
                            <g id="Rectangle-204">
                                <use fill="#16669E" fill-rule="evenodd" sketch:type="MSShapeGroup" xlink:href="#path-28"></use>
                                <use fill="none" xlink:href="#path-28"></use>
                            </g>
                            <g id="Rectangle-204">
                                <use fill="#16669E" fill-rule="evenodd" sketch:type="MSShapeGroup" xlink:href="#path-29"></use>
                                <use fill="none" xlink:href="#path-29"></use>
                            </g>
                            <g id="Rectangle-204">
                                <use fill="#16669E" fill-rule="evenodd" sketch:type="MSShapeGroup" xlink:href="#path-30"></use>
                                <use fill="none" xlink:href="#path-30"></use>
                            </g>
                            <g id="Rectangle-204">
                                <use fill="#16669E" fill-rule="evenodd" sketch:type="MSShapeGroup" xlink:href="#path-31"></use>
                                <use fill="none" xlink:href="#path-31"></use>
                            </g>
                            <g id="Rectangle-204">
                                <use fill="#16669E" fill-rule="evenodd" sketch:type="MSShapeGroup" xlink:href="#path-32"></use>
                                <use fill="none" xlink:href="#path-32"></use>
                            </g>
                            <g id="Rectangle-204">
                                <use fill="#16669E" fill-rule="evenodd" sketch:type="MSShapeGroup" xlink:href="#path-33"></use>
                                <use fill="none" xlink:href="#path-33"></use>
                            </g>
                            <g id="Rectangle-204">
                                <use fill="#16669E" fill-rule="evenodd" sketch:type="MSShapeGroup" xlink:href="#path-34"></use>
                                <use fill="none" xlink:href="#path-34"></use>
                            </g>
                            <g id="Rectangle-204">
                                <use fill="#16669E" fill-rule="evenodd" sketch:type="MSShapeGroup" xlink:href="#path-35"></use>
                                <use fill="none" xlink:href="#path-35"></use>
                            </g>
                            <g id="Rectangle-204">
                                <use fill="#16669E" fill-rule="evenodd" sketch:type="MSShapeGroup" xlink:href="#path-36"></use>
                                <use fill="none" xlink:href="#path-36"></use>
                            </g>
                            <g id="Rectangle-204">
                                <use fill="#16669E" fill-rule="evenodd" sketch:type="MSShapeGroup" xlink:href="#path-37"></use>
                                <use fill="none" xlink:href="#path-37"></use>
                            </g>
                            <g id="Rectangle-204">
                                <use fill="#16669E" fill-rule="evenodd" sketch:type="MSShapeGroup" xlink:href="#path-38"></use>
                                <use fill="none" xlink:href="#path-38"></use>
                            </g>
                        </g>
                    </g>
                </g>
            </g>
        </g>
    </g>
</svg>