<?xml version="1.0" standalone="no"?><!DOCTYPE svg PUBLIC "-//W3C//DTD SVG 1.1//EN" "http://www.w3.org/Graphics/SVG/1.1/DTD/svg11.dtd" ><svg version="1.1" xmlns="http://www.w3.org/2000/svg"><defs><font horiz-adv-x="0" id="font"><font-face ascent="1132" bbox="-87 -239 1251 990" cap-height="770" descent="-268" font-family="PayPal Sans Big" font-stretch="normal" font-style="normal" font-weight="400" units-per-em="1024" x-height="564" /><missing-glyph horiz-adv-x="256" /><glyph d="M465 300 356 570 245 300ZM696 0H587L501 213H209L122 0H17L310 700H406Z" glyph-name="A" horiz-adv-x="714" unicode="A" /><glyph d="M335 310H548V631ZM1001 0H548V223H277L129 0H17L483 700H988V611H655V401H957V312H655V90H1001Z" glyph-name="AE" horiz-adv-x="1067" unicode="&#198;" /><glyph d="M335 310H548V631ZM1001 0H548V223H277L129 0H17L483 700H988V611H655V401H957V312H655V90H1001ZM961 927 771 771H684L806 927Z" glyph-name="AEacute" horiz-adv-x="1067" unicode="&#508;" /><glyph d="M465 300 356 570 245 300ZM696 0H587L501 213H209L122 0H17L310 700H406ZM585 927 395 771H308L430 927Z" glyph-name="Aacute" horiz-adv-x="714" unicode="&#193;" /><glyph d="M465 300 356 570 245 300ZM696 0H587L501 213H209L122 0H17L310 700H406ZM356 767Q281 767 235.5 810.5Q190 854 190 927H259Q261 888 287.5 865.5Q314 843 356 843Q400 843 426.5 865Q453 887 454 927H523Q523 853 477.5 810Q432 767 356 767Z" glyph-name="Abreve" horiz-adv-x="714" unicode="&#258;" /><glyph d="M465 300 356 570 245 300ZM696 0H587L501 213H209L122 0H17L310 700H406ZM176 771 308 927H406L537 771H461L356 857L252 771Z" glyph-name="Acircumflex" horiz-adv-x="714" unicode="&#194;" /><glyph d="M465 300 356 570 245 300ZM696 0H587L501 213H209L122 0H17L310 700H406ZM452 788Q425 788 407.5 805.5Q390 823 390 849Q390 874 408 892Q426 910 452 910Q478 910 496 892Q514 874 514 849Q514 823 496 805.5Q478 788 452 788ZM262 788Q235 788 217 805.5Q199 823 199 849Q199 875 217 892.5Q235 910 262 910Q288 910 305.5 892Q323 874 323 849Q323 823 305.5 805.5Q288 788 262 788Z" glyph-name="Adieresis" horiz-adv-x="714" unicode="&#196;" /><glyph d="M465 300 356 570 245 300ZM696 0H587L501 213H209L122 0H17L310 700H406ZM287 927 409 771H322L132 927Z" glyph-name="Agrave" horiz-adv-x="714" unicode="&#192;" /><glyph d="M465 300 356 570 245 300ZM696 0H587L501 213H209L122 0H17L310 700H406ZM522 873V794H192V873Z" glyph-name="Amacron" horiz-adv-x="714" unicode="&#256;" /><glyph d="M511 -145Q511 -98 539 -55Q556 -29 588 0H587L501 213H209L122 0H17L310 700H406L696 0H654Q619 -36 602 -64Q584 -95 584 -124Q584 -145 596.5 -158Q609 -171 628 -171Q638 -171 644.5 -169.5Q651 -168 658 -165V-231Q646 -235 635.5 -237Q625 -239 612 -239Q568 -239 539.5 -213.5Q511 -188 511 -145ZM465 300 356 570 245 300Z" glyph-name="Aogonek" horiz-adv-x="714" unicode="&#260;" /><glyph d="M480 776Q480 725 443 688Q432 676 419 668L696 0H587L501 213H209L122 0H17L296 667Q282 675 270 688Q234 725 234 776Q234 826 270 862Q306 898 356 898Q407 898 443.5 862Q480 826 480 776ZM465 300 356 570 245 300ZM294 776Q294 748 312 729Q330 710 356 710Q384 710 402.5 729Q421 748 421 776Q421 802 402 821Q383 840 356 840Q331 840 312.5 821Q294 802 294 776Z" glyph-name="Aring" horiz-adv-x="714" unicode="&#197;" /><glyph d="M465 300 356 570 245 300ZM696 0H587L501 213H209L122 0H17L310 700H406ZM428 768Q412 768 394.5 777.5Q377 787 345 818Q318 844 305 851.5Q292 859 281 859Q262 859 251 840Q240 821 234 771H170Q172 847 203 895Q234 943 285 943Q301 943 318.5 933.5Q336 924 369 893Q396 868 408.5 860.5Q421 853 432 853Q451 853 462 872Q473 891 479 941H543Q541 865 509.5 816.5Q478 768 428 768Z" glyph-name="Atilde" horiz-adv-x="714" unicode="&#195;" /><glyph d="M555 514Q555 463 524.5 422.5Q494 382 447 367Q516 354 557 308Q598 262 598 197Q598 106 534 53Q470 0 361 0H91V700H324Q434 700 494.5 651.5Q555 603 555 514ZM309 612H198V400H309Q378 400 414 427.5Q450 455 450 508Q450 560 415 586Q380 612 309 612ZM491 203Q491 256 454 285Q417 314 350 314H198V88H350Q417 88 454 118.5Q491 149 491 203Z" glyph-name="B" horiz-adv-x="641" unicode="B" /><glyph d="M425 614Q303 614 225.5 542Q148 470 148 350Q148 231 225 159Q302 87 424 87Q467 87 503 94.5Q539 102 575 118V19Q536 3 500 -4Q464 -11 421 -11Q254 -11 145.5 89.5Q37 190 37 350Q37 510 145.5 610.5Q254 711 421 711Q463 711 499.5 704Q536 697 575 682V582Q538 598 502 606Q466 614 425 614Z" glyph-name="C" horiz-adv-x="624" unicode="C" /><glyph d="M425 614Q303 614 225.5 542Q148 470 148 350Q148 231 225 159Q302 87 424 87Q467 87 503 94.5Q539 102 575 118V19Q536 3 500 -4Q464 -11 421 -11Q254 -11 145.5 89.5Q37 190 37 350Q37 510 145.5 610.5Q254 711 421 711Q463 711 499.5 704Q536 697 575 682V582Q538 598 502 606Q466 614 425 614ZM632 927 442 771H355L477 927Z" glyph-name="Cacute" horiz-adv-x="624" unicode="&#262;" /><glyph d="M425 614Q303 614 225.5 542Q148 470 148 350Q148 231 225 159Q302 87 424 87Q467 87 503 94.5Q539 102 575 118V19Q536 3 500 -4Q464 -11 421 -11Q254 -11 145.5 89.5Q37 190 37 350Q37 510 145.5 610.5Q254 711 421 711Q463 711 499.5 704Q536 697 575 682V582Q538 598 502 606Q466 614 425 614ZM584 932 453 775H355L223 932H299L403 846L508 932Z" glyph-name="Ccaron" horiz-adv-x="624" unicode="&#268;" /><glyph d="M470 -140Q470 -183 432 -211Q394 -239 340 -239Q309 -239 282.5 -232.5Q256 -226 238 -214V-153Q260 -166 284 -172.5Q308 -179 336 -179Q366 -179 383.5 -168Q401 -157 401 -139Q401 -117 377 -106Q353 -95 306 -95L338 -4Q226 15 145 89Q37 190 37 350Q37 510 145.5 610.5Q254 711 421 711Q463 711 499.5 704Q536 697 575 682V582Q538 598 502 606Q466 614 425 614Q303 614 225.5 542Q148 470 148 350Q148 231 225 159Q302 87 424 87Q467 87 503 94.5Q539 102 575 118V19Q536 3 500 -4Q464 -11 421 -11Q402 -11 384 -9L369 -52Q417 -59 443.5 -81.5Q470 -104 470 -140Z" glyph-name="Ccedilla" horiz-adv-x="624" unicode="&#199;" /><glyph d="M425 614Q303 614 225.5 542Q148 470 148 350Q148 231 225 159Q302 87 424 87Q467 87 503 94.5Q539 102 575 118V19Q536 3 500 -4Q464 -11 421 -11Q254 -11 145.5 89.5Q37 190 37 350Q37 510 145.5 610.5Q254 711 421 711Q463 711 499.5 704Q536 697 575 682V582Q538 598 502 606Q466 614 425 614ZM223 771 355 927H453L584 771H508L403 857L299 771Z" glyph-name="Ccircumflex" horiz-adv-x="624" unicode="&#264;" /><glyph d="M425 614Q303 614 225.5 542Q148 470 148 350Q148 231 225 159Q302 87 424 87Q467 87 503 94.5Q539 102 575 118V19Q536 3 500 -4Q464 -11 421 -11Q254 -11 145.5 89.5Q37 190 37 350Q37 510 145.5 610.5Q254 711 421 711Q463 711 499.5 704Q536 697 575 682V582Q538 598 502 606Q466 614 425 614ZM403 788Q375 788 356.5 806.5Q338 825 338 853Q338 880 356.5 898.5Q375 917 403 917Q432 917 450.5 899Q469 881 469 853Q469 825 450.5 806.5Q432 788 403 788Z" glyph-name="Cdotaccent" horiz-adv-x="624" unicode="&#266;" /><glyph d="M328 0H91V701H328Q492 701 597 604.5Q702 508 702 351Q702 194 597 97Q492 0 328 0ZM198 610V91H326Q445 91 519 162.5Q593 234 593 351Q593 468 519 539Q445 610 326 610Z" glyph-name="D" horiz-adv-x="740" unicode="D" /><glyph d="M328 0H91V701H328Q492 701 597 604.5Q702 508 702 351Q702 194 597 97Q492 0 328 0ZM198 610V91H326Q445 91 519 162.5Q593 234 593 351Q593 468 519 539Q445 610 326 610ZM523 932 392 775H294L162 932H238L342 846L447 932Z" glyph-name="Dcaron" horiz-adv-x="740" unicode="&#270;" /><glyph d="M711 351Q711 194 606 97Q501 0 337 0H100V310H21V400H100V701H337Q501 701 606 604.5Q711 508 711 351ZM207 310V91H335Q454 91 528 162.5Q602 234 602 351Q602 468 528 539Q454 610 335 610H207V400H354V310Z" glyph-name="Dcroat" horiz-adv-x="749" unicode="&#272;" /><glyph d="M549 0H91V700H537V610H198V401H506V312H198V90H549Z" glyph-name="E" horiz-adv-x="615" unicode="E" /><glyph d="M549 0H91V700H537V610H198V401H506V312H198V90H549ZM532 927 342 771H255L377 927Z" glyph-name="Eacute" horiz-adv-x="615" unicode="&#201;" /><glyph d="M549 0H91V700H537V610H198V401H506V312H198V90H549ZM320 767Q245 767 199.5 810.5Q154 854 154 927H223Q225 888 251.5 865.5Q278 843 320 843Q364 843 390.5 865Q417 887 418 927H487Q487 853 441.5 810Q396 767 320 767Z" glyph-name="Ebreve" horiz-adv-x="615" unicode="&#276;" /><glyph d="M549 0H91V700H537V610H198V401H506V312H198V90H549ZM501 932 370 775H272L140 932H216L320 846L425 932Z" glyph-name="Ecaron" horiz-adv-x="615" unicode="&#282;" /><glyph d="M549 0H91V700H537V610H198V401H506V312H198V90H549ZM140 771 272 927H370L501 771H425L320 857L216 771Z" glyph-name="Ecircumflex" horiz-adv-x="615" unicode="&#202;" /><glyph d="M549 0H91V700H537V610H198V401H506V312H198V90H549ZM416 788Q389 788 371.5 805.5Q354 823 354 849Q354 874 372 892Q390 910 416 910Q442 910 460 892Q478 874 478 849Q478 823 460 805.5Q442 788 416 788ZM226 788Q199 788 181 805.5Q163 823 163 849Q163 875 181 892.5Q199 910 226 910Q252 910 269.5 892Q287 874 287 849Q287 823 269.5 805.5Q252 788 226 788Z" glyph-name="Edieresis" horiz-adv-x="615" unicode="&#203;" /><glyph d="M549 0H91V700H537V610H198V401H506V312H198V90H549ZM320 788Q292 788 273.5 806.5Q255 825 255 853Q255 880 273.5 898.5Q292 917 320 917Q349 917 367.5 899Q386 881 386 853Q386 825 367.5 806.5Q349 788 320 788Z" glyph-name="Edotaccent" horiz-adv-x="615" unicode="&#278;" /><glyph d="M549 0H91V700H537V610H198V401H506V312H198V90H549ZM268 927 390 771H303L113 927Z" glyph-name="Egrave" horiz-adv-x="615" unicode="&#200;" /><glyph d="M549 0H91V700H537V610H198V401H506V312H198V90H549ZM486 873V794H156V873Z" glyph-name="Emacron" horiz-adv-x="615" unicode="&#274;" /><glyph d="M591 -228H483Q524 -175 543.5 -118Q563 -61 566 14L194 544V0H91V700H199L566 167V700H669V16Q668 -60 650.5 -116.5Q633 -173 591 -228Z" glyph-name="Eng" horiz-adv-x="760" unicode="&#330;" /><glyph d="M345 -145Q345 -98 373 -55Q390 -29 422 0H91V700H537V610H198V401H506V312H198V90H549V0H488Q453 -36 436 -64Q418 -95 418 -124Q418 -145 430.5 -158Q443 -171 462 -171Q472 -171 478.5 -169.5Q485 -168 492 -165V-231Q480 -235 469.5 -237Q459 -239 446 -239Q402 -239 373.5 -213.5Q345 -188 345 -145Z" glyph-name="Eogonek" horiz-adv-x="615" unicode="&#280;" /><glyph d="M711 351Q711 194 606 97Q501 0 337 0H100V310H21V400H100V701H337Q501 701 606 604.5Q711 508 711 351ZM207 310V91H335Q454 91 528 162.5Q602 234 602 351Q602 468 528 539Q454 610 335 610H207V400H354V310Z" glyph-name="Eth" horiz-adv-x="749" unicode="&#208;" /><glyph d="M455 456 430 385H35V456H100Q125 574 211 642.5Q297 711 419 711Q458 711 489.5 704.5Q521 698 555 684V591Q524 607 492 614.5Q460 622 424 622Q342 622 285 578.5Q228 535 207 456ZM555 110V17Q522 2 490 -4.5Q458 -11 419 -11Q296 -11 210.5 57Q125 125 100 244H35V314H412L387 244H206Q227 165 284 122Q341 79 424 79Q462 79 493.5 86.5Q525 94 555 110Z" glyph-name="Euro" horiz-adv-x="598" unicode="&#8364;" /><glyph d="M198 304V0H91V700H530V610H198V394H499V304Z" glyph-name="F" horiz-adv-x="587" unicode="F" /><glyph d="M431 614Q308 614 227.5 539Q147 464 147 346Q147 224 222.5 153.5Q298 83 422 83Q448 83 471.5 85.5Q495 88 514 92V309H618V14Q575 3 522 -4Q469 -11 421 -11Q251 -11 144 87Q37 185 37 346Q37 504 150 607.5Q263 711 431 711Q482 711 528 703Q574 695 614 678V577Q577 594 528.5 604Q480 614 431 614Z" glyph-name="G" horiz-adv-x="679" unicode="G" /><glyph d="M431 614Q308 614 227.5 539Q147 464 147 346Q147 224 222.5 153.5Q298 83 422 83Q448 83 471.5 85.5Q495 88 514 92V309H618V14Q575 3 522 -4Q469 -11 421 -11Q251 -11 144 87Q37 185 37 346Q37 504 150 607.5Q263 711 431 711Q482 711 528 703Q574 695 614 678V577Q577 594 528.5 604Q480 614 431 614ZM416 767Q341 767 295.5 810.5Q250 854 250 927H319Q321 888 347.5 865.5Q374 843 416 843Q460 843 486.5 865Q513 887 514 927H583Q583 853 537.5 810Q492 767 416 767Z" glyph-name="Gbreve" horiz-adv-x="679" unicode="&#286;" /><glyph d="M431 614Q308 614 227.5 539Q147 464 147 346Q147 224 222.5 153.5Q298 83 422 83Q448 83 471.5 85.5Q495 88 514 92V309H618V14Q575 3 522 -4Q469 -11 421 -11Q251 -11 144 87Q37 185 37 346Q37 504 150 607.5Q263 711 431 711Q482 711 528 703Q574 695 614 678V577Q577 594 528.5 604Q480 614 431 614ZM237 771 369 927H467L598 771H522L417 857L313 771Z" glyph-name="Gcircumflex" horiz-adv-x="679" unicode="&#284;" /><glyph d="M431 614Q308 614 227.5 539Q147 464 147 346Q147 224 222.5 153.5Q298 83 422 83Q448 83 471.5 85.5Q495 88 514 92V309H618V14Q575 3 522 -4Q469 -11 421 -11Q251 -11 144 87Q37 185 37 346Q37 504 150 607.5Q263 711 431 711Q482 711 528 703Q574 695 614 678V577Q577 594 528.5 604Q480 614 431 614ZM416 788Q388 788 369.5 806.5Q351 825 351 853Q351 880 369.5 898.5Q388 917 416 917Q445 917 463.5 899Q482 881 482 853Q482 825 463.5 806.5Q445 788 416 788Z" glyph-name="Gdotaccent" horiz-adv-x="679" unicode="&#288;" /><glyph d="M692 0H584V312H199V0H92V701H199V401H584V701H692Z" glyph-name="H" horiz-adv-x="783" unicode="H" /><glyph d="M207 462V334H592V462ZM592 247H207V0H100V462H21V548H100V700H207V548H592V700H700V548H779V462H700V0H592Z" glyph-name="Hbar" horiz-adv-x="800" unicode="&#294;" /><glyph d="M691 0H583V312H198V0H91V701H198V401H583V701H691ZM210 771 342 927H440L571 771H495L390 857L286 771Z" glyph-name="Hcircumflex" horiz-adv-x="782" unicode="&#292;" /><glyph d="M198 0H91V700H198Z" glyph-name="I" horiz-adv-x="289" unicode="I" /><glyph d="M198 0H91V700H198ZM379 927 189 771H102L224 927Z" glyph-name="Iacute" horiz-adv-x="289" unicode="&#205;" /><glyph d="M198 0H91V700H198ZM144 767Q69 767 23.5 810.5Q-22 854 -22 927H47Q49 888 75.5 865.5Q102 843 144 843Q188 843 214.5 865Q241 887 242 927H311Q311 853 265.5 810Q220 767 144 767Z" glyph-name="Ibreve" horiz-adv-x="289" unicode="&#300;" /><glyph d="M198 0H91V700H198ZM-36 771 96 927H194L325 771H249L144 857L40 771Z" glyph-name="Icircumflex" horiz-adv-x="289" unicode="&#206;" /><glyph d="M198 0H91V700H198ZM240 788Q213 788 195.5 805.5Q178 823 178 849Q178 874 196 892Q214 910 240 910Q266 910 284 892Q302 874 302 849Q302 823 284 805.5Q266 788 240 788ZM50 788Q23 788 5 805.5Q-13 823 -13 849Q-13 875 5 892.5Q23 910 50 910Q76 910 93.5 892Q111 874 111 849Q111 823 93.5 805.5Q76 788 50 788Z" glyph-name="Idieresis" horiz-adv-x="289" unicode="&#207;" /><glyph d="M198 0H91V700H198ZM144 788Q116 788 97.5 806.5Q79 825 79 853Q79 880 97.5 898.5Q116 917 144 917Q173 917 191.5 899Q210 881 210 853Q210 825 191.5 806.5Q173 788 144 788Z" glyph-name="Idotaccent" horiz-adv-x="289" unicode="&#304;" /><glyph d="M198 0H91V700H198ZM68 927 190 771H103L-87 927Z" glyph-name="Igrave" horiz-adv-x="289" unicode="&#204;" /><glyph d="M198 0H91V700H198ZM310 873V794H-20V873Z" glyph-name="Imacron" horiz-adv-x="289" unicode="&#298;" /><glyph d="M191 -165V-231Q179 -235 168.5 -237Q158 -239 145 -239Q101 -239 72.5 -213.5Q44 -188 44 -145Q44 -106 62.5 -71.5Q81 -37 121 0H91V700H198V0Q159 -27 138 -59Q117 -91 117 -124Q117 -145 129.5 -158Q142 -171 161 -171Q171 -171 177.5 -169.5Q184 -168 191 -165Z" glyph-name="Iogonek" horiz-adv-x="289" unicode="&#302;" /><glyph d="M198 0H91V700H198ZM216 768Q200 768 182.5 777.5Q165 787 133 818Q106 844 93 851.5Q80 859 69 859Q50 859 39 840Q28 821 22 771H-42Q-40 847 -9 895Q22 943 73 943Q89 943 106.5 933.5Q124 924 157 893Q184 868 196.5 860.5Q209 853 220 853Q239 853 250 872Q261 891 267 941H331Q329 865 297.5 816.5Q266 768 216 768Z" glyph-name="Itilde" horiz-adv-x="289" unicode="&#296;" /><glyph d="M198 700V59Q198 -35 176 -103Q154 -171 103 -228H-16Q41 -163 66 -94.5Q91 -26 91 62V700Z" glyph-name="J" horiz-adv-x="289" unicode="J" /><glyph d="M198 700V59Q198 -35 176 -103Q154 -171 103 -228H-16Q41 -163 66 -94.5Q91 -26 91 62V700ZM-35 771 97 927H195L326 771H250L145 857L41 771Z" glyph-name="Jcircumflex" horiz-adv-x="289" unicode="&#308;" /><glyph d="M695 0H554L198 344V0H91V700H198V374L517 700H651L314 367Z" glyph-name="K" horiz-adv-x="698" unicode="K" /><glyph d="M91 0V700H198V90H537V0Z" glyph-name="L" horiz-adv-x="579" unicode="L" /><glyph d="M91 0V700H198V90H537V0ZM385 927 195 771H108L230 927Z" glyph-name="Lacute" horiz-adv-x="579" unicode="&#313;" /><glyph d="M91 0V700H198V90H537V0ZM412 454H349L376 702H488Z" glyph-name="Lcaron" horiz-adv-x="579" unicode="&#317;" /><glyph d="M91 0V700H198V90H537V0ZM430 335Q402 335 383.5 353.5Q365 372 365 400Q365 428 383.5 446.5Q402 465 430 465Q459 465 477.5 446.5Q496 428 496 400Q496 372 477.5 353.5Q459 335 430 335Z" glyph-name="Ldot" horiz-adv-x="579" unicode="&#319;" /><glyph d="M546 90V0H100V274L21 232V325L100 368V700H207V417L381 511V418L207 324V90Z" glyph-name="Lslash" horiz-adv-x="588" unicode="&#321;" /><glyph d="M661 540 487 92H405L231 540L156 0H55L155 700H262L448 217L632 700H739L839 0H736Z" glyph-name="M" horiz-adv-x="894" unicode="M" /><glyph d="M669 0H576L194 545V0H91V700H199L566 166V700H669Z" glyph-name="N" horiz-adv-x="760" unicode="N" /><glyph glyph-name="NULL" horiz-adv-x="0" /><glyph d="M669 0H576L194 545V0H91V700H199L566 166V700H669ZM609 927 419 771H332L454 927Z" glyph-name="Nacute" horiz-adv-x="760" unicode="&#323;" /><glyph d="M669 0H576L194 545V0H91V700H199L566 166V700H669ZM560 932 429 775H331L199 932H275L379 846L484 932Z" glyph-name="Ncaron" horiz-adv-x="760" unicode="&#327;" /><glyph d="M669 0H576L194 545V0H91V700H199L566 166V700H669ZM452 768Q436 768 418.5 777.5Q401 787 369 818Q342 844 329 851.5Q316 859 305 859Q286 859 275 840Q264 821 258 771H194Q196 847 227 895Q258 943 309 943Q325 943 342.5 933.5Q360 924 393 893Q420 868 432.5 860.5Q445 853 456 853Q475 853 486 872Q497 891 503 941H567Q565 865 533.5 816.5Q502 768 452 768Z" glyph-name="Ntilde" horiz-adv-x="760" unicode="&#209;" /><glyph d="M383 -11Q236 -11 136.5 91.5Q37 194 37 350Q37 506 136.5 608.5Q236 711 383 711Q530 711 629.5 608.5Q729 506 729 350Q729 194 629.5 91.5Q530 -11 383 -11ZM383 86Q487 86 553 159.5Q619 233 619 350Q619 467 553 540.5Q487 614 383 614Q279 614 213 540.5Q147 467 147 350Q147 233 213 159.5Q279 86 383 86Z" glyph-name="O" horiz-adv-x="766" unicode="O" /><glyph d="M993 0H412Q247 0 142 97Q37 194 37 350Q37 506 142 603Q247 700 412 700H981V611H648V401H950V312H648V90H993ZM542 90V611H414Q296 611 221.5 539Q147 467 147 350Q147 233 221 161.5Q295 90 414 90Z" glyph-name="OE" horiz-adv-x="1059" unicode="&#338;" /><glyph d="M383 -11Q236 -11 136.5 91.5Q37 194 37 350Q37 506 136.5 608.5Q236 711 383 711Q530 711 629.5 608.5Q729 506 729 350Q729 194 629.5 91.5Q530 -11 383 -11ZM383 86Q487 86 553 159.5Q619 233 619 350Q619 467 553 540.5Q487 614 383 614Q279 614 213 540.5Q147 467 147 350Q147 233 213 159.5Q279 86 383 86ZM612 927 422 771H335L457 927Z" glyph-name="Oacute" horiz-adv-x="766" unicode="&#211;" /><glyph d="M383 -11Q236 -11 136.5 91.5Q37 194 37 350Q37 506 136.5 608.5Q236 711 383 711Q530 711 629.5 608.5Q729 506 729 350Q729 194 629.5 91.5Q530 -11 383 -11ZM383 86Q487 86 553 159.5Q619 233 619 350Q619 467 553 540.5Q487 614 383 614Q279 614 213 540.5Q147 467 147 350Q147 233 213 159.5Q279 86 383 86ZM383 767Q308 767 262.5 810.5Q217 854 217 927H286Q288 888 314.5 865.5Q341 843 383 843Q427 843 453.5 865Q480 887 481 927H550Q550 853 504.5 810Q459 767 383 767Z" glyph-name="Obreve" horiz-adv-x="766" unicode="&#334;" /><glyph d="M383 -11Q236 -11 136.5 91.5Q37 194 37 350Q37 506 136.5 608.5Q236 711 383 711Q530 711 629.5 608.5Q729 506 729 350Q729 194 629.5 91.5Q530 -11 383 -11ZM383 86Q487 86 553 159.5Q619 233 619 350Q619 467 553 540.5Q487 614 383 614Q279 614 213 540.5Q147 467 147 350Q147 233 213 159.5Q279 86 383 86ZM203 771 335 927H433L564 771H488L383 857L279 771Z" glyph-name="Ocircumflex" horiz-adv-x="766" unicode="&#212;" /><glyph d="M383 -11Q236 -11 136.5 91.5Q37 194 37 350Q37 506 136.5 608.5Q236 711 383 711Q530 711 629.5 608.5Q729 506 729 350Q729 194 629.5 91.5Q530 -11 383 -11ZM383 86Q487 86 553 159.5Q619 233 619 350Q619 467 553 540.5Q487 614 383 614Q279 614 213 540.5Q147 467 147 350Q147 233 213 159.5Q279 86 383 86ZM479 788Q452 788 434.5 805.5Q417 823 417 849Q417 874 435 892Q453 910 479 910Q505 910 523 892Q541 874 541 849Q541 823 523 805.5Q505 788 479 788ZM289 788Q262 788 244 805.5Q226 823 226 849Q226 875 244 892.5Q262 910 289 910Q315 910 332.5 892Q350 874 350 849Q350 823 332.5 805.5Q315 788 289 788Z" glyph-name="Odieresis" horiz-adv-x="766" unicode="&#214;" /><glyph d="M383 -11Q236 -11 136.5 91.5Q37 194 37 350Q37 506 136.5 608.5Q236 711 383 711Q530 711 629.5 608.5Q729 506 729 350Q729 194 629.5 91.5Q530 -11 383 -11ZM383 86Q487 86 553 159.5Q619 233 619 350Q619 467 553 540.5Q487 614 383 614Q279 614 213 540.5Q147 467 147 350Q147 233 213 159.5Q279 86 383 86ZM313 927 435 771H348L158 927Z" glyph-name="Ograve" horiz-adv-x="766" unicode="&#210;" /><glyph d="M383 -11Q236 -11 136.5 91.5Q37 194 37 350Q37 506 136.5 608.5Q236 711 383 711Q530 711 629.5 608.5Q729 506 729 350Q729 194 629.5 91.5Q530 -11 383 -11ZM383 86Q487 86 553 159.5Q619 233 619 350Q619 467 553 540.5Q487 614 383 614Q279 614 213 540.5Q147 467 147 350Q147 233 213 159.5Q279 86 383 86ZM316 771H245L351 927H473ZM503 771H431L538 927H659Z" glyph-name="Ohungarumlaut" horiz-adv-x="766" unicode="&#336;" /><glyph d="M383 -11Q236 -11 136.5 91.5Q37 194 37 350Q37 506 136.5 608.5Q236 711 383 711Q530 711 629.5 608.5Q729 506 729 350Q729 194 629.5 91.5Q530 -11 383 -11ZM383 86Q487 86 553 159.5Q619 233 619 350Q619 467 553 540.5Q487 614 383 614Q279 614 213 540.5Q147 467 147 350Q147 233 213 159.5Q279 86 383 86ZM549 873V794H219V873Z" glyph-name="Omacron" horiz-adv-x="766" unicode="&#332;" /><glyph d="M383 617Q278 617 211 542.5Q144 468 144 350Q144 296 159 249.5Q174 203 203 168L508 583Q480 600 448.5 608.5Q417 617 383 617ZM383 84Q488 84 555 158Q622 232 622 350Q622 403 607 450Q592 497 564 533L258 118Q286 101 317.5 92.5Q349 84 383 84ZM729 350Q729 194 629.5 91.5Q530 -11 383 -11Q334 -11 287.5 2Q241 15 200 40L144 -36H53L143 86Q92 136 64.5 204Q37 272 37 350Q37 506 136.5 608.5Q236 711 383 711Q432 711 478.5 698Q525 685 565 660L622 738H715L624 614Q675 564 702 496Q729 428 729 350Z" glyph-name="Oslash" horiz-adv-x="766" unicode="&#216;" /><glyph d="M383 617Q278 617 211 542.5Q144 468 144 350Q144 296 159 249.5Q174 203 203 168L508 583Q480 600 448.5 608.5Q417 617 383 617ZM383 84Q488 84 555 158Q622 232 622 350Q622 403 607 450Q592 497 564 533L258 118Q286 101 317.5 92.5Q349 84 383 84ZM729 350Q729 194 629.5 91.5Q530 -11 383 -11Q334 -11 287.5 2Q241 15 200 40L144 -36H53L143 86Q92 136 64.5 204Q37 272 37 350Q37 506 136.5 608.5Q236 711 383 711Q432 711 478.5 698Q525 685 565 660L622 738H715L624 614Q675 564 702 496Q729 428 729 350ZM612 927 422 771H335L457 927Z" glyph-name="Oslashacute" horiz-adv-x="766" unicode="&#510;" /><glyph d="M383 -11Q236 -11 136.5 91.5Q37 194 37 350Q37 506 136.5 608.5Q236 711 383 711Q530 711 629.5 608.5Q729 506 729 350Q729 194 629.5 91.5Q530 -11 383 -11ZM383 86Q487 86 553 159.5Q619 233 619 350Q619 467 553 540.5Q487 614 383 614Q279 614 213 540.5Q147 467 147 350Q147 233 213 159.5Q279 86 383 86ZM455 768Q439 768 421.5 777.5Q404 787 372 818Q345 844 332 851.5Q319 859 308 859Q289 859 278 840Q267 821 261 771H197Q199 847 230 895Q261 943 312 943Q328 943 345.5 933.5Q363 924 396 893Q423 868 435.5 860.5Q448 853 459 853Q478 853 489 872Q500 891 506 941H570Q568 865 536.5 816.5Q505 768 455 768Z" glyph-name="Otilde" horiz-adv-x="766" unicode="&#213;" /><glyph d="M596 485Q596 388 526.5 329Q457 270 344 270H198V0H91V700H344Q457 700 526.5 641Q596 582 596 485ZM485 485Q485 543 445 576.5Q405 610 338 610H198V360H338Q405 360 445 393.5Q485 427 485 485Z" glyph-name="P" horiz-adv-x="631" unicode="P" /><glyph d="M597 -212Q499 -212 428.5 -158Q358 -104 332 -7Q203 11 120 110.5Q37 210 37 350Q37 506 136.5 608.5Q236 711 383 711Q530 711 629.5 608.5Q729 506 729 350Q729 212 649 113.5Q569 15 443 -6Q461 -63 505 -92.5Q549 -122 614 -122Q631 -122 646 -119.5Q661 -117 679 -111V-197Q662 -205 642 -208.5Q622 -212 597 -212ZM383 86Q487 86 553 159.5Q619 233 619 350Q619 467 553 540.5Q487 614 383 614Q279 614 213 540.5Q147 467 147 350Q147 233 213 159.5Q279 86 383 86Z" glyph-name="Q" horiz-adv-x="766" unicode="Q" /><glyph d="M313 610H198V364H364Q411 377 437.5 410.5Q464 444 464 493Q464 549 424.5 579.5Q385 610 313 610ZM436 302Q477 234 545 147.5Q613 61 674 0H541Q493 49 437.5 123.5Q382 198 333 278H198V0H91V700H316Q440 700 507.5 646.5Q575 593 575 494Q575 429 537.5 378Q500 327 436 302Z" glyph-name="R" horiz-adv-x="676" unicode="R" /><glyph d="M313 610H198V364H364Q411 377 437.5 410.5Q464 444 464 493Q464 549 424.5 579.5Q385 610 313 610ZM436 302Q477 234 545 147.5Q613 61 674 0H541Q493 49 437.5 123.5Q382 198 333 278H198V0H91V700H316Q440 700 507.5 646.5Q575 593 575 494Q575 429 537.5 378Q500 327 436 302ZM546 927 356 771H269L391 927Z" glyph-name="Racute" horiz-adv-x="676" unicode="&#340;" /><glyph d="M313 610H198V364H364Q411 377 437.5 410.5Q464 444 464 493Q464 549 424.5 579.5Q385 610 313 610ZM436 302Q477 234 545 147.5Q613 61 674 0H541Q493 49 437.5 123.5Q382 198 333 278H198V0H91V700H316Q440 700 507.5 646.5Q575 593 575 494Q575 429 537.5 378Q500 327 436 302ZM497 932 366 775H268L136 932H212L316 846L421 932Z" glyph-name="Rcaron" horiz-adv-x="676" unicode="&#344;" /><glyph d="M257 -11Q195 -11 133 5Q71 21 31 47V152Q81 118 139.5 100Q198 82 256 82Q329 82 371 111Q413 140 413 190Q413 224 385.5 249.5Q358 275 265 311Q205 334 176.5 348.5Q148 363 128 379Q94 405 78 437.5Q62 470 62 511Q62 597 131.5 654Q201 711 304 711Q356 711 401 700.5Q446 690 488 668V566Q443 593 400 606Q357 619 308 619Q245 619 207 591Q169 563 169 516Q169 483 196 458Q223 433 316 398Q377 374 406 359.5Q435 345 456 329Q490 303 506.5 269.5Q523 236 523 195Q523 105 447.5 47Q372 -11 257 -11Z" glyph-name="S" horiz-adv-x="568" unicode="S" /><glyph d="M257 -11Q195 -11 133 5Q71 21 31 47V152Q81 118 139.5 100Q198 82 256 82Q329 82 371 111Q413 140 413 190Q413 224 385.5 249.5Q358 275 265 311Q205 334 176.5 348.5Q148 363 128 379Q94 405 78 437.5Q62 470 62 511Q62 597 131.5 654Q201 711 304 711Q356 711 401 700.5Q446 690 488 668V566Q443 593 400 606Q357 619 308 619Q245 619 207 591Q169 563 169 516Q169 483 196 458Q223 433 316 398Q377 374 406 359.5Q435 345 456 329Q490 303 506.5 269.5Q523 236 523 195Q523 105 447.5 47Q372 -11 257 -11ZM542 927 352 771H265L387 927Z" glyph-name="Sacute" horiz-adv-x="568" unicode="&#346;" /><glyph d="M257 -11Q195 -11 133 5Q71 21 31 47V152Q81 118 139.5 100Q198 82 256 82Q329 82 371 111Q413 140 413 190Q413 224 385.5 249.5Q358 275 265 311Q205 334 176.5 348.5Q148 363 128 379Q94 405 78 437.5Q62 470 62 511Q62 597 131.5 654Q201 711 304 711Q356 711 401 700.5Q446 690 488 668V566Q443 593 400 606Q357 619 308 619Q245 619 207 591Q169 563 169 516Q169 483 196 458Q223 433 316 398Q377 374 406 359.5Q435 345 456 329Q490 303 506.5 269.5Q523 236 523 195Q523 105 447.5 47Q372 -11 257 -11ZM488 932 357 775H259L127 932H203L307 846L412 932Z" glyph-name="Scaron" horiz-adv-x="568" unicode="&#352;" /><glyph d="M257 -11Q195 -11 133 5Q71 21 31 47V152Q81 118 139.5 100Q198 82 256 82Q329 82 371 111Q413 140 413 190Q413 224 385.5 249.5Q358 275 265 311Q205 334 176.5 348.5Q148 363 128 379Q94 405 78 437.5Q62 470 62 511Q62 597 131.5 654Q201 711 304 711Q356 711 401 700.5Q446 690 488 668V566Q443 593 400 606Q357 619 308 619Q245 619 207 591Q169 563 169 516Q169 483 196 458Q223 433 316 398Q377 374 406 359.5Q435 345 456 329Q490 303 506.5 269.5Q523 236 523 195Q523 105 447.5 47Q372 -11 257 -11ZM127 771 259 927H357L488 771H412L307 857L203 771Z" glyph-name="Scircumflex" horiz-adv-x="568" unicode="&#348;" /><glyph d="M287 610H27V700H653V610H394V0H287Z" glyph-name="T" horiz-adv-x="680" unicode="T" /><glyph d="M524 400V310H394V0H287V310H157V400H287V610H27V700H653V610H394V400Z" glyph-name="Tbar" horiz-adv-x="680" unicode="&#358;" /><glyph d="M287 610H27V700H653V610H394V0H287ZM520 932 389 775H291L159 932H235L339 846L444 932Z" glyph-name="Tcaron" horiz-adv-x="680" unicode="&#356;" /><glyph d="M449 -140Q449 -183 411 -211Q373 -239 319 -239Q288 -239 261.5 -232.5Q235 -226 217 -214V-153Q239 -166 263 -172.5Q287 -179 315 -179Q345 -179 362.5 -168Q380 -157 380 -139Q380 -117 356 -106Q332 -95 285 -95L319 0H287V610H27V700H653V610H394V0H366L348 -52Q396 -59 422.5 -81.5Q449 -104 449 -140Z" glyph-name="Tcommaaccent" horiz-adv-x="680" unicode="&#354;" /><glyph d="M198 144V0H91V700H198V574H344Q457 574 526.5 515Q596 456 596 359Q596 262 526.5 203Q457 144 344 144ZM485 359Q485 417 445 451Q405 485 338 485H198V233H338Q405 233 445 267Q485 301 485 359Z" glyph-name="Thorn" horiz-adv-x="631" unicode="&#222;" /><glyph d="M365 -11Q227 -11 147.5 70.5Q68 152 68 296V700H176V305Q176 199 224.5 143Q273 87 365 87Q457 87 506 143Q555 199 555 305V700H662V296Q662 152 582.5 70.5Q503 -11 365 -11Z" glyph-name="U" horiz-adv-x="731" unicode="U" /><glyph d="M365 -11Q227 -11 147.5 70.5Q68 152 68 296V700H176V305Q176 199 224.5 143Q273 87 365 87Q457 87 506 143Q555 199 555 305V700H662V296Q662 152 582.5 70.5Q503 -11 365 -11ZM594 927 404 771H317L439 927Z" glyph-name="Uacute" horiz-adv-x="731" unicode="&#218;" /><glyph d="M365 -11Q227 -11 147.5 70.5Q68 152 68 296V700H176V305Q176 199 224.5 143Q273 87 365 87Q457 87 506 143Q555 199 555 305V700H662V296Q662 152 582.5 70.5Q503 -11 365 -11ZM365 767Q290 767 244.5 810.5Q199 854 199 927H268Q270 888 296.5 865.5Q323 843 365 843Q409 843 435.5 865Q462 887 463 927H532Q532 853 486.5 810Q441 767 365 767Z" glyph-name="Ubreve" horiz-adv-x="731" unicode="&#364;" /><glyph d="M365 -11Q227 -11 147.5 70.5Q68 152 68 296V700H176V305Q176 199 224.5 143Q273 87 365 87Q457 87 506 143Q555 199 555 305V700H662V296Q662 152 582.5 70.5Q503 -11 365 -11ZM185 771 317 927H415L546 771H470L365 857L261 771Z" glyph-name="Ucircumflex" horiz-adv-x="731" unicode="&#219;" /><glyph d="M365 -11Q227 -11 147.5 70.5Q68 152 68 296V700H176V305Q176 199 224.5 143Q273 87 365 87Q457 87 506 143Q555 199 555 305V700H662V296Q662 152 582.5 70.5Q503 -11 365 -11ZM461 788Q434 788 416.5 805.5Q399 823 399 849Q399 874 417 892Q435 910 461 910Q487 910 505 892Q523 874 523 849Q523 823 505 805.5Q487 788 461 788ZM271 788Q244 788 226 805.5Q208 823 208 849Q208 875 226 892.5Q244 910 271 910Q297 910 314.5 892Q332 874 332 849Q332 823 314.5 805.5Q297 788 271 788Z" glyph-name="Udieresis" horiz-adv-x="731" unicode="&#220;" /><glyph d="M365 -11Q227 -11 147.5 70.5Q68 152 68 296V700H176V305Q176 199 224.5 143Q273 87 365 87Q457 87 506 143Q555 199 555 305V700H662V296Q662 152 582.5 70.5Q503 -11 365 -11ZM296 927 418 771H331L141 927Z" glyph-name="Ugrave" horiz-adv-x="731" unicode="&#217;" /><glyph d="M365 -11Q227 -11 147.5 70.5Q68 152 68 296V700H176V305Q176 199 224.5 143Q273 87 365 87Q457 87 506 143Q555 199 555 305V700H662V296Q662 152 582.5 70.5Q503 -11 365 -11ZM299 771H228L334 927H456ZM486 771H414L521 927H642Z" glyph-name="Uhungarumlaut" horiz-adv-x="731" unicode="&#368;" /><glyph d="M365 -11Q227 -11 147.5 70.5Q68 152 68 296V700H176V305Q176 199 224.5 143Q273 87 365 87Q457 87 506 143Q555 199 555 305V700H662V296Q662 152 582.5 70.5Q503 -11 365 -11ZM531 873V794H201V873Z" glyph-name="Umacron" horiz-adv-x="731" unicode="&#362;" /><glyph d="M464 -239Q420 -239 391.5 -213.5Q363 -188 363 -145Q363 -108 380 -74Q397 -40 434 -5Q418 -8 400.5 -9.5Q383 -11 365 -11Q227 -11 147.5 70.5Q68 152 68 296V700H176V305Q176 199 224.5 143Q273 87 365 87Q457 87 506 143Q555 199 555 305V700H662V296Q662 215 633.5 150.5Q605 86 551 42Q492 -6 464.5 -45.5Q437 -85 437 -123Q437 -144 449 -157.5Q461 -171 479 -171Q490 -171 496 -169.5Q502 -168 510 -165V-231Q499 -235 488 -237Q477 -239 464 -239Z" glyph-name="Uogonek" horiz-adv-x="731" unicode="&#370;" /><glyph d="M365 -11Q227 -11 147.5 70.5Q68 152 68 296V700H176V305Q176 199 224.5 143Q273 87 365 87Q457 87 506 143Q555 199 555 305V700H662V296Q662 152 582.5 70.5Q503 -11 365 -11ZM489 868Q489 817 452.5 780Q416 743 365 743Q316 743 279.5 780Q243 817 243 868Q243 918 279 954Q315 990 365 990Q416 990 452.5 954Q489 918 489 868ZM303 868Q303 840 321 821Q339 802 365 802Q393 802 411.5 821Q430 840 430 868Q430 894 411 913Q392 932 365 932Q340 932 321.5 913Q303 894 303 868Z" glyph-name="Uring" horiz-adv-x="731" unicode="&#366;" /><glyph d="M365 -11Q227 -11 147.5 70.5Q68 152 68 296V700H176V305Q176 199 224.5 143Q273 87 365 87Q457 87 506 143Q555 199 555 305V700H662V296Q662 152 582.5 70.5Q503 -11 365 -11ZM437 768Q421 768 403.5 777.5Q386 787 354 818Q327 844 314 851.5Q301 859 290 859Q271 859 260 840Q249 821 243 771H179Q181 847 212 895Q243 943 294 943Q310 943 327.5 933.5Q345 924 378 893Q405 868 417.5 860.5Q430 853 441 853Q460 853 471 872Q482 891 488 941H552Q550 865 518.5 816.5Q487 768 437 768Z" glyph-name="Utilde" horiz-adv-x="731" unicode="&#360;" /><glyph d="M693 700 403 0H308L17 700H132L358 139L584 700Z" glyph-name="V" horiz-adv-x="711" unicode="V" /><glyph d="M285 161 440 700H525L679 161L839 700H939L727 0H640L479 547L318 0H230L17 700H126Z" glyph-name="W" horiz-adv-x="957" unicode="W" /><glyph d="M285 161 440 700H525L679 161L839 700H939L727 0H640L479 547L318 0H230L17 700H126ZM707 927 517 771H430L552 927Z" glyph-name="Wacute" horiz-adv-x="957" unicode="&#7810;" /><glyph d="M285 161 440 700H525L679 161L839 700H939L727 0H640L479 547L318 0H230L17 700H126ZM297 771 429 927H527L658 771H582L477 857L373 771Z" glyph-name="Wcircumflex" horiz-adv-x="957" unicode="&#372;" /><glyph d="M285 161 440 700H525L679 161L839 700H939L727 0H640L479 547L318 0H230L17 700H126ZM573 788Q546 788 528.5 805.5Q511 823 511 849Q511 874 529 892Q547 910 573 910Q599 910 617 892Q635 874 635 849Q635 823 617 805.5Q599 788 573 788ZM383 788Q356 788 338 805.5Q320 823 320 849Q320 875 338 892.5Q356 910 383 910Q409 910 426.5 892Q444 874 444 849Q444 823 426.5 805.5Q409 788 383 788Z" glyph-name="Wdieresis" horiz-adv-x="957" unicode="&#7812;" /><glyph d="M285 161 440 700H525L679 161L839 700H939L727 0H640L479 547L318 0H230L17 700H126ZM408 927 530 771H443L253 927Z" glyph-name="Wgrave" horiz-adv-x="957" unicode="&#7808;" /><glyph d="M703 0H573L357 286L140 0H17L298 360L36 700H167L363 440L562 700H685L422 365Z" glyph-name="X" horiz-adv-x="720" unicode="X" /><glyph d="M685 700 406 304V0H298V304L17 700H143L356 396L566 700Z" glyph-name="Y" horiz-adv-x="702" unicode="Y" /><glyph d="M685 700 406 304V0H298V304L17 700H143L356 396L566 700ZM580 927 390 771H303L425 927Z" glyph-name="Yacute" horiz-adv-x="702" unicode="&#221;" /><glyph d="M685 700 406 304V0H298V304L17 700H143L356 396L566 700ZM171 771 303 927H401L532 771H456L351 857L247 771Z" glyph-name="Ycircumflex" horiz-adv-x="702" unicode="&#374;" /><glyph d="M685 700 406 304V0H298V304L17 700H143L356 396L566 700ZM446 788Q419 788 401.5 805.5Q384 823 384 849Q384 874 402 892Q420 910 446 910Q472 910 490 892Q508 874 508 849Q508 823 490 805.5Q472 788 446 788ZM256 788Q229 788 211 805.5Q193 823 193 849Q193 875 211 892.5Q229 910 256 910Q282 910 299.5 892Q317 874 317 849Q317 823 299.5 805.5Q282 788 256 788Z" glyph-name="Ydieresis" horiz-adv-x="702" unicode="&#376;" /><glyph d="M685 700 406 304V0H298V304L17 700H143L356 396L566 700ZM281 927 403 771H316L126 927Z" glyph-name="Ygrave" horiz-adv-x="702" unicode="&#7922;" /><glyph d="M187 90H622V0H47V69L468 610H59V700H606V627Z" glyph-name="Z" horiz-adv-x="667" unicode="Z" /><glyph d="M187 90H622V0H47V69L468 610H59V700H606V627ZM577 927 387 771H300L422 927Z" glyph-name="Zacute" horiz-adv-x="667" unicode="&#377;" /><glyph d="M187 90H622V0H47V69L468 610H59V700H606V627ZM528 932 397 775H299L167 932H243L347 846L452 932Z" glyph-name="Zcaron" horiz-adv-x="667" unicode="&#381;" /><glyph d="M187 90H622V0H47V69L468 610H59V700H606V627ZM347 788Q319 788 300.5 806.5Q282 825 282 853Q282 880 300.5 898.5Q319 917 347 917Q376 917 394.5 899Q413 881 413 853Q413 825 394.5 806.5Q376 788 347 788Z" glyph-name="Zdotaccent" horiz-adv-x="667" unicode="&#379;" /><glyph d="M140 133Q140 102 161.5 84Q183 66 219 66Q251 66 281 76.5Q311 87 346 111V240Q242 236 191 209.5Q140 183 140 133ZM459 0H356L346 54Q310 22 270.5 5.5Q231 -11 189 -11Q124 -11 82.5 27Q41 65 41 126Q41 209 119 255.5Q197 302 346 306V336Q346 385 319 410Q292 435 239 435Q198 435 155.5 422.5Q113 410 70 385V473Q105 496 154.5 510Q204 524 249 524Q345 524 397 476Q449 428 449 341V102Q449 70 451 49Q453 28 459 0Z" glyph-name="a" horiz-adv-x="520" unicode="a" /><glyph d="M140 133Q140 102 161.5 84Q183 66 219 66Q251 66 281 76.5Q311 87 346 111V240Q242 236 191 209.5Q140 183 140 133ZM459 0H356L346 54Q310 22 270.5 5.5Q231 -11 189 -11Q124 -11 82.5 27Q41 65 41 126Q41 209 119 255.5Q197 302 346 306V336Q346 385 319 410Q292 435 239 435Q198 435 155.5 422.5Q113 410 70 385V473Q105 496 154.5 510Q204 524 249 524Q345 524 397 476Q449 428 449 341V102Q449 70 451 49Q453 28 459 0ZM406 791 275 604H210L278 791Z" glyph-name="aacute" horiz-adv-x="520" unicode="&#225;" /><glyph d="M140 133Q140 102 161.5 84Q183 66 219 66Q251 66 281 76.5Q311 87 346 111V240Q242 236 191 209.5Q140 183 140 133ZM459 0H356L346 54Q310 22 270.5 5.5Q231 -11 189 -11Q124 -11 82.5 27Q41 65 41 126Q41 209 119 255.5Q197 302 346 306V336Q346 385 319 410Q292 435 239 435Q198 435 155.5 422.5Q113 410 70 385V473Q105 496 154.5 510Q204 524 249 524Q345 524 397 476Q449 428 449 341V102Q449 70 451 49Q453 28 459 0ZM261 604Q193 604 152 655.5Q111 707 111 791H179Q181 739 202.5 709.5Q224 680 261 680Q299 680 320.5 709Q342 738 344 791H413Q413 706 371.5 655Q330 604 261 604Z" glyph-name="abreve" horiz-adv-x="520" unicode="&#259;" /><glyph d="M140 133Q140 102 161.5 84Q183 66 219 66Q251 66 281 76.5Q311 87 346 111V240Q242 236 191 209.5Q140 183 140 133ZM459 0H356L346 54Q310 22 270.5 5.5Q231 -11 189 -11Q124 -11 82.5 27Q41 65 41 126Q41 209 119 255.5Q197 302 346 306V336Q346 385 319 410Q292 435 239 435Q198 435 155.5 422.5Q113 410 70 385V473Q105 496 154.5 510Q204 524 249 524Q345 524 397 476Q449 428 449 341V102Q449 70 451 49Q453 28 459 0ZM107 604 213 791H311L417 604H348L261 716L175 604Z" glyph-name="acircumflex" horiz-adv-x="520" unicode="&#226;" /><glyph d="M366 791 235 604H170L238 791Z" glyph-name="acute" horiz-adv-x="530" unicode="&#180;" /><glyph d="M403 927 213 771H126L248 927Z" glyph-name="acute.cap" horiz-adv-x="530" /><glyph d="M140 133Q140 102 161.5 84Q183 66 219 66Q251 66 281 76.5Q311 87 346 111V240Q242 236 191 209.5Q140 183 140 133ZM459 0H356L346 54Q310 22 270.5 5.5Q231 -11 189 -11Q124 -11 82.5 27Q41 65 41 126Q41 209 119 255.5Q197 302 346 306V336Q346 385 319 410Q292 435 239 435Q198 435 155.5 422.5Q113 410 70 385V473Q105 496 154.5 510Q204 524 249 524Q345 524 397 476Q449 428 449 341V102Q449 70 451 49Q453 28 459 0ZM357 643Q330 643 312.5 660.5Q295 678 295 704Q295 729 313 746.5Q331 764 357 764Q383 764 401 746.5Q419 729 419 704Q419 678 401 660.5Q383 643 357 643ZM167 643Q140 643 122 660.5Q104 678 104 704Q104 729 122 746.5Q140 764 167 764Q193 764 210.5 746.5Q228 729 228 704Q228 678 210.5 660.5Q193 643 167 643Z" glyph-name="adieresis" horiz-adv-x="520" unicode="&#228;" /><glyph d="M620 -11Q549 -11 491 17.5Q433 46 396 98Q359 46 306 17.5Q253 -11 191 -11Q125 -11 83 28Q41 67 41 129Q41 210 121 258Q201 306 347 311V337Q347 385 319.5 410Q292 435 239 435Q198 435 155.5 422.5Q113 410 70 385V473Q105 496 154.5 510Q204 524 249 524Q312 524 354 502.5Q396 481 416 439Q449 480 493 502Q537 524 587 524Q696 524 753 446.5Q810 369 800 243H443Q450 167 501.5 121.5Q553 76 631 76Q679 76 712 84Q745 92 780 110V23Q743 6 703.5 -2.5Q664 -11 620 -11ZM584 442Q530 442 493 407Q456 372 446 311H699Q700 372 669.5 407Q639 442 584 442ZM140 137Q140 106 160.5 87Q181 68 216 68Q261 68 297.5 89.5Q334 111 365 156Q358 176 353.5 198Q349 220 347 243H344Q243 239 191.5 212.5Q140 186 140 137Z" glyph-name="ae" horiz-adv-x="838" unicode="&#230;" /><glyph d="M620 -11Q549 -11 491 17.5Q433 46 396 98Q359 46 306 17.5Q253 -11 191 -11Q125 -11 83 28Q41 67 41 129Q41 210 121 258Q201 306 347 311V337Q347 385 319.5 410Q292 435 239 435Q198 435 155.5 422.5Q113 410 70 385V473Q105 496 154.5 510Q204 524 249 524Q312 524 354 502.5Q396 481 416 439Q449 480 493 502Q537 524 587 524Q696 524 753 446.5Q810 369 800 243H443Q450 167 501.5 121.5Q553 76 631 76Q679 76 712 84Q745 92 780 110V23Q743 6 703.5 -2.5Q664 -11 620 -11ZM584 442Q530 442 493 407Q456 372 446 311H699Q700 372 669.5 407Q639 442 584 442ZM140 137Q140 106 160.5 87Q181 68 216 68Q261 68 297.5 89.5Q334 111 365 156Q358 176 353.5 198Q349 220 347 243H344Q243 239 191.5 212.5Q140 186 140 137ZM578 791 447 604H382L450 791Z" glyph-name="aeacute" horiz-adv-x="838" unicode="&#509;" /><glyph d="M140 133Q140 102 161.5 84Q183 66 219 66Q251 66 281 76.5Q311 87 346 111V240Q242 236 191 209.5Q140 183 140 133ZM459 0H356L346 54Q310 22 270.5 5.5Q231 -11 189 -11Q124 -11 82.5 27Q41 65 41 126Q41 209 119 255.5Q197 302 346 306V336Q346 385 319 410Q292 435 239 435Q198 435 155.5 422.5Q113 410 70 385V473Q105 496 154.5 510Q204 524 249 524Q345 524 397 476Q449 428 449 341V102Q449 70 451 49Q453 28 459 0ZM245 791 312 604H246L117 791Z" glyph-name="agrave" horiz-adv-x="520" unicode="&#224;" /><glyph d="M140 133Q140 102 161.5 84Q183 66 219 66Q251 66 281 76.5Q311 87 346 111V240Q242 236 191 209.5Q140 183 140 133ZM459 0H356L346 54Q310 22 270.5 5.5Q231 -11 189 -11Q124 -11 82.5 27Q41 65 41 126Q41 209 119 255.5Q197 302 346 306V336Q346 385 319 410Q292 435 239 435Q198 435 155.5 422.5Q113 410 70 385V473Q105 496 154.5 510Q204 524 249 524Q345 524 397 476Q449 428 449 341V102Q449 70 451 49Q453 28 459 0ZM411 726V648H112V726Z" glyph-name="amacron" horiz-adv-x="520" unicode="&#257;" /><glyph d="M128 208Q128 150 170 112Q212 74 276 74Q319 74 357.5 88.5Q396 103 428 131L221 343Q180 327 154 290Q128 253 128 208ZM686 0H556L487 71Q441 31 386.5 10Q332 -11 275 -11Q167 -11 98 50Q29 111 29 207Q29 271 66 323.5Q103 376 166 402Q139 435 127.5 464.5Q116 494 116 528Q116 609 174 660Q232 711 323 711Q367 711 408 698.5Q449 686 479 664V566Q439 598 403 611.5Q367 625 328 625Q278 625 248.5 598Q219 571 219 525Q219 501 232 477Q245 453 291 404L487 203Q511 243 524 291Q537 339 539 390H635Q634 325 612 259.5Q590 194 550 139Z" glyph-name="ampersand" horiz-adv-x="690" unicode="&amp;" /><glyph d="M278 -145Q278 -98 306 -55Q323 -29 356 1L346 54Q310 22 270.5 5.5Q231 -11 189 -11Q124 -11 82.5 27Q41 65 41 126Q41 209 119 255.5Q197 302 346 306V336Q346 385 319 410Q292 435 239 435Q198 435 155.5 422.5Q113 410 70 385V473Q105 496 154.5 510Q204 524 249 524Q345 524 397 476Q449 428 449 341V102Q449 70 451 49Q453 28 459 0H421Q386 -36 369 -64Q351 -95 351 -124Q351 -145 363.5 -158Q376 -171 395 -171Q405 -171 411.5 -169.5Q418 -168 425 -165V-231Q413 -235 402.5 -237Q392 -239 379 -239Q335 -239 306.5 -213.5Q278 -188 278 -145ZM140 133Q140 102 161.5 84Q183 66 219 66Q251 66 281 76.5Q311 87 346 111V240Q242 236 191 209.5Q140 183 140 133Z" glyph-name="aogonek" horiz-adv-x="520" unicode="&#261;" /><glyph d="M140 133Q140 102 161.5 84Q183 66 219 66Q251 66 281 76.5Q311 87 346 111V240Q242 236 191 209.5Q140 183 140 133ZM459 0H356L346 54Q310 22 270.5 5.5Q231 -11 189 -11Q124 -11 82.5 27Q41 65 41 126Q41 209 119 255.5Q197 302 346 306V336Q346 385 319 410Q292 435 239 435Q198 435 155.5 422.5Q113 410 70 385V473Q105 496 154.5 510Q204 524 249 524Q345 524 397 476Q449 428 449 341V102Q449 70 451 49Q453 28 459 0ZM260 810Q306 810 339 777.5Q372 745 372 700Q372 654 339 621.5Q306 589 260 589Q216 589 183 622Q150 655 150 700Q150 745 183 777.5Q216 810 260 810ZM260 759Q237 759 220 741.5Q203 724 203 700Q203 676 220 658.5Q237 641 260 641Q284 641 301.5 658.5Q319 676 319 700Q319 724 301.5 741.5Q284 759 260 759Z" glyph-name="aring" horiz-adv-x="520" unicode="&#229;" /><glyph d="M39 412 202 701H304L468 412H380L253 604L126 412Z" glyph-name="asciicircum" horiz-adv-x="506" unicode="^" /><glyph d="M372 207Q352 207 333 217.5Q314 228 281 261Q255 287 241.5 295Q228 303 216 303Q189 303 170.5 279Q152 255 142 204H70Q78 290 117.5 344.5Q157 399 213 399Q233 399 252 388.5Q271 378 304 346Q330 320 343.5 312Q357 304 369 304Q396 304 414 327Q432 350 443 402H515Q507 316 467.5 261.5Q428 207 372 207Z" glyph-name="asciitilde" horiz-adv-x="585" unicode="~" /><glyph d="M350 497 280 447 260 476 211 573 161 476 141 447 71 497 93 526 168 600 62 616 27 627 54 709 89 698 186 646 168 755V791H254V755L235 646L331 698L367 709L393 627L359 616L251 600L328 526Z" glyph-name="asterisk" horiz-adv-x="421" unicode="*" /><glyph d="M950 312Q950 186 884 104.5Q818 23 724 23Q685 23 653.5 37.5Q622 52 598 81Q570 55 534 39.5Q498 24 463 24Q406 24 368.5 57.5Q331 91 331 143Q331 215 398 255Q465 295 592 299V323Q592 365 569 387.5Q546 410 502 410Q467 410 431 399Q395 388 359 366V445Q387 465 429.5 477Q472 489 511 489Q592 489 637.5 446.5Q683 404 683 330V113Q690 104 704 98.5Q718 93 733 93Q790 93 828 153Q866 213 866 308Q866 451 770 544Q674 637 531 637Q364 637 253 522Q142 407 142 231Q142 65 255.5 -43Q369 -151 536 -151Q627 -151 707.5 -125Q788 -99 849 -50V-134Q787 -179 707 -202.5Q627 -226 535 -226Q439 -226 351.5 -193Q264 -160 198 -99Q130 -36 94 48.5Q58 133 58 231Q58 329 92.5 417Q127 505 192 572Q258 640 345 676Q432 712 530 712Q614 712 690.5 683Q767 654 825 601Q886 545 918 471Q950 397 950 312ZM426 150Q426 125 445 109.5Q464 94 494 94Q518 94 541 102Q564 110 592 129V240Q510 237 468 214.5Q426 192 426 150Z" glyph-name="at" horiz-adv-x="1007" unicode="@" /><glyph d="M140 133Q140 102 161.5 84Q183 66 219 66Q251 66 281 76.5Q311 87 346 111V240Q242 236 191 209.5Q140 183 140 133ZM459 0H356L346 54Q310 22 270.5 5.5Q231 -11 189 -11Q124 -11 82.5 27Q41 65 41 126Q41 209 119 255.5Q197 302 346 306V336Q346 385 319 410Q292 435 239 435Q198 435 155.5 422.5Q113 410 70 385V473Q105 496 154.5 510Q204 524 249 524Q345 524 397 476Q449 428 449 341V102Q449 70 451 49Q453 28 459 0ZM325 617Q309 617 292.5 627Q276 637 247 667Q223 693 211 700.5Q199 708 188 708Q169 708 158.5 689.5Q148 671 142 620H79Q81 696 112 744Q143 792 193 792Q209 792 225 782.5Q241 773 270 743Q294 717 306 709.5Q318 702 329 702Q348 702 358.5 720.5Q369 739 375 790H438Q436 713 405.5 665Q375 617 325 617Z" glyph-name="atilde" horiz-adv-x="520" unicode="&#227;" /><glyph d="M282 -11Q225 -11 173.5 0Q122 11 79 33V787L182 803V464Q212 491 253.5 507.5Q295 524 337 524Q439 524 499.5 455.5Q560 387 560 271Q560 147 482 68Q404 -11 282 -11ZM313 436Q278 436 242 423.5Q206 411 182 391V93Q204 84 228.5 79.5Q253 75 281 75Q360 75 407 127Q454 179 454 267Q454 345 416 390.5Q378 436 313 436Z" glyph-name="b" horiz-adv-x="578" unicode="b" /><glyph d="M25 791H129L433 -122H330Z" glyph-name="backslash" horiz-adv-x="427" unicode="\" /><glyph d="M210 791V-122H112V791Z" glyph-name="bar" horiz-adv-x="321" unicode="|" /><glyph d="M73 292H18V377H73Q109 377 124.5 395Q140 413 140 451L114 645Q114 709 159.5 750Q205 791 273 791Q297 791 321 786Q345 781 363 772V699Q353 705 336.5 708Q320 711 304 711Q264 711 237.5 689Q211 667 211 630L235 438Q235 398 207.5 370Q180 342 136 334Q180 327 207.5 299.5Q235 272 235 231L211 38Q211 1 237.5 -21Q264 -43 304 -43Q319 -43 335.5 -39.5Q352 -36 363 -30V-103Q345 -112 321 -117Q297 -122 273 -122Q206 -122 160 -81.5Q114 -41 114 23L140 217Q140 256 124.5 274Q109 292 73 292Z" glyph-name="braceleft" horiz-adv-x="391" unicode="{" /><glyph d="M318 292Q282 292 266.5 274Q251 256 251 217L277 23Q277 -41 231 -81.5Q185 -122 118 -122Q94 -122 70 -117Q46 -112 28 -103V-30Q39 -36 55.5 -39.5Q72 -43 87 -43Q127 -43 153.5 -21Q180 1 180 38L156 231Q156 272 183.5 299.5Q211 327 255 334Q211 342 183.5 370Q156 398 156 438L180 630Q180 667 153.5 689Q127 711 87 711Q71 711 54.5 708Q38 705 28 699V772Q46 781 70 786Q94 791 118 791Q186 791 231.5 750Q277 709 277 645L251 451Q251 413 266.5 395Q282 377 318 377H373V292H318Z" glyph-name="braceright" horiz-adv-x="391" unicode="}" /><glyph d="M333 711H172V-42H333V-122H73V791H333Z" glyph-name="bracketleft" horiz-adv-x="361" unicode="[" /><glyph d="M28 791H288V-122H28V-42H189V711H28Z" glyph-name="bracketright" horiz-adv-x="361" unicode="]" /><glyph d="M264 604Q196 604 155 655.5Q114 707 114 791H182Q184 739 205.5 709.5Q227 680 264 680Q302 680 323.5 709Q345 738 347 791H416Q416 706 374.5 655Q333 604 264 604Z" glyph-name="breve" horiz-adv-x="530" unicode="&#728;" /><glyph d="M264 767Q189 767 143.5 810.5Q98 854 98 927H167Q169 888 195.5 865.5Q222 843 264 843Q308 843 334.5 865Q361 887 362 927H431Q431 853 385.5 810Q340 767 264 767Z" glyph-name="breve.cap" horiz-adv-x="530" /><glyph d="M406 275Q406 206 356.5 156.5Q307 107 238 107Q169 107 119.5 156.5Q70 206 70 275Q70 345 119 394.5Q168 444 238 444Q307 444 356.5 394.5Q406 345 406 275Z" glyph-name="bullet" horiz-adv-x="476" unicode="&#8226;" /><glyph d="M306 -11Q190 -11 113.5 64Q37 139 37 255Q37 373 113 448.5Q189 524 306 524Q334 524 362.5 518Q391 512 414 502V411Q391 423 365.5 428.5Q340 434 310 434Q235 434 186.5 384Q138 334 138 255Q138 178 187 128.5Q236 79 310 79Q337 79 364.5 85Q392 91 417 103V11Q394 1 363.5 -5Q333 -11 306 -11Z" glyph-name="c" horiz-adv-x="464" unicode="c" /><glyph d="M306 -11Q190 -11 113.5 64Q37 139 37 255Q37 373 113 448.5Q189 524 306 524Q334 524 362.5 518Q391 512 414 502V411Q391 423 365.5 428.5Q340 434 310 434Q235 434 186.5 384Q138 334 138 255Q138 178 187 128.5Q236 79 310 79Q337 79 364.5 85Q392 91 417 103V11Q394 1 363.5 -5Q333 -11 306 -11ZM444 791 313 604H248L316 791Z" glyph-name="cacute" horiz-adv-x="464" unicode="&#263;" /><glyph d="M421 791 315 604H217L111 791H179L265 678L352 791Z" glyph-name="caron" horiz-adv-x="530" unicode="&#711;" /><glyph d="M224 543H161L188 791H300Z" glyph-name="caron.Slovak" horiz-adv-x="438" /><glyph d="M446 932 315 775H217L85 932H161L265 846L370 932Z" glyph-name="caron.cap" horiz-adv-x="530" /><glyph d="M306 -11Q190 -11 113.5 64Q37 139 37 255Q37 373 113 448.5Q189 524 306 524Q334 524 362.5 518Q391 512 414 502V411Q391 423 365.5 428.5Q340 434 310 434Q235 434 186.5 384Q138 334 138 255Q138 178 187 128.5Q236 79 310 79Q337 79 364.5 85Q392 91 417 103V11Q394 1 363.5 -5Q333 -11 306 -11ZM444 791 338 604H240L134 791H202L288 678L375 791Z" glyph-name="ccaron" horiz-adv-x="464" unicode="&#269;" /><glyph d="M370 -140Q370 -183 332 -211Q294 -239 240 -239Q209 -239 182.5 -232.5Q156 -226 138 -214V-153Q160 -166 184 -172.5Q208 -179 236 -179Q266 -179 283.5 -168Q301 -157 301 -139Q301 -117 277 -106Q253 -95 206 -95L238 -4Q166 12 113 64Q37 139 37 255Q37 373 113 448.5Q189 524 306 524Q334 524 362.5 518Q391 512 414 502V411Q391 423 365.5 428.5Q340 434 310 434Q235 434 186.5 384Q138 334 138 255Q138 178 187 128.5Q236 79 310 79Q337 79 364.5 85Q392 91 417 103V11Q394 1 363.5 -5Q333 -11 306 -11Q294 -11 283 -10L269 -52Q317 -59 343.5 -81.5Q370 -104 370 -140Z" glyph-name="ccedilla" horiz-adv-x="464" unicode="&#231;" /><glyph d="M306 -11Q190 -11 113.5 64Q37 139 37 255Q37 373 113 448.5Q189 524 306 524Q334 524 362.5 518Q391 512 414 502V411Q391 423 365.5 428.5Q340 434 310 434Q235 434 186.5 384Q138 334 138 255Q138 178 187 128.5Q236 79 310 79Q337 79 364.5 85Q392 91 417 103V11Q394 1 363.5 -5Q333 -11 306 -11ZM134 604 240 791H338L444 604H375L288 716L202 604Z" glyph-name="ccircumflex" horiz-adv-x="464" unicode="&#265;" /><glyph d="M306 -11Q190 -11 113.5 64Q37 139 37 255Q37 373 113 448.5Q189 524 306 524Q334 524 362.5 518Q391 512 414 502V411Q391 423 365.5 428.5Q340 434 310 434Q235 434 186.5 384Q138 334 138 255Q138 178 187 128.5Q236 79 310 79Q337 79 364.5 85Q392 91 417 103V11Q394 1 363.5 -5Q333 -11 306 -11ZM287 638Q259 638 240.5 656.5Q222 675 222 703Q222 731 240.5 749.5Q259 768 287 768Q316 768 334.5 749.5Q353 731 353 703Q353 675 334.5 656.5Q316 638 287 638Z" glyph-name="cdotaccent" horiz-adv-x="464" unicode="&#267;" /><glyph d="M371 -140Q371 -183 333 -211Q295 -239 241 -239Q210 -239 183.5 -232.5Q157 -226 139 -214V-153Q161 -166 185 -172.5Q209 -179 237 -179Q267 -179 284.5 -168Q302 -157 302 -139Q302 -117 278 -106Q254 -95 207 -95L244 8H291L270 -52Q318 -59 344.5 -81.5Q371 -104 371 -140Z" glyph-name="cedilla" horiz-adv-x="530" unicode="&#184;" /><glyph d="M450 193V103Q425 93 391.5 86Q358 79 330 78V-77H240V88Q145 112 87.5 181.5Q30 251 30 345Q30 440 87 510.5Q144 581 240 605V773H330V615Q357 614 389 608Q421 602 446 592V501Q421 513 390.5 519Q360 525 325 525Q240 525 186.5 476Q133 427 133 345Q133 265 187 216Q241 167 325 167Q356 167 389 174Q422 181 450 193Z" glyph-name="cent" horiz-adv-x="488" unicode="&#162;" /><glyph d="M111 604 217 791H315L421 604H352L265 716L179 604Z" glyph-name="circumflex" horiz-adv-x="530" unicode="&#710;" /><glyph d="M85 771 217 927H315L446 771H370L265 857L161 771Z" glyph-name="circumflex.cap" horiz-adv-x="530" /><glyph d="M125 -6Q95 -6 74 15.5Q53 37 53 68Q53 98 74 119Q95 140 125 140Q155 140 176 119Q197 98 197 68Q197 37 176 15.5Q155 -6 125 -6ZM125 343Q95 343 74 364.5Q53 386 53 417Q53 447 74 468Q95 489 125 489Q155 489 176 468Q197 447 197 417Q197 386 176 364.5Q155 343 125 343Z" glyph-name="colon" horiz-adv-x="250" unicode=":" /><glyph d="M76 124H184Q184 59 156 -16Q128 -91 94 -133H23Q45 -87 60.5 -14Q76 59 76 124Z" glyph-name="comma" horiz-adv-x="250" unicode="," /><glyph d="M37 351Q37 505 141 608.5Q245 712 398 712Q551 712 654.5 609Q758 506 758 351Q758 196 654.5 92.5Q551 -11 398 -11Q245 -11 141 92.5Q37 196 37 351ZM93 351Q93 220 181 132.5Q269 45 398 45Q527 45 614.5 133Q702 221 702 351Q702 482 614.5 569.5Q527 657 398 657Q269 657 181 569.5Q93 482 93 351ZM419 153Q334 153 280 208.5Q226 264 226 352Q226 441 280.5 499Q335 557 419 557Q443 557 465.5 551Q488 545 506 534V456Q489 467 468 473.5Q447 480 425 480Q376 480 343.5 444.5Q311 409 311 352Q311 296 343 262.5Q375 229 425 229Q447 229 468 235.5Q489 242 506 253V177Q489 165 467 159Q445 153 419 153Z" glyph-name="copyright" horiz-adv-x="796" unicode="&#169;" /><glyph d="M285 78Q321 78 354 91Q387 104 413 127V412Q396 426 368.5 433.5Q341 441 311 441Q234 441 188 388Q142 335 142 247Q142 169 181 123.5Q220 78 285 78ZM516 10 413 -6V52Q380 21 341.5 5Q303 -11 262 -11Q160 -11 98.5 58Q37 127 37 243Q37 367 112 445.5Q187 524 303 524Q333 524 363 516.5Q393 509 413 497V787L516 803Z" glyph-name="d" horiz-adv-x="595" unicode="d" /><glyph d="M196 629 214 555V423H132V554L150 629L70 611H31V692H69L151 674L132 749V791H214V748L195 674L279 692H316V611H278Z" glyph-name="dagger" horiz-adv-x="348" unicode="&#8224;" /><glyph d="M197 519 214 458V423H132V458L149 519L69 501H31V576H70L144 560V654L70 638H31V712H69L149 695L132 756V791H214V755L197 695L279 712H316V638H278L202 654V560L278 576H316V501H279Z" glyph-name="daggerdbl" horiz-adv-x="348" unicode="&#8225;" /><glyph d="M285 78Q321 78 354 91Q387 104 413 127V412Q396 426 368.5 433.5Q341 441 311 441Q234 441 188 388Q142 335 142 247Q142 169 181 123.5Q220 78 285 78ZM516 10 413 -6V52Q380 21 341.5 5Q303 -11 262 -11Q160 -11 98.5 58Q37 127 37 243Q37 367 112 445.5Q187 524 303 524Q333 524 363 516.5Q393 509 413 497V787L516 803ZM651 543H588L615 791H727Z" glyph-name="dcaron" horiz-adv-x="710" unicode="&#271;" /><glyph d="M285 78Q321 78 354 91Q387 104 413 127V412Q396 426 368.5 433.5Q341 441 311 441Q234 441 188 388Q142 335 142 247Q142 169 181 123.5Q220 78 285 78ZM413 -6V52Q380 21 341.5 5Q303 -11 262 -11Q160 -11 98.5 58Q37 127 37 243Q37 367 112 445.5Q187 524 303 524Q333 524 363 516.5Q393 509 413 497V614H257V684H413V787L516 803V684H595V614H516V10Z" glyph-name="dcroat" horiz-adv-x="599" unicode="&#273;" /><glyph d="M37 555Q37 620 83.5 666Q130 712 194 712Q260 712 306.5 666.5Q353 621 353 555Q353 489 306.5 442.5Q260 396 194 396Q130 396 83.5 443Q37 490 37 555ZM105 555Q105 518 131 491Q157 464 194 464Q232 464 258.5 490.5Q285 517 285 555Q285 592 258.5 618.5Q232 645 194 645Q157 645 131 618.5Q105 592 105 555Z" glyph-name="degree" horiz-adv-x="390" unicode="&#176;" /><glyph d="M360 643Q333 643 315.5 660.5Q298 678 298 704Q298 729 316 746.5Q334 764 360 764Q386 764 404 746.5Q422 729 422 704Q422 678 404 660.5Q386 643 360 643ZM170 643Q143 643 125 660.5Q107 678 107 704Q107 729 125 746.5Q143 764 170 764Q196 764 213.5 746.5Q231 729 231 704Q231 678 213.5 660.5Q196 643 170 643Z" glyph-name="dieresis" horiz-adv-x="530" unicode="&#168;" /><glyph d="M360 788Q333 788 315.5 805.5Q298 823 298 849Q298 874 316 892Q334 910 360 910Q386 910 404 892Q422 874 422 849Q422 823 404 805.5Q386 788 360 788ZM170 788Q143 788 125 805.5Q107 823 107 849Q107 875 125 892.5Q143 910 170 910Q196 910 213.5 892Q231 874 231 849Q231 823 213.5 805.5Q196 788 170 788Z" glyph-name="dieresis.cap" horiz-adv-x="530" /><glyph d="M298 467Q270 467 250.5 486Q231 505 231 533Q231 561 250.5 581Q270 601 298 601Q326 601 345.5 581Q365 561 365 533Q365 505 345.5 486Q326 467 298 467ZM555 295H46V375H555ZM298 70Q270 70 250.5 89.5Q231 109 231 136Q231 164 250.5 184Q270 204 298 204Q326 204 345.5 184Q365 164 365 136Q365 109 345.5 89.5Q326 70 298 70Z" glyph-name="divide" horiz-adv-x="601" unicode="&#247;" /><glyph d="M308 66V-77H218V62Q170 64 123.5 75.5Q77 87 39 106V204Q83 177 140 162Q197 147 250 147Q310 147 346 167.5Q382 188 382 223Q382 248 358 266Q334 284 253 308Q198 325 172 336Q146 347 126 359Q93 380 76.5 408Q60 436 60 471Q60 528 103 571.5Q146 615 218 630V773H308V636Q344 635 378.5 626.5Q413 618 452 602V507Q416 527 370 539Q324 551 284 551Q230 551 199 531Q168 511 168 477Q168 451 192.5 432Q217 413 300 389Q354 373 379.5 362.5Q405 352 424 340Q457 320 473 293.5Q489 267 489 232Q489 169 439.5 124.5Q390 80 308 66Z" glyph-name="dollar" horiz-adv-x="529" unicode="$" /><glyph d="M264 638Q236 638 217.5 656.5Q199 675 199 703Q199 731 217.5 749.5Q236 768 264 768Q293 768 311.5 749.5Q330 731 330 703Q330 675 311.5 656.5Q293 638 264 638Z" glyph-name="dotaccent" horiz-adv-x="530" unicode="&#729;" /><glyph d="M264 788Q236 788 217.5 806.5Q199 825 199 853Q199 880 217.5 898.5Q236 917 264 917Q293 917 311.5 899Q330 881 330 853Q330 825 311.5 806.5Q293 788 264 788Z" glyph-name="dotaccent.cap" horiz-adv-x="530" /><glyph d="M182 0H79V503L182 520Z" glyph-name="dotlessi" horiz-adv-x="261" unicode="&#305;" /><glyph d="M278 442Q223 442 185 406Q147 370 137 308H395V313Q395 372 364 407Q333 442 278 442ZM474 110V23Q437 6 397.5 -2.5Q358 -11 314 -11Q192 -11 114.5 64.5Q37 140 37 258Q37 372 106 448Q175 524 280 524Q382 524 438.5 458.5Q495 393 495 280Q495 265 495 257.5Q495 250 494 243H134Q140 167 192.5 121.5Q245 76 325 76Q373 76 405.5 84Q438 92 474 110Z" glyph-name="e" horiz-adv-x="532" unicode="e" /><glyph d="M278 442Q223 442 185 406Q147 370 137 308H395V313Q395 372 364 407Q333 442 278 442ZM474 110V23Q437 6 397.5 -2.5Q358 -11 314 -11Q192 -11 114.5 64.5Q37 140 37 258Q37 372 106 448Q175 524 280 524Q382 524 438.5 458.5Q495 393 495 280Q495 265 495 257.5Q495 250 494 243H134Q140 167 192.5 121.5Q245 76 325 76Q373 76 405.5 84Q438 92 474 110ZM429 791 298 604H233L301 791Z" glyph-name="eacute" horiz-adv-x="532" unicode="&#233;" /><glyph d="M278 442Q223 442 185 406Q147 370 137 308H395V313Q395 372 364 407Q333 442 278 442ZM474 110V23Q437 6 397.5 -2.5Q358 -11 314 -11Q192 -11 114.5 64.5Q37 140 37 258Q37 372 106 448Q175 524 280 524Q382 524 438.5 458.5Q495 393 495 280Q495 265 495 257.5Q495 250 494 243H134Q140 167 192.5 121.5Q245 76 325 76Q373 76 405.5 84Q438 92 474 110ZM284 604Q216 604 175 655.5Q134 707 134 791H202Q204 739 225.5 709.5Q247 680 284 680Q322 680 343.5 709Q365 738 367 791H436Q436 706 394.5 655Q353 604 284 604Z" glyph-name="ebreve" horiz-adv-x="532" unicode="&#277;" /><glyph d="M278 442Q223 442 185 406Q147 370 137 308H395V313Q395 372 364 407Q333 442 278 442ZM474 110V23Q437 6 397.5 -2.5Q358 -11 314 -11Q192 -11 114.5 64.5Q37 140 37 258Q37 372 106 448Q175 524 280 524Q382 524 438.5 458.5Q495 393 495 280Q495 265 495 257.5Q495 250 494 243H134Q140 167 192.5 121.5Q245 76 325 76Q373 76 405.5 84Q438 92 474 110ZM440 791 334 604H236L130 791H198L284 678L371 791Z" glyph-name="ecaron" horiz-adv-x="532" unicode="&#283;" /><glyph d="M278 442Q223 442 185 406Q147 370 137 308H395V313Q395 372 364 407Q333 442 278 442ZM474 110V23Q437 6 397.5 -2.5Q358 -11 314 -11Q192 -11 114.5 64.5Q37 140 37 258Q37 372 106 448Q175 524 280 524Q382 524 438.5 458.5Q495 393 495 280Q495 265 495 257.5Q495 250 494 243H134Q140 167 192.5 121.5Q245 76 325 76Q373 76 405.5 84Q438 92 474 110ZM130 604 236 791H334L440 604H371L284 716L198 604Z" glyph-name="ecircumflex" horiz-adv-x="532" unicode="&#234;" /><glyph d="M278 442Q223 442 185 406Q147 370 137 308H395V313Q395 372 364 407Q333 442 278 442ZM474 110V23Q437 6 397.5 -2.5Q358 -11 314 -11Q192 -11 114.5 64.5Q37 140 37 258Q37 372 106 448Q175 524 280 524Q382 524 438.5 458.5Q495 393 495 280Q495 265 495 257.5Q495 250 494 243H134Q140 167 192.5 121.5Q245 76 325 76Q373 76 405.5 84Q438 92 474 110ZM380 643Q353 643 335.5 660.5Q318 678 318 704Q318 729 336 746.5Q354 764 380 764Q406 764 424 746.5Q442 729 442 704Q442 678 424 660.5Q406 643 380 643ZM190 643Q163 643 145 660.5Q127 678 127 704Q127 729 145 746.5Q163 764 190 764Q216 764 233.5 746.5Q251 729 251 704Q251 678 233.5 660.5Q216 643 190 643Z" glyph-name="edieresis" horiz-adv-x="532" unicode="&#235;" /><glyph d="M278 442Q223 442 185 406Q147 370 137 308H395V313Q395 372 364 407Q333 442 278 442ZM474 110V23Q437 6 397.5 -2.5Q358 -11 314 -11Q192 -11 114.5 64.5Q37 140 37 258Q37 372 106 448Q175 524 280 524Q382 524 438.5 458.5Q495 393 495 280Q495 265 495 257.5Q495 250 494 243H134Q140 167 192.5 121.5Q245 76 325 76Q373 76 405.5 84Q438 92 474 110ZM284 638Q256 638 237.5 656.5Q219 675 219 703Q219 731 237.5 749.5Q256 768 284 768Q313 768 331.5 749.5Q350 731 350 703Q350 675 331.5 656.5Q313 638 284 638Z" glyph-name="edotaccent" horiz-adv-x="532" unicode="&#279;" /><glyph d="M278 442Q223 442 185 406Q147 370 137 308H395V313Q395 372 364 407Q333 442 278 442ZM474 110V23Q437 6 397.5 -2.5Q358 -11 314 -11Q192 -11 114.5 64.5Q37 140 37 258Q37 372 106 448Q175 524 280 524Q382 524 438.5 458.5Q495 393 495 280Q495 265 495 257.5Q495 250 494 243H134Q140 167 192.5 121.5Q245 76 325 76Q373 76 405.5 84Q438 92 474 110ZM268 791 335 604H269L140 791Z" glyph-name="egrave" horiz-adv-x="532" unicode="&#232;" /><glyph d="M552 187Q552 103 477.5 46Q403 -11 292 -11Q183 -11 109 45Q35 101 35 184Q35 241 75 287.5Q115 334 188 363Q132 394 103 434Q74 474 74 521Q74 603 137.5 657Q201 711 296 711Q393 711 456.5 662Q520 613 520 536Q520 485 486.5 442Q453 399 391 371Q444 345 465.5 331.5Q487 318 502 304Q528 280 540 251.5Q552 223 552 187ZM177 534Q177 500 197 476.5Q217 453 271 427L332 398Q376 424 400.5 457Q425 490 425 526Q425 574 390 604Q355 634 297 634Q245 634 211 605.5Q177 577 177 534ZM138 195Q138 143 182 107.5Q226 72 292 72Q359 72 401 103.5Q443 135 443 186Q443 216 418 240.5Q393 265 326 297L247 334Q194 309 166 274Q138 239 138 195Z" glyph-name="eight" horiz-adv-x="587" unicode="8" /><glyph d="M543 187Q543 103 469.5 46Q396 -11 287 -11Q180 -11 107.5 45Q35 101 35 184Q35 241 74.5 287.5Q114 334 185 363Q131 392 102 432.5Q73 473 73 521Q73 603 135.5 657Q198 711 292 711Q387 711 449.5 661.5Q512 612 512 536Q512 485 478.5 442Q445 399 384 371Q436 346 457.5 332.5Q479 319 495 304Q519 281 531 252Q543 223 543 187ZM173 534Q173 500 192.5 476Q212 452 264 427L326 398Q369 424 392.5 457Q416 490 416 526Q416 576 382.5 606Q349 636 292 636Q240 636 206.5 607Q173 578 173 534ZM137 195Q137 143 180 107.5Q223 72 287 72Q353 72 395 103.5Q437 135 437 186Q437 216 412.5 241Q388 266 323 297L244 334Q192 310 164.5 274.5Q137 239 137 195Z" glyph-name="eight.op" horiz-adv-x="577" /><glyph d="M125 -7Q95 -7 74 14.5Q53 36 53 67Q53 97 74 118Q95 139 125 139Q155 139 176 118Q197 97 197 67Q197 36 176 14.5Q155 -7 125 -7ZM388 -7Q358 -7 337 14.5Q316 36 316 67Q316 97 337 118Q358 139 388 139Q418 139 439 118Q460 97 460 67Q460 36 439 14.5Q418 -7 388 -7ZM652 -7Q622 -7 601 14.5Q580 36 580 67Q580 97 601 118Q622 139 652 139Q682 139 703 118Q724 97 724 67Q724 36 703 14.5Q682 -7 652 -7Z" glyph-name="ellipsis" horiz-adv-x="776" unicode="&#8230;" /><glyph d="M278 442Q223 442 185 406Q147 370 137 308H395V313Q395 372 364 407Q333 442 278 442ZM474 110V23Q437 6 397.5 -2.5Q358 -11 314 -11Q192 -11 114.5 64.5Q37 140 37 258Q37 372 106 448Q175 524 280 524Q382 524 438.5 458.5Q495 393 495 280Q495 265 495 257.5Q495 250 494 243H134Q140 167 192.5 121.5Q245 76 325 76Q373 76 405.5 84Q438 92 474 110ZM434 726V648H135V726Z" glyph-name="emacron" horiz-adv-x="532" unicode="&#275;" /><glyph d="M1029 240H70V324H1029Z" glyph-name="emdash" horiz-adv-x="1099" unicode="&#8212;" /><glyph d="M573 240H70V324H573Z" glyph-name="endash" horiz-adv-x="643" unicode="&#8211;" /><glyph d="M451 -228H342Q385 -171 404.5 -112Q424 -53 425 25V324Q425 381 399.5 407.5Q374 434 321 434Q284 434 251 424Q218 414 182 391V0H79V503L182 520V463Q219 491 264.5 507.5Q310 524 356 524Q438 524 483.5 478Q529 432 529 350V16Q527 -61 509.5 -117.5Q492 -174 451 -228Z" glyph-name="eng" horiz-adv-x="602" unicode="&#331;" /><glyph d="M278 442Q223 442 185 406Q147 370 137 308H395V313Q395 372 364 407Q333 442 278 442ZM434 -165V-231Q423 -235 412 -237Q401 -239 388 -239Q344 -239 315.5 -213.5Q287 -188 287 -145Q287 -109 303 -76Q319 -43 354 -8Q344 -9 334 -10Q324 -11 314 -11Q192 -11 114.5 64.5Q37 140 37 258Q37 372 106 448Q175 524 280 524Q382 524 438.5 458.5Q495 393 495 280Q495 265 495 257.5Q495 250 494 243H134Q140 167 192.5 121.5Q245 76 325 76Q373 76 405.5 84Q438 92 474 110V23Q421 -8 391 -47.5Q361 -87 361 -124Q361 -145 373 -158Q385 -171 403 -171Q414 -171 420 -169.5Q426 -168 434 -165Z" glyph-name="eogonek" horiz-adv-x="532" unicode="&#281;" /><glyph d="M555 402H46V481H555ZM555 186H46V266H555Z" glyph-name="equal" horiz-adv-x="601" unicode="=" /><glyph d="M535 296Q535 163 462.5 76Q390 -11 284 -11Q177 -11 106.5 64Q36 139 36 255Q36 370 108 443Q180 516 289 516Q319 516 346 509Q373 502 398 488Q383 525 360 557.5Q337 590 307 618L136 556V629L244 668Q206 692 163 712.5Q120 733 72 749L160 801Q213 781 258 756.5Q303 732 341 703L462 747V675L399 652Q467 582 501 492.5Q535 403 535 296ZM138 254Q138 174 178.5 126Q219 78 285 78Q352 78 392.5 137.5Q433 197 433 297Q433 325 431 351Q429 377 424 402Q401 419 371.5 427.5Q342 436 306 436Q232 436 185 386Q138 336 138 254Z" glyph-name="eth" horiz-adv-x="571" unicode="&#240;" /><glyph d="M194 700 160 239H97L63 700ZM128 -7Q98 -7 77 14.5Q56 36 56 67Q56 97 77 118Q98 139 128 139Q158 139 179.5 118Q201 97 201 67Q201 36 180 14.5Q159 -7 128 -7Z" glyph-name="exclam" horiz-adv-x="258" unicode="!" /><glyph d="M64 0 98 461H161L195 0ZM130 707Q160 707 181 685.5Q202 664 202 633Q202 603 181 582Q160 561 130 561Q100 561 78.5 582Q57 603 57 633Q57 664 78 685.5Q99 707 130 707Z" glyph-name="exclamdown" horiz-adv-x="258" unicode="&#161;" /><glyph d="M346 433H198V0H95V433H22V513H95V554Q95 669 158 735.5Q221 802 329 802Q351 802 369.5 799Q388 796 409 790V707Q392 712 377 714Q362 716 339 716Q270 716 234 675Q198 634 198 556V513H361Z" glyph-name="f" horiz-adv-x="349" unicode="f" /><glyph d="M687 524Q788 524 848.5 455.5Q909 387 909 272Q909 147 831 68Q753 -11 631 -11Q574 -11 523 0Q472 11 428 33V705Q413 710 398 712.5Q383 715 364 715Q287 715 242.5 668.5Q198 622 198 540V513H348L332 433H198V0H95V433H22V513H95V540Q95 655 172.5 728.5Q250 802 370 802Q409 802 451.5 794.5Q494 787 532 773V464Q562 491 603.5 507.5Q645 524 687 524ZM661 436Q626 436 590.5 423.5Q555 411 532 391V93Q553 84 578 79.5Q603 75 630 75Q709 75 756.5 127.5Q804 180 804 268Q804 346 765.5 391Q727 436 661 436Z" glyph-name="f_b" horiz-adv-x="944" /><glyph d="M1021 524Q1122 524 1182.5 455.5Q1243 387 1243 272Q1243 147 1165 68Q1087 -11 965 -11Q908 -11 857 0Q806 11 762 33V705Q747 710 732 712.5Q717 715 698 715Q621 715 576.5 668.5Q532 622 532 540V513H682L666 433H532V0H429V433H198V0H95V433H22V513H95V537Q95 651 155 717.5Q215 784 317 784Q339 784 355.5 781.5Q372 779 391 773V691Q379 695 367 696.5Q355 698 332 698Q267 698 232.5 657Q198 616 198 539V513H429V540Q429 655 506.5 728.5Q584 802 704 802Q743 802 785.5 794.5Q828 787 866 773V464Q896 491 937.5 507.5Q979 524 1021 524ZM995 436Q960 436 924.5 423.5Q889 411 866 391V93Q887 84 912 79.5Q937 75 964 75Q1043 75 1090.5 127.5Q1138 180 1138 268Q1138 346 1099.5 391Q1061 436 995 436Z" glyph-name="f_f_b" horiz-adv-x="1277" /><glyph d="M198 433V0H95V433H22V513H95V537Q95 651 155 717.5Q215 784 317 784Q339 784 355.5 781.5Q372 779 391 773V691Q379 695 367 696.5Q355 698 332 698Q267 698 232.5 657Q198 616 198 539V513H429V540Q429 655 506.5 728.5Q584 802 704 802Q743 802 785.5 794.5Q828 787 866 773V463Q901 491 947.5 507.5Q994 524 1040 524Q1122 524 1167 478Q1212 432 1212 350V0H1108V324Q1108 381 1083 407.5Q1058 434 1004 434Q967 434 934 424Q901 414 866 391V0H762V705Q747 710 732 712.5Q717 715 698 715Q621 715 576.5 668.5Q532 622 532 540V513H682L666 433H532V0H429V433Z" glyph-name="f_f_h" horiz-adv-x="1284" /><glyph d="M909 643Q883 643 865.5 660.5Q848 678 848 704Q848 729 865.5 746.5Q883 764 909 764Q935 764 953 746.5Q971 729 971 704Q971 678 953.5 660.5Q936 643 909 643ZM198 433V0H95V433H22V513H95V537Q95 651 155 717.5Q215 784 317 784Q339 784 355.5 781.5Q372 779 391 773V691Q379 695 367 696.5Q355 698 332 698Q267 698 232.5 657Q198 616 198 539V513H429V554Q429 669 492 735.5Q555 802 663 802Q685 802 703.5 799Q722 796 743 790V707Q726 712 711 714Q696 716 673 716Q604 716 568 675Q532 634 532 556V513H762L866 524V0H762V433H532V0H429V433Z" glyph-name="f_f_idieresis" horiz-adv-x="944" /><glyph d="M866 524V16Q865 -60 847.5 -116.5Q830 -173 788 -228H680Q723 -171 742 -112Q761 -53 762 25V433H532V0H429V433H198V0H95V433H22V513H95V537Q95 651 155 717.5Q215 784 317 784Q339 784 355.5 781.5Q372 779 391 773V691Q379 695 367 696.5Q355 698 332 698Q267 698 232.5 657Q198 616 198 539V513H429V532Q429 656 499.5 729Q570 802 689 802Q717 802 742.5 797.5Q768 793 786 785V701Q766 709 744.5 712.5Q723 716 695 716Q616 716 574 670Q532 624 532 537V513H762Z" glyph-name="f_f_j" horiz-adv-x="944" /><glyph d="M198 433V0H95V433H22V513H95V537Q95 651 155 717.5Q215 784 317 784Q339 784 355.5 781.5Q372 779 391 773V691Q379 695 367 696.5Q355 698 332 698Q267 698 232.5 657Q198 616 198 539V513H429V540Q429 655 506.5 728.5Q584 802 704 802Q743 802 785.5 794.5Q828 787 866 773V283L1096 513H1220L980 278L1251 0H1120L866 259V0H762V705Q747 710 732 712.5Q717 715 698 715Q621 715 576.5 668.5Q532 622 532 540V513H682L666 433H532V0H429V433Z" glyph-name="f_f_k" horiz-adv-x="1253" /><glyph d="M198 433V0H95V433H22V513H95V537Q95 651 155 717.5Q215 784 317 784Q339 784 355.5 781.5Q372 779 391 773V691Q379 695 367 696.5Q355 698 332 698Q267 698 232.5 657Q198 616 198 539V513H429V557Q429 669 487.5 735.5Q546 802 643 802Q659 802 671.5 800Q684 798 694 795V712Q686 714 677.5 715Q669 716 658 716Q596 716 564 675.5Q532 635 532 557V513H695L680 433H532V0H429V433Z" glyph-name="f_f_short" horiz-adv-x="683" /><glyph d="M332 433H198V0H95V433H22V513H95V540Q95 655 172.5 728.5Q250 802 370 802Q409 802 451.5 794.5Q494 787 532 773V463Q567 491 613.5 507.5Q660 524 706 524Q788 524 833 478Q878 432 878 350V0H774V324Q774 381 749 407.5Q724 434 670 434Q633 434 600 424Q567 414 532 391V0H428V705Q413 710 398 712.5Q383 715 364 715Q287 715 242.5 668.5Q198 622 198 540V513H348Z" glyph-name="f_h" horiz-adv-x="950" /><glyph d="M575 643Q549 643 531.5 660.5Q514 678 514 704Q514 729 531.5 746.5Q549 764 575 764Q601 764 619 746.5Q637 729 637 704Q637 678 619.5 660.5Q602 643 575 643ZM198 433V0H95V433H22V513H95V554Q95 669 158 735.5Q221 802 329 802Q351 802 369.5 799Q388 796 409 790V707Q392 712 377 714Q362 716 339 716Q270 716 234 675Q198 634 198 556V513H428L532 524V0H428V433Z" glyph-name="f_idieresis" horiz-adv-x="611" /><glyph d="M532 524V16Q531 -60 513.5 -116.5Q496 -173 454 -228H346Q389 -171 408 -112Q427 -53 428 25V433H198V0H95V433H22V513H95V532Q95 656 165.5 729Q236 802 355 802Q383 802 408.5 797.5Q434 793 452 785V701Q432 709 410.5 712.5Q389 716 361 716Q282 716 240 670Q198 624 198 537V513H428Z" glyph-name="f_j" horiz-adv-x="611" /><glyph d="M332 433H198V0H95V433H22V513H95V540Q95 655 172.5 728.5Q250 802 370 802Q409 802 451.5 794.5Q494 787 532 773V283L762 513H886L646 278L917 0H786L532 259V0H428V705Q413 710 398 712.5Q383 715 364 715Q287 715 242.5 668.5Q198 622 198 540V513H348Z" glyph-name="f_k" horiz-adv-x="920" /><glyph d="M346 433H198V0H95V433H22V513H95V557Q95 669 153.5 735.5Q212 802 309 802Q325 802 337.5 800Q350 798 360 795V712Q352 714 343.5 715Q335 716 324 716Q262 716 230 675.5Q198 635 198 557V513H361Z" glyph-name="f_short" horiz-adv-x="349" /><glyph d="M198 433V0H95V433H22V513H95V537Q95 651 155 717.5Q215 784 317 784Q339 784 355.5 781.5Q372 779 391 773V691Q379 695 367 696.5Q355 698 332 698Q267 698 232.5 657Q198 616 198 539V513H429V554Q429 669 492 735.5Q555 802 663 802Q685 802 703.5 799Q722 796 743 790V707Q726 712 711 714Q696 716 673 716Q604 716 568 675Q532 634 532 556V513H695L680 433H532V0H429V433Z" glyph-name="ff" horiz-adv-x="683" unicode="&#64256;" /><glyph d="M198 433V0H95V433H22V513H95V537Q95 651 155 717.5Q215 784 317 784Q339 784 355.5 781.5Q372 779 391 773V691Q379 695 367 696.5Q355 698 332 698Q267 698 232.5 657Q198 616 198 539V513H429V532Q429 656 499.5 729Q570 802 689 802Q717 802 742.5 797.5Q768 793 786 785V701Q766 709 744.5 712.5Q723 716 695 716Q616 716 574 670Q532 624 532 537V513H762L866 524V0H762V433H532V0H429V433Z" glyph-name="ffi" horiz-adv-x="944" unicode="&#64259;" /><glyph d="M198 433V0H95V433H22V513H95V537Q95 651 155 717.5Q215 784 317 784Q339 784 355.5 781.5Q372 779 391 773V691Q379 695 367 696.5Q355 698 332 698Q267 698 232.5 657Q198 616 198 539V513H429V540Q429 655 506.5 728.5Q584 802 704 802Q743 802 785.5 794.5Q828 787 866 773V0H762V705Q747 710 732 712.5Q717 715 698 715Q621 715 576.5 668.5Q532 622 532 540V513H682L666 433H532V0H429V433Z" glyph-name="ffl" horiz-adv-x="944" unicode="&#64260;" /><glyph d="M198 433V0H95V433H22V513H95V532Q95 656 165.5 729Q236 802 355 802Q383 802 408.5 797.5Q434 793 452 785V701Q432 709 410.5 712.5Q389 716 361 716Q282 716 240 670Q198 624 198 537V513H428L532 524V0H428V433Z" glyph-name="fi" horiz-adv-x="611" unicode="&#64257;" /><glyph d="M199 82Q284 82 335 121Q386 160 386 225Q386 299 318.5 339.5Q251 380 96 395L122 700H469V606H200L191 470Q334 453 413.5 391.5Q493 330 493 232Q493 126 411 57.5Q329 -11 207 -11Q152 -11 104.5 1.5Q57 14 17 39V136Q55 109 101 95.5Q147 82 199 82Z" glyph-name="five" horiz-adv-x="534" unicode="5" /><glyph d="M186 -44Q272 -44 324.5 -4Q377 36 377 102Q377 178 307.5 219.5Q238 261 83 275L110 580H457V490H187L178 348Q321 331 400.5 269.5Q480 208 480 110Q480 4 398 -64.5Q316 -133 194 -133Q139 -133 91.5 -120.5Q44 -108 5 -83V10Q42 -16 88.5 -30Q135 -44 186 -44Z" glyph-name="five.op" horiz-adv-x="524" /><glyph d="M428 0V705Q413 710 398 712.5Q383 715 364 715Q287 715 242.5 668.5Q198 622 198 540V513H348L332 433H198V0H95V433H22V513H95V540Q95 655 172.5 728.5Q250 802 370 802Q409 802 451.5 794.5Q494 787 532 773V0Z" glyph-name="fl" horiz-adv-x="606" unicode="&#64258;" /><glyph d="M442 183V0H346V183H27V253Q62 358 137.5 489.5Q213 621 285 700H408Q331 619 259.5 502.5Q188 386 139 266H346V440H442V266H598V183Z" glyph-name="four" horiz-adv-x="619" unicode="4" /><glyph d="M430 69V-122H334V69H27V135Q62 239 137 370Q212 501 285 580H405Q327 498 254.5 382Q182 266 135 149H334V320H430V149H582V69Z" glyph-name="four.op" horiz-adv-x="604" /><glyph d="M248 244Q296 244 327.5 273Q359 302 359 348Q359 396 328 424.5Q297 453 248 453Q199 453 168 424.5Q137 396 137 348Q137 302 168.5 273Q200 244 248 244ZM520 -56Q520 -138 440 -188.5Q360 -239 237 -239Q132 -239 64 -198Q-4 -157 -4 -91Q-4 -46 32 -11Q68 24 126 39Q115 52 108.5 67.5Q102 83 102 98Q102 123 118.5 145.5Q135 168 166 185Q106 205 71.5 248.5Q37 292 37 348Q37 425 97 474.5Q157 524 248 524Q267 524 285.5 521Q304 518 321 513H531L519 442H423Q438 421 446 397.5Q454 374 454 348Q454 270 396.5 221.5Q339 173 248 173Q241 173 237 173Q233 173 230 174Q208 162 197.5 151Q187 140 187 128Q187 114 199 105.5Q211 97 234 94L347 79Q438 65 479 32.5Q520 0 520 -56ZM94 -78Q94 -118 135.5 -141Q177 -164 248 -164Q321 -164 370 -138.5Q419 -113 419 -72Q419 -47 400 -33Q381 -19 331 -12L187 11Q143 -1 118.5 -24.5Q94 -48 94 -78Z" glyph-name="g" horiz-adv-x="536" unicode="g" /><glyph d="M248 244Q296 244 327.5 273Q359 302 359 348Q359 396 328 424.5Q297 453 248 453Q199 453 168 424.5Q137 396 137 348Q137 302 168.5 273Q200 244 248 244ZM520 -56Q520 -138 440 -188.5Q360 -239 237 -239Q132 -239 64 -198Q-4 -157 -4 -91Q-4 -46 32 -11Q68 24 126 39Q115 52 108.5 67.5Q102 83 102 98Q102 123 118.5 145.5Q135 168 166 185Q106 205 71.5 248.5Q37 292 37 348Q37 425 97 474.5Q157 524 248 524Q267 524 285.5 521Q304 518 321 513H531L519 442H423Q438 421 446 397.5Q454 374 454 348Q454 270 396.5 221.5Q339 173 248 173Q241 173 237 173Q233 173 230 174Q208 162 197.5 151Q187 140 187 128Q187 114 199 105.5Q211 97 234 94L347 79Q438 65 479 32.5Q520 0 520 -56ZM94 -78Q94 -118 135.5 -141Q177 -164 248 -164Q321 -164 370 -138.5Q419 -113 419 -72Q419 -47 400 -33Q381 -19 331 -12L187 11Q143 -1 118.5 -24.5Q94 -48 94 -78ZM263 604Q195 604 154 655.5Q113 707 113 791H181Q183 739 204.5 709.5Q226 680 263 680Q301 680 322.5 709Q344 738 346 791H415Q415 706 373.5 655Q332 604 263 604Z" glyph-name="gbreve" horiz-adv-x="536" unicode="&#287;" /><glyph d="M248 244Q296 244 327.5 273Q359 302 359 348Q359 396 328 424.5Q297 453 248 453Q199 453 168 424.5Q137 396 137 348Q137 302 168.5 273Q200 244 248 244ZM520 -56Q520 -138 440 -188.5Q360 -239 237 -239Q132 -239 64 -198Q-4 -157 -4 -91Q-4 -46 32 -11Q68 24 126 39Q115 52 108.5 67.5Q102 83 102 98Q102 123 118.5 145.5Q135 168 166 185Q106 205 71.5 248.5Q37 292 37 348Q37 425 97 474.5Q157 524 248 524Q267 524 285.5 521Q304 518 321 513H531L519 442H423Q438 421 446 397.5Q454 374 454 348Q454 270 396.5 221.5Q339 173 248 173Q241 173 237 173Q233 173 230 174Q208 162 197.5 151Q187 140 187 128Q187 114 199 105.5Q211 97 234 94L347 79Q438 65 479 32.5Q520 0 520 -56ZM94 -78Q94 -118 135.5 -141Q177 -164 248 -164Q321 -164 370 -138.5Q419 -113 419 -72Q419 -47 400 -33Q381 -19 331 -12L187 11Q143 -1 118.5 -24.5Q94 -48 94 -78ZM109 604 215 791H313L419 604H350L263 716L177 604Z" glyph-name="gcircumflex" horiz-adv-x="536" unicode="&#285;" /><glyph d="M248 244Q296 244 327.5 273Q359 302 359 348Q359 396 328 424.5Q297 453 248 453Q199 453 168 424.5Q137 396 137 348Q137 302 168.5 273Q200 244 248 244ZM520 -56Q520 -138 440 -188.5Q360 -239 237 -239Q132 -239 64 -198Q-4 -157 -4 -91Q-4 -46 32 -11Q68 24 126 39Q115 52 108.5 67.5Q102 83 102 98Q102 123 118.5 145.5Q135 168 166 185Q106 205 71.5 248.5Q37 292 37 348Q37 425 97 474.5Q157 524 248 524Q267 524 285.5 521Q304 518 321 513H531L519 442H423Q438 421 446 397.5Q454 374 454 348Q454 270 396.5 221.5Q339 173 248 173Q241 173 237 173Q233 173 230 174Q208 162 197.5 151Q187 140 187 128Q187 114 199 105.5Q211 97 234 94L347 79Q438 65 479 32.5Q520 0 520 -56ZM94 -78Q94 -118 135.5 -141Q177 -164 248 -164Q321 -164 370 -138.5Q419 -113 419 -72Q419 -47 400 -33Q381 -19 331 -12L187 11Q143 -1 118.5 -24.5Q94 -48 94 -78ZM263 638Q235 638 216.5 656.5Q198 675 198 703Q198 731 216.5 749.5Q235 768 263 768Q292 768 310.5 749.5Q329 731 329 703Q329 675 310.5 656.5Q292 638 263 638Z" glyph-name="gdotaccent" horiz-adv-x="536" unicode="&#289;" /><glyph d="M338 803Q439 803 499.5 749Q560 695 564 607Q472 545 438 508Q404 471 404 435Q404 413 420 392.5Q436 372 490 333Q567 279 592 239.5Q617 200 617 153Q617 82 559 35.5Q501 -11 416 -11Q377 -11 339 -2.5Q301 6 269 22V114Q303 93 339.5 82Q376 71 415 71Q462 71 491.5 91Q521 111 521 144Q521 169 503.5 193Q486 217 428 259Q355 312 332 347Q309 382 309 423Q309 466 336 507.5Q363 549 452 623Q450 664 418 691.5Q386 719 336 719Q268 719 228 672.5Q188 626 188 545V0H85V546Q85 664 154.5 733.5Q224 803 338 803Z" glyph-name="germandbls" horiz-adv-x="653" unicode="&#223;" /><glyph d="M292 791 359 604H293L164 791Z" glyph-name="grave" horiz-adv-x="530" unicode="`" /><glyph d="M281 927 403 771H316L126 927Z" glyph-name="grave.cap" horiz-adv-x="530" /><glyph d="M76 207 464 343 76 479V574L559 392V293L76 111Z" glyph-name="greater" horiz-adv-x="601" unicode="&gt;" /><glyph d="M508 463 388 253 508 45H431L264 253L431 463ZM287 463 167 253 287 45H210L43 253L210 463Z" glyph-name="guillemotleft" horiz-adv-x="551" unicode="&#171;" /><glyph d="M120 45H43L163 253L43 463H120L287 253ZM341 45H264L384 253L264 463H341L508 253Z" glyph-name="guillemotright" horiz-adv-x="551" unicode="&#187;" /><glyph d="M287 463 167 253 287 45H210L43 253L210 463Z" glyph-name="guilsinglleft" horiz-adv-x="330" unicode="&#8249;" /><glyph d="M120 45H43L163 253L43 463H120L287 253Z" glyph-name="guilsinglright" horiz-adv-x="330" unicode="&#8250;" /><glyph d="M79 0V787L182 802V463Q219 491 264.5 507.5Q310 524 356 524Q438 524 483.5 478Q529 432 529 350V0H425V324Q425 381 399.5 407.5Q374 434 321 434Q284 434 251 424Q218 414 182 391V0Z" glyph-name="h" horiz-adv-x="602" unicode="h" /><glyph d="M324 434Q287 434 254 424Q221 414 185 391V0H82V614H4V684H82V787L185 802V684H342V614H185V463Q222 491 267.5 507.5Q313 524 359 524Q441 524 486.5 478Q532 432 532 350V0H428V324Q428 381 402.5 407.5Q377 434 324 434Z" glyph-name="hbar" horiz-adv-x="605" unicode="&#295;" /><glyph d="M79 0V787L182 802V463Q219 491 264.5 507.5Q310 524 356 524Q438 524 483.5 478Q529 432 529 350V0H425V324Q425 381 399.5 407.5Q374 434 321 434Q284 434 251 424Q218 414 182 391V0ZM140 833 272 989H370L501 833H425L320 919L216 833Z" glyph-name="hcircumflex" horiz-adv-x="602" unicode="&#293;" /><glyph d="M147 604H84L151 791H265ZM328 604H265L332 791H446Z" glyph-name="hungarumlaut" horiz-adv-x="530" unicode="&#733;" /><glyph d="M132 771H61L167 927H289ZM319 771H247L354 927H475Z" glyph-name="hungarumlaut.cap" horiz-adv-x="530" /><glyph d="M337 236H70V324H337Z" glyph-name="hyphen" horiz-adv-x="407" unicode="-" /><glyph d="M131 638Q103 638 84 657Q65 676 65 703Q65 730 84 749Q103 768 131 768Q159 768 178 749Q197 730 197 703Q197 676 178 657Q159 638 131 638ZM182 0H79V503L182 520Z" glyph-name="i" horiz-adv-x="261" unicode="i" /><glyph d="M182 0H79V503L182 520ZM287 791 156 604H91L159 791Z" glyph-name="iacute" horiz-adv-x="261" unicode="&#237;" /><glyph d="M182 0H79V503L182 520ZM130 604Q62 604 21 655.5Q-20 707 -20 791H48Q50 739 71.5 709.5Q93 680 130 680Q168 680 189.5 709Q211 738 213 791H282Q282 706 240.5 655Q199 604 130 604Z" glyph-name="ibreve" horiz-adv-x="261" unicode="&#301;" /><glyph d="M182 0H79V503L182 520ZM-24 604 82 791H180L286 604H217L130 716L44 604Z" glyph-name="icircumflex" horiz-adv-x="261" unicode="&#238;" /><glyph d="M182 0H79V503L182 520ZM226 643Q199 643 181.5 660.5Q164 678 164 704Q164 729 182 746.5Q200 764 226 764Q252 764 270 746.5Q288 729 288 704Q288 678 270 660.5Q252 643 226 643ZM36 643Q9 643 -9 660.5Q-27 678 -27 704Q-27 729 -9 746.5Q9 764 36 764Q62 764 79.5 746.5Q97 729 97 704Q97 678 79.5 660.5Q62 643 36 643Z" glyph-name="idieresis" horiz-adv-x="261" unicode="&#239;" /><glyph d="M182 0H79V503L182 520ZM130 638Q102 638 83.5 656.5Q65 675 65 703Q65 731 83.5 749.5Q102 768 130 768Q159 768 177.5 749.5Q196 731 196 703Q196 675 177.5 656.5Q159 638 130 638Z" glyph-name="idotaccent" horiz-adv-x="261" /><glyph d="M182 0H79V503L182 520ZM103 791 170 604H104L-25 791Z" glyph-name="igrave" horiz-adv-x="261" unicode="&#236;" /><glyph d="M182 0H79V503L182 520ZM280 726V648H-19V726Z" glyph-name="imacron" horiz-adv-x="261" unicode="&#299;" /><glyph d="M131 638Q103 638 84 657Q65 676 65 703Q65 730 84 749Q103 768 131 768Q159 768 178 749Q197 730 197 703Q197 676 178 657Q159 638 131 638ZM105 0H79V503L182 520V0Q143 -27 122 -59Q101 -91 101 -124Q101 -145 113.5 -158Q126 -171 145 -171Q155 -171 161.5 -169.5Q168 -168 175 -165V-231Q163 -235 152.5 -237Q142 -239 129 -239Q85 -239 56.5 -213.5Q28 -188 28 -145Q28 -106 46.5 -71.5Q65 -37 105 0Z" glyph-name="iogonek" horiz-adv-x="261" unicode="&#303;" /><glyph d="M182 0H79V503L182 520ZM197 617Q181 617 164.5 627Q148 637 119 667Q95 693 83 700.5Q71 708 60 708Q41 708 30.5 689.5Q20 671 14 620H-49Q-47 696 -16 744Q15 792 65 792Q81 792 97 782.5Q113 773 142 743Q166 717 178 709.5Q190 702 201 702Q220 702 230.5 720.5Q241 739 247 790H310Q308 713 277.5 665Q247 617 197 617Z" glyph-name="itilde" horiz-adv-x="261" unicode="&#297;" /><glyph d="M131 638Q103 638 84 657Q65 676 65 703Q65 730 84 749Q103 768 131 768Q159 768 178 749Q197 730 197 703Q197 676 178 657Q159 638 131 638ZM182 520V16Q181 -61 163.5 -117Q146 -173 105 -228H-4Q39 -172 58 -113Q77 -54 79 25V503Z" glyph-name="j" horiz-adv-x="261" unicode="j" /><glyph d="M182 520V16Q181 -61 163.5 -117Q146 -173 105 -228H-4Q39 -172 58 -113Q77 -54 79 25V503ZM-24 604 82 791H180L286 604H217L130 716L44 604Z" glyph-name="jcircumflex" horiz-adv-x="261" unicode="&#309;" /><glyph d="M567 0H438L182 259V0H79V787L182 802V283L413 513H536L296 278Z" glyph-name="k" horiz-adv-x="570" unicode="k" /><glyph d="M567 0H438L182 259V0H79V507L182 522V283L414 513H536L294 277Z" glyph-name="kgreenlandic" horiz-adv-x="570" unicode="&#312;" /><glyph d="M182 0H79V787L182 802Z" glyph-name="l" horiz-adv-x="261" unicode="l" /><glyph d="M182 0H79V787L182 802ZM362 989 172 833H85L207 989Z" glyph-name="lacute" horiz-adv-x="261" unicode="&#314;" /><glyph d="M182 0H79V787L182 802ZM318 543H255L282 791H394Z" glyph-name="lcaron" horiz-adv-x="375" unicode="&#318;" /><glyph d="M182 0H79V787L182 802ZM336 322Q308 322 289.5 340.5Q271 359 271 387Q271 415 289.5 433.5Q308 452 336 452Q365 452 383.5 433.5Q402 415 402 387Q402 359 383.5 340.5Q365 322 336 322Z" glyph-name="ldot" horiz-adv-x="399" unicode="&#320;" /><glyph d="M542 111 59 293V392L542 574V479L154 343L542 207Z" glyph-name="less" horiz-adv-x="601" unicode="&lt;" /><glyph d="M200 376V0H97V320L6 263V352L97 409V787L200 802V465L296 524V436Z" glyph-name="lslash" horiz-adv-x="302" unicode="&#322;" /><glyph d="M182 391V0H79V503L182 520V464Q213 490 258.5 507Q304 524 348 524Q396 524 432 505.5Q468 487 489 452Q527 485 577.5 504.5Q628 524 678 524Q756 524 800 477.5Q844 431 844 350V0H741V324Q741 381 717 407.5Q693 434 643 434Q608 434 575.5 423Q543 412 510 388Q511 379 512 369.5Q513 360 513 350V0H410V324Q410 381 386 407.5Q362 434 312 434Q277 434 246 423.5Q215 413 182 391Z" glyph-name="m" horiz-adv-x="917" unicode="m" /><glyph d="M414 726V648H115V726Z" glyph-name="macron" horiz-adv-x="530" unicode="&#175;" /><glyph d="M430 873V794H100V873Z" glyph-name="macron.cap" horiz-adv-x="530" /><glyph d="M555 295H46V375H555Z" glyph-name="minus" horiz-adv-x="601" unicode="&#8722;" /><glyph d="M534 151 478 95 301 273 123 95 67 151 245 329 67 506 123 562 301 385 478 562 534 506 357 329Z" glyph-name="multiply" horiz-adv-x="601" unicode="&#215;" /><glyph d="M79 0V503L182 520V463Q219 491 264.5 507.5Q310 524 356 524Q438 524 483.5 478Q529 432 529 350V0H425V324Q425 381 399.5 407.5Q374 434 321 434Q284 434 251 424Q218 414 182 391V0Z" glyph-name="n" horiz-adv-x="602" unicode="n" /><glyph d="M79 0V503L182 520V463Q219 491 264.5 507.5Q310 524 356 524Q438 524 483.5 478Q529 432 529 350V0H425V324Q425 381 399.5 407.5Q374 434 321 434Q284 434 251 424Q218 414 182 391V0ZM467 791 336 604H271L339 791Z" glyph-name="nacute" horiz-adv-x="602" unicode="&#324;" /><glyph d="M79 0V503L182 520V463Q219 491 264.5 507.5Q310 524 356 524Q438 524 483.5 478Q529 432 529 350V0H425V324Q425 381 399.5 407.5Q374 434 321 434Q284 434 251 424Q218 414 182 391V0ZM466 791 360 604H262L156 791H224L310 678L397 791Z" glyph-name="ncaron" horiz-adv-x="602" unicode="&#328;" /><glyph d="M259 272Q164 272 101.5 330Q39 388 39 480Q39 581 107.5 646Q176 711 279 711Q395 711 471.5 619.5Q548 528 548 387Q548 211 444 100Q340 -11 176 -11Q142 -11 111.5 -6Q81 -1 59 9V96Q85 87 114.5 83Q144 79 176 79Q294 79 366.5 157Q439 235 444 370Q413 326 362.5 299Q312 272 259 272ZM441 441Q430 527 386 576Q342 625 279 625Q216 625 178.5 588Q141 551 141 488Q141 428 180 391Q219 354 282 354Q326 354 368 377.5Q410 401 441 441Z" glyph-name="nine" horiz-adv-x="587" unicode="9" /><glyph d="M259 152Q164 152 101.5 210Q39 268 39 360Q39 461 107.5 526Q176 591 279 591Q395 591 471.5 499.5Q548 408 548 267Q548 91 444 -20Q340 -131 176 -131Q142 -131 109.5 -125Q77 -119 54 -109V-25Q78 -34 109 -39Q140 -44 176 -44Q295 -44 369 37Q443 118 447 255Q417 209 365 180.5Q313 152 259 152ZM443 322Q432 407 387 456.5Q342 506 278 506Q215 506 177 468.5Q139 431 139 368Q139 307 178 269.5Q217 232 281 232Q327 232 370 256Q413 280 443 322Z" glyph-name="nine.op" horiz-adv-x="587" /><glyph d="M79 0V503L182 520V463Q219 491 264.5 507.5Q310 524 356 524Q438 524 483.5 478Q529 432 529 350V0H425V324Q425 381 399.5 407.5Q374 434 321 434Q284 434 251 424Q218 414 182 391V0ZM374 617Q358 617 341.5 627Q325 637 296 667Q272 693 260 700.5Q248 708 237 708Q218 708 207.5 689.5Q197 671 191 620H128Q130 696 161 744Q192 792 242 792Q258 792 274 782.5Q290 773 319 743Q343 717 355 709.5Q367 702 378 702Q397 702 407.5 720.5Q418 739 424 790H487Q485 713 454.5 665Q424 617 374 617Z" glyph-name="ntilde" horiz-adv-x="602" unicode="&#241;" /><glyph d="M290 286H425L450 424H315ZM465 55H384L412 211H277L249 55H167L195 211H52L64 286H208L233 424H80L91 499H246L273 650H355L328 499H463L490 650H572L545 499H686L675 424H531L507 286H660L648 211H493Z" glyph-name="numbersign" horiz-adv-x="738" unicode="#" /><glyph d="M285 -11Q180 -11 108 65Q36 141 36 256Q36 372 108 448Q180 524 285 524Q391 524 463 448Q535 372 535 256Q535 141 463 65Q391 -11 285 -11ZM285 78Q351 78 392 127.5Q433 177 433 256Q433 336 392 385.5Q351 435 285 435Q219 435 178.5 385.5Q138 336 138 256Q138 177 178.5 127.5Q219 78 285 78Z" glyph-name="o" horiz-adv-x="571" unicode="o" /><glyph d="M285 -11Q180 -11 108 65Q36 141 36 256Q36 372 108 448Q180 524 285 524Q391 524 463 448Q535 372 535 256Q535 141 463 65Q391 -11 285 -11ZM285 78Q351 78 392 127.5Q433 177 433 256Q433 336 392 385.5Q351 435 285 435Q219 435 178.5 385.5Q138 336 138 256Q138 177 178.5 127.5Q219 78 285 78ZM441 791 310 604H245L313 791Z" glyph-name="oacute" horiz-adv-x="571" unicode="&#243;" /><glyph d="M285 -11Q180 -11 108 65Q36 141 36 256Q36 372 108 448Q180 524 285 524Q391 524 463 448Q535 372 535 256Q535 141 463 65Q391 -11 285 -11ZM285 78Q351 78 392 127.5Q433 177 433 256Q433 336 392 385.5Q351 435 285 435Q219 435 178.5 385.5Q138 336 138 256Q138 177 178.5 127.5Q219 78 285 78ZM285 604Q217 604 176 655.5Q135 707 135 791H203Q205 739 226.5 709.5Q248 680 285 680Q323 680 344.5 709Q366 738 368 791H437Q437 706 395.5 655Q354 604 285 604Z" glyph-name="obreve" horiz-adv-x="571" unicode="&#335;" /><glyph d="M285 -11Q180 -11 108 65Q36 141 36 256Q36 372 108 448Q180 524 285 524Q391 524 463 448Q535 372 535 256Q535 141 463 65Q391 -11 285 -11ZM285 78Q351 78 392 127.5Q433 177 433 256Q433 336 392 385.5Q351 435 285 435Q219 435 178.5 385.5Q138 336 138 256Q138 177 178.5 127.5Q219 78 285 78ZM131 604 237 791H335L441 604H372L285 716L199 604Z" glyph-name="ocircumflex" horiz-adv-x="571" unicode="&#244;" /><glyph d="M285 -11Q180 -11 108 65Q36 141 36 256Q36 372 108 448Q180 524 285 524Q391 524 463 448Q535 372 535 256Q535 141 463 65Q391 -11 285 -11ZM285 78Q351 78 392 127.5Q433 177 433 256Q433 336 392 385.5Q351 435 285 435Q219 435 178.5 385.5Q138 336 138 256Q138 177 178.5 127.5Q219 78 285 78ZM381 643Q354 643 336.5 660.5Q319 678 319 704Q319 729 337 746.5Q355 764 381 764Q407 764 425 746.5Q443 729 443 704Q443 678 425 660.5Q407 643 381 643ZM191 643Q164 643 146 660.5Q128 678 128 704Q128 729 146 746.5Q164 764 191 764Q217 764 234.5 746.5Q252 729 252 704Q252 678 234.5 660.5Q217 643 191 643Z" glyph-name="odieresis" horiz-adv-x="571" unicode="&#246;" /><glyph d="M671 442Q617 442 580 407Q543 372 533 311H787Q787 372 756.5 407Q726 442 671 442ZM285 78Q352 78 393 127.5Q434 177 434 257Q434 337 393 386Q352 435 285 435Q219 435 178.5 386Q138 337 138 257Q138 177 178.5 127.5Q219 78 285 78ZM867 110V23Q830 6 791 -2.5Q752 -11 708 -11Q639 -11 581 18.5Q523 48 484 103Q450 50 397.5 19.5Q345 -11 285 -11Q180 -11 108 65Q36 141 36 257Q36 372 107.5 448Q179 524 285 524Q344 524 395.5 495Q447 466 481 415Q515 467 564.5 495.5Q614 524 672 524Q783 524 840 447.5Q897 371 887 243H530Q537 167 588.5 121.5Q640 76 719 76Q766 76 799 84Q832 92 867 110Z" glyph-name="oe" horiz-adv-x="924" unicode="&#339;" /><glyph d="M226 -145Q226 -98 254 -55.5Q282 -13 348 37L377 7Q336 -33 317.5 -64Q299 -95 299 -124Q299 -145 311.5 -158Q324 -171 343 -171Q353 -171 359.5 -169.5Q366 -168 373 -165V-231Q361 -235 350.5 -237Q340 -239 327 -239Q283 -239 254.5 -213.5Q226 -188 226 -145Z" glyph-name="ogonek" horiz-adv-x="530" unicode="&#731;" /><glyph d="M285 -11Q180 -11 108 65Q36 141 36 256Q36 372 108 448Q180 524 285 524Q391 524 463 448Q535 372 535 256Q535 141 463 65Q391 -11 285 -11ZM285 78Q351 78 392 127.5Q433 177 433 256Q433 336 392 385.5Q351 435 285 435Q219 435 178.5 385.5Q138 336 138 256Q138 177 178.5 127.5Q219 78 285 78ZM258 791 325 604H259L130 791Z" glyph-name="ograve" horiz-adv-x="571" unicode="&#242;" /><glyph d="M285 -11Q180 -11 108 65Q36 141 36 256Q36 372 108 448Q180 524 285 524Q391 524 463 448Q535 372 535 256Q535 141 463 65Q391 -11 285 -11ZM285 78Q351 78 392 127.5Q433 177 433 256Q433 336 392 385.5Q351 435 285 435Q219 435 178.5 385.5Q138 336 138 256Q138 177 178.5 127.5Q219 78 285 78ZM220 604H157L224 791H338ZM401 604H338L405 791H519Z" glyph-name="ohungarumlaut" horiz-adv-x="571" unicode="&#337;" /><glyph d="M285 -11Q180 -11 108 65Q36 141 36 256Q36 372 108 448Q180 524 285 524Q391 524 463 448Q535 372 535 256Q535 141 463 65Q391 -11 285 -11ZM285 78Q351 78 392 127.5Q433 177 433 256Q433 336 392 385.5Q351 435 285 435Q219 435 178.5 385.5Q138 336 138 256Q138 177 178.5 127.5Q219 78 285 78ZM435 726V648H136V726Z" glyph-name="omacron" horiz-adv-x="571" unicode="&#333;" /><glyph d="M312 711V0H205V586L27 523V612L262 711Z" glyph-name="one" horiz-adv-x="413" unicode="1" /><glyph d="M311 585V0H207V463L35 402V487L263 585Z" glyph-name="one.op" horiz-adv-x="415" /><glyph d="M178 707V337H100V616L10 587V653L146 707Z" glyph-name="onesuperior" horiz-adv-x="235" unicode="&#185;" /><glyph d="M117 458Q117 440 130.5 429Q144 418 167 418Q188 418 204 424Q220 430 241 446V518Q172 515 144.5 501Q117 487 117 458ZM326 368H247L241 403Q218 381 193.5 370.5Q169 360 141 360Q97 360 69 385.5Q41 411 41 452Q41 507 91.5 536.5Q142 566 241 568V582Q241 615 225.5 629.5Q210 644 177 644Q148 644 119.5 636Q91 628 60 611V677Q86 693 119.5 702.5Q153 712 185 712Q250 712 284.5 680Q319 648 319 590V435Q319 419 320 406Q321 393 326 368ZM318 249H58V309H318Z" glyph-name="ordfeminine" horiz-adv-x="375" unicode="&#170;" /><glyph d="M36 537Q36 613 83.5 662.5Q131 712 201 712Q271 712 318.5 662.5Q366 613 366 537Q366 461 318.5 411.5Q271 362 201 362Q131 362 83.5 411.5Q36 461 36 537ZM201 642Q162 642 138 613Q114 584 114 537Q114 491 138 461.5Q162 432 201 432Q239 432 263.5 461.5Q288 491 288 537Q288 583 264 612.5Q240 642 201 642ZM71 309H331V249H71Z" glyph-name="ordmasculine" horiz-adv-x="401" unicode="&#186;" /><glyph d="M285 440Q217 440 175 388.5Q133 337 133 256Q133 221 141 191Q149 161 165 138L358 421Q342 430 323.5 435Q305 440 285 440ZM285 73Q353 73 395.5 124Q438 175 438 256Q438 291 429.5 321.5Q421 352 405 376L212 93Q228 83 246.5 78Q265 73 285 73ZM535 256Q535 141 463 65Q391 -11 285 -11Q252 -11 221 -3Q190 5 163 21L124 -36H47L112 60Q75 98 55.5 148.5Q36 199 36 256Q36 372 108 448Q180 524 285 524Q317 524 347.5 516Q378 508 406 493L445 550H523L457 454Q495 417 515 366Q535 315 535 256Z" glyph-name="oslash" horiz-adv-x="571" unicode="&#248;" /><glyph d="M285 440Q217 440 175 388.5Q133 337 133 256Q133 221 141 191Q149 161 165 138L358 421Q342 430 323.5 435Q305 440 285 440ZM285 73Q353 73 395.5 124Q438 175 438 256Q438 291 429.5 321.5Q421 352 405 376L212 93Q228 83 246.5 78Q265 73 285 73ZM535 256Q535 141 463 65Q391 -11 285 -11Q252 -11 221 -3Q190 5 163 21L124 -36H47L112 60Q75 98 55.5 148.5Q36 199 36 256Q36 372 108 448Q180 524 285 524Q317 524 347.5 516Q378 508 406 493L445 550H523L457 454Q495 417 515 366Q535 315 535 256ZM441 791 310 604H245L313 791Z" glyph-name="oslashacute" horiz-adv-x="571" unicode="&#511;" /><glyph d="M285 -11Q180 -11 108 65Q36 141 36 256Q36 372 108 448Q180 524 285 524Q391 524 463 448Q535 372 535 256Q535 141 463 65Q391 -11 285 -11ZM285 78Q351 78 392 127.5Q433 177 433 256Q433 336 392 385.5Q351 435 285 435Q219 435 178.5 385.5Q138 336 138 256Q138 177 178.5 127.5Q219 78 285 78ZM355 617Q339 617 322.5 627Q306 637 277 667Q253 693 241 700.5Q229 708 218 708Q199 708 188.5 689.5Q178 671 172 620H109Q111 696 142 744Q173 792 223 792Q239 792 255 782.5Q271 773 300 743Q324 717 336 709.5Q348 702 359 702Q378 702 388.5 720.5Q399 739 405 790H468Q466 713 435.5 665Q405 617 355 617Z" glyph-name="otilde" horiz-adv-x="571" unicode="&#245;" /><glyph d="M313 435Q277 435 241.5 423Q206 411 182 391V99Q200 86 227.5 78.5Q255 71 285 71Q362 71 408 125Q454 179 454 268Q454 345 416 390Q378 435 313 435ZM182 14V-228H79V503L182 520V464Q212 491 253.5 507.5Q295 524 337 524Q439 524 499.5 456Q560 388 560 272Q560 149 484.5 69Q409 -11 295 -11Q264 -11 233 -4Q202 3 182 14Z" glyph-name="p" horiz-adv-x="595" unicode="p" /><glyph d="M445 621V86Q445 -8 425 -72.5Q405 -137 355 -195H244Q301 -134 324.5 -69Q348 -4 348 87V701H544V621ZM27 492Q27 581 90 641Q153 701 243 701H274V289H243Q151 289 89 346.5Q27 404 27 492Z" glyph-name="paragraph" horiz-adv-x="567" unicode="&#182;" /><glyph d="M196 334Q196 212 254.5 88Q313 -36 407 -122H293Q194 -28 138 91Q82 210 82 334Q82 458 138 577.5Q194 697 293 791H407Q313 705 254.5 581Q196 457 196 334Z" glyph-name="parenleft" horiz-adv-x="417" unicode="(" /><glyph d="M221 334Q221 457 162.5 581Q104 705 10 791H124Q223 697 279 577.5Q335 458 335 334Q335 210 279 91Q223 -28 124 -122H10Q104 -36 162.5 88Q221 212 221 334Z" glyph-name="parenright" horiz-adv-x="417" unicode=")" /><glyph d="M578 712H662L214 -11H131ZM44 539Q44 616 86.5 664Q129 712 197 712Q265 712 307.5 664Q350 616 350 539Q350 462 307.5 414Q265 366 197 366Q129 366 86.5 414Q44 462 44 539ZM197 645Q161 645 139 615.5Q117 586 117 539Q117 492 139 462.5Q161 433 197 433Q234 433 256 462.5Q278 492 278 539Q278 586 256 615.5Q234 645 197 645ZM748 162Q748 85 705.5 37Q663 -11 595 -11Q526 -11 484 37Q442 85 442 162Q442 239 484 287Q526 335 595 335Q663 335 705.5 287Q748 239 748 162ZM674 162Q674 209 652.5 238.5Q631 268 595 268Q558 268 536.5 239Q515 210 515 162Q515 115 536.5 86Q558 57 595 57Q631 57 652.5 86Q674 115 674 162Z" glyph-name="percent" horiz-adv-x="791" unicode="%" /><glyph d="M125 -7Q95 -7 74 14.5Q53 36 53 67Q53 97 74 118Q95 139 125 139Q155 139 176 118Q197 97 197 67Q197 36 176 14.5Q155 -7 125 -7Z" glyph-name="period" horiz-adv-x="250" unicode="." /><glyph d="M142 205Q112 205 91 226.5Q70 248 70 279Q70 309 91 330Q112 351 142 351Q172 351 193 330Q214 309 214 279Q214 248 193 226.5Q172 205 142 205Z" glyph-name="periodcentered" horiz-adv-x="284" unicode="&#183;" /><glyph d="M555 375V295H340V81H261V295H46V375H261V590H340V375Z" glyph-name="plus" horiz-adv-x="601" unicode="+" /><glyph d="M425 492 516 519V-228H413V52Q380 21 341.5 5Q303 -11 262 -11Q160 -11 98.5 58Q37 127 37 242Q37 366 112 445Q187 524 303 524Q337 524 370.5 515.5Q404 507 425 492ZM285 77Q320 77 352.5 89.5Q385 102 413 126V413Q396 426 369 433.5Q342 441 311 441Q234 441 188 388Q142 335 142 246Q142 169 181 123Q220 77 285 77Z" glyph-name="q" horiz-adv-x="595" unicode="q" /><glyph d="M273 381Q318 429 331.5 454.5Q345 480 345 505Q345 557 313.5 585Q282 613 224 613Q176 613 125.5 591.5Q75 570 27 529V633Q72 670 128.5 690.5Q185 711 242 711Q341 711 399.5 657.5Q458 604 458 516Q458 478 441 444Q424 410 370 355Q327 311 312.5 286.5Q298 262 294 237H187Q191 268 208 298.5Q225 329 273 381ZM239 -7Q209 -7 188 14.5Q167 36 167 67Q167 97 188 118Q209 139 239 139Q269 139 290 118Q311 97 311 67Q311 36 290 14.5Q269 -7 239 -7Z" glyph-name="question" horiz-adv-x="486" unicode="?" /><glyph d="M213 320Q168 272 154.5 246.5Q141 221 141 196Q141 144 172.5 116Q204 88 262 88Q310 88 360.5 109.5Q411 131 459 172V68Q414 31 357.5 10.5Q301 -10 244 -10Q145 -10 86.5 43.5Q28 97 28 185Q28 223 45 257Q62 291 116 346Q159 390 173.5 414.5Q188 439 192 464H299Q295 433 278 402.5Q261 372 213 320ZM247 708Q277 708 298 686.5Q319 665 319 634Q319 604 298 583Q277 562 247 562Q217 562 196 583Q175 604 175 634Q175 665 196 686.5Q217 708 247 708Z" glyph-name="questiondown" horiz-adv-x="486" unicode="&#191;" /><glyph d="M314 418H249V701H366ZM129 418H64V701H181Z" glyph-name="quotedbl" horiz-adv-x="419" unicode="&quot;" /><glyph d="M86 112H192Q192 48 165 -25Q138 -98 103 -139H33Q56 -91 71 -21Q86 49 86 112ZM273 112H379Q379 48 352 -25Q325 -98 290 -139H220Q243 -91 258 -21Q273 49 273 112Z" glyph-name="quotedblbase" horiz-adv-x="441" unicode="&#8222;" /><glyph d="M356 458H249Q249 521 276 593.5Q303 666 338 708H409Q386 662 371 592Q356 522 356 458ZM169 458H62Q62 521 89 593.5Q116 666 151 708H222Q199 662 184 592Q169 522 169 458Z" glyph-name="quotedblleft" horiz-adv-x="442" unicode="&#8220;" /><glyph d="M86 708H192Q192 643 165 570Q138 497 103 458H33Q56 505 71 575Q86 645 86 708ZM273 708H379Q379 643 352 570Q325 497 290 458H220Q243 505 258 575Q273 645 273 708Z" glyph-name="quotedblright" horiz-adv-x="442" unicode="&#8221;" /><glyph d="M169 458H62Q62 521 89 593.5Q116 666 151 708H222Q199 662 184 592Q169 522 169 458Z" glyph-name="quoteleft" horiz-adv-x="255" unicode="&#8216;" /><glyph d="M86 708H192Q192 643 165 570Q138 497 103 458H33Q56 505 71 575Q86 645 86 708Z" glyph-name="quoteright" horiz-adv-x="255" unicode="&#8217;" /><glyph d="M86 112H192Q192 48 165 -25Q138 -98 103 -139H33Q56 -91 71 -21Q86 49 86 112Z" glyph-name="quotesinglbase" horiz-adv-x="255" unicode="&#8218;" /><glyph d="M129 418H64V701H181Z" glyph-name="quotesingle" horiz-adv-x="234" unicode="'" /><glyph d="M182 349V0H79V503L182 520V430Q226 483 277 505.5Q328 528 385 519V415Q328 427 275.5 410Q223 393 182 349Z" glyph-name="r" horiz-adv-x="403" unicode="r" /><glyph d="M182 349V0H79V503L182 520V430Q226 483 277 505.5Q328 528 385 519V415Q328 427 275.5 410Q223 393 182 349ZM401 791 270 604H205L273 791Z" glyph-name="racute" horiz-adv-x="403" unicode="&#341;" /><glyph d="M182 349V0H79V503L182 520V430Q226 483 277 505.5Q328 528 385 519V415Q328 427 275.5 410Q223 393 182 349ZM400 791 294 604H196L90 791H158L244 678L331 791Z" glyph-name="rcaron" horiz-adv-x="403" unicode="&#345;" /><glyph d="M37 351Q37 505 141 608.5Q245 712 398 712Q551 712 654.5 609Q758 506 758 351Q758 196 654.5 92.5Q551 -11 398 -11Q245 -11 141 92.5Q37 196 37 351ZM93 351Q93 220 181 132.5Q269 45 398 45Q527 45 614.5 133Q702 221 702 351Q702 482 614.5 569.5Q527 657 398 657Q269 657 181 569.5Q93 482 93 351ZM387 486H343V370H412Q436 378 448 393Q460 408 460 429Q460 457 441.5 471.5Q423 486 387 486ZM465 327 572 165H482L393 309H343V165H265V552H395Q463 552 501.5 520.5Q540 489 540 433Q540 398 520 370Q500 342 465 327Z" glyph-name="registered" horiz-adv-x="796" unicode="&#174;" /><glyph d="M251 810Q297 810 330 777.5Q363 745 363 700Q363 654 330 621.5Q297 589 251 589Q207 589 174 622Q141 655 141 700Q141 745 174 777.5Q207 810 251 810ZM251 759Q228 759 211 741.5Q194 724 194 700Q194 676 211 658.5Q228 641 251 641Q275 641 292.5 658.5Q310 676 310 700Q310 724 292.5 741.5Q275 759 251 759Z" glyph-name="ring" horiz-adv-x="530" unicode="&#730;" /><glyph d="M387 868Q387 817 350.5 780Q314 743 263 743Q214 743 177.5 780Q141 817 141 868Q141 918 177 954Q213 990 263 990Q314 990 350.5 954Q387 918 387 868ZM201 868Q201 840 219 821Q237 802 263 802Q291 802 309.5 821Q328 840 328 868Q328 894 309 913Q290 932 263 932Q238 932 219.5 913Q201 894 201 868Z" glyph-name="ring.cap" horiz-adv-x="530" /><glyph d="M209 -11Q161 -11 116.5 -0.5Q72 10 40 28V121Q77 96 119.5 83.5Q162 71 208 71Q253 71 280.5 89.5Q308 108 308 139Q308 161 289.5 178Q271 195 209 219Q164 236 142.5 247Q121 258 106 270Q81 290 69.5 315Q58 340 58 372Q58 438 110.5 481Q163 524 243 524Q280 524 312.5 517Q345 510 380 494V403Q347 422 314.5 432Q282 442 250 442Q209 442 184 424Q159 406 159 376Q159 354 177.5 337Q196 320 259 297Q350 262 380 228.5Q410 195 410 146Q410 76 353 32.5Q296 -11 209 -11Z" glyph-name="s" horiz-adv-x="460" unicode="s" /><glyph d="M209 -11Q161 -11 116.5 -0.5Q72 10 40 28V121Q77 96 119.5 83.5Q162 71 208 71Q253 71 280.5 89.5Q308 108 308 139Q308 161 289.5 178Q271 195 209 219Q164 236 142.5 247Q121 258 106 270Q81 290 69.5 315Q58 340 58 372Q58 438 110.5 481Q163 524 243 524Q280 524 312.5 517Q345 510 380 494V403Q347 422 314.5 432Q282 442 250 442Q209 442 184 424Q159 406 159 376Q159 354 177.5 337Q196 320 259 297Q350 262 380 228.5Q410 195 410 146Q410 76 353 32.5Q296 -11 209 -11ZM399 791 268 604H203L271 791Z" glyph-name="sacute" horiz-adv-x="460" unicode="&#347;" /><glyph d="M209 -11Q161 -11 116.5 -0.5Q72 10 40 28V121Q77 96 119.5 83.5Q162 71 208 71Q253 71 280.5 89.5Q308 108 308 139Q308 161 289.5 178Q271 195 209 219Q164 236 142.5 247Q121 258 106 270Q81 290 69.5 315Q58 340 58 372Q58 438 110.5 481Q163 524 243 524Q280 524 312.5 517Q345 510 380 494V403Q347 422 314.5 432Q282 442 250 442Q209 442 184 424Q159 406 159 376Q159 354 177.5 337Q196 320 259 297Q350 262 380 228.5Q410 195 410 146Q410 76 353 32.5Q296 -11 209 -11ZM398 791 292 604H194L88 791H156L242 678L329 791Z" glyph-name="scaron" horiz-adv-x="460" unicode="&#353;" /><glyph d="M209 -11Q161 -11 116.5 -0.5Q72 10 40 28V121Q77 96 119.5 83.5Q162 71 208 71Q253 71 280.5 89.5Q308 108 308 139Q308 161 289.5 178Q271 195 209 219Q164 236 142.5 247Q121 258 106 270Q81 290 69.5 315Q58 340 58 372Q58 438 110.5 481Q163 524 243 524Q280 524 312.5 517Q345 510 380 494V403Q347 422 314.5 432Q282 442 250 442Q209 442 184 424Q159 406 159 376Q159 354 177.5 337Q196 320 259 297Q350 262 380 228.5Q410 195 410 146Q410 76 353 32.5Q296 -11 209 -11ZM88 604 194 791H292L398 604H329L242 716L156 604Z" glyph-name="scircumflex" horiz-adv-x="460" unicode="&#349;" /><glyph d="M296 630Q254 630 227 607Q200 584 200 548Q200 525 214.5 504.5Q229 484 269 455L423 343Q470 308 488.5 278Q507 248 507 213Q507 183 491.5 157Q476 131 450 115L419 147Q425 156 428 165Q431 174 431 183Q431 204 415 225Q399 246 363 274L179 414Q140 444 123 475Q106 506 106 548Q106 617 159.5 664.5Q213 712 292 712Q328 712 360 703.5Q392 695 425 678V587Q396 608 362.5 619Q329 630 296 630ZM242 -92Q285 -92 313 -68.5Q341 -45 341 -9Q341 13 327.5 32.5Q314 52 272 84L119 197Q73 230 53.5 260.5Q34 291 34 327Q34 358 49 383.5Q64 409 91 425L123 392Q117 383 113.5 374Q110 365 110 357Q110 336 126 315Q142 294 178 266L362 125Q401 96 418 65Q435 34 435 -8Q435 -76 380 -125Q325 -174 246 -174Q210 -174 176.5 -165Q143 -156 110 -138V-48Q141 -69 175 -80.5Q209 -92 242 -92Z" glyph-name="section" horiz-adv-x="541" unicode="&#167;" /><glyph d="M71 142H179Q179 77 151 2Q123 -73 89 -115H18Q40 -69 55.5 4Q71 77 71 142ZM125 343Q95 343 74 364.5Q53 386 53 417Q53 447 74 468Q95 489 125 489Q155 489 176 468Q197 447 197 417Q197 386 176 364.5Q155 343 125 343Z" glyph-name="semicolon" horiz-adv-x="250" unicode=";" /><glyph d="M225 0H106Q209 135 286 287Q363 439 412 606H29V700H523V627Q494 495 402.5 298.5Q311 102 225 0Z" glyph-name="seven" horiz-adv-x="537" unicode="7" /><glyph d="M207 -122H90Q195 16 272 169Q349 322 395 485H19V580H503V507Q473 370 383 174Q293 -22 207 -122Z" glyph-name="seven.op" horiz-adv-x="528" /><glyph d="M328 428Q423 428 485.5 370Q548 312 548 220Q548 119 479.5 54Q411 -11 308 -11Q192 -11 115.5 80.5Q39 172 39 313Q39 489 143 600Q247 711 411 711Q445 711 475.5 706Q506 701 528 691V604Q502 613 472.5 617Q443 621 411 621Q293 621 220.5 543Q148 465 143 330Q174 374 224.5 401Q275 428 328 428ZM146 259Q157 173 201 124Q245 75 308 75Q371 75 408.5 112Q446 149 446 212Q446 272 407 309Q368 346 305 346Q261 346 219 322.5Q177 299 146 259Z" glyph-name="six" horiz-adv-x="587" unicode="6" /><glyph d="M328 428Q423 428 485.5 370Q548 312 548 220Q548 119 479.5 54Q411 -11 308 -11Q192 -11 115.5 80.5Q39 172 39 313Q39 489 143 600Q247 711 411 711Q445 711 477.5 705Q510 699 533 689V605Q509 614 478 619Q447 624 411 624Q292 624 218 543Q144 462 140 325Q170 371 222 399.5Q274 428 328 428ZM144 258Q155 173 200 123.5Q245 74 309 74Q372 74 410 111.5Q448 149 448 212Q448 273 409 310.5Q370 348 306 348Q260 348 217 324Q174 300 144 258Z" glyph-name="six.op" horiz-adv-x="587" /><glyph d="M112 -122H9L313 791H417Z" glyph-name="slash" horiz-adv-x="427" unicode="/" /><glyph glyph-name="space" horiz-adv-x="256" unicode=" " /><glyph d="M483 452 460 382H77L104 452H209Q261 588 326 649.5Q391 711 480 711Q512 711 534.5 706Q557 701 581 690V601Q554 613 532.5 617.5Q511 622 483 622Q429 622 388 582Q347 542 311 452ZM161 79H551V0H51V60L126 241H27L55 311H446L422 241H228Z" glyph-name="sterling" horiz-adv-x="624" unicode="&#163;" /><glyph d="M19 433V513H94V624L198 640V513H376L362 433H198V159Q198 121 219.5 100Q241 79 279 79Q315 79 341.5 84.5Q368 90 398 102V17Q370 3 336.5 -3.5Q303 -10 265 -10Q186 -10 140 31Q94 72 94 147V433Z" glyph-name="t" horiz-adv-x="425" unicode="t" /><glyph d="M401 102V17Q373 4 339.5 -3Q306 -10 268 -10Q189 -10 143 31Q97 72 97 147V254H24V328H97V437H23V513H97V624L201 640V513H379L365 437H201V328H374L361 254H201V159Q201 121 222.5 100Q244 79 283 79Q319 79 345.5 84.5Q372 90 401 102Z" glyph-name="tbar" horiz-adv-x="431" unicode="&#359;" /><glyph d="M19 433V513H94V624L198 640V513H376L362 433H198V159Q198 121 219.5 100Q241 79 279 79Q315 79 341.5 84.5Q368 90 398 102V17Q370 3 336.5 -3.5Q303 -10 265 -10Q186 -10 140 31Q94 72 94 147V433ZM314 571H251L278 819H390Z" glyph-name="tcaron" horiz-adv-x="425" unicode="&#357;" /><glyph d="M349 -140Q349 -183 311 -211Q273 -239 219 -239Q188 -239 161.5 -232.5Q135 -226 117 -214V-153Q139 -166 163 -172.5Q187 -179 215 -179Q245 -179 262.5 -168Q280 -157 280 -139Q280 -117 256 -106Q232 -95 185 -95L217 -6Q171 3 140 31Q94 72 94 147V433H19V513H94V624L198 640V513H376L362 433H198V159Q198 121 219.5 100Q241 79 279 79Q315 79 341.5 84.5Q368 90 398 102V17Q370 3 336.5 -3.5Q303 -10 265 -10H262L248 -52Q296 -59 322.5 -81.5Q349 -104 349 -140Z" glyph-name="tcommaaccent" horiz-adv-x="425" unicode="&#355;" /><glyph d="M313 436Q278 436 242 423.5Q206 411 182 391V99Q200 86 227.5 78.5Q255 71 285 71Q362 71 408 125Q454 179 454 268Q454 345 416 390.5Q378 436 313 436ZM295 -11Q264 -11 233 -4Q202 3 182 14V-228H79V787L182 802V464Q212 491 254 508Q296 525 337 525Q439 525 499.5 456.5Q560 388 560 272Q560 149 484.5 69Q409 -11 295 -11Z" glyph-name="thorn" horiz-adv-x="595" unicode="&#254;" /><glyph d="M219 -11Q165 -11 117.5 1.5Q70 14 30 38V135Q68 108 114.5 94.5Q161 81 212 81Q295 81 346.5 120.5Q398 160 398 224Q398 291 342.5 323Q287 355 171 356V390L352 606H57V700H472V616L298 416Q392 405 449.5 354Q507 303 507 226Q507 124 423.5 56.5Q340 -11 219 -11Z" glyph-name="three" horiz-adv-x="548" unicode="3" /><glyph d="M213 -133Q159 -133 111.5 -120.5Q64 -108 24 -84V9Q62 -18 108 -31.5Q154 -45 205 -45Q288 -45 341 -4.5Q394 36 394 100Q394 167 337 200.5Q280 234 164 235V269L352 490H51V580H466V500L290 295Q384 284 442 232.5Q500 181 500 104Q500 2 417 -65.5Q334 -133 213 -133Z" glyph-name="three.op" horiz-adv-x="541" /><glyph d="M121 332Q91 332 65.5 338Q40 344 18 356V424Q38 411 62.5 404Q87 397 113 397Q152 397 175 413Q198 429 198 457Q198 486 171.5 499.5Q145 513 87 514V537L171 633H32V701H259V643L177 552Q224 544 250.5 518.5Q277 493 277 455Q277 401 232 366.5Q187 332 121 332Z" glyph-name="threesuperior" horiz-adv-x="298" unicode="&#179;" /><glyph d="M334 617Q318 617 301.5 627Q285 637 256 667Q232 693 220 700.5Q208 708 197 708Q178 708 167.5 689.5Q157 671 151 620H88Q90 696 121 744Q152 792 202 792Q218 792 234 782.5Q250 773 279 743Q303 717 315 709.5Q327 702 338 702Q357 702 367.5 720.5Q378 739 384 790H447Q445 713 414.5 665Q384 617 334 617Z" glyph-name="tilde" horiz-adv-x="530" unicode="&#732;" /><glyph d="M339 768Q323 768 305.5 777.5Q288 787 256 818Q229 844 216 851.5Q203 859 192 859Q173 859 162 840Q151 821 145 771H81Q83 847 114 895Q145 943 196 943Q212 943 229.5 933.5Q247 924 280 893Q307 868 319.5 860.5Q332 853 343 853Q362 853 373 872Q384 891 390 941H454Q452 865 420.5 816.5Q389 768 339 768Z" glyph-name="tilde.cap" horiz-adv-x="530" /><glyph d="M202 639V368H128V639H29V701H301V639ZM600 607 545 446H493L437 607H433L414 368H344L374 701H464L518 532H522L576 701H663L694 368H623L605 607Z" glyph-name="trademark" horiz-adv-x="749" unicode="&#8482;" /><glyph d="M374 495Q374 551 340.5 582.5Q307 614 247 614Q197 614 143 591.5Q89 569 44 530V633Q89 669 147 690Q205 711 264 711Q366 711 426.5 656Q487 601 487 511Q487 422 405.5 313.5Q324 205 173 92H514V0H29V75Q220 233 297 329Q374 425 374 495Z" glyph-name="two" horiz-adv-x="546" unicode="2" /><glyph d="M367 398Q367 445 335 471Q303 497 247 497Q196 497 141.5 472.5Q87 448 45 406V504Q88 544 147 567.5Q206 591 265 591Q362 591 419.5 542Q477 493 477 412Q477 334 411 259.5Q345 185 184 88H511V0H36V74Q241 209 304 273.5Q367 338 367 398Z" glyph-name="two.op" horiz-adv-x="547" /><glyph d="M185 585Q185 610 170.5 623Q156 636 129 636Q105 636 76.5 624.5Q48 613 23 594V668Q51 687 83 697Q115 707 147 707Q203 707 236 678Q269 649 269 601Q269 555 232.5 506.5Q196 458 122 405H284V337H17V392Q112 467 148.5 510.5Q185 554 185 585Z" glyph-name="twosuperior" horiz-adv-x="299" unicode="&#178;" /><glyph d="M409 513H513V10L409 -6V50Q376 22 331.5 5.5Q287 -11 242 -11Q163 -11 118 35.5Q73 82 73 163V513H176V189Q176 131 200.5 104.5Q225 78 276 78Q309 78 340 87.5Q371 97 409 121Z" glyph-name="u" horiz-adv-x="593" unicode="u" /><glyph d="M409 513H513V10L409 -6V50Q376 22 331.5 5.5Q287 -11 242 -11Q163 -11 118 35.5Q73 82 73 163V513H176V189Q176 131 200.5 104.5Q225 78 276 78Q309 78 340 87.5Q371 97 409 121ZM449 791 318 604H253L321 791Z" glyph-name="uacute" horiz-adv-x="593" unicode="&#250;" /><glyph d="M409 513H513V10L409 -6V50Q376 22 331.5 5.5Q287 -11 242 -11Q163 -11 118 35.5Q73 82 73 163V513H176V189Q176 131 200.5 104.5Q225 78 276 78Q309 78 340 87.5Q371 97 409 121ZM292 604Q224 604 183 655.5Q142 707 142 791H210Q212 739 233.5 709.5Q255 680 292 680Q330 680 351.5 709Q373 738 375 791H444Q444 706 402.5 655Q361 604 292 604Z" glyph-name="ubreve" horiz-adv-x="593" unicode="&#365;" /><glyph d="M409 513H513V10L409 -6V50Q376 22 331.5 5.5Q287 -11 242 -11Q163 -11 118 35.5Q73 82 73 163V513H176V189Q176 131 200.5 104.5Q225 78 276 78Q309 78 340 87.5Q371 97 409 121ZM138 604 244 791H342L448 604H379L292 716L206 604Z" glyph-name="ucircumflex" horiz-adv-x="593" unicode="&#251;" /><glyph d="M409 513H513V10L409 -6V50Q376 22 331.5 5.5Q287 -11 242 -11Q163 -11 118 35.5Q73 82 73 163V513H176V189Q176 131 200.5 104.5Q225 78 276 78Q309 78 340 87.5Q371 97 409 121ZM388 643Q361 643 343.5 660.5Q326 678 326 704Q326 729 344 746.5Q362 764 388 764Q414 764 432 746.5Q450 729 450 704Q450 678 432 660.5Q414 643 388 643ZM198 643Q171 643 153 660.5Q135 678 135 704Q135 729 153 746.5Q171 764 198 764Q224 764 241.5 746.5Q259 729 259 704Q259 678 241.5 660.5Q224 643 198 643Z" glyph-name="udieresis" horiz-adv-x="593" unicode="&#252;" /><glyph d="M409 513H513V10L409 -6V50Q376 22 331.5 5.5Q287 -11 242 -11Q163 -11 118 35.5Q73 82 73 163V513H176V189Q176 131 200.5 104.5Q225 78 276 78Q309 78 340 87.5Q371 97 409 121ZM265 791 332 604H266L137 791Z" glyph-name="ugrave" horiz-adv-x="593" unicode="&#249;" /><glyph d="M409 513H513V10L409 -6V50Q376 22 331.5 5.5Q287 -11 242 -11Q163 -11 118 35.5Q73 82 73 163V513H176V189Q176 131 200.5 104.5Q225 78 276 78Q309 78 340 87.5Q371 97 409 121ZM227 604H164L231 791H345ZM408 604H345L412 791H526Z" glyph-name="uhungarumlaut" horiz-adv-x="593" unicode="&#369;" /><glyph d="M409 513H513V10L409 -6V50Q376 22 331.5 5.5Q287 -11 242 -11Q163 -11 118 35.5Q73 82 73 163V513H176V189Q176 131 200.5 104.5Q225 78 276 78Q309 78 340 87.5Q371 97 409 121ZM442 726V648H143V726Z" glyph-name="umacron" horiz-adv-x="593" unicode="&#363;" /><glyph d="M337 -133H70V-45H337Z" glyph-name="underscore" horiz-adv-x="400" unicode="_" /><glyph glyph-name="uni000D" horiz-adv-x="256" unicode="" /><glyph d="M179 -48H281Q281 -101 249.5 -155Q218 -209 177 -234H109Q140 -201 159.5 -149.5Q179 -98 179 -48Z" glyph-name="uni00200326" horiz-adv-x="438" /><glyph d="M238 605H137Q137 658 168 712Q199 766 240 791H308Q277 758 257.5 706.5Q238 655 238 605Z" glyph-name="uni00200326.alt" horiz-adv-x="438" /><glyph glyph-name="uni00A0" horiz-adv-x="256" unicode="&#160;" /><glyph d="M431 614Q308 614 227.5 539Q147 464 147 346Q147 224 222.5 153.5Q298 83 422 83Q448 83 471.5 85.5Q495 88 514 92V309H618V14Q575 3 522 -4Q469 -11 421 -11Q251 -11 144 87Q37 185 37 346Q37 504 150 607.5Q263 711 431 711Q482 711 528 703Q574 695 614 678V577Q577 594 528.5 604Q480 614 431 614ZM369 -48H471Q471 -101 439.5 -155Q408 -209 367 -234H299Q330 -201 349.5 -149.5Q369 -98 369 -48Z" glyph-name="uni0122" horiz-adv-x="679" unicode="&#290;" /><glyph d="M248 244Q296 244 327.5 273Q359 302 359 348Q359 396 328 424.5Q297 453 248 453Q199 453 168 424.5Q137 396 137 348Q137 302 168.5 273Q200 244 248 244ZM520 -56Q520 -138 440 -188.5Q360 -239 237 -239Q132 -239 64 -198Q-4 -157 -4 -91Q-4 -46 32 -11Q68 24 126 39Q115 52 108.5 67.5Q102 83 102 98Q102 123 118.5 145.5Q135 168 166 185Q106 205 71.5 248.5Q37 292 37 348Q37 425 97 474.5Q157 524 248 524Q267 524 285.5 521Q304 518 321 513H531L519 442H423Q438 421 446 397.5Q454 374 454 348Q454 270 396.5 221.5Q339 173 248 173Q241 173 237 173Q233 173 230 174Q208 162 197.5 151Q187 140 187 128Q187 114 199 105.5Q211 97 234 94L347 79Q438 65 479 32.5Q520 0 520 -56ZM94 -78Q94 -118 135.5 -141Q177 -164 248 -164Q321 -164 370 -138.5Q419 -113 419 -72Q419 -47 400 -33Q381 -19 331 -12L187 11Q143 -1 118.5 -24.5Q94 -48 94 -78ZM313 605H212Q212 658 243 712Q274 766 315 791H383Q352 758 332.5 706.5Q313 655 313 605Z" glyph-name="uni0123" horiz-adv-x="536" unicode="&#291;" /><glyph d="M695 0H554L198 344V0H91V700H198V374L517 700H651L314 367ZM292 -48H394Q394 -101 362.5 -155Q331 -209 290 -234H222Q253 -201 272.5 -149.5Q292 -98 292 -48Z" glyph-name="uni0136" horiz-adv-x="698" unicode="&#310;" /><glyph d="M567 0H438L182 259V0H79V787L182 802V283L413 513H536L296 278ZM244 -48H346Q346 -101 314.5 -155Q283 -209 242 -234H174Q205 -201 224.5 -149.5Q244 -98 244 -48Z" glyph-name="uni0137" horiz-adv-x="570" unicode="&#311;" /><glyph d="M91 0V700H198V90H537V0ZM264 -48H366Q366 -101 334.5 -155Q303 -209 262 -234H194Q225 -201 244.5 -149.5Q264 -98 264 -48Z" glyph-name="uni013B" horiz-adv-x="579" unicode="&#315;" /><glyph d="M182 0H79V787L182 802ZM81 -48H183Q183 -101 151.5 -155Q120 -209 79 -234H11Q42 -201 61.5 -149.5Q81 -98 81 -48Z" glyph-name="uni013C" horiz-adv-x="261" unicode="&#316;" /><glyph d="M669 0H576L194 545V0H91V700H199L566 166V700H669ZM330 -48H432Q432 -101 400.5 -155Q369 -209 328 -234H260Q291 -201 310.5 -149.5Q330 -98 330 -48Z" glyph-name="uni0145" horiz-adv-x="760" unicode="&#325;" /><glyph d="M79 0V503L182 520V463Q219 491 264.5 507.5Q310 524 356 524Q438 524 483.5 478Q529 432 529 350V0H425V324Q425 381 399.5 407.5Q374 434 321 434Q284 434 251 424Q218 414 182 391V0ZM262 -48H364Q364 -101 332.5 -155Q301 -209 260 -234H192Q223 -201 242.5 -149.5Q262 -98 262 -48Z" glyph-name="uni0146" horiz-adv-x="602" unicode="&#326;" /><glyph d="M313 610H198V364H364Q411 377 437.5 410.5Q464 444 464 493Q464 549 424.5 579.5Q385 610 313 610ZM436 302Q477 234 545 147.5Q613 61 674 0H541Q493 49 437.5 123.5Q382 198 333 278H198V0H91V700H316Q440 700 507.5 646.5Q575 593 575 494Q575 429 537.5 378Q500 327 436 302ZM277 -48H379Q379 -101 347.5 -155Q316 -209 275 -234H207Q238 -201 257.5 -149.5Q277 -98 277 -48Z" glyph-name="uni0156" horiz-adv-x="676" unicode="&#342;" /><glyph d="M182 349V0H79V503L182 520V430Q226 483 277 505.5Q328 528 385 519V415Q328 427 275.5 410Q223 393 182 349ZM80 -48H182Q182 -101 150.5 -155Q119 -209 78 -234H10Q41 -201 60.5 -149.5Q80 -98 80 -48Z" glyph-name="uni0157" horiz-adv-x="403" unicode="&#343;" /><glyph d="M360 -140Q360 -183 322 -211Q284 -239 230 -239Q199 -239 172.5 -232.5Q146 -226 128 -214V-153Q150 -166 174 -172.5Q198 -179 226 -179Q256 -179 273.5 -168Q291 -157 291 -139Q291 -117 267 -106Q243 -95 196 -95L226 -10Q180 -7 133 5Q71 21 31 47V152Q81 118 139.5 100Q198 82 256 82Q329 82 371 111Q413 140 413 190Q413 224 385.5 249.5Q358 275 265 311Q205 334 176.5 348.5Q148 363 128 379Q94 405 78 437.5Q62 470 62 511Q62 597 131.5 654Q201 711 304 711Q356 711 401 700.5Q446 690 488 668V566Q443 593 400 606Q357 619 308 619Q245 619 207 591Q169 563 169 516Q169 483 196 458Q223 433 316 398Q377 374 406 359.5Q435 345 456 329Q490 303 506.5 269.5Q523 236 523 195Q523 105 447 47Q377 -7 273 -11L259 -52Q307 -59 333.5 -81.5Q360 -104 360 -140Z" glyph-name="uni015E" horiz-adv-x="568" unicode="&#350;" /><glyph d="M316 -140Q316 -183 278 -211Q240 -239 186 -239Q155 -239 128.5 -232.5Q102 -226 84 -214V-153Q106 -166 130 -172.5Q154 -179 182 -179Q212 -179 229.5 -168Q247 -157 247 -139Q247 -117 223 -106Q199 -95 152 -95L182 -10Q148 -8 116 0Q72 10 40 28V121Q77 96 119.5 83.5Q162 71 208 71Q253 71 280.5 89.5Q308 108 308 139Q308 161 289.5 178Q271 195 209 219Q164 236 142.5 247Q121 258 106 270Q81 290 69.5 315Q58 340 58 372Q58 438 110.5 481Q163 524 243 524Q280 524 312.5 517Q345 510 380 494V403Q347 422 314.5 432Q282 442 250 442Q209 442 184 424Q159 406 159 376Q159 354 177.5 337Q196 320 259 297Q350 262 380 228.5Q410 195 410 146Q410 76 353 32Q303 -6 229 -10L215 -52Q263 -59 289.5 -81.5Q316 -104 316 -140Z" glyph-name="uni015F" horiz-adv-x="460" unicode="&#351;" /><glyph d="M495 394 474 319H93L116 394H235L252 478Q276 593 334.5 652Q393 711 483 711Q505 711 522 708.5Q539 706 554 700V616Q539 620 525 622Q511 624 494 624Q437 624 401 586.5Q365 549 351 476L334 394ZM186 122 212 254H312L286 120Q262 7 202 -53Q142 -113 52 -113Q34 -113 15.5 -110Q-3 -107 -21 -101V-17Q-6 -21 8.5 -23Q23 -25 41 -25Q98 -25 135 12.5Q172 50 186 122Z" glyph-name="uni0192" horiz-adv-x="582" unicode="&#402;" /><glyph d="M257 -11Q195 -11 133 5Q71 21 31 47V152Q81 118 139.5 100Q198 82 256 82Q329 82 371 111Q413 140 413 190Q413 224 385.5 249.5Q358 275 265 311Q205 334 176.5 348.5Q148 363 128 379Q94 405 78 437.5Q62 470 62 511Q62 597 131.5 654Q201 711 304 711Q356 711 401 700.5Q446 690 488 668V566Q443 593 400 606Q357 619 308 619Q245 619 207 591Q169 563 169 516Q169 483 196 458Q223 433 316 398Q377 374 406 359.5Q435 345 456 329Q490 303 506.5 269.5Q523 236 523 195Q523 105 447.5 47Q372 -11 257 -11ZM215 -48H317Q317 -101 285.5 -155Q254 -209 213 -234H145Q176 -201 195.5 -149.5Q215 -98 215 -48Z" glyph-name="uni0218" horiz-adv-x="568" unicode="&#536;" /><glyph d="M209 -11Q161 -11 116.5 -0.5Q72 10 40 28V121Q77 96 119.5 83.5Q162 71 208 71Q253 71 280.5 89.5Q308 108 308 139Q308 161 289.5 178Q271 195 209 219Q164 236 142.5 247Q121 258 106 270Q81 290 69.5 315Q58 340 58 372Q58 438 110.5 481Q163 524 243 524Q280 524 312.5 517Q345 510 380 494V403Q347 422 314.5 432Q282 442 250 442Q209 442 184 424Q159 406 159 376Q159 354 177.5 337Q196 320 259 297Q350 262 380 228.5Q410 195 410 146Q410 76 353 32.5Q296 -11 209 -11ZM163 -48H265Q265 -101 233.5 -155Q202 -209 161 -234H93Q124 -201 143.5 -149.5Q163 -98 163 -48Z" glyph-name="uni0219" horiz-adv-x="460" unicode="&#537;" /><glyph d="M287 610H27V700H653V610H394V0H287ZM291 -48H393Q393 -101 361.5 -155Q330 -209 289 -234H221Q252 -201 271.5 -149.5Q291 -98 291 -48Z" glyph-name="uni021A" horiz-adv-x="680" unicode="&#538;" /><glyph d="M19 433V513H94V624L198 640V513H376L362 433H198V159Q198 121 219.5 100Q241 79 279 79Q315 79 341.5 84.5Q368 90 398 102V17Q370 3 336.5 -3.5Q303 -10 265 -10Q186 -10 140 31Q94 72 94 147V433ZM200 -48H302Q302 -101 270.5 -155Q239 -209 198 -234H130Q161 -201 180.5 -149.5Q200 -98 200 -48Z" glyph-name="uni021B" horiz-adv-x="425" unicode="&#539;" /><glyph d="M182 520V16Q181 -61 163.5 -117Q146 -173 105 -228H-4Q39 -172 58 -113Q77 -54 79 25V503Z" glyph-name="uni0237" horiz-adv-x="261" unicode="&#567;" /><glyph d="M297 539H186V383H297Q362 383 392.5 402Q423 421 423 462Q423 504 394.5 521.5Q366 539 297 539ZM459 223Q459 267 428.5 289Q398 311 336 311H186V138H336Q398 138 428.5 159Q459 180 459 223ZM564 217Q564 142 508 100.5Q452 59 350 59H339V-106H251V59H86V617H251V766H339V617Q433 612 479 577.5Q525 543 525 476Q525 431 493.5 398.5Q462 366 412 356Q483 347 523.5 310.5Q564 274 564 217Z" glyph-name="uni0E3F" horiz-adv-x="610" unicode="&#3647;" /><glyph d="M361 298V-132H305Q187 -132 115.5 -92Q44 -52 44 14Q44 63 80.5 94Q117 125 175 125Q188 125 200 123Q212 121 222 117V60Q216 62 206 63Q196 64 189 64Q160 64 143 51Q126 38 126 16Q126 -16 165.5 -36.5Q205 -57 264 -59V298H99L122 372H264V380Q264 435 227 464.5Q190 494 106 505Q106 592 173 651Q240 710 339 710Q382 710 420 701Q458 692 491 675V590Q454 607 417.5 615.5Q381 624 341 624Q286 624 248.5 602Q211 580 202 544Q276 535 318.5 492.5Q361 450 361 385V372H500L480 298Z" glyph-name="uni17DB" horiz-adv-x="544" unicode="&#6107;" /><glyph d="M326 -77H256L296 79Q276 81 256.5 84.5Q237 88 218 94L174 -77H105L156 122Q96 158 63 216.5Q30 275 30 345Q30 443 90 514Q150 585 249 607L291 773H361L321 615H324Q342 615 362 612.5Q382 610 400 605L442 773H512L443 501Q418 513 388.5 519Q359 525 325 525Q240 525 186.5 476Q133 427 133 345Q133 265 187 216Q241 167 325 167Q356 167 389 174Q422 181 450 193V103Q432 96 410 90Q388 84 366 81Z" glyph-name="uni20A1" horiz-adv-x="535" unicode="&#8353;" /><glyph d="M585 0 461 541 338 0H259L194 260H37V328H177L157 411H37V479H140L85 700H188L307 177L421 700H506L620 177L739 700H837L782 479H894V411H765L745 328H894V260H728L663 0Z" glyph-name="uni20A9" horiz-adv-x="932" unicode="&#8361;" /><glyph d="M89 0V700H312Q417 700 469 649.5Q521 599 521 497V173H436V493Q436 564 405 593Q374 622 294 622H174V0ZM694 700V203Q694 102 642 51Q590 0 486 0H262V510H348V78H467Q548 78 578.5 107Q609 136 609 207V700Z" glyph-name="uni20AA" horiz-adv-x="783" unicode="&#8362;" /><glyph d="M280 200Q318 200 354 215Q390 230 418 257V378Q396 394 363 403Q330 412 293 412Q231 412 194.5 382.5Q158 353 158 300Q158 254 192 227Q226 200 280 200ZM418 131V193Q384 161 341.5 143Q299 125 252 125Q168 125 112 174Q56 223 56 300Q56 383 119.5 434.5Q183 486 278 486Q318 486 355 476Q392 466 418 448V570H197V639H418V700H512V639H600V570H512V151ZM518 0H109V67H518Z" glyph-name="uni20AB" horiz-adv-x="629" unicode="&#8363;" /><glyph d="M612 410V322H423L709 0H585L271 359L545 700H665L424 410ZM246 700V0H138V322H37V410H138V700Z" glyph-name="uni20AD" horiz-adv-x="725" unicode="&#8365;" /><glyph d="M524 440 124 310V382L269 429V609H37V700H610V609H377V464L524 512ZM377 251V0H269V216L124 169V241L524 371V299Z" glyph-name="uni20AE" horiz-adv-x="647" unicode="&#8366;" /><glyph d="M512 475Q512 540 473.5 575Q435 610 365 610H267V340H365Q435 340 473.5 375Q512 410 512 475ZM364 250H267V0H161V359H37V430H161V514H39V584H161V700H364Q444 700 503 670Q562 640 591 584H725V514H613Q615 505 615.5 495.5Q616 486 616 475Q616 462 615 450.5Q614 439 612 430H725V359H588Q558 307 499.5 278.5Q441 250 364 250Z" glyph-name="uni20B1" horiz-adv-x="763" unicode="&#8369;" /><glyph d="M620 390H37V460H421Q435 474 441.5 490.5Q448 507 448 526Q448 572 413.5 598Q379 624 319 624Q272 624 229.5 612.5Q187 601 144 578V669Q185 689 232 700Q279 711 327 711Q428 711 490.5 661.5Q553 612 553 532Q553 512 547 493Q541 474 531 460H620ZM364 -11Q252 -11 183 38Q114 87 114 165Q114 188 122 210Q130 232 145 249H37V319H620V249H253Q236 234 227.5 216Q219 198 219 176Q219 129 259.5 103Q300 77 373 77Q429 77 483 92.5Q537 108 583 138V45Q541 19 481.5 4Q422 -11 364 -11Z" glyph-name="uni20B4" horiz-adv-x="657" unicode="&#8372;" /><glyph d="M609 620H37V700H609ZM269 469H37V549H610V469H377V0H269Z" glyph-name="uni20B8" horiz-adv-x="647" unicode="&#8376;" /><glyph d="M350 296Q391 229 457.5 144Q524 59 582 0H451Q404 48 349 121Q294 194 244 276H50L77 347H277Q321 359 350.5 386.5Q380 414 389 453H49L76 523H391Q381 574 336 602Q291 630 221 630H50L77 700H618L592 630H421Q450 611 468 584Q486 557 492 523H618L592 453H491Q481 399 444 358Q407 317 350 296Z" glyph-name="uni20B9" horiz-adv-x="660" unicode="&#8377;" /><glyph d="M439 -239Q395 -239 366.5 -213.5Q338 -188 338 -145Q338 -108 355 -74Q372 -40 409 -5V50Q376 22 331.5 5.5Q287 -11 242 -11Q163 -11 118 35.5Q73 82 73 163V513H176V189Q176 131 200.5 104.5Q225 78 276 78Q309 78 340 87.5Q371 97 409 121V513H513V10Q466 -10 438.5 -48Q411 -86 411 -124Q411 -145 423.5 -158Q436 -171 455 -171Q465 -171 471.5 -169.5Q478 -168 485 -165V-231Q473 -235 462.5 -237Q452 -239 439 -239Z" glyph-name="uogonek" horiz-adv-x="593" unicode="&#371;" /><glyph d="M409 513H513V10L409 -6V50Q376 22 331.5 5.5Q287 -11 242 -11Q163 -11 118 35.5Q73 82 73 163V513H176V189Q176 131 200.5 104.5Q225 78 276 78Q309 78 340 87.5Q371 97 409 121ZM292 810Q338 810 371 777.5Q404 745 404 700Q404 654 371 621.5Q338 589 292 589Q248 589 215 622Q182 655 182 700Q182 745 215 777.5Q248 810 292 810ZM292 759Q269 759 252 741.5Q235 724 235 700Q235 676 252 658.5Q269 641 292 641Q316 641 333.5 658.5Q351 676 351 700Q351 724 333.5 741.5Q316 759 292 759Z" glyph-name="uring" horiz-adv-x="593" unicode="&#367;" /><glyph d="M409 513H513V10L409 -6V50Q376 22 331.5 5.5Q287 -11 242 -11Q163 -11 118 35.5Q73 82 73 163V513H176V189Q176 131 200.5 104.5Q225 78 276 78Q309 78 340 87.5Q371 97 409 121ZM362 617Q346 617 329.5 627Q313 637 284 667Q260 693 248 700.5Q236 708 225 708Q206 708 195.5 689.5Q185 671 179 620H116Q118 696 149 744Q180 792 230 792Q246 792 262 782.5Q278 773 307 743Q331 717 343 709.5Q355 702 366 702Q385 702 395.5 720.5Q406 739 412 790H475Q473 713 442.5 665Q412 617 362 617Z" glyph-name="utilde" horiz-adv-x="593" unicode="&#361;" /><glyph d="M526 513 310 -3H224L8 513H119L273 125L424 513Z" glyph-name="v" horiz-adv-x="534" unicode="v" /><glyph d="M231 133 347 513H418L537 132L653 513H749L574 -3H495L378 370L262 -3H183L8 513H113Z" glyph-name="w" horiz-adv-x="757" unicode="w" /><glyph d="M231 133 347 513H418L537 132L653 513H749L574 -3H495L378 370L262 -3H183L8 513H113ZM534 791 403 604H338L406 791Z" glyph-name="wacute" horiz-adv-x="757" unicode="&#7811;" /><glyph d="M231 133 347 513H418L537 132L653 513H749L574 -3H495L378 370L262 -3H183L8 513H113ZM224 604 330 791H428L534 604H465L378 716L292 604Z" glyph-name="wcircumflex" horiz-adv-x="757" unicode="&#373;" /><glyph d="M231 133 347 513H418L537 132L653 513H749L574 -3H495L378 370L262 -3H183L8 513H113ZM474 643Q447 643 429.5 660.5Q412 678 412 704Q412 729 430 746.5Q448 764 474 764Q500 764 518 746.5Q536 729 536 704Q536 678 518 660.5Q500 643 474 643ZM284 643Q257 643 239 660.5Q221 678 221 704Q221 729 239 746.5Q257 764 284 764Q310 764 327.5 746.5Q345 729 345 704Q345 678 327.5 660.5Q310 643 284 643Z" glyph-name="wdieresis" horiz-adv-x="757" unicode="&#7813;" /><glyph d="M231 133 347 513H418L537 132L653 513H749L574 -3H495L378 370L262 -3H183L8 513H113ZM351 791 418 604H352L223 791Z" glyph-name="wgrave" horiz-adv-x="757" unicode="&#7809;" /><glyph d="M521 0H403L264 194L124 0H14L211 264L28 513H146L270 338L397 513H506L323 268Z" glyph-name="x" horiz-adv-x="535" unicode="x" /><glyph d="M34 -154Q95 -154 133.5 -114Q172 -74 219 38L8 513H119L273 145L425 513H526L302 5Q240 -134 183 -186.5Q126 -239 39 -239Q25 -239 11 -236.5Q-3 -234 -12 -230V-147Q-2 -150 10.5 -152Q23 -154 34 -154Z" glyph-name="y" horiz-adv-x="534" unicode="y" /><glyph d="M34 -154Q95 -154 133.5 -114Q172 -74 219 38L8 513H119L273 145L425 513H526L302 5Q240 -134 183 -186.5Q126 -239 39 -239Q25 -239 11 -236.5Q-3 -234 -12 -230V-147Q-2 -150 10.5 -152Q23 -154 34 -154ZM421 791 290 604H225L293 791Z" glyph-name="yacute" horiz-adv-x="534" unicode="&#253;" /><glyph d="M34 -154Q95 -154 133.5 -114Q172 -74 219 38L8 513H119L273 145L425 513H526L302 5Q240 -134 183 -186.5Q126 -239 39 -239Q25 -239 11 -236.5Q-3 -234 -12 -230V-147Q-2 -150 10.5 -152Q23 -154 34 -154ZM111 604 217 791H315L421 604H352L265 716L179 604Z" glyph-name="ycircumflex" horiz-adv-x="534" unicode="&#375;" /><glyph d="M34 -154Q95 -154 133.5 -114Q172 -74 219 38L8 513H119L273 145L425 513H526L302 5Q240 -134 183 -186.5Q126 -239 39 -239Q25 -239 11 -236.5Q-3 -234 -12 -230V-147Q-2 -150 10.5 -152Q23 -154 34 -154ZM361 643Q334 643 316.5 660.5Q299 678 299 704Q299 729 317 746.5Q335 764 361 764Q387 764 405 746.5Q423 729 423 704Q423 678 405 660.5Q387 643 361 643ZM171 643Q144 643 126 660.5Q108 678 108 704Q108 729 126 746.5Q144 764 171 764Q197 764 214.5 746.5Q232 729 232 704Q232 678 214.5 660.5Q197 643 171 643Z" glyph-name="ydieresis" horiz-adv-x="534" unicode="&#255;" /><glyph d="M575 441V371H103V441H231L30 700H152L342 447L528 700H647L446 441ZM575 300V229H391V0H287V229H103V300Z" glyph-name="yen" horiz-adv-x="678" unicode="&#165;" /><glyph d="M34 -154Q95 -154 133.5 -114Q172 -74 219 38L8 513H119L273 145L425 513H526L302 5Q240 -134 183 -186.5Q126 -239 39 -239Q25 -239 11 -236.5Q-3 -234 -12 -230V-147Q-2 -150 10.5 -152Q23 -154 34 -154ZM238 791 305 604H239L110 791Z" glyph-name="ygrave" horiz-adv-x="534" unicode="&#7923;" /><glyph d="M172 80H479L463 0H38V60L320 433H47V513H457V454Z" glyph-name="z" horiz-adv-x="501" unicode="z" /><glyph d="M172 80H479L463 0H38V60L320 433H47V513H457V454ZM414 791 283 604H218L286 791Z" glyph-name="zacute" horiz-adv-x="501" unicode="&#378;" /><glyph d="M172 80H479L463 0H38V60L320 433H47V513H457V454ZM414 791 308 604H210L104 791H172L258 678L345 791Z" glyph-name="zcaron" horiz-adv-x="501" unicode="&#382;" /><glyph d="M172 80H479L463 0H38V60L320 433H47V513H457V454ZM258 638Q230 638 211.5 656.5Q193 675 193 703Q193 731 211.5 749.5Q230 768 258 768Q287 768 305.5 749.5Q324 731 324 703Q324 675 305.5 656.5Q287 638 258 638Z" glyph-name="zdotaccent" horiz-adv-x="501" unicode="&#380;" /><glyph d="M39 350Q39 510 117.5 610.5Q196 711 320 711Q444 711 522 610.5Q600 510 600 350Q600 190 522 89.5Q444 -11 320 -11Q196 -11 117.5 89.5Q39 190 39 350ZM145 350Q145 231 192.5 157Q240 83 320 83Q399 83 446.5 156.5Q494 230 494 350Q494 470 446.5 543.5Q399 617 320 617Q240 617 192.5 543Q145 469 145 350Z" glyph-name="zero" horiz-adv-x="639" unicode="0" /><glyph d="M564 290Q564 160 488.5 74.5Q413 -11 302 -11Q190 -11 114.5 75Q39 161 39 290Q39 419 114.5 505Q190 591 302 591Q413 591 488.5 505.5Q564 420 564 290ZM142 290Q142 196 187 136Q232 76 302 76Q372 76 416.5 136Q461 196 461 290Q461 384 416.5 444Q372 504 302 504Q231 504 186.5 444Q142 384 142 290Z" glyph-name="zero.op" horiz-adv-x="603" /></font>
</defs>
</svg>
