<?xml version="1.0" encoding="UTF-8" standalone="no"?>
<svg viewBox="0 0 68 63" version="1.1" xmlns="http://www.w3.org/2000/svg" xmlns:xlink="http://www.w3.org/1999/xlink" xmlns:sketch="http://www.bohemiancoding.com/sketch/ns">
    <!-- Generator: Sketch 3.2.2 (9983) - http://www.bohemiancoding.com/sketch -->
    <title>alert</title>
    <desc>Created with Sketch.</desc>
    <defs>
        <rect id="path-1" x="0.0805826176" y="0.5" width="43.9194174" height="33.4142946"></rect>
    </defs>
    <g id="SVG-Assets" stroke="none" stroke-width="1" fill="none" fill-rule="evenodd" sketch:type="MSPage">
        <g id="alert" sketch:type="MSArtboardGroup">
            <g id="Manage-Illustration-2" sketch:type="MSLayerGroup" transform="translate(0.000000, 2.000000)">
                <g id="Card-Success">
                    <g id="Rectangle-16" transform="translate(0.000000, 27.000000)">
                        <mask id="mask-2" sketch:name="Mask" fill="white">
                            <use xlink:href="#path-1"></use>
                        </mask>
                        <g id="Mask">
                            <use sketch:type="MSShapeGroup" xlink:href="#path-1"></use>
                            <use xlink:href="#path-1"></use>
                        </g>
                        <path d="M29.3146013,25.3504644 L70.0723881,25.3504644 C72.8359816,25.3504644 75.0805826,23.1085056 75.0805826,20.3429092 L75.0805826,-16.6419804 C75.0805826,-19.4142467 72.8383376,-21.6495356 70.0723881,-21.6495356 L5.08877711,-21.6495356 C2.32518364,-21.6495356 0.0805826176,-19.4075767 0.0805826176,-16.6419804 L0.0805826176,20.3429092 C0.0805826176,23.1151756 2.32282767,25.3504644 5.08877711,25.3504644 L8.04757403,25.3504644 L15.1471043,32.4499947 C17.0977025,34.4005929 20.2619105,34.4031552 22.2119544,32.4531114 L29.3146013,25.3504644 Z" fill="#E5E5E5" sketch:type="MSShapeGroup" mask="url(#mask-2)"></path>
                    </g>
                    <path d="M34.0581413,47.3504644 L60.0717275,47.3504644 C63.3984592,47.3504644 66.0805826,44.6640289 66.0805826,41.3501427 L66.0805826,6.35078614 C66.0805826,3.04619809 63.3903265,0.350464432 60.0717275,0.350464432 L10.5894378,0.350464432 C7.26270604,0.350464432 4.58058262,3.03689997 4.58058262,6.35078614 L4.58058262,41.3501427 C4.58058262,44.6547308 7.27083871,47.3504644 10.5894378,47.3504644 L13.1799431,47.3504644 L19.3761369,53.5466583 C21.7200085,55.8905299 25.5153791,55.8932267 27.8546291,53.5539766 L34.0581413,47.3504644 Z" id="Rectangle-18" stroke="#F4608C" stroke-width="3" stroke-linejoin="round" fill="#FBD0DD" sketch:type="MSShapeGroup"></path>
                    <g id="Oval-88-+-1" transform="translate(20.000000, 10.500000)" fill="#F4608C" sketch:type="MSShapeGroup">
                        <path d="M20.0894531,22.1777778 L10.9957031,22.1777778 L10.9957031,19.541059 L14.2652344,19.541059 L14.2652344,7.47074653 C13.8199196,7.7051227 13.2984405,7.89848014 12.7007813,8.05082465 C12.103122,8.20316916 11.5503932,8.27934028 11.0425781,8.27934028 L11.0425781,5.57230903 C12.4722728,5.52543379 13.5777305,5.13871891 14.3589844,4.41215278 L17.1832031,4.41215278 L17.1832031,19.541059 L20.0894531,19.541059 L20.0894531,22.1777778 Z" id="1"></path>
                    </g>
                </g>
            </g>
        </g>
    </g>
</svg>