<?xml version="1.0" encoding="UTF-8" standalone="no"?>
<svg viewBox="0 0 130 83" version="1.1" xmlns="http://www.w3.org/2000/svg" xmlns:xlink="http://www.w3.org/1999/xlink" xmlns:sketch="http://www.bohemiancoding.com/sketch/ns">
    <!-- Generator: Sketch 3.2.2 (9983) - http://www.bohemiancoding.com/sketch -->
    <title>card-pre</title>
    <desc>Created with Sketch.</desc>
    <defs></defs>
    <g id="SVG-Assets" stroke="none" stroke-width="1" fill="none" fill-rule="evenodd" sketch:type="MSPage">
        <g id="card-pre" sketch:type="MSArtboardGroup">
            <g sketch:type="MSLayerGroup" transform="translate(2.000000, 2.000000)" id="Small-Breakpoint-(Copy-is-up-to-date)">
                <g sketch:type="MSShapeGroup">
                    <g id="02---Small---Activate">
                        <g id="Serve-Card-2">
                            <rect id="Rectangle-15" stroke="#0063B0" stroke-width="3" fill="#FFFFFF" x="0" y="0" width="126" height="79" rx="4"></rect>
                            <g id="Serve-Logo" transform="translate(36.500000, 25.500000)" fill="#0063B0">
                                <path d="M4.4939353,16.5571429 C6.7593367,16.5571429 8.4991776,15.3713835 8.4991776,12.9127986 L8.4991776,12.8713384 C8.4991776,10.8472555 6.7985577,9.9616674 5.3340478,9.4450744 C4.2005626,9.0321316 3.2035664,8.7419108 3.2035664,8.1233258 L3.2035664,8.0810365 C3.2035664,7.64736368 3.5753809,7.27339342 4.2978306,7.27339342 C5.0618545,7.27339342 6.0957184,7.66726453 7.1319357,8.3065795 L8.2646364,6.01051825 C7.1319357,5.20536278 5.6870363,4.72857143 4.3558776,4.72857143 C2.2473598,4.72857143 0.5271294,6.21035602 0.5271294,8.2410726 L0.5271294,8.2825327 C0.5271294,10.4293375 2.1869596,11.3240469 3.6546072,11.779279 C4.8069184,12.1507616 5.8227407,12.5197566 5.8227407,13.201361 L5.8227407,13.2436503 C5.8227407,13.7370257 5.4321001,14.0695358 4.5715927,14.0695358 C3.5949913,14.0695358 2.4026748,13.6159621 1.2691896,12.7477873 L0,14.8125011 C1.3782238,16.0339162 3.028641,16.5571429 4.4939353,16.5571429 L4.4939353,16.5571429 L4.4939353,16.5571429 Z M27.4588816,5.39135738 C25.6361846,5.3126881 24.6241166,6.05847289 23.9970569,7.50834775 L23.9970569,5.39135738 L20.9210526,5.39135738 L20.9210526,15.9 L23.9970569,15.9 L23.9970569,12.0184577 C23.9970569,9.5096943 25.2536131,8.3115611 27.2972431,8.3115611 L27.4588816,8.3115611 L27.4588816,5.39135738 L27.4588816,5.39135738 Z M19.6134868,11.2317093 C19.6134868,8.1892984 17.982899,5.38571429 14.4218175,5.38571429 C11.2667748,5.38571429 9.1529605,7.92942242 9.1529605,10.9904538 C9.1529605,14.2741203 11.4975335,16.5571429 14.7217234,16.5571429 C17.5873126,16.5571429 18.8842249,14.8043968 19.0763899,14.5542358 L17.3485135,13.0136004 C17.1587607,13.1989948 16.3595476,14.1146325 14.7595132,14.1146325 C12.7068057,14.1146325 12.2195591,12.4954676 12.1584523,12.0145756 L19.574089,12.0145756 C19.5925819,11.7320313 19.6134868,11.5320644 19.6134868,11.2317093 L19.6134868,11.2317093 L19.6134868,11.2317093 Z M12.421875,9.9857143 C12.4541891,9.5489391 12.9445551,8.0142857 14.7371782,8.0142857 C16.5621153,8.0142857 16.9692726,9.5244797 16.9983553,9.9857143 L12.421875,9.9857143 L12.421875,9.9857143 Z M33.7131654,12.3750249 L31.3299223,5.38571429 L28.1126645,5.38571429 L32.1952426,15.9 L35.0392407,15.9 L39.2269737,5.38571429 L36.1164762,5.38571429 L33.7131654,12.3750249 L33.7131654,12.3750249 Z M49.6875,11.2317093 C49.6875,8.1892984 48.0577162,5.38571429 44.4990468,5.38571429 C41.3391799,5.38571429 39.2269737,7.92942242 39.2269737,10.9904538 C39.2269737,14.2741203 41.5715467,16.5571429 44.7957366,16.5571429 C47.6629339,16.5571429 48.955826,14.8043968 49.1520111,14.5542358 L47.4193106,13.0136004 C47.2311658,13.1989948 46.4351688,14.1146325 44.8351344,14.1146325 C42.7792108,14.1146325 42.2927682,12.4954676 42.2340735,12.0145756 L49.6497102,12.0145756 C49.6682031,11.7304121 49.6875,11.5320644 49.6875,11.2317093 L49.6875,11.2317093 L49.6875,11.2317093 Z M41.8421053,9.9857143 C41.875233,9.5490939 42.3624537,8.0142857 44.1618572,8.0142857 C45.9863085,8.0142857 46.3919217,9.5246431 46.4185855,9.9857143 L41.8421053,9.9857143 L41.8421053,9.9857143 Z" id="Fill-1"></path>
                                <g id="®" transform="translate(50.000000, 4.000000)">
                                    <path d="M1.31338178,0.593240093 C1.50471917,0.593240093 1.68828377,0.641073725 1.86408108,0.736742424 C2.03987838,0.832411122 2.17803745,0.96959895 2.27856243,1.14831002 C2.37908741,1.32702109 2.42934914,1.51398504 2.42934914,1.70920746 C2.42934914,1.90345862 2.38005865,2.08872289 2.28147618,2.26500583 C2.18289371,2.44128876 2.04546308,2.5787194 1.86918014,2.67730186 C1.69289721,2.77588433 1.50763294,2.82517482 1.31338178,2.82517482 C1.11913061,2.82517482 0.933866342,2.77588433 0.757583409,2.67730186 C0.581300476,2.5787194 0.443869839,2.44128876 0.345287372,2.26500583 C0.246704906,2.08872289 0.197414412,1.90345862 0.197414412,1.70920746 C0.197414412,1.51398504 0.247676147,1.32702109 0.348201125,1.14831002 C0.448726103,0.96959895 0.586885172,0.832411122 0.762682477,0.736742424 C0.938479781,0.641073725 1.12204438,0.593240093 1.31338178,0.593240093 L1.31338178,0.593240093 Z M1.31483865,0.811771561 C1.16138023,0.811771561 1.01423718,0.850135591 0.873405087,0.926864801 C0.732572992,1.00359401 0.621608679,1.11382989 0.540508817,1.25757576 C0.459408956,1.40132162 0.418859633,1.55186401 0.418859633,1.70920746 C0.418859633,1.86557965 0.458437714,2.01466518 0.537595064,2.15646853 C0.616752414,2.29827188 0.727231107,2.40899338 0.869034458,2.48863636 C1.01083781,2.56827934 1.15943772,2.60810023 1.31483865,2.60810023 C1.47121084,2.60810023 1.62005356,2.56827934 1.76137129,2.48863636 C1.90268901,2.40899338 2.0131677,2.29827188 2.09281068,2.15646853 C2.17245366,2.01466518 2.21227455,1.86557965 2.21227455,1.70920746 C2.21227455,1.55186401 2.17172523,1.40132162 2.09062537,1.25757576 C2.0095255,1.11382989 1.89831838,1.00359401 1.75700066,0.926864801 C1.61568293,0.850135591 1.46829707,0.811771561 1.31483865,0.811771561 L1.31483865,0.811771561 Z M0.809302523,2.3065268 L0.809302523,1.12208625 L1.04968714,1.12208625 C1.27501849,1.12208625 1.40127985,1.12305749 1.42847502,1.125 C1.50811799,1.13179879 1.57003462,1.14758146 1.61422676,1.17234848 C1.6584189,1.19711551 1.69532607,1.23499392 1.72494938,1.28598485 C1.75457268,1.33697578 1.76938411,1.39355058 1.76938411,1.45571095 C1.76938411,1.54118147 1.74146092,1.61426737 1.68561371,1.67497086 C1.6297665,1.73567435 1.55133877,1.77330995 1.45032816,1.78787879 C1.48626463,1.80147637 1.513945,1.8162878 1.53337012,1.83231352 C1.55279524,1.84833924 1.57950437,1.87869053 1.61349833,1.9233683 C1.62223963,1.93502337 1.65137687,1.98309981 1.70091091,2.06759907 L1.84077105,2.3065268 L1.54356826,2.3065268 L1.44450066,2.11421911 C1.37748401,1.98504209 1.32212325,1.90370063 1.27841674,1.87019231 C1.23471023,1.83668398 1.17934948,1.81993007 1.11233283,1.81993007 L1.04968714,1.81993007 L1.04968714,2.3065268 L0.809302523,2.3065268 Z M1.04968714,1.63344988 L1.14729786,1.63344988 C1.28618744,1.63344988 1.37238511,1.62810805 1.40589343,1.61742424 C1.43940176,1.60674043 1.46586808,1.58804403 1.4852932,1.5613345 C1.50471832,1.53462496 1.51443073,1.50427367 1.51443073,1.47027972 C1.51443073,1.43725702 1.50496113,1.40787697 1.48602164,1.38213869 C1.46708215,1.35640041 1.4401302,1.33794683 1.40516499,1.32677739 C1.37019978,1.31560795 1.28424493,1.31002331 1.14729786,1.31002331 L1.04968714,1.31002331 L1.04968714,1.63344988 Z"></path>
                                </g>
                                <g id="Imported-Layers" transform="translate(0.000000, 0.287879)">
                                    <path d="M14.3124614,1.10122187 C14.3124614,0.509685781 13.7918494,0.411755894 13.2573808,0.411755894 L12.5299096,0.411755894 L11.6341798,0.411755894 L11.6341798,2.58105129 L12.5299096,2.58105129 L12.5299096,1.77584999 L12.6011721,1.77584999 L13.2821247,2.58105129 L14.5401054,2.58105129 L13.6245805,1.72737964 C14.0640325,1.65220114 14.3124614,1.42270888 14.3124614,1.10122187 L14.3124614,1.10122187 L14.3124614,1.10122187 Z M13.0614089,1.3880872 L12.5299096,1.3880872 L12.5299096,0.873707991 L13.0633884,0.873707991 C13.2514422,0.873707991 13.3870389,0.964713543 13.3870389,1.13287598 C13.3870389,1.3020276 13.2474832,1.3880872 13.0614089,1.3880872 L13.0614089,1.3880872 L13.0614089,1.3880872 Z M18.0963012,0.359328782 C18.4951731,0.359328782 18.7921001,0.417691038 18.9544202,0.479020867 L18.9544202,1.0121947 C18.7891309,0.969659497 18.5545585,0.918221576 18.2526827,0.918221576 C18.1032295,0.918221576 17.401492,0.940972964 17.401492,1.51371443 C17.401492,2.0864559 18.1032295,2.09140185 18.2526827,2.09140185 C18.5278351,2.09140185 18.7891309,2.04194231 18.9544202,1.99940711 L18.9544202,2.53159175 C18.7921001,2.59391077 18.4951731,2.65029464 18.0963012,2.65029464 C17.6281463,2.65029464 16.4097558,2.52466741 16.4097558,1.51371443 C16.4097558,0.503750637 17.6281463,0.359328782 18.0963012,0.359328782 L18.0963012,0.359328782 L18.0963012,0.359328782 Z M14.9231413,0.411755894 L15.8713282,0.411755894 L15.8713282,2.58105129 L14.9231413,2.58105129 L14.9231413,0.411755894 L14.9231413,0.411755894 Z M8.74211076,0.411755894 L10.9769814,0.411755894 L10.9769814,0.855902557 L9.73186744,0.855902557 L9.73186744,1.26245997 L10.9769814,1.26245997 L10.9769814,1.68187686 L9.73186744,1.68187686 L9.73186744,2.10623971 L10.9769814,2.10623971 L10.9769814,2.58105129 L8.74211076,2.58105129 L8.74211076,0.411755894 L8.74211076,0.411755894 Z M1.80787542,0.411755894 L0.697368421,2.58105129 L1.60794457,2.58105129 L1.81282421,2.15471006 L2.95500342,2.15471006 L3.16087281,2.58105129 L4.12687534,2.58105129 L3.01438882,0.411755894 L1.80787542,0.411755894 L1.80787542,0.411755894 Z M2.0483863,1.66308224 L2.38391381,0.962735162 L2.71944133,1.66308224 L2.0483863,1.66308224 L2.0483863,1.66308224 Z M7.74047699,0.411755894 L8.26603779,2.58105129 L7.36733872,2.58105129 L7.07041172,1.35247633 L6.49635284,2.58105129 L5.92922226,2.58105129 L5.35417363,1.35247633 L5.05823638,2.58105129 L4.21496368,2.58105129 L4.74052448,0.411755894 L5.70157822,0.411755894 L6.21427218,1.48403871 L6.72300712,0.411755894 L7.74047699,0.411755894 L7.74047699,0.411755894 Z M33.3237078,1.46227651 L34.3283108,2.58105129 L33.2613531,2.58105129 L32.6744274,1.88565017 L32.0884915,2.58105129 L31.020544,2.58105129 L32.029106,1.46227651 L31.1224889,0.411755894 L32.2062725,0.411755894 L32.6744274,0.990432504 L33.1435721,0.411755894 L34.2283454,0.411755894 L33.3237078,1.46227651 L33.3237078,1.46227651 Z M41.1685193,0.411755894 L43.4053694,0.411755894 L43.4053694,0.855902557 L42.1572862,0.855902557 L42.1572862,1.26245997 L43.4053694,1.26245997 L43.4053694,1.68187686 L42.1572862,1.68187686 L42.1572862,2.10623971 L43.4053694,2.10623971 L43.4053694,2.58105129 L41.1685193,2.58105129 L41.1685193,0.411755894 L41.1685193,0.411755894 Z M46.5013283,1.9351097 C46.5013283,2.15569925 46.3202028,2.65029464 45.2146446,2.65029464 C44.306048,2.65029464 44.0180288,2.46729435 43.8240365,2.35749417 L44.0704859,1.96973138 C44.4515422,2.11909919 44.749459,2.12503434 44.9652259,2.12305595 C45.1958392,2.12008838 45.4096267,2.07755318 45.4116062,1.9360989 C45.4135857,1.78772028 45.2671017,1.75210941 44.9216766,1.72540126 C44.6009955,1.70166068 43.939838,1.61164432 43.9348892,1.10122187 C43.9289507,0.603658906 44.4139315,0.361307163 45.1750543,0.361307163 C45.5867931,0.361307163 46.0955281,0.424615374 46.4528302,0.617507577 L46.1460057,0.999335221 C45.863925,0.900416142 45.6501376,0.878653945 45.4333808,0.878653945 C45.1997983,0.878653945 44.9592874,0.921189149 44.9592874,1.08242725 C44.9592874,1.24465454 45.2077163,1.25058968 45.3848828,1.27136269 C45.611537,1.29708165 45.904505,1.30103841 46.1400671,1.40688182 C46.421158,1.53250905 46.5013283,1.70561744 46.5013283,1.9351097 L46.5013283,1.9351097 L46.5013283,1.9351097 Z M49.5131579,1.9351097 C49.5131579,2.15569925 49.3330222,2.65029464 48.2284537,2.65029464 C47.3188673,2.65029464 46.9882886,2.46729435 46.7933065,2.35749417 L47.084295,1.96973138 C47.4643616,2.11909919 47.7612886,2.12503434 47.9780453,2.12305595 C48.2076688,2.12008838 48.4234358,2.07755318 48.4244255,1.9360989 C48.4283846,1.78772028 48.2819006,1.75210941 47.934496,1.72540126 C47.6138148,1.70166068 46.9091081,1.61164432 46.9041593,1.10122187 C46.8982207,0.603658906 47.4277406,0.361307163 48.1878737,0.361307163 C48.6006022,0.361307163 49.1083474,0.424615374 49.4676291,0.617507577 L49.1578352,0.999335221 C48.8777341,0.900416142 48.6619671,0.878653945 48.4462002,0.878653945 C48.2126176,0.878653945 47.9721067,0.921189149 47.9721067,1.08242725 C47.9721067,1.24465454 48.2205357,1.25058968 48.3977021,1.27136269 C48.6253461,1.29708165 48.9173244,1.30103841 49.1518967,1.40688182 C49.4339774,1.53250905 49.5131579,1.70561744 49.5131579,1.9351097 L49.5131579,1.9351097 L49.5131579,1.9351097 Z M40.5281467,1.10122187 C40.5281467,0.509685781 40.0065449,0.411755894 39.4730661,0.411755894 L38.7446052,0.411755894 L37.8488754,0.411755894 L37.8488754,2.58105129 L38.7446052,2.58105129 L38.7446052,1.77584999 L38.8168574,1.77584999 L39.4968202,2.58105129 L40.754801,2.58105129 L39.8402658,1.72737964 C40.278728,1.65220114 40.5281467,1.42270888 40.5281467,1.10122187 L40.5281467,1.10122187 L40.5281467,1.10122187 Z M39.2770943,1.3880872 L38.7446052,1.3880872 L38.7446052,0.873707991 L39.278084,0.873707991 C39.4671275,0.873707991 39.6027242,0.964713543 39.6027242,1.13287598 C39.6027242,1.3020276 39.4631685,1.3880872 39.2770943,1.3880872 L39.2770943,1.3880872 L39.2770943,1.3880872 Z M25.3710128,0.411755894 L26.2657529,0.411755894 L26.2657529,2.58105129 L25.2354162,2.58105129 L23.914091,1.35643309 L23.914091,2.58105129 L23.0193509,2.58105129 L23.0193509,0.411755894 L24.0378106,0.411755894 L25.3710128,1.64132004 L25.3710128,0.411755894 L25.3710128,0.411755894 Z M20.326223,0.411755894 L19.2137365,2.58105129 L20.1262922,2.58105129 L20.330182,2.15471006 L21.473351,2.15471006 L21.6782306,2.58105129 L22.6442332,2.58105129 L21.5327364,0.411755894 L20.326223,0.411755894 L20.326223,0.411755894 Z M20.5657441,1.66308224 L20.9022614,0.962735162 L21.2377889,1.66308224 L20.5657441,1.66308224 L20.5657441,1.66308224 Z M28.3036619,0.411755894 L30.540512,0.411755894 L30.540512,0.855902557 L29.2934186,0.855902557 L29.2934186,1.26245997 L30.540512,1.26245997 L30.540512,1.68187686 L29.2934186,1.68187686 L29.2934186,2.10623971 L30.540512,2.10623971 L30.540512,2.58105129 L28.3036619,2.58105129 L28.3036619,0.411755894 L28.3036619,0.411755894 Z M36.3553325,0.411755894 L35.6882365,0.411755894 L34.7934965,0.411755894 L34.7934965,2.58105129 L35.6882365,2.58105129 L35.6882365,1.81146086 L36.2751622,1.81146086 C36.5463556,1.81146086 36.7779586,1.78969866 36.987787,1.70166068 C37.2332467,1.59878484 37.4114029,1.42270888 37.4114029,1.10122187 C37.4114029,0.509685781 36.8907909,0.411755894 36.3553325,0.411755894 L36.3553325,0.411755894 L36.3553325,0.411755894 Z M36.1603505,1.34753038 L35.6882365,1.34753038 L35.6882365,0.855902557 L36.16233,0.855902557 C36.349394,0.855902557 36.4849906,0.925145912 36.4849906,1.09330835 C36.4849906,1.26245997 36.345435,1.34753038 36.1603505,1.34753038 L36.1603505,1.34753038 L36.1603505,1.34753038 Z" id="Fill-1"></path>
                                </g>
                            </g>
                        </g>
                    </g>
                </g>
            </g>
        </g>
    </g>
</svg>