<?xml version="1.0" encoding="UTF-8" standalone="no"?>
<svg viewBox="0 0 130 83" version="1.1" xmlns="http://www.w3.org/2000/svg" xmlns:xlink="http://www.w3.org/1999/xlink" xmlns:sketch="http://www.bohemiancoding.com/sketch/ns">
    <!-- Generator: Sketch 3.2.2 (9983) - http://www.bohemiancoding.com/sketch -->
    <title>card</title>
    <desc>Created with Sketch.</desc>
    <defs></defs>
    <g id="SVG-Assets" stroke="none" stroke-width="1" fill="none" fill-rule="evenodd" sketch:type="MSPage">
        <g id="card" sketch:type="MSArtboardGroup">
            <g sketch:type="MSLayerGroup" transform="translate(2.000000, 2.000000)" id="Page-1">
                <g sketch:type="MSShapeGroup">
                    <g id="Serve-Card-2">
                        <rect id="Rectangle-15" stroke="#0063B0" stroke-width="3" fill="#FFFFFF" x="0" y="0" width="126" height="79" rx="4"></rect>
                        <g id="Serve-Logo" transform="translate(36.500000, 25.500000)" fill="#0063B0">
                            <path d="M4.4939353,16.5571429 C6.7593367,16.5571429 8.4991776,15.3713835 8.4991776,12.9127986 L8.4991776,12.8713384 C8.4991776,10.8472555 6.7985577,9.9616674 5.3340478,9.4450744 C4.2005626,9.0321316 3.2035664,8.7419108 3.2035664,8.1233258 L3.2035664,8.0810365 C3.2035664,7.64736368 3.5753809,7.27339342 4.2978306,7.27339342 C5.0618545,7.27339342 6.0957184,7.66726453 7.1319357,8.3065795 L8.2646364,6.01051825 C7.1319357,5.20536278 5.6870363,4.72857143 4.3558776,4.72857143 C2.2473598,4.72857143 0.5271294,6.21035602 0.5271294,8.2410726 L0.5271294,8.2825327 C0.5271294,10.4293375 2.1869596,11.3240469 3.6546072,11.779279 C4.8069184,12.1507616 5.8227407,12.5197566 5.8227407,13.201361 L5.8227407,13.2436503 C5.8227407,13.7370257 5.4321001,14.0695358 4.5715927,14.0695358 C3.5949913,14.0695358 2.4026748,13.6159621 1.2691896,12.7477873 L0,14.8125011 C1.3782238,16.0339162 3.028641,16.5571429 4.4939353,16.5571429 L4.4939353,16.5571429 L4.4939353,16.5571429 Z M27.4588816,5.39135738 C25.6361846,5.3126881 24.6241166,6.05847289 23.9970569,7.50834775 L23.9970569,5.39135738 L20.9210526,5.39135738 L20.9210526,15.9 L23.9970569,15.9 L23.9970569,12.0184577 C23.9970569,9.5096943 25.2536131,8.3115611 27.2972431,8.3115611 L27.4588816,8.3115611 L27.4588816,5.39135738 L27.4588816,5.39135738 Z M19.6134868,11.2317093 C19.6134868,8.1892984 17.982899,5.38571429 14.4218175,5.38571429 C11.2667748,5.38571429 9.1529605,7.92942242 9.1529605,10.9904538 C9.1529605,14.2741203 11.4975335,16.5571429 14.7217234,16.5571429 C17.5873126,16.5571429 18.8842249,14.8043968 19.0763899,14.5542358 L17.3485135,13.0136004 C17.1587607,13.1989948 16.3595476,14.1146325 14.7595132,14.1146325 C12.7068057,14.1146325 12.2195591,12.4954676 12.1584523,12.0145756 L19.574089,12.0145756 C19.5925819,11.7320313 19.6134868,11.5320644 19.6134868,11.2317093 L19.6134868,11.2317093 L19.6134868,11.2317093 Z M12.421875,9.9857143 C12.4541891,9.5489391 12.9445551,8.0142857 14.7371782,8.0142857 C16.5621153,8.0142857 16.9692726,9.5244797 16.9983553,9.9857143 L12.421875,9.9857143 L12.421875,9.9857143 Z M33.7131654,12.3750249 L31.3299223,5.38571429 L28.1126645,5.38571429 L32.1952426,15.9 L35.0392407,15.9 L39.2269737,5.38571429 L36.1164762,5.38571429 L33.7131654,12.3750249 L33.7131654,12.3750249 Z M49.6875,11.2317093 C49.6875,8.1892984 48.0577162,5.38571429 44.4990468,5.38571429 C41.3391799,5.38571429 39.2269737,7.92942242 39.2269737,10.9904538 C39.2269737,14.2741203 41.5715467,16.5571429 44.7957366,16.5571429 C47.6629339,16.5571429 48.955826,14.8043968 49.1520111,14.5542358 L47.4193106,13.0136004 C47.2311658,13.1989948 46.4351688,14.1146325 44.8351344,14.1146325 C42.7792108,14.1146325 42.2927682,12.4954676 42.2340735,12.0145756 L49.6497102,12.0145756 C49.6682031,11.7304121 49.6875,11.5320644 49.6875,11.2317093 L49.6875,11.2317093 L49.6875,11.2317093 Z M41.8421053,9.9857143 C41.875233,9.5490939 42.3624537,8.0142857 44.1618572,8.0142857 C45.9863085,8.0142857 46.3919217,9.5246431 46.4185855,9.9857143 L41.8421053,9.9857143 L41.8421053,9.9857143 Z" id="Fill-1"></path>
                            <g id="®" transform="translate(50.000000, 4.000000)">
                                <path d="M1.31338178,0.593240093 C1.50471917,0.593240093 1.68828377,0.641073725 1.86408108,0.736742424 C2.03987838,0.832411122 2.17803745,0.96959895 2.27856243,1.14831002 C2.37908741,1.32702109 2.42934914,1.51398504 2.42934914,1.70920746 C2.42934914,1.90345862 2.38005865,2.08872289 2.28147618,2.26500583 C2.18289371,2.44128876 2.04546308,2.5787194 1.86918014,2.67730186 C1.69289721,2.77588433 1.50763294,2.82517482 1.31338178,2.82517482 C1.11913061,2.82517482 0.933866342,2.77588433 0.757583409,2.67730186 C0.581300476,2.5787194 0.443869839,2.44128876 0.345287372,2.26500583 C0.246704906,2.08872289 0.197414412,1.90345862 0.197414412,1.70920746 C0.197414412,1.51398504 0.247676147,1.32702109 0.348201125,1.14831002 C0.448726103,0.96959895 0.586885172,0.832411122 0.762682477,0.736742424 C0.938479781,0.641073725 1.12204438,0.593240093 1.31338178,0.593240093 L1.31338178,0.593240093 Z M1.31483865,0.811771561 C1.16138023,0.811771561 1.01423718,0.850135591 0.873405087,0.926864801 C0.732572992,1.00359401 0.621608679,1.11382989 0.540508817,1.25757576 C0.459408956,1.40132162 0.418859633,1.55186401 0.418859633,1.70920746 C0.418859633,1.86557965 0.458437714,2.01466518 0.537595064,2.15646853 C0.616752414,2.29827188 0.727231107,2.40899338 0.869034458,2.48863636 C1.01083781,2.56827934 1.15943772,2.60810023 1.31483865,2.60810023 C1.47121084,2.60810023 1.62005356,2.56827934 1.76137129,2.48863636 C1.90268901,2.40899338 2.0131677,2.29827188 2.09281068,2.15646853 C2.17245366,2.01466518 2.21227455,1.86557965 2.21227455,1.70920746 C2.21227455,1.55186401 2.17172523,1.40132162 2.09062537,1.25757576 C2.0095255,1.11382989 1.89831838,1.00359401 1.75700066,0.926864801 C1.61568293,0.850135591 1.46829707,0.811771561 1.31483865,0.811771561 L1.31483865,0.811771561 Z M0.809302523,2.3065268 L0.809302523,1.12208625 L1.04968714,1.12208625 C1.27501849,1.12208625 1.40127985,1.12305749 1.42847502,1.125 C1.50811799,1.13179879 1.57003462,1.14758146 1.61422676,1.17234848 C1.6584189,1.19711551 1.69532607,1.23499392 1.72494938,1.28598485 C1.75457268,1.33697578 1.76938411,1.39355058 1.76938411,1.45571095 C1.76938411,1.54118147 1.74146092,1.61426737 1.68561371,1.67497086 C1.6297665,1.73567435 1.55133877,1.77330995 1.45032816,1.78787879 C1.48626463,1.80147637 1.513945,1.8162878 1.53337012,1.83231352 C1.55279524,1.84833924 1.57950437,1.87869053 1.61349833,1.9233683 C1.62223963,1.93502337 1.65137687,1.98309981 1.70091091,2.06759907 L1.84077105,2.3065268 L1.54356826,2.3065268 L1.44450066,2.11421911 C1.37748401,1.98504209 1.32212325,1.90370063 1.27841674,1.87019231 C1.23471023,1.83668398 1.17934948,1.81993007 1.11233283,1.81993007 L1.04968714,1.81993007 L1.04968714,2.3065268 L0.809302523,2.3065268 Z M1.04968714,1.63344988 L1.14729786,1.63344988 C1.28618744,1.63344988 1.37238511,1.62810805 1.40589343,1.61742424 C1.43940176,1.60674043 1.46586808,1.58804403 1.4852932,1.5613345 C1.50471832,1.53462496 1.51443073,1.50427367 1.51443073,1.47027972 C1.51443073,1.43725702 1.50496113,1.40787697 1.48602164,1.38213869 C1.46708215,1.35640041 1.4401302,1.33794683 1.40516499,1.32677739 C1.37019978,1.31560795 1.28424493,1.31002331 1.14729786,1.31002331 L1.04968714,1.31002331 L1.04968714,1.63344988 Z"></path>
                            </g>
                            <g id="Imported-Layers" transform="translate(0.000000, 0.287879)">
                                <path d="M14.3124614,1.10122187 C14.3124614,0.509685781 13.7918494,0.411755894 13.2573808,0.411755894 L12.5299096,0.411755894 L11.6341798,0.411755894 L11.6341798,2.58105129 L12.5299096,2.58105129 L12.5299096,1.77584999 L12.6011721,1.77584999 L13.2821247,2.58105129 L14.5401054,2.58105129 L13.6245805,1.72737964 C14.0640325,1.65220114 14.3124614,1.42270888 14.3124614,1.10122187 L14.3124614,1.10122187 L14.3124614,1.10122187 Z M13.0614089,1.3880872 L12.5299096,1.3880872 L12.5299096,0.873707991 L13.0633884,0.873707991 C13.2514422,0.873707991 13.3870389,0.964713543 13.3870389,1.13287598 C13.3870389,1.3020276 13.2474832,1.3880872 13.0614089,1.3880872 L13.0614089,1.3880872 L13.0614089,1.3880872 Z M18.0963012,0.359328782 C18.4951731,0.359328782 18.7921001,0.417691038 18.9544202,0.479020867 L18.9544202,1.0121947 C18.7891309,0.969659497 18.5545585,0.918221576 18.2526827,0.918221576 C18.1032295,0.918221576 17.401492,0.940972964 17.401492,1.51371443 C17.401492,2.0864559 18.1032295,2.09140185 18.2526827,2.09140185 C18.5278351,2.09140185 18.7891309,2.04194231 18.9544202,1.99940711 L18.9544202,2.53159175 C18.7921001,2.59391077 18.4951731,2.65029464 18.0963012,2.65029464 C17.6281463,2.65029464 16.4097558,2.52466741 16.4097558,1.51371443 C16.4097558,0.503750637 17.6281463,0.359328782 18.0963012,0.359328782 L18.0963012,0.359328782 L18.0963012,0.359328782 Z M14.9231413,0.411755894 L15.8713282,0.411755894 L15.8713282,2.58105129 L14.9231413,2.58105129 L14.9231413,0.411755894 L14.9231413,0.411755894 Z M8.74211076,0.411755894 L10.9769814,0.411755894 L10.9769814,0.855902557 L9.73186744,0.855902557 L9.73186744,1.26245997 L10.9769814,1.26245997 L10.9769814,1.68187686 L9.73186744,1.68187686 L9.73186744,2.10623971 L10.9769814,2.10623971 L10.9769814,2.58105129 L8.74211076,2.58105129 L8.74211076,0.411755894 L8.74211076,0.411755894 Z M1.80787542,0.411755894 L0.697368421,2.58105129 L1.60794457,2.58105129 L1.81282421,2.15471006 L2.95500342,2.15471006 L3.16087281,2.58105129 L4.12687534,2.58105129 L3.01438882,0.411755894 L1.80787542,0.411755894 L1.80787542,0.411755894 Z M2.0483863,1.66308224 L2.38391381,0.962735162 L2.71944133,1.66308224 L2.0483863,1.66308224 L2.0483863,1.66308224 Z M7.74047699,0.411755894 L8.26603779,2.58105129 L7.36733872,2.58105129 L7.07041172,1.35247633 L6.49635284,2.58105129 L5.92922226,2.58105129 L5.35417363,1.35247633 L5.05823638,2.58105129 L4.21496368,2.58105129 L4.74052448,0.411755894 L5.70157822,0.411755894 L6.21427218,1.48403871 L6.72300712,0.411755894 L7.74047699,0.411755894 L7.74047699,0.411755894 Z M33.3237078,1.46227651 L34.3283108,2.58105129 L33.2613531,2.58105129 L32.6744274,1.88565017 L32.0884915,2.58105129 L31.020544,2.58105129 L32.029106,1.46227651 L31.1224889,0.411755894 L32.2062725,0.411755894 L32.6744274,0.990432504 L33.1435721,0.411755894 L34.2283454,0.411755894 L33.3237078,1.46227651 L33.3237078,1.46227651 Z M41.1685193,0.411755894 L43.4053694,0.411755894 L43.4053694,0.855902557 L42.1572862,0.855902557 L42.1572862,1.26245997 L43.4053694,1.26245997 L43.4053694,1.68187686 L42.1572862,1.68187686 L42.1572862,2.10623971 L43.4053694,2.10623971 L43.4053694,2.58105129 L41.1685193,2.58105129 L41.1685193,0.411755894 L41.1685193,0.411755894 Z M46.5013283,1.9351097 C46.5013283,2.15569925 46.3202028,2.65029464 45.2146446,2.65029464 C44.306048,2.65029464 44.0180288,2.46729435 43.8240365,2.35749417 L44.0704859,1.96973138 C44.4515422,2.11909919 44.749459,2.12503434 44.9652259,2.12305595 C45.1958392,2.12008838 45.4096267,2.07755318 45.4116062,1.9360989 C45.4135857,1.78772028 45.2671017,1.75210941 44.9216766,1.72540126 C44.6009955,1.70166068 43.939838,1.61164432 43.9348892,1.10122187 C43.9289507,0.603658906 44.4139315,0.361307163 45.1750543,0.361307163 C45.5867931,0.361307163 46.0955281,0.424615374 46.4528302,0.617507577 L46.1460057,0.999335221 C45.863925,0.900416142 45.6501376,0.878653945 45.4333808,0.878653945 C45.1997983,0.878653945 44.9592874,0.921189149 44.9592874,1.08242725 C44.9592874,1.24465454 45.2077163,1.25058968 45.3848828,1.27136269 C45.611537,1.29708165 45.904505,1.30103841 46.1400671,1.40688182 C46.421158,1.53250905 46.5013283,1.70561744 46.5013283,1.9351097 L46.5013283,1.9351097 L46.5013283,1.9351097 Z M49.5131579,1.9351097 C49.5131579,2.15569925 49.3330222,2.65029464 48.2284537,2.65029464 C47.3188673,2.65029464 46.9882886,2.46729435 46.7933065,2.35749417 L47.084295,1.96973138 C47.4643616,2.11909919 47.7612886,2.12503434 47.9780453,2.12305595 C48.2076688,2.12008838 48.4234358,2.07755318 48.4244255,1.9360989 C48.4283846,1.78772028 48.2819006,1.75210941 47.934496,1.72540126 C47.6138148,1.70166068 46.9091081,1.61164432 46.9041593,1.10122187 C46.8982207,0.603658906 47.4277406,0.361307163 48.1878737,0.361307163 C48.6006022,0.361307163 49.1083474,0.424615374 49.4676291,0.617507577 L49.1578352,0.999335221 C48.8777341,0.900416142 48.6619671,0.878653945 48.4462002,0.878653945 C48.2126176,0.878653945 47.9721067,0.921189149 47.9721067,1.08242725 C47.9721067,1.24465454 48.2205357,1.25058968 48.3977021,1.27136269 C48.6253461,1.29708165 48.9173244,1.30103841 49.1518967,1.40688182 C49.4339774,1.53250905 49.5131579,1.70561744 49.5131579,1.9351097 L49.5131579,1.9351097 L49.5131579,1.9351097 Z M40.5281467,1.10122187 C40.5281467,0.509685781 40.0065449,0.411755894 39.4730661,0.411755894 L38.7446052,0.411755894 L37.8488754,0.411755894 L37.8488754,2.58105129 L38.7446052,2.58105129 L38.7446052,1.77584999 L38.8168574,1.77584999 L39.4968202,2.58105129 L40.754801,2.58105129 L39.8402658,1.72737964 C40.278728,1.65220114 40.5281467,1.42270888 40.5281467,1.10122187 L40.5281467,1.10122187 L40.5281467,1.10122187 Z M39.2770943,1.3880872 L38.7446052,1.3880872 L38.7446052,0.873707991 L39.278084,0.873707991 C39.4671275,0.873707991 39.6027242,0.964713543 39.6027242,1.13287598 C39.6027242,1.3020276 39.4631685,1.3880872 39.2770943,1.3880872 L39.2770943,1.3880872 L39.2770943,1.3880872 Z M25.3710128,0.411755894 L26.2657529,0.411755894 L26.2657529,2.58105129 L25.2354162,2.58105129 L23.914091,1.35643309 L23.914091,2.58105129 L23.0193509,2.58105129 L23.0193509,0.411755894 L24.0378106,0.411755894 L25.3710128,1.64132004 L25.3710128,0.411755894 L25.3710128,0.411755894 Z M20.326223,0.411755894 L19.2137365,2.58105129 L20.1262922,2.58105129 L20.330182,2.15471006 L21.473351,2.15471006 L21.6782306,2.58105129 L22.6442332,2.58105129 L21.5327364,0.411755894 L20.326223,0.411755894 L20.326223,0.411755894 Z M20.5657441,1.66308224 L20.9022614,0.962735162 L21.2377889,1.66308224 L20.5657441,1.66308224 L20.5657441,1.66308224 Z M28.3036619,0.411755894 L30.540512,0.411755894 L30.540512,0.855902557 L29.2934186,0.855902557 L29.2934186,1.26245997 L30.540512,1.26245997 L30.540512,1.68187686 L29.2934186,1.68187686 L29.2934186,2.10623971 L30.540512,2.10623971 L30.540512,2.58105129 L28.3036619,2.58105129 L28.3036619,0.411755894 L28.3036619,0.411755894 Z M36.3553325,0.411755894 L35.6882365,0.411755894 L34.7934965,0.411755894 L34.7934965,2.58105129 L35.6882365,2.58105129 L35.6882365,1.81146086 L36.2751622,1.81146086 C36.5463556,1.81146086 36.7779586,1.78969866 36.987787,1.70166068 C37.2332467,1.59878484 37.4114029,1.42270888 37.4114029,1.10122187 C37.4114029,0.509685781 36.8907909,0.411755894 36.3553325,0.411755894 L36.3553325,0.411755894 L36.3553325,0.411755894 Z M36.1603505,1.34753038 L35.6882365,1.34753038 L35.6882365,0.855902557 L36.16233,0.855902557 C36.349394,0.855902557 36.4849906,0.925145912 36.4849906,1.09330835 C36.4849906,1.26245997 36.345435,1.34753038 36.1603505,1.34753038 L36.1603505,1.34753038 L36.1603505,1.34753038 Z" id="Fill-1"></path>
                            </g>
                        </g>
                        <g id="XXXX-XXXXXX-XXXXX-2" transform="translate(22.000000, 51.000000)" fill="#0063B0">
                            <path d="M0.350840336,4.93504202 C0.303193277,5.00991597 0.269159664,5.08478992 0.269159664,5.18008403 C0.269159664,5.35705882 0.432521009,5.5 0.602689076,5.5 C0.827310925,5.5 0.902184874,5.32983193 0.997478992,5.16647059 L1.95042017,3.53966387 L2.90336134,5.16647059 C2.99865546,5.32983193 3.07352941,5.5 3.29815126,5.5 C3.46831933,5.5 3.63168067,5.35705882 3.63168067,5.18008403 C3.63168067,5.08478992 3.59764706,5.00991597 3.55,4.93504202 L2.33840336,2.85218487 L3.55,0.76932773 C3.59764706,0.694453781 3.63168067,0.619579831 3.63168067,0.524285714 C3.63168067,0.347310924 3.46831933,0.204369747 3.29815126,0.204369747 C3.07352941,0.204369747 2.99865546,0.374537814 2.90336134,0.537899159 L1.95042017,2.16470588 L0.997478992,0.537899159 C0.902184874,0.374537814 0.827310925,0.204369747 0.602689076,0.204369747 C0.432521009,0.204369747 0.269159664,0.347310924 0.269159664,0.524285714 C0.269159664,0.619579831 0.303193277,0.694453781 0.350840336,0.76932773 L1.56243698,2.85218487 L0.350840336,4.93504202 Z M5.25168067,4.93504202 C5.20403361,5.00991597 5.17,5.08478992 5.17,5.18008403 C5.17,5.35705882 5.33336135,5.5 5.50352941,5.5 C5.72815126,5.5 5.80302521,5.32983193 5.89831933,5.16647059 L6.85126051,3.53966387 L7.80420168,5.16647059 C7.8994958,5.32983193 7.97436975,5.5 8.1989916,5.5 C8.36915967,5.5 8.53252101,5.35705882 8.53252101,5.18008403 C8.53252101,5.08478992 8.4984874,5.00991597 8.45084034,4.93504202 L7.2392437,2.85218487 L8.45084034,0.76932773 C8.4984874,0.694453781 8.53252101,0.619579831 8.53252101,0.524285714 C8.53252101,0.347310924 8.36915967,0.204369747 8.1989916,0.204369747 C7.97436975,0.204369747 7.8994958,0.374537814 7.80420168,0.537899159 L6.85126051,2.16470588 L5.89831933,0.537899159 C5.80302521,0.374537814 5.72815126,0.204369747 5.50352941,0.204369747 C5.33336135,0.204369747 5.17,0.347310924 5.17,0.524285714 C5.17,0.619579831 5.20403361,0.694453781 5.25168067,0.76932773 L6.46327731,2.85218487 L5.25168067,4.93504202 Z M10.152521,4.93504202 C10.104874,5.00991597 10.0708403,5.08478992 10.0708403,5.18008403 C10.0708403,5.35705882 10.2342017,5.5 10.4043697,5.5 C10.6289916,5.5 10.7038655,5.32983193 10.7991597,5.16647059 L11.7521008,3.53966387 L12.705042,5.16647059 C12.8003361,5.32983193 12.8752101,5.5 13.0998319,5.5 C13.27,5.5 13.4333613,5.35705882 13.4333613,5.18008403 C13.4333613,5.08478992 13.3993277,5.00991597 13.3516807,4.93504202 L12.140084,2.85218487 L13.3516807,0.76932773 C13.3993277,0.694453781 13.4333613,0.619579831 13.4333613,0.524285714 C13.4333613,0.347310924 13.27,0.204369747 13.0998319,0.204369747 C12.8752101,0.204369747 12.8003361,0.374537814 12.705042,0.537899159 L11.7521008,2.16470588 L10.7991597,0.537899159 C10.7038655,0.374537814 10.6289916,0.204369747 10.4043697,0.204369747 C10.2342017,0.204369747 10.0708403,0.347310924 10.0708403,0.524285714 C10.0708403,0.619579831 10.104874,0.694453781 10.152521,0.76932773 L11.3641176,2.85218487 L10.152521,4.93504202 Z M15.0533613,4.93504202 C15.0057143,5.00991597 14.9716807,5.08478992 14.9716807,5.18008403 C14.9716807,5.35705882 15.135042,5.5 15.3052101,5.5 C15.5298319,5.5 15.6047059,5.32983193 15.7,5.16647059 L16.6529412,3.53966387 L17.6058824,5.16647059 C17.7011765,5.32983193 17.7760504,5.5 18.0006723,5.5 C18.1708403,5.5 18.3342017,5.35705882 18.3342017,5.18008403 C18.3342017,5.08478992 18.3001681,5.00991597 18.252521,4.93504202 L17.0409244,2.85218487 L18.252521,0.76932773 C18.3001681,0.694453781 18.3342017,0.619579831 18.3342017,0.524285714 C18.3342017,0.347310924 18.1708403,0.204369747 18.0006723,0.204369747 C17.7760504,0.204369747 17.7011765,0.374537814 17.6058824,0.537899159 L16.6529412,2.16470588 L15.7,0.537899159 C15.6047059,0.374537814 15.5298319,0.204369747 15.3052101,0.204369747 C15.135042,0.204369747 14.9716807,0.347310924 14.9716807,0.524285714 C14.9716807,0.619579831 15.0057143,0.694453781 15.0533613,0.76932773 L16.264958,2.85218487 L15.0533613,4.93504202 Z M24.855042,4.93504202 C24.807395,5.00991597 24.7733613,5.08478992 24.7733613,5.18008403 C24.7733613,5.35705882 24.9367227,5.5 25.1068908,5.5 C25.3315126,5.5 25.4063866,5.32983193 25.5016807,5.16647059 L26.4546219,3.53966387 L27.407563,5.16647059 C27.5028571,5.32983193 27.5777311,5.5 27.8023529,5.5 C27.972521,5.5 28.1358824,5.35705882 28.1358824,5.18008403 C28.1358824,5.08478992 28.1018487,5.00991597 28.0542017,4.93504202 L26.842605,2.85218487 L28.0542017,0.76932773 C28.1018487,0.694453781 28.1358824,0.619579831 28.1358824,0.524285714 C28.1358824,0.347310924 27.972521,0.204369747 27.8023529,0.204369747 C27.5777311,0.204369747 27.5028571,0.374537814 27.407563,0.537899159 L26.4546219,2.16470588 L25.5016807,0.537899159 C25.4063866,0.374537814 25.3315126,0.204369747 25.1068908,0.204369747 C24.9367227,0.204369747 24.7733613,0.347310924 24.7733613,0.524285714 C24.7733613,0.619579831 24.807395,0.694453781 24.855042,0.76932773 L26.0666387,2.85218487 L24.855042,4.93504202 Z M29.7558824,4.93504202 C29.7082353,5.00991597 29.6742017,5.08478992 29.6742017,5.18008403 C29.6742017,5.35705882 29.837563,5.5 30.0077311,5.5 C30.2323529,5.5 30.3072269,5.32983193 30.402521,5.16647059 L31.3554622,3.53966387 L32.3084034,5.16647059 C32.4036975,5.32983193 32.4785714,5.5 32.7031933,5.5 C32.8733613,5.5 33.0367227,5.35705882 33.0367227,5.18008403 C33.0367227,5.08478992 33.0026891,5.00991597 32.955042,4.93504202 L31.7434454,2.85218487 L32.955042,0.76932773 C33.0026891,0.694453781 33.0367227,0.619579831 33.0367227,0.524285714 C33.0367227,0.347310924 32.8733613,0.204369747 32.7031933,0.204369747 C32.4785714,0.204369747 32.4036975,0.374537814 32.3084034,0.537899159 L31.3554622,2.16470588 L30.402521,0.537899159 C30.3072269,0.374537814 30.2323529,0.204369747 30.0077311,0.204369747 C29.837563,0.204369747 29.6742017,0.347310924 29.6742017,0.524285714 C29.6742017,0.619579831 29.7082353,0.694453781 29.7558824,0.76932773 L30.967479,2.85218487 L29.7558824,4.93504202 Z M34.6567227,4.93504202 C34.6090756,5.00991597 34.575042,5.08478992 34.575042,5.18008403 C34.575042,5.35705882 34.7384034,5.5 34.9085714,5.5 C35.1331933,5.5 35.2080672,5.32983193 35.3033613,5.16647059 L36.2563025,3.53966387 L37.2092437,5.16647059 C37.3045378,5.32983193 37.3794118,5.5 37.6040336,5.5 C37.7742017,5.5 37.937563,5.35705882 37.937563,5.18008403 C37.937563,5.08478992 37.9035294,5.00991597 37.8558824,4.93504202 L36.6442857,2.85218487 L37.8558824,0.76932773 C37.9035294,0.694453781 37.937563,0.619579831 37.937563,0.524285714 C37.937563,0.347310924 37.7742017,0.204369747 37.6040336,0.204369747 C37.3794118,0.204369747 37.3045378,0.374537814 37.2092437,0.537899159 L36.2563025,2.16470588 L35.3033613,0.537899159 C35.2080672,0.374537814 35.1331933,0.204369747 34.9085714,0.204369747 C34.7384034,0.204369747 34.575042,0.347310924 34.575042,0.524285714 C34.575042,0.619579831 34.6090756,0.694453781 34.6567227,0.76932773 L35.8683193,2.85218487 L34.6567227,4.93504202 Z M39.557563,4.93504202 C39.509916,5.00991597 39.4758824,5.08478992 39.4758824,5.18008403 C39.4758824,5.35705882 39.6392437,5.5 39.8094118,5.5 C40.0340336,5.5 40.1089076,5.32983193 40.2042017,5.16647059 L41.1571429,3.53966387 L42.110084,5.16647059 C42.2053782,5.32983193 42.2802521,5.5 42.504874,5.5 C42.675042,5.5 42.8384034,5.35705882 42.8384034,5.18008403 C42.8384034,5.08478992 42.8043698,5.00991597 42.7567227,4.93504202 L41.5451261,2.85218487 L42.7567227,0.76932773 C42.8043698,0.694453781 42.8384034,0.619579831 42.8384034,0.524285714 C42.8384034,0.347310924 42.675042,0.204369747 42.504874,0.204369747 C42.2802521,0.204369747 42.2053782,0.374537814 42.110084,0.537899159 L41.1571429,2.16470588 L40.2042017,0.537899159 C40.1089076,0.374537814 40.0340336,0.204369747 39.8094118,0.204369747 C39.6392437,0.204369747 39.4758824,0.347310924 39.4758824,0.524285714 C39.4758824,0.619579831 39.509916,0.694453781 39.557563,0.76932773 L40.7691597,2.85218487 L39.557563,4.93504202 Z M44.4584034,4.93504202 C44.4107563,5.00991597 44.3767227,5.08478992 44.3767227,5.18008403 C44.3767227,5.35705882 44.540084,5.5 44.7102521,5.5 C44.934874,5.5 45.0097479,5.32983193 45.105042,5.16647059 L46.0579832,3.53966387 L47.0109244,5.16647059 C47.1062185,5.32983193 47.1810924,5.5 47.4057143,5.5 C47.5758824,5.5 47.7392437,5.35705882 47.7392437,5.18008403 C47.7392437,5.08478992 47.7052101,5.00991597 47.657563,4.93504202 L46.4459664,2.85218487 L47.657563,0.76932773 C47.7052101,0.694453781 47.7392437,0.619579831 47.7392437,0.524285714 C47.7392437,0.347310924 47.5758824,0.204369747 47.4057143,0.204369747 C47.1810924,0.204369747 47.1062185,0.374537814 47.0109244,0.537899159 L46.0579832,2.16470588 L45.105042,0.537899159 C45.0097479,0.374537814 44.934874,0.204369747 44.7102521,0.204369747 C44.540084,0.204369747 44.3767227,0.347310924 44.3767227,0.524285714 C44.3767227,0.619579831 44.4107563,0.694453781 44.4584034,0.76932773 L45.67,2.85218487 L44.4584034,4.93504202 Z M49.3592437,4.93504202 C49.3115966,5.00991597 49.277563,5.08478992 49.277563,5.18008403 C49.277563,5.35705882 49.4409244,5.5 49.6110924,5.5 C49.8357143,5.5 49.9105882,5.32983193 50.0058824,5.16647059 L50.9588235,3.53966387 L51.9117647,5.16647059 C52.0070588,5.32983193 52.0819328,5.5 52.3065546,5.5 C52.4767227,5.5 52.640084,5.35705882 52.640084,5.18008403 C52.640084,5.08478992 52.6060504,5.00991597 52.5584034,4.93504202 L51.3468067,2.85218487 L52.5584034,0.76932773 C52.6060504,0.694453781 52.640084,0.619579831 52.640084,0.524285714 C52.640084,0.347310924 52.4767227,0.204369747 52.3065546,0.204369747 C52.0819328,0.204369747 52.0070588,0.374537814 51.9117647,0.537899159 L50.9588235,2.16470588 L50.0058824,0.537899159 C49.9105882,0.374537814 49.8357143,0.204369747 49.6110924,0.204369747 C49.4409244,0.204369747 49.277563,0.347310924 49.277563,0.524285714 C49.277563,0.619579831 49.3115966,0.694453781 49.3592437,0.76932773 L50.5708403,2.85218487 L49.3592437,4.93504202 Z M59.1609244,4.93504202 C59.1132773,5.00991597 59.0792437,5.08478992 59.0792437,5.18008403 C59.0792437,5.35705882 59.2426051,5.5 59.4127731,5.5 C59.637395,5.5 59.7122689,5.32983193 59.807563,5.16647059 L60.7605042,3.53966387 L61.7134454,5.16647059 C61.8087395,5.32983193 61.8836135,5.5 62.1082353,5.5 C62.2784034,5.5 62.4417647,5.35705882 62.4417647,5.18008403 C62.4417647,5.08478992 62.4077311,5.00991597 62.360084,4.93504202 L61.1484874,2.85218487 L62.360084,0.76932773 C62.4077311,0.694453781 62.4417647,0.619579831 62.4417647,0.524285714 C62.4417647,0.347310924 62.2784034,0.204369747 62.1082353,0.204369747 C61.8836135,0.204369747 61.8087395,0.374537814 61.7134454,0.537899159 L60.7605042,2.16470588 L59.807563,0.537899159 C59.7122689,0.374537814 59.637395,0.204369747 59.4127731,0.204369747 C59.2426051,0.204369747 59.0792437,0.347310924 59.0792437,0.524285714 C59.0792437,0.619579831 59.1132773,0.694453781 59.1609244,0.76932773 L60.372521,2.85218487 L59.1609244,4.93504202 Z M64.0617647,4.93504202 C64.0141177,5.00991597 63.980084,5.08478992 63.980084,5.18008403 C63.980084,5.35705882 64.1434454,5.5 64.3136135,5.5 C64.5382353,5.5 64.6131093,5.32983193 64.7084034,5.16647059 L65.6613445,3.53966387 L66.6142857,5.16647059 C66.7095798,5.32983193 66.7844538,5.5 67.0090756,5.5 C67.1792437,5.5 67.3426051,5.35705882 67.3426051,5.18008403 C67.3426051,5.08478992 67.3085714,5.00991597 67.2609244,4.93504202 L66.0493277,2.85218487 L67.2609244,0.76932773 C67.3085714,0.694453781 67.3426051,0.619579831 67.3426051,0.524285714 C67.3426051,0.347310924 67.1792437,0.204369747 67.0090756,0.204369747 C66.7844538,0.204369747 66.7095798,0.374537814 66.6142857,0.537899159 L65.6613445,2.16470588 L64.7084034,0.537899159 C64.6131093,0.374537814 64.5382353,0.204369747 64.3136135,0.204369747 C64.1434454,0.204369747 63.980084,0.347310924 63.980084,0.524285714 C63.980084,0.619579831 64.0141177,0.694453781 64.0617647,0.76932773 L65.2733614,2.85218487 L64.0617647,4.93504202 Z M68.9626051,4.93504202 C68.914958,5.00991597 68.8809244,5.08478992 68.8809244,5.18008403 C68.8809244,5.35705882 69.0442857,5.5 69.2144538,5.5 C69.4390756,5.5 69.5139496,5.32983193 69.6092437,5.16647059 L70.5621849,3.53966387 L71.5151261,5.16647059 C71.6104202,5.32983193 71.6852941,5.5 71.909916,5.5 C72.080084,5.5 72.2434454,5.35705882 72.2434454,5.18008403 C72.2434454,5.08478992 72.2094118,5.00991597 72.1617647,4.93504202 L70.9501681,2.85218487 L72.1617647,0.76932773 C72.2094118,0.694453781 72.2434454,0.619579831 72.2434454,0.524285714 C72.2434454,0.347310924 72.080084,0.204369747 71.909916,0.204369747 C71.6852941,0.204369747 71.6104202,0.374537814 71.5151261,0.537899159 L70.5621849,2.16470588 L69.6092437,0.537899159 C69.5139496,0.374537814 69.4390756,0.204369747 69.2144538,0.204369747 C69.0442857,0.204369747 68.8809244,0.347310924 68.8809244,0.524285714 C68.8809244,0.619579831 68.914958,0.694453781 68.9626051,0.76932773 L70.1742017,2.85218487 L68.9626051,4.93504202 Z M73.8634454,4.93504202 C73.8157983,5.00991597 73.7817647,5.08478992 73.7817647,5.18008403 C73.7817647,5.35705882 73.9451261,5.5 74.1152941,5.5 C74.339916,5.5 74.4147899,5.32983193 74.510084,5.16647059 L75.4630252,3.53966387 L76.4159664,5.16647059 C76.5112605,5.32983193 76.5861345,5.5 76.8107563,5.5 C76.9809244,5.5 77.1442857,5.35705882 77.1442857,5.18008403 C77.1442857,5.08478992 77.1102521,5.00991597 77.0626051,4.93504202 L75.8510084,2.85218487 L77.0626051,0.76932773 C77.1102521,0.694453781 77.1442857,0.619579831 77.1442857,0.524285714 C77.1442857,0.347310924 76.9809244,0.204369747 76.8107563,0.204369747 C76.5861345,0.204369747 76.5112605,0.374537814 76.4159664,0.537899159 L75.4630252,2.16470588 L74.510084,0.537899159 C74.4147899,0.374537814 74.339916,0.204369747 74.1152941,0.204369747 C73.9451261,0.204369747 73.7817647,0.347310924 73.7817647,0.524285714 C73.7817647,0.619579831 73.8157983,0.694453781 73.8634454,0.76932773 L75.075042,2.85218487 L73.8634454,4.93504202 Z M78.7642857,4.93504202 C78.7166387,5.00991597 78.6826051,5.08478992 78.6826051,5.18008403 C78.6826051,5.35705882 78.8459664,5.5 79.0161345,5.5 C79.2407563,5.5 79.3156303,5.32983193 79.4109244,5.16647059 L80.3638656,3.53966387 L81.3168067,5.16647059 C81.4121009,5.32983193 81.4869748,5.5 81.7115966,5.5 C81.8817647,5.5 82.0451261,5.35705882 82.0451261,5.18008403 C82.0451261,5.08478992 82.0110924,5.00991597 81.9634454,4.93504202 L80.7518488,2.85218487 L81.9634454,0.76932773 C82.0110924,0.694453781 82.0451261,0.619579831 82.0451261,0.524285714 C82.0451261,0.347310924 81.8817647,0.204369747 81.7115966,0.204369747 C81.4869748,0.204369747 81.4121009,0.374537814 81.3168067,0.537899159 L80.3638656,2.16470588 L79.4109244,0.537899159 C79.3156303,0.374537814 79.2407563,0.204369747 79.0161345,0.204369747 C78.8459664,0.204369747 78.6826051,0.347310924 78.6826051,0.524285714 C78.6826051,0.619579831 78.7166387,0.694453781 78.7642857,0.76932773 L79.9758824,2.85218487 L78.7642857,4.93504202 Z" id="XXXX-XXXXXX-XXXXX"></path>
                        </g>
                    </g>
                </g>
            </g>
        </g>
    </g>
</svg>