<svg xmlns="http://www.w3.org/2000/svg" xmlns:xlink="http://www.w3.org/1999/xlink" version="1.1" x="0px" y="0px" width="100px" height="95.327px" viewBox="0 0 100 95.327" enable-background="new 0 0 100 95.327" xml:space="preserve"><style>.style0{fill:	#E6E6E6;}</style><path d="M48.703 76.205l-26.88 18.697c-1.777 1.247-4.117-0.445-3.493-2.527l9.487-31.346 c0.272-0.915-0.053-1.904-0.813-2.489L0.913 38.763c-1.731-1.303-0.839-4.06 1.332-4.099l32.741-0.67 c0.951-0.021 1.79-0.636 2.105-1.531L47.839 1.534c0.72-2.045 3.603-2.045 4.3 0l10.751 30.9 c0.32 0.9 1.2 1.5 2.1 1.531l32.735 0.67c2.168 0 3.1 2.8 1.3 4.099L73.01 58.5 c-0.767 0.584-1.094 1.574-0.812 2.489l9.479 31.346c0.618 2.082-1.715 3.773-3.488 2.527L51.317 76.2 C50.529 75.7 49.5 75.7 48.7 76.2" class="style0"/></svg>