<svg viewBox="0 0 71 82" xmlns="http://www.w3.org/2000/svg"><path d="M44.536 65.01v-9.983c0-1.797 1.46-3.257 3.256-3.257h19.925v-9.675c0-1.306-1.067-2.373-2.372-2.373h-1.95V8.088h-8.223V0H11.408v29.908H7.296c-4.027 0-7.296 3.27-7.296 7.3v37.364c0 4.03 3.27 7.302 7.296 7.302h53.11c4.027 0 7.297-3.272 7.297-7.302v-6.318H47.778c-1.782 0-3.242-1.446-3.242-3.244zm16.586-54.662v29.374H21.89V10.348h39.23zM52.9 2.26v5.814H19.63v31.648h-5.963V2.262H52.9zM6.917 37.25c0-1.36 1.108-2.47 2.47-2.47h2.02v4.942h-2.02c-1.362 0-2.47-1.11-2.47-2.47zm62.989 16.78H47.778c-.548 0-.983.45-.983.983v9.997c0 .548.45.983.983.983h22.128c.547 0 .982-.45.982-.983v-9.983c0-.548-.435-.997-.982-.997zm-17.4 8.144c-1.192 0-2.147-.97-2.147-2.148 0-1.18.968-2.15 2.146-2.15 1.193 0 2.147.97 2.147 2.15s-.954 2.148-2.147 2.148zM33.522 16.246H30.66c-.8.758-1.965 1.123-3.354 1.165v2.753c1.052 0 2.385-.365 3.255-.828v12.243h-3.31v2.682h9.218v-2.682h-2.946V16.246zm16.332 13.409c0 2.5 1.165 3.833 2.96 3.833 1.797 0 2.962-1.362 2.962-3.847 0-2.513-1.18-3.818-2.96-3.818-1.77 0-2.962 1.32-2.962 3.833zm3.957-.014c0 1.433-.307 2.163-.995 2.163-.673 0-1.024-.702-1.024-2.162 0-1.417.323-2.12 1.025-2.12.66 0 .996.675.996 2.12zM49.77 19.46l-6.96 13.172h1.782l6.974-13.17H49.77zm-4.686 2.795c0-2.513-1.18-3.82-2.96-3.82-1.77 0-2.962 1.32-2.962 3.834 0 2.498 1.165 3.832 2.96 3.832 1.81.014 2.962-1.334 2.962-3.847zm-2.96 2.177c-.675 0-1.01-.703-1.01-2.163 0-1.42.32-2.12 1.01-2.12.672 0 .995.673.995 2.12.013 1.417-.31 2.162-.997 2.162z" fill="#A19EA3" fill-rule="evenodd"/></svg>