<?xml version="1.0" encoding="utf-8"?>
<!DOCTYPE svg PUBLIC "-//W3C//DTD SVG 1.1//EN" "http://www.w3.org/Graphics/SVG/1.1/DTD/svg11.dtd">
<svg version="1.1" id="Layer_1" xmlns="http://www.w3.org/2000/svg" xmlns:xlink="http://www.w3.org/1999/xlink" x="0px" y="0px"
	 viewBox="0 0 45 34" enable-background="new 0 0 45 34" xml:space="preserve">
<path fill="#506074" d="M40.5,24.7V9c-2.1,0-4.9-2.7-4.9-4.8H9.2C9.2,6.4,6.4,9,4.3,9v15.6c2.1,0,4.9,2.7,4.9,4.8h26.4
	C35.6,27.4,38.4,24.7,40.5,24.7 M23.5,11.6v3.8c3.1,0.7,4.5,2,4.5,4.2c0,2.3-1.8,3.7-4.4,3.9v2h-1.8v-2.1c-1.8-0.2-3.4-0.9-4.8-2
	l1.4-1.9c1.1,0.9,2.3,1.5,3.6,1.8v-4c-3-0.7-4.4-1.9-4.4-4.2c0-2.2,1.8-3.7,4.3-3.9v-1h1.8v1.2c1.5,0.2,2.7,0.7,3.8,1.5l-1.2,1.9
	C25.4,12.2,24.4,11.8,23.5,11.6 M21.9,15v-3.6c-1.2,0.1-2,0.8-2,1.8C19.9,14,20.4,14.5,21.9,15 M23.5,17.8v3.7c1.2-0.1,2-0.7,2-1.8
	C25.5,18.8,25,18.3,23.5,17.8"/>
<path fill="#506074" d="M42.5,31.4H2.4V2.3h40.1V31.4L42.5,31.4z M42.8,0H2.2C1.1,0,0,0.9,0,2.2v29.6C0,32.9,0.9,34,2.2,34h40.6
	c1.1,0,2.2-0.9,2.2-2.2V2.2C44.9,0.9,44,0,42.8,0"/>
</svg>
