<?xml version="1.0" encoding="utf-8"?>
<!-- Generator: Adobe Illustrator 16.0.3, SVG Export Plug-In . SVG Version: 6.00 Build 0)  -->
<!DOCTYPE svg PUBLIC "-//W3C//DTD SVG 1.0//EN" "http://www.w3.org/TR/2001/REC-SVG-20010904/DTD/svg10.dtd">
<svg version="1.0" id="Layer_1" xmlns="http://www.w3.org/2000/svg" xmlns:xlink="http://www.w3.org/1999/xlink" x="0px" y="0px"
	 width="620px" height="295px" viewBox="0 0 620 295" enable-background="new 0 0 620 295" xml:space="preserve">
<g id="Mask">
	<polygon id="path-1_1_" fill="#EAECF9" points="0,0 620,0 619.998,295 0.244,295 	"/>
</g>
<defs>
	<filter id="Adobe_OpacityMaskFilter" filterUnits="userSpaceOnUse" x="-29.499" y="-32.973" width="665.499" height="365.474">
		<feColorMatrix  type="matrix" values="1 0 0 0 0  0 1 0 0 0  0 0 1 0 0  0 0 0 1 0"/>
	</filter>
</defs>
<mask maskUnits="userSpaceOnUse" x="-29.499" y="-32.973" width="665.499" height="365.474" id="mask-2">
	<g filter="url(#Adobe_OpacityMaskFilter)">
		<rect id="path-1" x="0.244" y="0.604" fill="#FFFFFF" width="619.646" height="294.446"/>
	</g>
</mask>
<g id="Group_1_" opacity="0.209" mask="url(#mask-2)">
	<g transform="translate(-67.000000, -61.000000)">
		<g id="Group">
			<g id="Group-Copy-_x2B_-Group-Copy-2-Copy-Copy-Copy-Copy">
				
					<g id="Group-Copy-2" transform="translate(61.000000, 88.500000) scale(1, -1) translate(-61.000000, -88.500000) translate(42.000000, 0.000000)">
					<path id="Rectangle-58-Copy-11" fill="#D8D8D8" d="M-4.499,133.71l45.854-31.228v13.97l-45.854,31.229V133.71L-4.499,133.71z"
						/>
					<path id="Rectangle-58-Copy-12" fill="#D8D8D8" d="M-4.499,111.757l45.854-31.23v13.972l-45.854,31.229V111.757L-4.499,111.757
						z"/>
					<path id="Rectangle-58-Copy-13" fill="#D8D8D8" d="M-4.499,88.511l45.854-31.229v13.971l-45.854,31.23V88.511L-4.499,88.511z"
						/>
					<path id="Rectangle-58-Copy-14" fill="#D8D8D8" d="M-4.499,65.265l45.854-31.229v13.971L-4.499,79.235V65.265L-4.499,65.265z"
						/>
					<path id="Rectangle-58-Copy-15" fill="#D8D8D8" d="M-4.499,43.311l45.854-31.229v13.972L-4.499,57.281V43.311L-4.499,43.311z"
						/>
					<path id="Rectangle-58-Copy-16" fill="#D8D8D8" d="M-4.499,20.065l45.854-31.23V2.807L-4.499,34.036V20.065L-4.499,20.065z"/>
					<path id="Rectangle-58-Copy-17" fill="#D8D8D8" d="M-4.499-3.181L41.355-34.41v13.973L-4.499,10.79V-3.181L-4.499-3.181z"/>
				</g>
			</g>
			<g id="Group-Copy-_x2B_-Group-Copy-2-Copy-Copy-Copy-Copy-Copy" transform="translate(83.000000, 0.000000)">
				<g id="Group-Copy">
					<path id="Rectangle-58" fill="#D8D8D8" d="M5.311,197.438l45.854-31.228v13.971L5.311,211.41V197.438L5.311,197.438z"/>
					<path id="Rectangle-58-Copy" fill="#D8D8D8" d="M5.311,174.193l45.854-31.229v13.971l-45.854,31.23V174.193L5.311,174.193z"/>
					<path id="Rectangle-58-Copy-2" fill="#D8D8D8" d="M5.311,150.946l45.854-31.228v13.971L5.311,164.918V150.946L5.311,150.946z"
						/>
					<path id="Rectangle-58-Copy-3" fill="#D8D8D8" d="M5.311,128.993l45.854-31.229v13.971L5.311,142.964V128.993L5.311,128.993z"
						/>
					<path id="Rectangle-58-Copy-4" fill="#D8D8D8" d="M5.311,105.748l45.854-31.23V88.49L5.311,119.719V105.748L5.311,105.748z"/>
					<path id="Rectangle-58-Copy-5" fill="#D8D8D8" d="M5.311,82.501l45.854-31.229v13.971L5.311,96.474V82.501L5.311,82.501z"/>
					<path id="Rectangle-58-Copy-6" fill="#D8D8D8" d="M5.311,59.256l45.854-31.229v13.971L5.311,73.226V59.256L5.311,59.256z"/>
				</g>
				
					<g id="Group-Copy-2_1_" transform="translate(61.000000, 88.500000) scale(1, -1) translate(-61.000000, -88.500000) translate(42.000000, 0.000000)">
					<path id="Rectangle-58-Copy-11_1_" fill="#D8D8D8" d="M15.362,133.71l45.854-31.228v13.97l-45.854,31.229V133.71L15.362,133.71
						z"/>
					<path id="Rectangle-58-Copy-12_1_" fill="#D8D8D8" d="M15.362,111.757l45.854-31.23v13.972l-45.854,31.229V111.757
						L15.362,111.757z"/>
					<path id="Rectangle-58-Copy-13_1_" fill="#D8D8D8" d="M15.362,88.511l45.854-31.229v13.971l-45.854,31.23V88.511L15.362,88.511
						z"/>
					<path id="Rectangle-58-Copy-14_1_" fill="#D8D8D8" d="M15.362,65.265l45.854-31.229v13.971L15.362,79.235V65.265L15.362,65.265
						z"/>
					<path id="Rectangle-58-Copy-15_1_" fill="#D8D8D8" d="M15.362,43.311l45.854-31.229v13.972L15.362,57.281V43.311L15.362,43.311
						z"/>
					<path id="Rectangle-58-Copy-16_1_" fill="#D8D8D8" d="M15.362,20.065l45.854-31.23V2.807L15.362,34.036V20.065L15.362,20.065z"
						/>
					<path id="Rectangle-58-Copy-17_1_" fill="#D8D8D8" d="M15.362-3.181L61.216-34.41v13.973L15.362,10.79V-3.181L15.362-3.181z"/>
				</g>
			</g>
			<g id="Group-Copy-_x2B_-Group-Copy-2-Copy-Copy-Copy-Copy-Copy-Copy" transform="translate(167.000000, 0.000000)">
				<g id="Group-Copy_1_">
					<path id="Rectangle-58_1_" fill="#D8D8D8" d="M25.413,197.438l45.854-31.228v13.971L25.413,211.41V197.438L25.413,197.438z"/>
					<path id="Rectangle-58-Copy_1_" fill="#D8D8D8" d="M25.413,174.193l45.854-31.229v13.971l-45.854,31.23V174.193L25.413,174.193
						z"/>
					<path id="Rectangle-58-Copy-2_1_" fill="#D8D8D8" d="M25.413,150.946l45.854-31.228v13.971l-45.854,31.229V150.946
						L25.413,150.946z"/>
					<path id="Rectangle-58-Copy-3_1_" fill="#D8D8D8" d="M25.413,128.993l45.854-31.229v13.971l-45.854,31.229V128.993
						L25.413,128.993z"/>
					<path id="Rectangle-58-Copy-4_1_" fill="#D8D8D8" d="M25.413,105.748l45.854-31.23V88.49l-45.854,31.229V105.748
						L25.413,105.748z"/>
					<path id="Rectangle-58-Copy-5_1_" fill="#D8D8D8" d="M25.413,82.501l45.854-31.229v13.971l-45.854,31.23V82.501L25.413,82.501z
						"/>
					<path id="Rectangle-58-Copy-6_1_" fill="#D8D8D8" d="M25.413,59.256l45.854-31.229v13.971L25.413,73.226V59.256L25.413,59.256z
						"/>
				</g>
				
					<g id="Group-Copy-2_2_" transform="translate(61.000000, 88.500000) scale(1, -1) translate(-61.000000, -88.500000) translate(42.000000, 0.000000)">
					<path id="Rectangle-58-Copy-11_2_" fill="#D8D8D8" d="M35.463,133.71l45.853-31.228v13.97l-45.853,31.229V133.71L35.463,133.71
						z"/>
					<path id="Rectangle-58-Copy-12_2_" fill="#D8D8D8" d="M35.463,111.757l45.853-31.23v13.972l-45.853,31.229V111.757
						L35.463,111.757z"/>
					<path id="Rectangle-58-Copy-13_2_" fill="#D8D8D8" d="M35.463,88.511l45.853-31.229v13.971l-45.853,31.23V88.511L35.463,88.511
						z"/>
					<path id="Rectangle-58-Copy-14_2_" fill="#D8D8D8" d="M35.463,65.265l45.853-31.229v13.971L35.463,79.235V65.265L35.463,65.265
						z"/>
					<path id="Rectangle-58-Copy-15_2_" fill="#D8D8D8" d="M35.463,43.311l45.853-31.229v13.972L35.463,57.281V43.311L35.463,43.311
						z"/>
					<path id="Rectangle-58-Copy-16_2_" fill="#D8D8D8" d="M35.463,20.065l45.853-31.23V2.807L35.463,34.036V20.065L35.463,20.065z"
						/>
					<path id="Rectangle-58-Copy-17_2_" fill="#D8D8D8" d="M35.463-3.181L81.315-34.41v13.973L35.463,10.79V-3.181L35.463-3.181z"/>
				</g>
			</g>
			<g id="Group-Copy-_x2B_-Group-Copy-2-Copy-Copy-Copy-Copy-Copy-Copy-Copy" transform="translate(250.000000, 0.000000)">
				<g id="Group-Copy_2_">
					<path id="Rectangle-58_2_" fill="#D8D8D8" d="M45.274,197.438l45.853-31.228v13.971L45.274,211.41V197.438L45.274,197.438z"/>
					<path id="Rectangle-58-Copy_2_" fill="#D8D8D8" d="M45.274,174.193l45.853-31.229v13.971l-45.853,31.23V174.193L45.274,174.193
						z"/>
					<path id="Rectangle-58-Copy-2_2_" fill="#D8D8D8" d="M45.274,150.946l45.853-31.228v13.971l-45.853,31.229V150.946
						L45.274,150.946z"/>
					<path id="Rectangle-58-Copy-3_2_" fill="#D8D8D8" d="M45.274,128.993l45.853-31.229v13.971l-45.853,31.229V128.993
						L45.274,128.993z"/>
					<path id="Rectangle-58-Copy-4_2_" fill="#D8D8D8" d="M45.274,105.748l45.853-31.23V88.49l-45.853,31.229V105.748
						L45.274,105.748z"/>
					<path id="Rectangle-58-Copy-5_2_" fill="#D8D8D8" d="M45.274,82.501l45.853-31.229v13.971l-45.853,31.23V82.501L45.274,82.501z
						"/>
					<path id="Rectangle-58-Copy-6_2_" fill="#D8D8D8" d="M45.274,59.256l45.853-31.229v13.971L45.274,73.226V59.256L45.274,59.256z
						"/>
				</g>
				
					<g id="Group-Copy-2_3_" transform="translate(61.000000, 88.500000) scale(1, -1) translate(-61.000000, -88.500000) translate(42.000000, 0.000000)">
					<path id="Rectangle-58-Copy-11_3_" fill="#D8D8D8" d="M55.324,133.71l45.853-31.228v13.97l-45.853,31.229V133.71L55.324,133.71
						z"/>
					<path id="Rectangle-58-Copy-12_3_" fill="#D8D8D8" d="M55.324,111.757l45.853-31.23v13.972l-45.853,31.229V111.757
						L55.324,111.757z"/>
					<path id="Rectangle-58-Copy-13_3_" fill="#D8D8D8" d="M55.324,88.511l45.853-31.229v13.971l-45.853,31.23V88.511L55.324,88.511
						z"/>
					<path id="Rectangle-58-Copy-14_3_" fill="#D8D8D8" d="M55.324,65.265l45.853-31.229v13.971L55.324,79.235V65.265L55.324,65.265
						z"/>
					<path id="Rectangle-58-Copy-15_3_" fill="#D8D8D8" d="M55.324,43.311l45.853-31.229v13.972L55.324,57.281V43.311L55.324,43.311
						z"/>
					<path id="Rectangle-58-Copy-16_3_" fill="#D8D8D8" d="M55.324,20.065l45.853-31.23V2.807L55.324,34.036V20.065L55.324,20.065z"
						/>
					<path id="Rectangle-58-Copy-17_3_" fill="#D8D8D8" d="M55.324-3.181l45.853-31.229v13.973L55.324,10.79V-3.181L55.324-3.181z"
						/>
				</g>
			</g>
		</g>
		<g id="Group-Copy-4" transform="translate(333.000000, 0.000000)">
			<g id="Group-Copy-_x2B_-Group-Copy-2-Copy-Copy-Copy-Copy_1_">
				<g id="Group-Copy_3_">
					<path id="Rectangle-58_3_" fill="#D8D8D8" d="M65.134,197.438l45.854-31.228v13.971L65.134,211.41V197.438L65.134,197.438z"/>
					<path id="Rectangle-58-Copy_3_" fill="#D8D8D8" d="M65.134,174.193l45.854-31.229v13.971l-45.854,31.23V174.193L65.134,174.193
						z"/>
					<path id="Rectangle-58-Copy-2_3_" fill="#D8D8D8" d="M65.134,150.946l45.854-31.228v13.971l-45.854,31.229V150.946
						L65.134,150.946z"/>
					<path id="Rectangle-58-Copy-3_3_" fill="#D8D8D8" d="M65.134,128.993l45.854-31.229v13.971l-45.854,31.229V128.993
						L65.134,128.993z"/>
					<path id="Rectangle-58-Copy-4_3_" fill="#D8D8D8" d="M65.134,105.748l45.854-31.23V88.49l-45.854,31.229V105.748
						L65.134,105.748z"/>
					<path id="Rectangle-58-Copy-5_3_" fill="#D8D8D8" d="M65.134,82.501l45.854-31.229v13.971l-45.854,31.23V82.501L65.134,82.501z
						"/>
					<path id="Rectangle-58-Copy-6_3_" fill="#D8D8D8" d="M65.134,59.256l45.854-31.229v13.971L65.134,73.226V59.256L65.134,59.256z
						"/>
				</g>
				
					<g id="Group-Copy-2_4_" transform="translate(61.000000, 88.500000) scale(1, -1) translate(-61.000000, -88.500000) translate(42.000000, 0.000000)">
					<path id="Rectangle-58-Copy-11_4_" fill="#D8D8D8" d="M75.186,133.71l45.854-31.228v13.97l-45.854,31.229V133.71L75.186,133.71
						z"/>
					<path id="Rectangle-58-Copy-12_4_" fill="#D8D8D8" d="M75.186,111.757l45.854-31.23v13.972l-45.854,31.229V111.757
						L75.186,111.757z"/>
					<path id="Rectangle-58-Copy-13_4_" fill="#D8D8D8" d="M75.186,88.511l45.854-31.229v13.971l-45.854,31.23V88.511L75.186,88.511
						z"/>
					<path id="Rectangle-58-Copy-14_4_" fill="#D8D8D8" d="M75.186,65.265l45.854-31.229v13.971L75.186,79.235V65.265L75.186,65.265
						z"/>
					<path id="Rectangle-58-Copy-15_4_" fill="#D8D8D8" d="M75.186,43.311l45.854-31.229v13.972L75.186,57.281V43.311L75.186,43.311
						z"/>
					<path id="Rectangle-58-Copy-16_4_" fill="#D8D8D8" d="M75.186,20.065l45.854-31.23V2.807L75.186,34.036V20.065L75.186,20.065z"
						/>
					<path id="Rectangle-58-Copy-17_4_" fill="#D8D8D8" d="M75.186-3.181l45.854-31.229v13.973L75.186,10.79V-3.181L75.186-3.181z"
						/>
				</g>
			</g>
			<g id="Group-Copy-_x2B_-Group-Copy-2-Copy-Copy-Copy-Copy-Copy_1_" transform="translate(83.000000, 0.000000)">
				<g id="Group-Copy_4_">
					<path id="Rectangle-58_4_" fill="#D8D8D8" d="M84.996,197.438l45.854-31.228v13.971L84.996,211.41V197.438L84.996,197.438z"/>
					<path id="Rectangle-58-Copy_4_" fill="#D8D8D8" d="M84.996,174.193l45.854-31.229v13.971l-45.854,31.23V174.193L84.996,174.193
						z"/>
					<path id="Rectangle-58-Copy-2_4_" fill="#D8D8D8" d="M84.996,150.946l45.854-31.228v13.971l-45.854,31.229V150.946
						L84.996,150.946z"/>
					<path id="Rectangle-58-Copy-3_4_" fill="#D8D8D8" d="M84.996,128.993l45.854-31.229v13.971l-45.854,31.229V128.993
						L84.996,128.993z"/>
					<path id="Rectangle-58-Copy-4_4_" fill="#D8D8D8" d="M84.996,105.748l45.854-31.23V88.49l-45.854,31.229V105.748
						L84.996,105.748z"/>
					<path id="Rectangle-58-Copy-5_4_" fill="#D8D8D8" d="M84.996,82.501l45.854-31.229v13.971l-45.854,31.23V82.501L84.996,82.501z
						"/>
					<path id="Rectangle-58-Copy-6_4_" fill="#D8D8D8" d="M84.996,59.256l45.854-31.229v13.971L84.996,73.226V59.256L84.996,59.256z
						"/>
				</g>
				
					<g id="Group-Copy-2_5_" transform="translate(61.000000, 88.500000) scale(1, -1) translate(-61.000000, -88.500000) translate(42.000000, 0.000000)">
					<path id="Rectangle-58-Copy-11_5_" fill="#D8D8D8" d="M95.046,133.71l45.854-31.228v13.97l-45.854,31.229V133.71L95.046,133.71
						z"/>
					<path id="Rectangle-58-Copy-12_5_" fill="#D8D8D8" d="M95.046,111.757l45.854-31.23v13.972l-45.854,31.229V111.757
						L95.046,111.757z"/>
					<path id="Rectangle-58-Copy-13_5_" fill="#D8D8D8" d="M95.046,88.511L140.9,57.281v13.971l-45.854,31.23V88.511L95.046,88.511z
						"/>
					<path id="Rectangle-58-Copy-14_5_" fill="#D8D8D8" d="M95.046,65.265L140.9,34.036v13.971L95.046,79.235V65.265L95.046,65.265z
						"/>
					<path id="Rectangle-58-Copy-15_5_" fill="#D8D8D8" d="M95.046,43.311L140.9,12.082v13.972L95.046,57.281V43.311L95.046,43.311z
						"/>
					<path id="Rectangle-58-Copy-16_5_" fill="#D8D8D8" d="M95.046,20.065l45.854-31.23V2.807L95.046,34.036V20.065L95.046,20.065z"
						/>
					<path id="Rectangle-58-Copy-17_5_" fill="#D8D8D8" d="M95.046-3.181L140.9-34.41v13.973L95.046,10.79V-3.181L95.046-3.181z"/>
				</g>
			</g>
			<g id="Group-Copy-_x2B_-Group-Copy-2-Copy-Copy-Copy-Copy-Copy-Copy_1_" transform="translate(167.000000, 0.000000)">
				<g id="Group-Copy_5_">
					<path id="Rectangle-58_5_" fill="#D8D8D8" d="M105.097,197.438l45.854-31.228v13.971l-45.854,31.229V197.438L105.097,197.438z"
						/>
					<path id="Rectangle-58-Copy_5_" fill="#D8D8D8" d="M105.097,174.193l45.854-31.229v13.971l-45.854,31.23V174.193
						L105.097,174.193z"/>
					<path id="Rectangle-58-Copy-2_5_" fill="#D8D8D8" d="M105.097,150.946l45.854-31.228v13.971l-45.854,31.229V150.946
						L105.097,150.946z"/>
					<path id="Rectangle-58-Copy-3_5_" fill="#D8D8D8" d="M105.097,128.993l45.854-31.229v13.971l-45.854,31.229V128.993
						L105.097,128.993z"/>
					<path id="Rectangle-58-Copy-4_5_" fill="#D8D8D8" d="M105.097,105.748l45.854-31.23V88.49l-45.854,31.229V105.748
						L105.097,105.748z"/>
					<path id="Rectangle-58-Copy-5_5_" fill="#D8D8D8" d="M105.097,82.501l45.854-31.229v13.971l-45.854,31.23V82.501
						L105.097,82.501z"/>
					<path id="Rectangle-58-Copy-6_5_" fill="#D8D8D8" d="M105.097,59.256l45.854-31.229v13.971l-45.854,31.228V59.256
						L105.097,59.256z"/>
				</g>
				
					<g id="Group-Copy-2_6_" transform="translate(61.000000, 88.500000) scale(1, -1) translate(-61.000000, -88.500000) translate(42.000000, 0.000000)">
					<path id="Rectangle-58-Copy-11_6_" fill="#D8D8D8" d="M115.148,133.71L161,102.482v13.97l-45.852,31.229V133.71L115.148,133.71
						z"/>
					<path id="Rectangle-58-Copy-12_6_" fill="#D8D8D8" d="M115.148,111.757L161,80.526v13.972l-45.852,31.229V111.757
						L115.148,111.757z"/>
					<path id="Rectangle-58-Copy-13_6_" fill="#D8D8D8" d="M115.148,88.511L161,57.281v13.971l-45.852,31.23V88.511L115.148,88.511z
						"/>
					<path id="Rectangle-58-Copy-14_6_" fill="#D8D8D8" d="M115.148,65.265L161,34.036v13.971l-45.852,31.229V65.265L115.148,65.265
						z"/>
					<path id="Rectangle-58-Copy-15_6_" fill="#D8D8D8" d="M115.148,43.311L161,12.082v13.972l-45.852,31.228V43.311L115.148,43.311
						z"/>
					<path id="Rectangle-58-Copy-16_6_" fill="#D8D8D8" d="M115.148,20.065L161-11.165V2.807l-45.852,31.229V20.065L115.148,20.065z
						"/>
					<path id="Rectangle-58-Copy-17_6_" fill="#D8D8D8" d="M115.148-3.181L161-34.41v13.973L115.148,10.79V-3.181L115.148-3.181z"/>
				</g>
			</g>
		</g>
		<g id="Group-Copy-3" transform="translate(0.000000, 159.000000)">
			<g id="Group-Copy-_x2B_-Group-Copy-2-Copy-Copy-Copy-Copy_2_">
				
					<g id="Group-Copy-2_7_" transform="translate(61.000000, 88.500000) scale(1, -1) translate(-61.000000, -88.500000) translate(42.000000, 0.000000)">
					<path id="Rectangle-58-Copy-9" fill="#D8D8D8" d="M-4.499,133.865l45.854-31.229v13.971l-45.854,31.228V133.865L-4.499,133.865
						z"/>
					<path id="Rectangle-58-Copy-10" fill="#D8D8D8" d="M-4.499,110.619l45.854-31.227v13.969L-4.499,124.59V110.619L-4.499,110.619
						z"/>
					<path id="Rectangle-58-Copy-11_7_" fill="#D8D8D8" d="M-4.499,87.374l45.854-31.229v13.972l-45.854,31.229V87.374
						L-4.499,87.374z"/>
					<path id="Rectangle-58-Copy-12_7_" fill="#D8D8D8" d="M-4.499,65.418l45.854-31.229v13.972L-4.499,79.393V65.418L-4.499,65.418
						z"/>
					<path id="Rectangle-58-Copy-13_7_" fill="#D8D8D8" d="M-4.499,42.173l45.854-31.228v13.97L-4.499,56.145V42.173L-4.499,42.173z
						"/>
					<path id="Rectangle-58-Copy-14_7_" fill="#D8D8D8" d="M-4.499,18.928l45.854-31.227v13.97L-4.499,32.896V18.928L-4.499,18.928z
						"/>
					<path id="Rectangle-58-Copy-15_7_" fill="#D8D8D8" d="M-4.499-3.027l45.854-31.229v13.973L-4.499,10.945V-3.027L-4.499-3.027z"
						/>
					<path id="Rectangle-58-Copy-16_7_" fill="#D8D8D8" d="M-4.499-26.271L41.355-57.5v13.971l-45.854,31.23V-26.271L-4.499-26.271z
						"/>
				</g>
			</g>
			<g id="Group-Copy-_x2B_-Group-Copy-2-Copy-Copy-Copy-Copy-Copy_2_" transform="translate(83.000000, 0.000000)">
				<g id="Group-Copy_6_">
					<path id="Rectangle-58-Copy_6_" fill="#D8D8D8" d="M5.311,220.53l45.854-31.231v13.973L5.311,234.501V220.53L5.311,220.53z"/>
					<path id="Rectangle-58-Copy-2_6_" fill="#D8D8D8" d="M5.311,197.283l45.854-31.229v13.973L5.311,211.256V197.283L5.311,197.283
						z"/>
					<path id="Rectangle-58-Copy-3_6_" fill="#D8D8D8" d="M5.311,175.329l45.854-31.226v13.969L5.311,189.299V175.329L5.311,175.329
						z"/>
					<path id="Rectangle-58-Copy-4_6_" fill="#D8D8D8" d="M5.311,152.085l45.854-31.229v13.972L5.311,166.055V152.085L5.311,152.085
						z"/>
					<path id="Rectangle-58-Copy-5_6_" fill="#D8D8D8" d="M5.311,128.839l45.854-31.231v13.976L5.311,142.811V128.839L5.311,128.839
						z"/>
					<path id="Rectangle-58-Copy-6_6_" fill="#D8D8D8" d="M5.311,105.593l45.854-31.229v13.972L5.311,119.564V105.593L5.311,105.593
						z"/>
					<path id="Rectangle-58-Copy-7" fill="#D8D8D8" d="M5.311,83.639L51.166,52.41v13.971L5.311,97.607V83.639L5.311,83.639z"/>
					<path id="Rectangle-58-Copy-8" fill="#D8D8D8" d="M5.311,60.393l45.854-31.228v13.97L5.311,74.361V60.393L5.311,60.393z"/>
				</g>
				
					<g id="Group-Copy-2_8_" transform="translate(61.000000, 88.500000) scale(1, -1) translate(-61.000000, -88.500000) translate(42.000000, 0.000000)">
					<path id="Rectangle-58-Copy-9_1_" fill="#D8D8D8" d="M15.362,133.865l45.854-31.229v13.971l-45.854,31.228V133.865
						L15.362,133.865z"/>
					<path id="Rectangle-58-Copy-10_1_" fill="#D8D8D8" d="M15.362,110.619l45.854-31.227v13.969L15.362,124.59V110.619
						L15.362,110.619z"/>
					<path id="Rectangle-58-Copy-11_8_" fill="#D8D8D8" d="M15.362,87.374l45.854-31.229v13.972l-45.854,31.229V87.374
						L15.362,87.374z"/>
					<path id="Rectangle-58-Copy-12_8_" fill="#D8D8D8" d="M15.362,65.418l45.854-31.229v13.972L15.362,79.393V65.418L15.362,65.418
						z"/>
					<path id="Rectangle-58-Copy-13_8_" fill="#D8D8D8" d="M15.362,42.173l45.854-31.228v13.97L15.362,56.145V42.173L15.362,42.173z
						"/>
					<path id="Rectangle-58-Copy-14_8_" fill="#D8D8D8" d="M15.362,18.928l45.854-31.227v13.97L15.362,32.896V18.928L15.362,18.928z
						"/>
					<path id="Rectangle-58-Copy-15_8_" fill="#D8D8D8" d="M15.362-3.027l45.854-31.229v13.973L15.362,10.945V-3.027L15.362-3.027z"
						/>
					<path id="Rectangle-58-Copy-16_8_" fill="#D8D8D8" d="M15.362-26.271L61.216-57.5v13.971l-45.854,31.23V-26.271L15.362-26.271z
						"/>
				</g>
			</g>
			<g id="Group-Copy-_x2B_-Group-Copy-2-Copy-Copy-Copy-Copy-Copy-Copy_2_" transform="translate(167.000000, 0.000000)">
				<g id="Group-Copy_7_">
					<path id="Rectangle-58-Copy_7_" fill="#D8D8D8" d="M25.413,220.53l45.854-31.231v13.973l-45.854,31.229V220.53L25.413,220.53z"
						/>
					<path id="Rectangle-58-Copy-2_7_" fill="#D8D8D8" d="M25.413,197.283l45.854-31.229v13.973l-45.854,31.229V197.283
						L25.413,197.283z"/>
					<path id="Rectangle-58-Copy-3_7_" fill="#D8D8D8" d="M25.413,175.329l45.854-31.226v13.969l-45.854,31.227V175.329
						L25.413,175.329z"/>
					<path id="Rectangle-58-Copy-4_7_" fill="#D8D8D8" d="M25.413,152.085l45.854-31.229v13.972l-45.854,31.228V152.085
						L25.413,152.085z"/>
					<path id="Rectangle-58-Copy-5_7_" fill="#D8D8D8" d="M25.413,128.839l45.854-31.231v13.976l-45.854,31.228V128.839
						L25.413,128.839z"/>
					<path id="Rectangle-58-Copy-6_7_" fill="#D8D8D8" d="M25.413,105.593l45.854-31.229v13.972l-45.854,31.231V105.593
						L25.413,105.593z"/>
					<path id="Rectangle-58-Copy-7_1_" fill="#D8D8D8" d="M25.413,83.639L71.267,52.41v13.971L25.413,97.607V83.639L25.413,83.639z"
						/>
					<path id="Rectangle-58-Copy-8_1_" fill="#D8D8D8" d="M25.413,60.393l45.854-31.228v13.97L25.413,74.361V60.393L25.413,60.393z"
						/>
				</g>
				
					<g id="Group-Copy-2_9_" transform="translate(61.000000, 88.500000) scale(1, -1) translate(-61.000000, -88.500000) translate(42.000000, 0.000000)">
					<path id="Rectangle-58-Copy-9_2_" fill="#D8D8D8" d="M35.463,133.865l45.853-31.229v13.971l-45.853,31.228V133.865
						L35.463,133.865z"/>
					<path id="Rectangle-58-Copy-10_2_" fill="#D8D8D8" d="M35.463,110.619l45.853-31.227v13.969L35.463,124.59V110.619
						L35.463,110.619z"/>
					<path id="Rectangle-58-Copy-11_9_" fill="#D8D8D8" d="M35.463,87.374l45.853-31.229v13.972l-45.853,31.229V87.374
						L35.463,87.374z"/>
					<path id="Rectangle-58-Copy-12_9_" fill="#D8D8D8" d="M35.463,65.418l45.852-31.229v13.972L35.463,79.393V65.418L35.463,65.418
						z"/>
					<path id="Rectangle-58-Copy-13_9_" fill="#D8D8D8" d="M35.463,42.173l45.853-31.228v13.97L35.463,56.145V42.173L35.463,42.173z
						"/>
					<path id="Rectangle-58-Copy-14_9_" fill="#D8D8D8" d="M35.463,18.928l45.853-31.227v13.97L35.463,32.896V18.928L35.463,18.928z
						"/>
					<path id="Rectangle-58-Copy-15_9_" fill="#D8D8D8" d="M35.463-3.027l45.853-31.229v13.973L35.463,10.945V-3.027L35.463-3.027z"
						/>
					<path id="Rectangle-58-Copy-16_9_" fill="#D8D8D8" d="M35.463-26.271L81.316-57.5v13.971l-45.853,31.23V-26.271L35.463-26.271z
						"/>
				</g>
			</g>
			<g id="Group-Copy-_x2B_-Group-Copy-2-Copy-Copy-Copy-Copy-Copy-Copy-Copy_1_" transform="translate(250.000000, 0.000000)">
				<g id="Group-Copy_8_">
					<path id="Rectangle-58-Copy_8_" fill="#D8D8D8" d="M45.274,220.53l45.853-31.231v13.973l-45.853,31.229V220.53L45.274,220.53z"
						/>
					<path id="Rectangle-58-Copy-2_8_" fill="#D8D8D8" d="M45.274,197.283l45.853-31.229v13.973l-45.853,31.229V197.283
						L45.274,197.283z"/>
					<path id="Rectangle-58-Copy-3_8_" fill="#D8D8D8" d="M45.274,175.329l45.853-31.226v13.969l-45.853,31.227V175.329
						L45.274,175.329z"/>
					<path id="Rectangle-58-Copy-4_8_" fill="#D8D8D8" d="M45.274,152.085l45.853-31.229v13.972l-45.853,31.228V152.085
						L45.274,152.085z"/>
					<path id="Rectangle-58-Copy-5_8_" fill="#D8D8D8" d="M45.274,128.839l45.853-31.231v13.976l-45.853,31.228V128.839
						L45.274,128.839z"/>
					<path id="Rectangle-58-Copy-6_8_" fill="#D8D8D8" d="M45.274,105.593l45.853-31.229v13.972l-45.853,31.231V105.593
						L45.274,105.593z"/>
					<path id="Rectangle-58-Copy-7_2_" fill="#D8D8D8" d="M45.274,83.639L91.127,52.41v13.971L45.274,97.607V83.639L45.274,83.639z"
						/>
					<path id="Rectangle-58-Copy-8_2_" fill="#D8D8D8" d="M45.274,60.393l45.853-31.228v13.97L45.274,74.361V60.393L45.274,60.393z"
						/>
				</g>
				
					<g id="Group-Copy-2_10_" transform="translate(61.000000, 88.500000) scale(1, -1) translate(-61.000000, -88.500000) translate(42.000000, 0.000000)">
					<path id="Rectangle-58-Copy-9_3_" fill="#D8D8D8" d="M55.324,133.865l45.853-31.229v13.971l-45.853,31.228V133.865
						L55.324,133.865z"/>
					<path id="Rectangle-58-Copy-10_3_" fill="#D8D8D8" d="M55.324,110.619l45.853-31.227v13.969L55.324,124.59V110.619
						L55.324,110.619z"/>
					<path id="Rectangle-58-Copy-11_10_" fill="#D8D8D8" d="M55.324,87.374l45.853-31.229v13.972l-45.853,31.229V87.374
						L55.324,87.374z"/>
					<path id="Rectangle-58-Copy-12_10_" fill="#D8D8D8" d="M55.324,65.418l45.853-31.229v13.972L55.324,79.393V65.418
						L55.324,65.418z"/>
					<path id="Rectangle-58-Copy-13_10_" fill="#D8D8D8" d="M55.324,42.173l45.853-31.228v13.97L55.324,56.145V42.173L55.324,42.173
						z"/>
					<path id="Rectangle-58-Copy-14_10_" fill="#D8D8D8" d="M55.324,18.928l45.853-31.227v13.97L55.324,32.896V18.928L55.324,18.928
						z"/>
					<path id="Rectangle-58-Copy-15_10_" fill="#D8D8D8" d="M55.324-3.027l45.853-31.229v13.973L55.324,10.945V-3.027L55.324-3.027z
						"/>
					<path id="Rectangle-58-Copy-16_10_" fill="#D8D8D8" d="M55.324-26.271L101.177-57.5v13.971l-45.853,31.23V-26.271
						L55.324-26.271z"/>
				</g>
			</g>
		</g>
		<g id="Group-Copy-5" transform="translate(333.000000, 159.000000)">
			<g id="Group-Copy-_x2B_-Group-Copy-2-Copy-Copy-Copy-Copy_3_">
				<g id="Group-Copy_9_">
					<path id="Rectangle-58-Copy_9_" fill="#D8D8D8" d="M65.134,220.53l45.854-31.231v13.973l-45.854,31.229V220.53L65.134,220.53z"
						/>
					<path id="Rectangle-58-Copy-2_9_" fill="#D8D8D8" d="M65.134,197.283l45.854-31.229v13.973l-45.854,31.229V197.283
						L65.134,197.283z"/>
					<path id="Rectangle-58-Copy-3_9_" fill="#D8D8D8" d="M65.134,175.329l45.854-31.226v13.969l-45.854,31.227V175.329
						L65.134,175.329z"/>
					<path id="Rectangle-58-Copy-4_9_" fill="#D8D8D8" d="M65.134,152.085l45.854-31.229v13.972l-45.854,31.228V152.085
						L65.134,152.085z"/>
					<path id="Rectangle-58-Copy-5_9_" fill="#D8D8D8" d="M65.134,128.839l45.854-31.231v13.976l-45.854,31.228V128.839
						L65.134,128.839z"/>
					<path id="Rectangle-58-Copy-6_9_" fill="#D8D8D8" d="M65.134,105.593l45.854-31.229v13.972l-45.854,31.231V105.593
						L65.134,105.593z"/>
					<path id="Rectangle-58-Copy-7_3_" fill="#D8D8D8" d="M65.134,83.639l45.854-31.229v13.971L65.134,97.607V83.639L65.134,83.639z
						"/>
					<path id="Rectangle-58-Copy-8_3_" fill="#D8D8D8" d="M65.134,60.393l45.854-31.228v13.97L65.134,74.361V60.393L65.134,60.393z"
						/>
				</g>
				
					<g id="Group-Copy-2_11_" transform="translate(61.000000, 88.500000) scale(1, -1) translate(-61.000000, -88.500000) translate(42.000000, 0.000000)">
					<path id="Rectangle-58-Copy-9_4_" fill="#D8D8D8" d="M75.186,133.865l45.854-31.229v13.971l-45.854,31.228V133.865
						L75.186,133.865z"/>
					<path id="Rectangle-58-Copy-10_4_" fill="#D8D8D8" d="M75.186,110.619l45.854-31.227v13.969L75.186,124.59V110.619
						L75.186,110.619z"/>
					<path id="Rectangle-58-Copy-11_11_" fill="#D8D8D8" d="M75.186,87.374l45.854-31.229v13.972l-45.854,31.229V87.374
						L75.186,87.374z"/>
					<path id="Rectangle-58-Copy-12_11_" fill="#D8D8D8" d="M75.186,65.418l45.854-31.229v13.972L75.186,79.393V65.418
						L75.186,65.418z"/>
					<path id="Rectangle-58-Copy-13_11_" fill="#D8D8D8" d="M75.186,42.173l45.854-31.228v13.97L75.186,56.145V42.173L75.186,42.173
						z"/>
					<path id="Rectangle-58-Copy-14_11_" fill="#D8D8D8" d="M75.186,18.928l45.854-31.227v13.97L75.186,32.896V18.928L75.186,18.928
						z"/>
					<path id="Rectangle-58-Copy-15_11_" fill="#D8D8D8" d="M75.186-3.027l45.854-31.229v13.973L75.186,10.945V-3.027L75.186-3.027z
						"/>
					<path id="Rectangle-58-Copy-16_11_" fill="#D8D8D8" d="M75.186-26.271L121.039-57.5v13.971l-45.854,31.23V-26.271
						L75.186-26.271z"/>
				</g>
			</g>
			<g id="Group-Copy-_x2B_-Group-Copy-2-Copy-Copy-Copy-Copy-Copy_3_" transform="translate(83.000000, 0.000000)">
				<g id="Group-Copy_10_">
					<path id="Rectangle-58-Copy_10_" fill="#D8D8D8" d="M84.996,220.53l45.854-31.231v13.973l-45.854,31.229V220.53L84.996,220.53z
						"/>
					<path id="Rectangle-58-Copy-2_10_" fill="#D8D8D8" d="M84.996,197.283l45.854-31.229v13.973l-45.854,31.229V197.283
						L84.996,197.283z"/>
					<path id="Rectangle-58-Copy-3_10_" fill="#D8D8D8" d="M84.996,175.329l45.854-31.226v13.969l-45.854,31.227V175.329
						L84.996,175.329z"/>
					<path id="Rectangle-58-Copy-4_10_" fill="#D8D8D8" d="M84.996,152.085l45.854-31.229v13.972l-45.854,31.228V152.085
						L84.996,152.085z"/>
					<path id="Rectangle-58-Copy-5_10_" fill="#D8D8D8" d="M84.996,128.839l45.854-31.231v13.976l-45.854,31.228V128.839
						L84.996,128.839z"/>
					<path id="Rectangle-58-Copy-6_10_" fill="#D8D8D8" d="M84.996,105.593l45.854-31.229v13.972l-45.854,31.231V105.593
						L84.996,105.593z"/>
					<path id="Rectangle-58-Copy-7_4_" fill="#D8D8D8" d="M84.996,83.639L130.85,52.41v13.971L84.996,97.607V83.639L84.996,83.639z"
						/>
					<path id="Rectangle-58-Copy-8_4_" fill="#D8D8D8" d="M84.996,60.393l45.854-31.228v13.97L84.996,74.361V60.393L84.996,60.393z"
						/>
				</g>
				
					<g id="Group-Copy-2_12_" transform="translate(61.000000, 88.500000) scale(1, -1) translate(-61.000000, -88.500000) translate(42.000000, 0.000000)">
					<path id="Rectangle-58-Copy-9_5_" fill="#D8D8D8" d="M95.046,133.865l45.854-31.229v13.971l-45.854,31.228V133.865
						L95.046,133.865z"/>
					<path id="Rectangle-58-Copy-10_5_" fill="#D8D8D8" d="M95.046,110.619L140.9,79.393v13.969L95.046,124.59V110.619
						L95.046,110.619z"/>
					<path id="Rectangle-58-Copy-11_12_" fill="#D8D8D8" d="M95.046,87.374L140.9,56.145v13.972l-45.854,31.229V87.374
						L95.046,87.374z"/>
					<path id="Rectangle-58-Copy-12_12_" fill="#D8D8D8" d="M95.046,65.418L140.9,34.189v13.972L95.046,79.393V65.418L95.046,65.418
						z"/>
					<path id="Rectangle-58-Copy-13_12_" fill="#D8D8D8" d="M95.046,42.173L140.9,10.945v13.97L95.046,56.145V42.173L95.046,42.173z
						"/>
					<path id="Rectangle-58-Copy-14_12_" fill="#D8D8D8" d="M95.046,18.928L140.9-12.299v13.97L95.046,32.896V18.928L95.046,18.928z
						"/>
					<path id="Rectangle-58-Copy-15_12_" fill="#D8D8D8" d="M95.046-3.027L140.9-34.256v13.973L95.046,10.945V-3.027L95.046-3.027z"
						/>
					<path id="Rectangle-58-Copy-16_12_" fill="#D8D8D8" d="M95.046-26.271L140.9-57.501v13.971L95.046-12.299V-26.271
						L95.046-26.271z"/>
				</g>
			</g>
			<g id="Group-Copy-_x2B_-Group-Copy-2-Copy-Copy-Copy-Copy-Copy-Copy_3_" transform="translate(167.000000, 0.000000)">
				<g id="Group-Copy_11_">
					<path id="Rectangle-58-Copy_11_" fill="#D8D8D8" d="M105.097,220.53l45.854-31.231v13.973l-45.854,31.229V220.53
						L105.097,220.53z"/>
					<path id="Rectangle-58-Copy-2_11_" fill="#D8D8D8" d="M105.097,197.283l45.854-31.229v13.973l-45.854,31.229V197.283
						L105.097,197.283z"/>
					<path id="Rectangle-58-Copy-3_11_" fill="#D8D8D8" d="M105.097,175.329l45.854-31.226v13.969l-45.854,31.227V175.329
						L105.097,175.329z"/>
					<path id="Rectangle-58-Copy-4_11_" fill="#D8D8D8" d="M105.097,152.085l45.854-31.229v13.972l-45.854,31.228V152.085
						L105.097,152.085z"/>
					<path id="Rectangle-58-Copy-5_11_" fill="#D8D8D8" d="M105.097,128.839l45.854-31.231v13.976l-45.854,31.228V128.839
						L105.097,128.839z"/>
					<path id="Rectangle-58-Copy-6_11_" fill="#D8D8D8" d="M105.097,105.593l45.854-31.229v13.972l-45.854,31.231V105.593
						L105.097,105.593z"/>
					<path id="Rectangle-58-Copy-7_5_" fill="#D8D8D8" d="M105.097,83.639l45.854-31.229v13.971l-45.854,31.227V83.639
						L105.097,83.639z"/>
					<path id="Rectangle-58-Copy-8_5_" fill="#D8D8D8" d="M105.097,60.393l45.854-31.228v13.97l-45.854,31.229V60.393
						L105.097,60.393z"/>
				</g>
				
					<g id="Group-Copy-2_13_" transform="translate(61.000000, 88.500000) scale(1, -1) translate(-61.000000, -88.500000) translate(42.000000, 0.000000)">
					<path id="Rectangle-58-Copy-9_6_" fill="#D8D8D8" d="M115.148,133.865L161,102.639v13.971l-45.852,31.227V133.865
						L115.148,133.865z"/>
					<path id="Rectangle-58-Copy-10_6_" fill="#D8D8D8" d="M115.148,110.619L161,79.393v13.969l-45.852,31.229V110.619
						L115.148,110.619z"/>
					<path id="Rectangle-58-Copy-11_13_" fill="#D8D8D8" d="M115.148,87.374L161,56.145v13.972l-45.852,31.229V87.374
						L115.148,87.374z"/>
					<path id="Rectangle-58-Copy-12_13_" fill="#D8D8D8" d="M115.148,65.418L161,34.189v13.972l-45.852,31.231V65.418
						L115.148,65.418z"/>
					<path id="Rectangle-58-Copy-13_13_" fill="#D8D8D8" d="M115.148,42.173L161,10.945v13.97l-45.852,31.229V42.173L115.148,42.173
						z"/>
					<path id="Rectangle-58-Copy-14_13_" fill="#D8D8D8" d="M115.148,18.928L161-12.299v13.97l-45.852,31.226V18.928L115.148,18.928
						z"/>
					<path id="Rectangle-58-Copy-15_13_" fill="#D8D8D8" d="M115.148-3.027L161-34.256v13.973l-45.852,31.229V-3.027L115.148-3.027z
						"/>
					<path id="Rectangle-58-Copy-16_13_" fill="#D8D8D8" d="M115.148-26.271L161-57.501v13.971l-45.852,31.231V-26.271
						L115.148-26.271z"/>
				</g>
			</g>
		</g>
	</g>
</g>
</svg>
