<svg xmlns="http://www.w3.org/2000/svg" viewBox="0 0 200.97 162"><style>.style0{fill:#3E6FB3;}</style><path d="M200.802 153.781c0.105-0.579 0.168-1.173 0.168-1.781v-7.95c-4.551-0.261-8.164-4.023-8.164-8.639 s3.613-8.378 8.164-8.639v-9.723c-4.551-0.261-8.164-4.023-8.164-8.639s3.613-8.378 8.164-8.639V89.55 c-4.551-0.261-8.164-4.023-8.164-8.639s3.613-8.378 8.164-8.639V63.05c-4.551-0.261-8.164-4.023-8.164-8.639 s3.613-8.378 8.164-8.639V36.05c-4.551-0.261-8.164-4.023-8.164-8.639s3.613-8.378 8.164-8.639V10c0-0.321-0.019-0.639-0.048-0.952 c-4.528-0.284-8.116-4.036-8.116-8.637c0-0.079 0.01-0.155 0.012-0.233C192.218 0.1 191.6 0 191 0h-7.856 c0.007 0.1 0 0.3 0 0.411c0 4.785-3.879 8.664-8.664 8.664s-8.664-3.879-8.664-8.664c0-0.139 0.014-0.274 0.021-0.411 h-9.713c0.007 0.1 0 0.3 0 0.411c0 4.785-3.879 8.664-8.664 8.664s-8.664-3.879-8.664-8.664 c0-0.139 0.014-0.274 0.021-0.411h-10.213c0.007 0.1 0 0.3 0 0.411c0 4.785-3.879 8.664-8.664 8.7 s-8.664-3.879-8.664-8.664c0-0.139 0.014-0.274 0.021-0.411h-9.213c0.007 0.1 0 0.3 0 0.4 c0 4.785-3.879 8.664-8.664 8.664s-8.664-3.879-8.664-8.664c0-0.139 0.014-0.274 0.021-0.411h-9.713 c0.006 0.1 0 0.3 0 0.411c0 4.785-3.879 8.664-8.664 8.664s-8.664-3.879-8.664-8.664c0-0.139 0.014-0.274 0.021-0.411 H48.97c-0.289 0-0.572 0.019-0.854 0.043c0.005 0.1 0 0.2 0 0.368c0 4.785-3.879 8.664-8.664 8.7 c-0.153 0-0.301-0.015-0.452-0.022C38.988 9.4 39 9.7 39 10v8.772c0.167-0.01 0.331-0.025 0.5-0.025 c4.784 0 8.7 3.9 8.7 8.664s-3.88 8.664-8.664 8.664c-0.169 0-0.333-0.016-0.5-0.025v9.723c0.167-0.01 0.331-0.025 0.5-0.025 c4.784 0 8.7 3.9 8.7 8.664s-3.88 8.664-8.664 8.664c-0.169 0-0.333-0.016-0.5-0.025v9.223c0.167-0.01 0.331-0.025 0.5-0.025 c4.784 0 8.7 3.9 8.7 8.664s-3.88 8.664-8.664 8.664c-0.169 0-0.333-0.016-0.5-0.025v10.223c0.167-0.01 0.331-0.025 0.5-0.025 c4.784 0 8.7 3.9 8.7 8.664s-3.88 8.664-8.664 8.664c-0.169 0-0.333-0.016-0.5-0.025v9.723c0.167-0.01 0.331-0.025 0.5-0.025 c4.784 0 8.7 3.9 8.7 8.664s-3.88 8.664-8.664 8.664c-0.169 0-0.333-0.016-0.5-0.025V152c0 0.6 0.1 1.2 0.2 1.8 c0.112-0.004 0.222-0.017 0.335-0.017c4.632 0 8.4 3.6 8.6 8.21C48.395 162 48.7 162 49 162h8.856 c0.216-4.592 3.997-8.253 8.644-8.253s8.427 3.7 8.6 8.253h9.713c0.216-4.592 3.997-8.253 8.644-8.253s8.428 3.7 8.6 8.3 h9.213c0.216-4.592 3.997-8.253 8.644-8.253s8.428 3.7 8.6 8.253h10.213c0.216-4.592 3.997-8.253 8.644-8.253 s8.428 3.7 8.6 8.253h9.713c0.216-4.592 3.997-8.253 8.644-8.253s8.428 3.7 8.6 8.253h7.856 c0.639 0 1.261-0.066 1.865-0.181C193.126 157.5 196.5 154.1 200.8 153.781z M183.97 140c0 2.762-2.238 5-5 5h-117 c-2.761 0-5-2.238-5-5V23c0-2.762 2.239-5 5-5h117c2.762 0 5 2.2 5 5V140z" class="style0"/><path d="M109.054 63.277c-12.82 0.001-25.93-4.22-38.804-8.362c-22.583-7.27-43.916-14.135-62.152 1.5 c-2.399 2.053-5.634 1.213-7.227-1.883c-1.593-3.095-0.94-7.271 1.458-9.325c22.067-18.911 46.66-10.996 70.444-3.343 c22.583 7.3 43.9 14.1 62.153-1.496c2.399-2.054 5.634-1.213 7.2 1.882c1.593 3.1 0.9 7.271-1.458 9.3 C130.572 60.2 119.9 63.3 109.1 63.277z" class="style0"/><path d="M111.325 90.678c-13.268 0-26.806-4.412-40.091-8.74C48.249 74.4 26.5 67.4 8.1 83.2 c-2.399 2.053-5.634 1.214-7.227-1.882c-1.593-3.095-0.94-7.271 1.458-9.326c22.285-19.098 47.283-10.954 71.457-3.075 c22.668 7.4 44.1 14.4 62.725-0.128c2.468-1.918 5.67-0.89 7.2 2.293c1.485 3.2 0.7 7.315-1.776 9.2 C132.04 87.9 121.8 90.7 111.3 90.678z" class="style0"/><path d="M112.038 118.817c-14.35 0-28.388-4.695-42.15-9.3c-22.241-7.44-43.25-14.468-61.79 1.4 c-2.399 2.054-5.634 1.213-7.227-1.883c-1.593-3.095-0.94-7.27 1.458-9.325c22.419-19.211 46.697-11.09 70.175-3.239 c21.655 7.2 44 14.7 65.9 1.504c2.604-1.581 5.71-0.136 6.9 3.228c1.224 3.4 0.1 7.369-2.501 8.9 C132.388 116.5 122.1 118.8 112 118.817z" class="style0"/></svg>