<svg xmlns="http://www.w3.org/2000/svg" viewBox="0 0 158.782 129.037"><style>.style0{fill:#55ACEE;}</style><path d="M158.782 15.275c-5.843 2.591-12.12 4.342-18.71 5.129c6.726-4.031 11.891-10.415 14.324-18.022 c-6.296 3.733-13.267 6.444-20.688 7.904C127.766 4 119.3 0 109.9 0C91.939 0 77.4 14.6 77.4 32.6 c0 2.6 0.3 5 0.8 7.423C51.125 38.6 27.1 25.7 11.1 5.962C8.25 10.8 6.6 16.4 6.6 22.3 c0 11.3 5.8 21.3 14.5 27.114c-5.339-0.17-10.362-1.635-14.754-4.074c-0.003 0.136-0.003 0.272-0.003 0.4 c0 15.8 11.2 28.9 26.1 31.941c-2.734 0.745-5.612 1.144-8.583 1.144c-2.099 0-4.14-0.205-6.129-0.585 c4.146 12.9 16.2 22.4 30.4 22.623c-11.149 8.736-25.195 13.944-40.457 13.944c-2.63 0-5.222-0.154-7.771-0.455 c14.417 9.2 31.5 14.6 49.9 14.636c59.919 0 92.685-49.638 92.685-92.686c0-1.412-0.031-2.817-0.094-4.213 C148.891 27.5 154.4 21.8 158.8 15.275z" class="style0"/></svg>