<svg xmlns="http://www.w3.org/2000/svg" viewBox="0 0 43 28"><title>Group</title><g stroke="#0063B0" stroke-width="1.5"><path fill="#FFF" d="M1.755 4h30.817c.553 0 1 .448 1 1v21.29c0 .554-.447 1-1 1H1.755c-.552 0-1-.446-1-1V5c0-.552.448-1 1-1z"/><path fill="none" d="M1.093 5.177l15.735 13.338L33.234 5.013M1.093 26.617l13.195-10.465M19.7 16.152l13.195 10.465"/></g><ellipse fill="#FFF" stroke="#78C359" stroke-width="1.5" cx="8.5" cy="7.979" rx="8.373" ry="7.922" transform="translate(25 1.103)"/><ellipse fill="none" cx="8.5" cy="7.979" rx="8.373" ry="7.922" transform="translate(25 1.103)"/><path fill="#E9EEF3" d="M31.615 12.85L28.61 9.965l1.415-1.362 1.672 1.605 4.734-4.042 1.334 1.438-6.15 5.248"/><path fill="#78C359" d="M32.03 12.448L29.025 9.56 30.44 8.2l1.673 1.605 4.733-4.042L38.18 7.2l-6.15 5.248"/></svg>