<svg xmlns="http://www.w3.org/2000/svg" version="1.1" x="0" y="0" width="35" height="35" viewBox="0 0 35 35" enable-background="new 0 0 35 35" xml:space="preserve"><path fill="#FFFFFF" d="M23.5 4.9l0 0L23.4 4.9 3.5 24.9l-0.1 0.1L0 35l10-3.4c0 0 0 0 0 0l0.1-0.1 20.1-20c-0.5-1.5-1.3-2.9-2.5-4.1C26.4 6.2 25 5.4 23.5 4.9zM5.4 32.4c-0.4-0.9-1.8-2.3-2.8-2.8l1.3-3.9c2.3 0.4 4.9 3 5.3 5.4L5.4 32.4zM34.9 6.7c0.6-2.7-4.1-7.3-6.6-6.6l0 0 -0.1 0.1L24.9 3.5c3 1.2 5.6 3.8 6.7 6.6l3.4-3.4 -0.3-0.3L34.9 6.7z"/></svg>