<svg width="82" height="49" viewBox="0 0 82 49" xmlns="http://www.w3.org/2000/svg" xmlns:xlink="http://www.w3.org/1999/xlink"><title>bank</title><defs><path id="a" d="M1.024 2.023H0V20.43h1v5.284h1c1.104 0 2 .888 2 1.993V30h27V0H1l.024 2.023z"/><path id="c" d="M0 0h49v27H0V0z"/></defs><g fill="none" fill-rule="evenodd"><g transform="translate(51 18)"><mask id="b" fill="#fff"><use xlink:href="#a"/></mask><g mask="url(#b)"><path d="M-13.177 2.33c0-.41.334-.743.753-.743H24.63c.416 0 .753.343.753.752v21.496c0 .416-.333.753-.753.755l-37.054.107c-.415 0-.753-.324-.753-.74V2.33z" stroke="#8CCE54" stroke-width=".782" fill="#E0F6CD"/><path d="M-13.177 2.33c0-.41.334-.743.753-.743H24.63c.416 0 .753.343.753.752v21.496c0 .416-.333.753-.753.755l-37.054.107c-.415 0-.753-.324-.753-.74V2.33z"/><path d="M-11.655 3.93c0-.423.34-.767.768-.767h37.81c.425 0 .77.336.77.764v22.257c0 .422-.342.765-.77.766l-37.81.11c-.424.002-.768-.335-.768-.765V3.93z" stroke="#8CCE54" stroke-width=".798" fill="#E0F6CD"/><path d="M-11.655 3.93c0-.423.34-.767.768-.767h37.81c.425 0 .77.336.77.764v22.257c0 .422-.342.765-.77.766l-37.81.11c-.424.002-.768-.335-.768-.765V3.93z"/><g transform="translate(-11.376 4.587)"><rect x=".455" y=".414" width="40.921" height="24.16" rx=".782" stroke="#8CCE54" stroke-width=".814" fill="#FFF"/><rect x=".455" y=".414" width="40.921" height="24.16" rx=".782"/></g><path d="M26.852 23.54V11.148c-2.254 0-4.08-1.81-4.08-4.045H-3.17c0 2.234-1.826 4.045-4.08 4.045V23.54c2.254 0 4.08 1.812 4.08 4.046h25.94c0-2.234 1.826-4.045 4.08-4.045z" stroke="#8CCE54" stroke-width=".5" fill="#E0F6CD"/><path d="M26.852 23.54V11.148c-2.254 0-4.08-1.81-4.08-4.045H-3.17c0 2.234-1.826 4.045-4.08 4.045V23.54c2.254 0 4.08 1.812 4.08 4.046h25.94c0-2.234 1.826-4.045 4.08-4.045z"/><g transform="translate(2.624 10.587)"><ellipse cx="6.916" cy="7.019" rx="6.033" ry="6.04" stroke="#8CCE54" stroke-width=".5" fill="#FFF"/><ellipse cx="6.916" cy="7.019" rx="6.033" ry="6.04"/></g><path d="M8.632 16.027c0-.27.145-.48.458-.547v1.078c-.32-.112-.458-.247-.458-.53zm1.213 2c.364.126.486.283.486.545 0 .3-.13.487-.485.562v-1.108zm-1.707.238l-.96.63c.408.658.938 1.137 1.868 1.242v.62h.827v-.62c1.3-.135 1.765-.883 1.765-1.708 0-1.048-.726-1.437-1.793-1.684v-1.19c.298.126.494.366.675.628l.944-.71c-.34-.488-.776-.892-1.59-1.012v-.532h-.828v.51c-1.04.09-1.722.71-1.722 1.722 0 1.1.865 1.444 1.766 1.66v1.29c-.422-.12-.66-.457-.952-.847z" fill="#8CCE54"/></g></g><path d="M29.784 1.99s24.42 12.79 24.255 12.757c0 0-50.99-.048-51.04 0 .042-.04 24.46-12.756 24.46-12.756.62-.32 1.702-.32 2.324 0z" fill="#FFF"/><path d="M29.784 1.99s24.42 12.79 24.255 12.757c0 0-50.99-.048-51.04 0 .042-.04 24.46-12.756 24.46-12.756.62-.32 1.702-.32 2.324 0zM1.344 14.098c-1.38.714-1.093 1.93.463 1.93h53.63c1.564 0 1.84-1.217.462-1.93L30.357.88c-.982-.507-2.492-.507-3.473 0L1.345 14.098z" fill="#3E6FB3"/><path d="M3.274 44.624v2.752c0 .2.176.374.385.374h49.68c.21 0 .386-.17.386-.374v-2.752c0-.2-.176-.374-.385-.374H3.66c-.21 0-.386.17-.386.374z" fill="#FFF"/><path d="M3.274 44.624v2.752c0 .2.176.374.385.374h49.68c.21 0 .386-.17.386-.374v-2.752c0-.2-.176-.374-.385-.374H3.66c-.21 0-.386.17-.386.374zm-1.274 0C2 43.727 2.75 43 3.66 43h49.68c.917 0 1.66.736 1.66 1.624v2.752c0 .897-.75 1.624-1.66 1.624H3.66C2.742 49 2 48.264 2 47.376v-2.752z" fill="#3E6FB3"/><g transform="translate(4 16)"><mask id="d" fill="#fff"><use xlink:href="#c"/></mask><use xlink:href="#c"/><g stroke="#3E6FB3" fill="#FFF" mask="url(#d)"><path stroke-width="1.25" d="M3.138 24.013h42.967v4.672H3.138z"/><g stroke-width="1.221"><path d="M2.115 1.34h7.16v24.51h-7.16z"/><path d="M.274-1.315h10.64V3.79H.273zM.274 22.99h10.64v5.5H.273z"/></g><g stroke-width="1.25"><path d="M21.143 1.34h7.16v24.51h-7.16z"/><path d="M19.302-1.315h10.64V3.79H19.3zM19.302 22.99h10.64v5.5H19.3z"/></g><g stroke-width="1.25"><path d="M39.353 1.34h7.16v24.51h-7.16z"/><path d="M37.512-1.315h10.64V3.79H37.51zM37.512 22.99h10.64v5.5H37.51z"/></g></g></g></g></svg>