<?xml version="1.0" encoding="UTF-8" standalone="no"?>
<svg viewBox="0 0 50 36" version="1.1" xmlns="http://www.w3.org/2000/svg" xmlns:xlink="http://www.w3.org/1999/xlink" xmlns:sketch="http://www.bohemiancoding.com/sketch/ns">
    <!-- Generator: Sketch 3.3.2 (12043) - http://www.bohemiancoding.com/sketch -->
    <title>XMLID_3_</title>
    <desc>Created with Sketch.</desc>
    <defs></defs>
    <g id="Page-1" stroke="none" stroke-width="1" fill="none" fill-rule="evenodd" sketch:type="MSPage">
        <g id="Check_active" sketch:type="MSLayerGroup" transform="translate(-16.000000, -20.000000)" fill="#FFFFFF">
            <g id="XMLID_3_" transform="translate(16.000000, 20.000000)" sketch:type="MSShapeGroup">
                <path d="M45.612,0.054 L49.19,2.158 L38.663,20.431 L35.567,21.624 L35.027,18.368 L45.612,0.054 Z" id="XMLID_279_"></path>
                <path d="M40.081,22.121 L33.871,24.529 L32.851,17.947 L40.155,5.297 L0.964,5.297 L0.964,35.055 L46.883,35.055 L46.883,10.341 L40.081,22.121 L40.081,22.121 Z M14.09,28.139 L12.245,29.984 L10.031,27.77 L7.817,29.984 L5.972,28.139 L8.186,25.925 L5.972,23.711 L7.817,21.866 L10.031,24.08 L12.245,21.866 L14.09,23.711 L11.876,25.925 L14.09,28.139 L14.09,28.139 Z M41.974,29.825 L17.449,29.825 L17.449,27.216 L41.974,27.216 L41.974,29.825 L41.974,29.825 Z" id="XMLID_278_"></path>
            </g>
        </g>
    </g>
</svg>
