<svg viewBox="0 0 40 39" version="1.1" xmlns="http://www.w3.org/2000/svg"><title>Fill 4</title><desc>Created with Sketch.</desc><defs><filter x="-50%" y="-50%" width="200%" height="200%" filterUnits="objectBoundingBox" id="a"><feOffset dx="0" dy="2" in="SourceAlpha" result="shadowOffsetOuter1"/><feGaussianBlur stdDeviation="2" in="shadowOffsetOuter1" result="shadowBlurOuter1"/><feColorMatrix values="0 0 0 0 0 0 0 0 0 0 0 0 0 0 0 0 0 0 0.158633379 0" in="shadowBlurOuter1" type="matrix" result="shadowMatrixOuter1"/><feMerge><feMergeNode in="shadowMatrixOuter1"/><feMergeNode in="SourceGraphic"/></feMerge></filter></defs><g stroke="none" stroke-width="1" fill="none" fill-rule="evenodd"><g transform="translate(-149 -605)"><path fill="#F1F9FC" d="M0 119h918v1161H0z"/><rect stroke-opacity=".269" stroke="#9B9B9B" stroke-width=".5" fill="#fff" filter="url(#a)" x="58" y="154" width="800" height="600" rx="7"/><g fill="#004B8D"><path d="M160.462 619.89h2.433l.47 1.407h2.11l-2.735-7.583h-1.944l-2.733 7.583h1.9l.5-1.408zm1.23-3.543h.025l.708 2.092h-1.472l.74-2.093z"/><path d="M167.04 621.297h2.087v-5.858h2.222v-1.694h-6.535v1.693h2.226v5.857"/><path d="M174.104 616.52h.02c.17.992.26 1.33.44 1.94l.793 2.837h1.838l.814-2.836c.165-.58.29-1.06.415-1.836h.022v4.673h1.995v-7.55h-2.83l-1.222 5.123h-.02l-1.358-5.124h-2.767v7.55h1.86v-4.775"/><path d="M184.85 605.253h-31.196c-2.292 0-4.154 1.816-4.154 4.058v29.777c0 2.242 1.862 4.06 4.154 4.06h31.195c2.29 0 4.15-1.818 4.15-4.06V609.31c0-2.24-1.86-4.057-4.15-4.057zm-30.05 23.43h14.95v1.567H154.8v-1.567zm17.464 7.55h3.09v3.018h-3.09v-3.017zm0-4.14h3.09v3.02h-3.09v-3.02zm0-4.136h3.09v3.02h-3.09v-3.02zm4.233 8.276h3.087v3.018h-3.087v-3.017zm0-4.14h3.087v3.02h-3.087v-3.02zm0-4.136h3.087v3.02h-3.087v-3.02zm4.23 8.276h3.09v3.018h-3.09v-3.017zm0-4.14h3.09v3.02h-3.09v-3.02zm0-4.136h3.09v3.02h-3.09v-3.02zm-27.073-18.646h31.195v16.39h-31.196v-16.39z"/></g></g></g></svg>