<svg xmlns="http://www.w3.org/2000/svg" version="1.1" x="0" y="0" width="46" height="40.5" viewBox="0 0 46 40.5" enable-background="new 0 0 46 40.53" xml:space="preserve"><path fill="none" d="M39.5 10.6c1.1 1.5 1.9 3.1 2.4 4.9h2.8c0.7 0 1.3 0.6 1.3 1.3v9.4c0 0.7-0.6 1.3-1.3 1.3h-4.3c-0.9 1.5-1.9 2.9-3.2 4.1l-0.6 9H26.2l-0.2-3.7c-1.1 0.2-2.1 0.2-3.3 0.2 -1.1 0-2.2-0.1-3.3-0.2l-0.2 3.7H8.7L8.2 31.5C5.8 29.3 4.1 26.5 3.4 23.4c-0.1 0-0.3 0-0.4 0C1.3 23.4 0 22.2 0 20.6c0-1.6 1.3-2.8 2.9-2.8 0 0 0.1 0 0.1 0 1.1-8.6 9.5-15.4 19.7-15.4 3.5 0 6.8 0.8 9.6 2.2L39.5 0V10.6z"/><path fill="#406FB3" d="M44.7 15.5H41.9c-0.5-1.7-1.3-3.4-2.4-4.9V0l-7.2 4.6C29.5 3.2 26.2 2.4 22.7 2.4c-10.2 0-18.5 6.7-19.7 15.4H2.9C1.3 17.8 0 19 0 20.6c0 1.6 1.3 2.9 2.9 2.9 0.1 0 0.3 0 0.4 0C4.1 26.5 5.8 29.3 8.2 31.5l0.6 9h10.5l0.2-3.7c1.1 0.2 2.2 0.2 3.3 0.2 1.1 0 2.2-0.1 3.3-0.2l0.2 3.7H36.7l0.6-9c1.3-1.2 2.4-2.6 3.2-4.1h4.3c0.7 0 1.3-0.6 1.3-1.3v-9.4C46 16 45.4 15.5 44.7 15.5zM18.3 8.8c3-1.1 6.3-1.1 9.3 0 0.6 0.2 0.9 0.8 0.7 1.4 -0.2 0.5-0.6 0.7-1.1 0.7 -0.1 0-0.3 0-0.4-0.1 -2.5-0.9-5.3-0.9-7.8 0 -0.6 0.2-1.2-0.1-1.5-0.7C17.4 9.6 17.8 9 18.3 8.8zM22.7 31.1c-4.9 0-8.8-3.9-8.8-8.7 0-4.8 4-8.7 8.9-8.7s8.9 3.9 8.9 8.7C31.6 27.2 27.6 31.1 22.7 31.1z"/><ellipse fill="none" cx="22.7" cy="22.5" rx="8.9" ry="8.7"/><path fill="#406FB3" d="M22.2 28h0.9v-1c1.9-0.1 2.8-1.1 2.8-2.4 0-1.6-1.3-2.1-2.8-2.5v-2.5c0.7 0.1 1.1 0.5 1.5 1.1l1-0.8c-0.5-0.7-1.1-1.3-2.4-1.5v-0.8h-0.9v0.8c-1.6 0.1-2.6 1-2.6 2.4 0 1.6 1.3 2.1 2.6 2.4v2.8c-0.9-0.1-1.4-0.6-1.9-1.3l-1 0.7c0.5 0.8 1.3 1.6 2.8 1.8V28zM23.1 23.3c0.9 0.3 1.5 0.6 1.5 1.4 0 0.8-0.6 1.1-1.4 1.2V23.3zM22.3 21.8c-0.8-0.2-1.3-0.5-1.3-1.2 0-0.6 0.4-1.1 1.3-1.1V21.8z"/></svg>