<svg xmlns="http://www.w3.org/2000/svg" version="1.1" x="0" y="0" width="100" height="100" viewBox="0 0 100 100" enable-background="new 0 0 100 100" xml:space="preserve"><path fill="#FFFFFF" d="M55.6 41.6V20c5.3 1.1 10.4 3.5 15.4 7.3l6.3-10.7c-6.2-4.7-13.1-7.6-21.4-8.6V1.4h-9.8v6.4c-14.3 1.1-24 9.4-24 21.7v0.2c0 12.7 7.9 19 24.4 23.3v22.3c-7.5-1.1-13.5-4.5-20-9.8L19.4 75.8c7.7 6.1 16.7 10.1 26.8 11.2V98.2h9.8V87.1c14.3-1.2 24.4-9.5 24.4-21.9v-0.2C80.4 52.9 72.9 45.9 55.6 41.6zM46.6 39.2c-8.6-2.6-10.9-5.7-10.9-10.3v-0.2c0-5 3.8-8.9 10.9-9.4V39.2zM66.9 66c0 5.5-4.1 9.1-11.3 9.7V55.1c8.6 2.6 11.3 5.7 11.3 10.7V66z"/></svg>