<svg viewBox="0 0 39 36" xmlns="http://www.w3.org/2000/svg" xmlns:xlink="http://www.w3.org/1999/xlink"><defs><path id="a" d="M11.64 12.58c0 2.28-1.87 3.8-4.5 4.03v2.06h-1.8V16.6c-1.86-.22-3.52-.95-4.94-2.08l1.34-1.9c1.2.96 2.3 1.6 3.67 1.8v-4.1C2.38 9.5.93 8.36.93 6V6c0-2.28 1.8-3.8 4.42-4V.8h1.8v1.23c1.52.2 2.8.73 3.94 1.6L9.9 5.58C9 4.9 8.05 4.45 7.08 4.24v3.97c3.18.8 4.57 2.08 4.57 4.3v.06z"/><path id="c" d="M2.64 4.16h-2V.48h2v3.68V.5c-1.3.1-2 .82-2 1.74v.04c0 .86.4 1.42 2 1.9z"/><path id="e" d="M.6 2.66V.76h2.1v3.8H.6V.75c1.6.48 2.1 1.05 2.1 1.97v.04c0 1-.78 1.68-2.1 1.78v-1.9z"/><path id="g" d="M11.64 12.58c0 2.28-1.87 3.8-4.5 4.03v2.06h-1.8V16.6c-1.86-.22-3.52-.95-4.94-2.08l1.34-1.9c1.2.96 2.3 1.6 3.67 1.8v-4.1C2.38 9.5.93 8.36.93 6V6c0-2.28 1.8-3.8 4.42-4V.8h1.8v1.23c1.52.2 2.8.73 3.94 1.6L9.9 5.58C9 4.9 8.05 4.45 7.08 4.24v3.97c3.18.8 4.57 2.08 4.57 4.3v.06z"/><path id="i" d="M.67 1.9v.04c0 .86.42 1.42 2 1.9V.16c-1.3.1-2 .82-2 1.74z"/><path id="k" d="M.67 1.9v.04c0 .86.42 1.42 2 1.9V.16c-1.3.1-2 .82-2 1.74z"/><path id="m" d="M.7.5h10l-5 5-5-5z"/></defs><g transform="translate(-2 2)" fill="none" fill-rule="evenodd"><g transform="translate(14 6)"><mask id="b" fill="#fff"><use xlink:href="#a"/></mask><path d="M.3.78h11.4v17.9H.3V.8z" fill="#2C639E" mask="url(#b)"/><g transform="translate(2.769 3.619)"><mask id="d" fill="#fff"><use xlink:href="#c"/></mask><path d="M.63.42h2.1v3.8H.63V.42z" fill="#F6F6F4" mask="url(#d)"/></g><g transform="translate(6.462 9.952)"><mask id="f" fill="#fff"><use xlink:href="#e"/></mask><path d="M.6.7h2.1v3.9H.6V.7z" id="Fill-15" fill="#F6F6F4" mask="url(#f)"/></g><g><mask id="h" fill="#fff"><use xlink:href="#g"/></mask><path d="M.3.78h11.4v17.9H.3V.8z" fill="#004B8D" mask="url(#h)"/></g><g transform="translate(2.769 3.619)"><mask id="j" fill="#fff"><use xlink:href="#i"/></mask><path d="M.67.16h2v3.68h-2V.16z" id="Fill-15" fill="#FFF" mask="url(#j)"/></g><g transform="rotate(-180 8.769 12.214) translate(7.385 9.952)"><mask id="l" fill="#fff"><use xlink:href="#k"/></mask><path d="M.67.16h2v3.68h-2V.16z" fill="#FFF" mask="url(#l)"/></g></g><g transform="translate(30 14)"><mask id="n" fill="#fff"><use xlink:href="#m"/></mask><path d="M.6.42h10.2v5.16H.6V.42z" fill="#004B8D" mask="url(#n)"/></g><g transform="translate(4)" stroke="#004B8D" stroke-width="2.5"><path d="M32 16c0-8.84-7.16-16-16-16S0 7.16 0 16" id="Oval-21-Copy-2"/></g><g transform="matrix(-1 0 0 -1 35 33)"><path d="M31 17c0-8.84-7.16-16-16-16C8.9 1 3.6 4.4.9 9.43" stroke="#004B8D" stroke-width="2.5" stroke-dasharray="6,3"/><path d="M34.5 17h-7.07" stroke="#FFF" stroke-width="2" stroke-linecap="square"/></g></g></svg>
