<svg viewBox="0 0 38 38" version="1.1" xmlns="http://www.w3.org/2000/svg"><g stroke="none" stroke-width="1" fill="none" fill-rule="evenodd"><path d="M19 0C8.508 0 0 8.506 0 19c0 10.493 8.508 19 19 19 10.493 0 19-8.507 19-19C38 8.505 29.493 0 19 0zm-2.074 15.458h4.133v15.037h-4.134V15.458zm3.967-4.612c-.514.527-1.146.79-1.892.79s-1.383-.263-1.908-.79c-.527-.526-.79-1.17-.79-1.928 0-.722.263-1.347.79-1.874.525-.526 1.156-.79 1.89-.79.747 0 1.384.264 1.91.79.527.515.79 1.145.79 1.892 0 .747-.263 1.384-.79 1.91z" fill="#fff"/></g></svg>