<svg xmlns="http://www.w3.org/2000/svg" viewBox="0 0 48.953 48.954"><g fill="#046EB4"><path d="M16.752 22.25v.063c0 1.348.653 2.237 3.154 2.992V19.52c-2.066.164-3.154 1.28-3.154 2.73M22.516 29.903v5.95c2.068-.166 3.263-1.216 3.263-2.795v-.066c0-1.445-.763-2.333-3.264-3.09M41.702 7.202V0H37.4v7.202h-7.25v4.15h7.25v7.204H41.7V11.35h7.25V7.203"/><path d="M29.7 32.83c0 3.58-2.94 5.977-7.076 6.34v3.214h-2.828v-3.248c-2.936-.33-5.533-1.48-7.772-3.253l2.1-2.99c1.876 1.513 3.61 2.498 5.783 2.827v-6.44c-4.788-1.25-7.07-3.058-7.07-6.737v-.065c0-3.55 2.828-5.948 6.96-6.278v-1.856h2.828v1.92c2.393.296 4.382 1.153 6.19 2.5l-1.832 3.087c-1.446-1.084-2.94-1.77-4.466-2.1v6.243c5.004 1.25 7.184 3.253 7.184 6.77v.066zm10.64-11.966h-5.422V13.8h-7.07V8.555c-2.176-.787-4.555-1.212-7.02-1.212C9.325 7.344 0 16.658 0 28.148c0 11.49 9.326 20.806 20.827 20.806 11.506 0 20.827-9.312 20.827-20.802 0-2.565-.462-5.006-1.314-7.288"/></g></svg>
