<?xml version="1.0" encoding="UTF-8" standalone="no"?>
<svg viewBox="0 0 46 30" version="1.1" xmlns="http://www.w3.org/2000/svg" xmlns:xlink="http://www.w3.org/1999/xlink" xmlns:sketch="http://www.bohemiancoding.com/sketch/ns">
    <!-- Generator: Sketch 3.3.2 (12043) - http://www.bohemiancoding.com/sketch -->
    <title>XMLID_3_</title>
    <desc>Created with Sketch.</desc>
    <defs></defs>
    <g id="Page-1" stroke="none" stroke-width="1" fill="none" fill-rule="evenodd" sketch:type="MSPage">
        <g id="Payment_active" sketch:type="MSLayerGroup" transform="translate(-17.000000, -25.000000)" fill="#FFFFFF">
            <path d="M58,35.5 L37.429,35.5 L37.429,32.929 L58,32.929 L58,35.5 L58,35.5 Z M58,41.285 L37.429,41.285 L37.429,38.714 L58,38.714 L58,41.285 L58,41.285 Z M58,47.071 L37.429,47.071 L37.429,44.5 L58,44.5 L58,47.071 L58,47.071 Z M28.454,47.087 L28.429,49 L26.949,49 L26.974,47.087 C24.568,46.845 23.138,45.614 22.225,44.122 L24.257,42.816 C25.023,43.879 25.749,44.737 26.999,44.979 L26.999,41.025 C24.742,40.466 22.597,39.644 22.597,36.996 C22.597,34.647 24.344,33.136 26.974,32.93 L26.974,31.484 L28.697,31.484 L28.697,32.987 C30.767,33.267 31.779,34.453 32.599,35.628 L30.823,36.812 C30.282,36.029 29.702,35.297 28.75,35.036 L28.75,38.588 C31.343,39.204 32.929,39.943 32.929,42.572 C32.929,44.623 31.626,46.807 28.454,47.087 L28.454,47.087 Z M17.5,54.143 L62.5,54.143 L62.5,25.857 L17.5,25.857 L17.5,54.143 L17.5,54.143 Z M25.198,36.81 C25.198,37.725 25.917,38.077 26.999,38.412 L26.999,35.093 C25.879,35.242 25.198,35.972 25.198,36.81 L25.198,36.81 Z M28.454,41.548 L28.454,45.092 C29.648,44.924 30.431,44.288 30.431,43.262 C30.431,42.33 29.666,41.921 28.454,41.548 L28.454,41.548 Z" id="XMLID_3_" sketch:type="MSShapeGroup"></path>
        </g>
    </g>
</svg>
