<svg xmlns="http://www.w3.org/2000/svg" viewBox="0 0 138.792 85">
  <path fill-rule="evenodd" clip-rule="evenodd" fill="#FFF" d="M1.27 79.048V6.275c0-2.76 2.238-5 5-5h106.183c2.762 0 5 2.24 5 5v72.773c0 2.76-2.238 5-5 5H6.27c-2.762 0-5-2.24-5-5"/>
  <path fill="#3E6FB3" d="M112.452 85.048H6.27c-3.31 0-6-2.69-6-6V6.275c0-3.31 2.69-6 6-6h106.183c3.31 0 6 2.69 6 6v72.773c0 3.308-2.692 6-6 6zM6.27 2.275c-2.206 0-4 1.794-4 4v72.773c0 2.206 1.794 4 4 4h106.183c2.206 0 4-1.794 4-4V6.275c0-2.206-1.794-4-4-4H6.27z"/>
  <path fill-rule="evenodd" clip-rule="evenodd" fill="#CEE9E0" d="M38.87 74.47H8.518c-1.104 0-2-.895-2-2V62.226c0-1.105.896-2 2-2H38.87c1.106 0 2 .895 2 2V72.47c0 1.105-.893 2-2 2"/>
  <path fill="#39B990" d="M38.87 74.97H8.518c-1.38 0-2.5-1.12-2.5-2.5V62.226c0-1.38 1.12-2.5 2.5-2.5H38.87c1.38 0 2.5 1.12 2.5 2.5V72.47c0 1.38-1.12 2.5-2.5 2.5zM8.518 60.726c-.827 0-1.5.673-1.5 1.5V72.47c0 .828.673 1.5 1.5 1.5H38.87c.828 0 1.5-.672 1.5-1.5V62.226c0-.827-.672-1.5-1.5-1.5H8.518z"/>
  <path fill-rule="evenodd" clip-rule="evenodd" fill="#CEE9E0" d="M100.207 55.73H8.517c-1.104 0-2-.894-2-2V43.487c0-1.105.896-2 2-2h91.69c1.105 0 2 .895 2 2V53.73c0 1.107-.895 2-2 2"/>
  <path fill="#39B990" d="M100.207 56.23H8.517c-1.38 0-2.5-1.12-2.5-2.5V43.487c0-1.378 1.12-2.5 2.5-2.5h91.69c1.38 0 2.5 1.122 2.5 2.5V53.73c0 1.38-1.12 2.5-2.5 2.5zM8.517 41.987c-.827 0-1.5.673-1.5 1.5V53.73c0 .828.673 1.5 1.5 1.5h91.69c.827 0 1.5-.672 1.5-1.5V43.487c0-.827-.673-1.5-1.5-1.5H8.517z"/>
  <path fill-rule="evenodd" clip-rule="evenodd" fill="#CEE9E0" d="M109.422 36.783H81.49c-1.105 0-2-.895-2-2V24.537c0-1.104.895-2 2-2h27.932c1.105 0 2 .895 2 2v10.246c0 1.106-.895 2-2 2"/>
  <path fill="#39B990" d="M109.422 37.283H81.49c-1.38 0-2.5-1.122-2.5-2.5V24.537c0-1.378 1.12-2.5 2.5-2.5h27.932c1.38 0 2.5 1.12 2.5 2.5v10.246c0 1.38-1.12 2.5-2.5 2.5zM81.49 23.038c-.827 0-1.5.673-1.5 1.5v10.246c0 .827.673 1.5 1.5 1.5h27.932c.827 0 1.5-.673 1.5-1.5V24.537c0-.827-.673-1.5-1.5-1.5H81.49z"/>
  <g fill="#39B990">
    <path d="M87.494 29.405l-1.247-2.143c-.05-.077-.084-.154-.084-.252 0-.182.17-.33.344-.33.23 0 .308.176.406.344l.98 1.674.98-1.674c.098-.168.175-.343.406-.343.174 0 .342.148.342.33 0 .098-.035.175-.084.252l-1.246 2.143 1.246 2.143c.05.077.084.154.084.252 0 .182-.168.33-.343.33-.232 0-.31-.176-.407-.344l-.98-1.674-.98 1.674c-.1.168-.175.343-.406.343-.175 0-.344-.148-.344-.33 0-.098.035-.175.084-.252l1.247-2.143zM92.534 29.405l-1.247-2.143c-.05-.077-.084-.154-.084-.252 0-.182.17-.33.344-.33.23 0 .308.176.406.344l.98 1.674.98-1.674c.098-.168.175-.343.406-.343.174 0 .342.148.342.33 0 .098-.035.175-.084.252l-1.246 2.143 1.246 2.143c.05.077.084.154.084.252 0 .182-.168.33-.343.33-.232 0-.31-.176-.407-.344l-.98-1.674-.98 1.674c-.1.168-.175.343-.406.343-.175 0-.344-.148-.344-.33 0-.098.035-.175.084-.252l1.247-2.143zM97.574 29.405l-1.247-2.143c-.05-.077-.084-.154-.084-.252 0-.182.17-.33.344-.33.23 0 .308.176.406.344l.98 1.674.98-1.674c.098-.168.175-.343.406-.343.174 0 .342.148.342.33 0 .098-.035.175-.084.252l-1.246 2.143 1.246 2.143c.05.077.084.154.084.252 0 .182-.168.33-.343.33-.232 0-.31-.176-.407-.344l-.98-1.674-.98 1.674c-.1.168-.175.343-.406.343-.175 0-.344-.148-.344-.33 0-.098.035-.175.084-.252l1.247-2.143zM102.614 29.405l-1.247-2.143c-.05-.077-.084-.154-.084-.252 0-.182.17-.33.344-.33.23 0 .308.176.406.344l.98 1.674.98-1.674c.098-.168.175-.343.406-.343.174 0 .342.148.342.33 0 .098-.035.175-.084.252l-1.246 2.143 1.246 2.143c.05.077.084.154.084.252 0 .182-.168.33-.343.33-.232 0-.31-.176-.407-.344l-.98-1.674-.98 1.674c-.1.168-.175.343-.406.343-.175 0-.344-.148-.344-.33 0-.098.035-.175.084-.252l1.247-2.143z"/>
  </g>
  <g fill="#39B990">
    <path d="M13.413 48.354l-1.247-2.143c-.05-.076-.084-.153-.084-.25 0-.183.168-.33.344-.33.23 0 .31.175.406.343l.98 1.674.98-1.674c.098-.168.175-.343.406-.343.175 0 .344.147.344.33 0 .097-.035.174-.084.25l-1.248 2.144 1.248 2.143c.05.077.084.154.084.252 0 .18-.17.328-.344.328-.23 0-.31-.175-.406-.343l-.98-1.674-.98 1.675c-.098.168-.176.343-.406.343-.176 0-.344-.147-.344-.33 0-.097.035-.174.084-.25l1.247-2.144zM18.453 48.354l-1.246-2.143c-.05-.076-.084-.153-.084-.25 0-.183.168-.33.343-.33.23 0 .308.175.406.343l.98 1.674.98-1.674c.1-.168.175-.343.406-.343.175 0 .343.147.343.33 0 .097-.034.174-.083.25l-1.246 2.144 1.247 2.143c.05.077.084.154.084.252 0 .18-.167.328-.342.328-.23 0-.308-.175-.406-.343l-.98-1.674-.98 1.675c-.1.168-.175.343-.406.343-.175 0-.343-.147-.343-.33 0-.097.035-.174.084-.25l1.246-2.144zM23.492 48.354l-1.246-2.143c-.05-.076-.084-.153-.084-.25 0-.183.168-.33.344-.33.23 0 .308.175.406.343l.98 1.674.98-1.674c.098-.168.174-.343.406-.343.174 0 .343.147.343.33 0 .097-.034.174-.083.25l-1.247 2.144 1.247 2.143c.05.077.084.154.084.252 0 .18-.168.328-.342.328-.232 0-.31-.175-.406-.343l-.98-1.674-.98 1.675c-.1.168-.176.343-.406.343-.176 0-.344-.147-.344-.33 0-.097.035-.174.084-.25l1.246-2.144zM28.533 48.354l-1.247-2.143c-.05-.076-.084-.153-.084-.25 0-.183.168-.33.343-.33.23 0 .31.175.406.343l.98 1.674.98-1.674c.1-.168.177-.343.407-.343.176 0 .344.147.344.33 0 .097-.034.174-.083.25l-1.247 2.144 1.247 2.143c.05.077.084.154.084.252 0 .18-.167.328-.343.328-.23 0-.308-.175-.406-.343l-.98-1.674-.98 1.675c-.097.168-.174.343-.405.343-.175 0-.343-.147-.343-.33 0-.097.035-.174.084-.25l1.247-2.144zM38.613 48.354l-1.247-2.143c-.05-.076-.084-.153-.084-.25 0-.183.168-.33.343-.33.23 0 .31.175.406.343l.98 1.674.98-1.674c.1-.168.177-.343.407-.343.176 0 .344.147.344.33 0 .097-.034.174-.083.25l-1.247 2.144 1.247 2.143c.05.077.084.154.084.252 0 .18-.167.328-.343.328-.23 0-.308-.175-.406-.343l-.98-1.674-.98 1.675c-.097.168-.174.343-.405.343-.175 0-.343-.147-.343-.33 0-.097.035-.174.084-.25l1.247-2.144zM43.652 48.354l-1.246-2.143c-.05-.076-.084-.153-.084-.25 0-.183.168-.33.343-.33.23 0 .308.175.406.343l.98 1.674.98-1.674c.1-.168.176-.343.407-.343.175 0 .343.147.343.33 0 .097-.035.174-.084.25l-1.246 2.144 1.246 2.143c.05.077.084.154.084.252 0 .18-.168.328-.343.328-.23 0-.308-.175-.406-.343l-.98-1.674-.98 1.675c-.098.168-.174.343-.405.343-.175 0-.343-.147-.343-.33 0-.097.035-.174.084-.25l1.246-2.144zM48.692 48.354l-1.247-2.143c-.05-.076-.084-.153-.084-.25 0-.183.17-.33.345-.33.23 0 .31.175.406.343l.98 1.674.98-1.674c.1-.168.176-.343.407-.343.175 0 .344.147.344.33 0 .097-.034.174-.083.25l-1.248 2.144 1.247 2.143c.05.077.084.154.084.252 0 .18-.168.328-.343.328-.23 0-.31-.175-.406-.343l-.98-1.674-.98 1.675c-.097.168-.175.343-.405.343-.176 0-.344-.147-.344-.33 0-.097.036-.174.085-.25l1.247-2.144zM53.732 48.354l-1.246-2.143c-.05-.076-.084-.153-.084-.25 0-.183.168-.33.343-.33.23 0 .308.175.406.343l.98 1.674.98-1.674c.1-.168.176-.343.407-.343.175 0 .343.147.343.33 0 .097-.035.174-.084.25l-1.246 2.144 1.246 2.143c.05.077.084.154.084.252 0 .18-.168.328-.343.328-.23 0-.308-.175-.406-.343l-.98-1.674-.98 1.675c-.098.168-.174.343-.405.343-.175 0-.343-.147-.343-.33 0-.097.035-.174.084-.25l1.246-2.144zM58.77 48.354l-1.245-2.143c-.05-.076-.084-.153-.084-.25 0-.183.17-.33.345-.33.23 0 .308.175.406.343l.98 1.674.98-1.674c.1-.168.175-.343.407-.343.174 0 .343.147.343.33 0 .097-.035.174-.084.25l-1.247 2.144 1.246 2.143c.05.077.084.154.084.252 0 .18-.17.328-.343.328-.232 0-.31-.175-.406-.343l-.98-1.674-.98 1.675c-.098.168-.175.343-.405.343-.176 0-.344-.147-.344-.33 0-.097.036-.174.085-.25l1.246-2.144zM63.812 48.354l-1.247-2.143c-.05-.076-.084-.153-.084-.25 0-.183.17-.33.344-.33.23 0 .31.175.406.343l.98 1.674.98-1.674c.1-.168.176-.343.406-.343.176 0 .344.147.344.33 0 .097-.035.174-.084.25l-1.247 2.144 1.246 2.143c.05.077.084.154.084.252 0 .18-.168.328-.344.328-.23 0-.308-.175-.406-.343l-.98-1.674-.98 1.675c-.098.168-.175.343-.406.343-.175 0-.343-.147-.343-.33 0-.097.036-.174.085-.25l1.247-2.144zM73.892 48.354l-1.247-2.143c-.05-.076-.084-.153-.084-.25 0-.183.17-.33.345-.33.23 0 .308.175.406.343l.98 1.674.98-1.674c.1-.168.176-.343.407-.343.175 0 .343.147.343.33 0 .097-.035.174-.084.25l-1.246 2.144 1.246 2.143c.05.077.084.154.084.252 0 .18-.168.328-.343.328-.23 0-.31-.175-.406-.343l-.98-1.674-.98 1.675c-.098.168-.174.343-.405.343-.175 0-.344-.147-.344-.33 0-.097.036-.174.085-.25l1.247-2.144zM78.932 48.354l-1.247-2.143c-.05-.076-.084-.153-.084-.25 0-.183.17-.33.345-.33.23 0 .308.175.406.343l.98 1.674.98-1.674c.1-.168.176-.343.407-.343.175 0 .343.147.343.33 0 .097-.035.174-.084.25l-1.246 2.144 1.246 2.143c.05.077.084.154.084.252 0 .18-.168.328-.343.328-.23 0-.31-.175-.406-.343l-.98-1.674-.98 1.675c-.098.168-.174.343-.405.343-.175 0-.344-.147-.344-.33 0-.097.036-.174.085-.25l1.247-2.144zM83.972 48.354l-1.247-2.143c-.05-.076-.084-.153-.084-.25 0-.183.17-.33.345-.33.23 0 .308.175.406.343l.98 1.674.98-1.674c.1-.168.176-.343.407-.343.175 0 .343.147.343.33 0 .097-.035.174-.084.25l-1.246 2.144 1.246 2.143c.05.077.084.154.084.252 0 .18-.168.328-.343.328-.23 0-.31-.175-.406-.343l-.98-1.674-.98 1.675c-.098.168-.174.343-.405.343-.175 0-.344-.147-.344-.33 0-.097.036-.174.085-.25l1.247-2.144zM89.012 48.354l-1.247-2.143c-.05-.076-.084-.153-.084-.25 0-.183.17-.33.345-.33.23 0 .308.175.406.343l.98 1.674.98-1.674c.1-.168.176-.343.407-.343.175 0 .343.147.343.33 0 .097-.035.174-.084.25l-1.246 2.144 1.246 2.143c.05.077.084.154.084.252 0 .18-.168.328-.343.328-.23 0-.31-.175-.406-.343l-.98-1.674-.98 1.675c-.098.168-.174.343-.405.343-.175 0-.344-.147-.344-.33 0-.097.036-.174.085-.25l1.247-2.144zM94.052 48.354l-1.247-2.143c-.05-.076-.084-.153-.084-.25 0-.183.17-.33.345-.33.23 0 .308.175.406.343l.98 1.674.98-1.674c.1-.168.176-.343.407-.343.175 0 .343.147.343.33 0 .097-.035.174-.084.25l-1.246 2.144 1.246 2.143c.05.077.084.154.084.252 0 .18-.168.328-.343.328-.23 0-.31-.175-.406-.343l-.98-1.674-.98 1.675c-.098.168-.174.343-.405.343-.175 0-.344-.147-.344-.33 0-.097.036-.174.085-.25l1.247-2.144z"/>
  </g>
  <g fill="#39B990">
    <path d="M13.413 67.093l-1.247-2.143c-.05-.077-.084-.154-.084-.253 0-.182.168-.33.344-.33.23 0 .31.177.406.345l.98 1.674.98-1.674c.098-.168.175-.344.406-.344.175 0 .344.147.344.33 0 .098-.035.175-.084.252l-1.248 2.143 1.248 2.144c.05.077.084.154.084.252 0 .18-.17.328-.344.328-.23 0-.31-.175-.406-.343l-.98-1.675-.98 1.675c-.098.168-.176.343-.406.343-.176 0-.344-.147-.344-.33 0-.097.035-.174.084-.25l1.247-2.145zM18.453 67.093l-1.246-2.143c-.05-.077-.084-.154-.084-.253 0-.182.168-.33.343-.33.23 0 .308.177.406.345l.98 1.674.98-1.674c.1-.168.175-.344.406-.344.175 0 .343.147.343.33 0 .098-.034.175-.083.252l-1.246 2.143 1.247 2.144c.05.077.084.154.084.252 0 .18-.167.328-.342.328-.23 0-.308-.175-.406-.343l-.98-1.675-.98 1.675c-.1.168-.175.343-.406.343-.175 0-.343-.147-.343-.33 0-.097.035-.174.084-.25l1.246-2.145zM23.492 67.093l-1.246-2.143c-.05-.077-.084-.154-.084-.253 0-.182.168-.33.344-.33.23 0 .308.177.406.345l.98 1.674.98-1.674c.098-.168.174-.344.406-.344.174 0 .343.147.343.33 0 .098-.034.175-.083.252l-1.247 2.143 1.247 2.144c.05.077.084.154.084.252 0 .18-.168.328-.342.328-.232 0-.31-.175-.406-.343l-.98-1.675-.98 1.675c-.1.168-.176.343-.406.343-.176 0-.344-.147-.344-.33 0-.097.035-.174.084-.25l1.246-2.145zM28.533 67.093l-1.247-2.143c-.05-.077-.084-.154-.084-.253 0-.182.168-.33.343-.33.23 0 .31.177.406.345l.98 1.674.98-1.674c.1-.168.177-.344.407-.344.176 0 .344.147.344.33 0 .098-.034.175-.083.252l-1.247 2.143 1.247 2.144c.05.077.084.154.084.252 0 .18-.167.328-.343.328-.23 0-.308-.175-.406-.343l-.98-1.675-.98 1.675c-.097.168-.174.343-.405.343-.175 0-.343-.147-.343-.33 0-.097.035-.174.084-.25l1.247-2.145zM33.572 67.093l-1.246-2.143c-.05-.077-.084-.154-.084-.253 0-.182.168-.33.344-.33.23 0 .308.177.406.345l.98 1.674.98-1.674c.098-.168.174-.344.406-.344.174 0 .343.147.343.33 0 .098-.034.175-.083.252l-1.247 2.143 1.247 2.144c.05.077.084.154.084.252 0 .18-.168.328-.342.328-.232 0-.31-.175-.406-.343l-.98-1.675-.98 1.675c-.1.168-.176.343-.406.343-.176 0-.344-.147-.344-.33 0-.097.035-.174.084-.25l1.246-2.145z"/>
  </g>
  <path fill="#39B990" d="M112.422 30.41h-1c-.414 0-.75-.336-.75-.75s.336-.75.75-.75h1c.414 0 .75.336.75.75s-.336.75-.75.75zM132.187 30.41h-2.196c-.413 0-.75-.336-.75-.75s.337-.75.75-.75h2.197c.414 0 .75.336.75.75s-.336.75-.75.75zm-6.588 0h-2.197c-.414 0-.75-.336-.75-.75s.336-.75.75-.75h2.196c.413 0 .75.336.75.75s-.337.75-.75.75zm-6.59 0h-2.195c-.414 0-.75-.336-.75-.75s.336-.75.75-.75h2.196c.415 0 .75.336.75.75s-.335.75-.75.75zM137.58 30.41h-1c-.415 0-.75-.336-.75-.75s.335-.75.75-.75h1c.413 0 .75.336.75.75s-.337.75-.75.75zM103.207 49.36h-1c-.414 0-.75-.337-.75-.75s.336-.75.75-.75h1c.414 0 .75.335.75.75s-.336.75-.75.75zM132.652 49.36h-1.963c-.415 0-.75-.337-.75-.75s.335-.75.75-.75h1.962c.414 0 .75.335.75.75s-.336.75-.75.75zm-5.888 0H124.8c-.413 0-.75-.337-.75-.75s.337-.75.75-.75h1.964c.414 0 .75.335.75.75s-.336.75-.75.75zm-5.89 0h-1.962c-.414 0-.75-.337-.75-.75s.336-.75.75-.75h1.963c.414 0 .75.335.75.75s-.336.75-.75.75zm-5.89 0h-1.962c-.414 0-.75-.337-.75-.75s.336-.75.75-.75h1.963c.414 0 .75.335.75.75s-.336.75-.75.75zm-5.887 0h-1.963c-.414 0-.75-.337-.75-.75s.336-.75.75-.75h1.963c.414 0 .75.335.75.75s-.336.75-.75.75zM137.58 49.36h-1c-.415 0-.75-.337-.75-.75s.335-.75.75-.75h1c.413 0 .75.335.75.75s-.337.75-.75.75zM41.932 68.098h-1c-.414 0-.75-.336-.75-.75s.336-.75.75-.75h1c.414 0 .75.336.75.75s-.336.75-.75.75zM132.56 68.098h-2.013c-.414 0-.75-.336-.75-.75s.336-.75.75-.75h2.014c.415 0 .75.336.75.75s-.335.75-.75.75zm-6.04 0h-2.015c-.414 0-.75-.336-.75-.75s.336-.75.75-.75h2.014c.413 0 .75.336.75.75s-.337.75-.75.75zm-6.043 0h-2.014c-.414 0-.75-.336-.75-.75s.336-.75.75-.75h2.014c.414 0 .75.336.75.75s-.336.75-.75.75zm-6.042 0h-2.014c-.413 0-.75-.336-.75-.75s.337-.75.75-.75h2.015c.414 0 .75.336.75.75s-.336.75-.75.75zm-6.042 0h-2.014c-.415 0-.75-.336-.75-.75s.335-.75.75-.75h2.013c.414 0 .75.336.75.75s-.336.75-.75.75zm-6.042 0h-2.013c-.414 0-.75-.336-.75-.75s.336-.75.75-.75h2.014c.415 0 .75.336.75.75s-.335.75-.75.75zm-6.04 0h-2.015c-.414 0-.75-.336-.75-.75s.336-.75.75-.75h2.014c.413 0 .75.336.75.75s-.337.75-.75.75zm-6.043 0h-2.014c-.414 0-.75-.336-.75-.75s.336-.75.75-.75h2.014c.414 0 .75.336.75.75s-.336.75-.75.75zm-6.042 0H82.21c-.413 0-.75-.336-.75-.75s.337-.75.75-.75h2.015c.414 0 .75.336.75.75s-.336.75-.75.75zm-6.042 0H76.17c-.415 0-.75-.336-.75-.75s.335-.75.75-.75h2.013c.414 0 .75.336.75.75s-.336.75-.75.75zm-6.042 0h-2.013c-.414 0-.75-.336-.75-.75s.336-.75.75-.75h2.014c.415 0 .75.336.75.75s-.335.75-.75.75zm-6.04 0h-2.015c-.414 0-.75-.336-.75-.75s.336-.75.75-.75H66.1c.413 0 .75.336.75.75s-.337.75-.75.75zm-6.043 0h-2.014c-.414 0-.75-.336-.75-.75s.336-.75.75-.75h2.014c.414 0 .75.336.75.75s-.336.75-.75.75zm-6.042 0H52c-.413 0-.75-.336-.75-.75s.337-.75.75-.75h2.015c.414 0 .75.336.75.75s-.336.75-.75.75zm-6.042 0H45.96c-.415 0-.75-.336-.75-.75s.335-.75.75-.75h2.013c.414 0 .75.336.75.75s-.336.75-.75.75zM137.58 68.098h-1c-.415 0-.75-.336-.75-.75s.335-.75.75-.75h1c.413 0 .75.336.75.75s-.337.75-.75.75z"/>
</svg>
