<svg xmlns="http://www.w3.org/2000/svg" xmlns:xlink="http://www.w3.org/1999/xlink" viewBox="0 0 84 111">
  <path fill-rule="evenodd" clip-rule="evenodd" fill="#FFF" d="M84 90.366c0 10.86-8.806 19.666-19.667 19.666s-19.667-8.805-19.667-19.666c0-10.863 8.806-19.668 19.667-19.668S84 79.503 84 90.366"/>
  <path fill="#CFDBEC" d="M33.52 72.77h8.22c1.103 0 2 .897 2 2v4.114c3.927-6.89 11.333-11.152 19.83-11.152 1.456 0 2.88.143 4.26.402v-56.68H7.665v87.2c0 .552.448 1 1 1H31.52V74.772c0-1.103.897-2 2-2"/>
  <path fill="#01569B" d="M31.52 100.18v.028h11.73l-.014-.027H31.52z"/>
  <path fill="#3E6FB3" d="M32.52 99.21V74.68c0-.544.448-.985 1-.985h8.22c.552 0 1 .44 1 .986v6.147c.16-.348.325-.69.5-1.03.16-.308.327-.612.5-.913V74.68c0-1.087-.897-1.972-2-1.972h-8.22c-1.103 0-2 .885-2 1.973v24.53H8.665c-.552 0-1-.443-1-.986v-85.96H67.83v55.878c.335.062.668.133 1 .21.335.077.668.163 1 .257V10.29H5.664v87.93c0 1.632 1.345 2.958 3 2.958h35.112c-.184-.314-.36-.633-.527-.957l-.014-.03c-.08-.153-.164-.306-.24-.464-.084-.173-.155-.353-.234-.528l-10.242.008z"/>
  <path fill-rule="evenodd" clip-rule="evenodd" fill="#FFF" d="M58.205 66.23h-8.22c-.83 0-1.5-.67-1.5-1.5V55.03c0-.828.67-1.5 1.5-1.5h8.22c.828 0 1.5.672 1.5 1.5v9.703c0 .83-.672 1.5-1.5 1.5"/>
  <path fill="#3E6FB3" d="M58.205 66.73h-8.22c-1.104 0-2-.896-2-2V55.03c0-1.103.896-2 2-2h8.22c1.103 0 2 .897 2 2v9.703c0 1.104-.897 2-2 2zm-8.22-12.7c-.553 0-1 .448-1 1v9.702c0 .552.447 1 1 1h8.22c.552 0 1-.448 1-1V55.03c0-.552-.448-1-1-1h-8.22z"/>
  <path fill-rule="evenodd" clip-rule="evenodd" fill="#FFF" d="M41.74 66.23h-8.22c-.828 0-1.5-.67-1.5-1.5V55.03c0-.828.672-1.5 1.5-1.5h8.22c.83 0 1.5.672 1.5 1.5v9.703c0 .83-.672 1.5-1.5 1.5"/>
  <path fill="#3E6FB3" d="M41.74 66.73h-8.22c-1.103 0-2-.896-2-2V55.03c0-1.103.897-2 2-2h8.22c1.104 0 2 .897 2 2v9.703c0 1.104-.897 2-2 2zm-8.22-12.7c-.552 0-1 .448-1 1v9.702c0 .552.448 1 1 1h8.22c.553 0 1-.448 1-1V55.03c0-.552-.447-1-1-1h-8.22z"/>
  <path fill-rule="evenodd" clip-rule="evenodd" fill="#FFF" d="M25.274 66.23h-8.22c-.828 0-1.5-.67-1.5-1.5V55.03c0-.828.672-1.5 1.5-1.5h8.22c.828 0 1.5.672 1.5 1.5v9.703c0 .83-.67 1.5-1.5 1.5"/>
  <path fill="#3E6FB3" d="M25.274 66.73h-8.22c-1.103 0-2-.896-2-2V55.03c0-1.103.897-2 2-2h8.22c1.103 0 2 .897 2 2v9.703c0 1.104-.897 2-2 2zm-8.22-12.7c-.55 0-1 .448-1 1v9.702c0 .552.45 1 1 1h8.22c.553 0 1-.448 1-1V55.03c0-.552-.447-1-1-1h-8.22z"/>
  <path fill-rule="evenodd" clip-rule="evenodd" fill="#FFF" d="M25.274 85.48h-8.22c-.828 0-1.5-.67-1.5-1.5V74.28c0-.828.672-1.5 1.5-1.5h8.22c.828 0 1.5.672 1.5 1.5v9.703c0 .83-.67 1.5-1.5 1.5"/>
  <path fill="#3E6FB3" d="M25.274 85.98h-8.22c-1.103 0-2-.896-2-2V74.28c0-1.103.897-2 2-2h8.22c1.103 0 2 .897 2 2v9.703c0 1.104-.897 2-2 2zm-8.22-12.702c-.55 0-1 .448-1 1v9.703c0 .553.45 1 1 1h8.22c.553 0 1-.447 1-1V74.28c0-.552-.447-1-1-1h-8.22z"/>
  <path fill-rule="evenodd" clip-rule="evenodd" fill="#FFF" d="M58.205 46.963h-8.22c-.83 0-1.5-.672-1.5-1.5V35.76c0-.828.67-1.5 1.5-1.5h8.22c.828 0 1.5.672 1.5 1.5v9.703c0 .83-.672 1.5-1.5 1.5"/>
  <path fill="#3E6FB3" d="M58.205 47.463h-8.22c-1.104 0-2-.897-2-2V35.76c0-1.103.896-2 2-2h8.22c1.103 0 2 .897 2 2v9.703c0 1.103-.897 2-2 2zm-8.22-12.703c-.553 0-1 .45-1 1v9.703c0 .55.447 1 1 1h8.22c.552 0 1-.45 1-1V35.76c0-.55-.448-1-1-1h-8.22z"/>
  <path fill-rule="evenodd" clip-rule="evenodd" fill="#FFF" d="M41.74 46.963h-8.22c-.828 0-1.5-.672-1.5-1.5V35.76c0-.828.672-1.5 1.5-1.5h8.22c.83 0 1.5.672 1.5 1.5v9.703c0 .83-.672 1.5-1.5 1.5"/>
  <path fill="#3E6FB3" d="M41.74 47.463h-8.22c-1.103 0-2-.897-2-2V35.76c0-1.103.897-2 2-2h8.22c1.104 0 2 .897 2 2v9.703c0 1.103-.897 2-2 2zM33.52 34.76c-.552 0-1 .45-1 1v9.703c0 .55.448 1 1 1h8.22c.553 0 1-.45 1-1V35.76c0-.55-.447-1-1-1h-8.22z"/>
  <path fill-rule="evenodd" clip-rule="evenodd" fill="#FFF" d="M25.274 46.963h-8.22c-.828 0-1.5-.672-1.5-1.5V35.76c0-.828.672-1.5 1.5-1.5h8.22c.828 0 1.5.672 1.5 1.5v9.703c0 .83-.67 1.5-1.5 1.5"/>
  <path fill="#3E6FB3" d="M25.274 47.463h-8.22c-1.103 0-2-.897-2-2V35.76c0-1.103.897-2 2-2h8.22c1.103 0 2 .897 2 2v9.703c0 1.103-.897 2-2 2zm-8.22-12.703c-.55 0-1 .45-1 1v9.703c0 .55.45 1 1 1h8.22c.553 0 1-.45 1-1V35.76c0-.55-.447-1-1-1h-8.22z"/>
  <path fill-rule="evenodd" clip-rule="evenodd" fill="#FFF" d="M58.205 28.695h-8.22c-.83 0-1.5-.672-1.5-1.5v-9.703c0-.828.67-1.5 1.5-1.5h8.22c.828 0 1.5.672 1.5 1.5v9.703c0 .828-.672 1.5-1.5 1.5"/>
  <path fill="#3E6FB3" d="M58.205 29.195h-8.22c-1.104 0-2-.897-2-2v-9.703c0-1.103.896-2 2-2h8.22c1.103 0 2 .897 2 2v9.703c0 1.103-.897 2-2 2zm-8.22-12.703c-.553 0-1 .45-1 1v9.703c0 .55.447 1 1 1h8.22c.552 0 1-.45 1-1v-9.703c0-.55-.448-1-1-1h-8.22z"/>
  <path fill-rule="evenodd" clip-rule="evenodd" fill="#FFF" d="M41.74 28.695h-8.22c-.828 0-1.5-.672-1.5-1.5v-9.703c0-.828.672-1.5 1.5-1.5h8.22c.83 0 1.5.672 1.5 1.5v9.703c0 .828-.672 1.5-1.5 1.5"/>
  <path fill="#3E6FB3" d="M41.74 29.195h-8.22c-1.103 0-2-.897-2-2v-9.703c0-1.103.897-2 2-2h8.22c1.104 0 2 .897 2 2v9.703c0 1.103-.897 2-2 2zm-8.22-12.703c-.552 0-1 .45-1 1v9.703c0 .55.448 1 1 1h8.22c.553 0 1-.45 1-1v-9.703c0-.55-.447-1-1-1h-8.22z"/>
  <path fill-rule="evenodd" clip-rule="evenodd" fill="#FFF" d="M25.274 28.695h-8.22c-.828 0-1.5-.672-1.5-1.5v-9.703c0-.828.672-1.5 1.5-1.5h8.22c.828 0 1.5.672 1.5 1.5v9.703c0 .828-.67 1.5-1.5 1.5"/>
  <path fill="#3E6FB3" d="M25.274 29.195h-8.22c-1.103 0-2-.897-2-2v-9.703c0-1.103.897-2 2-2h8.22c1.103 0 2 .897 2 2v9.703c0 1.103-.897 2-2 2zm-8.22-12.703c-.55 0-1 .45-1 1v9.703c0 .55.45 1 1 1h8.22c.553 0 1-.45 1-1v-9.703c0-.55-.447-1-1-1h-8.22z"/>
  <path fill-rule="evenodd" clip-rule="evenodd" fill="#CFDBEC" d="M1.627 4.772C.937 2.84 2.16 1.275 4.38 1.275h66.498c2.213 0 3.445 1.562 2.753 3.497l-1.076 3.005c-.693 1.932-3.038 3.498-5.252 3.498H7.957c-2.21 0-4.56-1.563-5.252-3.498L1.627 4.772z"/>
  <path fill="#3E6FB3" d="M67.302 12.275H7.957c-2.637 0-5.357-1.827-6.193-4.16L.686 5.11c-.43-1.203-.31-2.372.34-3.293C1.715.837 2.937.275 4.378.275h66.498c1.44 0 2.664.562 3.354 1.542.65.92.77 2.09.34 3.292l-1.077 3.005c-.838 2.333-3.557 4.16-6.193 4.16zm-62.923-10c-.783 0-1.41.252-1.72.693-.338.48-.236 1.063-.092 1.467L3.646 7.44c.55 1.536 2.524 2.834 4.31 2.834h59.346c1.785 0 3.76-1.298 4.31-2.835l1.078-3.006c.145-.403.246-.986-.092-1.465-.31-.442-.938-.695-1.72-.695h-66.5z"/>
  <path fill="#39B990" d="M63.333 110.866c-11.305 0-20.5-9.197-20.5-20.5s9.195-20.5 20.5-20.5 20.5 9.197 20.5 20.5-9.195 20.5-20.5 20.5zm0-37.734c-9.542 0-17.307 7.732-17.307 17.234S53.79 107.6 63.333 107.6c9.543 0 17.307-7.732 17.307-17.234s-7.764-17.234-17.307-17.234z"/>
  <defs>
    <path id="a" d="M60.02 98.206l-6.79-6.723 3.197-3.17 3.775 3.737 10.687-9.414 3.007 3.347L60.02 98.206"/>
  </defs>
  <use xlink:href="#a" overflow="visible" fill-rule="evenodd" clip-rule="evenodd" fill="#39B990"/>
  <clipPath id="b">
    <use xlink:href="#a" overflow="visible"/>
  </clipPath>
  <path clip-path="url(#b)" fill="#39B990" d="M50.037 79.442H77.09V101.4H50.037z"/>
</svg>
