<svg xmlns="http://www.w3.org/2000/svg" viewBox="0 0 112 90">
  <path fill="#CFDBEC" d="M109 75.725H3.03c-1.104 0-2-.895-2-2v-71c0-1.105.896-2 2-2H109c1.105 0 2 .895 2 2v71c0 1.105-.895 2-2 2"/>
  <path fill="#3E6FB3" d="M108.99 76.725H3.02c-1.653 0-3-1.346-3-3v-71c0-1.654 1.347-3 3-3h105.97c1.653 0 3 1.346 3 3v71c0 1.654-1.346 3-3 3zm-105.97-75c-.55 0-1 .448-1 1v71c0 .55.45 1 1 1h105.97c.55 0 1-.45 1-1v-71c0-.552-.45-1-1-1H3.02z"/>
  <path fill="#CFDBEC" d="M81.213 82.975H62.735v-7.03c0-.12-.1-.22-.222-.22H49.496c-.122 0-.22.1-.22.22v7.03h-18.48c-.73 0-1.325.594-1.325 1.326v3.1c0 .73.595 1.325 1.326 1.325h50.417c.732 0 1.326-.594 1.326-1.326v-3.1c0-.732-.595-1.325-1.327-1.325"/>
  <path fill="#3E6FB3" d="M81.213 89.725H30.796c-1.282 0-2.325-1.045-2.325-2.326v-3.1c0-1.282 1.044-2.325 2.326-2.325h17.48v-6.03c0-.673.546-1.22 1.22-1.22h13.018c.674 0 1.222.547 1.222 1.22v6.03h17.478c1.282 0 2.326 1.043 2.326 2.326v3.1c0 1.28-1.045 2.325-2.327 2.325zm-50.417-5.75c-.18 0-.325.146-.325.326v3.1c0 .18.147.325.326.325h50.417c.18 0 .326-.146.326-.326v-3.1c0-.18-.147-.325-.327-.325H62.735c-.553 0-1-.447-1-1v-6.25h-11.46v6.25c0 .553-.448 1-1 1h-18.48z"/>
  <path fill="#FFF" d="M101.13 65.666H10.9c-.877 0-1.59-.713-1.59-1.59V10.42c0-.878.713-1.59 1.59-1.59h90.23c.878 0 1.59.712 1.59 1.59v53.656c0 .877-.712 1.59-1.59 1.59"/>
  <path fill="#3E6FB3" d="M101.13 66.666H10.9c-1.427 0-2.59-1.162-2.59-2.59V10.42c0-1.428 1.163-2.59 2.59-2.59h90.23c1.428 0 2.59 1.162 2.59 2.59v53.656c0 1.428-1.162 2.59-2.59 2.59zM10.9 9.83c-.324 0-.59.265-.59.59v53.656c0 .324.266.59.59.59h90.23c.325 0 .59-.266.59-.59V10.42c0-.325-.265-.59-.59-.59H10.9z"/>
  <path fill="#FFF" d="M86.793 53.555H25.208c-1.105 0-2-.896-2-2V20.44c0-1.105.895-2 2-2h61.585c1.104 0 2 .895 2 2v31.115c0 1.105-.896 2-2 2"/>
  <path fill="#39B990" d="M86.793 54.555H25.208c-1.654 0-3-1.346-3-3V20.44c0-1.654 1.346-3 3-3h61.585c1.654 0 3 1.346 3 3v31.115c0 1.654-1.346 3-3 3zM25.208 19.44c-.55 0-1 .45-1 1v31.115c0 .55.45 1 1 1h61.585c.552 0 1-.45 1-1V20.44c0-.55-.448-1-1-1H25.208z"/>
  <path fill-rule="evenodd" clip-rule="evenodd" fill="#39B990" d="M32.774 38.33l-2.502 1.595c1.06 1.667 2.445 2.88 4.87 3.147v1.574H37.3v-1.574c3.39-.343 4.603-2.237 4.603-4.325 0-2.654-1.894-3.64-4.676-4.265v-3.015c.776.32 1.287.928 1.76 1.59l2.462-1.8c-.89-1.233-2.027-2.257-4.15-2.56V27.35h-2.16v1.29c-2.71.227-4.49 1.802-4.49 4.363 0 2.788 2.257 3.66 4.607 4.208v3.265c-1.1-.305-1.725-1.158-2.483-2.144m4.453-.606c.948.32 1.266.72 1.266 1.384 0 .76-.338 1.234-1.266 1.422v-2.806zm-3.165-5.063c0-.683.38-1.214 1.195-1.384v2.73c-.834-.283-1.195-.625-1.195-1.345"/>
  <path fill="#39B990" d="M47.992 28.55h34v2h-34zM47.992 41.21h34v2h-34zM47.992 34.88h34v2h-34z"/>
</svg>
