<?xml version="1.0" encoding="utf-8"?>
<!-- Generator: Adobe Illustrator 18.0.0, SVG Export Plug-In . SVG Version: 6.00 Build 0)  -->
<!DOCTYPE svg PUBLIC "-//W3C//DTD SVG 1.1//EN" "http://www.w3.org/Graphics/SVG/1.1/DTD/svg11.dtd">
<svg version="1.1" id="Layer_1" xmlns="http://www.w3.org/2000/svg" xmlns:xlink="http://www.w3.org/1999/xlink" x="0px" y="0px"
	 viewBox="0 0 51 65" enable-background="new 0 0 51 65" xml:space="preserve">
<g>
	<defs>
		<rect id="SVGID_1_" width="51" height="65"/>
	</defs>
	<clipPath id="SVGID_2_">
		<use xlink:href="#SVGID_1_"  overflow="visible"/>
	</clipPath>
	<g clip-path="url(#SVGID_2_)">
		<defs>
			<path id="SVGID_3_" d="M51.2,3c0-25,4.5-12,8-15.5c9-8.9-4.8-17.1-4.8-17.1c-1.8-1.3-5-2.4-7.2-2.4h-71.9c-2.2,0-4,1.8-4,4v97
				c0,2.2,1.8,4,4,4h71.9c2.2,0,4-1.8,4-4C51.2,69,51.2,28,51.2,3z"/>
		</defs>
		<clipPath id="SVGID_4_">
			<use xlink:href="#SVGID_3_"  overflow="visible"/>
		</clipPath>
		<g clip-path="url(#SVGID_4_)" enable-background="new    ">
			<g>
				<defs>
					<rect id="SVGID_5_" width="51" height="65"/>
				</defs>
				<clipPath id="SVGID_6_">
					<use xlink:href="#SVGID_5_"  overflow="visible"/>
				</clipPath>
				<g clip-path="url(#SVGID_6_)">
					<defs>
						<path id="SVGID_7_" d="M13.8,3.9c0-1.8,1.4-3.2,3.2-3.2h35.5c1.7,0,3.2,1.4,3.2,3.2v45.3c0,1.8-1.4,3.2-3.2,3.2H16.9
							c-1.7,0-3.2-1.4-3.2-3.2V3.9z"/>
					</defs>
					<clipPath id="SVGID_8_">
						<use xlink:href="#SVGID_7_"  overflow="visible"/>
					</clipPath>
					<g clip-path="url(#SVGID_8_)">
						<defs>
							<rect id="SVGID_9_" width="51" height="65"/>
						</defs>
						<clipPath id="SVGID_10_">
							<use xlink:href="#SVGID_9_"  overflow="visible"/>
						</clipPath>
						<rect x="8.8" y="-4.3" clip-path="url(#SVGID_10_)" fill="#FFFFFF" width="51.8" height="61.6"/>
					</g>
				</g>
				<g clip-path="url(#SVGID_6_)">
					<defs>
						<rect id="SVGID_11_" width="51" height="65"/>
					</defs>
					<clipPath id="SVGID_12_">
						<use xlink:href="#SVGID_11_"  overflow="visible"/>
					</clipPath>
					
						<path clip-path="url(#SVGID_12_)" fill="none" stroke="#8FC857" stroke-width="1.5" stroke-linecap="round" stroke-linejoin="bevel" stroke-miterlimit="10" d="
						M13.8,3.9c0-1.8,1.4-3.2,3.2-3.2h35.5c1.7,0,3.2,1.4,3.2,3.2v45.3c0,1.8-1.4,3.2-3.2,3.2H16.9c-1.7,0-3.2-1.4-3.2-3.2V3.9z"/>
				</g>
				<g clip-path="url(#SVGID_6_)">
					<defs>
						<path id="SVGID_13_" d="M44.3,33c0-0.7-0.5-1.2-1.2-1.2H20.7c-0.7,0-1.2,0.5-1.2,1.2c0,0.7,0.5,1.2,1.2,1.2h22.3
							C43.7,34.2,44.3,33.7,44.3,33z"/>
					</defs>
					<clipPath id="SVGID_14_">
						<use xlink:href="#SVGID_13_"  overflow="visible"/>
					</clipPath>
					<g clip-path="url(#SVGID_14_)">
						<defs>
							<rect id="SVGID_15_" width="51" height="65"/>
						</defs>
						<clipPath id="SVGID_16_">
							<use xlink:href="#SVGID_15_"  overflow="visible"/>
						</clipPath>
						<rect x="14.5" y="26.8" clip-path="url(#SVGID_16_)" fill="#142538" width="34.7" height="12.4"/>
					</g>
				</g>
				<g clip-path="url(#SVGID_6_)">
					<defs>
						<path id="SVGID_17_" d="M41.5,25.5c0-0.7-0.5-1.2-1.2-1.2H20.7c-0.7,0-1.2,0.5-1.2,1.2c0,0.7,0.5,1.2,1.2,1.2h19.6
							C40.9,26.7,41.5,26.2,41.5,25.5z"/>
					</defs>
					<clipPath id="SVGID_18_">
						<use xlink:href="#SVGID_17_"  overflow="visible"/>
					</clipPath>
					<g clip-path="url(#SVGID_18_)">
						<defs>
							<rect id="SVGID_19_" width="51" height="65"/>
						</defs>
						<clipPath id="SVGID_20_">
							<use xlink:href="#SVGID_19_"  overflow="visible"/>
						</clipPath>
						<rect x="14.5" y="19.3" clip-path="url(#SVGID_20_)" fill="#142538" width="32" height="12.4"/>
					</g>
				</g>
				<g clip-path="url(#SVGID_6_)">
					<defs>
						<ellipse id="SVGID_21_" cx="63.5" cy="27.5" rx="14.7" ry="14.7"/>
					</defs>
					<clipPath id="SVGID_22_">
						<use xlink:href="#SVGID_21_"  overflow="visible"/>
					</clipPath>
					<g clip-path="url(#SVGID_22_)">
						<defs>
							<rect id="SVGID_23_" width="51" height="65"/>
						</defs>
						<clipPath id="SVGID_24_">
							<use xlink:href="#SVGID_23_"  overflow="visible"/>
						</clipPath>
						<rect x="43.8" y="7.8" clip-path="url(#SVGID_24_)" fill="#142538" width="39.3" height="39.4"/>
					</g>
				</g>
				<g clip-path="url(#SVGID_6_)">
					<defs>
						<rect id="SVGID_25_" width="51" height="65"/>
					</defs>
					<clipPath id="SVGID_26_">
						<use xlink:href="#SVGID_25_"  overflow="visible"/>
					</clipPath>
					
						<ellipse clip-path="url(#SVGID_26_)" fill="none" stroke="#FFFFFF" stroke-width="2.3715" stroke-miterlimit="10" cx="63.5" cy="27.5" rx="14.7" ry="14.7"/>
				</g>
				<g clip-path="url(#SVGID_6_)">
					<defs>
						<path id="SVGID_27_" d="M7.2,7.4c0-1.8,1.4-3.2,3.2-3.2h48.8c1.7,0,3.2,1.4,3.2,3.2v45.3c0,1.8-1.4,3.2-3.2,3.2H10.4
							c-1.7,0-3.2-1.4-3.2-3.2V7.4z"/>
					</defs>
					<clipPath id="SVGID_28_">
						<use xlink:href="#SVGID_27_"  overflow="visible"/>
					</clipPath>
					<g clip-path="url(#SVGID_28_)">
						<defs>
							<rect id="SVGID_29_" width="51" height="65"/>
						</defs>
						<clipPath id="SVGID_30_">
							<use xlink:href="#SVGID_29_"  overflow="visible"/>
						</clipPath>
						<rect x="2.2" y="-0.8" clip-path="url(#SVGID_30_)" fill="#FFFFFF" width="65.1" height="61.6"/>
					</g>
				</g>
				<g clip-path="url(#SVGID_6_)">
					<defs>
						<rect id="SVGID_31_" width="51" height="65"/>
					</defs>
					<clipPath id="SVGID_32_">
						<use xlink:href="#SVGID_31_"  overflow="visible"/>
					</clipPath>
					
						<path clip-path="url(#SVGID_32_)" fill="none" stroke="#8FC857" stroke-width="1.5" stroke-linecap="round" stroke-linejoin="bevel" stroke-miterlimit="10" d="
						M7.2,7.4c0-1.8,1.4-3.2,3.2-3.2h48.8c1.7,0,3.2,1.4,3.2,3.2v45.3c0,1.8-1.4,3.2-3.2,3.2H10.4c-1.7,0-3.2-1.4-3.2-3.2V7.4z"/>
				</g>
				<g clip-path="url(#SVGID_6_)">
					<defs>
						<path id="SVGID_33_" d="M37.7,36.5c0-0.7-0.5-1.2-1.2-1.2H14.2c-0.7,0-1.2,0.5-1.2,1.2c0,0.7,0.5,1.2,1.2,1.2h22.3
							C37.2,37.7,37.7,37.2,37.7,36.5z"/>
					</defs>
					<clipPath id="SVGID_34_">
						<use xlink:href="#SVGID_33_"  overflow="visible"/>
					</clipPath>
					<g clip-path="url(#SVGID_34_)">
						<defs>
							<rect id="SVGID_35_" width="51" height="65"/>
						</defs>
						<clipPath id="SVGID_36_">
							<use xlink:href="#SVGID_35_"  overflow="visible"/>
						</clipPath>
						<rect x="8" y="30.3" clip-path="url(#SVGID_36_)" fill="#142538" width="34.7" height="12.4"/>
					</g>
				</g>
				<g clip-path="url(#SVGID_6_)">
					<defs>
						<path id="SVGID_37_" d="M35,29c0-0.7-0.5-1.2-1.2-1.2H14.2c-0.7,0-1.2,0.5-1.2,1.2c0,0.7,0.5,1.2,1.2,1.2h19.6
							C34.4,30.2,35,29.7,35,29z"/>
					</defs>
					<clipPath id="SVGID_38_">
						<use xlink:href="#SVGID_37_"  overflow="visible"/>
					</clipPath>
					<g clip-path="url(#SVGID_38_)">
						<defs>
							<rect id="SVGID_39_" width="51" height="65"/>
						</defs>
						<clipPath id="SVGID_40_">
							<use xlink:href="#SVGID_39_"  overflow="visible"/>
						</clipPath>
						<rect x="8" y="22.8" clip-path="url(#SVGID_40_)" fill="#142538" width="32" height="12.4"/>
					</g>
				</g>
				<g clip-path="url(#SVGID_6_)">
					<defs>
						<rect id="SVGID_41_" width="51" height="65"/>
					</defs>
					<clipPath id="SVGID_42_">
						<use xlink:href="#SVGID_41_"  overflow="visible"/>
					</clipPath>
					<g clip-path="url(#SVGID_42_)">
						<text transform="matrix(1 0 0 1 51.8189 36.0687)" fill="#FFFFFF" font-family="'BentonSans-Medium'" font-size="15.7143">$</text>
					</g>
				</g>
				<g clip-path="url(#SVGID_6_)">
					<defs>
						<path id="SVGID_43_" d="M54.9,8.2H2.8C2,8.2,1.4,9.5,1.4,11v49.8c0,1.6,0.6,2.8,1.3,2.8h52.4"/>
					</defs>
					<clipPath id="SVGID_44_">
						<use xlink:href="#SVGID_43_"  overflow="visible"/>
					</clipPath>
					<g clip-path="url(#SVGID_44_)">
						<defs>
							<rect id="SVGID_45_" width="51" height="65"/>
						</defs>
						<clipPath id="SVGID_46_">
							<use xlink:href="#SVGID_45_"  overflow="visible"/>
						</clipPath>
						<rect x="-3.6" y="3.2" clip-path="url(#SVGID_46_)" fill="#FFFFFF" width="63.7" height="65.4"/>
					</g>
				</g>
				<g clip-path="url(#SVGID_6_)">
					<defs>
						<rect id="SVGID_47_" width="51" height="65"/>
					</defs>
					<clipPath id="SVGID_48_">
						<use xlink:href="#SVGID_47_"  overflow="visible"/>
					</clipPath>
					<path clip-path="url(#SVGID_48_)" fill="none" stroke="#FFFFFF" stroke-width="3" stroke-miterlimit="10" d="M54.9,8.2H2.8
						C2,8.2,1.4,9.5,1.4,11v49.8c0,1.6,0.6,2.8,1.3,2.8h52.4"/>
					<path clip-path="url(#SVGID_48_)" fill="none" stroke="#8FC857" stroke-width="3" stroke-miterlimit="10" d="M56,8.2H2.8
						C2,8.2,1.4,9.5,1.4,11v49.8c0,1.6,0.6,2.8,1.3,2.8h52.4"/>
				</g>
				<g clip-path="url(#SVGID_6_)">
					<defs>
						<polygon id="SVGID_49_" points="52.4,7.5 72.7,64 3.4,63.6 1.5,61.2 1.1,9.6 4.4,7.9 						"/>
					</defs>
					<clipPath id="SVGID_50_">
						<use xlink:href="#SVGID_49_"  overflow="visible"/>
					</clipPath>
					<g clip-path="url(#SVGID_50_)">
						<defs>
							<rect id="SVGID_51_" width="51" height="65"/>
						</defs>
						<clipPath id="SVGID_52_">
							<use xlink:href="#SVGID_51_"  overflow="visible"/>
						</clipPath>
						<g clip-path="url(#SVGID_52_)" enable-background="new    ">
							<g>
								<defs>
									<rect id="SVGID_53_" x="7" y="12" width="44" height="48"/>
								</defs>
								<clipPath id="SVGID_54_">
									<use xlink:href="#SVGID_53_"  overflow="visible"/>
								</clipPath>
								<g clip-path="url(#SVGID_54_)">
									<defs>
										<path id="SVGID_55_" d="M9.3,49.7l-0.8-0.8c5.3,0,9.6,4.2,9.6,9.5l-0.8-0.8h56l-0.8,0.8c0-5.2,4.3-9.5,9.6-9.5l-0.8,0.8
											V22.9l0.8,0.8c-5.3,0-9.6-4.2-9.6-9.5l0.8,0.8h-56l0.8-0.8c0,5.2-4.3,9.5-9.6,9.5l0.8-0.8V49.7z M7.8,49.7V22.9v-0.8h0.8
											c4.5,0,8.1-3.6,8.1-8v-0.8h0.8h56h0.8v0.8c0,4.4,3.6,8,8.1,8H83v0.8v26.8v0.8h-0.8c-4.5,0-8.1,3.6-8.1,8v0.8h-0.8h-56
											h-0.8v-0.8c0-4.4-3.6-8-8.1-8H7.8V49.7z M103-6.6H-12.2v85.7H103V-6.6z"/>
									</defs>
									<clipPath id="SVGID_56_">
										<use xlink:href="#SVGID_55_"  overflow="visible"/>
									</clipPath>
									<g clip-path="url(#SVGID_56_)">
										<defs>
											<path id="SVGID_57_" d="M8.5,49.7V22.9c4.9,0,8.8-3.9,8.8-8.7h56c0,4.8,3.9,8.7,8.8,8.7v26.8c-4.9,0-8.8,3.9-8.8,8.7h-56
												C17.4,53.6,13.4,49.7,8.5,49.7z"/>
										</defs>
										<clipPath id="SVGID_58_">
											<use xlink:href="#SVGID_57_"  overflow="visible"/>
										</clipPath>
										<g clip-path="url(#SVGID_58_)">
											<defs>
												<rect id="SVGID_59_" x="1" y="7" width="50" height="57"/>
											</defs>
											<clipPath id="SVGID_60_">
												<use xlink:href="#SVGID_59_"  overflow="visible"/>
											</clipPath>
											<path clip-path="url(#SVGID_60_)" fill-rule="evenodd" clip-rule="evenodd" fill="#E1EECC" d="M8.5,49.7V22.9
												c4.9,0,8.8-3.9,8.8-8.7h56c0,4.8,3.9,8.7,8.8,8.7v26.8c-4.9,0-8.8,3.9-8.8,8.7h-56C17.4,53.6,13.4,49.7,8.5,49.7z"/>
										</g>
									</g>
								</g>
								<g clip-path="url(#SVGID_54_)">
									<defs>
										<path id="SVGID_61_" d="M8.5,49.7V22.9c4.9,0,8.8-3.9,8.8-8.7h56c0,4.8,3.9,8.7,8.8,8.7v26.8c-4.9,0-8.8,3.9-8.8,8.7h-56
											C17.4,53.6,13.4,49.7,8.5,49.7z"/>
									</defs>
									<clipPath id="SVGID_62_">
										<use xlink:href="#SVGID_61_"  overflow="visible"/>
									</clipPath>
									<g clip-path="url(#SVGID_62_)">
										<defs>
											<rect id="SVGID_63_" x="1" y="7" width="50" height="57"/>
										</defs>
										<clipPath id="SVGID_64_">
											<use xlink:href="#SVGID_63_"  overflow="visible"/>
										</clipPath>
										<path clip-path="url(#SVGID_64_)" fill="none" stroke="#8FC857" stroke-width="3" stroke-miterlimit="10" d="M8.5,49.7
											V22.9c4.9,0,8.8-3.9,8.8-8.7h56c0,4.8,3.9,8.7,8.8,8.7v26.8c-4.9,0-8.8,3.9-8.8,8.7h-56C17.4,53.6,13.4,49.7,8.5,49.7z"/>
									</g>
								</g>
								<g clip-path="url(#SVGID_54_)">
									<defs>
										<path id="SVGID_65_" d="M47.2,48.2c6.8,0,12.2-5.4,12.2-12.1c0-6.7-5.5-12.1-12.2-12.1c-6.8,0-12.2,5.4-12.2,12.1
											C34.9,42.8,40.4,48.2,47.2,48.2z M47.2,49.7c-7.6,0-13.7-6.1-13.7-13.6s6.2-13.6,13.7-13.6c7.6,0,13.7,6.1,13.7,13.6
											S54.7,49.7,47.2,49.7z M80.9,2.5H13.4v67.1h67.5V2.5z"/>
									</defs>
									<clipPath id="SVGID_66_">
										<use xlink:href="#SVGID_65_"  overflow="visible"/>
									</clipPath>
									<g clip-path="url(#SVGID_66_)">
										<defs>
											<ellipse id="SVGID_67_" cx="47.2" cy="36.1" rx="13" ry="12.8"/>
										</defs>
										<clipPath id="SVGID_68_">
											<use xlink:href="#SVGID_67_"  overflow="visible"/>
										</clipPath>
										<g clip-path="url(#SVGID_68_)">
											<defs>
												<rect id="SVGID_69_" x="1" y="7" width="50" height="57"/>
											</defs>
											<clipPath id="SVGID_70_">
												<use xlink:href="#SVGID_69_"  overflow="visible"/>
											</clipPath>
											
												<ellipse clip-path="url(#SVGID_70_)" fill-rule="evenodd" clip-rule="evenodd" fill="#F3F4F4" cx="47.2" cy="36.1" rx="13" ry="12.8"/>
										</g>
									</g>
								</g>
								<g clip-path="url(#SVGID_54_)">
									<defs>
										<ellipse id="SVGID_71_" cx="47.2" cy="36.1" rx="13" ry="12.8"/>
									</defs>
									<clipPath id="SVGID_72_">
										<use xlink:href="#SVGID_71_"  overflow="visible"/>
									</clipPath>
									<g clip-path="url(#SVGID_72_)">
										<defs>
											<rect id="SVGID_73_" x="1" y="7" width="50" height="57"/>
										</defs>
										<clipPath id="SVGID_74_">
											<use xlink:href="#SVGID_73_"  overflow="visible"/>
										</clipPath>
										
											<ellipse clip-path="url(#SVGID_74_)" fill="none" stroke="#8FC857" stroke-width="3" stroke-miterlimit="10" cx="47.2" cy="36.1" rx="13" ry="12.8"/>
									</g>
								</g>
								<g clip-path="url(#SVGID_54_)">
									<defs>
										<path id="SVGID_75_" d="M9.3,15v-1.7c-0.3,0-0.5,0.1-0.7,0.2s-0.2,0.3-0.2,0.5c0,0.2,0.1,0.4,0.2,0.6
											C8.7,14.8,9,15,9.3,15z M9.9,16.1V18c0.3,0,0.6-0.1,0.8-0.2c0.2-0.1,0.3-0.3,0.3-0.6c0-0.3-0.1-0.5-0.3-0.6
											C10.5,16.3,10.2,16.2,9.9,16.1z M9.2,19.4v-0.7c-0.9-0.1-1.5-0.5-2-1.2L7.9,17c0.1,0.2,0.2,0.3,0.4,0.4
											c0.1,0.1,0.2,0.2,0.4,0.3c0.2,0.1,0.3,0.2,0.5,0.2v-2c-0.2-0.1-0.4-0.1-0.6-0.2s-0.3-0.1-0.5-0.2
											c-0.2-0.1-0.3-0.2-0.4-0.3c-0.1-0.1-0.2-0.3-0.3-0.4c-0.1-0.2-0.1-0.4-0.1-0.6c0-0.5,0.2-0.9,0.5-1.2
											c0.3-0.3,0.8-0.5,1.3-0.5V12h0.7v0.6c0.4,0.1,0.8,0.2,1,0.3c0.3,0.2,0.5,0.4,0.7,0.7l-0.7,0.5c-0.1-0.2-0.3-0.4-0.5-0.5
											c-0.2-0.1-0.3-0.2-0.6-0.3v1.8c0.2,0,0.3,0.1,0.4,0.1c0.1,0,0.3,0.1,0.4,0.1c0.1,0.1,0.3,0.1,0.4,0.2
											c0.1,0.1,0.2,0.1,0.3,0.2c0.1,0.1,0.2,0.2,0.2,0.3c0.1,0.1,0.1,0.2,0.1,0.4c0,0.1,0.1,0.3,0.1,0.4c0,0.5-0.2,0.9-0.5,1.2
											c-0.3,0.3-0.8,0.5-1.4,0.5v0.7H9.2z"/>
									</defs>
									<clipPath id="SVGID_76_">
										<use xlink:href="#SVGID_75_"  overflow="visible"/>
									</clipPath>
									<g clip-path="url(#SVGID_76_)">
										<defs>
											<rect id="SVGID_77_" x="1" y="7" width="50" height="57"/>
										</defs>
										<clipPath id="SVGID_78_">
											<use xlink:href="#SVGID_77_"  overflow="visible"/>
										</clipPath>
										<rect x="2.2" y="7" clip-path="url(#SVGID_78_)" fill="#8FC857" width="14.6" height="17.4"/>
									</g>
								</g>
								<g clip-path="url(#SVGID_54_)">
									<defs>
										<path id="SVGID_79_" d="M9.3,55.1v-1.7c-0.3,0-0.5,0.1-0.7,0.2c-0.2,0.1-0.2,0.3-0.2,0.5c0,0.2,0.1,0.4,0.2,0.6
											C8.7,54.9,9,55,9.3,55.1z M9.9,56.2V58c0.3,0,0.6-0.1,0.8-0.2c0.2-0.1,0.3-0.3,0.3-0.6c0-0.3-0.1-0.5-0.3-0.6
											C10.5,56.4,10.2,56.3,9.9,56.2z M9.2,59.5v-0.7c-0.9-0.1-1.5-0.5-2-1.2l0.7-0.5c0.1,0.2,0.2,0.3,0.4,0.4
											c0.1,0.1,0.2,0.2,0.4,0.3C8.9,57.9,9.1,58,9.3,58v-2C9,56,8.9,55.9,8.7,55.8s-0.3-0.1-0.5-0.2s-0.3-0.2-0.4-0.3
											c-0.1-0.1-0.2-0.3-0.3-0.4c-0.1-0.2-0.1-0.4-0.1-0.6c0-0.5,0.2-0.9,0.5-1.2c0.3-0.3,0.8-0.5,1.3-0.5v-0.6h0.7v0.6
											c0.4,0.1,0.8,0.2,1,0.3c0.3,0.2,0.5,0.4,0.7,0.7l-0.7,0.5c-0.1-0.2-0.3-0.4-0.5-0.5c-0.2-0.1-0.3-0.2-0.6-0.3v1.8
											c0.2,0,0.3,0.1,0.4,0.1c0.1,0,0.3,0.1,0.4,0.1c0.1,0.1,0.3,0.1,0.4,0.2c0.1,0.1,0.2,0.1,0.3,0.2c0.1,0.1,0.2,0.2,0.2,0.3
											c0.1,0.1,0.1,0.2,0.1,0.4c0,0.1,0.1,0.3,0.1,0.4c0,0.5-0.2,0.9-0.5,1.2c-0.3,0.3-0.8,0.5-1.4,0.5v0.7H9.2z"/>
									</defs>
									<clipPath id="SVGID_80_">
										<use xlink:href="#SVGID_79_"  overflow="visible"/>
									</clipPath>
									<g clip-path="url(#SVGID_80_)">
										<defs>
											<rect id="SVGID_81_" x="1" y="7" width="50" height="57"/>
										</defs>
										<clipPath id="SVGID_82_">
											<use xlink:href="#SVGID_81_"  overflow="visible"/>
										</clipPath>
										<rect x="2.2" y="47.1" clip-path="url(#SVGID_82_)" fill="#8FC857" width="14.6" height="17.4"/>
									</g>
								</g>
							</g>
						</g>
					</g>
				</g>
			</g>
		</g>
	</g>
</g>
</svg>
