<?xml version="1.0" encoding="UTF-8" standalone="no"?>
<svg viewBox="0 0 36 36" version="1.1" xmlns="http://www.w3.org/2000/svg" xmlns:xlink="http://www.w3.org/1999/xlink" xmlns:sketch="http://www.bohemiancoding.com/sketch/ns">
    <defs></defs>
    <g id="Page-1" stroke="none" stroke-width="1" fill="none" fill-rule="evenodd" sketch:type="MSPage">
        <g id="Artboard" sketch:type="MSArtboardGroup" fill="#4D5966">
            <g id="Imported-Layers" sketch:type="MSLayerGroup">
                <path d="M25.303,6.783 C27.104,8.331 28.25,10.622 28.25,13.177 C28.25,17.829 24.467,21.614 19.815,21.614 C19.626,21.614 19.439,21.608 19.252,21.596 C19.396,21.905 19.419,22.072 19.605,22.495 C20.179,22.619 20.774,22.685 21.386,22.685 C26.038,22.685 29.822,18.9 29.822,14.249 C29.822,11.011 27.985,8.197 25.303,6.783" id="Fill-1" sketch:type="MSShapeGroup"></path>
                <path d="M21.4,0.665 C13.852,0.665 7.732,6.784 7.732,14.333 C7.732,17.007 8.512,19.494 9.839,21.601 L0.334,30.956 L0.338,30.962 C-0.094,32.83 3.161,36.044 4.933,35.551 L4.947,35.537 L4.984,35.499 L14.51,26.123 C16.534,27.31 18.884,28.001 21.4,28.001 C28.95,28.001 35.069,21.882 35.069,14.333 C35.069,6.784 28.95,0.665 21.4,0.665 L21.4,0.665 Z M21.4,24.418 C15.83,24.418 11.315,19.903 11.315,14.333 C11.315,8.763 15.83,4.248 21.4,4.248 C26.971,4.248 31.486,8.763 31.486,14.333 C31.486,19.903 26.971,24.418 21.4,24.418 L21.4,24.418 Z" id="Fill-2" sketch:type="MSShapeGroup"></path>
            </g>
        </g>
    </g>
</svg>