<svg viewBox="0 0 270 140" xmlns="http://www.w3.org/2000/svg"><title>Cards Copy</title><g fill="none" fill-rule="evenodd"><g transform="translate(142 8)"><rect stroke="#064B8D" stroke-width="2.4" fill="#FFF" width="126" height="79" rx="4"/><path d="M56.065 36.138c.063 1.862 1.515 2.666 3.158 2.666 1.2 0 2.042-.19 2.84-.465l.38 1.776c-.884.38-2.105.656-3.578.656-3.326 0-5.283-2.053-5.283-5.206 0-2.857 1.725-5.545 5.01-5.545 3.325 0 4.42 2.752 4.42 5.017 0 .486-.042.868-.084 1.1h-6.863zm4.505-1.82c.02-.953-.4-2.52-2.126-2.52-1.6 0-2.273 1.46-2.38 2.52h4.506zM42.358 40.56c-1.198 0-2.557.25-2.557-2.355V26.193h2.558V40.56M91.412 26.193v.9h-.006v4.26h-.02c-.463-.76-1.495-1.332-2.906-1.332-2.462 0-4.61 2.054-4.588 5.503 0 3.175 1.936 5.27 4.4 5.27 1.378 0 2.553-.63 3.2-1.645.303 1.595 1.448 1.413 2.477 1.413V26.194H91.41zm-.006 9.902c0 .275-.02.53-.084.762-.252 1.122-1.18 1.84-2.23 1.84-1.643 0-2.57-1.374-2.57-3.28 0-1.904.927-3.385 2.59-3.385 1.18 0 2 .825 2.23 1.82.043.21.064.486.064.698v1.545zM63.582 26.193V40.56c1.028 0 2.173.183 2.478-1.412.646 1.015 1.82 1.645 3.2 1.645 2.462 0 4.4-2.095 4.4-5.27.02-3.45-2.128-5.502-4.59-5.502-1.41 0-2.442.572-2.906 1.334h-.02v-4.262h-.006v-.9h-2.556zm2.562 8.357c0-.212.02-.487.063-.698.23-.995 1.053-1.82 2.23-1.82 1.664 0 2.59 1.48 2.59 3.386 0 1.905-.926 3.28-2.568 3.28-1.053 0-1.98-.72-2.232-1.84-.064-.233-.084-.488-.084-.763V34.55zM76.98 40.56c-1.198 0-2.557.25-2.557-2.355v-7.95h2.557V40.56M78.293 33.576c0-1.396-.022-2.412-.085-3.322h2.232l.105 1.947h.063c.505-1.438 1.705-2.18 2.82-2.18.253 0 .4.023.612.065v2.434c-.232-.044-.464-.065-.78-.065-1.22 0-2.084.783-2.315 1.968-.042.233-.063.508-.063.783v1.516l-.032 1.766v2.073c-1.198 0-2.556.25-2.556-2.355v-4.63M52.908 30.254h-2.59v6.222c0 .296-.04.593-.146.804-.253.678-.926 1.397-1.98 1.397-1.367 0-1.915-1.1-1.915-2.814v-5.61h-2.59v6.054c0 3.365 1.706 4.486 3.56 4.486 1.698 0 2.687-.89 3.18-1.593.32 1.54 1.452 1.36 2.47 1.36l.01-10.306M75.662 28.846c-.864 0-1.432-.635-1.432-1.397 0-.806.59-1.42 1.452-1.42.885 0 1.432.614 1.453 1.42 0 .76-.568 1.396-1.453 1.396h-.02M29.023 26.51c.82-.17 2.315-.32 3.79-.32 1.893 0 3.093.255 4.04.91.885.53 1.474 1.46 1.474 2.69 0 1.31-.82 2.495-2.358 3.067v.063c1.494.382 2.862 1.567 2.862 3.514 0 1.27-.547 2.264-1.347 2.94-1.01.89-2.674 1.335-5.284 1.335-1.43 0-2.504-.107-3.177-.192v-14.01zm2.568 5.628h1.327c1.81 0 2.8-.847 2.8-2.053 0-1.355-1.01-1.97-2.653-1.97-.757 0-1.2.044-1.473.107v3.916zm0 6.54c.337.063.78.063 1.37.063 1.662 0 3.157-.613 3.157-2.39 0-1.652-1.453-2.33-3.242-2.33H31.59v4.657z" fill="#004B8E"/><path d="M87.3 20.885l-.044.014c-.73 1.562-2.19 2.506-3.826 3.338 1.048.94 2.637 1.215 4.297.517.398-.168.33-.19.835-.4 0 0 1.493-.906 2.596-.665-.37-1.903-1.99-3.343-3.857-2.805" fill="#064B8D"/><path d="M83.806 17.294c.103.217.206.412.29.612.266-.765 1.034-1.244 1.855-1.102.497.086.908.38 1.168.78.07.086.117.18.146.28.124.29.174.617.127.95-.027.19-.086.37-.167.53.24.194.452.408.635.65-.408.07-.66.165-.977.265-.67 1.875-2.51 2.85-4.332 3.737-.782.38-1.694 1.077-1.88 1.983-.386-1.355-.108-3.654.583-4.867-.162-.294-.355-.592-.483-.915-.477-1.282-.656-2.766-.717-3.437-.073-.78-.39-1.705-1.228-2.576 2.324.487 3.2 1.113 3.2 1.113s1.054.563 1.784 1.997" fill="#064B8D"/><path d="M94.77 27.14c0-.565.44-1.012 1-1.012.558 0 .994.447.994 1.007 0 .568-.436 1.016-.997 1.016-.557 0-.997-.447-.997-1.01zm1.852 0c0-.483-.375-.873-.855-.873-.475 0-.85.387-.85.868 0 .486.375.873.854.873.477 0 .852-.383.852-.868zm-1.226-.578h.393c.253 0 .395.113.395.32 0 .18-.09.27-.233.31l.264.486h-.185l-.25-.465h-.21v.465h-.174v-1.116zm.384.508c.147 0 .238-.044.238-.178 0-.126-.09-.174-.243-.174h-.206v.352h.21zM21.85 55.53c-.047.076-.08.15-.08.246 0 .177.163.32.333.32.224 0 .3-.17.394-.333l.953-1.627.953 1.627c.096.163.17.333.395.333.17 0 .334-.143.334-.32 0-.095-.034-.17-.082-.245l-1.212-2.082 1.212-2.082c.048-.075.082-.15.082-.245 0-.176-.164-.32-.334-.32-.224 0-.3.17-.395.334l-.953 1.627-.953-1.626c-.095-.163-.17-.333-.394-.333-.17 0-.334.144-.334.32 0 .096.033.17.08.246l1.212 2.082-1.21 2.083zm4.902 0c-.048.076-.082.15-.082.246 0 .177.163.32.334.32.224 0 .3-.17.394-.333l.953-1.627.954 1.627c.095.163.17.333.395.333.17 0 .333-.143.333-.32 0-.095-.035-.17-.082-.245l-1.21-2.082 1.21-2.082c.048-.075.083-.15.083-.245 0-.176-.164-.32-.334-.32-.226 0-.3.17-.396.334l-.953 1.627-.952-1.626c-.095-.163-.17-.333-.394-.333-.17 0-.334.144-.334.32 0 .096.034.17.082.246l1.21 2.082-1.21 2.083zm4.9 0c-.047.076-.08.15-.08.246 0 .177.162.32.332.32.225 0 .3-.17.395-.333l.952-1.627.953 1.627c.095.163.17.333.395.333.17 0 .333-.143.333-.32 0-.095-.034-.17-.08-.245L33.64 53.45l1.212-2.082c.047-.075.08-.15.08-.245 0-.176-.162-.32-.332-.32-.225 0-.3.17-.395.334l-.953 1.627-.953-1.626c-.096-.163-.17-.333-.396-.333-.17 0-.333.144-.333.32 0 .096.035.17.083.246l1.21 2.082-1.21 2.083zm4.9 0c-.046.076-.08.15-.08.246 0 .177.163.32.333.32.225 0 .3-.17.395-.333l.953-1.627.953 1.627c.095.163.17.333.395.333.17 0 .334-.143.334-.32 0-.095-.034-.17-.08-.245L38.54 53.45l1.213-2.082c.047-.075.08-.15.08-.245 0-.176-.162-.32-.332-.32-.224 0-.3.17-.394.334l-.953 1.627-.953-1.626c-.095-.163-.17-.333-.395-.333-.17 0-.333.144-.333.32 0 .096.034.17.08.246l1.213 2.082-1.212 2.083zm9.803 0c-.048.076-.082.15-.082.246 0 .177.164.32.334.32.225 0 .3-.17.395-.333l.953-1.627.953 1.627c.095.163.17.333.394.333.17 0 .334-.143.334-.32 0-.095-.034-.17-.082-.245l-1.21-2.082 1.21-2.082c.048-.075.082-.15.082-.245 0-.176-.163-.32-.334-.32-.224 0-.3.17-.394.334l-.953 1.627-.953-1.626c-.096-.163-.17-.333-.395-.333-.17 0-.334.144-.334.32 0 .096.034.17.082.246l1.212 2.082-1.212 2.083zm4.9 0c-.047.076-.08.15-.08.246 0 .177.163.32.333.32.224 0 .3-.17.395-.333l.952-1.627.953 1.627c.096.163.17.333.395.333.17 0 .334-.143.334-.32 0-.095-.034-.17-.082-.245l-1.212-2.082 1.212-2.082c.048-.075.082-.15.082-.245 0-.176-.164-.32-.334-.32-.224 0-.3.17-.395.334l-.953 1.627-.952-1.626c-.096-.163-.17-.333-.395-.333-.17 0-.334.144-.334.32 0 .096.034.17.082.246l1.21 2.082-1.21 2.083zm4.902 0c-.048.076-.082.15-.082.246 0 .177.163.32.334.32.223 0 .298-.17.393-.333l.953-1.627.953 1.627c.095.163.17.333.394.333.17 0 .334-.143.334-.32 0-.095-.034-.17-.082-.245l-1.212-2.082 1.212-2.082c.048-.075.082-.15.082-.245 0-.176-.164-.32-.334-.32-.225 0-.3.17-.395.334l-.954 1.627-.953-1.626c-.095-.163-.17-.333-.394-.333-.172 0-.335.144-.335.32 0 .096.034.17.082.246l1.21 2.082-1.21 2.083zm4.9 0c-.047.076-.08.15-.08.246 0 .177.162.32.332.32.224 0 .3-.17.394-.333l.953-1.627.953 1.627c.095.163.17.333.395.333.17 0 .333-.143.333-.32 0-.095-.034-.17-.08-.245l-1.213-2.082 1.212-2.082c.047-.075.08-.15.08-.245 0-.176-.162-.32-.332-.32-.225 0-.3.17-.395.334l-.953 1.627-.953-1.626c-.095-.163-.17-.333-.395-.333-.17 0-.334.144-.334.32 0 .096.034.17.082.246l1.21 2.082-1.21 2.083zm4.9 0c-.046.076-.08.15-.08.246 0 .177.163.32.333.32.225 0 .3-.17.395-.333l.953-1.627.953 1.627c.096.163.17.333.396.333.17 0 .333-.143.333-.32 0-.095-.035-.17-.082-.245l-1.212-2.082 1.212-2.082c.047-.075.08-.15.08-.245 0-.176-.162-.32-.332-.32-.225 0-.3.17-.395.334l-.952 1.627-.953-1.626c-.095-.163-.17-.333-.395-.333-.17 0-.333.144-.333.32 0 .096.034.17.08.246l1.213 2.082-1.212 2.083zm4.902 0c-.048.076-.082.15-.082.246 0 .177.163.32.333.32.226 0 .3-.17.396-.333l.953-1.627.952 1.627c.095.163.17.333.395.333.17 0 .333-.143.333-.32 0-.095-.034-.17-.082-.245l-1.21-2.082 1.21-2.082c.048-.075.082-.15.082-.245 0-.176-.163-.32-.333-.32-.225 0-.3.17-.395.334l-.953 1.627-.954-1.626c-.095-.163-.17-.333-.395-.333-.17 0-.332.144-.332.32 0 .096.034.17.08.246l1.213 2.082-1.21 2.083zm9.8 0c-.047.076-.08.15-.08.246 0 .177.163.32.333.32.224 0 .3-.17.395-.333l.953-1.627.953 1.627c.096.163.17.333.395.333.17 0 .334-.143.334-.32 0-.095-.034-.17-.082-.245l-1.212-2.082 1.212-2.082c.048-.075.082-.15.082-.245 0-.176-.164-.32-.334-.32-.224 0-.3.17-.395.334l-.952 1.627-.952-1.626c-.096-.163-.17-.333-.395-.333-.17 0-.334.144-.334.32 0 .096.033.17.08.246l1.213 2.082-1.212 2.083zm4.902 0c-.048.076-.082.15-.082.246 0 .177.163.32.334.32.224 0 .3-.17.394-.333l.953-1.627.954 1.627c.096.163.17.333.395.333.17 0 .333-.143.333-.32 0-.095-.034-.17-.082-.245l-1.21-2.082 1.21-2.082c.05-.075.083-.15.083-.245 0-.176-.164-.32-.334-.32-.226 0-.3.17-.396.334l-.953 1.627-.952-1.626c-.095-.163-.17-.333-.394-.333-.17 0-.334.144-.334.32 0 .096.034.17.082.246l1.21 2.082-1.21 2.083zm4.9 0c-.047.076-.08.15-.08.246 0 .177.162.32.332.32.225 0 .3-.17.395-.333l.952-1.627.953 1.627c.095.163.17.333.395.333.17 0 .333-.143.333-.32 0-.095-.034-.17-.08-.245L92.45 53.45l1.212-2.082c.047-.075.08-.15.08-.245 0-.176-.162-.32-.332-.32-.225 0-.3.17-.395.334l-.953 1.627-.953-1.626c-.096-.163-.17-.333-.396-.333-.17 0-.333.144-.333.32 0 .096.035.17.083.246l1.21 2.082-1.21 2.083zm4.9 0c-.046.076-.08.15-.08.246 0 .177.163.32.333.32.225 0 .3-.17.395-.333l.953-1.627.953 1.627c.095.163.17.333.395.333.17 0 .334-.143.334-.32 0-.095-.034-.17-.08-.245L97.35 53.45l1.213-2.082c.047-.075.08-.15.08-.245 0-.176-.162-.32-.332-.32-.224 0-.3.17-.394.334l-.953 1.627-.953-1.626c-.095-.163-.17-.333-.395-.333-.17 0-.333.144-.333.32 0 .096.034.17.08.246l1.213 2.082-1.212 2.083zm4.902 0c-.047.076-.08.15-.08.246 0 .177.162.32.332.32.225 0 .3-.17.395-.333l.954-1.627.953 1.627c.095.163.17.333.395.333.17 0 .333-.143.333-.32 0-.095-.034-.17-.082-.245l-1.21-2.082 1.21-2.082c.048-.075.082-.15.082-.245 0-.176-.163-.32-.333-.32-.225 0-.3.17-.395.334l-.953 1.627-.953-1.626c-.094-.163-.17-.333-.394-.333-.17 0-.333.144-.333.32 0 .096.034.17.08.246l1.213 2.082-1.212 2.083z" fill="#004B8E"/></g><g transform="translate(64 59)"><rect stroke="#465560" stroke-width="3" fill="#FFF" x=".161" y=".5" width="126.242" height="79" rx="4"/><path d="M96.454 32.836V34h.314v-1.164h.428v-.264h-1.17v.264h.428zm.906-.264V34h.294v-1.002h.004l.35 1.002h.242l.35-1.012h.004V34h.294v-1.428h-.442l-.316.982h-.004l-.334-.982h-.442zM35.39 37.135V34.12h2.58c.54 0 .945.117 1.215.352.27.236.405.613.405 1.133 0 .54-.135.93-.405 1.17-.27.24-.675.36-1.215.36h-2.58zm-2.355-4.845V43h2.355v-4.185h2.355c.59 0 1.015.13 1.275.39s.43.67.51 1.23c.06.43.105.88.135 1.35.03.47.11.875.24 1.215h2.355c-.11-.15-.192-.332-.247-.547-.056-.216-.095-.443-.12-.683-.026-.24-.043-.475-.053-.705-.01-.23-.02-.43-.03-.6-.02-.27-.057-.54-.113-.81-.055-.27-.142-.517-.262-.742-.12-.226-.275-.42-.465-.585-.19-.166-.43-.288-.72-.368v-.03c.6-.24 1.032-.59 1.297-1.05.266-.46.398-1.005.398-1.635 0-.41-.072-.792-.218-1.148-.145-.355-.354-.667-.63-.937-.275-.27-.604-.482-.99-.637-.385-.156-.817-.233-1.297-.233h-5.775zm10.83 0V43h8.13v-1.98H46.22v-2.625h5.19v-1.83h-5.19V34.27h5.655v-1.98h-8.01zm12.075 8.73v-6.75h1.68c.58 0 1.067.082 1.463.247.395.166.712.403.952.713.24.31.412.682.518 1.117.105.436.157.923.157 1.463 0 .59-.075 1.09-.225 1.5-.15.41-.35.742-.6.997-.25.256-.535.438-.855.548-.32.11-.65.165-.99.165h-2.1zm-2.355-8.73V43h4.62c.82 0 1.532-.137 2.138-.413.605-.275 1.11-.652 1.514-1.132.406-.48.708-1.05.908-1.71.2-.66.3-1.38.3-2.16 0-.89-.122-1.665-.367-2.325-.246-.66-.585-1.21-1.02-1.65-.436-.44-.95-.77-1.545-.99-.596-.22-1.238-.33-1.928-.33h-4.62zm16.17 5.685h2.085c-.03-.5-.15-.932-.36-1.297-.21-.366-.482-.67-.818-.915-.335-.246-.714-.428-1.14-.548-.425-.12-.867-.18-1.327-.18-.63 0-1.19.105-1.68.315-.49.21-.905.502-1.245.877-.34.376-.597.82-.772 1.336-.176.515-.263 1.072-.263 1.672 0 .58.095 1.112.285 1.598.19.485.455.902.795 1.252s.752.622 1.237.818c.486.195 1.018.292 1.598.292 1.03 0 1.875-.27 2.535-.81.66-.54 1.06-1.325 1.2-2.355H69.83c-.07.48-.242.862-.517 1.148-.276.285-.668.427-1.178.427-.33 0-.61-.075-.84-.225-.23-.15-.412-.342-.547-.578-.136-.235-.233-.497-.293-.787-.06-.29-.09-.575-.09-.855 0-.29.03-.582.09-.877.06-.296.162-.565.308-.81.145-.246.332-.445.562-.6.23-.156.515-.233.855-.233.91 0 1.435.445 1.575 1.335zm3.24-.345c.03-.5.155-.915.375-1.245.22-.33.5-.595.84-.795.34-.2.722-.342 1.148-.428.425-.085.852-.127 1.282-.127.39 0 .785.027 1.185.083.4.055.765.162 1.095.322.33.16.6.382.81.668.21.285.315.662.315 1.132v4.035c0 .35.02.685.06 1.005.04.32.11.56.21.72h-2.16c-.04-.12-.072-.242-.097-.367-.026-.126-.043-.253-.053-.383-.34.35-.74.595-1.2.735-.46.14-.93.21-1.41.21-.37 0-.715-.045-1.035-.135-.32-.09-.6-.23-.84-.42-.24-.19-.427-.43-.563-.72-.135-.29-.202-.635-.202-1.035 0-.44.077-.802.233-1.087.155-.286.354-.513.6-.683.245-.17.524-.297.84-.383.315-.085.632-.152.952-.202.32-.05.635-.09.945-.12.31-.03.585-.075.825-.135.24-.06.43-.147.57-.262.14-.116.205-.283.195-.503 0-.23-.037-.412-.113-.547-.075-.136-.174-.24-.3-.316-.125-.075-.27-.124-.434-.15-.166-.025-.343-.037-.533-.037-.42 0-.75.09-.99.27-.24.18-.38.48-.42.9h-2.13zm4.92 1.575c-.09.08-.202.142-.338.188-.135.045-.28.082-.434.112-.156.03-.318.055-.488.075-.17.02-.34.045-.51.075-.16.03-.317.07-.472.12-.156.05-.29.117-.406.203-.115.085-.207.192-.277.322-.07.13-.105.295-.105.495 0 .19.035.35.105.48.07.13.165.232.285.308.12.075.26.127.42.157.16.03.325.045.495.045.42 0 .745-.07.975-.21.23-.14.4-.307.51-.503.11-.195.177-.392.203-.592.025-.2.037-.36.037-.48v-.795zm3.78-3.96V43h2.13v-3.495c0-.35.035-.675.105-.975.07-.3.187-.562.352-.788.166-.225.383-.402.653-.532s.6-.195.99-.195c.13 0 .265.007.405.023.14.015.26.032.36.052v-1.98c-.17-.05-.325-.075-.465-.075-.27 0-.53.04-.78.12-.25.08-.485.192-.705.337-.22.146-.415.32-.585.526-.17.205-.305.427-.405.667h-.03v-1.44h-2.025zm11.07 3.855c0 .32-.03.63-.09.93-.06.3-.16.567-.3.803-.14.235-.327.422-.563.562-.235.14-.527.21-.877.21-.33 0-.612-.072-.847-.217-.236-.146-.43-.335-.585-.57-.156-.236-.268-.503-.338-.803-.07-.3-.105-.6-.105-.9 0-.32.032-.627.097-.922.066-.296.17-.558.316-.788.145-.23.337-.415.577-.555.24-.14.535-.21.885-.21s.64.07.87.21c.23.14.417.322.563.547.145.226.247.485.307.78.06.296.09.603.09.923zm.03 2.91V43h2.025V32.29h-2.13v3.9h-.03c-.24-.38-.567-.667-.983-.862-.415-.196-.852-.293-1.312-.293-.57 0-1.07.112-1.5.338-.43.225-.787.522-1.072.892-.286.37-.5.797-.646 1.282-.145.486-.217.988-.217 1.508 0 .54.072 1.06.217 1.56.146.5.36.942.645 1.328.286.385.648.69 1.088.915.44.225.95.337 1.53.337.51 0 .967-.092 1.373-.278.405-.185.732-.487.982-.907h.03zM22.553 54.935c-.047.075-.08.15-.08.245 0 .177.162.32.332.32.225 0 .3-.17.395-.334l.953-1.626.953 1.626c.095.164.17.334.395.334.17 0 .334-.143.334-.32 0-.095-.034-.17-.082-.245l-1.21-2.083 1.21-2.083c.048-.076.082-.15.082-.246 0-.177-.163-.32-.333-.32-.224 0-.3.17-.394.334l-.953 1.627-.953-1.627c-.095-.163-.17-.334-.395-.334-.17 0-.333.143-.333.32 0 .096.034.17.08.245l1.213 2.082-1.212 2.083zm4.9 0c-.046.075-.08.15-.08.245 0 .177.163.32.333.32.225 0 .3-.17.395-.334l.954-1.626.953 1.626c.095.164.17.334.394.334.172 0 .335-.143.335-.32 0-.095-.034-.17-.082-.245l-1.21-2.083 1.21-2.083c.048-.076.082-.15.082-.246 0-.177-.163-.32-.334-.32-.223 0-.298.17-.393.334l-.953 1.627-.953-1.627c-.094-.163-.17-.334-.394-.334-.17 0-.334.143-.334.32 0 .096.035.17.082.245l1.212 2.082-1.212 2.083zm4.902 0c-.048.075-.082.15-.082.245 0 .177.164.32.334.32.224 0 .3-.17.395-.334l.953-1.626.953 1.626c.095.164.17.334.394.334.17 0 .334-.143.334-.32 0-.095-.034-.17-.082-.245l-1.21-2.083 1.21-2.083c.048-.076.082-.15.082-.246 0-.177-.164-.32-.334-.32-.224 0-.3.17-.394.334l-.953 1.627-.953-1.627c-.096-.163-.17-.334-.395-.334-.17 0-.334.143-.334.32 0 .096.034.17.082.245l1.212 2.082-1.212 2.083zm4.9 0c-.047.075-.08.15-.08.245 0 .177.163.32.333.32.224 0 .3-.17.394-.334l.953-1.626.953 1.626c.096.164.17.334.395.334.17 0 .334-.143.334-.32 0-.095-.034-.17-.082-.245l-1.212-2.083 1.212-2.083c.048-.076.082-.15.082-.246 0-.177-.164-.32-.334-.32-.224 0-.3.17-.395.334l-.953 1.627-.953-1.627c-.095-.163-.17-.334-.394-.334-.17 0-.334.143-.334.32 0 .096.034.17.082.245l1.21 2.082-1.21 2.083zm9.803 0c-.048.075-.082.15-.082.245 0 .177.163.32.333.32.224 0 .3-.17.394-.334l.953-1.626.953 1.626c.095.164.17.334.395.334.17 0 .333-.143.333-.32 0-.095-.034-.17-.08-.245l-1.213-2.083 1.212-2.083c.047-.076.08-.15.08-.246 0-.177-.162-.32-.332-.32-.225 0-.3.17-.395.334l-.953 1.627-.953-1.627c-.095-.163-.17-.334-.395-.334-.17 0-.334.143-.334.32 0 .096.034.17.082.245l1.21 2.082-1.21 2.083zm4.9 0c-.047.075-.08.15-.08.245 0 .177.162.32.332.32.225 0 .3-.17.395-.334l.953-1.626.953 1.626c.096.164.17.334.396.334.17 0 .333-.143.333-.32 0-.095-.035-.17-.082-.245l-1.212-2.083 1.212-2.083c.047-.076.08-.15.08-.246 0-.177-.162-.32-.332-.32-.225 0-.3.17-.395.334l-.952 1.627-.953-1.627c-.095-.163-.17-.334-.395-.334-.17 0-.333.143-.333.32 0 .096.034.17.08.245l1.213 2.082-1.212 2.083zm4.9 0c-.046.075-.08.15-.08.245 0 .177.163.32.333.32.226 0 .3-.17.396-.334l.953-1.626.952 1.626c.095.164.17.334.395.334.17 0 .333-.143.333-.32 0-.095-.034-.17-.082-.245l-1.21-2.083 1.21-2.083c.048-.076.082-.15.082-.246 0-.177-.163-.32-.333-.32-.225 0-.3.17-.395.334l-.953 1.627-.954-1.627c-.095-.163-.17-.334-.395-.334-.17 0-.332.143-.332.32 0 .096.034.17.08.245l1.213 2.082-1.21 2.083zm4.902 0c-.048.075-.082.15-.082.245 0 .177.164.32.334.32.225 0 .3-.17.395-.334l.953-1.626.953 1.626c.095.164.17.334.394.334.17 0 .334-.143.334-.32 0-.095-.033-.17-.08-.245l-1.212-2.083 1.21-2.083c.05-.076.083-.15.083-.246 0-.177-.162-.32-.333-.32-.224 0-.3.17-.394.334l-.953 1.627-.953-1.627c-.096-.163-.17-.334-.395-.334-.17 0-.334.143-.334.32 0 .096.034.17.082.245l1.212 2.082-1.212 2.083zm4.9 0c-.047.075-.08.15-.08.245 0 .177.163.32.333.32.224 0 .3-.17.395-.334l.952-1.626.953 1.626c.096.164.17.334.395.334.17 0 .334-.143.334-.32 0-.095-.034-.17-.082-.245l-1.212-2.083 1.212-2.083c.048-.076.082-.15.082-.246 0-.177-.164-.32-.334-.32-.224 0-.3.17-.395.334l-.953 1.627-.952-1.627c-.096-.163-.17-.334-.395-.334-.17 0-.334.143-.334.32 0 .096.033.17.08.245l1.212 2.082-1.21 2.083zm4.902 0c-.048.075-.082.15-.082.245 0 .177.163.32.334.32.224 0 .3-.17.394-.334l.953-1.626.954 1.626c.096.164.17.334.395.334.17 0 .333-.143.333-.32 0-.095-.034-.17-.082-.245l-1.21-2.083 1.21-2.083c.05-.076.083-.15.083-.246 0-.177-.164-.32-.334-.32-.226 0-.3.17-.396.334l-.953 1.627-.952-1.627c-.095-.163-.17-.334-.394-.334-.17 0-.334.143-.334.32 0 .096.034.17.082.245l1.21 2.082-1.21 2.083zm9.8 0c-.046.075-.08.15-.08.245 0 .177.163.32.333.32.225 0 .3-.17.395-.334l.953-1.626.953 1.626c.095.164.17.334.395.334.17 0 .334-.143.334-.32 0-.095-.034-.17-.08-.245l-1.213-2.083 1.213-2.083c.047-.076.08-.15.08-.246 0-.177-.162-.32-.332-.32-.224 0-.3.17-.394.334l-.953 1.627-.953-1.627c-.095-.163-.17-.334-.395-.334-.17 0-.333.143-.333.32 0 .096.034.17.08.245l1.213 2.082-1.212 2.083zm4.902 0c-.047.075-.08.15-.08.245 0 .177.162.32.332.32.225 0 .3-.17.395-.334l.954-1.626.953 1.626c.095.164.17.334.395.334.17 0 .333-.143.333-.32 0-.095-.034-.17-.082-.245l-1.21-2.083 1.21-2.083c.048-.076.082-.15.082-.246 0-.177-.163-.32-.333-.32-.225 0-.3.17-.395.334l-.953 1.627-.953-1.627c-.094-.163-.17-.334-.394-.334-.17 0-.333.143-.333.32 0 .096.034.17.08.245l1.213 2.082-1.212 2.083zm4.9 0c-.047.075-.08.15-.08.245 0 .177.163.32.333.32.225 0 .3-.17.395-.334l.953-1.626.953 1.626c.095.164.17.334.394.334.17 0 .334-.143.334-.32 0-.095-.034-.17-.082-.245l-1.21-2.083 1.21-2.083c.048-.076.082-.15.082-.246 0-.177-.163-.32-.334-.32-.224 0-.3.17-.394.334l-.953 1.627-.953-1.627c-.096-.163-.17-.334-.395-.334-.17 0-.334.143-.334.32 0 .096.034.17.082.245l1.212 2.082-1.212 2.083zm4.902 0c-.048.075-.082.15-.082.245 0 .177.164.32.334.32.224 0 .3-.17.395-.334l.953-1.626.952 1.626c.096.164.17.334.395.334.17 0 .334-.143.334-.32 0-.095-.034-.17-.082-.245l-1.21-2.083 1.21-2.083c.048-.076.082-.15.082-.246 0-.177-.164-.32-.334-.32-.224 0-.3.17-.395.334l-.952 1.627-.953-1.627c-.096-.163-.17-.334-.395-.334-.17 0-.334.143-.334.32 0 .096.034.17.082.245l1.212 2.082-1.212 2.083zm4.9 0c-.047.075-.08.15-.08.245 0 .177.162.32.333.32.223 0 .298-.17.393-.334l.953-1.626.953 1.626c.095.164.17.334.394.334.17 0 .334-.143.334-.32 0-.095-.034-.17-.082-.245l-1.212-2.083 1.212-2.083c.048-.076.082-.15.082-.246 0-.177-.164-.32-.334-.32-.225 0-.3.17-.395.334l-.954 1.627-.953-1.627c-.095-.163-.17-.334-.394-.334-.172 0-.335.143-.335.32 0 .096.034.17.082.245l1.21 2.082-1.21 2.083z" fill="#465560"/></g><g transform="translate(2.16 1.5)"><rect stroke="#0063B0" stroke-width="3" fill="#FFF" width="126.242" height="79" rx="4"/><g fill="#0063B0"><path d="M41.073 42.057c2.27 0 4.013-1.186 4.013-3.644v-.042c0-2.023-1.704-2.908-3.172-3.425-1.135-.413-2.134-.703-2.134-1.322v-.042c0-.433.372-.807 1.096-.807.766 0 1.8.394 2.84 1.034l1.135-2.296c-1.134-.805-2.582-1.28-3.916-1.28-2.112 0-3.836 1.48-3.836 3.51v.043c0 2.146 1.663 3.04 3.134 3.496 1.154.37 2.172.74 2.172 1.42v.044c0 .493-.39.826-1.254.826-.978 0-2.173-.454-3.308-1.322l-1.272 2.065c1.38 1.22 3.035 1.744 4.503 1.744zm23.01-11.166c-1.828-.077-2.842.668-3.47 2.118V30.89H57.53V41.4h3.083v-3.882c0-2.508 1.26-3.706 3.307-3.706h.162v-2.92zm-7.862 5.842c0-3.043-1.633-5.846-5.2-5.846-3.162 0-5.28 2.543-5.28 5.604 0 3.284 2.35 5.567 5.58 5.567 2.87 0 4.17-1.753 4.363-2.003l-1.73-1.54c-.19.185-.992 1.1-2.595 1.1-2.057 0-2.545-1.62-2.606-2.1h7.43c.018-.282.04-.482.04-.782zm-7.204-1.246c.032-.437.523-1.972 2.32-1.972 1.828 0 2.236 1.51 2.265 1.972h-4.584zm21.332 2.39l-2.388-6.99h-3.223l4.09 10.514h2.85l4.195-10.514h-3.116l-2.408 6.99zm16.005-1.144c0-3.043-1.633-5.846-5.198-5.846-3.166 0-5.283 2.543-5.283 5.604 0 3.284 2.35 5.567 5.58 5.567 2.872 0 4.168-1.753 4.364-2.003l-1.736-1.54c-.188.185-.986 1.1-2.59 1.1-2.06 0-2.546-1.62-2.605-2.1h7.43c.02-.284.038-.482.038-.782zm-7.86-1.246c.033-.437.52-1.972 2.324-1.972 1.828 0 2.234 1.51 2.26 1.972h-4.585zM50.91 26.89c0-.592-.522-.69-1.057-.69h-1.626v2.17h.897v-.806h.07l.684.805h1.26l-.917-.855c.44-.075.69-.304.69-.626zm-1.253.286h-.533v-.514h.535c.187 0 .323.09.323.26 0 .168-.14.254-.326.254zm5.044-1.03c.4 0 .698.06.86.12v.534c-.165-.042-.4-.094-.702-.094-.15 0-.853.023-.853.596 0 .572.703.577.853.577.275 0 .537-.05.703-.093v.532c-.162.062-.46.118-.86.118-.468 0-1.69-.125-1.69-1.136 0-1.01 1.222-1.155 1.69-1.155zm-3.178.054h.95v2.17h-.95V26.2zm-6.193 0h2.238v.444H46.32v.406h1.248v.42H46.32v.424h1.248v.475h-2.24V26.2zm-6.95 0l-1.11 2.17h.91l.206-.427h1.145l.207.426h.968L39.59 26.2h-1.21zm.242 1.25l.337-.7.335.7h-.673zm5.703-1.25l.527 2.17h-.9l-.298-1.23-.575 1.23h-.57l-.575-1.23-.297 1.23h-.845l.527-2.17h.963l.513 1.072.51-1.072h1.02zm25.633 1.05l1.006 1.12h-1.07l-.587-.696-.587.695h-1.07l1.01-1.12-.908-1.05h1.086l.47.578.47-.578h1.086l-.906 1.05zm7.86-1.05h2.24v.444h-1.25v.406h1.25v.42h-1.25v.424h1.25v.475h-2.24V26.2zm5.343 1.523c0 .22-.18.715-1.29.715-.91 0-1.197-.183-1.392-.293l.247-.387c.382.15.68.155.897.153.23-.002.445-.045.447-.186 0-.148-.146-.184-.492-.21-.32-.024-.984-.114-.99-.625-.005-.498.48-.74 1.244-.74.412 0 .922.062 1.28.255l-.307.382c-.283-.1-.497-.12-.714-.12-.233 0-.474.042-.474.203 0 .163.25.168.426.19.227.025.52.03.757.135.28.125.36.298.36.528zm3.018 0c0 .22-.18.715-1.287.715-.91 0-1.24-.183-1.437-.293l.292-.387c.38.15.678.155.895.153.23-.002.446-.045.447-.186.004-.148-.142-.184-.49-.21-.322-.024-1.028-.114-1.033-.625-.006-.498.525-.74 1.286-.74.414 0 .923.062 1.283.255l-.31.382c-.28-.1-.498-.12-.714-.12-.235 0-.476.042-.476.203 0 .163.25.168.427.19.23.025.52.03.756.135.283.125.362.298.362.528zM76.118 26.2h-1.626v2.17h.897v-.806h.07l.683.805h1.26l-.916-.855c.44-.075.69-.304.69-.626 0-.592-.524-.69-1.058-.69zm-.195.976h-.534v-.514h.534c.19 0 .325.09.325.26 0 .168-.14.254-.327.254zM61.99 26.2h.896v2.17h-1.032l-1.324-1.226v1.225h-.896V26.2h1.02l1.336 1.23V26.2zm-5.055 0l-1.114 2.17h.915l.204-.427h1.145l.205.426h.968l-1.114-2.17h-1.21zm.24 1.25l.337-.7.337.7h-.675zm7.753-1.25h2.24v.444H65.92v.406h1.25v.42h-1.25v.424h1.25v.475h-2.242V26.2zm8.067 0H71.43v2.17h.897v-.77h.588c.272 0 .504-.022.714-.11.245-.103.423-.28.423-.6 0-.592-.52-.69-1.058-.69zm-.195.935h-.473v-.49h.475c.187 0 .323.068.323.236 0 .17-.14.255-.325.255zM22.392 54.435c-.048.075-.082.15-.082.245 0 .177.164.32.334.32.225 0 .3-.17.395-.334l.952-1.626.953 1.626c.095.164.17.334.394.334.17 0 .333-.143.333-.32 0-.095-.034-.17-.082-.245l-1.21-2.083 1.21-2.083c.05-.076.083-.15.083-.246 0-.177-.163-.32-.334-.32-.225 0-.3.17-.395.334l-.953 1.627-.953-1.627c-.097-.163-.17-.334-.396-.334-.17 0-.334.143-.334.32 0 .096.034.17.082.245l1.212 2.082-1.212 2.083zm4.9 0c-.047.075-.08.15-.08.245 0 .177.163.32.333.32.224 0 .3-.17.395-.334l.953-1.626.952 1.626c.096.164.17.334.395.334.17 0 .334-.143.334-.32 0-.095-.034-.17-.082-.245l-1.21-2.083 1.21-2.083c.048-.076.082-.15.082-.246 0-.177-.164-.32-.334-.32-.224 0-.3.17-.395.334l-.952 1.627-.953-1.627c-.096-.163-.17-.334-.395-.334-.17 0-.334.143-.334.32 0 .096.035.17.083.245l1.212 2.082-1.212 2.083zm4.902 0c-.048.075-.082.15-.082.245 0 .177.163.32.334.32.224 0 .3-.17.394-.334l.953-1.626.953 1.626c.096.164.17.334.395.334.17 0 .335-.143.335-.32 0-.095-.034-.17-.082-.245l-1.212-2.083 1.213-2.083c.048-.076.082-.15.082-.246 0-.177-.164-.32-.334-.32-.224 0-.298.17-.394.334l-.953 1.627-.953-1.627c-.095-.163-.17-.334-.394-.334-.17 0-.334.143-.334.32 0 .096.034.17.082.245l1.21 2.082-1.21 2.083zm4.9 0c-.047.075-.08.15-.08.245 0 .177.162.32.332.32.225 0 .3-.17.395-.334l.954-1.626.953 1.626c.095.164.17.334.395.334.17 0 .333-.143.333-.32 0-.095-.034-.17-.08-.245l-1.213-2.083 1.212-2.083c.047-.076.08-.15.08-.246 0-.177-.162-.32-.332-.32-.225 0-.3.17-.395.334l-.953 1.627-.953-1.627c-.094-.163-.17-.334-.394-.334-.17 0-.333.143-.333.32 0 .096.034.17.082.245l1.21 2.082-1.21 2.083zm9.802 0c-.047.075-.08.15-.08.245 0 .177.162.32.332.32.225 0 .3-.17.395-.334l.953-1.626.953 1.626c.094.164.17.334.394.334.17 0 .333-.143.333-.32 0-.095-.034-.17-.082-.245l-1.21-2.083 1.21-2.083c.048-.076.082-.15.082-.246 0-.177-.163-.32-.333-.32-.225 0-.3.17-.395.334l-.954 1.627-.953-1.627c-.095-.163-.17-.334-.395-.334-.17 0-.333.143-.333.32 0 .096.034.17.08.245l1.213 2.082-1.212 2.083zm4.9 0c-.046.075-.08.15-.08.245 0 .177.163.32.333.32.224 0 .298-.17.394-.334l.953-1.626.953 1.626c.095.164.17.334.394.334.17 0 .334-.143.334-.32 0-.095-.034-.17-.082-.245l-1.21-2.083 1.21-2.083c.048-.076.082-.15.082-.246 0-.177-.163-.32-.334-.32-.224 0-.3.17-.394.334l-.953 1.627-.953-1.627c-.096-.163-.17-.334-.395-.334-.17 0-.335.143-.335.32 0 .096.035.17.082.245l1.212 2.082-1.213 2.083zm4.902 0c-.048.075-.082.15-.082.245 0 .177.164.32.334.32.224 0 .3-.17.395-.334l.953-1.626.953 1.626c.096.164.17.334.395.334.17 0 .334-.143.334-.32 0-.095-.035-.17-.083-.245l-1.21-2.083 1.21-2.083c.048-.076.082-.15.082-.246 0-.177-.165-.32-.335-.32-.224 0-.3.17-.394.334l-.952 1.627-.953-1.627c-.096-.163-.17-.334-.395-.334-.17 0-.334.143-.334.32 0 .096.034.17.082.245l1.212 2.082-1.212 2.083zm4.9 0c-.047.075-.08.15-.08.245 0 .177.163.32.333.32.225 0 .3-.17.395-.334l.953-1.626.953 1.626c.097.164.172.334.396.334.17 0 .334-.143.334-.32 0-.095-.034-.17-.082-.245l-1.212-2.083 1.212-2.083c.048-.076.082-.15.082-.246 0-.177-.164-.32-.334-.32-.224 0-.3.17-.395.334l-.952 1.627-.953-1.627c-.095-.163-.17-.334-.394-.334-.17 0-.333.143-.333.32 0 .096.034.17.082.245l1.21 2.082-1.21 2.083zm4.902 0c-.048.075-.082.15-.082.245 0 .177.163.32.334.32.224 0 .3-.17.394-.334l.953-1.626.952 1.626c.095.164.17.334.395.334.17 0 .334-.143.334-.32 0-.095-.034-.17-.08-.245l-1.213-2.083L69.7 50.27c.046-.076.08-.15.08-.246 0-.177-.163-.32-.333-.32-.225 0-.3.17-.395.334l-.953 1.627-.954-1.627c-.095-.163-.17-.334-.394-.334-.17 0-.334.143-.334.32 0 .096.034.17.082.245l1.21 2.082-1.21 2.083zm4.9 0c-.047.075-.08.15-.08.245 0 .177.162.32.332.32.225 0 .3-.17.395-.334L73 53.04l.953 1.626c.095.164.17.334.395.334.17 0 .333-.143.333-.32 0-.095-.033-.17-.08-.245l-1.212-2.083L74.6 50.27c.047-.076.08-.15.08-.246 0-.177-.162-.32-.332-.32-.225 0-.3.17-.395.334L73 51.665l-.953-1.627c-.095-.163-.17-.334-.395-.334-.17 0-.333.143-.333.32 0 .096.033.17.08.245l1.212 2.082-1.21 2.083zm9.802 0c-.047.075-.08.15-.08.245 0 .177.162.32.332.32.225 0 .3-.17.395-.334l.952-1.626.953 1.626c.095.164.17.334.395.334.17 0 .333-.143.333-.32 0-.095-.034-.17-.082-.245l-1.21-2.083 1.21-2.083c.05-.076.083-.15.083-.246 0-.177-.163-.32-.333-.32-.225 0-.3.17-.395.334l-.953 1.627-.953-1.627c-.096-.163-.17-.334-.396-.334-.17 0-.333.143-.333.32 0 .096.035.17.082.245l1.212 2.082-1.212 2.083zm4.9 0c-.047.075-.08.15-.08.245 0 .177.163.32.333.32.225 0 .3-.17.395-.334l.953-1.626.953 1.626c.095.164.17.334.394.334.17 0 .334-.143.334-.32 0-.095-.034-.17-.082-.245l-1.21-2.083 1.21-2.083c.048-.076.082-.15.082-.246 0-.177-.163-.32-.334-.32-.224 0-.3.17-.394.334l-.953 1.627-.953-1.627c-.096-.163-.17-.334-.395-.334-.17 0-.334.143-.334.32 0 .096.035.17.083.245l1.212 2.082-1.212 2.083zm4.902 0c-.048.075-.082.15-.082.245 0 .177.164.32.334.32.224 0 .3-.17.395-.334l.953-1.626.953 1.626c.096.164.17.334.395.334.17 0 .335-.143.335-.32 0-.095-.034-.17-.082-.245l-1.212-2.083 1.213-2.083c.048-.076.082-.15.082-.246 0-.177-.164-.32-.334-.32-.223 0-.298.17-.394.334l-.953 1.627-.952-1.627c-.095-.163-.17-.334-.394-.334-.17 0-.334.143-.334.32 0 .096.034.17.082.245l1.21 2.082-1.21 2.083zm4.9 0c-.047.075-.08.15-.08.245 0 .177.162.32.333.32.224 0 .3-.17.394-.334l.954-1.626.953 1.626c.096.164.17.334.395.334.17 0 .334-.143.334-.32 0-.095-.034-.17-.082-.245l-1.212-2.083 1.212-2.083c.048-.076.082-.15.082-.246 0-.177-.164-.32-.334-.32-.225 0-.3.17-.395.334l-.953 1.627-.953-1.627c-.094-.163-.17-.334-.393-.334-.17 0-.334.143-.334.32 0 .096.034.17.082.245l1.21 2.082-1.21 2.083zm4.902 0c-.048.075-.082.15-.082.245 0 .177.163.32.333.32.225 0 .3-.17.395-.334l.953-1.626.953 1.626c.095.164.17.334.395.334.17 0 .333-.143.333-.32 0-.095-.034-.17-.08-.245l-1.213-2.083 1.212-2.083c.047-.076.08-.15.08-.246 0-.177-.162-.32-.332-.32-.225 0-.3.17-.395.334l-.953 1.627-.953-1.627c-.095-.163-.17-.334-.395-.334-.17 0-.333.143-.333.32 0 .096.034.17.082.245l1.21 2.082-1.21 2.083zM88.11 29.838c.213 0 .418.053.614.16.197.107.35.26.463.46.113.2.17.408.17.627 0 .217-.056.424-.166.62-.11.197-.263.35-.46.46-.197.11-.404.166-.62.166-.218 0-.425-.054-.622-.164-.197-.11-.35-.264-.46-.46-.11-.197-.166-.404-.166-.62 0-.22.056-.428.17-.628.11-.2.265-.353.462-.46.196-.107.4-.16.615-.16zm0 .244c-.17 0-.335.043-.492.13-.158.084-.282.207-.372.368-.09.16-.136.33-.136.505 0 .174.044.34.132.5.09.158.212.28.37.37.16.09.325.134.5.134.173 0 .34-.046.498-.135.157-.09.28-.212.37-.37.09-.16.133-.326.133-.5 0-.176-.045-.344-.136-.505-.09-.16-.214-.284-.372-.37-.158-.085-.323-.128-.494-.128zm-.564 1.67V30.43h.268c.252 0 .393 0 .424.002.09.008.158.025.207.053.05.027.09.07.124.127.032.057.048.12.048.19 0 .095-.03.177-.093.244-.062.068-.15.11-.263.126.04.016.07.032.093.05.022.018.05.052.09.102.01.013.042.067.097.16l.156.268h-.332l-.11-.215c-.075-.144-.137-.235-.186-.273-.05-.037-.11-.056-.186-.056h-.07v.544h-.268zm.268-.752h.11c.155 0 .25-.006.288-.018.038-.012.067-.033.09-.063.02-.03.032-.064.032-.102 0-.037-.01-.07-.032-.1-.02-.028-.05-.048-.09-.06-.04-.013-.135-.02-.288-.02h-.11V31z"/></g></g></g></svg>