<?xml version="1.0" encoding="UTF-8" standalone="no"?>
<svg width="261px" height="200px" viewBox="0 0 261 200" version="1.1" xmlns="http://www.w3.org/2000/svg" xmlns:xlink="http://www.w3.org/1999/xlink" xmlns:sketch="http://www.bohemiancoding.com/sketch/ns">
    <!-- Generator: Sketch 3.2.2 (9983) - http://www.bohemiancoding.com/sketch -->
    <title>Dashboard Card Art 2</title>
    <desc>Created with Sketch.</desc>
    <defs>
        <rect id="path-1" x="0" y="0" width="224.723663" height="137.945464" rx="4.4"></rect>
        <rect id="path-2" x="0" y="0.0601799008" width="141.59375" height="112.710865"></rect>
        <ellipse id="path-4" cx="76.664882" cy="48.4828995" rx="56.5397106" ry="56.3554326"></ellipse>
        <ellipse id="path-5" cx="80.5359788" cy="50.5787629" rx="51.2257059" ry="50.0053344"></ellipse>
        <rect id="path-6" x="0" y="0" width="167" height="132.765267"></rect>
        <path id="path-8" d="M42.8176288,-5.35168117 C41.0278527,-7.09881873 33.2619757,-7.57773853 33.2619757,-7.57773853 C30.1819441,-7.89527921 30.1732057,-8.58786793 33.2035308,-9.18259015 C33.2035308,-9.18259015 40.6772333,-10.2358857 42.7583562,-12.2674291 C43.9924239,-13.4720971 44.7639617,-20.2064606 44.7639617,-20.2064606 C45.2082718,-23.1907668 46.1406897,-23.2172621 46.8975038,-20.2785886 C46.8975038,-20.2785886 48.2609809,-13.7537816 49.8428809,-12.2095678 C51.5761715,-10.5175702 58.0019208,-9.37155332 58.0019208,-9.37155332 C61.0118211,-8.69839745 60.9412295,-7.89812119 57.8759326,-7.51315805 C57.8759326,-7.51315805 51.5493716,-7.13324046 49.7836075,-5.40954295 C48.234181,-3.89702904 46.7449431,3.96699214 46.7449431,3.96699214 C46.0951874,6.91488886 45.3125105,6.8591136 44.9475307,3.86393262 C44.9475307,3.86393262 44.3430433,-3.8626073 42.8176288,-5.35168117 L42.8176288,-5.35168117 Z"></path>
        <path id="path-9" d="M205.692768,59.6304474 C204.494892,58.459619 201.118633,58.402036 201.118633,58.402036 C198.033192,58.0614898 198.024388,57.3278749 201.047881,56.6694048 C201.047881,56.6694048 204.267882,56.3498593 205.671882,54.9775606 C206.504428,54.1638126 206.719688,51.4090871 206.719688,51.4090871 C207.204054,48.4179054 208.169338,48.3892778 208.960872,51.3270286 C208.960872,51.3270286 209.373507,53.963134 210.432254,54.997975 C211.592324,56.1318519 214.103688,56.4238703 214.103688,56.4238703 C217.120348,57.1242082 217.062885,57.9686121 213.979289,58.4342255 C213.979289,58.4342255 211.565045,58.4089609 210.373798,59.573311 C209.328499,60.5950076 208.74249,64.1389909 208.74249,64.1389909 C208.056874,67.0911198 207.244452,67.0238311 206.848085,64.025407 C206.848085,64.025407 206.713709,60.6283368 205.692768,59.6304474 L205.692768,59.6304474 Z"></path>
        <path id="path-10" d="M67.2619757,26.4222615 C64.1819441,26.1047208 64.1732057,25.4121321 67.2035308,24.8174098 C67.2035308,24.8174098 74.6772333,23.7641143 76.7583562,21.7325709 C77.9924239,20.5279029 78.7639617,13.7935394 78.7639617,13.7935394 C79.2082718,10.8092332 80.1406897,10.7827379 80.8975038,13.7214114 C80.8975038,13.7214114 82.2609809,20.2462184 83.8428809,21.7904322 C85.5761715,23.4824298 92.0019208,24.6284467 92.0019208,24.6284467 C95.0118211,25.3016026 94.9412295,26.1018788 91.8759326,26.486842 C91.8759326,26.486842 85.5493716,26.8667595 83.7836075,28.5904571 C82.234181,30.102971 80.7449431,37.9669921 80.7449431,37.9669921 C80.0951874,40.9148889 79.3125105,40.8591136 78.9475307,37.8639326 C78.9475307,37.8639326 78.3430433,30.1373927 76.8176288,28.6483188 C75.0278527,26.9011813 67.2619757,26.4222615 67.2619757,26.4222615 Z"></path>
        <path id="path-11" d="M147.019166,15.2726282 C145.890538,14.1617178 141.780862,13.8029375 141.780862,13.8029375 C139.552213,13.4848152 139.565231,12.9651196 141.779122,12.5869769 C141.779122,12.5869769 145.606658,12.2288215 146.827738,11.0269106 C147.551816,10.3141994 147.779777,6.87791876 147.779777,6.87791876 C148.033089,4.6802803 148.710759,4.62987257 149.343987,6.78062265 C149.343987,6.78062265 150.143626,10.233452 151.141168,11.2153341 C152.234176,12.291184 155.577477,12.9642184 155.577477,12.9642184 C157.752466,13.5356648 157.695179,14.1248267 155.445528,14.3493329 C155.445528,14.3493329 152.293887,14.3676879 151.257841,15.3874697 C150.34873,16.28231 149.757981,20.3914991 149.757981,20.3914991 C149.351918,22.56507 148.770541,22.5420942 148.417003,20.3556345 C148.417003,20.3556345 147.981088,16.2194497 147.019166,15.2726282 L147.019166,15.2726282 Z"></path>
        <path id="path-12" d="M196.401449,6.08450804 C195.802151,5.49461786 193.619925,5.30410652 193.619925,5.30410652 C192.436519,5.1351845 192.443431,4.85922769 193.619001,4.65843496 C193.619001,4.65843496 195.651412,4.4682555 196.299801,3.83004427 C196.684285,3.45159669 196.805331,1.62694161 196.805331,1.62694161 C196.939839,0.460001931 197.29968,0.433235573 197.635922,1.57527765 C197.635922,1.57527765 198.060529,3.40872008 198.59022,3.93009662 C199.170604,4.50136979 200.945887,4.85874915 200.945887,4.85874915 C202.1008,5.16218553 202.070381,5.47502879 200.875823,5.59424092 C200.875823,5.59424092 199.202311,5.60398739 198.652174,6.14548856 C198.169438,6.6206462 197.855752,8.80261374 197.855752,8.80261374 C197.640134,9.95677361 197.331424,9.9445735 197.143697,8.7835697 C197.143697,8.7835697 196.912227,6.58726756 196.401449,6.08450804 L196.401449,6.08450804 Z"></path>
        <path id="path-13" d="M1.61992479,17.1059518 C0.436518683,16.9370298 0.44343109,16.661073 1.61900108,16.4602803 C1.61900108,16.4602803 3.65141159,16.2701008 4.29980136,15.6318896 C4.68428462,15.253442 4.80533145,13.4287869 4.80533145,13.4287869 C4.93983948,12.2618473 5.29968003,12.2350809 5.63592234,13.377123 C5.63592234,13.377123 6.06052855,15.2105654 6.59022028,15.7319419 C7.17060442,16.3032151 8.94588733,16.6605945 8.94588733,16.6605945 C10.1008001,16.9640309 10.0703813,17.2768741 8.87582286,17.3960862 C8.87582286,17.3960862 7.20231082,17.4058327 6.6521735,17.9473339 C6.16943779,18.4224915 5.85575216,20.6044591 5.85575216,20.6044591 C5.64013383,21.7586189 5.33142419,21.7464188 5.14369654,20.585415 C5.14369654,20.585415 4.91222698,18.3891129 4.40144917,17.8863534 C3.80215111,17.2964632 1.61992479,17.1059518 1.61992479,17.1059518 Z"></path>
        <path id="path-14" d="M208.692768,55.6304474 C207.494892,54.459619 204.118633,54.402036 204.118633,54.402036 C201.033192,54.0614898 201.024388,53.3278749 204.047881,52.6694048 C204.047881,52.6694048 207.267882,52.3498593 208.671882,50.9775606 C209.504428,50.1638126 209.719688,47.4090871 209.719688,47.4090871 C210.204054,44.4179054 211.169338,44.3892778 211.960872,47.3270286 C211.960872,47.3270286 212.373507,49.963134 213.432254,50.997975 C214.592324,52.1318519 217.103688,52.4238703 217.103688,52.4238703 C220.120348,53.1242082 220.062885,53.9686121 216.979289,54.4342255 C216.979289,54.4342255 214.565045,54.4089609 213.373798,55.573311 C212.328499,56.5950076 211.74249,60.1389909 211.74249,60.1389909 C211.056874,63.0911198 210.244452,63.0238311 209.848085,60.025407 C209.848085,60.025407 209.713709,56.6283368 208.692768,55.6304474 L208.692768,55.6304474 Z"></path>
        <path id="path-15" d="M26.7401314,68.4173677 C25.9147449,67.6106177 23.5883605,67.5709407 23.5883605,67.5709407 C21.4623625,67.33629 21.4562963,66.8307986 23.5396094,66.3770851 C23.5396094,66.3770851 25.7583256,66.1569048 26.7257404,65.2113334 C27.2993997,64.6506269 27.4477225,62.7525054 27.4477225,62.7525054 C27.781471,60.6914558 28.4465921,60.6717302 28.9919927,62.6959637 C28.9919927,62.6959637 29.2763154,64.512351 30.0058362,65.2253998 C30.8051734,66.0066885 32.5356083,66.2079015 32.5356083,66.2079015 C34.6142136,66.6904637 34.5746194,67.2722934 32.4498922,67.5931205 C32.4498922,67.5931205 30.7863772,67.5757122 29.9655576,68.3779983 C29.245303,69.0819901 28.8415183,71.5239433 28.8415183,71.5239433 C28.3690999,73.558084 27.8093072,73.5117192 27.5361937,71.4456792 C27.5361937,71.4456792 27.4436028,69.1049553 26.7401314,68.4173677 L26.7401314,68.4173677 Z"></path>
        <path id="path-16" d="M28.8072572,65.6611998 C27.9818707,64.8544499 25.6554864,64.8147728 25.6554864,64.8147728 C23.5294884,64.5801222 23.5234221,64.0746308 25.6067353,63.6209172 C25.6067353,63.6209172 27.8254515,63.4007369 28.7928663,62.4551656 C29.3665256,61.8944591 29.5148484,59.9963376 29.5148484,59.9963376 C29.8485968,57.9352879 30.513718,57.9155623 31.0591186,59.9397959 C31.0591186,59.9397959 31.3434413,61.7561831 32.0729621,62.4692319 C32.8722993,63.2505207 34.6027342,63.4517336 34.6027342,63.4517336 C36.6813395,63.9342959 36.6417453,64.5161255 34.5170181,64.8369527 C34.5170181,64.8369527 32.853503,64.8195443 32.0326835,65.6218304 C31.3124289,66.3258222 30.9086441,68.7677754 30.9086441,68.7677754 C30.4362258,70.8019162 29.8764331,70.7555514 29.6033196,68.6895114 C29.6033196,68.6895114 29.5107287,66.3487875 28.8072572,65.6611998 L28.8072572,65.6611998 Z"></path>
        <path id="path-17" d="M3.85544292,5.74589987 C3.23640305,5.14083743 1.49161476,5.11107962 1.49161476,5.11107962 C-0.10288373,4.93509165 -0.107433405,4.55597308 1.45505148,4.21568792 C1.45505148,4.21568792 3.11908859,4.05055271 3.84464971,3.34137418 C4.27489417,2.92084429 4.38613628,1.49725318 4.38613628,1.49725318 C4.63644762,-0.0485340464 5.13528847,-0.06332826 5.54433892,1.45484692 C5.54433892,1.45484692 5.75758098,2.81713734 6.30472158,3.35192394 C6.90422446,3.93789053 8.20205064,4.08880022 8.20205064,4.08880022 C9.76100461,4.4507219 9.73130896,4.88709415 8.13776354,5.12771453 C8.13776354,5.12771453 6.89012727,5.11465826 6.27451261,5.71637284 C5.73432169,6.24436668 5.4314831,8.07583156 5.4314831,8.07583156 C5.07716934,9.60143712 4.65732483,9.56666353 4.45248969,8.01713353 C4.45248969,8.01713353 4.38304653,6.26159062 3.85544292,5.74589987 L3.85544292,5.74589987 Z"></path>
        <rect id="path-18" x="93.6247718" y="12.045173" width="87.7353926" height="6.02258648" rx="4"></rect>
        <rect id="path-19" x="35.13451" y="12.045173" width="38.6453515" height="6.02258648" rx="4"></rect>
        <rect id="path-20" x="0" y="0" width="131.225654" height="6.02258648" rx="4"></rect>
        <rect id="path-21" x="153.159502" y="0" width="67.8404976" height="6.02258648" rx="4"></rect>
    </defs>
    <g id="Medium-Breakpoint-(Copy-is-not-up-to-date)" stroke="none" stroke-width="1" fill="none" fill-rule="evenodd" sketch:type="MSPage">
        <g id="Dashboard---Medium" sketch:type="MSArtboardGroup" transform="translate(-545.000000, -340.000000)">
            <g id="Dashboard-Card-Art-2" sketch:type="MSLayerGroup" transform="translate(545.000000, 340.000000)">
                <g id="card-2" transform="translate(14.276190, 33.682979)">
                    <g id="Serve-Card">
                        <text id="XXXX-XXXXXX-XXXXX" sketch:type="MSTextLayer" font-family="OCR A Std" font-size="9.3592437" font-weight="normal" fill="#0063B0">
                            <tspan x="32.995141" y="82.9573124">XXXX XXXXXX XXXXX</tspan>
                        </text>
                        <g id="Rectangle-15">
                            <use stroke="none" fill="#FFFFFF" fill-rule="evenodd" sketch:type="MSShapeGroup" xlink:href="#path-1"></use>
                            <use stroke="#0063B0" stroke-width="6" fill="none" xlink:href="#path-1"></use>
                        </g>
                        <g id="Imported-Layers" transform="translate(17.835211, 17.461451)"></g>
                    </g>
                </g>
                <g id="Card-Success">
                    <g id="Group" transform="translate(43.000000, 50.000000)">
                        <g id="Oval-4" transform="translate(0.703125, 5.730278)">
                            <mask id="mask-3" sketch:name="Mask" fill="white">
                                <use xlink:href="#path-2"></use>
                            </mask>
                            <use id="Mask" sketch:type="MSShapeGroup" xlink:href="#path-2"></use>
                            <g>
                                <use fill="#E9EEF3" fill-rule="evenodd" sketch:type="MSShapeGroup" mask="url(#mask-3)" xlink:href="#path-4"></use>
                                <use fill="none" xlink:href="#path-4"></use>
                            </g>
                        </g>
                        <g id="Oval-2">
                            <use stroke="#78C359" stroke-width="9.36" fill="#FFFFFF" fill-rule="evenodd" sketch:type="MSShapeGroup" xlink:href="#path-5"></use>
                            <use stroke="none" fill="none" xlink:href="#path-5"></use>
                        </g>
                        <path d="M69.0100601,74.370477 L50.6133607,56.1469892 L59.2766766,47.5530941 L69.5057977,57.6855689 L98.4671478,32.1732846 L106.618101,41.241625 L69.0100601,74.370477" id="Fill-8" fill="#E9EEF3" sketch:type="MSShapeGroup"></path>
                        <path d="M71.5536604,71.8268767 L53.156961,53.6033889 L61.8202769,45.0094938 L72.049398,55.1419686 L101.010748,29.6296843 L109.161701,38.6980247 L71.5536604,71.8268767" id="Fill-9" fill="#78C359" sketch:type="MSShapeGroup"></path>
                    </g>
                    <g id="Rectangle-204-+-Rectangle-204-+-Rectangle-204">
                        <g id="Mask-+-Rectangle-204" transform="translate(31.000000, 37.000000)">
                            <mask id="mask-7" sketch:name="Mask" fill="white">
                                <use xlink:href="#path-6"></use>
                            </mask>
                            <use id="Mask" sketch:type="MSShapeGroup" xlink:href="#path-6"></use>
                            <g id="Rectangle-208">
                                <use fill="#E9EEF3" fill-rule="evenodd" sketch:type="MSShapeGroup" mask="url(#mask-7)" xlink:href="#path-8"></use>
                                <use fill="none" xlink:href="#path-8"></use>
                            </g>
                        </g>
                        <g id="Rectangle-207">
                            <use fill="#E9EEF3" fill-rule="evenodd" sketch:type="MSShapeGroup" xlink:href="#path-9"></use>
                            <use fill="none" xlink:href="#path-9"></use>
                        </g>
                        <g id="Rectangle-205">
                            <use fill="#78C359" fill-rule="evenodd" sketch:type="MSShapeGroup" xlink:href="#path-10"></use>
                            <use fill="none" xlink:href="#path-10"></use>
                        </g>
                        <g id="Rectangle-204">
                            <use fill="#78C359" fill-rule="evenodd" sketch:type="MSShapeGroup" xlink:href="#path-11"></use>
                            <use fill="none" xlink:href="#path-11"></use>
                        </g>
                        <g id="Rectangle-204">
                            <use fill="#78C359" fill-rule="evenodd" sketch:type="MSShapeGroup" xlink:href="#path-12"></use>
                            <use fill="none" xlink:href="#path-12"></use>
                        </g>
                        <g id="Rectangle-204">
                            <use fill="#78C359" fill-rule="evenodd" sketch:type="MSShapeGroup" xlink:href="#path-13"></use>
                            <use fill="none" xlink:href="#path-13"></use>
                        </g>
                        <g id="Rectangle-204">
                            <use fill="#78C359" fill-rule="evenodd" sketch:type="MSShapeGroup" xlink:href="#path-14"></use>
                            <use fill="none" xlink:href="#path-14"></use>
                        </g>
                        <g id="Rectangle-209">
                            <use fill="#E9EEF3" fill-rule="evenodd" sketch:type="MSShapeGroup" xlink:href="#path-15"></use>
                            <use fill="none" xlink:href="#path-15"></use>
                        </g>
                        <g id="Rectangle-206">
                            <use fill="#78C359" fill-rule="evenodd" sketch:type="MSShapeGroup" xlink:href="#path-16"></use>
                            <use fill="none" xlink:href="#path-16"></use>
                        </g>
                        <g id="Rectangle-209-+-Rectangle-206" transform="translate(251.000000, 83.000000)">
                            <g id="Rectangle-206">
                                <use fill="#78C359" fill-rule="evenodd" sketch:type="MSShapeGroup" xlink:href="#path-17"></use>
                                <use fill="none" xlink:href="#path-17"></use>
                            </g>
                        </g>
                    </g>
                </g>
                <g id="Shadow" transform="translate(16.185053, 181.408511)">
                    <g id="Rectangle-216">
                        <use fill="#E6EBF0" fill-rule="evenodd" sketch:type="MSShapeGroup" xlink:href="#path-18"></use>
                        <use fill="none" xlink:href="#path-18"></use>
                    </g>
                    <g id="Rectangle-217">
                        <use fill="#E6EBF0" fill-rule="evenodd" sketch:type="MSShapeGroup" xlink:href="#path-19"></use>
                        <use fill="none" xlink:href="#path-19"></use>
                    </g>
                    <g id="Rectangle-218">
                        <use fill="#E6EBF0" fill-rule="evenodd" sketch:type="MSShapeGroup" xlink:href="#path-20"></use>
                        <use fill="none" xlink:href="#path-20"></use>
                    </g>
                    <g id="Rectangle-215">
                        <use fill="#E6EBF0" fill-rule="evenodd" sketch:type="MSShapeGroup" xlink:href="#path-21"></use>
                        <use fill="none" xlink:href="#path-21"></use>
                    </g>
                </g>
            </g>
        </g>
    </g>
</svg>