<?xml version="1.0" encoding="UTF-8" standalone="no"?>
<svg viewBox="0 0 42 39" version="1.1" xmlns="http://www.w3.org/2000/svg" xmlns:xlink="http://www.w3.org/1999/xlink" xmlns:sketch="http://www.bohemiancoding.com/sketch/ns">
    <!-- Generator: Sketch 3.2.2 (9983) - http://www.bohemiancoding.com/sketch -->
    <title>r-coin-2</title>
    <desc>Created with Sketch.</desc>
    <defs>
        <rect id="path-1" x="0" y="0" width="15.7428023" height="34.5" rx="4"></rect>
        <ellipse id="path-3" cx="22.0076175" cy="23.1459627" rx="19.0364683" ry="19"></ellipse>
        <ellipse id="path-4" cx="25.2939943" cy="23.1009317" rx="17.7043285" ry="17.4549689"></ellipse>
    </defs>
    <g id="SVG-Assets" stroke="none" stroke-width="1" fill="none" fill-rule="evenodd" sketch:type="MSPage">
        <g id="r-coin-2" sketch:type="MSArtboardGroup">
            <g id="coin" sketch:type="MSLayerGroup" transform="translate(-3.000000, -4.000000)">
                <g id="Oval-41-+-¢" transform="translate(0.163148, 0.500000)">
                    <g id="Coin-Shadow">
                        <mask id="mask-2" sketch:name="Mask" fill="white">
                            <use xlink:href="#path-1"></use>
                        </mask>
                        <use id="Mask" sketch:type="MSShapeGroup" xlink:href="#path-1"></use>
                        <g id="Oval-41">
                            <use fill="#E5E5E5" fill-rule="evenodd" sketch:type="MSShapeGroup" mask="url(#mask-2)" xlink:href="#path-3"></use>
                            <use fill="none" xlink:href="#path-3"></use>
                        </g>
                    </g>
                    <g id="Oval-41">
                        <use stroke="#8CCE54" stroke-width="3" fill="#E0F6CD" fill-rule="evenodd" sketch:type="MSShapeGroup" xlink:href="#path-4"></use>
                        <use stroke="none" fill="none" xlink:href="#path-4"></use>
                    </g>
                    <path d="M23.0307702,28.6240234 C22.2143598,28.1585263 21.5626736,27.4567104 21.075692,26.5185547 C20.5887104,25.580399 20.3452233,24.4775454 20.3452233,23.2099609 C20.3452233,22.2145133 20.4920317,21.3229206 20.785653,20.5351562 C21.0792742,19.7473919 21.4731505,19.1153995 21.9672936,18.6391602 C22.4614367,18.1629208 23.0110731,17.8012708 23.6162194,17.5541992 C24.2213656,17.3071277 24.8569387,17.1835938 25.5229577,17.1835938 C25.8165789,17.1835938 26.0278398,17.1907551 26.1567467,17.2050781 L26.7690514,14.9599609 L27.832528,14.9599609 L27.145028,17.4306641 C28.3696435,17.8675152 29.3077851,18.8414638 29.9594811,20.3525391 L28.7133873,20.921875 C28.2335672,19.733067 27.571139,18.9847021 26.7260827,18.6767578 L24.2661217,27.7646484 C24.6385194,27.9007168 25.0252343,27.96875 25.426278,27.96875 C26.2140423,27.96875 26.8657285,27.7736022 27.3813561,27.3833008 C27.8969837,26.9929994 28.3696352,26.3574263 28.7993248,25.4765625 L29.9809655,26.0029297 C29.4868224,27.0485078 28.8727335,27.8505831 28.1386803,28.4091797 C27.4046272,28.9677762 26.4790179,29.2470703 25.3618248,29.2470703 C24.8891662,29.2470703 24.4200954,29.1718758 23.9545983,29.0214844 L23.191903,31.8359375 L22.1284264,31.8359375 L23.0307702,28.6240234 Z M25.8452233,18.4833984 C25.7736083,18.4690754 25.6518648,18.4619141 25.4799889,18.4619141 C25.1219142,18.4619141 24.7745869,18.5120438 24.4379967,18.6123047 C24.1014065,18.7125656 23.773773,18.8808582 23.4550866,19.1171875 C23.1364001,19.3535168 22.857106,19.6471337 22.6171959,19.9980469 C22.3772859,20.3489601 22.1857188,20.7983371 22.0424889,21.3461914 C21.899259,21.8940457 21.8276452,22.5081346 21.8276452,23.1884766 C21.8276452,24.1409553 21.9690825,24.9680954 22.2519616,25.6699219 C22.5348406,26.3717483 22.9269265,26.9231751 23.4282311,27.3242188 L25.8452233,18.4833984 Z" id="¢" fill="#8CCE54" sketch:type="MSShapeGroup"></path>
                </g>
            </g>
        </g>
    </g>
</svg>