<?xml version="1.0" standalone="no"?> <!DOCTYPE svg PUBLIC "-//W3C//DTD SVG 1.0//EN" "http://www.w3.org/TR/2001/REC-SVG-20010904/DTD/svg10.dtd" > <svg xmlns="http://www.w3.org/2000/svg" width="100%" height="100%">
<defs >
<font id="CorpidC1_3" horiz-adv-x="2140" ><font-face
    font-family="Corpid"
    units-per-em="4096"
    panose-1="2 11 3 3 4 5 2 6 2 4"
    ascent="4010"
    descent="-905"
    alphabetic="0" />
<missing-glyph horiz-adv-x="2253" d="M1843 410V1843H410V410H1843ZM1024 1434V1638H1638V614H1434V1024H1024V1229H1434V1434H1024ZM205 205V2048H2048V205H205ZM614 614V1638H819V819H1229V614H614Z" />
<glyph unicode=" " glyph-name="space" horiz-adv-x="1106" />
<glyph unicode="!" glyph-name="exclam" horiz-adv-x="1475" d="M930 717H709L668 3072H971L930 717ZM1036 176Q1036 129 1020 89T974 20T904 -27T819 -45Q772 -45 733 -28T665 19T619 89T602 176Q602 221 618 260T664 328T733 375T819 393Q864 393 904 376T974
329T1020 260T1036 176Z" />
<glyph unicode="&quot;" glyph-name="quotedbl" horiz-adv-x="1720" d="M1339 1937H1135L1081 3072H1393L1339 1937ZM586 1937H381L328 3072H639L586 1937Z" />
<glyph unicode="#" glyph-name="numbersign" horiz-adv-x="2253" d="M1724 1843L1626 1057H1970V827H1597L1495 0H1249L1352 827H754L651 0H406L508 827H160V1057H537L635 1843H283V2073H664L762 2859H1008L909 2073H1507L1606 2859H1851L1753 2073H2109V1843H1724ZM881
1843L782 1057H1380L1479 1843H881Z" />
<glyph unicode="$" glyph-name="dollar" horiz-adv-x="2253" d="M1966 758Q1966 610 1909 489T1754 274T1529 118T1257 29V-475H1032V4Q846 4 672 39T324 139L389 385Q553 319 716 283T1073 246Q1202 246 1311 281T1501 380T1626 532T1671 725Q1671 842 1633 924T1530
1065T1377 1163T1192 1234T990 1294T787 1360T601 1445T449 1565T345 1738T307 1978Q307 2101 357 2217T501 2425T728 2580T1032 2662V3092H1257V2671Q1391 2664 1523 2638T1769 2564L1704 2331Q1581 2378 1435 2403T1155 2429Q1014 2429 910 2394T738 2301T636
2166T602 2007Q602 1874 660 1791T815 1653T1034 1562T1284 1487T1534 1399T1753 1269T1907 1065T1966 758Z" />
<glyph unicode="%" glyph-name="percent" horiz-adv-x="3453" d="M1442 2146Q1442 1962 1401 1821T1281 1583T1084 1438T815 1389Q649 1389 533 1441T344 1592T238 1829T205 2142Q205 2326 246 2467T366 2705T562 2850T831 2900Q997 2900 1113 2848T1303 2697T1409
2460T1442 2146ZM3248 717Q3248 532 3207 391T3087 153T2890 8T2621 -41Q2455 -41 2339 11T2150 162T2044 399T2011 713Q2011 897 2052 1038T2172 1276T2369 1421T2638 1470Q2804 1470 2920 1418T3109 1267T3215 1030T3248 717ZM1192 2146Q1192 2297 1167 2403T1093
2578T976 2677T819 2708Q722 2708 653 2668T540 2554T476 2376T455 2142Q455 1992 480 1886T554 1712T671 1613T827 1581Q924 1581 993 1621T1106 1734T1171 1912T1192 2146ZM2998 717Q2998 867 2973 973T2899 1147T2782 1246T2626 1278Q2529 1278 2460 1238T2347
1125T2282 947T2261 713Q2261 562 2286 456T2360 281T2477 182T2634 151Q2731 151 2800 191T2913 304T2977 483T2998 717ZM803 -111L623 -4L2650 2974L2830 2863L803 -111Z" />
<glyph unicode="&amp;" glyph-name="ampersand" horiz-adv-x="2941" d="M2662 -45Q2515 59 2372 161T2093 369Q1917 174 1691 67T1180 -41Q967 -41 802 14T524 167T351 397T291 688Q291 819 328 933T433 1148T601 1340T827 1520Q752 1610 691 1703T585 1888T517
2067T492 2232Q492 2378 542 2500T683 2712T901 2851T1180 2900Q1323 2900 1444 2858T1652 2739T1787 2556T1835 2318Q1835 2216 1807 2123T1704 1935T1504 1735T1184 1503Q1341 1321 1565 1117T2040 713Q2144 895 2200 1119T2257 1593H2535Q2529 1288 2453 1028T2241
561Q2374 463 2515 363T2810 160L2662 -45ZM1561 2281Q1561 2359 1539 2433T1468 2563T1345 2653T1163 2687Q1065 2687 992 2652T869 2559T795 2421T770 2253Q770 2138 833 1998T1044 1667Q1184 1759 1282 1836T1441 1984T1532 2128T1561 2281ZM1896 520Q1765 623
1637 729T1391 942T1166 1153T971 1356Q791 1217 693 1064T594 729Q594 473 760 333T1225 193Q1436 193 1599 277T1896 520Z" />
<glyph unicode="&apos;" glyph-name="quotesingle" horiz-adv-x="967" d="M586 1937H381L328 3072H639L586 1937Z" />
<glyph unicode="(" glyph-name="parenleft" horiz-adv-x="1352" d="M856 -778Q600 -322 464 173T328 1184Q328 1706 464 2201T856 3154L1053 3076Q829 2615 720 2140T610 1192Q610 713 719 238T1053 -700L856 -778Z" />
<glyph unicode=")" glyph-name="parenright" horiz-adv-x="1352" d="M1024 1192Q1024 670 888 174T496 -778L299 -700Q522 -240 631 235T741 1184Q741 1663 632 2138T299 3076L496 3154Q752 2697 888 2203T1024 1192Z" />
<glyph unicode="*" glyph-name="asterisk" horiz-adv-x="2253" d="M1733 1798L1229 2154L1274 1524H979L1020 2154L520 1798L369 2052L942 2310L369 2585L520 2839L1020 2482L979 3113H1274L1233 2482L1733 2839L1884 2585L1311 2322L1884 2052L1733 1798Z" />
<glyph unicode="+" glyph-name="plus" horiz-adv-x="2253" d="M1253 1147V266H999V1147H197V1397H999V2281H1253V1397H2056V1147H1253Z" />
<glyph unicode="," glyph-name="comma" horiz-adv-x="1106" d="M557 434Q597 434 635 417T704 366T752 282T770 168Q770 99 746 13T665 -177T516 -400T287 -655L143 -537Q221 -442 272 -367T353 -231T394 -126T406 -45Q406 -5 395 25T369 82T344 139T332 205Q332
251 346 292T388 365T458 415T557 434Z" />
<glyph unicode="-" glyph-name="hyphen" horiz-adv-x="1200" d="M164 999V1204H1200V999H164Z" />
<glyph unicode="." glyph-name="period" horiz-adv-x="1106" d="M786 213Q786 164 768 121T719 45T645 -6T553 -25Q504 -25 461 -7T387 45T338 121T319 213Q319 260 337 303T387 378T461 428T553 446Q602 446 645 428T719 378T768 303T786 213Z" />
<glyph unicode="/" glyph-name="slash" horiz-adv-x="1638" d="M242 -594L0 -524L1397 3244L1638 3174L242 -594Z" />
<glyph unicode="0" glyph-name="zero" horiz-adv-x="2253" d="M2097 1217Q2097 963 2044 735T1874 333T1571 58T1118 -45Q858 -45 675 39T375 283T205 678T152 1212Q152 1364 174 1514T245 1802T369 2056T556 2260T809 2396T1135 2445Q1327 2445 1474 2395T1728
2257T1905 2049T2019 1793T2079 1510T2097 1217ZM1819 1192Q1819 1393 1788 1581T1678 1914T1464 2148T1122 2236Q932 2236 799 2154T583 1932T463 1610T426 1229Q426 684 600 426T1143 168Q1290 168 1397 210T1580 325T1702 498T1774 711T1809 948T1819 1192Z"
/>
<glyph unicode="1" glyph-name="one" horiz-adv-x="2253" d="M430 0V225H1147V2093L479 1720L385 1892L1171 2400H1413V225H1987V0H430Z" />
<glyph unicode="2" glyph-name="two" horiz-adv-x="2253" d="M246 0V213L848 709Q1069 889 1208 1026T1425 1276T1532 1487T1561 1692Q1561 1798 1526 1893T1421 2061T1242 2177T987 2220Q860 2220 701 2194T348 2101L319 2318Q500 2378 664 2411T1004 2445Q1214
2445 1372 2386T1634 2227T1791 1994T1843 1716Q1843 1579 1802 1453T1672 1199T1444 935T1106 643L582 229H2003V0H246Z" />
<glyph unicode="3" glyph-name="three" horiz-adv-x="2253" d="M1913 319Q1913 129 1838 -25T1622 -288T1275 -456T807 -516Q760 -516 689 -513T536 -503T366 -486T201 -459V-254Q270 -262 352 -268T517 -278T683 -285T840 -287Q1032 -287 1179 -246T1427 -128T1579
57T1630 303Q1630 479 1554 594T1357 776T1090 870T803 897H573V1130H766Q956 1130 1104 1172T1355 1290T1511 1472T1565 1708Q1565 1821 1532 1915T1429 2076T1250 2182T991 2220Q926 2220 849 2213T689 2192T520 2155T352 2101L319 2318Q475 2374 640 2409T1008
2445Q1212 2445 1368 2393T1628 2248T1786 2023T1839 1737Q1839 1610 1793 1497T1666 1292T1473 1136T1229 1044V1036Q1389 1030 1515 973T1730 820T1866 597T1913 319Z" />
<glyph unicode="4" glyph-name="four" horiz-adv-x="2253" d="M1679 233V-475H1413V233H111V459L1282 2400H1679V463H2105V233H1679ZM1413 2163H1405L381 463H1413V2163Z" />
<glyph unicode="5" glyph-name="five" horiz-adv-x="2253" d="M1974 455Q1974 223 1897 43T1674 -261T1319 -450T848 -516Q803 -516 730 -513T572 -503T397 -486T229 -459V-254Q340 -266 492 -276T856 -287Q1049 -287 1204 -244T1467 -113T1633 109T1692 426Q1692
735 1494 885T889 1036Q737 1036 616 1025T373 1004L401 2400H1757V2167H655L635 1253Q702 1264 784 1267T983 1270Q1231 1270 1417 1207T1727 1033T1912 774T1974 455Z" />
<glyph unicode="6" glyph-name="six" horiz-adv-x="2253" d="M2056 913Q2056 807 2032 695T1957 476T1830 275T1650 111T1415 0T1126 -41Q879 -41 711 61T441 345T294 777T250 1327Q250 1518 270 1708T342 2072T478 2396T691 2656T994 2829T1401 2892Q1470 2892
1547 2885T1695 2865T1829 2837T1937 2802L1884 2597Q1774 2638 1644 2658T1368 2679Q1145 2679 988 2586T730 2334T580 1966T524 1528H528Q674 1626 852 1689T1229 1753Q1391 1753 1515 1716T1732 1617T1887 1472T1986 1296T2039 1104T2056 913ZM1778 889Q1778
1018 1747 1131T1646 1331T1463 1466T1188 1516Q1110 1516 1022 1502T847 1461T678 1397T528 1315Q528 1006 570 790T693 438T893 242T1163 180Q1319 180 1434 247T1627 419T1741 649T1778 889Z" />
<glyph unicode="7" glyph-name="seven" horiz-adv-x="2253" d="M1208 197Q1130 14 1030 -168T803 -520L635 -422Q721 -283 826 -66T1049 438L1765 2167H242V2400H2028V2146L1208 197Z" />
<glyph unicode="8" glyph-name="eight" horiz-adv-x="2253" d="M2060 717Q2060 541 1994 401T1803 161T1502 8T1106 -45Q893 -45 723 -1T433 130T249 348T184 655Q184 797 234 912T374 1125T588 1306T864 1466Q584 1608 440 1786T295 2200Q295 2337 347 2464T505
2689T772 2845T1147 2904Q1346 2904 1495 2850T1746 2707T1898 2502T1950 2261Q1950 2138 1907 2031T1784 1829T1593 1652T1343 1495Q1501 1419 1633 1340T1860 1168T2008 965T2060 717ZM1675 2224Q1675 2331 1636 2418T1525 2566T1350 2661T1122 2695Q981 2695
877 2657T705 2555T603 2403T569 2220Q569 2130 601 2049T700 1894T873 1747T1126 1602Q1233 1657 1331 1722T1506 1865T1629 2032T1675 2224ZM1782 676Q1782 788 1737 878T1603 1047T1382 1200T1081 1356Q956 1290 845 1221T648 1071T513 898T463 692Q463 422
639 295T1151 168Q1298 168 1415 207T1614 314T1739 475T1782 676Z" />
<glyph unicode="9" glyph-name="nine" horiz-adv-x="2253" d="M1991 1069Q1991 739 1931 451T1733 -53T1375 -392T836 -516Q694 -516 537 -502T233 -459L250 -246Q420 -270 570 -282T868 -295Q1083 -295 1234 -215T1485 15T1639 382T1716 868H1708Q1567 770 1387
707T1012 643Q780 643 623 717T368 910T227 1183T184 1499Q184 1673 239 1842T408 2145T695 2362T1102 2445Q1354 2445 1524 2342T1798 2055T1947 1619T1991 1069ZM1712 1081Q1712 1389 1670 1606T1547 1960T1348 2160T1077 2224Q911 2224 795 2158T604 1990T497
1770T463 1544Q463 1407 492 1286T590 1075T772 933T1049 881Q1126 881 1214 895T1390 936T1559 999T1712 1081Z" />
<glyph unicode=":" glyph-name="colon" horiz-adv-x="1188" d="M868 1782Q868 1733 850 1690T801 1614T727 1563T635 1544Q586 1544 543 1562T469 1614T420 1690T401 1782Q401 1829 419 1872T469 1946T543 1996T635 2015Q684 2015 727 1997T800 1947T849 1872T868
1782ZM868 213Q868 164 850 121T801 45T727 -6T635 -25Q586 -25 543 -7T469 45T420 121T401 213Q401 260 419 303T469 378T543 428T635 446Q684 446 727 428T800 378T849 303T868 213Z" />
<glyph unicode=";" glyph-name="semicolon" horiz-adv-x="1188" d="M868 1782Q868 1733 850 1690T801 1614T727 1563T635 1544Q586 1544 543 1563T469 1614T419 1689T401 1782Q401 1830 419 1872T468 1946T543 1996T635 2015Q684 2015 726 1997T800 1946T850 1872T868
1782ZM639 434Q679 434 717 417T785 366T833 282T852 168Q852 99 828 13T747 -177T598 -400T369 -655L225 -537Q303 -442 354 -367T434 -231T475 -126T487 -45Q487 -5 476 25T451 82T426 139T414 205Q414 251 428 292T469 365T539 415T639 434Z" />
<glyph unicode="&lt;" glyph-name="less" horiz-adv-x="2253" d="M172 1151V1393L2015 2327V2044L455 1266L2015 496V217L172 1151Z" />
<glyph unicode="=" glyph-name="equal" horiz-adv-x="2253" d="M238 1569V1819H2015V1569H238ZM238 729V979H2015V729H238Z" />
<glyph unicode="&gt;" glyph-name="greater" horiz-adv-x="2253" d="M238 217V496L1798 1266L238 2044V2327L2081 1393V1151L238 217Z" />
<glyph unicode="?" glyph-name="question" horiz-adv-x="1884" d="M1626 2363Q1626 2245 1594 2143T1507 1946T1386 1762T1250 1583T1117 1399T1008 1201T941 976T934 717H696Q674 915 713 1076T822 1372T981 1624T1147 1854T1278 2084T1331 2335Q1331 2460 1303
2558T1209 2723T1037 2827T774 2863Q635 2863 516 2855T299 2834V3056Q358 3068 423 3077T553 3092T675 3102T778 3105Q1012 3105 1173 3050T1435 2896T1581 2662T1626 2363ZM1024 176Q1024 129 1008 89T962 20T892 -27T807 -45Q760 -45 721 -28T653 19T607 89T590
176Q590 221 606 260T652 328T721 375T807 393Q852 393 892 376T961 329T1007 260T1024 176Z" />
<glyph unicode="@" glyph-name="at" horiz-adv-x="3580" d="M3117 -266Q2997 -326 2879 -369T2633 -441T2368 -483T2065 -496Q1702 -496 1393 -375T862 -33T519 490T397 1147Q397 1419 457 1654T628 2083T896 2426T1246 2678T1665 2834T2138 2888Q2345 2888 2515
2836T2806 2688T2993 2459T3060 2159V700H2884L2847 938Q2793 891 2727 842T2576 751T2390 682T2163 655Q1819 655 1641 811T1462 1253Q1462 1413 1532 1531T1723 1726T2011 1842T2372 1880H2798V2085Q2798 2217 2758 2320T2632 2498T2408 2616T2073 2658Q1788
2658 1536 2562T1090 2278T786 1810T676 1180Q676 877 769 617T1040 162T1491 -147T2119 -262Q2371 -262 2599 -218T3052 -57L3117 -266V-266ZM2798 1667H2380Q2064 1667 1909 1562T1753 1274Q1753 1092 1862 987T2179 881Q2273 881 2354 898T2510 949T2655 1029T2798
1135V1667Z" />
<glyph unicode="A" glyph-name="A" horiz-adv-x="2650" d="M2216 0Q2157 198 2096 402T1966 807H676Q608 606 545 402T422 0H131Q377 777 643 1494T1192 2859H1450Q1766 2143 2030 1426T2519 0H2216ZM1892 1032Q1790 1326 1674 1633T1434 2249Q1403 2329 1373
2412T1315 2572H1311Q1283 2495 1252 2409T1192 2249Q1074 1949 965 1642T750 1032H1892Z" />
<glyph unicode="B" glyph-name="B" horiz-adv-x="2343" d="M2126 819Q2126 625 2061 472T1876 215T1592 56T1229 0H418V2859H1122Q1331 2859 1484 2810T1739 2669T1891 2446T1942 2154Q1942 1937 1841 1778T1569 1528Q1681 1505 1782 1444T1961 1290T2082 1077T2126
819ZM1655 2122Q1655 2234 1624 2325T1526 2481T1350 2581T1085 2617H688V1593H1163Q1300 1593 1393 1633T1545 1744T1629 1911T1655 2122ZM1839 778Q1839 1063 1664 1209T1151 1356H688V242H1257Q1372 242 1477 275T1663 376T1791 544T1839 778Z" />
<glyph unicode="C" glyph-name="C" horiz-adv-x="2429" d="M2310 139Q2128 59 1939 15T1548 -29Q1255 -29 1017 65T607 341T343 788T250 1397Q250 1737 343 2012T606 2482T1015 2782T1548 2888Q1649 2888 1741 2881T1922 2856T2102 2808T2294 2732L2195 2511Q2114
2546 2036 2571T1877 2613T1709 2638T1524 2646Q1300 2646 1120 2558T812 2309T615 1923T545 1425Q545 1133 617 908T825 529T1154 296T1589 217Q1765 217 1928 258T2232 360L2310 139V139Z" />
<glyph unicode="D" glyph-name="D" horiz-adv-x="2847" d="M2605 1470Q2605 1110 2514 836T2245 376T1806 95T1208 0H418V2859H1257Q1587 2859 1839 2760T2261 2478T2518 2040T2605 1470ZM2310 1458Q2310 1708 2248 1921T2054 2288T1722 2530T1241 2617H688V242H1233Q1503
242 1705 313T2042 534T2243 913T2310 1458Z" />
<glyph unicode="E" glyph-name="E" horiz-adv-x="2228" d="M418 0V2859H1909V2617H688V1610H1761V1368H688V242H1929V0H418Z" />
<glyph unicode="F" glyph-name="F" horiz-adv-x="2060" d="M688 2617V1544H1753V1303H688V0H418V2859H1872V2617H688Z" />
<glyph unicode="G" glyph-name="G" horiz-adv-x="2785" d="M2347 2425Q2263 2476 2170 2516T1979 2583T1780 2626T1581 2642Q1319 2642 1124 2549T796 2293T598 1908T532 1425Q532 1135 608 910T823 530T1160 294T1602 213Q1872 213 2142 287V1470H2413V111Q2224
39 2013 1T1589 -37Q1257 -37 1006 68T584 364T328 819T242 1401Q242 1735 336 2009T607 2479T1036 2781T1606 2888Q1835 2888 2056 2826T2458 2654L2347 2425Z" />
<glyph unicode="H" glyph-name="H" horiz-adv-x="2802" d="M2114 0V1376H688V0H418V2859H688V1618H2114V2859H2384V0H2114Z" />
<glyph unicode="I" glyph-name="I" horiz-adv-x="1106" d="M418 0V2859H688V0H418Z" />
<glyph unicode="J" glyph-name="J" horiz-adv-x="1339" d="M922 831Q922 717 918 607T896 400T844 222T747 83T590 -8T360 -41Q293 -41 220 -35T98 -16V184H254Q379 184 457 213T578 308T636 484T651 758V2859H922V831V831Z" />
<glyph unicode="K" glyph-name="K" horiz-adv-x="2429" d="M1929 0L856 1479L688 1315V0H418V2859H688V1610L1917 2859H2314L1053 1647L2314 0H1929Z" />
<glyph unicode="L" glyph-name="L" horiz-adv-x="1896" d="M418 0V2859H688V242H1835V0H418Z" />
<glyph unicode="M" glyph-name="M" horiz-adv-x="3707" d="M3047 0Q3035 657 2991 1281T2859 2519H2855L1966 0H1712L831 2519H823Q752 1911 709 1283T655 0H385Q395 711 453 1423T627 2859H1016L1855 434H1868L2707 2859H3092Q3148 2492 3189 2139T3258 1433T3304
724T3330 0H3047Z" />
<glyph unicode="N" glyph-name="N" horiz-adv-x="2871" d="M2101 0L688 2527H680V0H418V2859H811L2183 410H2191V2859H2454V0H2101Z" />
<glyph unicode="O" glyph-name="O" horiz-adv-x="3150" d="M2896 1458Q2896 1126 2811 851T2557 377T2137 69T1556 -41Q1223 -41 978 67T573 368T333 825T254 1401Q254 1729 340 2004T595 2479T1014 2789T1589 2900Q1915 2900 2159 2790T2568 2486T2814 2028T2896
1458ZM2601 1401Q2601 1663 2546 1892T2366 2292T2038 2560T1540 2658Q1272 2658 1084 2561T776 2299T603 1917T549 1458Q549 1192 603 963T781 564T1107 298T1606 201Q1790 201 1935 246T2191 372T2380 564T2507 809T2578 1092T2601 1401Z" />
<glyph unicode="P" glyph-name="P" horiz-adv-x="2298" d="M2068 2028Q2068 1827 2004 1663T1820 1383T1528 1203T1139 1139H688V0H418V2859H1130Q1217 2859 1300 2852T1462 2826Q1604 2791 1716 2721T1907 2547T2026 2312T2068 2028ZM1774 2003Q1774 2232 1665
2388T1352 2593Q1290 2609 1223 2613T1102 2617H688V1376H1163Q1309 1376 1422 1421T1614 1549T1733 1748T1774 2003Z" />
<glyph unicode="Q" glyph-name="Q" horiz-adv-x="3150" d="M2908 -262L2400 225Q2243 98 2031 29T1556 -41Q1223 -41 978 67T573 368T333 825T254 1401Q254 1729 340 2004T595 2479T1014 2789T1589 2900Q1915 2900 2159 2790T2568 2486T2814 2028T2896 1458Q2896
1137 2816 871T2576 406L3076 -70L2908 -262ZM2601 1401Q2601 1663 2546 1892T2366 2292T2038 2560T1540 2658Q1272 2658 1084 2561T776 2299T603 1917T549 1458Q549 1192 603 963T781 564T1107 298T1606 201Q1800 201 1953 252T2224 393L1655 934L1823 1126L2392
582Q2443 651 2482 743T2547 942T2587 1164T2601 1401Z" />
<glyph unicode="R" glyph-name="R" horiz-adv-x="2367" d="M1823 0L1065 1331H688V0H418V2859H1081Q1313 2859 1484 2804T1766 2650T1932 2417T1987 2122Q1987 1964 1936 1839T1798 1620T1598 1463T1356 1364L2163 0H1823ZM1692 2093Q1692 2193 1660 2287T1554
2455T1356 2573T1053 2617H688V1565H1057Q1223 1565 1342 1606T1540 1718T1655 1886T1692 2093Z" />
<glyph unicode="S" glyph-name="S" horiz-adv-x="1991" d="M1790 774Q1790 584 1721 433T1525 177T1220 16T823 -41Q682 -41 526 -21T221 41L270 299Q418 256 568 231T893 205Q1028 205 1138 242T1327 348T1448 519T1491 750Q1491 874 1440 966T1306 1129T1115
1257T893 1372Q754 1442 636 1515T432 1681T298 1890T250 2163Q250 2327 311 2463T485 2696T756 2846T1110 2900Q1167 2900 1236 2895T1372 2881T1501 2857T1610 2826L1556 2593Q1452 2623 1330 2640T1081 2658Q940 2658 838 2622T670 2522T573 2373T541 2191Q541
2064 589 1974T717 1814T901 1687T1118 1573Q1266 1499 1388 1424T1600 1256T1740 1047T1790 774Z" />
<glyph unicode="T" glyph-name="T" horiz-adv-x="2187" d="M1229 2630V0H958V2630H53V2859H2134V2630H1229Z" />
<glyph unicode="U" glyph-name="U" horiz-adv-x="2867" d="M2458 1069Q2458 801 2385 595T2178 249T1855 36T1430 -37Q1204 -37 1017 31T694 233T485 564T410 1020V2859H680V1049Q680 842 732 682T882 415T1121 252T1438 197Q1616 197 1757 250T1996 410T2147
677T2200 1049V2859H2458V1069V1069Z" />
<glyph unicode="V" glyph-name="V" horiz-adv-x="2568" d="M2478 2859Q2250 2142 1988 1429T1413 0H1155Q834 736 575 1439T90 2859H393Q678 1884 925 1250T1290 287H1295Q1413 611 1659 1268T2187 2859H2478V2859Z" />
<glyph unicode="W" glyph-name="W" horiz-adv-x="4108" d="M3961 2859Q3770 2143 3547 1429T3056 0H2732L2138 2159L2048 2552H2040L1954 2163L1368 0H1053Q782 715 558 1430T147 2859H446Q514 2576 590 2292T748 1724T919 1162T1102 610Q1114 573 1127 531T1154
446T1179 362T1200 287H1208L1311 713L1880 2859H2224L2814 717L2916 287H2925Q2935 324 2947 366T2972 452T2998 538T3023 618Q3114 890 3202 1167T3372 1726T3530 2291T3670 2859H3961Z" />
<glyph unicode="X" glyph-name="X" horiz-adv-x="2470" d="M2064 0L1225 1274L393 0H66L1085 1479L156 2859H492L1249 1704L1999 2859H2318L1389 1499L2404 0H2064Z" />
<glyph unicode="Y" glyph-name="Y" horiz-adv-x="2359" d="M2314 2859Q2212 2662 2102 2464T1869 2063T1611 1654T1319 1237V0H1049V1237Q763 1632 515 2038T45 2859H352Q439 2683 538 2501T744 2137T965 1782T1200 1446Q1311 1608 1422 1787T1639 2149T1839 2514T2011
2859H2314V2859Z" />
<glyph unicode="Z" glyph-name="Z" horiz-adv-x="2097" d="M139 0V242L1663 2630H184V2859H1937V2597L410 233H1958V0H139Z" />
<glyph unicode="[" glyph-name="bracketleft" horiz-adv-x="1343" d="M463 -688V3072H1130V2871H713V-487H1130V-688H463Z" />
<glyph unicode="\" glyph-name="backslash" horiz-adv-x="1638" d="M1397 -594L0 3174L242 3244L1638 -524L1397 -594Z" />
<glyph unicode="]" glyph-name="bracketright" horiz-adv-x="1343" d="M217 -688V-487H631V2871H217V3072H881V-688H217Z" />
<glyph unicode="^" glyph-name="asciicircum" horiz-adv-x="2253" d="M1741 1442L1135 2650L590 1442H303L979 2859H1323L2040 1442H1741Z" />
<glyph unicode="_" glyph-name="underscore" horiz-adv-x="2253" d="M0 -905V-700H2253V-905H0Z" />
<glyph unicode="`" glyph-name="grave" horiz-adv-x="1024" d="M467 2408L0 2912L213 3080L639 2564L467 2408Z" />
<glyph unicode="a" glyph-name="a" horiz-adv-x="2171" d="M1606 0L1577 221Q1493 150 1413 99T1252 16T1085 -30T901 -45Q567 -45 390 110T213 553Q213 713 281 830T471 1026T757 1142T1114 1180H1548V1335Q1548 1477 1521 1581T1431 1755T1267 1858T1016 1892Q868
1892 713 1861T418 1774L360 1995Q502 2048 687 2083T1073 2118Q1288 2118 1430 2059T1657 1902T1775 1680T1810 1430V0H1606ZM1548 967H1122Q811 967 658 863T504 565Q504 383 609 278T926 172Q1020 172 1103 191T1260 245T1406 327T1548 434V967Z" />
<glyph unicode="b" glyph-name="b" horiz-adv-x="2413" d="M2183 1106Q2183 881 2123 677T1936 317T1613 71T1151 -20Q956 -20 753 8T369 90V3072H631V1757Q702 1835 781 1901T952 2016T1154 2091T1397 2118Q1602 2118 1751 2037T1996 1818T2137 1495T2183 1106ZM1901
1094Q1901 1237 1874 1380T1784 1639T1616 1828T1356 1901Q1257 1901 1167 1875T989 1797T813 1664T631 1470V279Q748 236 885 210T1176 184Q1358 184 1494 246T1720 426T1855 712T1901 1094Z" />
<glyph unicode="c" glyph-name="c" horiz-adv-x="1901" d="M1737 74Q1573 8 1429 -12T1167 -33Q915 -33 736 41T443 250T275 576T221 1004Q221 1264 293 1468T494 1813T802 2027T1196 2101Q1341 2101 1473 2076T1733 1991L1663 1794Q1552 1837 1438 1862T1200
1888Q1018 1888 887 1824T672 1646T548 1373T508 1028Q508 602 681 395T1204 188Q1337 188 1454 209T1688 279L1737 74V74Z" />
<glyph unicode="d" glyph-name="d" horiz-adv-x="2413" d="M1839 0L1810 344Q1726 252 1641 179T1461 57T1257 -18T1016 -45Q809 -45 661 36T417 255T276 576T229 967Q229 1190 288 1394T474 1754T795 2001T1262 2093Q1395 2093 1521 2081T1782 2040V3072H2044V0H1839ZM1782
1794Q1665 1837 1527 1862T1237 1888Q1055 1888 919 1826T692 1646T557 1359T512 979Q512 836 538 693T628 433T796 245T1057 172Q1155 172 1245 197T1423 275T1599 408T1782 602V1794Z" />
<glyph unicode="e" glyph-name="e" horiz-adv-x="2224" d="M1987 1208Q1987 1180 1985 1124T1982 1020H512Q512 825 547 670T666 405T889 236T1237 176Q1337 176 1424 183T1589 203T1739 234T1888 274L1929 66Q1776 16 1589 -14T1184 -45Q694 -45 462 227T229
1032Q229 1274 291 1474T475 1817T772 2039T1176 2118Q1380 2118 1533 2045T1787 1847T1937 1558T1987 1208ZM1716 1233Q1722 1384 1687 1508T1577 1719T1397 1853T1155 1901Q993 1901 874 1839T674 1679T554 1464T512 1233H1716V1233Z" />
<glyph unicode="f" glyph-name="f" horiz-adv-x="1360" d="M1143 2892Q989 2892 904 2845T778 2718T729 2533T721 2310V2073H1257V1868H721V0H459V1868H115V2073H459V2302Q459 2484 485 2633T584 2889T783 3054T1110 3113Q1188 3113 1240 3109T1348 3092V2892H1143Z" />
<glyph unicode="g" glyph-name="g" horiz-adv-x="2413" d="M2044 33Q2044 -211 1995 -387T1832 -679T1532 -850T1069 -905Q1016 -905 952 -903T813 -895T661 -880T504 -856L512 -659Q641 -666 784 -669T1057 -672Q1251 -672 1389 -640T1615 -529T1742 -313T1782
33V340Q1690 244 1602 177T1422 65T1232 0T1020 -20Q813 -20 664 59T418 275T276 593T229 979Q229 1200 289 1402T476 1757T797 2002T1262 2093Q1456 2093 1660 2065T2044 1982V33V33ZM1782 1794Q1665 1837 1528 1862T1237 1888Q1055 1888 920 1826T693 1647T557
1364T512 991Q512 850 538 708T627 452T794 268T1057 197Q1157 197 1247 222T1425 300T1600 433T1782 627V1794Z" />
<glyph unicode="h" glyph-name="h" horiz-adv-x="2429" d="M1806 0V1241Q1806 1382 1783 1502T1704 1708T1559 1843T1335 1892Q1227 1892 1138 1867T967 1790T804 1664T631 1491V0H369V3072H631V1753Q717 1843 800 1911T970 2026T1153 2095T1364 2118Q1565 2118
1700 2049T1917 1867T2033 1603T2068 1290V0H1806Z" />
<glyph unicode="i" glyph-name="i" horiz-adv-x="1098" d="M778 2753Q778 2710 762 2672T718 2606T653 2563T573 2548Q530 2548 493 2563T427 2606T384 2672T369 2753Q369 2796 384 2832T427 2897T492 2941T573 2957Q616 2957 653 2941T717 2897T761 2833T778
2753ZM467 0V1868H86V2073H729V0H467Z" />
<glyph unicode="j" glyph-name="j" horiz-adv-x="1069" d="M770 2753Q770 2710 754 2672T710 2606T645 2563T565 2548Q522 2548 484 2563T419 2606T376 2672T360 2753Q360 2796 375 2832T418 2897T484 2941T565 2957Q608 2957 645 2941T709 2897T753 2833T770
2753ZM700 -86Q700 -352 653 -513T530 -761T354 -876T147 -905Q80 -905 19 -897T-90 -872L-82 -668H119Q285 -668 361 -545T438 -147V2073H700V-86V-86Z" />
<glyph unicode="k" glyph-name="k" horiz-adv-x="2130" d="M1675 0L803 1118L631 971V0H369V3072H631V1229Q889 1461 1115 1672T1536 2073H1901L991 1282L2028 0H1675Z" />
<glyph unicode="l" glyph-name="l" horiz-adv-x="1098" d="M987 0Q950 -10 895 -15T791 -20Q700 -20 623 0T489 67T401 191T369 381V3072H631V442Q631 334 669 270T811 205H987V0V0Z" />
<glyph unicode="m" glyph-name="m" horiz-adv-x="3604" d="M2982 0V1237Q2982 1380 2969 1500T2912 1707T2790 1843T2576 1892Q2468 1892 2385 1867T2231 1790T2089 1664T1937 1491V0H1675V1241Q1675 1382 1662 1502T1606 1708T1483 1843T1270 1892Q1161 1892
1078 1867T924 1790T783 1664T631 1491V0H369V2073H573L618 1737Q694 1831 768 1902T921 2022T1092 2094T1298 2118Q1540 2118 1683 2015T1892 1692Q1976 1804 2056 1884T2220 2016T2397 2093T2605 2118Q2806 2118 2931 2049T3125 1867T3219 1603T3244 1290V0H2982Z"
/>
<glyph unicode="n" glyph-name="n" horiz-adv-x="2429" d="M1806 0V1241Q1806 1382 1782 1502T1702 1708T1557 1843T1335 1892Q1227 1892 1138 1867T967 1790T804 1664T631 1491V0H369V2073H573L618 1741Q711 1839 796 1909T970 2026T1154 2095T1364 2118Q1565
2118 1700 2049T1917 1867T2033 1603T2068 1290V0H1806Z" />
<glyph unicode="o" glyph-name="o" horiz-adv-x="2474" d="M2253 1057Q2253 899 2222 756T2131 491T1983 269T1779 101T1523 -7T1217 -45Q985 -45 801 31T487 247T290 582T221 1016Q221 1174 252 1317T343 1582T491 1804T695 1972T951 2080T1257 2118Q1489 2118
1673 2042T1987 1826T2184 1491T2253 1057ZM1966 1012Q1966 1125 1949 1235T1894 1443T1797 1624T1657 1767T1469 1862T1229 1896Q1051 1896 916 1833T691 1658T554 1394T508 1061Q508 947 525 838T580 630T677 450T817 307T1005 214T1245 180Q1423 180 1558 243T1783
417T1920 681T1966 1012Z" />
<glyph unicode="p" glyph-name="p" horiz-adv-x="2413" d="M2183 1106Q2183 881 2123 677T1936 319T1616 72T1151 -20Q1012 -20 885 -6T631 33V-860H369V2073H573L602 1729Q684 1819 769 1891T949 2014T1154 2091T1397 2118Q1602 2118 1751 2037T1996 1818T2137
1495T2183 1106ZM1901 1094Q1901 1237 1874 1380T1784 1639T1616 1828T1356 1901Q1257 1901 1167 1875T989 1797T813 1664T631 1470V279Q748 236 882 210T1176 184Q1358 184 1494 246T1720 427T1855 713T1901 1094Z" />
<glyph unicode="q" glyph-name="q" horiz-adv-x="2413" d="M1782 -860V311Q1690 217 1602 150T1421 39T1230 -24T1016 -45Q809 -45 661 36T417 255T276 576T229 967Q229 1190 288 1394T474 1754T795 2001T1262 2093Q1456 2093 1660 2065T2044 1982V-860H1782ZM1782
1794Q1665 1837 1528 1862T1237 1888Q1055 1888 919 1826T692 1646T557 1359T512 979Q512 836 538 693T628 433T796 245T1057 172Q1155 172 1245 197T1423 275T1599 408T1782 602V1794Z" />
<glyph unicode="r" glyph-name="r" horiz-adv-x="1561" d="M1425 1835Q1405 1841 1377 1847T1316 1859T1254 1869T1200 1872Q1141 1872 1086 1845T965 1759T818 1608T631 1384V0H369V2073H573L606 1655Q696 1774 771 1861T914 2005T1049 2090T1192 2118Q1270 2118
1332 2110T1479 2077L1425 1835Z" />
<glyph unicode="s" glyph-name="s" horiz-adv-x="1749" d="M1544 578Q1544 432 1488 317T1331 121T1085 -2T766 -45Q637 -45 499 -23T233 41L279 279Q406 236 546 210T815 184Q911 184 994 205T1138 273T1235 388T1270 553Q1270 627 1241 681T1155 779T1013 862T815
942Q690 987 589 1037T416 1153T305 1306T266 1511Q266 1649 314 1761T454 1953T679 2075T979 2118Q1081 2118 1198 2098T1417 2040L1376 1823Q1272 1860 1164 1878T946 1896Q838 1896 761 1865T635 1782T564 1668T541 1540Q541 1464 568 1409T653 1309T798 1225T1004
1143Q1120 1102 1219 1054T1390 942T1503 789T1544 578Z" />
<glyph unicode="t" glyph-name="t" horiz-adv-x="1430" d="M1249 4Q1194 -8 1124 -16T975 -25Q856 -25 760 2T595 91T489 255T451 508V1868H106V2073H446L508 2683H713V2073H1249V1868H713V516Q713 408 736 345T805 248T915 206T1065 197H1249V4V4Z" />
<glyph unicode="u" glyph-name="u" horiz-adv-x="2429" d="M1855 0L1810 332Q1718 233 1633 162T1459 44T1274 -23T1065 -45Q864 -45 729 23T512 205T395 468T360 782V2073H623V831Q623 690 646 571T725 365T870 230T1094 180Q1202 180 1291 205T1462 282T1625
408T1798 582V2073H2060V0H1855Z" />
<glyph unicode="v" glyph-name="v" horiz-adv-x="1991" d="M1876 2073Q1725 1556 1532 1036T1114 0H881Q654 529 464 1047T123 2073H406Q519 1689 643 1324T905 602Q933 531 959 454T1008 303H1016Q1037 377 1063 454T1118 602Q1260 961 1388 1328T1618 2073H1876Z" />
<glyph unicode="w" glyph-name="w" horiz-adv-x="3244" d="M3113 2073Q2968 1552 2798 1036T2429 0H2163L1700 1483L1618 1778H1610L1532 1483L1090 0H791Q592 526 432 1041T139 2073H418Q526 1616 593 1380T741 881T938 246H946L1049 615L1491 2073H1769L2220
610L2322 246H2331Q2441 618 2516 856T2665 1345T2859 2073H3113V2073Z" />
<glyph unicode="x" glyph-name="x" horiz-adv-x="2081" d="M1622 0L1032 885L438 0H135L905 1065L197 2073H512L1053 1262L1597 2073H1896L1180 1081L1946 0H1622Z" />
<glyph unicode="y" glyph-name="y" horiz-adv-x="1999" d="M1888 2073Q1690 1368 1510 858T1163 0Q1042 -258 941 -432T748 -710T562 -860T365 -905Q295 -905 244 -895T131 -868L143 -672H357Q413 -672 469 -643T595 -535T742 -327T918 0Q823 219 719 468T510
982T311 1522T135 2073H422Q490 1835 565 1608T719 1165T846 825T938 585Q986 457 1049 283H1057Q1112 433 1167 587Q1273 867 1394 1241T1630 2073H1888V2073Z" />
<glyph unicode="z" glyph-name="z" horiz-adv-x="1937" d="M229 0V229L1401 1847H295V2073H1683V1847L504 225H1757V0H229Z" />
<glyph unicode="{" glyph-name="braceleft" horiz-adv-x="1352" d="M1158 -684Q1121 -688 1077 -690T999 -692Q865 -692 782 -648T651 -516T587 -295T570 16V598Q570 725 547 828T479 1004T362 1116T193 1155V1327Q290 1327 362 1366T478 1477T546 1653T570 1884V2367Q570
2544 587 2677T653 2899T785 3032T999 3076Q1033 3076 1077 3074T1158 3068V2871H1007Q954 2871 916 2851T854 2773T818 2614T806 2347V1909Q806 1794 791 1683T737 1480T627 1326T450 1241Q556 1221 627 1158T736 1003T790 800T806 573V37Q806 -127 817 -229T853
-389T916 -466T1007 -487H1158V-684V-684Z" />
<glyph unicode="|" glyph-name="bar" horiz-adv-x="2255" d="M1004 -860V3072H1250V-860H1004Z" />
<glyph unicode="}" glyph-name="braceright" horiz-adv-x="1352" d="M1159 1155Q1059 1155 988 1115T871 1003T804 829T782 598V16Q782 -160 764 -293T697 -515T565 -648T351 -692Q316 -692 274 -690T193 -684V-487H344Q396 -487 433 -467T496 -391T533 -231T545
37V573Q545 688 559 797T614 1000T723 1156T901 1241Q792 1263 723 1326T614 1480T560 1682T545 1909V2347Q545 2511 533 2615T496 2774T435 2850T344 2871H193V3068Q233 3072 276 3074T352 3076Q485 3076 570 3032T701 2901T764 2680T782 2367V1884Q782 1757 804
1653T873 1477T991 1366T1159 1327V1155V1155Z" />
<glyph unicode="~" glyph-name="asciitilde" horiz-adv-x="2253" d="M2114 2355Q2114 2210 2076 2088T1966 1878T1791 1741T1556 1692Q1450 1692 1372 1718T1235 1788T1130 1885T1044 1995Q1008 2044 971 2090T891 2171T796 2227T676 2249Q590 2249 532 2214T436
2118T383 1972T365 1790H147V1806Q147 1950 185 2069T295 2276T470 2412T705 2462Q809 2462 887 2436T1024 2369T1129 2274T1217 2167Q1253 2118 1289 2072T1368 1989T1463 1931T1585 1909Q1671 1909 1729 1944T1825 2041T1878 2188T1896 2372H2114V2355V2355Z"
/>
</font>
</defs>
</svg>
