<?xml version="1.0" standalone="no"?><!DOCTYPE svg PUBLIC "-//W3C//DTD SVG 1.1//EN" "http://www.w3.org/Graphics/SVG/1.1/DTD/svg11.dtd" ><svg version="1.1" xmlns="http://www.w3.org/2000/svg"><defs><font horiz-adv-x="0" id="font"><font-face ascent="1132" bbox="-98 -240 1302 1015" cap-height="770" descent="-268" font-family="PayPal Sans Big Medium" font-stretch="normal" font-style="normal" font-weight="600" units-per-em="1024" x-height="567" /><missing-glyph horiz-adv-x="256" /><glyph d="M461 284 368 521 274 284ZM730 0H573L509 162H225L161 0H11L299 700H442Z" glyph-name="A" horiz-adv-x="740" unicode="A" /><glyph d="M355 305H534V600ZM1016 0H534V183H281L170 0H11L439 701H1004V573H689V417H978V290H689V128H1016Z" glyph-name="AE" horiz-adv-x="1072" unicode="&#198;" /><glyph d="M355 305H534V600ZM1016 0H534V183H281L170 0H11L439 701H1004V573H689V417H978V290H689V128H1016ZM960 927 760 766H639L746 927Z" glyph-name="AEacute" horiz-adv-x="1072" unicode="&#508;" /><glyph d="M461 284 368 521 274 284ZM730 0H573L509 162H225L161 0H11L299 700H442ZM624 927 424 766H303L410 927Z" glyph-name="Aacute" horiz-adv-x="740" unicode="&#193;" /><glyph d="M461 284 368 521 274 284ZM730 0H573L509 162H225L161 0H11L299 700H442ZM370 758Q287 758 237.5 803Q188 848 188 927H278Q280 894 304 876.5Q328 859 370 859Q412 859 436.5 876.5Q461 894 462 927H552Q552 848 502.5 803Q453 758 370 758Z" glyph-name="Abreve" horiz-adv-x="740" unicode="&#258;" /><glyph d="M461 284 368 521 274 284ZM730 0H573L509 162H225L161 0H11L299 700H442ZM165 766 299 927H442L575 766H467L370 843L272 766Z" glyph-name="Acircumflex" horiz-adv-x="740" unicode="&#194;" /><glyph d="M461 284 368 521 274 284ZM730 0H573L509 162H225L161 0H11L299 700H442ZM475 766Q441 766 418.5 788Q396 810 396 843Q396 875 418.5 897Q441 919 475 919Q509 919 531 897Q553 875 553 843Q553 810 530.5 788Q508 766 475 766ZM266 766Q232 766 209.5 788Q187 810 187 843Q187 875 209.5 897Q232 919 266 919Q300 919 322 897Q344 875 344 843Q344 810 321.5 788Q299 766 266 766Z" glyph-name="Adieresis" horiz-adv-x="740" unicode="&#196;" /><glyph d="M461 284 368 521 274 284ZM730 0H573L509 162H225L161 0H11L299 700H442ZM334 927 440 766H320L119 927Z" glyph-name="Agrave" horiz-adv-x="740" unicode="&#192;" /><glyph d="M461 284 368 521 274 284ZM730 0H573L509 162H225L161 0H11L299 700H442ZM549 894V786H192V894Z" glyph-name="Amacron" horiz-adv-x="740" unicode="&#256;" /><glyph d="M494 -143Q494 -91 527 -46Q545 -21 572 1L509 162H225L161 0H11L299 700H442L730 0H656Q627 -26 610 -52Q592 -82 592 -109Q592 -127 602.5 -138Q613 -149 630 -149Q639 -149 644.5 -147.5Q650 -146 655 -143V-231Q637 -236 626 -237.5Q615 -239 604 -239Q556 -239 525 -213Q494 -187 494 -143ZM461 284 368 521 274 284Z" glyph-name="Aogonek" horiz-adv-x="740" unicode="&#260;" /><glyph d="M503 775Q503 719 463 679Q459 675 454 670L730 0H573L509 162H225L161 0H11L287 670Q281 675 276 680Q237 720 237 775Q237 830 276 868.5Q315 907 369 907Q425 907 464 868.5Q503 830 503 775ZM461 284 368 521 274 284ZM311 775Q311 749 327.5 731.5Q344 714 369 714Q395 714 412 731.5Q429 749 429 775Q429 800 412 816.5Q395 833 369 833Q344 833 327.5 816.5Q311 800 311 775Z" glyph-name="Aring" horiz-adv-x="740" unicode="&#197;" /><glyph d="M461 284 368 521 274 284ZM730 0H573L509 162H225L161 0H11L299 700H442ZM443 760Q428 760 410 768Q392 776 358 802Q330 823 317 829.5Q304 836 294 836Q276 836 266.5 822Q257 808 251 766H168Q169 846 204.5 897Q240 948 296 948Q311 948 329 940Q347 932 381 906Q409 885 422 878.5Q435 872 445 872Q463 872 472 885.5Q481 899 487 943H570Q569 862 534 811Q499 760 443 760Z" glyph-name="Atilde" horiz-adv-x="740" unicode="&#195;" /><glyph d="M591 512Q591 464 563 423.5Q535 383 495 368Q558 349 594 304.5Q630 260 630 198Q630 108 567 54Q504 0 398 0H78V700H361Q470 700 530.5 650.5Q591 601 591 512ZM336 577H233V415H336Q387 415 413 435.5Q439 456 439 497Q439 537 413.5 557Q388 577 336 577ZM475 210Q475 251 448 272.5Q421 294 370 294H233V124H370Q421 124 448 146Q475 168 475 210Z" glyph-name="B" horiz-adv-x="662" unicode="B" /><glyph d="M431 571Q323 571 256.5 510.5Q190 450 190 350Q190 250 256.5 190Q323 130 431 130Q476 130 516 139Q556 148 597 167V24Q553 6 511.5 -2.5Q470 -11 423 -11Q253 -11 142 90Q31 191 31 350Q31 509 142 610Q253 711 423 711Q470 711 511.5 702.5Q553 694 597 676V533Q555 553 514.5 562Q474 571 431 571Z" glyph-name="C" horiz-adv-x="645" unicode="C" /><glyph d="M431 571Q323 571 256.5 510.5Q190 450 190 350Q190 250 256.5 190Q323 130 431 130Q476 130 516 139Q556 148 597 167V24Q553 6 511.5 -2.5Q470 -11 423 -11Q253 -11 142 90Q31 191 31 350Q31 509 142 610Q253 711 423 711Q470 711 511.5 702.5Q553 694 597 676V533Q555 553 514.5 562Q474 571 431 571ZM664 927 464 766H343L450 927Z" glyph-name="Cacute" horiz-adv-x="645" unicode="&#262;" /><glyph d="M431 571Q323 571 256.5 510.5Q190 450 190 350Q190 250 256.5 190Q323 130 431 130Q476 130 516 139Q556 148 597 167V24Q553 6 511.5 -2.5Q470 -11 423 -11Q253 -11 142 90Q31 191 31 350Q31 509 142 610Q253 711 423 711Q470 711 511.5 702.5Q553 694 597 676V533Q555 553 514.5 562Q474 571 431 571ZM614 937 481 775H338L204 937H311L409 859L506 937Z" glyph-name="Ccaron" horiz-adv-x="645" unicode="&#268;" /><glyph d="M468 -135Q468 -180 427.5 -209.5Q387 -239 329 -239Q299 -239 271 -232Q243 -225 223 -213V-140Q246 -151 271 -157Q296 -163 321 -163Q347 -163 363.5 -154Q380 -145 380 -130Q380 -113 357.5 -104Q335 -95 293 -95L331 -3Q221 17 142 90Q31 191 31 350Q31 509 142 610Q253 711 423 711Q470 711 511.5 702.5Q553 694 597 676V533Q555 553 514.5 562Q474 571 431 571Q323 571 256.5 510.5Q190 450 190 350Q190 250 256.5 190Q323 130 431 130Q476 130 516 139Q556 148 597 167V24Q553 6 511.5 -2.5Q470 -11 423 -11Q403 -11 383 -9L368 -47Q416 -54 442 -77Q468 -100 468 -135Z" glyph-name="Ccedilla" horiz-adv-x="645" unicode="&#199;" /><glyph d="M431 571Q323 571 256.5 510.5Q190 450 190 350Q190 250 256.5 190Q323 130 431 130Q476 130 516 139Q556 148 597 167V24Q553 6 511.5 -2.5Q470 -11 423 -11Q253 -11 142 90Q31 191 31 350Q31 509 142 610Q253 711 423 711Q470 711 511.5 702.5Q553 694 597 676V533Q555 553 514.5 562Q474 571 431 571ZM204 766 338 927H481L614 766H506L409 843L311 766Z" glyph-name="Ccircumflex" horiz-adv-x="645" unicode="&#264;" /><glyph d="M431 571Q323 571 256.5 510.5Q190 450 190 350Q190 250 256.5 190Q323 130 431 130Q476 130 516 139Q556 148 597 167V24Q553 6 511.5 -2.5Q470 -11 423 -11Q253 -11 142 90Q31 191 31 350Q31 509 142 610Q253 711 423 711Q470 711 511.5 702.5Q553 694 597 676V533Q555 553 514.5 562Q474 571 431 571ZM409 766Q371 766 346.5 790.5Q322 815 322 851Q322 887 346.5 911Q371 935 409 935Q447 935 471.5 911Q496 887 496 851Q496 815 471.5 790.5Q447 766 409 766Z" glyph-name="Cdotaccent" horiz-adv-x="645" unicode="&#266;" /><glyph d="M353 0H78V700H353Q516 700 621.5 603Q727 506 727 351Q727 195 622 97.5Q517 0 353 0ZM234 572V128H351Q448 128 508 189Q568 250 568 351Q568 451 508.5 511.5Q449 572 351 572Z" glyph-name="D" horiz-adv-x="757" unicode="D" /><glyph d="M353 0H78V700H353Q516 700 621.5 603Q727 506 727 351Q727 195 622 97.5Q517 0 353 0ZM234 572V128H351Q448 128 508 189Q568 250 568 351Q568 451 508.5 511.5Q449 572 351 572ZM559 937 426 775H283L149 937H256L354 859L451 937Z" glyph-name="Dcaron" horiz-adv-x="757" unicode="&#270;" /><glyph d="M736 351Q736 195 631 97.5Q526 0 362 0H87V289H12V417H87V700H362Q525 700 630.5 603Q736 506 736 351ZM243 289V128H360Q457 128 517 189Q577 250 577 351Q577 451 517.5 511.5Q458 572 360 572H243V417H359V289Z" glyph-name="Dcroat" horiz-adv-x="766" unicode="&#272;" /><glyph d="M562 0H78V700H550V572H233V417H524V290H233V128H562Z" glyph-name="E" horiz-adv-x="617" unicode="E" /><glyph d="M562 0H78V700H550V572H233V417H524V290H233V128H562ZM570 927 370 766H249L356 927Z" glyph-name="Eacute" horiz-adv-x="617" unicode="&#201;" /><glyph d="M562 0H78V700H550V572H233V417H524V290H233V128H562ZM322 758Q239 758 189.5 803Q140 848 140 927H230Q232 894 256 876.5Q280 859 322 859Q364 859 388.5 876.5Q413 894 414 927H504Q504 848 454.5 803Q405 758 322 758Z" glyph-name="Ebreve" horiz-adv-x="617" unicode="&#276;" /><glyph d="M562 0H78V700H550V572H233V417H524V290H233V128H562ZM527 937 394 775H251L117 937H224L322 859L419 937Z" glyph-name="Ecaron" horiz-adv-x="617" unicode="&#282;" /><glyph d="M562 0H78V700H550V572H233V417H524V290H233V128H562ZM117 766 251 927H394L527 766H419L322 843L224 766Z" glyph-name="Ecircumflex" horiz-adv-x="617" unicode="&#202;" /><glyph d="M562 0H78V700H550V572H233V417H524V290H233V128H562ZM427 766Q393 766 370.5 788Q348 810 348 843Q348 875 370.5 897Q393 919 427 919Q461 919 483 897Q505 875 505 843Q505 810 482.5 788Q460 766 427 766ZM218 766Q184 766 161.5 788Q139 810 139 843Q139 875 161.5 897Q184 919 218 919Q252 919 274 897Q296 875 296 843Q296 810 273.5 788Q251 766 218 766Z" glyph-name="Edieresis" horiz-adv-x="617" unicode="&#203;" /><glyph d="M562 0H78V700H550V572H233V417H524V290H233V128H562ZM322 766Q284 766 259.5 790.5Q235 815 235 851Q235 887 259.5 911Q284 935 322 935Q360 935 384.5 911Q409 887 409 851Q409 815 384.5 790.5Q360 766 322 766Z" glyph-name="Edotaccent" horiz-adv-x="617" unicode="&#278;" /><glyph d="M562 0H78V700H550V572H233V417H524V290H233V128H562ZM293 927 399 766H279L78 927Z" glyph-name="Egrave" horiz-adv-x="617" unicode="&#200;" /><glyph d="M562 0H78V700H550V572H233V417H524V290H233V128H562ZM501 894V786H144V894Z" glyph-name="Emacron" horiz-adv-x="617" unicode="&#274;" /><glyph d="M621 -228H471Q510 -167 528.5 -107Q547 -47 550 22L226 474V0H78V700H228L550 234V700H699V28Q698 -48 679.5 -110Q661 -172 621 -228Z" glyph-name="Eng" horiz-adv-x="777" unicode="&#330;" /><glyph d="M351 -143Q351 -91 384 -46Q401 -22 427 0H78V700H550V572H233V417H524V290H233V128H562V0H513Q484 -26 467 -52Q449 -82 449 -109Q449 -127 459.5 -138Q470 -149 487 -149Q496 -149 501.5 -147.5Q507 -146 512 -143V-231Q494 -236 483 -237.5Q472 -239 461 -239Q413 -239 382 -213Q351 -187 351 -143Z" glyph-name="Eogonek" horiz-adv-x="617" unicode="&#280;" /><glyph d="M736 351Q736 195 631 97.5Q526 0 362 0H87V289H12V417H87V700H362Q525 700 630.5 603Q736 506 736 351ZM243 289V128H360Q457 128 517 189Q577 250 577 351Q577 451 517.5 511.5Q458 572 360 572H243V417H359V289Z" glyph-name="Eth" horiz-adv-x="766" unicode="&#208;" /><glyph d="M478 474 447 383H34V474H103Q131 583 220 647Q309 711 432 711Q472 711 507 703.5Q542 696 580 679V551Q549 569 514.5 578Q480 587 441 587Q377 587 329 557Q281 527 259 474ZM580 149V22Q544 5 509.5 -3Q475 -11 432 -11Q307 -11 218 54Q129 119 103 230H34V321H429L396 230H257Q278 175 326.5 144.5Q375 114 441 114Q481 114 515 122.5Q549 131 580 149Z" glyph-name="Euro" horiz-adv-x="628" unicode="&#8364;" /><glyph d="M234 275V0H78V700H547V572H234V402H516V275Z" glyph-name="F" horiz-adv-x="597" unicode="F" /><glyph d="M436 571Q326 571 257.5 508Q189 445 189 344Q189 241 252 182Q315 123 421 123Q438 123 454 124.5Q470 126 482 128V316H632V17Q584 4 528 -3.5Q472 -11 420 -11Q248 -11 139.5 86.5Q31 184 31 344Q31 504 146 607.5Q261 711 436 711Q486 711 531.5 702Q577 693 625 674V531Q584 550 535 560.5Q486 571 436 571Z" glyph-name="G" horiz-adv-x="693" unicode="G" /><glyph d="M436 571Q326 571 257.5 508Q189 445 189 344Q189 241 252 182Q315 123 421 123Q438 123 454 124.5Q470 126 482 128V316H632V17Q584 4 528 -3.5Q472 -11 420 -11Q248 -11 139.5 86.5Q31 184 31 344Q31 504 146 607.5Q261 711 436 711Q486 711 531.5 702Q577 693 625 674V531Q584 550 535 560.5Q486 571 436 571ZM424 758Q341 758 291.5 803Q242 848 242 927H332Q334 894 358 876.5Q382 859 424 859Q466 859 490.5 876.5Q515 894 516 927H606Q606 848 556.5 803Q507 758 424 758Z" glyph-name="Gbreve" horiz-adv-x="693" unicode="&#286;" /><glyph d="M436 571Q326 571 257.5 508Q189 445 189 344Q189 241 252 182Q315 123 421 123Q438 123 454 124.5Q470 126 482 128V316H632V17Q584 4 528 -3.5Q472 -11 420 -11Q248 -11 139.5 86.5Q31 184 31 344Q31 504 146 607.5Q261 711 436 711Q486 711 531.5 702Q577 693 625 674V531Q584 550 535 560.5Q486 571 436 571ZM220 766 354 927H497L630 766H522L425 843L327 766Z" glyph-name="Gcircumflex" horiz-adv-x="693" unicode="&#284;" /><glyph d="M436 571Q326 571 257.5 508Q189 445 189 344Q189 241 252 182Q315 123 421 123Q438 123 454 124.5Q470 126 482 128V316H632V17Q584 4 528 -3.5Q472 -11 420 -11Q248 -11 139.5 86.5Q31 184 31 344Q31 504 146 607.5Q261 711 436 711Q486 711 531.5 702Q577 693 625 674V531Q584 550 535 560.5Q486 571 436 571ZM424 766Q386 766 361.5 790.5Q337 815 337 851Q337 887 361.5 911Q386 935 424 935Q462 935 486.5 911Q511 887 511 851Q511 815 486.5 790.5Q462 766 424 766Z" glyph-name="Gdotaccent" horiz-adv-x="693" unicode="&#288;" /><glyph d="M705 0H550V290H234V0H78V700H234V417H550V700H705Z" glyph-name="H" horiz-adv-x="784" unicode="H" /><glyph d="M243 448V330H559V448ZM559 209H243V0H87V448H12V569H87V701H243V569H559V701H714V569H790V448H714V0H559Z" glyph-name="Hbar" horiz-adv-x="802" unicode="&#294;" /><glyph d="M705 0H550V290H234V0H78V700H234V417H550V700H705ZM187 766 321 927H464L597 766H489L392 843L294 766Z" glyph-name="Hcircumflex" horiz-adv-x="784" unicode="&#292;" /><glyph d="M234 0H78V700H234Z" glyph-name="I" horiz-adv-x="313" unicode="I" /><glyph d="M234 0H78V700H234ZM413 927 213 766H92L199 927Z" glyph-name="Iacute" horiz-adv-x="313" unicode="&#205;" /><glyph d="M234 0H78V700H234ZM156 758Q73 758 23.5 803Q-26 848 -26 927H64Q66 894 90 876.5Q114 859 156 859Q198 859 222.5 876.5Q247 894 248 927H338Q338 848 288.5 803Q239 758 156 758Z" glyph-name="Ibreve" horiz-adv-x="313" unicode="&#300;" /><glyph d="M234 0H78V700H234ZM-49 766 85 927H228L361 766H253L156 843L58 766Z" glyph-name="Icircumflex" horiz-adv-x="313" unicode="&#206;" /><glyph d="M234 0H78V700H234ZM261 766Q227 766 204.5 788Q182 810 182 843Q182 875 204.5 897Q227 919 261 919Q295 919 317 897Q339 875 339 843Q339 810 316.5 788Q294 766 261 766ZM52 766Q18 766 -4.5 788Q-27 810 -27 843Q-27 875 -4.5 897Q18 919 52 919Q86 919 108 897Q130 875 130 843Q130 810 107.5 788Q85 766 52 766Z" glyph-name="Idieresis" horiz-adv-x="313" unicode="&#207;" /><glyph d="M234 0H78V700H234ZM156 766Q118 766 93.5 790.5Q69 815 69 851Q69 887 93.5 911Q118 935 156 935Q194 935 218.5 911Q243 887 243 851Q243 815 218.5 790.5Q194 766 156 766Z" glyph-name="Idotaccent" horiz-adv-x="313" unicode="&#304;" /><glyph d="M234 0H78V700H234ZM117 927 223 766H103L-98 927Z" glyph-name="Igrave" horiz-adv-x="313" unicode="&#204;" /><glyph d="M234 0H78V700H234ZM335 894V786H-22V894Z" glyph-name="Imacron" horiz-adv-x="313" unicode="&#298;" /><glyph d="M225 -143V-231Q207 -236 196 -237.5Q185 -239 174 -239Q126 -239 95 -213Q64 -187 64 -143Q64 -104 83 -68.5Q102 -33 140 0H78V700H234V0Q199 -25 180.5 -53.5Q162 -82 162 -109Q162 -127 172.5 -138Q183 -149 200 -149Q209 -149 214.5 -147.5Q220 -146 225 -143Z" glyph-name="Iogonek" horiz-adv-x="313" unicode="&#302;" /><glyph d="M234 0H78V700H234ZM229 760Q214 760 196 768Q178 776 144 802Q116 823 103 829.5Q90 836 80 836Q62 836 52.5 822Q43 808 37 766H-46Q-45 846 -9.5 897Q26 948 82 948Q97 948 115 940Q133 932 167 906Q195 885 208 878.5Q221 872 231 872Q249 872 258 885.5Q267 899 273 943H356Q355 862 320 811Q285 760 229 760Z" glyph-name="Itilde" horiz-adv-x="313" unicode="&#296;" /><glyph d="M234 700V67Q234 -27 209 -100Q184 -173 133 -228H-30Q26 -156 52 -83Q78 -10 78 74V700Z" glyph-name="J" horiz-adv-x="313" unicode="J" /><glyph d="M234 700V67Q234 -27 209 -100Q184 -173 133 -228H-30Q26 -156 52 -83Q78 -10 78 74V700ZM-48 766 86 927H229L362 766H254L157 843L59 766Z" glyph-name="Jcircumflex" horiz-adv-x="313" unicode="&#308;" /><glyph d="M741 0H548L234 344V0H78V700H234V380L519 700H706L402 372Z" glyph-name="K" horiz-adv-x="732" unicode="K" /><glyph d="M78 0V700H234V128H560V0Z" glyph-name="L" horiz-adv-x="599" unicode="L" /><glyph d="M78 0V700H234V128H560V0ZM423 927 223 766H102L209 927Z" glyph-name="Lacute" horiz-adv-x="599" unicode="&#313;" /><glyph d="M78 0V700H234V128H560V0ZM431 458H345L376 701H531Z" glyph-name="Lcaron" horiz-adv-x="599" unicode="&#317;" /><glyph d="M78 0V700H234V128H560V0ZM447 319Q409 319 384.5 343Q360 367 360 403Q360 439 384.5 463.5Q409 488 447 488Q485 488 509.5 463.5Q534 439 534 403Q534 367 509.5 343Q485 319 447 319Z" glyph-name="Ldot" horiz-adv-x="599" unicode="&#319;" /><glyph d="M569 128V0H87V253L12 217V346L87 382V700H243V448L403 524V395L243 319V128Z" glyph-name="Lslash" horiz-adv-x="608" unicode="&#321;" /><glyph d="M658 465 515 95H397L254 465L191 0H44L143 700H290L457 264L625 700H771L871 0H721Z" glyph-name="M" horiz-adv-x="915" unicode="M" /><glyph d="M699 0H566L226 475V0H78V700H228L550 234V700H699Z" glyph-name="N" horiz-adv-x="777" unicode="N" /><glyph glyph-name="NULL" horiz-adv-x="0" /><glyph d="M699 0H566L226 475V0H78V700H228L550 234V700H699ZM643 927 443 766H322L429 927Z" glyph-name="Nacute" horiz-adv-x="777" unicode="&#323;" /><glyph d="M699 0H566L226 475V0H78V700H228L550 234V700H699ZM593 937 460 775H317L183 937H290L388 859L485 937Z" glyph-name="Ncaron" horiz-adv-x="777" unicode="&#327;" /><glyph d="M699 0H566L226 475V0H78V700H228L550 234V700H699ZM462 760Q447 760 429 768Q411 776 377 802Q349 823 336 829.5Q323 836 313 836Q295 836 285.5 822Q276 808 270 766H187Q188 846 223.5 897Q259 948 315 948Q330 948 348 940Q366 932 400 906Q428 885 441 878.5Q454 872 464 872Q482 872 491 885.5Q500 899 506 943H589Q588 862 553 811Q518 760 462 760Z" glyph-name="Ntilde" horiz-adv-x="777" unicode="&#209;" /><glyph d="M390 -11Q238 -11 134.5 92Q31 195 31 350Q31 505 134.5 608Q238 711 390 711Q542 711 646 608.5Q750 506 750 350Q750 194 646 91.5Q542 -11 390 -11ZM390 129Q479 129 535 190.5Q591 252 591 350Q591 448 535 509.5Q479 571 390 571Q301 571 245 509.5Q189 448 189 350Q189 252 245 190.5Q301 129 390 129Z" glyph-name="O" horiz-adv-x="780" unicode="O" /><glyph d="M1004 0H405Q242 0 136.5 97.5Q31 195 31 351Q31 507 136.5 604Q242 701 405 701H992V573H677V417H966V290H677V128H1004ZM524 128V573H406Q309 573 249 511.5Q189 450 189 351Q189 250 249 189Q309 128 406 128Z" glyph-name="OE" horiz-adv-x="1060" unicode="&#338;" /><glyph d="M390 -11Q238 -11 134.5 92Q31 195 31 350Q31 505 134.5 608Q238 711 390 711Q542 711 646 608.5Q750 506 750 350Q750 194 646 91.5Q542 -11 390 -11ZM390 129Q479 129 535 190.5Q591 252 591 350Q591 448 535 509.5Q479 571 390 571Q301 571 245 509.5Q189 448 189 350Q189 252 245 190.5Q301 129 390 129ZM645 927 445 766H324L431 927Z" glyph-name="Oacute" horiz-adv-x="780" unicode="&#211;" /><glyph d="M390 -11Q238 -11 134.5 92Q31 195 31 350Q31 505 134.5 608Q238 711 390 711Q542 711 646 608.5Q750 506 750 350Q750 194 646 91.5Q542 -11 390 -11ZM390 129Q479 129 535 190.5Q591 252 591 350Q591 448 535 509.5Q479 571 390 571Q301 571 245 509.5Q189 448 189 350Q189 252 245 190.5Q301 129 390 129ZM390 758Q307 758 257.5 803Q208 848 208 927H298Q300 894 324 876.5Q348 859 390 859Q432 859 456.5 876.5Q481 894 482 927H572Q572 848 522.5 803Q473 758 390 758Z" glyph-name="Obreve" horiz-adv-x="780" unicode="&#334;" /><glyph d="M390 -11Q238 -11 134.5 92Q31 195 31 350Q31 505 134.5 608Q238 711 390 711Q542 711 646 608.5Q750 506 750 350Q750 194 646 91.5Q542 -11 390 -11ZM390 129Q479 129 535 190.5Q591 252 591 350Q591 448 535 509.5Q479 571 390 571Q301 571 245 509.5Q189 448 189 350Q189 252 245 190.5Q301 129 390 129ZM185 766 319 927H462L595 766H487L390 843L292 766Z" glyph-name="Ocircumflex" horiz-adv-x="780" unicode="&#212;" /><glyph d="M390 -11Q238 -11 134.5 92Q31 195 31 350Q31 505 134.5 608Q238 711 390 711Q542 711 646 608.5Q750 506 750 350Q750 194 646 91.5Q542 -11 390 -11ZM390 129Q479 129 535 190.5Q591 252 591 350Q591 448 535 509.5Q479 571 390 571Q301 571 245 509.5Q189 448 189 350Q189 252 245 190.5Q301 129 390 129ZM495 766Q461 766 438.5 788Q416 810 416 843Q416 875 438.5 897Q461 919 495 919Q529 919 551 897Q573 875 573 843Q573 810 550.5 788Q528 766 495 766ZM286 766Q252 766 229.5 788Q207 810 207 843Q207 875 229.5 897Q252 919 286 919Q320 919 342 897Q364 875 364 843Q364 810 341.5 788Q319 766 286 766Z" glyph-name="Odieresis" horiz-adv-x="780" unicode="&#214;" /><glyph d="M390 -11Q238 -11 134.5 92Q31 195 31 350Q31 505 134.5 608Q238 711 390 711Q542 711 646 608.5Q750 506 750 350Q750 194 646 91.5Q542 -11 390 -11ZM390 129Q479 129 535 190.5Q591 252 591 350Q591 448 535 509.5Q479 571 390 571Q301 571 245 509.5Q189 448 189 350Q189 252 245 190.5Q301 129 390 129ZM355 927 461 766H341L140 927Z" glyph-name="Ograve" horiz-adv-x="780" unicode="&#210;" /><glyph d="M390 -11Q238 -11 134.5 92Q31 195 31 350Q31 505 134.5 608Q238 711 390 711Q542 711 646 608.5Q750 506 750 350Q750 194 646 91.5Q542 -11 390 -11ZM390 129Q479 129 535 190.5Q591 252 591 350Q591 448 535 509.5Q479 571 390 571Q301 571 245 509.5Q189 448 189 350Q189 252 245 190.5Q301 129 390 129ZM332 766H236L330 927H487ZM533 766H436L531 927H688Z" glyph-name="Ohungarumlaut" horiz-adv-x="780" unicode="&#336;" /><glyph d="M390 -11Q238 -11 134.5 92Q31 195 31 350Q31 505 134.5 608Q238 711 390 711Q542 711 646 608.5Q750 506 750 350Q750 194 646 91.5Q542 -11 390 -11ZM390 129Q479 129 535 190.5Q591 252 591 350Q591 448 535 509.5Q479 571 390 571Q301 571 245 509.5Q189 448 189 350Q189 252 245 190.5Q301 129 390 129ZM569 894V786H212V894Z" glyph-name="Omacron" horiz-adv-x="780" unicode="&#332;" /><glyph d="M390 577Q299 577 241 513.5Q183 450 183 350Q183 308 193.5 271.5Q204 235 225 206L476 559Q457 568 435 572.5Q413 577 390 577ZM390 123Q481 123 539 186.5Q597 250 597 350Q597 391 586.5 427.5Q576 464 555 493L304 141Q323 132 345 127.5Q367 123 390 123ZM750 350Q750 194 646 91.5Q542 -11 390 -11Q347 -11 304.5 -1Q262 9 224 28L179 -36H54L141 86Q88 136 59.5 204Q31 272 31 350Q31 505 134.5 608Q238 711 390 711Q433 711 475.5 701Q518 691 556 672L603 738H729L641 614Q694 563 722 495.5Q750 428 750 350Z" glyph-name="Oslash" horiz-adv-x="780" unicode="&#216;" /><glyph d="M390 577Q299 577 241 513.5Q183 450 183 350Q183 308 193.5 271.5Q204 235 225 206L476 559Q457 568 435 572.5Q413 577 390 577ZM390 123Q481 123 539 186.5Q597 250 597 350Q597 391 586.5 427.5Q576 464 555 493L304 141Q323 132 345 127.5Q367 123 390 123ZM750 350Q750 194 646 91.5Q542 -11 390 -11Q347 -11 304.5 -1Q262 9 224 28L179 -36H54L141 86Q88 136 59.5 204Q31 272 31 350Q31 505 134.5 608Q238 711 390 711Q433 711 475.5 701Q518 691 556 672L603 738H729L641 614Q694 563 722 495.5Q750 428 750 350ZM645 927 445 766H324L431 927Z" glyph-name="Oslashacute" horiz-adv-x="780" unicode="&#510;" /><glyph d="M390 -11Q238 -11 134.5 92Q31 195 31 350Q31 505 134.5 608Q238 711 390 711Q542 711 646 608.5Q750 506 750 350Q750 194 646 91.5Q542 -11 390 -11ZM390 129Q479 129 535 190.5Q591 252 591 350Q591 448 535 509.5Q479 571 390 571Q301 571 245 509.5Q189 448 189 350Q189 252 245 190.5Q301 129 390 129ZM464 760Q449 760 431 768Q413 776 379 802Q351 823 338 829.5Q325 836 315 836Q297 836 287.5 822Q278 808 272 766H189Q190 846 225.5 897Q261 948 317 948Q332 948 350 940Q368 932 402 906Q430 885 443 878.5Q456 872 466 872Q484 872 493 885.5Q502 899 508 943H591Q590 862 555 811Q520 760 464 760Z" glyph-name="Otilde" horiz-adv-x="780" unicode="&#213;" /><glyph d="M626 473Q626 370 553.5 308Q481 246 362 246H234V0H78V700H362Q481 700 553.5 638Q626 576 626 473ZM466 473Q466 520 435.5 546Q405 572 350 572H234V374H350Q405 374 435.5 400Q466 426 466 473Z" glyph-name="P" horiz-adv-x="656" unicode="P" /><glyph d="M594 -214Q492 -214 415 -157.5Q338 -101 312 -3Q187 24 109 120.5Q31 217 31 350Q31 505 134.5 608Q238 711 390 711Q542 711 646 608.5Q750 506 750 350Q750 219 674.5 123.5Q599 28 476 -1Q492 -42 530 -63.5Q568 -85 620 -85Q638 -85 653.5 -82.5Q669 -80 688 -73V-197Q670 -206 646.5 -210Q623 -214 594 -214ZM390 129Q479 129 535 190.5Q591 252 591 350Q591 448 535 509.5Q479 571 390 571Q301 571 245 509.5Q189 448 189 350Q189 252 245 190.5Q301 129 390 129Z" glyph-name="Q" horiz-adv-x="780" unicode="Q" /><glyph d="M337 572H234V376H378Q412 387 431.5 414.5Q451 442 451 480Q451 523 421 547.5Q391 572 337 572ZM480 289Q519 225 586 141.5Q653 58 712 0H524Q482 42 432 108.5Q382 175 334 253H234V0H78V700H344Q469 700 539.5 642.5Q610 585 610 483Q610 420 575 368.5Q540 317 480 289Z" glyph-name="R" horiz-adv-x="698" unicode="R" /><glyph d="M337 572H234V376H378Q412 387 431.5 414.5Q451 442 451 480Q451 523 421 547.5Q391 572 337 572ZM480 289Q519 225 586 141.5Q653 58 712 0H524Q482 42 432 108.5Q382 175 334 253H234V0H78V700H344Q469 700 539.5 642.5Q610 585 610 483Q610 420 575 368.5Q540 317 480 289ZM588 927 388 766H267L374 927Z" glyph-name="Racute" horiz-adv-x="698" unicode="&#340;" /><glyph d="M337 572H234V376H378Q412 387 431.5 414.5Q451 442 451 480Q451 523 421 547.5Q391 572 337 572ZM480 289Q519 225 586 141.5Q653 58 712 0H524Q482 42 432 108.5Q382 175 334 253H234V0H78V700H344Q469 700 539.5 642.5Q610 585 610 483Q610 420 575 368.5Q540 317 480 289ZM538 937 405 775H262L128 937H235L333 859L430 937Z" glyph-name="Rcaron" horiz-adv-x="698" unicode="&#344;" /><glyph d="M270 -11Q205 -11 142.5 3Q80 17 34 42V188Q86 156 148 139Q210 122 269 122Q332 122 366 142Q400 162 400 201Q400 225 377 243.5Q354 262 274 290Q210 311 180 325.5Q150 340 128 357Q92 383 75 417.5Q58 452 58 495Q58 587 133.5 649Q209 711 323 711Q379 711 427 699.5Q475 688 522 664V523Q476 551 428 565Q380 579 332 579Q278 579 246 558.5Q214 538 214 503Q214 479 237.5 460.5Q261 442 341 414Q405 392 435.5 378Q466 364 488 347Q524 321 541.5 286.5Q559 252 559 209Q559 112 477.5 50.5Q396 -11 270 -11Z" glyph-name="S" horiz-adv-x="602" unicode="S" /><glyph d="M270 -11Q205 -11 142.5 3Q80 17 34 42V188Q86 156 148 139Q210 122 269 122Q332 122 366 142Q400 162 400 201Q400 225 377 243.5Q354 262 274 290Q210 311 180 325.5Q150 340 128 357Q92 383 75 417.5Q58 452 58 495Q58 587 133.5 649Q209 711 323 711Q379 711 427 699.5Q475 688 522 664V523Q476 551 428 565Q380 579 332 579Q278 579 246 558.5Q214 538 214 503Q214 479 237.5 460.5Q261 442 341 414Q405 392 435.5 378Q466 364 488 347Q524 321 541.5 286.5Q559 252 559 209Q559 112 477.5 50.5Q396 -11 270 -11ZM583 927 383 766H262L369 927Z" glyph-name="Sacute" horiz-adv-x="602" unicode="&#346;" /><glyph d="M270 -11Q205 -11 142.5 3Q80 17 34 42V188Q86 156 148 139Q210 122 269 122Q332 122 366 142Q400 162 400 201Q400 225 377 243.5Q354 262 274 290Q210 311 180 325.5Q150 340 128 357Q92 383 75 417.5Q58 452 58 495Q58 587 133.5 649Q209 711 323 711Q379 711 427 699.5Q475 688 522 664V523Q476 551 428 565Q380 579 332 579Q278 579 246 558.5Q214 538 214 503Q214 479 237.5 460.5Q261 442 341 414Q405 392 435.5 378Q466 364 488 347Q524 321 541.5 286.5Q559 252 559 209Q559 112 477.5 50.5Q396 -11 270 -11ZM532 937 399 775H256L122 937H229L327 859L424 937Z" glyph-name="Scaron" horiz-adv-x="602" unicode="&#352;" /><glyph d="M270 -11Q205 -11 142.5 3Q80 17 34 42V188Q86 156 148 139Q210 122 269 122Q332 122 366 142Q400 162 400 201Q400 225 377 243.5Q354 262 274 290Q210 311 180 325.5Q150 340 128 357Q92 383 75 417.5Q58 452 58 495Q58 587 133.5 649Q209 711 323 711Q379 711 427 699.5Q475 688 522 664V523Q476 551 428 565Q380 579 332 579Q278 579 246 558.5Q214 538 214 503Q214 479 237.5 460.5Q261 442 341 414Q405 392 435.5 378Q466 364 488 347Q524 321 541.5 286.5Q559 252 559 209Q559 112 477.5 50.5Q396 -11 270 -11ZM122 766 256 927H399L532 766H424L327 843L229 766Z" glyph-name="Scircumflex" horiz-adv-x="602" unicode="&#348;" /><glyph d="M274 572H27V700H678V572H430V0H274Z" glyph-name="T" horiz-adv-x="704" unicode="T" /><glyph d="M553 417V289H430V0H274V289H151V417H274V572H27V700H678V572H430V417Z" glyph-name="Tbar" horiz-adv-x="704" unicode="&#358;" /><glyph d="M274 572H27V700H678V572H430V0H274ZM556 937 423 775H280L146 937H253L351 859L448 937Z" glyph-name="Tcaron" horiz-adv-x="704" unicode="&#356;" /><glyph d="M461 -135Q461 -180 420.5 -209.5Q380 -239 322 -239Q292 -239 264 -232Q236 -225 216 -213V-140Q239 -151 264 -157Q289 -163 314 -163Q340 -163 356.5 -154Q373 -145 373 -130Q373 -113 350.5 -104Q328 -95 286 -95L325 0H274V572H27V700H678V572H430V0H380L361 -47Q409 -54 435 -77Q461 -100 461 -135Z" glyph-name="Tcommaaccent" horiz-adv-x="704" unicode="&#354;" /><glyph d="M234 132V0H78V701H234V586H362Q481 586 553.5 524Q626 462 626 359Q626 256 553.5 194Q481 132 362 132ZM466 359Q466 406 435.5 432Q405 458 350 458H234V260H350Q405 260 435.5 286Q466 312 466 359Z" glyph-name="Thorn" horiz-adv-x="656" unicode="&#222;" /><glyph d="M377 -11Q232 -11 147 73.5Q62 158 62 305V700H217V314Q217 226 259 178Q301 130 377 130Q453 130 495 178Q537 226 537 314V700H693V305Q693 158 608 73.5Q523 -11 377 -11Z" glyph-name="U" horiz-adv-x="754" unicode="U" /><glyph d="M377 -11Q232 -11 147 73.5Q62 158 62 305V700H217V314Q217 226 259 178Q301 130 377 130Q453 130 495 178Q537 226 537 314V700H693V305Q693 158 608 73.5Q523 -11 377 -11ZM631 927 431 766H310L417 927Z" glyph-name="Uacute" horiz-adv-x="754" unicode="&#218;" /><glyph d="M377 -11Q232 -11 147 73.5Q62 158 62 305V700H217V314Q217 226 259 178Q301 130 377 130Q453 130 495 178Q537 226 537 314V700H693V305Q693 158 608 73.5Q523 -11 377 -11ZM377 758Q294 758 244.5 803Q195 848 195 927H285Q287 894 311 876.5Q335 859 377 859Q419 859 443.5 876.5Q468 894 469 927H559Q559 848 509.5 803Q460 758 377 758Z" glyph-name="Ubreve" horiz-adv-x="754" unicode="&#364;" /><glyph d="M377 -11Q232 -11 147 73.5Q62 158 62 305V700H217V314Q217 226 259 178Q301 130 377 130Q453 130 495 178Q537 226 537 314V700H693V305Q693 158 608 73.5Q523 -11 377 -11ZM172 766 306 927H449L582 766H474L377 843L279 766Z" glyph-name="Ucircumflex" horiz-adv-x="754" unicode="&#219;" /><glyph d="M377 -11Q232 -11 147 73.5Q62 158 62 305V700H217V314Q217 226 259 178Q301 130 377 130Q453 130 495 178Q537 226 537 314V700H693V305Q693 158 608 73.5Q523 -11 377 -11ZM482 766Q448 766 425.5 788Q403 810 403 843Q403 875 425.5 897Q448 919 482 919Q516 919 538 897Q560 875 560 843Q560 810 537.5 788Q515 766 482 766ZM273 766Q239 766 216.5 788Q194 810 194 843Q194 875 216.5 897Q239 919 273 919Q307 919 329 897Q351 875 351 843Q351 810 328.5 788Q306 766 273 766Z" glyph-name="Udieresis" horiz-adv-x="754" unicode="&#220;" /><glyph d="M377 -11Q232 -11 147 73.5Q62 158 62 305V700H217V314Q217 226 259 178Q301 130 377 130Q453 130 495 178Q537 226 537 314V700H693V305Q693 158 608 73.5Q523 -11 377 -11ZM342 927 448 766H328L127 927Z" glyph-name="Ugrave" horiz-adv-x="754" unicode="&#217;" /><glyph d="M377 -11Q232 -11 147 73.5Q62 158 62 305V700H217V314Q217 226 259 178Q301 130 377 130Q453 130 495 178Q537 226 537 314V700H693V305Q693 158 608 73.5Q523 -11 377 -11ZM319 766H223L317 927H474ZM520 766H423L518 927H675Z" glyph-name="Uhungarumlaut" horiz-adv-x="754" unicode="&#368;" /><glyph d="M377 -11Q232 -11 147 73.5Q62 158 62 305V700H217V314Q217 226 259 178Q301 130 377 130Q453 130 495 178Q537 226 537 314V700H693V305Q693 158 608 73.5Q523 -11 377 -11ZM556 894V786H199V894Z" glyph-name="Umacron" horiz-adv-x="754" unicode="&#362;" /><glyph d="M485 -239Q437 -239 406.5 -213Q376 -187 376 -143Q376 -106 393 -72Q410 -38 445 -5Q429 -8 412 -9.5Q395 -11 377 -11Q232 -11 147 73.5Q62 158 62 305V700H217V314Q217 226 259 178Q301 130 377 130Q453 130 495 178Q537 226 537 314V700H693V305Q693 225 661 156Q629 87 572 41Q521 0 497 -35.5Q473 -71 473 -105Q473 -125 483.5 -137Q494 -149 511 -149Q520 -149 525.5 -147.5Q531 -146 536 -143V-231Q521 -235 509 -237Q497 -239 485 -239Z" glyph-name="Uogonek" horiz-adv-x="754" unicode="&#370;" /><glyph d="M377 -11Q232 -11 147 73.5Q62 158 62 305V700H217V314Q217 226 259 178Q301 130 377 130Q453 130 495 178Q537 226 537 314V700H693V305Q693 158 608 73.5Q523 -11 377 -11ZM511 883Q511 827 471.5 787.5Q432 748 377 748Q324 748 284.5 788Q245 828 245 883Q245 938 284 976.5Q323 1015 377 1015Q433 1015 472 976.5Q511 938 511 883ZM319 883Q319 857 335.5 839.5Q352 822 377 822Q403 822 420 839.5Q437 857 437 883Q437 908 420 924.5Q403 941 377 941Q352 941 335.5 924.5Q319 908 319 883Z" glyph-name="Uring" horiz-adv-x="754" unicode="&#366;" /><glyph d="M377 -11Q232 -11 147 73.5Q62 158 62 305V700H217V314Q217 226 259 178Q301 130 377 130Q453 130 495 178Q537 226 537 314V700H693V305Q693 158 608 73.5Q523 -11 377 -11ZM451 760Q436 760 418 768Q400 776 366 802Q338 823 325 829.5Q312 836 302 836Q284 836 274.5 822Q265 808 259 766H176Q177 846 212.5 897Q248 948 304 948Q319 948 337 940Q355 932 389 906Q417 885 430 878.5Q443 872 453 872Q471 872 480 885.5Q489 899 495 943H578Q577 862 542 811Q507 760 451 760Z" glyph-name="Utilde" horiz-adv-x="754" unicode="&#360;" /><glyph d="M728 700 437 0H302L11 700H177L374 204L570 700Z" glyph-name="V" horiz-adv-x="739" unicode="V" /><glyph d="M306 233 441 700H554L690 233L828 700H974L759 0H638L493 477L347 0H226L11 700H168Z" glyph-name="W" horiz-adv-x="985" unicode="W" /><glyph d="M306 233 441 700H554L690 233L828 700H974L759 0H638L493 477L347 0H226L11 700H168ZM747 927 547 766H426L533 927Z" glyph-name="Wacute" horiz-adv-x="985" unicode="&#7810;" /><glyph d="M306 233 441 700H554L690 233L828 700H974L759 0H638L493 477L347 0H226L11 700H168ZM287 766 421 927H564L697 766H589L492 843L394 766Z" glyph-name="Wcircumflex" horiz-adv-x="985" unicode="&#372;" /><glyph d="M306 233 441 700H554L690 233L828 700H974L759 0H638L493 477L347 0H226L11 700H168ZM597 766Q563 766 540.5 788Q518 810 518 843Q518 875 540.5 897Q563 919 597 919Q631 919 653 897Q675 875 675 843Q675 810 652.5 788Q630 766 597 766ZM388 766Q354 766 331.5 788Q309 810 309 843Q309 875 331.5 897Q354 919 388 919Q422 919 444 897Q466 875 466 843Q466 810 443.5 788Q421 766 388 766Z" glyph-name="Wdieresis" horiz-adv-x="985" unicode="&#7812;" /><glyph d="M306 233 441 700H554L690 233L828 700H974L759 0H638L493 477L347 0H226L11 700H168ZM456 927 562 766H442L241 927Z" glyph-name="Wgrave" horiz-adv-x="985" unicode="&#7808;" /><glyph d="M758 0H568L379 252L186 0H11L294 358L29 700H219L390 474L564 700H740L474 367Z" glyph-name="X" horiz-adv-x="769" unicode="X" /><glyph d="M737 700 452 294V0H296V294L11 700H194L381 430L565 700Z" glyph-name="Y" horiz-adv-x="747" unicode="Y" /><glyph d="M737 700 452 294V0H296V294L11 700H194L381 430L565 700ZM629 927 429 766H308L415 927Z" glyph-name="Yacute" horiz-adv-x="747" unicode="&#221;" /><glyph d="M737 700 452 294V0H296V294L11 700H194L381 430L565 700ZM169 766 303 927H446L579 766H471L374 843L276 766Z" glyph-name="Ycircumflex" horiz-adv-x="747" unicode="&#374;" /><glyph d="M737 700 452 294V0H296V294L11 700H194L381 430L565 700ZM478 766Q444 766 421.5 788Q399 810 399 843Q399 875 421.5 897Q444 919 478 919Q512 919 534 897Q556 875 556 843Q556 810 533.5 788Q511 766 478 766ZM269 766Q235 766 212.5 788Q190 810 190 843Q190 875 212.5 897Q235 919 269 919Q303 919 325 897Q347 875 347 843Q347 810 324.5 788Q302 766 269 766Z" glyph-name="Ydieresis" horiz-adv-x="747" unicode="&#376;" /><glyph d="M737 700 452 294V0H296V294L11 700H194L381 430L565 700ZM338 927 444 766H324L123 927Z" glyph-name="Ygrave" horiz-adv-x="747" unicode="&#7922;" /><glyph d="M247 128H639V0H43V95L422 572H56V700H620V595Z" glyph-name="Z" horiz-adv-x="680" unicode="Z" /><glyph d="M247 128H639V0H43V95L422 572H56V700H620V595ZM601 927 401 766H280L387 927Z" glyph-name="Zacute" horiz-adv-x="680" unicode="&#377;" /><glyph d="M247 128H639V0H43V95L422 572H56V700H620V595ZM551 937 418 775H275L141 937H248L346 859L443 937Z" glyph-name="Zcaron" horiz-adv-x="680" unicode="&#381;" /><glyph d="M247 128H639V0H43V95L422 572H56V700H620V595ZM346 766Q308 766 283.5 790.5Q259 815 259 851Q259 887 283.5 911Q308 935 346 935Q384 935 408.5 911Q433 887 433 851Q433 815 408.5 790.5Q384 766 346 766Z" glyph-name="Zdotaccent" horiz-adv-x="680" unicode="&#379;" /><glyph d="M177 145Q177 121 194 107.5Q211 94 240 94Q267 94 290 102Q313 110 337 127V223Q254 220 215.5 201Q177 182 177 145ZM496 0H348L338 52Q306 21 268.5 5Q231 -11 190 -11Q123 -11 80.5 28.5Q38 68 38 131Q38 215 114.5 260.5Q191 306 337 309V327Q337 365 313.5 385Q290 405 245 405Q203 405 157 391.5Q111 378 68 353V473Q108 498 162 512.5Q216 527 267 527Q371 527 428 474.5Q485 422 485 328V110Q485 73 487.5 49Q490 25 496 0Z" glyph-name="a" horiz-adv-x="546" unicode="a" /><glyph d="M177 145Q177 121 194 107.5Q211 94 240 94Q267 94 290 102Q313 110 337 127V223Q254 220 215.5 201Q177 182 177 145ZM496 0H348L338 52Q306 21 268.5 5Q231 -11 190 -11Q123 -11 80.5 28.5Q38 68 38 131Q38 215 114.5 260.5Q191 306 337 309V327Q337 365 313.5 385Q290 405 245 405Q203 405 157 391.5Q111 378 68 353V473Q108 498 162 512.5Q216 527 267 527Q371 527 428 474.5Q485 422 485 328V110Q485 73 487.5 49Q490 25 496 0ZM454 790 310 596H215L279 790Z" glyph-name="aacute" horiz-adv-x="546" unicode="&#225;" /><glyph d="M177 145Q177 121 194 107.5Q211 94 240 94Q267 94 290 102Q313 110 337 127V223Q254 220 215.5 201Q177 182 177 145ZM496 0H348L338 52Q306 21 268.5 5Q231 -11 190 -11Q123 -11 80.5 28.5Q38 68 38 131Q38 215 114.5 260.5Q191 306 337 309V327Q337 365 313.5 385Q290 405 245 405Q203 405 157 391.5Q111 378 68 353V473Q108 498 162 512.5Q216 527 267 527Q371 527 428 474.5Q485 422 485 328V110Q485 73 487.5 49Q490 25 496 0ZM276 596Q203 596 157 649.5Q111 703 111 790H201Q203 747 223 723Q243 699 276 699Q310 699 330 723Q350 747 351 790H441Q441 703 395 649.5Q349 596 276 596Z" glyph-name="abreve" horiz-adv-x="546" unicode="&#259;" /><glyph d="M177 145Q177 121 194 107.5Q211 94 240 94Q267 94 290 102Q313 110 337 127V223Q254 220 215.5 201Q177 182 177 145ZM496 0H348L338 52Q306 21 268.5 5Q231 -11 190 -11Q123 -11 80.5 28.5Q38 68 38 131Q38 215 114.5 260.5Q191 306 337 309V327Q337 365 313.5 385Q290 405 245 405Q203 405 157 391.5Q111 378 68 353V473Q108 498 162 512.5Q216 527 267 527Q371 527 428 474.5Q485 422 485 328V110Q485 73 487.5 49Q490 25 496 0ZM103 596 205 790H348L449 596H355L276 699L197 596Z" glyph-name="acircumflex" horiz-adv-x="546" unicode="&#226;" /><glyph d="M394 790 250 596H155L219 790Z" glyph-name="acute" horiz-adv-x="536" unicode="&#180;" /><glyph d="M428 927 228 766H107L214 927Z" glyph-name="acute.cap" horiz-adv-x="536" /><glyph d="M177 145Q177 121 194 107.5Q211 94 240 94Q267 94 290 102Q313 110 337 127V223Q254 220 215.5 201Q177 182 177 145ZM496 0H348L338 52Q306 21 268.5 5Q231 -11 190 -11Q123 -11 80.5 28.5Q38 68 38 131Q38 215 114.5 260.5Q191 306 337 309V327Q337 365 313.5 385Q290 405 245 405Q203 405 157 391.5Q111 378 68 353V473Q108 498 162 512.5Q216 527 267 527Q371 527 428 474.5Q485 422 485 328V110Q485 73 487.5 49Q490 25 496 0ZM381 623Q346 623 324 644.5Q302 666 302 699Q302 731 324.5 753Q347 775 381 775Q414 775 436.5 753Q459 731 459 699Q459 666 437 644.5Q415 623 381 623ZM172 623Q137 623 115 644.5Q93 666 93 699Q93 731 115.5 753Q138 775 172 775Q205 775 227.5 753Q250 731 250 699Q250 666 228 644.5Q206 623 172 623Z" glyph-name="adieresis" horiz-adv-x="546" unicode="&#228;" /><glyph d="M625 -11Q553 -11 493.5 14Q434 39 396 86Q352 36 302 12.5Q252 -11 190 -11Q123 -11 80.5 29Q38 69 38 133Q38 216 116.5 264Q195 312 338 316V328Q338 366 314.5 385.5Q291 405 245 405Q203 405 157 391.5Q111 378 68 353V473Q108 498 162 512.5Q216 527 267 527Q324 527 364.5 510.5Q405 494 429 462Q462 494 504 510.5Q546 527 592 527Q708 527 769 443Q830 359 817 227H477Q489 172 534.5 141Q580 110 647 110Q687 110 721.5 117.5Q756 125 792 141V25Q754 6 714 -2.5Q674 -11 625 -11ZM586 414Q544 414 515 388Q486 362 477 316H674Q675 361 651.5 387.5Q628 414 586 414ZM177 148Q177 124 192.5 110.5Q208 97 234 97Q267 97 297.5 113.5Q328 130 354 162Q348 179 344.5 195Q341 211 340 227H336Q254 223 215.5 203.5Q177 184 177 148Z" glyph-name="ae" horiz-adv-x="849" unicode="&#230;" /><glyph d="M625 -11Q553 -11 493.5 14Q434 39 396 86Q352 36 302 12.5Q252 -11 190 -11Q123 -11 80.5 29Q38 69 38 133Q38 216 116.5 264Q195 312 338 316V328Q338 366 314.5 385.5Q291 405 245 405Q203 405 157 391.5Q111 378 68 353V473Q108 498 162 512.5Q216 527 267 527Q324 527 364.5 510.5Q405 494 429 462Q462 494 504 510.5Q546 527 592 527Q708 527 769 443Q830 359 817 227H477Q489 172 534.5 141Q580 110 647 110Q687 110 721.5 117.5Q756 125 792 141V25Q754 6 714 -2.5Q674 -11 625 -11ZM586 414Q544 414 515 388Q486 362 477 316H674Q675 361 651.5 387.5Q628 414 586 414ZM177 148Q177 124 192.5 110.5Q208 97 234 97Q267 97 297.5 113.5Q328 130 354 162Q348 179 344.5 195Q341 211 340 227H336Q254 223 215.5 203.5Q177 184 177 148ZM611 790 467 596H372L436 790Z" glyph-name="aeacute" horiz-adv-x="849" unicode="&#509;" /><glyph d="M177 145Q177 121 194 107.5Q211 94 240 94Q267 94 290 102Q313 110 337 127V223Q254 220 215.5 201Q177 182 177 145ZM496 0H348L338 52Q306 21 268.5 5Q231 -11 190 -11Q123 -11 80.5 28.5Q38 68 38 131Q38 215 114.5 260.5Q191 306 337 309V327Q337 365 313.5 385Q290 405 245 405Q203 405 157 391.5Q111 378 68 353V473Q108 498 162 512.5Q216 527 267 527Q371 527 428 474.5Q485 422 485 328V110Q485 73 487.5 49Q490 25 496 0ZM272 790 335 596H239L96 790Z" glyph-name="agrave" horiz-adv-x="546" unicode="&#224;" /><glyph d="M177 145Q177 121 194 107.5Q211 94 240 94Q267 94 290 102Q313 110 337 127V223Q254 220 215.5 201Q177 182 177 145ZM496 0H348L338 52Q306 21 268.5 5Q231 -11 190 -11Q123 -11 80.5 28.5Q38 68 38 131Q38 215 114.5 260.5Q191 306 337 309V327Q337 365 313.5 385Q290 405 245 405Q203 405 157 391.5Q111 378 68 353V473Q108 498 162 512.5Q216 527 267 527Q371 527 428 474.5Q485 422 485 328V110Q485 73 487.5 49Q490 25 496 0ZM443 747V640H109V747Z" glyph-name="amacron" horiz-adv-x="546" unicode="&#257;" /><glyph d="M168 217Q168 168 202 137Q236 106 291 106Q321 106 349.5 114Q378 122 403 138L229 318Q201 304 184.5 276.5Q168 249 168 217ZM720 0H538L486 54Q441 22 390.5 5.5Q340 -11 288 -11Q172 -11 99.5 50.5Q27 112 27 213Q27 272 61 323Q95 374 153 404Q134 432 125 459.5Q116 487 116 519Q116 603 178.5 657Q241 711 340 711Q386 711 429.5 698Q473 685 503 662V529Q463 561 425.5 575.5Q388 590 351 590Q311 590 287 568.5Q263 547 263 512Q263 493 272.5 474Q282 455 320 415L490 239Q506 272 514.5 309.5Q523 347 524 388H661Q660 323 639 260.5Q618 198 579 146Z" glyph-name="ampersand" horiz-adv-x="718" unicode="&amp;" /><glyph d="M270 -143Q270 -91 303 -46Q320 -22 348 1L338 52Q306 21 268.5 5Q231 -11 190 -11Q123 -11 80.5 28.5Q38 68 38 131Q38 215 114.5 260.5Q191 306 337 309V327Q337 365 313.5 385Q290 405 245 405Q203 405 157 391.5Q111 378 68 353V473Q108 498 162 512.5Q216 527 267 527Q371 527 428 474.5Q485 422 485 328V110Q485 73 487.5 49Q490 25 496 0H432Q403 -26 386 -52Q368 -82 368 -109Q368 -127 378.5 -138Q389 -149 406 -149Q415 -149 420.5 -147.5Q426 -146 431 -143V-231Q413 -236 402 -237.5Q391 -239 380 -239Q332 -239 301 -213Q270 -187 270 -143ZM177 145Q177 121 194 107.5Q211 94 240 94Q267 94 290 102Q313 110 337 127V223Q254 220 215.5 201Q177 182 177 145Z" glyph-name="aogonek" horiz-adv-x="546" unicode="&#261;" /><glyph d="M177 145Q177 121 194 107.5Q211 94 240 94Q267 94 290 102Q313 110 337 127V223Q254 220 215.5 201Q177 182 177 145ZM496 0H348L338 52Q306 21 268.5 5Q231 -11 190 -11Q123 -11 80.5 28.5Q38 68 38 131Q38 215 114.5 260.5Q191 306 337 309V327Q337 365 313.5 385Q290 405 245 405Q203 405 157 391.5Q111 378 68 353V473Q108 498 162 512.5Q216 527 267 527Q371 527 428 474.5Q485 422 485 328V110Q485 73 487.5 49Q490 25 496 0ZM275 819Q324 819 359 785Q394 751 394 702Q394 653 359 618Q324 583 275 583Q227 583 192.5 618.5Q158 654 158 702Q158 751 192.5 785Q227 819 275 819ZM275 755Q253 755 237.5 739.5Q222 724 222 702Q222 679 237.5 663Q253 647 275 647Q297 647 313 663Q329 679 329 702Q329 724 313.5 739.5Q298 755 275 755Z" glyph-name="aring" horiz-adv-x="546" unicode="&#229;" /><glyph d="M44 406 204 701H348L507 406H389L276 576L163 406Z" glyph-name="asciicircum" horiz-adv-x="552" unicode="^" /><glyph d="M381 185Q364 185 345.5 194Q327 203 293 231Q266 254 252.5 261Q239 268 227 268Q202 268 187 249Q172 230 164 183H70Q73 278 114.5 340.5Q156 403 218 403Q236 403 254.5 394Q273 385 306 358Q334 335 347 328Q360 321 372 321Q397 321 411.5 339.5Q426 358 436 406H530Q527 310 485.5 247.5Q444 185 381 185Z" glyph-name="asciitilde" horiz-adv-x="600" unicode="~" /><glyph d="M399 468 308 402 285 433 237 535 189 433 167 402 74 468 99 501 180 575 69 588 31 600 66 708 105 696 202 641 180 752V791H294V751L272 641L369 696L408 708L443 600L405 588L293 575L375 501Z" glyph-name="asterisk" horiz-adv-x="475" unicode="*" /><glyph d="M967 312Q967 185 898 103Q829 21 731 21Q686 21 652.5 35Q619 49 593 79Q569 54 530.5 38Q492 22 454 22Q395 22 356.5 56.5Q318 91 318 145Q318 217 386.5 258Q455 299 580 301V314Q580 347 560 364Q540 381 501 381Q465 381 425 369.5Q385 358 347 337V441Q380 462 427 474.5Q474 487 520 487Q610 487 660.5 441.5Q711 396 711 315V124Q716 119 725.5 115.5Q735 112 744 112Q795 112 826.5 164.5Q858 217 858 305Q858 438 765.5 525.5Q673 613 538 613Q376 613 270 505Q164 397 164 231Q164 75 272.5 -26Q381 -127 543 -127Q630 -127 710.5 -102Q791 -77 848 -32V-142Q785 -185 710.5 -205.5Q636 -226 542 -226Q444 -226 355 -193.5Q266 -161 199 -101Q128 -38 91 47Q54 132 54 231Q54 330 90 418.5Q126 507 194 574Q261 641 349.5 676.5Q438 712 537 712Q623 712 700.5 683.5Q778 655 838 602Q900 547 933.5 472Q967 397 967 312ZM451 159Q451 138 465 126Q479 114 503 114Q523 114 542 119.5Q561 125 580 137V230Q514 227 482.5 209.5Q451 192 451 159Z" glyph-name="at" horiz-adv-x="1021" unicode="@" /><glyph d="M177 145Q177 121 194 107.5Q211 94 240 94Q267 94 290 102Q313 110 337 127V223Q254 220 215.5 201Q177 182 177 145ZM496 0H348L338 52Q306 21 268.5 5Q231 -11 190 -11Q123 -11 80.5 28.5Q38 68 38 131Q38 215 114.5 260.5Q191 306 337 309V327Q337 365 313.5 385Q290 405 245 405Q203 405 157 391.5Q111 378 68 353V473Q108 498 162 512.5Q216 527 267 527Q371 527 428 474.5Q485 422 485 328V110Q485 73 487.5 49Q490 25 496 0ZM342 608Q327 608 310.5 616Q294 624 264 649Q239 670 227 676.5Q215 683 205 683Q187 683 177.5 668.5Q168 654 164 613H83Q84 693 118 744Q152 795 207 795Q222 795 238 787Q254 779 284 754Q309 733 321 726.5Q333 720 343 720Q361 720 370.5 734Q380 748 384 790H465Q464 710 430 659Q396 608 342 608Z" glyph-name="atilde" horiz-adv-x="546" unicode="&#227;" /><glyph d="M296 -11Q233 -11 177 1Q121 13 68 38V783L217 802V470Q244 496 283 511.5Q322 527 364 527Q464 527 525 458Q586 389 586 275Q586 149 504.5 69Q423 -11 296 -11ZM316 401Q289 401 262 392.5Q235 384 217 370V122Q233 115 253.5 111.5Q274 108 294 108Q357 108 395 151Q433 194 433 267Q433 329 401.5 365Q370 401 316 401Z" glyph-name="b" horiz-adv-x="613" unicode="b" /><glyph d="M19 791H168L468 -122H320Z" glyph-name="backslash" horiz-adv-x="475" unicode="\" /><glyph d="M248 791V-122H109V791Z" glyph-name="bar" horiz-adv-x="356" unicode="|" /><glyph d="M73 273H22V396H73Q110 396 124.5 412.5Q139 429 139 466L115 639Q115 707 164.5 749Q214 791 287 791Q313 791 344 785.5Q375 780 395 772V668Q385 673 369 676Q353 679 339 679Q303 679 278.5 657Q254 635 254 599L274 442Q274 402 242.5 372.5Q211 343 165 334Q210 327 242 297.5Q274 268 274 227L254 69Q254 33 278.5 11.5Q303 -10 339 -10Q353 -10 369 -7Q385 -4 395 1V-103Q376 -111 345 -116.5Q314 -122 287 -122Q214 -122 164.5 -80Q115 -38 115 30L139 202Q139 240 124.5 256.5Q110 273 73 273Z" glyph-name="braceleft" horiz-adv-x="426" unicode="{" /><glyph d="M353 273Q316 273 301.5 256.5Q287 240 287 202L311 30Q311 -38 261.5 -80Q212 -122 139 -122Q112 -122 81 -116.5Q50 -111 31 -103V1Q41 -4 57 -7Q73 -10 87 -10Q123 -10 147.5 11.5Q172 33 172 69L152 227Q152 268 184 297.5Q216 327 261 334Q215 343 183.5 372.5Q152 402 152 442L172 599Q172 635 147.5 657Q123 679 87 679Q73 679 57 676Q41 673 31 668V772Q51 780 82 785.5Q113 791 139 791Q212 791 261.5 749Q311 707 311 639L287 466Q287 429 301.5 412.5Q316 396 353 396H404V273H353Z" glyph-name="braceright" horiz-adv-x="426" unicode="}" /><glyph d="M378 676H220V-7H378V-122H77V791H378Z" glyph-name="bracketleft" horiz-adv-x="409" unicode="[" /><glyph d="M31 791H332V-122H31V-7H189V676H31Z" glyph-name="bracketright" horiz-adv-x="409" unicode="]" /><glyph d="M268 596Q195 596 149 649.5Q103 703 103 790H193Q195 747 215 723Q235 699 268 699Q302 699 322 723Q342 747 343 790H433Q433 703 387 649.5Q341 596 268 596Z" glyph-name="breve" horiz-adv-x="536" unicode="&#728;" /><glyph d="M268 758Q185 758 135.5 803Q86 848 86 927H176Q178 894 202 876.5Q226 859 268 859Q310 859 334.5 876.5Q359 894 360 927H450Q450 848 400.5 803Q351 758 268 758Z" glyph-name="breve.cap" horiz-adv-x="536" /><glyph d="M447 277Q447 200 391.5 144Q336 88 259 88Q181 88 125.5 144Q70 200 70 277Q70 356 125 411.5Q180 467 259 467Q337 467 392 411.5Q447 356 447 277Z" glyph-name="bullet" horiz-adv-x="517" unicode="&#8226;" /><glyph d="M315 -11Q191 -11 110.5 64Q30 139 30 258Q30 378 110 452.5Q190 527 315 527Q342 527 368 522.5Q394 518 419 509V382Q393 392 371.5 395.5Q350 399 323 399Q260 399 217.5 359.5Q175 320 175 258Q175 196 217.5 156.5Q260 117 323 117Q347 117 368.5 121Q390 125 420 135V8Q395 -1 368 -6Q341 -11 315 -11Z" glyph-name="c" horiz-adv-x="462" unicode="c" /><glyph d="M315 -11Q191 -11 110.5 64Q30 139 30 258Q30 378 110 452.5Q190 527 315 527Q342 527 368 522.5Q394 518 419 509V382Q393 392 371.5 395.5Q350 399 323 399Q260 399 217.5 359.5Q175 320 175 258Q175 196 217.5 156.5Q260 117 323 117Q347 117 368.5 121Q390 125 420 135V8Q395 -1 368 -6Q341 -11 315 -11ZM472 790 328 596H233L297 790Z" glyph-name="cacute" horiz-adv-x="462" unicode="&#263;" /><glyph d="M442 790 341 596H198L96 790H190L269 687L348 790Z" glyph-name="caron" horiz-adv-x="536" unicode="&#711;" /><glyph d="M243 547H157L188 790H343Z" glyph-name="caron.Slovak" horiz-adv-x="444" /><glyph d="M474 937 341 775H198L64 937H171L269 859L366 937Z" glyph-name="caron.cap" horiz-adv-x="536" /><glyph d="M315 -11Q191 -11 110.5 64Q30 139 30 258Q30 378 110 452.5Q190 527 315 527Q342 527 368 522.5Q394 518 419 509V382Q393 392 371.5 395.5Q350 399 323 399Q260 399 217.5 359.5Q175 320 175 258Q175 196 217.5 156.5Q260 117 323 117Q347 117 368.5 121Q390 125 420 135V8Q395 -1 368 -6Q341 -11 315 -11ZM461 790 360 596H217L115 790H209L288 687L367 790Z" glyph-name="ccaron" horiz-adv-x="462" unicode="&#269;" /><glyph d="M370 -135Q370 -180 329.5 -209.5Q289 -239 231 -239Q201 -239 173 -232Q145 -225 125 -213V-140Q148 -151 173 -157Q198 -163 223 -163Q249 -163 265.5 -154Q282 -145 282 -130Q282 -113 259.5 -104Q237 -95 195 -95L234 -2Q163 15 110 64Q30 139 30 258Q30 378 110 452.5Q190 527 315 527Q342 527 368 522.5Q394 518 419 509V382Q393 392 371.5 395.5Q350 399 323 399Q260 399 217.5 359.5Q175 320 175 258Q175 196 217.5 156.5Q260 117 323 117Q347 117 368.5 121Q390 125 420 135V8Q395 -1 368 -6Q341 -11 315 -11Q300 -11 285 -10L270 -47Q318 -54 344 -77Q370 -100 370 -135Z" glyph-name="ccedilla" horiz-adv-x="462" unicode="&#231;" /><glyph d="M315 -11Q191 -11 110.5 64Q30 139 30 258Q30 378 110 452.5Q190 527 315 527Q342 527 368 522.5Q394 518 419 509V382Q393 392 371.5 395.5Q350 399 323 399Q260 399 217.5 359.5Q175 320 175 258Q175 196 217.5 156.5Q260 117 323 117Q347 117 368.5 121Q390 125 420 135V8Q395 -1 368 -6Q341 -11 315 -11ZM115 596 217 790H360L461 596H367L288 699L209 596Z" glyph-name="ccircumflex" horiz-adv-x="462" unicode="&#265;" /><glyph d="M315 -11Q191 -11 110.5 64Q30 139 30 258Q30 378 110 452.5Q190 527 315 527Q342 527 368 522.5Q394 518 419 509V382Q393 392 371.5 395.5Q350 399 323 399Q260 399 217.5 359.5Q175 320 175 258Q175 196 217.5 156.5Q260 117 323 117Q347 117 368.5 121Q390 125 420 135V8Q395 -1 368 -6Q341 -11 315 -11ZM288 613Q250 613 225.5 637Q201 661 201 697Q201 733 225.5 757.5Q250 782 288 782Q326 782 350.5 757.5Q375 733 375 697Q375 661 350.5 637Q326 613 288 613Z" glyph-name="cdotaccent" horiz-adv-x="462" unicode="&#267;" /><glyph d="M382 -135Q382 -180 341.5 -209.5Q301 -239 243 -239Q213 -239 185 -232Q157 -225 137 -213V-140Q160 -151 185 -157Q210 -163 235 -163Q261 -163 277.5 -154Q294 -145 294 -130Q294 -113 271.5 -104Q249 -95 207 -95L250 8H305L282 -47Q330 -54 356 -77Q382 -100 382 -135Z" glyph-name="cedilla" horiz-adv-x="536" unicode="&#184;" /><glyph d="M469 228V103Q444 94 414 87.5Q384 81 360 80V-77H235V94Q141 121 86.5 187Q32 253 32 343Q32 434 86.5 500Q141 566 235 593V773H360V607Q385 606 413.5 600Q442 594 467 585V460Q437 470 407.5 475Q378 480 346 480Q271 480 225 443.5Q179 407 179 343Q179 280 225 243.5Q271 207 346 207Q377 207 407.5 212Q438 217 469 228Z" glyph-name="cent" horiz-adv-x="504" unicode="&#162;" /><glyph d="M96 596 198 790H341L442 596H348L269 699L190 596Z" glyph-name="circumflex" horiz-adv-x="536" unicode="&#710;" /><glyph d="M64 766 198 927H341L474 766H366L269 843L171 766Z" glyph-name="circumflex.cap" horiz-adv-x="536" /><glyph d="M141 -9Q101 -9 73 19Q45 47 45 88Q45 128 73 156.5Q101 185 141 185Q181 185 209.5 156.5Q238 128 238 88Q238 48 210 19.5Q182 -9 141 -9ZM141 320Q101 320 73 348Q45 376 45 417Q45 457 73 485.5Q101 514 141 514Q181 514 209.5 485.5Q238 457 238 417Q238 377 210 348.5Q182 320 141 320Z" glyph-name="colon" horiz-adv-x="282" unicode=":" /><glyph d="M72 156H224Q224 83 190 -4Q156 -91 116 -133H18Q41 -78 56.5 3Q72 84 72 156Z" glyph-name="comma" horiz-adv-x="282" unicode="," /><glyph d="M41 351Q41 505 145 608.5Q249 712 402 712Q555 712 658.5 609Q762 506 762 351Q762 196 658.5 92.5Q555 -11 402 -11Q249 -11 145 92.5Q41 196 41 351ZM106 351Q106 224 191.5 139.5Q277 55 402 55Q526 55 610.5 140Q695 225 695 351Q695 477 610.5 562Q526 647 402 647Q277 647 191.5 562Q106 477 106 351ZM421 153Q337 153 282.5 209Q228 265 228 354Q228 443 282.5 500Q337 557 421 557Q446 557 466 552Q486 547 505 536V435Q488 446 470.5 451.5Q453 457 433 457Q392 457 365 428.5Q338 400 338 354Q338 309 364.5 281.5Q391 254 433 254Q453 254 471 259Q489 264 505 275V175Q485 164 464.5 158.5Q444 153 421 153Z" glyph-name="copyright" horiz-adv-x="802" unicode="&#169;" /><glyph d="M300 115Q328 115 354 123.5Q380 132 399 148V389Q385 399 364 404Q343 409 320 409Q257 409 220 366.5Q183 324 183 251Q183 189 215 152Q247 115 300 115ZM548 12 399 -9V47Q369 19 332 4Q295 -11 255 -11Q155 -11 92.5 59.5Q30 130 30 243Q30 367 108 447Q186 527 303 527Q328 527 353.5 521.5Q379 516 399 506V783L548 802Z" glyph-name="d" horiz-adv-x="616" unicode="d" /><glyph d="M234 602 253 530V378H148V530L168 602L84 582H38V686H83L168 666L148 739V791H253V739L233 666L320 686H364V582H319Z" glyph-name="dagger" horiz-adv-x="403" unicode="&#8224;" /><glyph d="M233 484 253 416V378H148V416L168 484L83 463H38V554H84L161 535V633L84 614H38V706H83L168 685L148 753V791H253V753L233 685L320 706H364V614H319L240 633V535L319 554H364V463H320Z" glyph-name="daggerdbl" horiz-adv-x="403" unicode="&#8225;" /><glyph d="M300 115Q328 115 354 123.5Q380 132 399 148V389Q385 399 364 404Q343 409 320 409Q257 409 220 366.5Q183 324 183 251Q183 189 215 152Q247 115 300 115ZM548 12 399 -9V47Q369 19 332 4Q295 -11 255 -11Q155 -11 92.5 59.5Q30 130 30 243Q30 367 108 447Q186 527 303 527Q328 527 353.5 521.5Q379 516 399 506V783L548 802ZM701 547H615L646 790H801Z" glyph-name="dcaron" horiz-adv-x="776" unicode="&#271;" /><glyph d="M300 115Q328 115 354 123.5Q380 132 399 148V389Q385 399 364 404Q343 409 320 409Q257 409 220 366.5Q183 324 183 251Q183 189 215 152Q247 115 300 115ZM399 -9V47Q369 19 332 4Q295 -11 255 -11Q155 -11 92.5 59.5Q30 130 30 243Q30 367 108 447Q186 527 303 527Q328 527 353.5 521.5Q379 516 399 506V598H258V697H399V783L548 802V697H623V598H548V12Z" glyph-name="dcroat" horiz-adv-x="622" unicode="&#273;" /><glyph d="M41 545Q41 614 90 663Q139 712 208 712Q278 712 327 663Q376 614 376 545Q376 475 327 425.5Q278 376 208 376Q139 376 90 426Q41 476 41 545ZM125 545Q125 511 149.5 486.5Q174 462 208 462Q242 462 266.5 486.5Q291 511 291 545Q291 579 266.5 603.5Q242 628 208 628Q174 628 149.5 603.5Q125 579 125 545Z" glyph-name="degree" horiz-adv-x="416" unicode="&#176;" /><glyph d="M373 623Q338 623 316 644.5Q294 666 294 699Q294 731 316.5 753Q339 775 373 775Q406 775 428.5 753Q451 731 451 699Q451 666 429 644.5Q407 623 373 623ZM164 623Q129 623 107 644.5Q85 666 85 699Q85 731 107.5 753Q130 775 164 775Q197 775 219.5 753Q242 731 242 699Q242 666 220 644.5Q198 623 164 623Z" glyph-name="dieresis" horiz-adv-x="536" unicode="&#168;" /><glyph d="M373 766Q339 766 316.5 788Q294 810 294 843Q294 875 316.5 897Q339 919 373 919Q407 919 429 897Q451 875 451 843Q451 810 428.5 788Q406 766 373 766ZM164 766Q130 766 107.5 788Q85 810 85 843Q85 875 107.5 897Q130 919 164 919Q198 919 220 897Q242 875 242 843Q242 810 219.5 788Q197 766 164 766Z" glyph-name="dieresis.cap" horiz-adv-x="536" /><glyph d="M296 459Q261 459 236.5 483Q212 507 212 541Q212 576 236.5 601Q261 626 296 626Q330 626 355 600.5Q380 575 380 541Q380 508 355 483.5Q330 459 296 459ZM555 287H46V394H555ZM296 56Q261 56 236.5 79.5Q212 103 212 137Q212 173 236.5 198Q261 223 296 223Q330 223 355 197.5Q380 172 380 137Q380 104 355 80Q330 56 296 56Z" glyph-name="divide" horiz-adv-x="601" unicode="&#247;" /><glyph d="M338 62V-77H215V55Q162 59 115.5 69.5Q69 80 36 96V231Q81 206 148.5 189.5Q216 173 268 173Q316 173 341.5 187Q367 201 367 228Q367 246 347 259Q327 272 256 292Q198 309 170 320Q142 331 121 344Q86 366 68.5 395Q51 424 51 462Q51 521 96 568Q141 615 215 633V773H338V642Q374 639 409 630.5Q444 622 484 606V474Q447 495 392 508.5Q337 522 292 522Q252 522 229.5 508Q207 494 207 470Q207 452 227.5 438.5Q248 425 320 404Q377 388 404.5 377Q432 366 453 354Q488 332 505.5 303.5Q523 275 523 238Q523 173 473 126Q423 79 338 62Z" glyph-name="dollar" horiz-adv-x="559" unicode="$" /><glyph d="M268 613Q230 613 205.5 637Q181 661 181 697Q181 733 205.5 757.5Q230 782 268 782Q306 782 330.5 757.5Q355 733 355 697Q355 661 330.5 637Q306 613 268 613Z" glyph-name="dotaccent" horiz-adv-x="536" unicode="&#729;" /><glyph d="M268 766Q230 766 205.5 790.5Q181 815 181 851Q181 887 205.5 911Q230 935 268 935Q306 935 330.5 911Q355 887 355 851Q355 815 330.5 790.5Q306 766 268 766Z" glyph-name="dotaccent.cap" horiz-adv-x="536" /><glyph d="M217 0H68V504L217 525Z" glyph-name="dotlessi" horiz-adv-x="285" unicode="&#305;" /><glyph d="M284 414Q241 414 211 386.5Q181 359 172 311H376V315Q376 359 351.5 386.5Q327 414 284 414ZM491 141V25Q454 6 413.5 -2.5Q373 -11 324 -11Q194 -11 112 64Q30 139 30 258Q30 374 103.5 450.5Q177 527 289 527Q397 527 458 457Q519 387 519 268Q519 251 518.5 242Q518 233 517 226H173Q186 171 232 140.5Q278 110 347 110Q387 110 421.5 117.5Q456 125 491 141Z" glyph-name="e" horiz-adv-x="548" unicode="e" /><glyph d="M284 414Q241 414 211 386.5Q181 359 172 311H376V315Q376 359 351.5 386.5Q327 414 284 414ZM491 141V25Q454 6 413.5 -2.5Q373 -11 324 -11Q194 -11 112 64Q30 139 30 258Q30 374 103.5 450.5Q177 527 289 527Q397 527 458 457Q519 387 519 268Q519 251 518.5 242Q518 233 517 226H173Q186 171 232 140.5Q278 110 347 110Q387 110 421.5 117.5Q456 125 491 141ZM470 790 326 596H231L295 790Z" glyph-name="eacute" horiz-adv-x="548" unicode="&#233;" /><glyph d="M284 414Q241 414 211 386.5Q181 359 172 311H376V315Q376 359 351.5 386.5Q327 414 284 414ZM491 141V25Q454 6 413.5 -2.5Q373 -11 324 -11Q194 -11 112 64Q30 139 30 258Q30 374 103.5 450.5Q177 527 289 527Q397 527 458 457Q519 387 519 268Q519 251 518.5 242Q518 233 517 226H173Q186 171 232 140.5Q278 110 347 110Q387 110 421.5 117.5Q456 125 491 141ZM291 596Q218 596 172 649.5Q126 703 126 790H216Q218 747 238 723Q258 699 291 699Q325 699 345 723Q365 747 366 790H456Q456 703 410 649.5Q364 596 291 596Z" glyph-name="ebreve" horiz-adv-x="548" unicode="&#277;" /><glyph d="M284 414Q241 414 211 386.5Q181 359 172 311H376V315Q376 359 351.5 386.5Q327 414 284 414ZM491 141V25Q454 6 413.5 -2.5Q373 -11 324 -11Q194 -11 112 64Q30 139 30 258Q30 374 103.5 450.5Q177 527 289 527Q397 527 458 457Q519 387 519 268Q519 251 518.5 242Q518 233 517 226H173Q186 171 232 140.5Q278 110 347 110Q387 110 421.5 117.5Q456 125 491 141ZM464 790 363 596H220L118 790H212L291 687L370 790Z" glyph-name="ecaron" horiz-adv-x="548" unicode="&#283;" /><glyph d="M284 414Q241 414 211 386.5Q181 359 172 311H376V315Q376 359 351.5 386.5Q327 414 284 414ZM491 141V25Q454 6 413.5 -2.5Q373 -11 324 -11Q194 -11 112 64Q30 139 30 258Q30 374 103.5 450.5Q177 527 289 527Q397 527 458 457Q519 387 519 268Q519 251 518.5 242Q518 233 517 226H173Q186 171 232 140.5Q278 110 347 110Q387 110 421.5 117.5Q456 125 491 141ZM118 596 220 790H363L464 596H370L291 699L212 596Z" glyph-name="ecircumflex" horiz-adv-x="548" unicode="&#234;" /><glyph d="M284 414Q241 414 211 386.5Q181 359 172 311H376V315Q376 359 351.5 386.5Q327 414 284 414ZM491 141V25Q454 6 413.5 -2.5Q373 -11 324 -11Q194 -11 112 64Q30 139 30 258Q30 374 103.5 450.5Q177 527 289 527Q397 527 458 457Q519 387 519 268Q519 251 518.5 242Q518 233 517 226H173Q186 171 232 140.5Q278 110 347 110Q387 110 421.5 117.5Q456 125 491 141ZM396 623Q361 623 339 644.5Q317 666 317 699Q317 731 339.5 753Q362 775 396 775Q429 775 451.5 753Q474 731 474 699Q474 666 452 644.5Q430 623 396 623ZM187 623Q152 623 130 644.5Q108 666 108 699Q108 731 130.5 753Q153 775 187 775Q220 775 242.5 753Q265 731 265 699Q265 666 243 644.5Q221 623 187 623Z" glyph-name="edieresis" horiz-adv-x="548" unicode="&#235;" /><glyph d="M284 414Q241 414 211 386.5Q181 359 172 311H376V315Q376 359 351.5 386.5Q327 414 284 414ZM491 141V25Q454 6 413.5 -2.5Q373 -11 324 -11Q194 -11 112 64Q30 139 30 258Q30 374 103.5 450.5Q177 527 289 527Q397 527 458 457Q519 387 519 268Q519 251 518.5 242Q518 233 517 226H173Q186 171 232 140.5Q278 110 347 110Q387 110 421.5 117.5Q456 125 491 141ZM291 613Q253 613 228.5 637Q204 661 204 697Q204 733 228.5 757.5Q253 782 291 782Q329 782 353.5 757.5Q378 733 378 697Q378 661 353.5 637Q329 613 291 613Z" glyph-name="edotaccent" horiz-adv-x="548" unicode="&#279;" /><glyph d="M284 414Q241 414 211 386.5Q181 359 172 311H376V315Q376 359 351.5 386.5Q327 414 284 414ZM491 141V25Q454 6 413.5 -2.5Q373 -11 324 -11Q194 -11 112 64Q30 139 30 258Q30 374 103.5 450.5Q177 527 289 527Q397 527 458 457Q519 387 519 268Q519 251 518.5 242Q518 233 517 226H173Q186 171 232 140.5Q278 110 347 110Q387 110 421.5 117.5Q456 125 491 141ZM288 790 351 596H255L112 790Z" glyph-name="egrave" horiz-adv-x="548" unicode="&#232;" /><glyph d="M586 191Q586 106 505.5 47.5Q425 -11 307 -11Q191 -11 111 46Q31 103 31 186Q31 239 66.5 282Q102 325 168 352Q119 383 94 422Q69 461 69 507Q69 596 138 653.5Q207 711 312 711Q418 711 486.5 659.5Q555 608 555 530Q555 482 524.5 443.5Q494 405 434 377Q523 335 554.5 293Q586 251 586 191ZM219 525Q219 498 234 480Q249 462 293 441L353 414Q385 436 401 461.5Q417 487 417 514Q417 555 389.5 579.5Q362 604 314 604Q273 604 246 581Q219 558 219 525ZM179 208Q179 164 215.5 134Q252 104 308 104Q359 104 391.5 128Q424 152 424 188Q424 212 406 230Q388 248 337 271L245 313Q213 293 196 266Q179 239 179 208Z" glyph-name="eight" horiz-adv-x="617" unicode="8" /><glyph d="M582 191Q582 106 502 47.5Q422 -11 305 -11Q190 -11 110.5 46Q31 103 31 186Q31 239 66 281Q101 323 167 352Q118 383 93 422Q68 461 68 507Q68 596 137 653.5Q206 711 310 711Q415 711 483 659.5Q551 608 551 530Q551 481 520.5 442.5Q490 404 431 377Q516 340 549 297Q582 254 582 191ZM212 525Q212 498 227 479.5Q242 461 285 442L350 413Q383 437 399.5 462Q416 487 416 514Q416 556 388 581.5Q360 607 312 607Q268 607 240 583.5Q212 560 212 525ZM177 208Q177 164 214 134Q251 104 306 104Q358 104 392.5 128Q427 152 427 188Q427 212 409 230Q391 248 341 271L244 314Q211 294 194 267Q177 240 177 208Z" glyph-name="eight.op" horiz-adv-x="613" /><glyph d="M141 -9Q101 -9 73 19Q45 47 45 88Q45 128 73 156.5Q101 185 141 185Q181 185 209.5 156.5Q238 128 238 88Q238 48 210 19.5Q182 -9 141 -9ZM428 -9Q388 -9 360 19Q332 47 332 88Q332 128 360 156.5Q388 185 428 185Q468 185 496.5 156.5Q525 128 525 88Q525 48 497 19.5Q469 -9 428 -9ZM717 -9Q677 -9 649 19Q621 47 621 88Q621 128 649 156.5Q677 185 717 185Q757 185 785.5 156.5Q814 128 814 88Q814 48 786 19.5Q758 -9 717 -9Z" glyph-name="ellipsis" horiz-adv-x="857" unicode="&#8230;" /><glyph d="M284 414Q241 414 211 386.5Q181 359 172 311H376V315Q376 359 351.5 386.5Q327 414 284 414ZM491 141V25Q454 6 413.5 -2.5Q373 -11 324 -11Q194 -11 112 64Q30 139 30 258Q30 374 103.5 450.5Q177 527 289 527Q397 527 458 457Q519 387 519 268Q519 251 518.5 242Q518 233 517 226H173Q186 171 232 140.5Q278 110 347 110Q387 110 421.5 117.5Q456 125 491 141ZM458 747V640H124V747Z" glyph-name="emacron" horiz-adv-x="548" unicode="&#275;" /><glyph d="M1035 229H70V348H1035Z" glyph-name="emdash" horiz-adv-x="1105" unicode="&#8212;" /><glyph d="M580 229H70V348H580Z" glyph-name="endash" horiz-adv-x="649" unicode="&#8211;" /><glyph d="M480 -228H328Q371 -158 389 -94Q407 -30 408 45V311Q408 355 386.5 377Q365 399 322 399Q294 399 268.5 392Q243 385 217 370V0H68V504L217 525V470Q253 497 295.5 512Q338 527 383 527Q463 527 510 478.5Q557 430 557 348V28Q556 -48 537.5 -110.5Q519 -173 480 -228Z" glyph-name="eng" horiz-adv-x="619" unicode="&#331;" /><glyph d="M284 414Q241 414 211 386.5Q181 359 172 311H376V315Q376 359 351.5 386.5Q327 414 284 414ZM445 -143V-231Q427 -236 416 -237.5Q405 -239 393 -239Q345 -239 314.5 -213Q284 -187 284 -143Q284 -107 300 -74Q316 -41 349 -10Q344 -11 339 -11Q334 -11 324 -11Q194 -11 112 64Q30 139 30 258Q30 374 103.5 450.5Q177 527 289 527Q397 527 458 457Q519 387 519 268Q519 251 518.5 242Q518 233 517 226H173Q186 171 232 140.5Q278 110 347 110Q387 110 421.5 117.5Q456 125 491 141V25Q439 -3 410 -39Q381 -75 381 -109Q381 -127 392 -138Q403 -149 419 -149Q428 -149 433.5 -147.5Q439 -146 445 -143Z" glyph-name="eogonek" horiz-adv-x="548" unicode="&#281;" /><glyph d="M555 390H46V497H555ZM555 178H46V285H555Z" glyph-name="equal" horiz-adv-x="601" unicode="=" /><glyph d="M558 298Q558 164 482 76.5Q406 -11 293 -11Q179 -11 104.5 65Q30 141 30 258Q30 369 100 440Q170 511 278 511Q304 511 329 505Q354 499 377 487Q363 518 343.5 545.5Q324 573 298 596L96 515V615L209 661Q174 680 132 698Q90 716 36 733L169 801Q220 782 263.5 760.5Q307 739 343 714L486 772V672L424 647Q491 578 524.5 491Q558 404 558 298ZM176 258Q176 193 209 153.5Q242 114 296 114Q350 114 381.5 163.5Q413 213 413 299Q413 317 412 336Q411 355 408 374Q391 388 366.5 395.5Q342 403 313 403Q254 403 215 363Q176 323 176 258Z" glyph-name="eth" horiz-adv-x="589" unicode="&#240;" /><glyph d="M232 700 188 251H91L45 700ZM139 -9Q99 -9 70.5 19.5Q42 48 42 88Q42 128 70.5 156.5Q99 185 139 185Q179 185 207.5 156.5Q236 128 236 88Q236 48 208 19.5Q180 -9 139 -9Z" glyph-name="exclam" horiz-adv-x="279" unicode="!" /><glyph d="M47 0 91 449H188L234 0ZM140 709Q180 709 208.5 680.5Q237 652 237 612Q237 572 208.5 543.5Q180 515 140 515Q100 515 71.5 543.5Q43 572 43 612Q43 653 71.5 681Q100 709 140 709Z" glyph-name="exclamdown" horiz-adv-x="279" unicode="&#161;" /><glyph d="M371 404H240V0H90V404H21V516H90V545Q90 662 158.5 732Q227 802 344 802Q368 802 389 798.5Q410 795 433 788V671Q413 676 399 678Q385 680 366 680Q305 680 272.5 646Q240 612 240 549V516H389Z" glyph-name="f" horiz-adv-x="380" unicode="f" /><glyph d="M720 527Q821 527 881.5 458Q942 389 942 275Q942 149 860.5 69Q779 -11 653 -11Q590 -11 534 1Q478 13 425 38V672Q414 676 403 678Q392 680 378 680Q314 680 277 641Q240 602 240 534V516H362L343 404H240V0H90V404H21V516H90V533Q90 650 174.5 726Q259 802 390 802Q432 802 481 793.5Q530 785 575 770V470Q603 497 641 512Q679 527 720 527ZM673 401Q646 401 618.5 392Q591 383 575 370V122Q592 115 611.5 111.5Q631 108 652 108Q715 108 752.5 151.5Q790 195 790 267Q790 329 759 365Q728 401 673 401Z" glyph-name="f_b" horiz-adv-x="971" /><glyph d="M1054 527Q1155 527 1215.5 458Q1276 389 1276 275Q1276 149 1194.5 69Q1113 -11 987 -11Q924 -11 868 1Q812 13 759 38V672Q748 676 737 678Q726 680 712 680Q648 680 611 641Q574 602 574 534V516H696L677 404H574V0H424V404H240V0H90V404H21V516H90V529Q90 646 152 715.5Q214 785 320 785Q344 785 360.5 782.5Q377 780 396 774V657Q387 660 378 661.5Q369 663 351 663Q298 663 269 629Q240 595 240 533V516H424V533Q424 650 508.5 726Q593 802 724 802Q766 802 815 793.5Q864 785 909 770V470Q937 497 975 512Q1013 527 1054 527ZM1007 401Q980 401 952.5 392Q925 383 909 370V122Q926 115 945.5 111.5Q965 108 986 108Q1049 108 1086.5 151.5Q1124 195 1124 267Q1124 329 1093 365Q1062 401 1007 401Z" glyph-name="f_f_b" horiz-adv-x="1305" /><glyph d="M240 404V0H90V404H21V516H90V529Q90 646 152 715.5Q214 785 320 785Q344 785 360.5 782.5Q377 780 396 774V657Q387 660 378 661.5Q369 663 351 663Q298 663 269 629Q240 595 240 533V516H424V533Q424 650 508.5 726Q593 802 724 802Q766 802 815 793.5Q864 785 909 770V470Q945 497 987 512Q1029 527 1073 527Q1154 527 1201.5 478.5Q1249 430 1249 348V0H1099V311Q1099 355 1077.5 377Q1056 399 1013 399Q985 399 959.5 392Q934 385 909 370V0H759V672Q748 676 737 678Q726 680 712 680Q648 680 611 641Q574 602 574 534V516H696L677 404H574V0H424V404Z" glyph-name="f_f_h" horiz-adv-x="1311" /><glyph d="M938 623Q904 623 882 644.5Q860 666 860 699Q860 731 882.5 753Q905 775 938 775Q972 775 994.5 753Q1017 731 1017 699Q1017 666 995 644.5Q973 623 938 623ZM240 404V0H90V404H21V516H90V529Q90 646 152 715.5Q214 785 320 785Q344 785 360.5 782.5Q377 780 396 774V657Q387 660 378 661.5Q369 663 351 663Q298 663 269 629Q240 595 240 533V516H424V545Q424 662 492.5 732Q561 802 678 802Q702 802 723 798.5Q744 795 767 788V671Q747 676 733 678Q719 680 700 680Q639 680 606.5 646Q574 612 574 549V516H759L909 527V0H759V404H574V0H424V404Z" glyph-name="f_f_idieresis" horiz-adv-x="976" /><glyph d="M909 527V28Q908 -48 889.5 -110Q871 -172 831 -228H679Q722 -160 740 -95.5Q758 -31 759 45V404H574V0H424V404H240V0H90V404H21V516H90V529Q90 646 152 715.5Q214 785 320 785Q344 785 360.5 782.5Q377 780 396 774V657Q387 660 378 661.5Q369 663 351 663Q298 663 269 629Q240 595 240 533V516H424V529Q424 652 501.5 727Q579 802 707 802Q736 802 762.5 797.5Q789 793 810 784V668Q788 674 767.5 677Q747 680 720 680Q650 680 612 642Q574 604 574 535V516H759Z" glyph-name="f_f_j" horiz-adv-x="976" /><glyph d="M240 404V0H90V404H21V516H90V529Q90 646 152 715.5Q214 785 320 785Q344 785 360.5 782.5Q377 780 396 774V657Q387 660 378 661.5Q369 663 351 663Q298 663 269 629Q240 595 240 533V516H424V533Q424 650 508.5 726Q593 802 724 802Q766 802 815 793.5Q864 785 909 770V287L1106 516H1276L1069 281L1302 0H1124L909 259V0H759V672Q748 676 737 678Q726 680 712 680Q648 680 611 641Q574 602 574 534V516H696L677 404H574V0H424V404Z" glyph-name="f_f_k" horiz-adv-x="1294" /><glyph d="M240 404V0H90V404H21V516H90V529Q90 646 152 715.5Q214 785 320 785Q344 785 360.5 782.5Q377 780 396 774V657Q387 660 378 661.5Q369 663 351 663Q298 663 269 629Q240 595 240 533V516H424V552Q424 664 488 733Q552 802 656 802Q675 802 690.5 799.5Q706 797 723 792V675Q714 678 706 679Q698 680 687 680Q633 680 603.5 646.5Q574 613 574 552V516H723L705 404H574V0H424V404Z" glyph-name="f_f_short" horiz-adv-x="715" /><glyph d="M343 404H240V0H90V404H21V516H90V533Q90 650 174.5 726Q259 802 390 802Q432 802 481 793.5Q530 785 575 770V470Q611 497 653 512Q695 527 739 527Q820 527 867.5 478.5Q915 430 915 348V0H765V311Q765 355 743.5 377Q722 399 679 399Q651 399 625.5 392Q600 385 575 370V0H425V672Q414 676 403 678Q392 680 378 680Q314 680 277 641Q240 602 240 534V516H362Z" glyph-name="f_h" horiz-adv-x="975" /><glyph d="M604 623Q570 623 548 644.5Q526 666 526 699Q526 731 548.5 753Q571 775 604 775Q638 775 660.5 753Q683 731 683 699Q683 666 661 644.5Q639 623 604 623ZM240 404V0H90V404H21V516H90V545Q90 662 158.5 732Q227 802 344 802Q368 802 389 798.5Q410 795 433 788V671Q413 676 399 678Q385 680 366 680Q305 680 272.5 646Q240 612 240 549V516H425L575 527V0H425V404Z" glyph-name="f_idieresis" horiz-adv-x="642" /><glyph d="M575 527V28Q574 -48 555.5 -110Q537 -172 497 -228H345Q388 -160 406 -95.5Q424 -31 425 45V404H240V0H90V404H21V516H90V529Q90 652 167.5 727Q245 802 373 802Q402 802 428.5 797.5Q455 793 476 784V668Q454 674 433.5 677Q413 680 386 680Q316 680 278 642Q240 604 240 535V516H425Z" glyph-name="f_j" horiz-adv-x="642" /><glyph d="M343 404H240V0H90V404H21V516H90V533Q90 650 174.5 726Q259 802 390 802Q432 802 481 793.5Q530 785 575 770V287L772 516H942L735 281L968 0H790L575 259V0H425V672Q414 676 403 678Q392 680 378 680Q314 680 277 641Q240 602 240 534V516H362Z" glyph-name="f_k" horiz-adv-x="960" /><glyph d="M371 404H240V0H90V404H21V516H90V552Q90 664 154 733Q218 802 322 802Q341 802 356.5 799.5Q372 797 389 792V675Q380 678 372 679Q364 680 353 680Q299 680 269.5 646.5Q240 613 240 552V516H389Z" glyph-name="f_short" horiz-adv-x="380" /><glyph d="M240 404V0H90V404H21V516H90V529Q90 646 152 715.5Q214 785 320 785Q344 785 360.5 782.5Q377 780 396 774V657Q387 660 378 661.5Q369 663 351 663Q298 663 269 629Q240 595 240 533V516H424V545Q424 662 492.5 732Q561 802 678 802Q702 802 723 798.5Q744 795 767 788V671Q747 676 733 678Q719 680 700 680Q639 680 606.5 646Q574 612 574 549V516H723L705 404H574V0H424V404Z" glyph-name="ff" horiz-adv-x="715" unicode="&#64256;" /><glyph d="M240 404V0H90V404H21V516H90V529Q90 646 152 715.5Q214 785 320 785Q344 785 360.5 782.5Q377 780 396 774V657Q387 660 378 661.5Q369 663 351 663Q298 663 269 629Q240 595 240 533V516H424V529Q424 652 501.5 727Q579 802 707 802Q736 802 762.5 797.5Q789 793 810 784V668Q788 674 767.5 677Q747 680 720 680Q650 680 612 642Q574 604 574 535V516H759L909 527V0H759V404H574V0H424V404Z" glyph-name="ffi" horiz-adv-x="976" unicode="&#64259;" /><glyph d="M240 404V0H90V404H21V516H90V529Q90 646 152 715.5Q214 785 320 785Q344 785 360.5 782.5Q377 780 396 774V657Q387 660 378 661.5Q369 663 351 663Q298 663 269 629Q240 595 240 533V516H424V533Q424 650 508.5 726Q593 802 724 802Q766 802 815 793.5Q864 785 909 770V0H759V672Q748 676 737 678Q726 680 712 680Q648 680 611 641Q574 602 574 534V516H696L677 404H574V0H424V404Z" glyph-name="ffl" horiz-adv-x="976" unicode="&#64260;" /><glyph d="M240 404V0H90V404H21V516H90V529Q90 652 167.5 727Q245 802 373 802Q402 802 428.5 797.5Q455 793 476 784V668Q454 674 433.5 677Q413 680 386 680Q316 680 278 642Q240 604 240 535V516H425L575 527V0H425V404Z" glyph-name="fi" horiz-adv-x="642" unicode="&#64257;" /><glyph d="M200 121Q274 121 317 151.5Q360 182 360 235Q360 295 298.5 325.5Q237 356 92 366L120 700H491V565H235L227 472Q370 455 443 396Q516 337 516 238Q516 129 430 59Q344 -11 216 -11Q159 -11 109 1.5Q59 14 17 39V174Q56 148 103 134.5Q150 121 200 121Z" glyph-name="five" horiz-adv-x="552" unicode="5" /><glyph d="M184 -8Q259 -8 304.5 24Q350 56 350 110Q350 172 284 206Q218 240 75 250L104 580H475V452H218L211 350Q353 333 426 274Q499 215 499 116Q499 7 413 -63Q327 -133 199 -133Q142 -133 92 -120.5Q42 -108 0 -83V44Q39 19 87 5.5Q135 -8 184 -8Z" glyph-name="five.op" horiz-adv-x="537" /><glyph d="M425 0V672Q414 676 403 678Q392 680 378 680Q314 680 277 641Q240 602 240 534V516H362L343 404H240V0H90V404H21V516H90V533Q90 650 174.5 726Q259 802 390 802Q432 802 481 793.5Q530 785 575 770V0Z" glyph-name="fl" horiz-adv-x="633" unicode="&#64258;" /><glyph d="M482 173V0H345V173H25V276Q60 377 135.5 502Q211 627 283 700H463Q382 619 307.5 507Q233 395 190 291H345V444H482V291H627V173Z" glyph-name="four" horiz-adv-x="650" unicode="4" /><glyph d="M478 60V-122H340V60H25V156Q60 257 135.5 382Q211 507 283 580H456Q375 499 300.5 387Q226 275 183 171H340V322H478V171H620V60Z" glyph-name="four.op" horiz-adv-x="643" /><glyph d="M255 269Q293 269 317 291.5Q341 314 341 350Q341 387 317 409Q293 431 255 431Q217 431 193 409Q169 387 169 350Q169 314 193.5 291.5Q218 269 255 269ZM548 -46Q548 -134 462 -186.5Q376 -239 239 -239Q128 -239 56.5 -197.5Q-15 -156 -15 -89Q-15 -46 21 -12Q57 22 110 34Q100 47 95 62.5Q90 78 90 93Q90 122 108 146.5Q126 171 159 187Q97 207 62 250Q27 293 27 350Q27 429 91 478Q155 527 255 527Q275 527 294.5 524Q314 521 333 516H556L544 421H457Q466 405 470.5 387Q475 369 475 350Q475 269 415 220.5Q355 172 255 172Q252 172 249.5 172Q247 172 244 172Q227 164 219.5 156Q212 148 212 139Q212 130 220.5 124Q229 118 248 115L373 96Q463 82 505.5 47.5Q548 13 548 -46ZM124 -68Q124 -99 160.5 -117Q197 -135 260 -135Q320 -135 360.5 -117.5Q401 -100 401 -72Q401 -55 388 -45.5Q375 -36 346 -32L180 -6Q153 -16 138.5 -32Q124 -48 124 -68Z" glyph-name="g" horiz-adv-x="558" unicode="g" /><glyph d="M255 269Q293 269 317 291.5Q341 314 341 350Q341 387 317 409Q293 431 255 431Q217 431 193 409Q169 387 169 350Q169 314 193.5 291.5Q218 269 255 269ZM548 -46Q548 -134 462 -186.5Q376 -239 239 -239Q128 -239 56.5 -197.5Q-15 -156 -15 -89Q-15 -46 21 -12Q57 22 110 34Q100 47 95 62.5Q90 78 90 93Q90 122 108 146.5Q126 171 159 187Q97 207 62 250Q27 293 27 350Q27 429 91 478Q155 527 255 527Q275 527 294.5 524Q314 521 333 516H556L544 421H457Q466 405 470.5 387Q475 369 475 350Q475 269 415 220.5Q355 172 255 172Q252 172 249.5 172Q247 172 244 172Q227 164 219.5 156Q212 148 212 139Q212 130 220.5 124Q229 118 248 115L373 96Q463 82 505.5 47.5Q548 13 548 -46ZM124 -68Q124 -99 160.5 -117Q197 -135 260 -135Q320 -135 360.5 -117.5Q401 -100 401 -72Q401 -55 388 -45.5Q375 -36 346 -32L180 -6Q153 -16 138.5 -32Q124 -48 124 -68ZM270 596Q197 596 151 649.5Q105 703 105 790H195Q197 747 217 723Q237 699 270 699Q304 699 324 723Q344 747 345 790H435Q435 703 389 649.5Q343 596 270 596Z" glyph-name="gbreve" horiz-adv-x="558" unicode="&#287;" /><glyph d="M255 269Q293 269 317 291.5Q341 314 341 350Q341 387 317 409Q293 431 255 431Q217 431 193 409Q169 387 169 350Q169 314 193.5 291.5Q218 269 255 269ZM548 -46Q548 -134 462 -186.5Q376 -239 239 -239Q128 -239 56.5 -197.5Q-15 -156 -15 -89Q-15 -46 21 -12Q57 22 110 34Q100 47 95 62.5Q90 78 90 93Q90 122 108 146.5Q126 171 159 187Q97 207 62 250Q27 293 27 350Q27 429 91 478Q155 527 255 527Q275 527 294.5 524Q314 521 333 516H556L544 421H457Q466 405 470.5 387Q475 369 475 350Q475 269 415 220.5Q355 172 255 172Q252 172 249.5 172Q247 172 244 172Q227 164 219.5 156Q212 148 212 139Q212 130 220.5 124Q229 118 248 115L373 96Q463 82 505.5 47.5Q548 13 548 -46ZM124 -68Q124 -99 160.5 -117Q197 -135 260 -135Q320 -135 360.5 -117.5Q401 -100 401 -72Q401 -55 388 -45.5Q375 -36 346 -32L180 -6Q153 -16 138.5 -32Q124 -48 124 -68ZM98 596 200 790H343L444 596H350L271 699L192 596Z" glyph-name="gcircumflex" horiz-adv-x="558" unicode="&#285;" /><glyph d="M255 269Q293 269 317 291.5Q341 314 341 350Q341 387 317 409Q293 431 255 431Q217 431 193 409Q169 387 169 350Q169 314 193.5 291.5Q218 269 255 269ZM548 -46Q548 -134 462 -186.5Q376 -239 239 -239Q128 -239 56.5 -197.5Q-15 -156 -15 -89Q-15 -46 21 -12Q57 22 110 34Q100 47 95 62.5Q90 78 90 93Q90 122 108 146.5Q126 171 159 187Q97 207 62 250Q27 293 27 350Q27 429 91 478Q155 527 255 527Q275 527 294.5 524Q314 521 333 516H556L544 421H457Q466 405 470.5 387Q475 369 475 350Q475 269 415 220.5Q355 172 255 172Q252 172 249.5 172Q247 172 244 172Q227 164 219.5 156Q212 148 212 139Q212 130 220.5 124Q229 118 248 115L373 96Q463 82 505.5 47.5Q548 13 548 -46ZM124 -68Q124 -99 160.5 -117Q197 -135 260 -135Q320 -135 360.5 -117.5Q401 -100 401 -72Q401 -55 388 -45.5Q375 -36 346 -32L180 -6Q153 -16 138.5 -32Q124 -48 124 -68ZM270 613Q232 613 207.5 637Q183 661 183 697Q183 733 207.5 757.5Q232 782 270 782Q308 782 332.5 757.5Q357 733 357 697Q357 661 332.5 637Q308 613 270 613Z" glyph-name="gdotaccent" horiz-adv-x="558" unicode="&#289;" /><glyph d="M354 802Q468 802 536.5 744.5Q605 687 609 596Q520 539 487.5 505.5Q455 472 455 440Q455 422 469 404.5Q483 387 531 354Q608 302 634 261Q660 220 660 169Q660 92 596.5 40.5Q533 -11 441 -11Q398 -11 356 -1.5Q314 8 281 26V150Q318 126 359 113.5Q400 101 440 101Q478 101 500.5 116.5Q523 132 523 158Q523 178 507.5 198Q492 218 439 254Q366 305 342 340.5Q318 376 318 418Q318 463 345.5 504Q373 545 450 605Q448 641 420 663.5Q392 686 349 686Q289 686 254 643.5Q219 601 219 526V0H70V529Q70 654 148 728Q226 802 354 802Z" glyph-name="germandbls" horiz-adv-x="689" unicode="&#223;" /><glyph d="M318 790 381 596H285L142 790Z" glyph-name="grave" horiz-adv-x="536" unicode="`" /><glyph d="M322 927 428 766H308L107 927Z" glyph-name="grave.cap" horiz-adv-x="536" /><glyph d="M70 225 429 347 70 470V600L553 418V276L70 94Z" glyph-name="greater" horiz-adv-x="601" unicode="&gt;" /><glyph d="M584 463 463 253 584 45H471L295 253L471 463ZM332 463 211 253 332 45H219L43 253L219 463Z" glyph-name="guillemotleft" horiz-adv-x="627" unicode="&#171;" /><glyph d="M156 45H43L164 253L43 463H156L332 253ZM408 45H295L416 253L295 463H408L584 253Z" glyph-name="guillemotright" horiz-adv-x="627" unicode="&#187;" /><glyph d="M332 463 211 253 332 45H219L43 253L219 463Z" glyph-name="guilsinglleft" horiz-adv-x="375" unicode="&#8249;" /><glyph d="M156 45H43L164 253L43 463H156L332 253Z" glyph-name="guilsinglright" horiz-adv-x="375" unicode="&#8250;" /><glyph d="M68 0V783L217 802V470Q253 497 295.5 512Q338 527 383 527Q463 527 510 478.5Q557 430 557 348V0H408V311Q408 355 386.5 377Q365 399 322 399Q294 399 268.5 392Q243 385 217 370V0Z" glyph-name="h" horiz-adv-x="619" unicode="h" /><glyph d="M329 399Q301 399 275.5 392Q250 385 224 370V0H75V598H-1V697H75V783L224 802V697H366V598H224V470Q260 497 302.5 512Q345 527 390 527Q470 527 517 478.5Q564 430 564 348V0H415V311Q415 355 393.5 377Q372 399 329 399Z" glyph-name="hbar" horiz-adv-x="625" unicode="&#295;" /><glyph d="M68 0V783L217 802V470Q253 497 295.5 512Q338 527 383 527Q463 527 510 478.5Q557 430 557 348V0H408V311Q408 355 386.5 377Q365 399 322 399Q294 399 268.5 392Q243 385 217 370V0ZM114 834 248 995H391L524 834H416L319 911L221 834Z" glyph-name="hcircumflex" horiz-adv-x="619" unicode="&#293;" /><glyph d="M152 596H64L126 790H275ZM350 596H261L324 790H473Z" glyph-name="hungarumlaut" horiz-adv-x="536" unicode="&#733;" /><glyph d="M140 766H44L138 927H295ZM341 766H244L339 927H496Z" glyph-name="hungarumlaut.cap" horiz-adv-x="536" /><glyph d="M343 222H70V348H343Z" glyph-name="hyphen" horiz-adv-x="413" unicode="-" /><glyph d="M142 613Q105 613 80.5 637Q56 661 56 697Q56 733 80.5 757.5Q105 782 142 782Q180 782 204.5 757.5Q229 733 229 697Q229 661 204.5 637Q180 613 142 613ZM217 0H68V504L217 525Z" glyph-name="i" horiz-adv-x="285" unicode="i" /><glyph d="M217 0H68V504L217 525ZM325 790 181 596H86L150 790Z" glyph-name="iacute" horiz-adv-x="285" unicode="&#237;" /><glyph d="M217 0H68V504L217 525ZM142 596Q69 596 23 649.5Q-23 703 -23 790H67Q69 747 89 723Q109 699 142 699Q176 699 196 723Q216 747 217 790H307Q307 703 261 649.5Q215 596 142 596Z" glyph-name="ibreve" horiz-adv-x="285" unicode="&#301;" /><glyph d="M217 0H68V504L217 525ZM-31 596 71 790H214L315 596H221L142 699L63 596Z" glyph-name="icircumflex" horiz-adv-x="285" unicode="&#238;" /><glyph d="M217 0H68V504L217 525ZM247 623Q212 623 190 644.5Q168 666 168 699Q168 731 190.5 753Q213 775 247 775Q280 775 302.5 753Q325 731 325 699Q325 666 303 644.5Q281 623 247 623ZM38 623Q3 623 -19 644.5Q-41 666 -41 699Q-41 731 -18.5 753Q4 775 38 775Q71 775 93.5 753Q116 731 116 699Q116 666 94 644.5Q72 623 38 623Z" glyph-name="idieresis" horiz-adv-x="285" unicode="&#239;" /><glyph d="M217 0H68V504L217 525ZM142 613Q104 613 79.5 637Q55 661 55 697Q55 733 79.5 757.5Q104 782 142 782Q180 782 204.5 757.5Q229 733 229 697Q229 661 204.5 637Q180 613 142 613Z" glyph-name="idotaccent" horiz-adv-x="285" /><glyph d="M217 0H68V504L217 525ZM134 790 197 596H101L-42 790Z" glyph-name="igrave" horiz-adv-x="285" unicode="&#236;" /><glyph d="M217 0H68V504L217 525ZM309 747V640H-25V747Z" glyph-name="imacron" horiz-adv-x="285" unicode="&#299;" /><glyph d="M142 613Q105 613 80.5 637Q56 661 56 697Q56 733 80.5 757.5Q105 782 142 782Q180 782 204.5 757.5Q229 733 229 697Q229 661 204.5 637Q180 613 142 613ZM123 0H68V504L217 525V0Q182 -25 163.5 -53.5Q145 -82 145 -109Q145 -127 155.5 -138Q166 -149 183 -149Q192 -149 197.5 -147.5Q203 -146 208 -143V-231Q190 -236 179 -237.5Q168 -239 157 -239Q109 -239 78 -213Q47 -187 47 -143Q47 -104 66 -68.5Q85 -33 123 0Z" glyph-name="iogonek" horiz-adv-x="285" unicode="&#303;" /><glyph d="M217 0H68V504L217 525ZM210 608Q195 608 178.5 616Q162 624 132 649Q107 670 95 676.5Q83 683 73 683Q55 683 45.5 668.5Q36 654 32 613H-49Q-48 693 -14 744Q20 795 75 795Q90 795 106 787Q122 779 152 754Q177 733 189 726.5Q201 720 211 720Q229 720 238.5 734Q248 748 252 790H333Q332 710 298 659Q264 608 210 608Z" glyph-name="itilde" horiz-adv-x="285" unicode="&#297;" /><glyph d="M142 613Q105 613 80.5 637Q56 661 56 697Q56 733 80.5 757.5Q105 782 142 782Q180 782 204.5 757.5Q229 733 229 697Q229 661 204.5 637Q180 613 142 613ZM217 525V28Q216 -48 197.5 -110.5Q179 -173 140 -228H-12Q31 -160 49 -95.5Q67 -31 68 45V504Z" glyph-name="j" horiz-adv-x="285" unicode="j" /><glyph d="M217 525V28Q216 -48 197.5 -110.5Q179 -173 140 -228H-12Q31 -160 49 -95.5Q67 -31 68 45V504ZM-32 596 70 790H213L314 596H220L141 699L62 596Z" glyph-name="jcircumflex" horiz-adv-x="285" unicode="&#309;" /><glyph d="M610 0H433L217 259V0H68V783L217 802V287L414 516H584L378 281Z" glyph-name="k" horiz-adv-x="602" unicode="k" /><glyph d="M610 0H433L217 259V0H68V507L217 526V287L414 516H584L377 281Z" glyph-name="kgreenlandic" horiz-adv-x="602" unicode="&#312;" /><glyph d="M217 0H68V783L217 802Z" glyph-name="l" horiz-adv-x="285" unicode="l" /><glyph d="M217 0H68V783L217 802ZM403 995 203 834H82L189 995Z" glyph-name="lacute" horiz-adv-x="285" unicode="&#314;" /><glyph d="M217 0H68V783L217 802ZM369 547H283L314 790H469Z" glyph-name="lcaron" horiz-adv-x="444" unicode="&#318;" /><glyph d="M217 0H68V783L217 802ZM377 289Q339 289 314.5 313Q290 337 290 373Q290 409 314.5 433.5Q339 458 377 458Q415 458 439.5 433.5Q464 409 464 373Q464 337 439.5 313Q415 289 377 289Z" glyph-name="ldot" horiz-adv-x="466" unicode="&#320;" /><glyph d="M542 95 59 277V419L542 601V471L183 348L542 226Z" glyph-name="less" horiz-adv-x="601" unicode="&lt;" /><glyph d="M240 360V0H91V286L6 238V357L91 405V783L240 802V478L328 528V410Z" glyph-name="lslash" horiz-adv-x="334" unicode="&#322;" /><glyph d="M217 370V0H68V504L217 525V470Q249 496 291 511.5Q333 527 376 527Q421 527 456.5 509.5Q492 492 514 459Q556 492 603.5 509.5Q651 527 702 527Q779 527 825 478Q871 429 871 348V0H721V311Q721 355 701 377Q681 399 641 399Q615 399 591 392Q567 385 543 370Q544 366 544 361.5Q544 357 544 348V0H394V311Q394 355 374 377Q354 399 314 399Q288 399 264 392Q240 385 217 370Z" glyph-name="m" horiz-adv-x="932" unicode="m" /><glyph d="M435 747V640H101V747Z" glyph-name="macron" horiz-adv-x="536" unicode="&#175;" /><glyph d="M447 894V786H90V894Z" glyph-name="macron.cap" horiz-adv-x="536" /><glyph d="M555 287H46V394H555Z" glyph-name="minus" horiz-adv-x="601" unicode="&#8722;" /><glyph d="M544 159 468 84 301 252 133 84 57 159 225 327 57 495 133 570 301 403 468 570 544 495 376 327Z" glyph-name="multiply" horiz-adv-x="601" unicode="&#215;" /><glyph d="M68 0V504L217 525V470Q253 497 295.5 512Q338 527 383 527Q463 527 510 478.5Q557 430 557 348V0H408V311Q408 355 386.5 377Q365 399 322 399Q294 399 268.5 392Q243 385 217 370V0Z" glyph-name="n" horiz-adv-x="619" unicode="n" /><glyph d="M68 0V504L217 525V470Q253 497 295.5 512Q338 527 383 527Q463 527 510 478.5Q557 430 557 348V0H408V311Q408 355 386.5 377Q365 399 322 399Q294 399 268.5 392Q243 385 217 370V0ZM498 790 354 596H259L323 790Z" glyph-name="nacute" horiz-adv-x="619" unicode="&#324;" /><glyph d="M68 0V504L217 525V470Q253 497 295.5 512Q338 527 383 527Q463 527 510 478.5Q557 430 557 348V0H408V311Q408 355 386.5 377Q365 399 322 399Q294 399 268.5 392Q243 385 217 370V0ZM488 790 387 596H244L142 790H236L315 687L394 790Z" glyph-name="ncaron" horiz-adv-x="619" unicode="&#328;" /><glyph d="M258 256Q164 256 99.5 316Q35 376 35 469Q35 575 109.5 643Q184 711 294 711Q418 711 498.5 619Q579 527 579 385Q579 208 471 98.5Q363 -11 189 -11Q155 -11 122 -5.5Q89 0 65 9V136Q92 128 123 123.5Q154 119 188 119Q290 119 355 178Q420 237 431 342Q400 302 353.5 279Q307 256 258 256ZM429 441Q419 512 383 551Q347 590 294 590Q244 590 213.5 559.5Q183 529 183 477Q183 429 214 400Q245 371 297 371Q333 371 366.5 388.5Q400 406 429 441Z" glyph-name="nine" horiz-adv-x="615" unicode="9" /><glyph d="M258 136Q164 136 99.5 196Q35 256 35 349Q35 455 109.5 523Q184 591 294 591Q418 591 498.5 499Q579 407 579 265Q579 88 471 -21.5Q363 -131 189 -131Q153 -131 119.5 -125Q86 -119 63 -109V10Q89 1 120.5 -3.5Q152 -8 188 -8Q291 -8 358 55Q425 118 435 228Q406 186 358 161Q310 136 258 136ZM433 321Q422 392 384.5 431.5Q347 471 292 471Q242 471 211 440Q180 409 180 357Q180 307 211.5 277Q243 247 296 247Q334 247 368.5 265.5Q403 284 433 321Z" glyph-name="nine.op" horiz-adv-x="615" /><glyph d="M68 0V504L217 525V470Q253 497 295.5 512Q338 527 383 527Q463 527 510 478.5Q557 430 557 348V0H408V311Q408 355 386.5 377Q365 399 322 399Q294 399 268.5 392Q243 385 217 370V0ZM382 608Q367 608 350.5 616Q334 624 304 649Q279 670 267 676.5Q255 683 245 683Q227 683 217.5 668.5Q208 654 204 613H123Q124 693 158 744Q192 795 247 795Q262 795 278 787Q294 779 324 754Q349 733 361 726.5Q373 720 383 720Q401 720 410.5 734Q420 748 424 790H505Q504 710 470 659Q436 608 382 608Z" glyph-name="ntilde" horiz-adv-x="619" unicode="&#241;" /><glyph d="M320 299H444L464 408H341ZM509 54H398L425 198H301L274 54H164L191 198H52L66 299H209L229 408H80L95 509H248L274 650H386L360 509H483L509 650H620L594 509H731L717 408H575L555 299H703L689 198H536Z" glyph-name="numbersign" horiz-adv-x="783" unicode="#" /><glyph d="M294 -11Q182 -11 106 65.5Q30 142 30 258Q30 374 106 450.5Q182 527 294 527Q406 527 482 450.5Q558 374 558 258Q558 142 482 65.5Q406 -11 294 -11ZM294 115Q348 115 380.5 154.5Q413 194 413 258Q413 322 380.5 361.5Q348 401 294 401Q241 401 208.5 361.5Q176 322 176 258Q176 194 208.5 154.5Q241 115 294 115Z" glyph-name="o" horiz-adv-x="588" unicode="o" /><glyph d="M294 -11Q182 -11 106 65.5Q30 142 30 258Q30 374 106 450.5Q182 527 294 527Q406 527 482 450.5Q558 374 558 258Q558 142 482 65.5Q406 -11 294 -11ZM294 115Q348 115 380.5 154.5Q413 194 413 258Q413 322 380.5 361.5Q348 401 294 401Q241 401 208.5 361.5Q176 322 176 258Q176 194 208.5 154.5Q241 115 294 115ZM477 790 333 596H238L302 790Z" glyph-name="oacute" horiz-adv-x="588" unicode="&#243;" /><glyph d="M294 -11Q182 -11 106 65.5Q30 142 30 258Q30 374 106 450.5Q182 527 294 527Q406 527 482 450.5Q558 374 558 258Q558 142 482 65.5Q406 -11 294 -11ZM294 115Q348 115 380.5 154.5Q413 194 413 258Q413 322 380.5 361.5Q348 401 294 401Q241 401 208.5 361.5Q176 322 176 258Q176 194 208.5 154.5Q241 115 294 115ZM294 596Q221 596 175 649.5Q129 703 129 790H219Q221 747 241 723Q261 699 294 699Q328 699 348 723Q368 747 369 790H459Q459 703 413 649.5Q367 596 294 596Z" glyph-name="obreve" horiz-adv-x="588" unicode="&#335;" /><glyph d="M294 -11Q182 -11 106 65.5Q30 142 30 258Q30 374 106 450.5Q182 527 294 527Q406 527 482 450.5Q558 374 558 258Q558 142 482 65.5Q406 -11 294 -11ZM294 115Q348 115 380.5 154.5Q413 194 413 258Q413 322 380.5 361.5Q348 401 294 401Q241 401 208.5 361.5Q176 322 176 258Q176 194 208.5 154.5Q241 115 294 115ZM121 596 223 790H366L467 596H373L294 699L215 596Z" glyph-name="ocircumflex" horiz-adv-x="588" unicode="&#244;" /><glyph d="M294 -11Q182 -11 106 65.5Q30 142 30 258Q30 374 106 450.5Q182 527 294 527Q406 527 482 450.5Q558 374 558 258Q558 142 482 65.5Q406 -11 294 -11ZM294 115Q348 115 380.5 154.5Q413 194 413 258Q413 322 380.5 361.5Q348 401 294 401Q241 401 208.5 361.5Q176 322 176 258Q176 194 208.5 154.5Q241 115 294 115ZM399 623Q364 623 342 644.5Q320 666 320 699Q320 731 342.5 753Q365 775 399 775Q432 775 454.5 753Q477 731 477 699Q477 666 455 644.5Q433 623 399 623ZM190 623Q155 623 133 644.5Q111 666 111 699Q111 731 133.5 753Q156 775 190 775Q223 775 245.5 753Q268 731 268 699Q268 666 246 644.5Q224 623 190 623Z" glyph-name="odieresis" horiz-adv-x="588" unicode="&#246;" /><glyph d="M668 414Q626 414 597 388Q568 362 559 316H755Q756 361 733 387.5Q710 414 668 414ZM294 115Q348 115 380.5 155Q413 195 413 259Q413 323 380.5 362.5Q348 402 294 402Q241 402 208.5 362.5Q176 323 176 259Q176 195 208.5 155Q241 115 294 115ZM872 141V25Q834 6 794 -2.5Q754 -11 706 -11Q639 -11 583 13Q527 37 487 82Q451 38 400.5 13.5Q350 -11 294 -11Q182 -11 106 65.5Q30 142 30 259Q30 375 106 451Q182 527 294 527Q350 527 399 504Q448 481 483 438Q519 481 567 504Q615 527 670 527Q788 527 849.5 443.5Q911 360 898 227H558Q571 172 616 141Q661 110 728 110Q769 110 802.5 117.5Q836 125 872 141Z" glyph-name="oe" horiz-adv-x="929" unicode="&#339;" /><glyph d="M199 -143Q199 -91 232 -46Q265 -1 332 40L369 6Q334 -23 315.5 -52.5Q297 -82 297 -109Q297 -127 307.5 -138Q318 -149 335 -149Q344 -149 349.5 -147.5Q355 -146 360 -143V-231Q342 -236 331 -237.5Q320 -239 309 -239Q261 -239 230 -213Q199 -187 199 -143Z" glyph-name="ogonek" horiz-adv-x="536" unicode="&#731;" /><glyph d="M294 -11Q182 -11 106 65.5Q30 142 30 258Q30 374 106 450.5Q182 527 294 527Q406 527 482 450.5Q558 374 558 258Q558 142 482 65.5Q406 -11 294 -11ZM294 115Q348 115 380.5 154.5Q413 194 413 258Q413 322 380.5 361.5Q348 401 294 401Q241 401 208.5 361.5Q176 322 176 258Q176 194 208.5 154.5Q241 115 294 115ZM286 790 349 596H253L110 790Z" glyph-name="ograve" horiz-adv-x="588" unicode="&#242;" /><glyph d="M294 -11Q182 -11 106 65.5Q30 142 30 258Q30 374 106 450.5Q182 527 294 527Q406 527 482 450.5Q558 374 558 258Q558 142 482 65.5Q406 -11 294 -11ZM294 115Q348 115 380.5 154.5Q413 194 413 258Q413 322 380.5 361.5Q348 401 294 401Q241 401 208.5 361.5Q176 322 176 258Q176 194 208.5 154.5Q241 115 294 115ZM233 596H145L207 790H356ZM431 596H342L405 790H554Z" glyph-name="ohungarumlaut" horiz-adv-x="588" unicode="&#337;" /><glyph d="M294 -11Q182 -11 106 65.5Q30 142 30 258Q30 374 106 450.5Q182 527 294 527Q406 527 482 450.5Q558 374 558 258Q558 142 482 65.5Q406 -11 294 -11ZM294 115Q348 115 380.5 154.5Q413 194 413 258Q413 322 380.5 361.5Q348 401 294 401Q241 401 208.5 361.5Q176 322 176 258Q176 194 208.5 154.5Q241 115 294 115ZM461 747V640H127V747Z" glyph-name="omacron" horiz-adv-x="588" unicode="&#333;" /><glyph d="M347 711V0H191V529L20 476V606L282 711Z" glyph-name="one" horiz-adv-x="429" unicode="1" /><glyph d="M343 584V0H192V409L34 359V483L283 584Z" glyph-name="one.op" horiz-adv-x="429" /><glyph d="M195 707V337H92V587L6 564V650L155 707Z" glyph-name="onesuperior" horiz-adv-x="239" unicode="&#185;" /><glyph d="M139 462Q139 448 149.5 440Q160 432 178 432Q194 432 206.5 436.5Q219 441 233 451V505Q179 501 159 491.5Q139 482 139 462ZM350 363H241L233 397Q213 376 189.5 365.5Q166 355 139 355Q93 355 64.5 381.5Q36 408 36 451Q36 506 86 536Q136 566 233 568V575Q233 599 219 610.5Q205 622 177 622Q147 622 116 613Q85 604 57 588V675Q84 692 120.5 701.5Q157 711 194 711Q265 711 304 676Q343 641 343 577V437Q343 412 344.5 395.5Q346 379 350 363ZM334 231H60V308H334Z" glyph-name="ordfeminine" horiz-adv-x="389" unicode="&#170;" /><glyph d="M29 534Q29 611 79.5 661Q130 711 206 711Q281 711 332 661Q383 611 383 534Q383 457 332 406.5Q281 356 206 356Q131 356 80 406.5Q29 457 29 534ZM206 619Q174 619 155 595.5Q136 572 136 534Q136 496 155 473Q174 450 206 450Q238 450 257 473Q276 496 276 534Q276 572 257 595.5Q238 619 206 619ZM69 308H343V231H69Z" glyph-name="ordmasculine" horiz-adv-x="412" unicode="&#186;" /><glyph d="M294 412Q237 412 202 368.5Q167 325 167 258Q167 234 172 212Q177 190 187 171L339 404Q328 408 316.5 410Q305 412 294 412ZM294 103Q351 103 386.5 147Q422 191 422 258Q422 283 416.5 305Q411 327 401 346L248 112Q259 107 270 105Q281 103 294 103ZM558 258Q558 142 482 65.5Q406 -11 294 -11Q265 -11 237 -5Q209 1 183 12L152 -36H51L113 59Q73 96 51.5 147Q30 198 30 258Q30 374 106 450.5Q182 527 294 527Q323 527 351 521Q379 515 404 504L437 554H537L474 458Q515 420 536.5 369Q558 318 558 258Z" glyph-name="oslash" horiz-adv-x="588" unicode="&#248;" /><glyph d="M294 412Q237 412 202 368.5Q167 325 167 258Q167 234 172 212Q177 190 187 171L339 404Q328 408 316.5 410Q305 412 294 412ZM294 103Q351 103 386.5 147Q422 191 422 258Q422 283 416.5 305Q411 327 401 346L248 112Q259 107 270 105Q281 103 294 103ZM558 258Q558 142 482 65.5Q406 -11 294 -11Q265 -11 237 -5Q209 1 183 12L152 -36H51L113 59Q73 96 51.5 147Q30 198 30 258Q30 374 106 450.5Q182 527 294 527Q323 527 351 521Q379 515 404 504L437 554H537L474 458Q515 420 536.5 369Q558 318 558 258ZM477 790 333 596H238L302 790Z" glyph-name="oslashacute" horiz-adv-x="589" unicode="&#511;" /><glyph d="M294 -11Q182 -11 106 65.5Q30 142 30 258Q30 374 106 450.5Q182 527 294 527Q406 527 482 450.5Q558 374 558 258Q558 142 482 65.5Q406 -11 294 -11ZM294 115Q348 115 380.5 154.5Q413 194 413 258Q413 322 380.5 361.5Q348 401 294 401Q241 401 208.5 361.5Q176 322 176 258Q176 194 208.5 154.5Q241 115 294 115ZM363 608Q348 608 331.5 616Q315 624 285 649Q260 670 248 676.5Q236 683 226 683Q208 683 198.5 668.5Q189 654 185 613H104Q105 693 139 744Q173 795 228 795Q243 795 259 787Q275 779 305 754Q330 733 342 726.5Q354 720 364 720Q382 720 391.5 734Q401 748 405 790H486Q485 710 451 659Q417 608 363 608Z" glyph-name="otilde" horiz-adv-x="588" unicode="&#245;" /><glyph d="M316 401Q289 401 262 392.5Q235 384 217 370V125Q231 116 252 111.5Q273 107 296 107Q358 107 395.5 151Q433 195 433 267Q433 329 402 365Q371 401 316 401ZM217 8V-228H68V504L217 525V471Q245 497 283.5 512Q322 527 364 527Q464 527 525 458Q586 389 586 275Q586 152 508 70.5Q430 -11 316 -11Q291 -11 264.5 -6Q238 -1 217 8Z" glyph-name="p" horiz-adv-x="616" unicode="p" /><glyph d="M491 589V103Q491 9 470.5 -57Q450 -123 402 -179H253Q309 -119 332.5 -53Q356 13 356 105V701H583V589ZM31 482Q31 577 95.5 639Q160 701 257 701H283V271H257Q159 271 95 330Q31 389 31 482Z" glyph-name="paragraph" horiz-adv-x="624" unicode="&#182;" /><glyph d="M251 334Q251 210 308.5 86.5Q366 -37 459 -122H297Q198 -28 142 91Q86 210 86 334Q86 458 142 577.5Q198 697 297 791H459Q366 706 308.5 582Q251 458 251 334Z" glyph-name="parenleft" horiz-adv-x="472" unicode="(" /><glyph d="M221 334Q221 458 163.5 582Q106 706 13 791H175Q274 697 330 577.5Q386 458 386 334Q386 210 330 91Q274 -28 175 -122H13Q106 -37 163.5 86.5Q221 210 221 334Z" glyph-name="parenright" horiz-adv-x="472" unicode=")" /><glyph d="M586 712H701L260 -11H146ZM37 533Q37 612 82.5 662Q128 712 201 712Q274 712 318.5 662.5Q363 613 363 533Q363 453 318 403Q273 353 201 353Q128 353 82.5 403Q37 453 37 533ZM201 623Q171 623 154 599Q137 575 137 533Q137 491 154 466.5Q171 442 201 442Q231 442 248 466.5Q265 491 265 533Q265 574 248 598.5Q231 623 201 623ZM808 169Q808 89 763 39Q718 -11 645 -11Q573 -11 528 39Q483 89 483 169Q483 249 527.5 298.5Q572 348 645 348Q718 348 763 298.5Q808 249 808 169ZM709 169Q709 211 692 235Q675 259 645 259Q615 259 598.5 235Q582 211 582 169Q582 127 598.5 103Q615 79 645 79Q675 79 692 103Q709 127 709 169Z" glyph-name="percent" horiz-adv-x="846" unicode="%" /><glyph d="M141 -9Q101 -9 73 19Q45 47 45 88Q45 128 73 156.5Q101 185 141 185Q181 185 209.5 156.5Q238 128 238 88Q238 48 210 19.5Q182 -9 141 -9Z" glyph-name="period" horiz-adv-x="282" unicode="." /><glyph d="M166 184Q126 184 98 212Q70 240 70 281Q70 321 98 349.5Q126 378 166 378Q206 378 234.5 349.5Q263 321 263 281Q263 241 235 212.5Q207 184 166 184Z" glyph-name="periodcentered" horiz-adv-x="333" unicode="&#183;" /><glyph d="M555 394V287H354V86H247V287H46V394H247V595H354V394Z" glyph-name="plus" horiz-adv-x="601" unicode="+" /><glyph d="M423 494 548 521V-228H399V47Q369 19 332 4Q295 -11 255 -11Q154 -11 92 59Q30 129 30 243Q30 367 108 447Q186 527 303 527Q334 527 367.5 518Q401 509 423 494ZM300 115Q328 115 354 123.5Q380 132 399 148V389Q385 399 364 404Q343 409 320 409Q257 409 220 366.5Q183 324 183 251Q183 189 215 152Q247 115 300 115Z" glyph-name="q" horiz-adv-x="616" unicode="q" /><glyph d="M261 379Q301 420 313 441.5Q325 463 325 484Q325 526 299.5 547.5Q274 569 225 569Q182 569 133.5 549Q85 529 31 489V637Q84 673 142.5 692Q201 711 260 711Q367 711 429 655.5Q491 600 491 508Q491 469 474.5 435Q458 401 407 349Q370 312 357 291.5Q344 271 340 250H181Q185 278 201 305.5Q217 333 261 379ZM259 -9Q219 -9 191 19Q163 47 163 88Q163 128 191 156.5Q219 185 259 185Q299 185 327.5 156.5Q356 128 356 88Q356 48 328 19.5Q300 -9 259 -9Z" glyph-name="question" horiz-adv-x="523" unicode="?" /><glyph d="M261 321Q221 280 209 258.5Q197 237 197 216Q197 174 222.5 152.5Q248 131 297 131Q340 131 388.5 151Q437 171 491 211V63Q438 27 379.5 8Q321 -11 262 -11Q155 -11 93 44.5Q31 100 31 192Q31 231 47.5 265Q64 299 115 351Q152 388 165 408.5Q178 429 182 450H341Q337 422 321 394.5Q305 367 261 321ZM263 709Q303 709 331 681Q359 653 359 612Q359 572 331 543.5Q303 515 263 515Q223 515 194.5 543.5Q166 572 166 612Q166 653 194.5 681Q223 709 263 709Z" glyph-name="questiondown" horiz-adv-x="523" unicode="&#191;" /><glyph d="M383 402H284V701H443ZM167 402H68V701H227Z" glyph-name="quotedbl" horiz-adv-x="488" unicode="&quot;" /><glyph d="M76 133H228Q228 59 194.5 -26.5Q161 -112 120 -154H23Q46 -100 61 -20Q76 60 76 133ZM304 133H456Q456 59 422.5 -26.5Q389 -112 348 -154H251Q274 -100 289 -20Q304 60 304 133Z" glyph-name="quotedblbase" horiz-adv-x="500" unicode="&#8222;" /><glyph d="M425 418H273Q273 491 307 576.5Q341 662 381 703H478Q455 650 440 570Q425 490 425 418ZM197 418H45Q45 491 79 576.5Q113 662 153 703H250Q227 650 212 570Q197 490 197 418Z" glyph-name="quotedblleft" horiz-adv-x="501" unicode="&#8220;" /><glyph d="M76 703H228Q228 630 194.5 544.5Q161 459 120 418H23Q46 473 61 552Q76 631 76 703ZM304 703H456Q456 630 422.5 544.5Q389 459 348 418H251Q274 473 289 552Q304 631 304 703Z" glyph-name="quotedblright" horiz-adv-x="501" unicode="&#8221;" /><glyph d="M197 418H45Q45 491 79 576.5Q113 662 153 703H250Q227 650 212 570Q197 490 197 418Z" glyph-name="quoteleft" horiz-adv-x="273" unicode="&#8216;" /><glyph d="M76 703H228Q228 630 194.5 544.5Q161 459 120 418H23Q46 473 61 552Q76 631 76 703Z" glyph-name="quoteright" horiz-adv-x="273" unicode="&#8217;" /><glyph d="M76 133H228Q228 59 194.5 -26.5Q161 -112 120 -154H23Q46 -100 61 -20Q76 60 76 133Z" glyph-name="quotesinglbase" horiz-adv-x="273" unicode="&#8218;" /><glyph d="M167 402H68V701H227Z" glyph-name="quotesingle" horiz-adv-x="272" unicode="'" /><glyph d="M217 319V0H68V504L217 525V435Q265 490 311.5 510.5Q358 531 413 523V373Q357 387 303.5 372Q250 357 217 319Z" glyph-name="r" horiz-adv-x="434" unicode="r" /><glyph d="M217 319V0H68V504L217 525V435Q265 490 311.5 510.5Q358 531 413 523V373Q357 387 303.5 372Q250 357 217 319ZM438 790 294 596H199L263 790Z" glyph-name="racute" horiz-adv-x="434" unicode="&#341;" /><glyph d="M217 319V0H68V504L217 525V435Q265 490 311.5 510.5Q358 531 413 523V373Q357 387 303.5 372Q250 357 217 319ZM429 790 328 596H185L83 790H177L256 687L335 790Z" glyph-name="rcaron" horiz-adv-x="434" unicode="&#345;" /><glyph d="M41 351Q41 505 145 608.5Q249 712 402 712Q555 712 658.5 609Q762 506 762 351Q762 196 658.5 92.5Q555 -11 402 -11Q249 -11 145 92.5Q41 196 41 351ZM106 351Q106 224 191.5 139.5Q277 55 402 55Q526 55 610.5 140Q695 225 695 351Q695 477 610.5 562Q526 647 402 647Q277 647 191.5 562Q106 477 106 351ZM393 469H360V375H416Q433 381 442.5 393.5Q452 406 452 423Q452 445 437 457Q422 469 393 469ZM486 325 579 165H465L392 301H360V165H259V552H408Q477 552 516 519.5Q555 487 555 430Q555 397 537.5 370Q520 343 486 325Z" glyph-name="registered" horiz-adv-x="802" unicode="&#174;" /><glyph d="M262 819Q311 819 346 785Q381 751 381 702Q381 653 346 618Q311 583 262 583Q214 583 179.5 618.5Q145 654 145 702Q145 751 179.5 785Q214 819 262 819ZM262 755Q240 755 224.5 739.5Q209 724 209 702Q209 679 224.5 663Q240 647 262 647Q284 647 300 663Q316 679 316 702Q316 724 300.5 739.5Q285 755 262 755Z" glyph-name="ring" horiz-adv-x="536" unicode="&#730;" /><glyph d="M401 883Q401 827 361.5 787.5Q322 748 267 748Q214 748 174.5 788Q135 828 135 883Q135 938 174 976.5Q213 1015 267 1015Q323 1015 362 976.5Q401 938 401 883ZM209 883Q209 857 225.5 839.5Q242 822 267 822Q293 822 310 839.5Q327 857 327 883Q327 908 310 924.5Q293 941 267 941Q242 941 225.5 924.5Q209 908 209 883Z" glyph-name="ring.cap" horiz-adv-x="536" /><glyph d="M218 -11Q168 -11 120 -1Q72 9 38 27V151Q76 127 124.5 114Q173 101 218 101Q250 101 269 113.5Q288 126 288 147Q288 162 273 174Q258 186 206 205Q160 222 138 233.5Q116 245 100 258Q75 279 63 305Q51 331 51 364Q51 434 108 480.5Q165 527 252 527Q294 527 330.5 519Q367 511 405 493V371Q374 391 337.5 402Q301 413 266 413Q234 413 216 401Q198 389 198 368Q198 353 212.5 341.5Q227 330 279 312Q373 279 405 243Q437 207 437 154Q437 80 375.5 34.5Q314 -11 218 -11Z" glyph-name="s" horiz-adv-x="479" unicode="s" /><glyph d="M218 -11Q168 -11 120 -1Q72 9 38 27V151Q76 127 124.5 114Q173 101 218 101Q250 101 269 113.5Q288 126 288 147Q288 162 273 174Q258 186 206 205Q160 222 138 233.5Q116 245 100 258Q75 279 63 305Q51 331 51 364Q51 434 108 480.5Q165 527 252 527Q294 527 330.5 519Q367 511 405 493V371Q374 391 337.5 402Q301 413 266 413Q234 413 216 401Q198 389 198 368Q198 353 212.5 341.5Q227 330 279 312Q373 279 405 243Q437 207 437 154Q437 80 375.5 34.5Q314 -11 218 -11ZM436 790 292 596H197L261 790Z" glyph-name="sacute" horiz-adv-x="479" unicode="&#347;" /><glyph d="M218 -11Q168 -11 120 -1Q72 9 38 27V151Q76 127 124.5 114Q173 101 218 101Q250 101 269 113.5Q288 126 288 147Q288 162 273 174Q258 186 206 205Q160 222 138 233.5Q116 245 100 258Q75 279 63 305Q51 331 51 364Q51 434 108 480.5Q165 527 252 527Q294 527 330.5 519Q367 511 405 493V371Q374 391 337.5 402Q301 413 266 413Q234 413 216 401Q198 389 198 368Q198 353 212.5 341.5Q227 330 279 312Q373 279 405 243Q437 207 437 154Q437 80 375.5 34.5Q314 -11 218 -11ZM426 790 325 596H182L80 790H174L253 687L332 790Z" glyph-name="scaron" horiz-adv-x="479" unicode="&#353;" /><glyph d="M218 -11Q168 -11 120 -1Q72 9 38 27V151Q76 127 124.5 114Q173 101 218 101Q250 101 269 113.5Q288 126 288 147Q288 162 273 174Q258 186 206 205Q160 222 138 233.5Q116 245 100 258Q75 279 63 305Q51 331 51 364Q51 434 108 480.5Q165 527 252 527Q294 527 330.5 519Q367 511 405 493V371Q374 391 337.5 402Q301 413 266 413Q234 413 216 401Q198 389 198 368Q198 353 212.5 341.5Q227 330 279 312Q373 279 405 243Q437 207 437 154Q437 80 375.5 34.5Q314 -11 218 -11ZM80 596 182 790H325L426 596H332L253 699L174 596Z" glyph-name="scircumflex" horiz-adv-x="479" unicode="&#349;" /><glyph d="M324 600Q291 600 269.5 583Q248 566 248 538Q248 519 261 502Q274 485 310 461L458 365Q500 337 520.5 305Q541 273 541 236Q541 200 521.5 168Q502 136 472 120L431 159Q436 167 438.5 175.5Q441 184 441 193Q441 212 425.5 231.5Q410 251 377 274L190 406Q153 432 135 464Q117 496 117 537Q117 611 173.5 661.5Q230 712 316 712Q357 712 391.5 703.5Q426 695 461 676V555Q430 576 393.5 588Q357 600 324 600ZM258 -62Q291 -62 312.5 -44.5Q334 -27 334 1Q334 20 322 36Q310 52 274 76L125 174Q84 201 63 233.5Q42 266 42 303Q42 339 61 370.5Q80 402 111 419L152 380Q147 372 144.5 364Q142 356 142 347Q142 327 157.5 307Q173 287 206 264L394 132Q430 107 447.5 75Q465 43 465 2Q465 -72 408 -123Q351 -174 265 -174Q226 -174 191 -165Q156 -156 119 -137V-16Q151 -38 187.5 -50Q224 -62 258 -62Z" glyph-name="section" horiz-adv-x="583" unicode="&#167;" /><glyph d="M70 163H222Q222 90 188 3Q154 -84 114 -126H16Q39 -71 54.5 10Q70 91 70 163ZM141 320Q101 320 73 348Q45 376 45 417Q45 457 73 485.5Q101 514 141 514Q181 514 209.5 485.5Q238 457 238 417Q238 377 210 348.5Q182 320 141 320Z" glyph-name="semicolon" horiz-adv-x="282" unicode=";" /><glyph d="M258 0H84Q187 136 260 275.5Q333 415 380 565H21V700H545V592Q517 462 431 282.5Q345 103 258 0Z" glyph-name="seven" horiz-adv-x="560" unicode="7" /><glyph d="M251 -122H84Q187 14 260 154Q333 294 379 445H17V580H537V472Q507 338 422 158.5Q337 -21 251 -122Z" glyph-name="seven.op" horiz-adv-x="556" /><glyph d="M357 444Q451 444 515.5 384Q580 324 580 231Q580 125 505.5 57Q431 -11 321 -11Q197 -11 116.5 81Q36 173 36 315Q36 492 144 601.5Q252 711 426 711Q460 711 493 705.5Q526 700 550 691V564Q523 572 492 576.5Q461 581 427 581Q325 581 260 522Q195 463 184 358Q215 398 261.5 421Q308 444 357 444ZM186 259Q196 188 232 149Q268 110 321 110Q371 110 401.5 140.5Q432 171 432 223Q432 271 401 300Q370 329 318 329Q282 329 248.5 311.5Q215 294 186 259Z" glyph-name="six" horiz-adv-x="615" unicode="6" /><glyph d="M357 444Q451 444 515.5 384Q580 324 580 231Q580 125 505.5 57Q431 -11 321 -11Q197 -11 116.5 81Q36 173 36 315Q36 492 144 601.5Q252 711 426 711Q462 711 495.5 705Q529 699 552 689V570Q526 579 494.5 583.5Q463 588 427 588Q324 588 257 525Q190 462 180 352Q209 394 257 419Q305 444 357 444ZM182 259Q193 188 230.5 148.5Q268 109 323 109Q373 109 404 140Q435 171 435 223Q435 273 403.5 303Q372 333 319 333Q281 333 246.5 314.5Q212 296 182 259Z" glyph-name="six.op" horiz-adv-x="615" /><glyph d="M161 -122H13L313 791H462Z" glyph-name="slash" horiz-adv-x="475" unicode="/" /><glyph glyph-name="space" horiz-adv-x="262" unicode=" " /><glyph d="M510 467 481 377H69L102 467H221Q273 594 343 652.5Q413 711 512 711Q547 711 571 706Q595 701 620 690V568Q590 578 567 582Q544 586 519 586Q468 586 432.5 558Q397 530 368 467ZM216 108H592V0H59V89L118 224H20L54 315H471L441 224H265Z" glyph-name="sterling" horiz-adv-x="668" unicode="&#163;" /><glyph d="M14 404V516H84V623L234 643V516H408L390 404H234V181Q234 148 252 131Q270 114 304 114Q339 114 364.5 119.5Q390 125 422 139V19Q389 4 353.5 -3Q318 -10 275 -10Q186 -10 135 35.5Q84 81 84 163V404Z" glyph-name="t" horiz-adv-x="450" unicode="t" /><glyph d="M429 139V19Q396 4 360.5 -3Q325 -10 282 -10Q193 -10 142 35.5Q91 81 91 163V233H22V333H91V412H21V517H91V623L241 643V517H414L397 412H241V333H412L397 233H241V181Q241 148 259 131Q277 114 311 114Q345 114 371 119.5Q397 125 429 139Z" glyph-name="tbar" horiz-adv-x="463" unicode="&#359;" /><glyph d="M14 404V516H84V623L234 643V516H408L390 404H234V181Q234 148 252 131Q270 114 304 114Q339 114 364.5 119.5Q390 125 422 139V19Q389 4 353.5 -3Q318 -10 275 -10Q186 -10 135 35.5Q84 81 84 163V404ZM370 575H284L315 818H470Z" glyph-name="tcaron" horiz-adv-x="450" unicode="&#357;" /><glyph d="M350 -135Q350 -180 309.5 -209.5Q269 -239 211 -239Q181 -239 153 -232Q125 -225 105 -213V-140Q128 -151 153 -157Q178 -163 203 -163Q229 -163 245.5 -154Q262 -145 262 -130Q262 -113 239.5 -104Q217 -95 175 -95L213 -3Q166 7 135 35Q84 81 84 163V404H14V516H84V623L234 643V516H408L390 404H234V181Q234 148 252 131Q270 114 304 114Q339 114 364.5 119.5Q390 125 422 139V19Q389 4 353.5 -3Q318 -10 275 -10H265L250 -47Q298 -54 324 -77Q350 -100 350 -135Z" glyph-name="tcommaaccent" horiz-adv-x="450" unicode="&#355;" /><glyph d="M316 401Q289 401 262 392.5Q235 384 217 370V125Q231 116 252 111.5Q273 107 296 107Q358 107 395.5 151Q433 195 433 267Q433 329 402 365Q371 401 316 401ZM316 -11Q291 -11 264.5 -6Q238 -1 217 8V-228H68V783L217 802V471Q245 497 283.5 512Q322 527 364 527Q464 527 525 458Q586 389 586 275Q586 152 508 70.5Q430 -11 316 -11Z" glyph-name="thorn" horiz-adv-x="616" unicode="&#254;" /><glyph d="M230 -11Q173 -11 122.5 1Q72 13 31 37V171Q71 147 118 134Q165 121 215 121Q288 121 331.5 151Q375 181 375 232Q375 286 324.5 311.5Q274 337 162 339V384L321 565H57V700H499V585L342 415Q432 398 482.5 349Q533 300 533 226Q533 123 445.5 56Q358 -11 230 -11Z" glyph-name="three" horiz-adv-x="567" unicode="3" /><glyph d="M222 -133Q164 -133 114 -121Q64 -109 23 -85V43Q64 18 111 4.5Q158 -9 207 -9Q280 -9 326 23Q372 55 372 106Q372 161 318.5 188.5Q265 216 155 217V263L326 452H49V580H492V472L331 294Q422 277 473.5 227.5Q525 178 525 104Q525 1 437.5 -66Q350 -133 222 -133Z" glyph-name="three.op" horiz-adv-x="556" /><glyph d="M128 332Q97 332 69.5 338Q42 344 20 356V443Q44 430 68 423.5Q92 417 115 417Q150 417 168.5 428.5Q187 440 187 461Q187 484 163.5 494Q140 504 84 505V534L156 613H32V701H274V628L201 552Q246 540 268.5 515.5Q291 491 291 455Q291 402 244 367Q197 332 128 332Z" glyph-name="threesuperior" horiz-adv-x="308" unicode="&#179;" /><glyph d="M342 608Q327 608 310.5 616Q294 624 264 649Q239 670 227 676.5Q215 683 205 683Q187 683 177.5 668.5Q168 654 164 613H83Q84 693 118 744Q152 795 207 795Q222 795 238 787Q254 779 284 754Q309 733 321 726.5Q333 720 343 720Q361 720 370.5 734Q380 748 384 790H465Q464 710 430 659Q396 608 342 608Z" glyph-name="tilde" horiz-adv-x="536" unicode="&#732;" /><glyph d="M343 760Q328 760 310 768Q292 776 258 802Q230 823 217 829.5Q204 836 194 836Q176 836 166.5 822Q157 808 151 766H68Q69 846 104.5 897Q140 948 196 948Q211 948 229 940Q247 932 281 906Q309 885 322 878.5Q335 872 345 872Q363 872 372 885.5Q381 899 387 943H470Q469 862 434 811Q399 760 343 760Z" glyph-name="tilde.cap" horiz-adv-x="536" /><glyph d="M227 622V362H131V622H31V701H326V622ZM631 568 581 432H522L471 568H468L450 362H359L392 701H494L550 535H554L610 701H711L745 362H652L636 568Z" glyph-name="trademark" horiz-adv-x="797" unicode="&#8482;" /><glyph d="M349 474Q349 520 322.5 545Q296 570 246 570Q200 570 145.5 548.5Q91 527 40 490V637Q95 673 157 692Q219 711 281 711Q389 711 452.5 655Q516 599 516 506Q516 419 448.5 328Q381 237 238 134H546V0H31V109Q220 263 284.5 340.5Q349 418 349 474Z" glyph-name="two" horiz-adv-x="574" unicode="2" /><glyph d="M339 381Q339 417 314 436.5Q289 456 242 456Q195 456 139 430Q83 404 36 361V497Q87 541 150.5 566Q214 591 277 591Q382 591 441.5 542.5Q501 494 501 410Q501 334 443 269Q385 204 243 127H540V0H29V106Q209 215 274 273.5Q339 332 339 381Z" glyph-name="two.op" horiz-adv-x="569" /><glyph d="M174 575Q174 594 163 604Q152 614 130 614Q109 614 80 603Q51 592 23 574V669Q54 688 87.5 697.5Q121 707 156 707Q215 707 250 677.5Q285 648 285 599Q285 554 256.5 515Q228 476 155 426H301V337H19V409Q116 486 145 519Q174 552 174 575Z" glyph-name="twosuperior" horiz-adv-x="315" unicode="&#178;" /><glyph d="M393 516H543V12L393 -9V46Q359 18 319 3.5Q279 -11 236 -11Q157 -11 109 38Q61 87 61 168V516H211V204Q211 159 231.5 137Q252 115 293 115Q318 115 341.5 121.5Q365 128 393 144Z" glyph-name="u" horiz-adv-x="611" unicode="u" /><glyph d="M393 516H543V12L393 -9V46Q359 18 319 3.5Q279 -11 236 -11Q157 -11 109 38Q61 87 61 168V516H211V204Q211 159 231.5 137Q252 115 293 115Q318 115 341.5 121.5Q365 128 393 144ZM485 790 341 596H246L310 790Z" glyph-name="uacute" horiz-adv-x="611" unicode="&#250;" /><glyph d="M393 516H543V12L393 -9V46Q359 18 319 3.5Q279 -11 236 -11Q157 -11 109 38Q61 87 61 168V516H211V204Q211 159 231.5 137Q252 115 293 115Q318 115 341.5 121.5Q365 128 393 144ZM301 596Q228 596 182 649.5Q136 703 136 790H226Q228 747 248 723Q268 699 301 699Q335 699 355 723Q375 747 376 790H466Q466 703 420 649.5Q374 596 301 596Z" glyph-name="ubreve" horiz-adv-x="611" unicode="&#365;" /><glyph d="M393 516H543V12L393 -9V46Q359 18 319 3.5Q279 -11 236 -11Q157 -11 109 38Q61 87 61 168V516H211V204Q211 159 231.5 137Q252 115 293 115Q318 115 341.5 121.5Q365 128 393 144ZM128 596 230 790H373L474 596H380L301 699L222 596Z" glyph-name="ucircumflex" horiz-adv-x="611" unicode="&#251;" /><glyph d="M393 516H543V12L393 -9V46Q359 18 319 3.5Q279 -11 236 -11Q157 -11 109 38Q61 87 61 168V516H211V204Q211 159 231.5 137Q252 115 293 115Q318 115 341.5 121.5Q365 128 393 144ZM406 623Q371 623 349 644.5Q327 666 327 699Q327 731 349.5 753Q372 775 406 775Q439 775 461.5 753Q484 731 484 699Q484 666 462 644.5Q440 623 406 623ZM197 623Q162 623 140 644.5Q118 666 118 699Q118 731 140.5 753Q163 775 197 775Q230 775 252.5 753Q275 731 275 699Q275 666 253 644.5Q231 623 197 623Z" glyph-name="udieresis" horiz-adv-x="611" unicode="&#252;" /><glyph d="M393 516H543V12L393 -9V46Q359 18 319 3.5Q279 -11 236 -11Q157 -11 109 38Q61 87 61 168V516H211V204Q211 159 231.5 137Q252 115 293 115Q318 115 341.5 121.5Q365 128 393 144ZM293 790 356 596H260L117 790Z" glyph-name="ugrave" horiz-adv-x="611" unicode="&#249;" /><glyph d="M393 516H543V12L393 -9V46Q359 18 319 3.5Q279 -11 236 -11Q157 -11 109 38Q61 87 61 168V516H211V204Q211 159 231.5 137Q252 115 293 115Q318 115 341.5 121.5Q365 128 393 144ZM240 596H152L214 790H363ZM438 596H349L412 790H561Z" glyph-name="uhungarumlaut" horiz-adv-x="611" unicode="&#369;" /><glyph d="M393 516H543V12L393 -9V46Q359 18 319 3.5Q279 -11 236 -11Q157 -11 109 38Q61 87 61 168V516H211V204Q211 159 231.5 137Q252 115 293 115Q318 115 341.5 121.5Q365 128 393 144ZM468 747V640H134V747Z" glyph-name="umacron" horiz-adv-x="611" unicode="&#363;" /><glyph d="M343 -153H70V-27H343Z" glyph-name="underscore" horiz-adv-x="413" unicode="_" /><glyph glyph-name="uni000D" horiz-adv-x="262" unicode="" /><glyph d="M155 -46H296Q296 -101 263 -157.5Q230 -214 186 -240H95Q123 -203 139 -151Q155 -99 155 -46Z" glyph-name="uni00200326" horiz-adv-x="444" /><glyph d="M269 596H129Q129 652 161.5 708Q194 764 238 790H328Q301 753 285 701.5Q269 650 269 596Z" glyph-name="uni00200326.alt" horiz-adv-x="444" /><glyph glyph-name="uni00A0" horiz-adv-x="262" unicode="&#160;" /><glyph d="M436 571Q326 571 257.5 508Q189 445 189 344Q189 241 252 182Q315 123 421 123Q438 123 454 124.5Q470 126 482 128V316H632V17Q584 4 528 -3.5Q472 -11 420 -11Q248 -11 139.5 86.5Q31 184 31 344Q31 504 146 607.5Q261 711 436 711Q486 711 531.5 702Q577 693 625 674V531Q584 550 535 560.5Q486 571 436 571ZM357 -46H498Q498 -101 465 -157.5Q432 -214 388 -240H297Q325 -203 341 -151Q357 -99 357 -46Z" glyph-name="uni0122" horiz-adv-x="693" unicode="&#290;" /><glyph d="M255 269Q293 269 317 291.5Q341 314 341 350Q341 387 317 409Q293 431 255 431Q217 431 193 409Q169 387 169 350Q169 314 193.5 291.5Q218 269 255 269ZM548 -46Q548 -134 462 -186.5Q376 -239 239 -239Q128 -239 56.5 -197.5Q-15 -156 -15 -89Q-15 -46 21 -12Q57 22 110 34Q100 47 95 62.5Q90 78 90 93Q90 122 108 146.5Q126 171 159 187Q97 207 62 250Q27 293 27 350Q27 429 91 478Q155 527 255 527Q275 527 294.5 524Q314 521 333 516H556L544 421H457Q466 405 470.5 387Q475 369 475 350Q475 269 415 220.5Q355 172 255 172Q252 172 249.5 172Q247 172 244 172Q227 164 219.5 156Q212 148 212 139Q212 130 220.5 124Q229 118 248 115L373 96Q463 82 505.5 47.5Q548 13 548 -46ZM124 -68Q124 -99 160.5 -117Q197 -135 260 -135Q320 -135 360.5 -117.5Q401 -100 401 -72Q401 -55 388 -45.5Q375 -36 346 -32L180 -6Q153 -16 138.5 -32Q124 -48 124 -68ZM340 596H200Q200 652 232.5 708Q265 764 309 790H399Q372 753 356 701.5Q340 650 340 596Z" glyph-name="uni0123" horiz-adv-x="558" unicode="&#291;" /><glyph d="M741 0H548L234 344V0H78V700H234V380L519 700H706L402 372ZM291 -46H432Q432 -101 399 -157.5Q366 -214 322 -240H231Q259 -203 275 -151Q291 -99 291 -46Z" glyph-name="uni0136" horiz-adv-x="732" unicode="&#310;" /><glyph d="M610 0H433L217 259V0H68V783L217 802V287L414 516H584L378 281ZM245 -46H386Q386 -101 353 -157.5Q320 -214 276 -240H185Q213 -203 229 -151Q245 -99 245 -46Z" glyph-name="uni0137" horiz-adv-x="602" unicode="&#311;" /><glyph d="M78 0V700H234V128H560V0ZM249 -46H390Q390 -101 357 -157.5Q324 -214 280 -240H189Q217 -203 233 -151Q249 -99 249 -46Z" glyph-name="uni013B" horiz-adv-x="599" unicode="&#315;" /><glyph d="M217 0H68V783L217 802ZM73 -46H214Q214 -101 181 -157.5Q148 -214 104 -240H13Q41 -203 57 -151Q73 -99 73 -46Z" glyph-name="uni013C" horiz-adv-x="285" unicode="&#316;" /><glyph d="M699 0H566L226 475V0H78V700H228L550 234V700H699ZM319 -46H460Q460 -101 427 -157.5Q394 -214 350 -240H259Q287 -203 303 -151Q319 -99 319 -46Z" glyph-name="uni0145" horiz-adv-x="777" unicode="&#325;" /><glyph d="M68 0V504L217 525V470Q253 497 295.5 512Q338 527 383 527Q463 527 510 478.5Q557 430 557 348V0H408V311Q408 355 386.5 377Q365 399 322 399Q294 399 268.5 392Q243 385 217 370V0ZM246 -46H387Q387 -101 354 -157.5Q321 -214 277 -240H186Q214 -203 230 -151Q246 -99 246 -46Z" glyph-name="uni0146" horiz-adv-x="619" unicode="&#326;" /><glyph d="M337 572H234V376H378Q412 387 431.5 414.5Q451 442 451 480Q451 523 421 547.5Q391 572 337 572ZM480 289Q519 225 586 141.5Q653 58 712 0H524Q482 42 432 108.5Q382 175 334 253H234V0H78V700H344Q469 700 539.5 642.5Q610 585 610 483Q610 420 575 368.5Q540 317 480 289ZM284 -46H425Q425 -101 392 -157.5Q359 -214 315 -240H224Q252 -203 268 -151Q284 -99 284 -46Z" glyph-name="uni0156" horiz-adv-x="698" unicode="&#342;" /><glyph d="M217 319V0H68V504L217 525V435Q265 490 311.5 510.5Q358 531 413 523V373Q357 387 303.5 372Q250 357 217 319ZM71 -46H212Q212 -101 179 -157.5Q146 -214 102 -240H11Q39 -203 55 -151Q71 -99 71 -46Z" glyph-name="uni0157" horiz-adv-x="434" unicode="&#343;" /><glyph d="M374 -135Q374 -180 333.5 -209.5Q293 -239 235 -239Q205 -239 177 -232Q149 -225 129 -213V-140Q152 -151 177 -157Q202 -163 227 -163Q253 -163 269.5 -154Q286 -145 286 -130Q286 -113 263.5 -104Q241 -95 199 -95L234 -10Q188 -7 142 3Q80 17 34 42V188Q86 156 148 139Q210 122 269 122Q332 122 366 142Q400 162 400 201Q400 225 377 243.5Q354 262 274 290Q210 311 180 325.5Q150 340 128 357Q92 383 75 417.5Q58 452 58 495Q58 587 133.5 649Q209 711 323 711Q379 711 427 699.5Q475 688 522 664V523Q476 551 428 565Q380 579 332 579Q278 579 246 558.5Q214 538 214 503Q214 479 237.5 460.5Q261 442 341 414Q405 392 435.5 378Q466 364 488 347Q524 321 541.5 286.5Q559 252 559 209Q559 112 477 50Q402 -6 289 -10L274 -47Q322 -54 348 -77Q374 -100 374 -135Z" glyph-name="uni015E" horiz-adv-x="602" unicode="&#350;" /><glyph d="M326 -135Q326 -180 285.5 -209.5Q245 -239 187 -239Q157 -239 129 -232Q101 -225 81 -213V-140Q104 -151 129 -157Q154 -163 179 -163Q205 -163 221.5 -154Q238 -145 238 -130Q238 -113 215.5 -104Q193 -95 151 -95L186 -10Q153 -8 120 -1Q72 9 38 27V151Q76 127 124.5 114Q173 101 218 101Q250 101 269 113.5Q288 126 288 147Q288 162 273 174Q258 186 206 205Q160 222 138 233.5Q116 245 100 258Q75 279 63 305Q51 331 51 364Q51 434 108 480.5Q165 527 252 527Q294 527 330.5 519Q367 511 405 493V371Q374 391 337.5 402Q301 413 266 413Q234 413 216 401Q198 389 198 368Q198 353 212.5 341.5Q227 330 279 312Q373 279 405 243Q437 207 437 154Q437 80 375 34Q321 -5 241 -10L226 -47Q274 -54 300 -77Q326 -100 326 -135Z" glyph-name="uni015F" horiz-adv-x="479" unicode="&#351;" /><glyph d="M524 404 500 305H93L117 404H230L247 488Q270 596 332 653.5Q394 711 488 711Q509 711 526 708.5Q543 706 560 700V583Q548 587 536.5 588.5Q525 590 507 590Q459 590 428.5 561Q398 532 387 476L372 404ZM174 123 200 250H343L314 111Q291 4 227.5 -54.5Q164 -113 71 -113Q49 -113 30.5 -110Q12 -107 -5 -100V16Q8 12 21.5 10Q35 8 52 8Q101 8 132.5 37.5Q164 67 174 123Z" glyph-name="uni0192" horiz-adv-x="603" unicode="&#402;" /><glyph d="M270 -11Q205 -11 142.5 3Q80 17 34 42V188Q86 156 148 139Q210 122 269 122Q332 122 366 142Q400 162 400 201Q400 225 377 243.5Q354 262 274 290Q210 311 180 325.5Q150 340 128 357Q92 383 75 417.5Q58 452 58 495Q58 587 133.5 649Q209 711 323 711Q379 711 427 699.5Q475 688 522 664V523Q476 551 428 565Q380 579 332 579Q278 579 246 558.5Q214 538 214 503Q214 479 237.5 460.5Q261 442 341 414Q405 392 435.5 378Q466 364 488 347Q524 321 541.5 286.5Q559 252 559 209Q559 112 477.5 50.5Q396 -11 270 -11ZM207 -46H348Q348 -101 315 -157.5Q282 -214 238 -240H147Q175 -203 191 -151Q207 -99 207 -46Z" glyph-name="uni0218" horiz-adv-x="602" unicode="&#536;" /><glyph d="M218 -11Q168 -11 120 -1Q72 9 38 27V151Q76 127 124.5 114Q173 101 218 101Q250 101 269 113.5Q288 126 288 147Q288 162 273 174Q258 186 206 205Q160 222 138 233.5Q116 245 100 258Q75 279 63 305Q51 331 51 364Q51 434 108 480.5Q165 527 252 527Q294 527 330.5 519Q367 511 405 493V371Q374 391 337.5 402Q301 413 266 413Q234 413 216 401Q198 389 198 368Q198 353 212.5 341.5Q227 330 279 312Q373 279 405 243Q437 207 437 154Q437 80 375.5 34.5Q314 -11 218 -11ZM150 -46H291Q291 -101 258 -157.5Q225 -214 181 -240H90Q118 -203 134 -151Q150 -99 150 -46Z" glyph-name="uni0219" horiz-adv-x="479" unicode="&#537;" /><glyph d="M274 572H27V700H678V572H430V0H274ZM283 -46H424Q424 -101 391 -157.5Q358 -214 314 -240H223Q251 -203 267 -151Q283 -99 283 -46Z" glyph-name="uni021A" horiz-adv-x="704" unicode="&#538;" /><glyph d="M14 404V516H84V623L234 643V516H408L390 404H234V181Q234 148 252 131Q270 114 304 114Q339 114 364.5 119.5Q390 125 422 139V19Q389 4 353.5 -3Q318 -10 275 -10Q186 -10 135 35.5Q84 81 84 163V404ZM192 -46H333Q333 -101 300 -157.5Q267 -214 223 -240H132Q160 -203 176 -151Q192 -99 192 -46Z" glyph-name="uni021B" horiz-adv-x="450" unicode="&#539;" /><glyph d="M217 525V28Q216 -48 197.5 -110.5Q179 -173 140 -228H-12Q31 -160 49 -95.5Q67 -31 68 45V504Z" glyph-name="uni0237" horiz-adv-x="285" unicode="&#567;" /><glyph d="M326 520H218V399H326Q373 399 395 413.5Q417 428 417 460Q417 492 396 506Q375 520 326 520ZM445 239Q445 272 422 288Q399 304 353 304H218V174H353Q399 174 422 190Q445 206 445 239ZM593 226Q593 150 535.5 108.5Q478 67 373 67H363V-89H238V67H77V625H238V770H363V625Q463 621 511.5 585.5Q560 550 560 481Q560 438 529 406Q498 374 450 364Q517 352 555 316Q593 280 593 226Z" glyph-name="uni0E3F" horiz-adv-x="632" unicode="&#3647;" /><glyph d="M406 266V-132H304Q175 -132 101.5 -91Q28 -50 28 23Q28 76 69.5 110.5Q111 145 174 145Q187 145 200 143Q213 141 224 137V62Q218 64 209 65Q200 66 194 66Q168 66 153 55Q138 44 138 24Q138 -3 173.5 -19Q209 -35 266 -35V266H105L129 366H266Q265 421 228.5 450Q192 479 106 489Q106 581 183.5 646Q261 711 371 711Q419 711 458.5 702Q498 693 531 675V560Q492 576 453.5 584Q415 592 374 592Q323 592 286 573.5Q249 555 240 527Q319 518 362.5 476.5Q406 435 406 369V366H536L512 266Z" glyph-name="uni17DB" horiz-adv-x="571" unicode="&#6107;" /><glyph d="M341 -77H251L292 82Q277 84 260.5 87.5Q244 91 227 96L182 -77H92L147 133Q91 169 61.5 223Q32 277 32 343Q32 437 89.5 504.5Q147 572 246 596L292 773H383L340 608H344Q357 608 372.5 606Q388 604 406 601L451 773H541L460 460Q435 470 407.5 475Q380 480 346 480Q271 480 225 443.5Q179 407 179 343Q179 280 225 243.5Q271 207 346 207Q377 207 407.5 212Q438 217 469 228V103Q449 96 426.5 90.5Q404 85 382 82Z" glyph-name="uni20A1" horiz-adv-x="545" unicode="&#8353;" /><glyph d="M588 0 474 474 359 0H257L195 232H35V321H171L153 389H35V478H129L70 700H217L322 255L423 700H532L633 255L739 700H877L818 478H916V389H794L776 321H916V232H753L691 0Z" glyph-name="uni20A9" horiz-adv-x="951" unicode="&#8361;" /><glyph d="M78 0V700H331Q436 700 495.5 643Q555 586 555 486V184H439V478Q439 543 409 569Q379 595 294 595H193V0ZM736 700V214Q736 114 676.5 57Q617 0 512 0H259V499H374V105H475Q559 105 589.5 131.5Q620 158 620 222V700Z" glyph-name="uni20AA" horiz-adv-x="814" unicode="&#8362;" /><glyph d="M297 228Q332 228 365 241Q398 254 422 276V365Q402 380 371.5 388.5Q341 397 304 397Q251 397 220.5 373.5Q190 350 190 308Q190 271 220 249.5Q250 228 297 228ZM422 133V195Q386 161 344 145.5Q302 130 251 130Q164 130 105.5 180Q47 230 47 308Q47 391 113.5 443Q180 495 277 495Q320 495 356.5 485Q393 475 422 456V559H199V647H422V700H554V647H629V559H554V157ZM560 0H108V82H560Z" glyph-name="uni20AB" horiz-adv-x="657" unicode="&#8363;" /><glyph d="M665 432V309H500L738 0H566L295 362L536 700H703L500 432ZM279 700V0H123V309H35V432H123V700Z" glyph-name="uni20AD" horiz-adv-x="750" unicode="&#8365;" /><glyph d="M550 409 126 279V371L260 412V572H35V700H640V572H415V460L550 501ZM415 216V0H260V168L126 127V218L550 348V257Z" glyph-name="uni20AE" horiz-adv-x="675" unicode="&#8366;" /><glyph d="M492 463Q492 514 461 543Q430 572 375 572H298V354H375Q429 354 460.5 383Q492 412 492 463ZM379 226H298V0H145V332H35V422H145V489H35V579H145V700H379Q460 700 521.5 668.5Q583 637 615 579H746V489H642Q643 485 643 479.5Q643 474 643 463Q643 452 642 442Q641 432 640 422H746V332H606Q572 281 513 253.5Q454 226 379 226Z" glyph-name="uni20B1" horiz-adv-x="781" unicode="&#8369;" /><glyph d="M639 383H35V473H399Q409 483 414 495.5Q419 508 419 524Q419 555 393 572.5Q367 590 320 590Q277 590 231.5 579Q186 568 142 547V669Q185 689 235.5 700Q286 711 335 711Q444 711 506.5 664Q569 617 569 539Q569 522 564.5 504Q560 486 553 473H639ZM371 -11Q254 -11 183 36.5Q112 84 112 159Q112 179 118 198Q124 217 134 232H35V321H639V232H286Q274 221 268.5 209Q263 197 263 180Q263 147 296 128.5Q329 110 388 110Q442 110 495.5 122.5Q549 135 591 158V37Q547 14 489 1.5Q431 -11 371 -11Z" glyph-name="uni20B4" horiz-adv-x="674" unicode="&#8372;" /><glyph d="M640 594H35V700H640ZM260 426H35V532H640V426H415V0H260Z" glyph-name="uni20B8" horiz-adv-x="675" unicode="&#8376;" /><glyph d="M378 275Q418 212 482 133Q546 54 600 0H413Q371 42 321.5 108Q272 174 225 251H38L72 342H272Q307 352 330.5 374.5Q354 397 365 430H38L72 521H367Q356 564 318.5 586.5Q281 609 221 609H38L72 700H643L609 609H463Q483 590 495.5 568Q508 546 513 521H643L609 430H512Q500 378 465.5 338Q431 298 378 275Z" glyph-name="uni20B9" horiz-adv-x="665" unicode="&#8377;" /><glyph d="M436 -239Q388 -239 357 -213Q326 -187 326 -143Q326 -106 342.5 -72.5Q359 -39 393 -8V46Q359 18 319 3.5Q279 -11 236 -11Q157 -11 109 38Q61 87 61 168V516H211V204Q211 159 231.5 137Q252 115 293 115Q318 115 341.5 121.5Q365 128 393 144V516H543V12Q487 -4 455.5 -37.5Q424 -71 424 -109Q424 -127 434.5 -138Q445 -149 462 -149Q471 -149 476.5 -147.5Q482 -146 487 -143V-231Q469 -236 458 -237.5Q447 -239 436 -239Z" glyph-name="uogonek" horiz-adv-x="611" unicode="&#371;" /><glyph d="M393 516H543V12L393 -9V46Q359 18 319 3.5Q279 -11 236 -11Q157 -11 109 38Q61 87 61 168V516H211V204Q211 159 231.5 137Q252 115 293 115Q318 115 341.5 121.5Q365 128 393 144ZM301 819Q350 819 385 785Q420 751 420 702Q420 653 385 618Q350 583 301 583Q253 583 218.5 618.5Q184 654 184 702Q184 751 218.5 785Q253 819 301 819ZM301 755Q279 755 263.5 739.5Q248 724 248 702Q248 679 263.5 663Q279 647 301 647Q323 647 339 663Q355 679 355 702Q355 724 339.5 739.5Q324 755 301 755Z" glyph-name="uring" horiz-adv-x="611" unicode="&#367;" /><glyph d="M393 516H543V12L393 -9V46Q359 18 319 3.5Q279 -11 236 -11Q157 -11 109 38Q61 87 61 168V516H211V204Q211 159 231.5 137Q252 115 293 115Q318 115 341.5 121.5Q365 128 393 144ZM370 608Q355 608 338.5 616Q322 624 292 649Q267 670 255 676.5Q243 683 233 683Q215 683 205.5 668.5Q196 654 192 613H111Q112 693 146 744Q180 795 235 795Q250 795 266 787Q282 779 312 754Q337 733 349 726.5Q361 720 371 720Q389 720 398.5 734Q408 748 412 790H493Q492 710 458 659Q424 608 370 608Z" glyph-name="utilde" horiz-adv-x="611" unicode="&#361;" /><glyph d="M558 516 339 -1H219L0 516H162L288 186L413 516Z" glyph-name="v" horiz-adv-x="558" unicode="v" /><glyph d="M258 192 358 516H456L560 191L664 516H801L612 -1H505L400 323L296 -1H188L0 516H152Z" glyph-name="w" horiz-adv-x="800" unicode="w" /><glyph d="M258 192 358 516H456L560 191L664 516H801L612 -1H505L400 323L296 -1H188L0 516H152ZM581 790 437 596H342L406 790Z" glyph-name="wacute" horiz-adv-x="800" unicode="&#7811;" /><glyph d="M258 192 358 516H456L560 191L664 516H801L612 -1H505L400 323L296 -1H188L0 516H152ZM226 596 328 790H471L572 596H478L399 699L320 596Z" glyph-name="wcircumflex" horiz-adv-x="800" unicode="&#373;" /><glyph d="M258 192 358 516H456L560 191L664 516H801L612 -1H505L400 323L296 -1H188L0 516H152ZM504 623Q469 623 447 644.5Q425 666 425 699Q425 731 447.5 753Q470 775 504 775Q537 775 559.5 753Q582 731 582 699Q582 666 560 644.5Q538 623 504 623ZM295 623Q260 623 238 644.5Q216 666 216 699Q216 731 238.5 753Q261 775 295 775Q328 775 350.5 753Q373 731 373 699Q373 666 351 644.5Q329 623 295 623Z" glyph-name="wdieresis" horiz-adv-x="800" unicode="&#7813;" /><glyph d="M258 192 358 516H456L560 191L664 516H801L612 -1H505L400 323L296 -1H188L0 516H152ZM391 790 454 596H358L215 790Z" glyph-name="wgrave" horiz-adv-x="800" unicode="&#7809;" /><glyph d="M561 0H392L279 162L165 0H8L203 262L19 516H188L289 369L393 516H549L364 267Z" glyph-name="x" horiz-adv-x="569" unicode="x" /><glyph d="M33 -119Q93 -119 132 -81.5Q171 -44 212 51L0 516H162L289 206L413 516H558L330 5Q273 -125 205.5 -182Q138 -239 41 -239Q26 -239 9.5 -236.5Q-7 -234 -17 -230V-111Q-6 -115 7.5 -117Q21 -119 33 -119Z" glyph-name="y" horiz-adv-x="558" unicode="y" /><glyph d="M33 -119Q93 -119 132 -81.5Q171 -44 212 51L0 516H162L289 206L413 516H558L330 5Q273 -125 205.5 -182Q138 -239 41 -239Q26 -239 9.5 -236.5Q-7 -234 -17 -230V-111Q-6 -115 7.5 -117Q21 -119 33 -119ZM470 790 326 596H231L295 790Z" glyph-name="yacute" horiz-adv-x="558" unicode="&#253;" /><glyph d="M33 -119Q93 -119 132 -81.5Q171 -44 212 51L0 516H162L289 206L413 516H558L330 5Q273 -125 205.5 -182Q138 -239 41 -239Q26 -239 9.5 -236.5Q-7 -234 -17 -230V-111Q-6 -115 7.5 -117Q21 -119 33 -119ZM114 596 216 790H359L460 596H366L287 699L208 596Z" glyph-name="ycircumflex" horiz-adv-x="558" unicode="&#375;" /><glyph d="M33 -119Q93 -119 132 -81.5Q171 -44 212 51L0 516H162L289 206L413 516H558L330 5Q273 -125 205.5 -182Q138 -239 41 -239Q26 -239 9.5 -236.5Q-7 -234 -17 -230V-111Q-6 -115 7.5 -117Q21 -119 33 -119ZM392 623Q357 623 335 644.5Q313 666 313 699Q313 731 335.5 753Q358 775 392 775Q425 775 447.5 753Q470 731 470 699Q470 666 448 644.5Q426 623 392 623ZM183 623Q148 623 126 644.5Q104 666 104 699Q104 731 126.5 753Q149 775 183 775Q216 775 238.5 753Q261 731 261 699Q261 666 239 644.5Q217 623 183 623Z" glyph-name="ydieresis" horiz-adv-x="558" unicode="&#255;" /><glyph d="M627 463V373H107V463H214L27 700H201L370 472L536 700H708L521 463ZM627 310V220H442V0H292V220H107V310Z" glyph-name="yen" horiz-adv-x="734" unicode="&#165;" /><glyph d="M33 -119Q93 -119 132 -81.5Q171 -44 212 51L0 516H162L289 206L413 516H558L330 5Q273 -125 205.5 -182Q138 -239 41 -239Q26 -239 9.5 -236.5Q-7 -234 -17 -230V-111Q-6 -115 7.5 -117Q21 -119 33 -119ZM279 790 342 596H246L103 790Z" glyph-name="ygrave" horiz-adv-x="558" unicode="&#7923;" /><glyph d="M229 112H506L488 0H39V87L288 404H45V516H485V430Z" glyph-name="z" horiz-adv-x="526" unicode="z" /><glyph d="M229 112H506L488 0H39V87L288 404H45V516H485V430ZM455 790 311 596H216L280 790Z" glyph-name="zacute" horiz-adv-x="526" unicode="&#378;" /><glyph d="M229 112H506L488 0H39V87L288 404H45V516H485V430ZM445 790 344 596H201L99 790H193L272 687L351 790Z" glyph-name="zcaron" horiz-adv-x="526" unicode="&#382;" /><glyph d="M229 112H506L488 0H39V87L288 404H45V516H485V430ZM272 613Q234 613 209.5 637Q185 661 185 697Q185 733 209.5 757.5Q234 782 272 782Q310 782 334.5 757.5Q359 733 359 697Q359 661 334.5 637Q310 613 272 613Z" glyph-name="zdotaccent" horiz-adv-x="526" unicode="&#380;" /><glyph d="M36 350Q36 508 120.5 609.5Q205 711 335 711Q465 711 549.5 609.5Q634 508 634 350Q634 192 549.5 90.5Q465 -11 335 -11Q205 -11 120.5 90.5Q36 192 36 350ZM189 350Q189 250 229 188Q269 126 335 126Q401 126 441 188Q481 250 481 350Q481 450 441 512Q401 574 335 574Q269 574 229 512Q189 450 189 350Z" glyph-name="zero" horiz-adv-x="670" unicode="0" /><glyph d="M600 291Q600 161 519 75Q438 -11 318 -11Q197 -11 116.5 75Q36 161 36 291Q36 421 116.5 506Q197 591 318 591Q438 591 519 505.5Q600 420 600 291ZM184 291Q184 211 221.5 161Q259 111 318 111Q376 111 413.5 161.5Q451 212 451 291Q451 370 413.5 419.5Q376 469 318 469Q259 469 221.5 419.5Q184 370 184 291Z" glyph-name="zero.op" horiz-adv-x="635" /></font>
</defs>
</svg>
