<svg width="131" height="26" viewBox="0 0 131 26" xmlns="http://www.w3.org/2000/svg"><defs><linearGradient x1="0%" y1="100%" x2="63.848%" y2="32.54%" id="a"><stop stop-color="#94D11F" offset="0%"/><stop stop-color="#09D3BF" offset="100%"/></linearGradient></defs><g fill="none" fill-rule="evenodd"><g fill="#39414D"><path d="M129.228 10.04c-1.16-1.222-2.796-1.868-4.735-1.868-1.972 0-3.59.887-4.583 2.508-.995-1.62-2.612-2.508-4.584-2.508-1.938 0-3.575.646-4.735 1.867-1.08 1.14-1.675 2.735-1.675 4.496v7.29h3.654v-7.29c0-1.97 1.003-3.1 2.756-3.1 1.752 0 2.756 1.13 2.756 3.1v7.29h3.655v-7.29c0-1.97 1.005-3.1 2.756-3.1 1.753 0 2.758 1.13 2.758 3.1v7.29h3.655v-7.29c0-1.76-.596-3.357-1.677-4.497M42.083 1.652c-.294-.044-.6-.09-.916-.09-4.383 0-7.328 2.782-7.328 6.92v13.343h3.653V12.02h3.834V8.752h-3.834v-.297c0-2.336 1.292-3.522 3.84-3.522.25 0 .488.04.74.084l.292.047.185.027V1.715l-.14-.018c-.11-.014-.22-.03-.327-.045M53.718 15.064c0 2.374-1.222 3.628-3.535 3.628-3.172 0-3.646-2.273-3.646-3.628 0-2.305 1.33-3.627 3.646-3.627 2.262 0 3.418 1.19 3.535 3.627m3.67.68c-.005-.255-.008-.485-.017-.686-.17-4.247-2.924-6.886-7.187-6.886-2.2 0-4.06.697-5.384 2.016-1.237 1.233-1.917 2.955-1.917 4.85 0 3.944 2.97 6.92 6.91 6.92 1.874 0 3.395-.674 4.422-1.953.15.6.36 1.18.63 1.73l.042.09h3.683l-.1-.215c-1.03-2.178-1.06-4.398-1.083-5.867M67.287 8.172c-2.1 0-3.877.696-5.137 2.012-1.18 1.234-1.83 2.967-1.83 4.88v6.76h3.654v-6.76c0-2.305 1.207-3.627 3.313-3.627 2.105 0 3.312 1.322 3.312 3.628v6.76h3.653v-6.76c0-1.914-.65-3.647-1.83-4.88-1.26-1.317-3.035-2.013-5.136-2.013M87.153 15.064c0 2.374-1.223 3.628-3.535 3.628-3.172 0-3.646-2.273-3.646-3.628 0-2.305 1.33-3.627 3.646-3.627 2.262 0 3.418 1.19 3.535 3.627m3.14 0V3.482H86.77V8.94c-1.123-.48-1.947-.768-3.343-.768-4.31 0-7.205 2.76-7.205 6.866 0 3.944 2.992 6.92 6.96 6.92 2.02 0 3.477-.575 4.444-1.755.154.627.38 1.3.65 1.927l.04.095h3.687l-.1-.213c-1.18-2.556-1.61-5.555-1.61-6.948M103.445 15.064c0 2.306-1.308 3.628-3.59 3.628s-3.59-1.322-3.59-3.628c0-2.305 1.308-3.627 3.59-3.627s3.59 1.322 3.59 3.627m-3.59-6.892c-4.265 0-7.245 2.834-7.245 6.892 0 4.06 2.98 6.893 7.245 6.893 4.265 0 7.245-2.834 7.245-6.893 0-4.058-2.98-6.892-7.245-6.892"/></g><path d="M11.48 18.903c0 .214-.052.518-.296.75l-.913.785-8.303-7.804V9.572l9.13 8.582c.143.135.383.413.383.75zm12.646-9.107v2.84l-10.33 9.968c-.172.162-.343.235-.558.235-.22 0-.415-.08-.58-.237l-.945-.854L24.126 9.795zm-7.87 5.06l-2.863 2.724-9.07-8.63c-.457-.434-.707-1.013-.707-1.633 0-.618.25-1.197.704-1.63L7.185 2.96l9.07 8.632c.947.9.947 2.363 0 3.263zm-1.69-7.518l2.985-2.84c.458-.434 1.067-.673 1.715-.673.65 0 1.258.24 1.715.675l3.08 2.93-4.698 4.47-1.715-1.63-3.08-2.932zm11.47-.452L19.29.356 19.15.22l-.14.134-5.892 5.66L7.852.977 7.845.97 7.84.967l-.66-.53-.136-.11-.128.12L.06 6.874 0 6.93v6.48l.058.055L12.913 25.69l.14.134.14-.133 12.843-12.225.057-.055V6.94l-.056-.054z" fill="url(#a)"/></g></svg>