<?xml version="1.0" encoding="UTF-8" standalone="no"?>
<svg width="284px" height="63px" viewBox="0 0 284 63" version="1.1" xmlns="http://www.w3.org/2000/svg" xmlns:xlink="http://www.w3.org/1999/xlink" xmlns:sketch="http://www.bohemiancoding.com/sketch/ns">
    <!-- Generator: Sketch 3.4.4 (17249) - http://www.bohemiancoding.com/sketch -->
    <title>Logo - lockup</title>
    <desc>Created with Sketch.</desc>
    <defs>
        <linearGradient x1="0%" y1="100%" x2="63.848224%" y2="32.5404445%" id="linearGradient-1">
            <stop stop-color="#94D11F" offset="0%"></stop>
            <stop stop-color="#09D3BF" offset="100%"></stop>
        </linearGradient>
    </defs>
    <g id="Page-1" stroke="none" stroke-width="1" fill="none" fill-rule="evenodd" sketch:type="MSPage">
        <g id="Artboard-15" sketch:type="MSArtboardGroup" transform="translate(-44.000000, -232.000000)">
            <g id="Logo---lockup" sketch:type="MSLayerGroup" transform="translate(44.000000, 232.000000)">
                <g id="Tagline---Powered-By-Wikia-Copy" transform="translate(111.452514, 45.675000)" sketch:type="MSShapeGroup">
                    <g id="Group-31" transform="translate(-0.000000, 0.000000)">
                        <path d="M168.22133,12.9384675 C167.742084,13.5558675 166.992168,13.9685175 166.012978,13.9685175 C164.890492,13.9685175 163.994095,13.2471675 163.994095,11.5367175 C163.994095,9.8278425 164.890492,9.1064925 166.012978,9.1064925 C166.992168,9.1064925 167.742084,9.5191425 168.22133,10.1365425 L168.22133,12.9384675 Z M171.967726,9.2513925 L172.176302,6.0446925 L168.749933,6.0446925 L168.490408,7.2527175 C167.700687,6.4305675 166.719905,5.7485925 164.993983,5.7485925 C161.868536,5.7485925 160.161721,7.7472675 160.161721,11.5367175 C160.161721,15.3277425 161.868536,17.3248425 164.993983,17.3248425 C166.719905,17.3248425 167.700687,16.6460175 168.490408,15.8222925 L168.759486,17.0696925 L172.176302,17.0696925 L171.967726,13.8236175 L171.967726,9.2513925 Z" id="Fill-3" fill="#FFFFFF"></path>
                        <path d="M133.034179,0.5996025 C131.848006,0.5996025 130.887922,1.5509025 130.887922,2.7227025 C130.887922,3.8960775 131.848006,4.8458025 133.034179,4.8458025 C134.220352,4.8458025 135.180436,3.8960775 135.180436,2.7227025 C135.180436,1.5509025 134.220352,0.5996025 133.034179,0.5996025" id="Fill-5" fill="#FFFFFF"></path>
                        <path d="M136.266779,8.3687625 L136.266779,6.0456375 L134.642757,6.0456375 L130.888399,6.0456375 L130.888399,9.8004375 L130.888399,13.3142625 L130.888399,16.9808625 L130.888399,17.0690625 L136.266779,17.0690625 L136.266779,14.7569625 L134.580662,14.7569625 L134.580662,8.3687625 L136.266779,8.3687625 Z" id="Fill-7" fill="#FFFFFF"></path>
                        <path d="M153.992665,2.7233325 C153.992665,3.8951325 154.954341,4.8464325 156.138922,4.8464325 C157.325095,4.8464325 158.286771,3.8951325 158.286771,2.7233325 C158.286771,1.5499575 157.325095,0.6002325 156.138922,0.6002325 C154.954341,0.6002325 153.992665,1.5499575 153.992665,2.7233325" id="Fill-9" fill="#FFFFFF"></path>
                        <path d="M154.591802,8.3687625 L154.591802,14.7569625 L152.905684,14.7569625 L152.905684,17.0690625 L158.285656,17.0690625 L158.285656,16.9808625 L158.285656,13.3142625 L158.285656,9.8004375 L158.285656,6.0456375 L154.531299,6.0456375 L152.905684,6.0456375 L152.905684,8.3687625 L154.591802,8.3687625 Z" id="Fill-11" fill="#FFFFFF"></path>
                        <path d="M4.3515838,11.2305375 C4.63180726,11.2305375 4.90247765,11.2100625 5.16200279,11.1691125 C5.42312011,11.1265875 5.65080168,11.0478375 5.84823184,10.9297125 C6.04566201,10.8115875 6.20487989,10.6430625 6.3242933,10.4288625 C6.4437067,10.2115125 6.5042095,9.9295875 6.5042095,9.5799375 C6.5042095,9.2302875 6.4437067,8.9467875 6.3242933,8.7310125 C6.20487989,8.5152375 6.04566201,8.3482875 5.84823184,8.2285875 C5.65080168,8.1104625 5.42312011,8.0317125 5.16200279,7.9907625 C4.90247765,7.9482375 4.63180726,7.9293375 4.3515838,7.9293375 L2.44893017,7.9293375 L2.44893017,11.2305375 L4.3515838,11.2305375 Z M5.02189106,6.0456375 C5.71926536,6.0456375 6.31155587,6.1464375 6.80035475,6.3480375 C7.28915363,6.5480625 7.68719832,6.8126625 7.99289665,7.1418375 C8.30018715,7.4710125 8.52309218,7.8458625 8.66479609,8.2679625 C8.80490782,8.6900625 8.87496369,9.1279125 8.87496369,9.5799375 C8.87496369,10.0209375 8.80490782,10.4556375 8.66479609,10.8840375 C8.52309218,11.3092875 8.30018715,11.6872875 7.99289665,12.0164625 C7.68719832,12.3456375 7.28915363,12.6118125 6.80035475,12.8118375 C6.31155587,13.0118625 5.71926536,13.1126625 5.02189106,13.1126625 L2.44893017,13.1126625 L2.44893017,17.0627625 L0.000159217878,17.0627625 L0.000159217878,6.0456375 L5.02189106,6.0456375 Z" id="Fill-13" fill="#C5CED8"></path>
                        <path d="M12.6882318,12.9504375 C12.7965,13.3882875 12.9700475,13.7820375 13.2104665,14.1301125 C13.4492933,14.4797625 13.7613603,14.7601125 14.1466676,14.9711625 C14.5303827,15.1822125 14.9984832,15.2877375 15.5493771,15.2877375 C16.1002709,15.2877375 16.5683715,15.1822125 16.9536788,14.9711625 C17.338986,14.7601125 17.6494609,14.4797625 17.8898799,14.1301125 C18.1287067,13.7820375 18.3022542,13.3882875 18.4121145,12.9504375 C18.5203827,12.5141625 18.5761089,12.0637125 18.5761089,11.6006625 C18.5761089,11.1171375 18.5203827,10.6493625 18.4121145,10.1957625 C18.3022542,9.7437375 18.1287067,9.3405375 17.8898799,8.9861625 C17.6494609,8.6302125 17.338986,8.3482875 16.9536788,8.1372375 C16.5683715,7.9261875 16.1002709,7.8206625 15.5493771,7.8206625 C14.9984832,7.8206625 14.5303827,7.9261875 14.1466676,8.1372375 C13.7613603,8.3482875 13.4492933,8.6302125 13.2104665,8.9861625 C12.9700475,9.3405375 12.7965,9.7437375 12.6882318,10.1957625 C12.5783715,10.6493625 12.5242374,11.1171375 12.5242374,11.6006625 C12.5242374,12.0637125 12.5783715,12.5141625 12.6882318,12.9504375 M10.4496285,9.3090375 C10.6996006,8.6050125 11.0578408,7.9907625 11.5259413,7.4647125 C11.9940419,6.9418125 12.5688184,6.5291625 13.2502709,6.2314875 C13.9301313,5.9338125 14.6975615,5.7841875 15.5493771,5.7841875 C16.412338,5.7841875 17.1829525,5.9338125 17.8580363,6.2314875 C18.5347123,6.5291625 19.1063045,6.9418125 19.574405,7.4647125 C20.0425056,7.9907625 20.4007458,8.6050125 20.6507179,9.3090375 C20.8990978,10.0146375 21.0248799,10.7785125 21.0248799,11.6006625 C21.0248799,12.4023375 20.8990978,13.1504625 20.6507179,13.8450375 C20.4007458,14.5396125 20.0425056,15.1444125 19.574405,15.6578625 C19.1063045,16.1728875 18.5347123,16.5760875 17.8580363,16.8690375 C17.1829525,17.1619875 16.412338,17.3084625 15.5493771,17.3084625 C14.6975615,17.3084625 13.9301313,17.1619875 13.2502709,16.8690375 C12.5688184,16.5760875 11.9940419,16.1728875 11.5259413,15.6578625 C11.0578408,15.1444125 10.6996006,14.5396125 10.4496285,13.8450375 C10.1996564,13.1504625 10.0754665,12.4023375 10.0754665,11.6006625 C10.0754665,10.7785125 10.1996564,10.0146375 10.4496285,9.3090375" id="Fill-15" fill="#C5CED8"></path>
                        <path d="M31.021852,17.0621325 L29.1351201,9.5635575 L29.1032765,9.5635575 L27.2467961,17.0621325 L24.7677737,17.0621325 L21.8190587,6.0465825 L24.2678296,6.0465825 L26.0303715,13.5451575 L26.0622151,13.5451575 L27.9967123,6.0465825 L30.2878575,6.0465825 L32.1921034,13.6365075 L32.2223547,13.6365075 L34.0469916,6.0465825 L36.4495894,6.0465825 L33.4547011,17.0621325 L31.021852,17.0621325 Z" id="Fill-17" fill="#C5CED8"></path>
                        <path d="M46.0564777,6.04611 L46.0564777,8.082585 L40.1765615,8.082585 L40.1765615,10.44351 L45.5740475,10.44351 L45.5740475,12.325635 L40.1765615,12.325635 L40.1765615,15.025185 L46.1806676,15.025185 L46.1806676,17.06166 L37.7277905,17.06166 L37.7277905,6.04611 L46.0564777,6.04611 Z" id="Fill-19" fill="#C5CED8"></path>
                        <path d="M53.1214525,11.02941 C53.6834916,11.02941 54.1038268,10.90656 54.3856425,10.659285 C54.6658659,10.41201 54.8059777,10.01196 54.8059777,9.455985 C54.8059777,8.92206 54.6658659,8.533035 54.3856425,8.290485 C54.1038268,8.04951 53.6834916,7.928235 53.1214525,7.928235 L50.4386313,7.928235 L50.4386313,11.02941 L53.1214525,11.02941 Z M53.9955587,6.04611 C54.4939106,6.04611 54.9444972,6.126435 55.3441341,6.28551 C55.7437709,6.444585 56.0876816,6.66351 56.3726816,6.94071 C56.6592737,7.219485 56.8774022,7.540785 57.0286592,7.90461 C57.178324,8.27001 57.2547486,8.66376 57.2547486,9.08586 C57.2547486,9.733185 57.1162291,10.293885 56.8423743,10.76796 C56.5653352,11.24046 56.1163408,11.601135 55.4922067,11.846835 L55.4922067,11.878335 C55.7931285,11.960235 56.0431006,12.086235 56.2405307,12.256335 C56.4379609,12.426435 56.5987709,12.62646 56.7245531,12.857985 C56.848743,13.08951 56.9394972,13.343085 56.9968156,13.62186 C57.0541341,13.89906 57.0923464,14.17626 57.1146369,14.455035 C57.1241899,14.62986 57.1353352,14.83461 57.1448883,15.072435 C57.1560335,15.308685 57.1735475,15.54966 57.2006145,15.796935 C57.2260894,16.04421 57.267486,16.27731 57.3248045,16.499385 C57.3821229,16.719885 57.4681006,16.90731 57.5811453,17.06166 L55.1339665,17.06166 C54.9986313,16.71201 54.9142458,16.29621 54.8839944,15.812685 C54.8521508,15.32916 54.8059777,14.86611 54.7438827,14.423535 C54.6610894,13.847085 54.4843575,13.42656 54.2136872,13.15881 C53.9430168,12.89106 53.5003911,12.757185 52.8874022,12.757185 L50.4386313,12.757185 L50.4386313,17.06166 L47.9898603,17.06166 L47.9898603,6.04611 L53.9955587,6.04611 Z" id="Fill-21" fill="#C5CED8"></path>
                        <path d="M67.7349469,6.04611 L67.7349469,8.082585 L61.8550307,8.082585 L61.8550307,10.44351 L67.2525168,10.44351 L67.2525168,12.325635 L61.8550307,12.325635 L61.8550307,15.025185 L67.8591369,15.025185 L67.8591369,17.06166 L59.4062598,17.06166 L59.4062598,6.04611 L67.7349469,6.04611 Z" id="Fill-23" fill="#C5CED8"></path>
                        <path d="M74.3017291,15.0259725 C74.6551927,15.0259725 74.9975112,14.9692725 75.3302765,14.8558725 C75.6630419,14.7424725 75.9591872,14.5550475 76.2203045,14.2935975 C76.4798296,14.0305725 76.688405,13.6887975 76.8444385,13.2666975 C77.0004721,12.8445975 77.0768966,12.3311475 77.0768966,11.7247725 C77.0768966,11.1687975 77.0227626,10.6663725 76.9144944,10.2190725 C76.8046341,9.7717725 76.6247179,9.3890475 76.376338,9.0693225 C76.1263659,8.7511725 75.7951927,8.5070475 75.3860028,8.3385225 C74.9752207,8.1668475 74.4673156,8.0833725 73.8638799,8.0833725 L72.1172598,8.0833725 L72.1172598,15.0259725 L74.3017291,15.0259725 Z M74.4736844,6.0468975 C75.1901648,6.0468975 75.8588799,6.1602975 76.4782374,6.3855225 C77.0960028,6.6123225 77.6309749,6.9509475 78.0831536,7.4045475 C78.5353324,7.8565725 78.8887961,8.4219975 79.1451369,9.1008225 C79.3982933,9.7796475 79.5256676,10.5781725 79.5256676,11.4932475 C79.5256676,12.2949225 79.422176,13.0351725 79.2151927,13.7139975 C79.0066173,14.3928225 78.6913659,14.9787225 78.2710307,15.4732725 C77.8491034,15.9662475 77.3236844,16.3552725 76.6947737,16.6387725 C76.0658631,16.9206975 75.3255,17.0624475 74.4736844,17.0624475 L69.6684888,17.0624475 L69.6684888,6.0468975 L74.4736844,6.0468975 Z" id="Fill-25" fill="#C5CED8"></path>
                        <path d="M90.9433408,15.179535 C91.1821676,15.179535 91.4114413,15.157485 91.6295698,15.110235 C91.8476983,15.06456 92.040352,14.987385 92.2075307,14.87871 C92.3731173,14.77161 92.5052682,14.62356 92.6039832,14.439285 C92.7026983,14.25501 92.7520559,14.017185 92.7520559,13.72896 C92.7520559,13.16511 92.5912458,12.760335 92.2696257,12.51936 C91.9464134,12.27681 91.5213017,12.155535 90.9911061,12.155535 L88.3226145,12.155535 L88.3226145,15.179535 L90.9433408,15.179535 Z M90.8032291,10.504935 C91.239486,10.504935 91.5977263,10.40256 91.8795419,10.196235 C92.1597654,9.98991 92.2998771,9.657585 92.2998771,9.19296 C92.2998771,8.936235 92.2537039,8.725185 92.1597654,8.561385 C92.067419,8.39601 91.9416369,8.268435 91.7856034,8.17551 C91.6295698,8.082585 91.4512458,8.019585 91.2474469,7.98336 C91.0452402,7.947135 90.8350726,7.928235 90.615352,7.928235 L88.3226145,7.928235 L88.3226145,10.504935 L90.8032291,10.504935 Z M91.1152961,6.04611 C91.6454916,6.04611 92.129514,6.09336 92.5657709,6.18471 C93.0020279,6.277635 93.3761899,6.428835 93.688257,6.639885 C94.000324,6.850935 94.2423352,7.131285 94.4142905,7.480935 C94.5846536,7.830585 94.6706313,8.26371 94.6706313,8.77716 C94.6706313,9.333135 94.543257,9.796185 94.2885084,10.164735 C94.0337598,10.536435 93.6580056,10.838835 93.1580615,11.07666 C93.8442905,11.27196 94.3569721,11.613735 94.694514,12.101985 C95.0320559,12.590235 95.2008268,13.179285 95.2008268,13.869135 C95.2008268,14.423535 95.0925587,14.90391 94.8744302,15.311835 C94.6547095,15.718185 94.3617486,16.048935 93.9923631,16.30566 C93.6229777,16.56396 93.2026425,16.75296 92.7297654,16.877385 C92.2568883,17.000235 91.7696816,17.06166 91.2713296,17.06166 L85.8738436,17.06166 L85.8738436,6.04611 L91.1152961,6.04611 Z" id="Fill-27" fill="#C5CED8"></path>
                        <path d="M95.8088799,6.04611 L98.5537961,6.04611 L101.158601,10.397835 L103.747483,6.04611 L106.476478,6.04611 L102.343182,12.83436 L102.343182,17.06166 L99.8960028,17.06166 L99.8960028,12.772935 L95.8088799,6.04611 Z" id="Fill-29" fill="#C5CED8"></path>
                        <path d="M138.636101,0.538965 L138.636101,17.070165 L142.390458,17.070165 L142.390458,14.09499 L143.684899,12.877515 L146.241939,17.070165 L151.110821,17.070165 L146.417078,10.401615 L150.91976,6.04674 L145.550933,6.04674 L143.391939,8.565165 L142.390458,9.803115 L142.390458,0.538965 L138.636101,0.538965 Z" id="Fill-1" fill="#FFFFFF"></path>
                        <path d="M125.097486,6.044535 L123.683631,13.573035 L121.83352,6.044535 L117.510754,6.044535 L115.690894,13.573035 L114.269078,6.044535 L110.353911,6.044535 L113.246899,17.06796 L118.278184,17.06796 L119.687263,11.34756 L121.096341,17.06796 L126.127626,17.06796 L129.028575,6.044535 L125.097486,6.044535 Z" id="Fill-2" fill="#FFFFFF"></path>
                    </g>
                </g>
                <g id="logo-copy-2" sketch:type="MSShapeGroup">
                    <g id="logotype" transform="translate(55.397712, 2.261538)" fill="#FFFFFF">
                        <path d="M158.91053,14.8832977 C156.987768,12.7970285 154.27328,11.6945285 151.059059,11.6945285 C147.788285,11.6945285 145.106113,13.2097592 143.458031,15.9767515 C141.808795,13.2097592 139.126622,11.6945285 135.855849,11.6945285 C132.642782,11.6945285 129.928294,12.7970285 128.004377,14.8832977 C126.212031,16.8293515 125.224105,19.5556362 125.224105,22.5623515 L125.224105,35.0098592 L131.284384,35.0098592 L131.284384,22.5623515 C131.284384,19.1983131 132.949777,17.2703515 135.855849,17.2703515 C138.761921,17.2703515 140.427314,19.1983131 140.427314,22.5623515 L140.427314,35.0098592 L146.487593,35.0098592 L146.487593,22.5623515 C146.487593,19.1983131 148.154141,17.2703515 151.059059,17.2703515 C153.96513,17.2703515 155.631678,19.1983131 155.631678,22.5623515 L155.631678,35.0098592 L161.691957,35.0098592 L161.691957,22.5623515 C161.691957,19.5556362 160.704031,16.8293515 158.91053,14.8832977" id="Fill-11"></path>
                        <path d="M14.3925564,0.558826154 C13.9043641,0.485326154 13.39886,0.408433846 12.8725817,0.408433846 C5.60394023,0.408433846 0.720862729,5.15766462 0.720862729,12.2249723 L0.720862729,35.0099723 L6.7799875,35.0099723 L6.7799875,18.26328 L13.1380291,18.26328 L13.1380291,12.6863262 L6.7799875,12.6863262 L6.7799875,12.1797415 C6.7799875,8.18925692 8.92318649,6.16518 13.1495703,6.16518 C13.5627449,6.16518 13.9574536,6.23415692 14.3752447,6.30765692 C14.5345131,6.33479538 14.6949356,6.36306462 14.8599746,6.38794154 L15.1658162,6.43430308 L15.1658162,0.66738 L14.9349924,0.636849231 C14.7514875,0.613103077 14.5714449,0.585964615 14.3925564,0.558826154" id="Fill-1"></path>
                        <path d="M33.6864255,23.4648185 C33.6864255,27.5174954 31.6597925,29.6591723 27.8246551,29.6591723 C22.5641806,29.6591723 21.7782256,25.7783723 21.7782256,23.4648185 C21.7782256,19.52748 23.9825929,17.2704646 27.8246551,17.2704646 C31.5755418,17.2704646 33.4925335,19.3001954 33.6864255,23.4648185 M39.772095,24.6238569 C39.7651703,24.1896415 39.7593997,23.7972646 39.7455502,23.4546415 C39.461637,16.2007569 34.8936339,11.6935108 27.8246551,11.6935108 C24.1764849,11.6935108 21.0892165,12.8853415 18.8963904,15.1378338 C16.8466751,17.2421954 15.7179467,20.1833262 15.7179467,23.4195877 C15.7179467,30.15558 20.6460348,35.2361262 27.1795025,35.2361262 C30.2852368,35.2361262 32.8081409,34.0861338 34.5116206,31.9014877 C34.7609103,32.9248338 35.1106083,33.9165185 35.55379,34.8584492 L35.6253454,35.0099723 L41.7340973,35.0099723 L41.5655959,34.6436031 C39.8609621,30.9233723 39.8078727,27.1330338 39.772095,24.6238569" id="Fill-3"></path>
                        <path d="M56.1888607,11.6940762 C52.7045755,11.6940762 49.7592638,12.8825146 47.6703084,15.1304838 C45.7129225,17.2371069 44.6349754,20.19633 44.6349754,23.4653838 L44.6349754,35.0094069 L50.6952543,35.0094069 L50.6952543,23.4653838 C50.6952543,19.5280454 52.6976507,17.2698992 56.1888607,17.2698992 C59.6800707,17.2698992 61.6824672,19.5280454 61.6824672,23.4653838 L61.6824672,35.0094069 L67.741592,35.0094069 L67.741592,23.4653838 C67.741592,20.19633 66.6636448,17.2371069 64.7074131,15.1304838 C62.6184577,12.8825146 59.673146,11.6940762 56.1888607,11.6940762" id="Fill-5"></path>
                        <path d="M89.1339956,23.4648185 C89.1339956,27.5174954 87.1073626,29.6591723 83.2722251,29.6591723 C78.0117507,29.6591723 77.2257957,25.7783723 77.2257957,23.4648185 C77.2257957,19.52748 79.430163,17.2704646 83.2722251,17.2704646 C87.0231119,17.2704646 88.9412577,19.3001954 89.1339956,23.4648185 M94.3425346,23.4648185 L94.3425346,3.68540308 L88.4992301,3.68540308 L88.4992301,13.0040723 C86.636482,12.1876569 85.2711593,11.6935108 82.9548424,11.6935108 C75.8085376,11.6935108 71.0074025,16.4065569 71.0074025,23.4195877 C71.0074025,30.15558 75.9689601,35.2361262 82.5474384,35.2361262 C85.8978459,35.2361262 88.3157252,34.2546185 89.9187965,32.2407185 C90.1750109,33.3104262 90.5500996,34.4592877 90.9967436,35.5312569 L91.0636825,35.6929569 L97.178205,35.6929569 L97.0143201,35.3288492 C95.0546261,30.96408 94.3425346,25.8428262 94.3425346,23.4648185" id="Fill-7"></path>
                        <path d="M116.153422,23.4648185 C116.153422,27.4021569 113.983678,29.6591723 110.199322,29.6591723 C106.414966,29.6591723 104.245222,27.4021569 104.245222,23.4648185 C104.245222,19.52748 106.414966,17.2704646 110.199322,17.2704646 C113.983678,17.2704646 116.153422,19.52748 116.153422,23.4648185 M110.199322,11.6935108 C103.125726,11.6935108 98.184943,16.5343338 98.184943,23.4648185 C98.184943,30.3953031 103.125726,35.2361262 110.199322,35.2361262 C117.272917,35.2361262 122.213701,30.3953031 122.213701,23.4648185 C122.213701,16.5343338 117.272917,11.6935108 110.199322,11.6935108" id="Fill-9"></path>
                    </g>
                    <g id="logomark" fill="url(#linearGradient-1)">
                        <path d="M19.0374238,32.2815392 C19.0374238,32.6467777 18.952019,33.1658008 18.5480773,33.5627008 L17.0338732,34.9026623 L3.26177113,21.5765469 L3.26177113,16.3467392 L18.4049666,31.0026392 C18.6404068,31.2333162 19.0374238,31.7071085 19.0374238,32.2815392 L19.0374238,32.2815392 Z M40.0100743,16.7289392 L40.0100743,21.5788085 L22.8771777,38.6014085 C22.5944186,38.8784469 22.3093512,39.0028315 21.9538825,39.0028315 C21.5891809,39.0028315 21.2648735,38.8671392 20.9925014,38.6002777 L19.4252078,37.1415854 L40.0100743,16.7289392 Z M26.9581425,25.3691469 L22.2100969,30.0222623 L7.16730983,15.2826854 C6.41136189,14.5431623 5.99587905,13.5537392 5.99587905,12.49647 C5.99587905,11.4403315 6.41136189,10.4509085 7.1650016,9.71138538 L11.9153554,5.05713923 L26.9581425,19.7955854 C28.5265902,21.3323008 28.5265902,23.8324315 26.9581425,25.3691469 L26.9581425,25.3691469 Z M24.1570957,12.5315238 L29.105958,7.68278538 C29.8642142,6.94100077 30.8740683,6.53279308 31.9485531,6.53279308 C33.024192,6.53279308 34.0340461,6.94213154 34.7923023,7.68504692 L39.900433,12.6898315 L32.1089756,20.3225238 L29.2652264,17.5363085 L24.1570957,12.5315238 Z M43.1792851,11.7603392 L31.9877931,0.606431538 L31.7558152,0.375754615 L31.5238373,0.605300769 L21.7542199,10.2699854 L13.0210014,1.66822385 L13.0106143,1.65804692 L13.0002273,1.64900077 L11.9095848,0.745516154 L11.6822234,0.556677692 L11.4698655,0.761346923 L0.0971768201,11.7388546 L0.000230823801,11.8327085 L0.000230823801,11.96727 L0.000230823801,22.7695085 L0.000230823801,22.9018085 L0.0960227011,22.9956623 L21.4149089,43.8741854 L21.6457327,44.1003392 L21.8765565,43.8741854 L43.1769769,22.9945315 L43.2727687,22.9006777 L43.2727687,22.7683777 L43.2727687,11.9842315 L43.2727687,11.8530623 L43.1792851,11.7603392 Z" id="Fill-14"></path>
                    </g>
                </g>
            </g>
        </g>
    </g>
</svg>