<?xml version="1.0" standalone="no"?>
<!DOCTYPE svg PUBLIC "-//W3C//DTD SVG 1.1//EN" "http://www.w3.org/Graphics/SVG/1.1/DTD/svg11.dtd" >
<svg xmlns="http://www.w3.org/2000/svg">
<metadata>Generated by IcoMoon</metadata>
<defs>
<font id="aceui-fonts" horiz-adv-x="512">
<font-face units-per-em="512" ascent="480" descent="-32" />
<missing-glyph horiz-adv-x="512" />
<glyph unicode="&#x20;" horiz-adv-x="256" d="" />
<glyph unicode="&#xe000;" glyph-name="uniE000" horiz-adv-x="640" d="M596.233 422.835c-42.147 46.729-104.32 64.546-161.716 52.344h-0.017c-13.269-2.842-21.734-15.906-18.884-29.158 2.816-13.252 15.881-21.734 29.158-18.901 40.823 8.67 84.992-4.028 114.978-37.205 29.935-33.195 38.067-78.473 25.233-118.153l0.017-0.017c-4.181-12.937 2.884-26.769 15.829-30.933 12.902-4.181 26.752 2.884 30.933 15.787 0 0.017 0 0.068 0 0.085 17.998 55.841 6.64 119.474-35.531 166.151zM529.963 372.77c-20.514 22.758-50.799 31.403-78.763 25.455-11.435-2.432-18.714-13.687-16.256-25.122 2.441-11.383 13.687-18.705 25.071-16.222v-0.017c13.67 2.893 28.493-1.323 38.537-12.425 10.035-11.136 12.732-26.3 8.414-39.603h0.017c-3.584-11.102 2.5-23.031 13.619-26.641 11.119-3.558 23.040 2.509 26.624 13.636 8.789 27.196 3.302 58.189-17.263 80.939z" />
<glyph unicode="&#xe001;" glyph-name="uniE001" horiz-adv-x="640" d="M269.594 6.033c-106.232-10.479-197.948 37.53-204.852 107.29-6.895 69.743 73.66 134.784 179.891 145.289 106.257 10.513 197.965-37.513 204.851-107.238 6.879-69.778-73.633-134.845-179.89-145.341zM482.099 237.585c-9.045 2.705-15.241 4.548-10.505 16.418 10.24 25.788 11.307 48.026 0.188 63.898-20.83 29.756-77.833 28.16-143.164 0.794 0 0.043-20.514-8.977-15.275 7.296 10.052 32.316 8.542 59.375-7.108 74.999-35.439 35.473-129.707-1.34-210.551-82.15-60.535-60.545-95.684-124.707-95.684-180.19 0-106.129 136.098-170.65 269.244-170.65 174.532 0 290.645 101.41 290.645 181.914-0.008 48.648-40.977 76.253-77.79 87.671z" />
<glyph unicode="&#xe002;" glyph-name="uniE002" horiz-adv-x="640" d="M275.456 128.333c-3.721-6.366-11.93-9.421-18.355-6.767-6.332 2.611-8.32 9.711-4.727 15.957 3.712 6.212 11.605 9.242 17.911 6.741 6.417-2.346 8.712-9.54 5.171-15.931zM241.604 84.873c-10.274-16.393-32.282-23.578-48.862-16.009-16.333 7.433-21.154 26.487-10.871 42.47 10.146 15.915 31.411 23.014 47.872 16.119 16.64-7.099 21.956-26.009 11.861-42.58zM280.218 200.909c-50.56 13.158-107.708-12.041-129.664-56.593-22.366-45.431-0.734-95.863 50.33-112.358 52.915-17.058 115.277 9.088 136.96 58.129 21.392 47.94-5.309 97.296-57.626 110.822z" />
<glyph unicode="&#xe003;" glyph-name="uniE003" d="M125.76 92.64h-24.48l-24.8-113.6h20l5.44 27.36h21.28l5.28-27.36h20l-22.72 113.6zM121.12 22.4h-17.12l4.48 24.48c1.28 6.72 2.88 18.24 4.16 25.92h0.48c1.12-7.68 2.72-18.72 3.84-25.76l4.16-24.64zM214.24 2.72v92.96h-20.48v-41.44h-0.32c-2.4 5.12-6.88 8.48-14.080 8.48-13.6 0-26.24-13.92-26.24-42.72 0-23.52 8.32-42.24 25.28-42.24 7.68 0 14.24 4.96 17.12 10.72h0.48l1.12-9.44h17.6c-0.16 7.2-0.48 16.32-0.48 23.68zM193.6 29.76v-21.76c0-2.080-0.16-3.84-0.64-5.28-1.92-6.72-5.44-8.32-8.48-8.32-6.72 0-11.040 9.12-11.040 24.96 0 13.92 3.040 25.76 11.2 25.76 4.8 0 7.84-5.12 8.64-10.72 0.48-1.28 0.48-3.040 0.32-4.64v0zM214.24 95.68v0 0zM256.8 62.72c-16 0-31.2-13.12-31.2-42.72 0-27.040 11.84-42.24 30.72-42.24v0h0.16c12.32 0 30.56 8.8 30.56 42.72 0.16 26.4-11.52 42.24-30.24 42.24zM256.8-6.56h-0.16c-8.32 0-10.56 12.96-10.56 26.88 0 11.52 1.76 26.72 10.4 26.72 8.16 0 10.080-15.040 10.080-26.72 0-12.16-1.92-26.88-9.76-26.88zM336.48 62.72c-7.84 0-13.12-3.68-17.28-9.92h-0.32v42.88h-20.48v-92.96c0-7.36-0.32-16.64-0.64-23.52h17.6l1.12 9.92h0.48c4.32-8 9.12-11.2 16.16-11.2 15.040 0 26.56 15.52 26.56 44.48 0 22.88-7.68 40.32-23.2 40.32zM328.16-5.28c-2.72 0-6.24 1.76-8.32 8.64-0.48 1.28-0.8 3.2-0.8 5.28v23.040c0 1.6 0.32 3.68 0.8 5.12 1.12 4.48 4.32 8.8 8.32 8.8 7.84 0 11.2-10.080 11.2-24.64-0.16-16.32-3.2-26.24-11.2-26.24zM427.52 24.48c0 23.84-9.76 38.4-27.2 38.4-18.24 0-32.16-16.48-32.16-44 0-25.6 12-40.64 33.92-40.64 8 0 16.48 1.44 21.92 3.84l-2.72 14.72c-3.84-1.44-9.12-2.88-15.36-2.88-9.76 0-17.6 4.8-17.76 19.68l38.88-0.16c0.32 2.4 0.48 5.6 0.48 11.040zM388.16 28.16c0.16 8.8 3.36 19.68 10.72 19.68 6.56 0 9.92-8.16 9.76-19.68h-20.48zM296.64 466.72h130.88v-313.28zM204.48 466.72h-131.040v-313.28zM250.56 351.2l83.52-197.76h-54.72l-24.96 62.88h-60.96z" />
<glyph unicode="&#xe600;" glyph-name="uniE600" horiz-adv-x="525" d="M21.881 458.12h481.368v-468.24h-481.368v468.24z" />
<glyph unicode="&#xe601;" glyph-name="uniE601" d="M256.651 479.011c-141.399 0-256-114.618-256-256s114.6-256 256-256c141.399 0 256 114.618 256 256s-114.601 256-256 256zM256.651 460.186c130.781 0 237.19-106.408 237.19-237.175 0-130.79-106.409-237.175-237.19-237.175s-237.187 106.385-237.187 237.175c0 130.767 106.406 237.175 237.187 237.175z" />
<glyph unicode="&#xe602;" glyph-name="uniE602" d="M137.653 283.421c13.88 0 26.938-5.411 36.744-15.243 9.8-9.833 15.212-22.924 15.212-36.829 0-13.934-5.411-27.025-15.212-36.858-9.806-9.865-22.865-15.272-36.745-15.272-13.876 0-26.938 5.408-36.739 15.272-9.806 9.836-15.215 22.926-15.215 36.858 0 13.905 5.408 26.997 15.215 36.829 9.83 9.83 22.865 15.244 36.739 15.244zM259.080 405.195c13.877 0 26.909-5.411 36.712-15.272 20.276-20.305 20.276-53.352 0.032-73.688-9.836-9.832-22.868-15.244-36.745-15.244-13.903 0-26.938 5.411-36.742 15.244-20.248 20.334-20.248 53.382 0 73.688 9.804 9.862 22.837 15.273 36.742 15.273zM254.222 166.505c13.876 0 26.938-5.414 36.774-15.243 9.8-9.836 15.212-22.926 15.212-36.858 0-13.909-5.411-27-15.212-36.829-9.836-9.836-22.897-15.272-36.774-15.272s-26.909 5.437-36.713 15.272c-20.276 20.303-20.276 53.382 0 73.688 9.804 9.83 22.837 15.243 36.713 15.243zM375.648 278.418c11.226 0 21.818-4.422 29.789-12.393 7.939-7.971 12.303-18.56 12.303-29.847s-4.363-21.876-12.303-29.876c-7.971-7.971-18.534-12.334-29.789-12.334-11.258 0-21.818 4.363-29.76 12.334-7.971 8-12.334 18.589-12.334 29.876s4.363 21.876 12.334 29.876c7.942 7.942 18.502 12.363 29.76 12.363zM137.653 293.312c-15.823 0-31.648-6.051-43.695-18.153-24.148-24.203-24.148-63.447 0-87.651 12.046-12.102 27.869-18.152 43.695-18.152s31.625 6.051 43.697 18.152c22.953 22.982 24.088 59.578 3.433 83.93l34.88 34.502c10.298-8.815 22.778-13.702 35.52-14.662v-114.883h-0.232c-15.822 0-32.349-6.051-44.422-18.152-24.119-24.198-24.119-63.445 0-87.648 12.070-12.102 27.898-18.182 43.695-18.182 15.822 0 31.651 6.080 43.724 18.182 21.382 21.437 23.825 54.723 7.302 78.863l35.288 35.695c10.531-7.302 22.837-10.967 35.113-10.967 15.822 0 31.619 6.051 43.695 18.152 24.149 24.204 24.149 63.476 0 87.683-12.072 12.072-27.869 18.152-43.695 18.152s-31.654-6.051-43.695-18.152c-24.149-24.203-24.149-63.476 0-87.683l1.103-1.074-34.063-34.097-1.748 1.074c-9.423 9.454-21.12 15.214-33.338 17.283v115.84c13.902 1.251 27.491 7.215 38.135 17.891 24.12 24.204 24.875 63.476 0.728 87.651-12.070 12.131-27.898 18.182-43.695 18.182-15.822 0-31.651-6.051-43.721-18.153-22.927-23.011-24.061-59.578-3.435-83.928l-34.269-34.414c-11.485 9.803-25.739 14.72-39.997 14.72zM403.051 237.312c0-14.575-9.512-27.494-26.531-27.84-18.007-0.352-27.837 11.954-27.837 26.531 0 14.603 12.303 28.102 26.848 28.102s27.52-12.189 27.52-26.792z" />
<glyph unicode="&#xe603;" glyph-name="uniE603" horiz-adv-x="525" d="M0 480v-512h525.13v512h-525.13zM21.881 458.12h481.37v-468.24h-481.37v468.24zM133.451 132.536c-1.444 1.081-2.166 2.525-2.166 4.694v34.659c0 1.086 1.444 2.166 2.888 1.086 16.246-11.192 35.236-16.248 53.287-16.248 26.355 0 37.185 13.719 37.185 29.243 0 13.719-6.859 24.911-32.131 39.713l-12.997 6.859c-37.185 20.94-48.017 42.238-48.017 69.315 0 36.825 25.633 66.428 74.010 66.428 21.3 0 37.109-3.249 46.135-8.303 1.805-0.722 2.166-1.805 2.166-3.971v-32.493c0-1.444-1.444-2.525-2.888-1.444-11.192 7.222-27.722 10.831-44.691 10.831-27.799 0-36.825-15.885-36.825-28.521 0-13.719 6.859-23.827 31.77-37.544l11.553-6.139c41.157-22.747 51.626-44.765 51.626-71.842 0-40.072-29.243-67.873-76.899-67.873-21.3 0-40.654 3.971-54.010 11.553zM384 129.286c0-1.808-0.722-3.252-2.529-3.974-7.582-2.884-15.885-4.33-26.714-4.33-27.44 0-42.962 14.441-42.962 48.375v98.402h-20.758c-1.805 0-2.216 0.722-2.216 2.527v29.046c0 1.805 0.361 2.888 2.527 2.888h20.758c0.363 12.636 1.808 34.659 3.249 41.518 0 2.527 1.086 3.242 2.525 3.606l32.496 4.33c1.444 0.361 2.525 0.007 2.525-1.798-0.722-10.469-1.081-28.16-1.444-47.656h31.654c1.808 0 2.529-0.722 2.529-2.527v-29.768c0-1.805-1.086-2.166-2.529-2.166h-31.932v-91.7c0-14.804 5.056-21.504 18.41-21.504 4.332 0 7.909 0.363 12.244 1.444 1.081 0.363 2.166-0.359 2.166-2.166v-24.548z" />
<glyph unicode="&#xe604;" glyph-name="uniE604" d="M143.982 142.566c0.178 1.222 0.294 2.473 0.294 3.721 0 2.88-0.465 5.615-1.318 8.204l151.232 77.501c4.303-5.88 10.97-9.92 18.606-10.677l6.351-112.989c-7.959-1.722-14.572-7.046-18.051-14.17l-157.114 48.41zM238.423 373.81c4.739-6.956 12.698-11.494 21.711-11.494 1.932 0 3.829 0.233 5.644 0.614l36.366-92.716c-4.212-2.444-7.666-6.022-9.949-10.325l-154.97 53.557c0.264 1.512 0.436 3.022 0.436 4.596 0 2.586-0.381 5.056-1.082 7.415l101.844 48.352zM364.669 346.257c-0.323-1.632-0.5-3.32-0.5-5.032 0-6.837 2.63-13.033 6.909-17.688l-42.575-53.149c-3.861 2.182-8.308 3.459-13.048 3.459-1.958 0-3.832-0.232-5.647-0.608l-36.337 92.712c4.041 2.385 7.433 5.818 9.714 9.949l81.483-29.644zM410.778 209.504c-4.183-1.483-7.898-3.988-10.825-7.243l-59.802 36.102c1.050 2.851 1.664 5.931 1.664 9.137 0 6.837-2.63 13.030-6.904 17.716l42.569 53.149c3.863-2.182 8.305-3.459 13.050-3.459l0.698 0.029 19.549-105.432zM121.044 172.44l-4.626 119.738c7.872 1.568 14.485 6.603 18.144 13.466l154.973-53.522c-0.267-1.516-0.44-3.058-0.44-4.625 0-2.88 0.469-5.62 1.315-8.203l-151.226-77.472c-4.215 5.76-10.709 9.745-18.141 10.618zM327.368 108.788l-6.351 112.995c5.527 1.158 10.385 4.096 14.016 8.143l59.829-36.102c-1.056-2.851-1.67-5.931-1.67-9.132 0-6.141 2.135-11.784 5.647-16.267l-59.421-63.965c-3.509 2.351-7.604 3.896-12.050 4.329zM419.558 211.043l-0.669-0.029-19.578 105.425c10.243 3.608 17.591 13.324 17.591 24.786 0 14.575-11.822 26.36-26.365 26.36-9.92 0-18.551-5.472-23.058-13.586l-81.481 29.64c0.317 1.632 0.498 3.32 0.498 5.033 0 14.546-11.793 26.36-26.362 26.36-14.542 0-26.333-11.814-26.333-26.36 0-2.592 0.378-5.062 1.079-7.421l-101.838-48.344c-4.742 6.956-12.698 11.488-21.71 11.488-14.569 0-26.362-11.808-26.362-26.353 0-13.501 10.153-24.614 23.229-26.153l4.594-119.738c-12.111-2.385-21.242-13.033-21.242-25.865 0-14.546 11.793-26.325 26.362-26.325 10.386 0 19.339 6.016 23.642 14.743l157.112-48.404c-0.178-1.222-0.296-2.443-0.296-3.726 0-14.546 11.793-26.353 26.365-26.353 14.539 0 26.333 11.808 26.333 26.353 0 6.141-2.109 11.784-5.647 16.262l59.45 63.971c4.183-2.819 9.245-4.477 14.688-4.477 14.568 0 26.365 11.814 26.365 26.36s-11.8 26.353-26.365 26.353z" />
<glyph unicode="&#xe605;" glyph-name="uniE605" horiz-adv-x="525" d="M0 480v-512h525.13v512h-525.13zM21.881 458.12h481.37v-468.24h-481.37v468.24zM115.946 132.623c-1.444 1.081-2.166 2.525-2.166 4.694v34.659c0 1.086 1.444 2.166 2.888 1.086 16.246-11.192 35.221-16.248 53.272-16.248 26.355 0 37.185 13.719 37.185 29.243 0 13.719-6.859 24.911-32.132 39.715l-12.997 6.859c-37.185 20.94-48.017 42.24-48.017 69.317 0 36.825 25.633 66.426 74.010 66.426 21.3 0 37.125-3.247 46.15-8.303 1.805-0.722 2.166-1.803 2.166-3.969v-32.493c0-1.444-1.444-2.529-2.888-1.444-11.192 7.221-27.74 10.828-44.708 10.828-27.799 0-36.825-15.885-36.825-28.521 0-13.719 6.859-23.826 31.77-37.547l11.553-6.137c41.157-22.745 51.626-44.765 51.626-71.842 0-40.072-29.243-67.873-76.898-67.873-21.298-0.002-40.636 3.969-53.992 11.55zM413.538 157.897c0-15.889-1.444-29.606-3.611-40.076-10.829-45.128-45.728-56.32-80.025-56.32-15.526 0-31.565 2.529-44.199 8.667-1.444 1.081-1.805 2.166-1.805 3.611v34.295c0 1.808 0.722 2.529 1.805 1.444 14.802-7.94 30.479-11.192 44.921-11.192 25.272 0 41.879 12.636 42.962 39.713-7.223-2.888-14.082-4.332-23.469-4.332-42.601 0-75.094 28.162-75.094 83.038 0 48.017 29.604 88.449 86.646 88.449 20.579 0 39.717-4.33 51.995-9.026 1.083-0.722 1.32-1.081 1.32-2.166-1.083-8.304-1.444-16.966-1.444-20.577v-115.528zM374.154 268.73c-3.969 1.803-9.748 2.888-15.524 2.888-29.243 0-43.533-23.108-43.533-52.351 0-35.74 18.262-50.543 41.726-50.543 6.86 0 12.272 0.722 17.329 3.247v96.759z" />
<glyph unicode="&#xe606;" glyph-name="uniE606" horiz-adv-x="525" d="M0 480v-512h525.13v512h-525.13zM21.881 458.12h481.37v-468.24h-481.37v468.24zM126.906 360.12c0 1.444 3.096 2.525 4.901 2.525 14.080 0.722 34.75 1.083 56.412 1.083 60.653 0 84.272-33.216 84.272-75.813 0-55.598-40.321-79.428-89.781-79.428-8.303 0-11.192 0.363-16.968 0.363v-84.065c0-1.808-0.722-2.529-2.527-2.529h-33.779c-1.805 0-2.527 0.722-2.527 2.529v235.334zM165.744 243.868c5.054-0.359 9.025-0.359 17.691-0.359 25.633 0 49.708 9.025 49.708 43.684 0 27.799-17.215 41.879-46.458 41.879-8.665 0-16.968-0.361-20.94-0.722v-84.482zM354.075 269.863c-17.329 0-23.106-8.667-23.106-15.885 0-7.945 3.969-13.358 27.077-25.274 34.298-16.607 45.128-32.493 45.128-55.959 0-35.022-26.716-53.795-62.818-53.795-19.135 0-35.42 3.974-44.807 9.389-1.444 0.722-1.805 1.803-1.805 3.611v32.129c0 2.166 1.083 2.888 2.527 1.808 13.719-9.026 29.642-12.999 44.082-12.999 17.329 0 24.55 7.223 24.55 16.971 0 7.945-5.055 14.804-27.077 26.355-31.048 14.804-44.045 29.968-44.045 55.237 0 28.162 22.022 51.629 60.291 51.629 18.774 0 32.029-2.888 39.249-6.137 1.805-1.086 2.166-2.888 2.166-4.332v-29.968c0-1.803-1.083-2.888-3.249-2.166-9.745 5.779-24.084 9.389-38.163 9.389z" />
<glyph unicode="&#xe607;" glyph-name="uniE607" horiz-adv-x="525" d="M0 480v-512h525.13v512h-525.13zM21.881 458.12h481.37v-468.24h-481.37v468.24zM136.205 360.146c0 1.444 0.361 2.527 2.166 2.527 14.080 0.722 34.659 1.083 56.32 1.083 60.653 0 87.007-33.214 87.007-75.815 0-55.598-40.227-79.425-89.688-79.425-8.303 0-11.192 0.359-16.968 0.359v-84.086c0-1.808-0.722-2.529-2.527-2.529h-33.781c-1.805 0-2.527 0.722-2.527 2.529v235.358zM175.042 243.898c5.054-0.363 9.025-0.363 17.691-0.363 25.633 0 49.613 9.025 49.613 43.684 0 27.799-17.121 41.881-46.364 41.881-8.665 0-16.968-0.363-20.94-0.722v-84.48zM315.077 263.752c0 2.525 0 9.026-1.081 21.298 0 1.808 0.252 2.166 1.695 2.888 13.356 5.416 44.62 15.163 80.001 15.163 1.808 0 2.529-0.359 2.529-2.164v-31.772c0-1.803-0.582-2.166-2.385-2.166-13.721 0.722-33.794-1.081-41.375-4.33v-137.881c0-1.808-0.722-2.529-2.529-2.529h-34.328c-1.805 0-2.527 0.722-2.527 2.529v138.964z" />
<glyph unicode="&#xe608;" glyph-name="uniE608" horiz-adv-x="525" d="M0 480v-512h525.13v512h-525.13zM21.881 458.12h481.37v-468.24h-481.37v468.24zM143.316 360.369c0 1.442 0.361 2.527 2.166 2.527 14.080 0.722 34.4 1.081 56.062 1.081 60.653 0 87.007-33.214 87.007-75.813 0-55.598-39.971-79.421-89.431-79.421-8.304 0-11.192 0.359-16.968 0.359v-84.316c0-1.803-0.722-2.525-2.527-2.525h-33.779c-1.805 0-2.527 0.722-2.527 2.525v235.583zM182.154 244.119c5.054-0.361 9.025-0.361 17.69-0.361 25.633 0 49.358 9.025 49.358 43.684 0 27.799-16.865 41.879-46.108 41.879-8.665 0-16.968-0.361-20.94-0.722v-84.48zM327.111 360.774c0 1.444 0.359 2.166 2.525 2.166h33.969c2.166 0 2.888-0.722 2.888-2.166v-196.438c0-8.667 3.247-11.914 9.748-11.914 2.888 0 4.147 0.359 5.95 0.722 1.444 0 1.808-0.363 1.808-2.166v-25.633c0-2.166-0.363-2.888-1.808-3.611-4.693-1.803-11.397-2.525-18.979-2.525-19.137 0-36.103 7.219-36.103 41.877v199.686z" />
<glyph unicode="&#xe609;" glyph-name="uniE609" d="M389.132 104.448l-31.154 31.683c24.637 25.688 41.074 60.625 40.899 99.113l0.035 8.727-122.185-0.084 114.214 114.383c66.644-71.418 65.827-183.276-1.81-253.821zM268.142 110.938v112.669h109.76c-4.072-59.608-50.499-107.608-109.76-112.669zM123.91 360.218l30.923-31.477c-24.291-25.135-40.378-59.287-40.465-96.96v-8l127.883-0.178-120.204-117.21c-66.618 71.424-65.832 183.308 1.862 253.824zM247.779 352.567v-108.68l-111.796 0.084c4.946 58.648 53.323 103.563 111.796 108.596zM394.51 368.8l-3.433 3.52-122.938-123.055v122.618h-10.822c-36.043-0.175-70.488-13.818-95.418-36.276l-37.964 38.603-3.52-3.462c-36.858-36.48-57.862-85.178-58.24-137.106-0.378-51.93 19.928-100.771 56.291-137.774l3.462-3.488 125.848 122.909v-122.677h10.793c36.014 0.171 67.433 14.045 92.338 36.654l38.164-38.808 3.488 3.459c77.038 75.869 78.493 196.248 1.952 274.88z" />
<glyph unicode="&#xe60a;" glyph-name="uniE60A" d="M256.616 185.187c-7.994 0-15.496 2.098-22.024 5.745v-25.37c6.918-2.353 14.322-3.648 22.024-3.648 37.832 0 68.611 27.808 68.611 68.608 0 0.041 0.209 186.12 0.209 186.12-7.572 2.874-15.337 5.306-23.272 7.232 0 0-0.209-193.312-0.209-193.353 0-28.192-20.337-45.336-45.338-45.336zM256.616 275.849c8.043 0 15.59-2.13 22.147-5.818v25.402c-6.955 2.374-14.397 3.688-22.147 3.688-37.833 0-68.611-30.778-68.611-68.596 0-10.048-0.209-183.887-0.209-183.887 7.576-2.767 15.349-5.062 23.275-6.892l0.209 190.851c0.041 24.948 20.361 45.251 45.335 45.251zM351.13 230.525c0-58.741-42.344-94.616-94.514-94.616-7.581 0-14.952 0.92-22.024 2.613v-10.45c7.104-1.527 14.472-2.348 22.024-2.348 57.784 0 104.695 41.693 104.695 104.797 0 1.315 0.209 168.085 0.209 168.085-3.334 2.12-6.723 4.16-10.182 6.074 0 0.003-0.209-174.118-0.209-174.155zM256.616 325.12c7.627 0 15.037-0.931 22.147-2.642v10.45c-7.144 1.544-14.548 2.374-22.147 2.374-57.786 0-104.797-47.011-104.797-104.78 0-5.091-0.209-166.298-0.209-166.298 3.334-2.063 6.728-4.035 10.184-5.897l0.209 172.264c0.035 52.125 42.464 94.528 94.613 94.528zM386.060 230.525c0-75.712-58.031-129.512-129.44-129.512-7.512 0-14.863 0.675-22.028 1.909v-10.342c7.179-1.144 14.534-1.752 22.028-1.752 77.024 0 139.622 58.164 139.622 139.695 0 0.864 0.422 139.857 0.422 139.857-3.284 3.334-6.676 6.557-10.182 9.647 0 0.003-0.422-149.464-0.422-149.501zM116.713 91.688c3.287-3.243 6.688-6.36 10.184-9.358l0.21 149.309c0 75.363 58.12 128.378 129.516 128.378 7.552 0 14.944-0.686 22.144-1.931v10.342c-7.214 1.152-14.606 1.772-22.144 1.772-77.030 0-139.697-54.598-139.697-138.632-0.006-5.376-0.213-139.878-0.213-139.878z" />
<glyph unicode="&#xe60b;" glyph-name="uniE60B" horiz-adv-x="525" d="M0 480v-512h525.13v512h-525.13zM21.881 458.12h481.37v-468.24h-481.37v468.24zM135.111 360.019c0 1.805 0.361 2.527 1.805 2.888 10.108 0.361 37.422 1.083 59.442 1.083 66.79 0 78.704-38.991 78.704-62.457 0-26.716-12.997-41.881-22.383-49.461 13.358-6.499 33.215-23.106 33.215-57.401 0-45.489-36.464-73.288-92.061-72.927-23.828 0-44.641 0.361-56.193 0.722-1.805 0.361-2.527 1.444-2.527 2.888v234.664zM173.401 266.12h22.023c10.47 0 22.598-0.689 27.653-1.773 7.582 6.499 13.719 16.246 13.719 31.77 0 22.384-15.017 33.576-40.649 33.576-8.665 0-16.968-0.361-22.744-0.722v-62.852zM173.401 156.204c6.499-0.361 12.636-0.525 20.578-0.525 28.521 0 51.478 10.831 51.478 38.269 0 16.968-8.665 29.405-26.355 34.822-6.137 1.805-13.358 2.886-21.3 2.886h-24.401v-75.452zM315.624 263.986c0 2.527 0 9.026-1.083 21.301 0 1.805 0.229 2.166 1.674 2.888 13.358 5.416 44.647 15.163 80.027 15.163 1.805 0 2.527-0.361 2.527-2.166v-31.77c0-1.805-0.558-2.166-2.363-2.166-13.719 0.722-33.816-1.083-41.397-4.332v-138.118c0-1.808-0.722-2.529-2.527-2.529h-34.328c-1.805 0-2.527 0.722-2.527 2.529v139.2z" />
<glyph unicode="&#xe60c;" glyph-name="uniE60C" horiz-adv-x="525" d="M0 480v-512h525.13v512h-525.13zM21.881 458.12h481.37v-468.24h-481.37v468.24zM148.476 190.086l-17.329-65.555c-0.361-1.803-1.083-2.274-3.247-2.274h-32.133c-2.166 0-2.527 0.722-2.166 3.247l62.097 217.548c1.083 3.969 1.805 6.89 2.166 17.723 0 1.444 0.722 2.166 1.805 2.166h45.851c1.444 0 2.166-0.363 2.525-2.166l69.68-235.63c0.361-1.808 0-2.888-1.805-2.888h-36.102c-1.805 0-2.888 0.471-3.249 1.914l-18.052 65.914h-70.039zM209.489 225.641c-6.137 24.189-20.577 77.205-25.994 102.838h-0.361c-4.694-25.633-16.246-68.901-25.272-102.838h51.626zM425.572 158.925c0-2.525 0.361-10.106 1.083-22.384 0-1.444-0.553-2.166-1.998-2.525-19.132-7.223-39.936-14.804-66.652-14.804-32.853 0-64.262 12.636-64.262 63.18v115.3c0 1.803 0.722 2.888 2.527 2.888h34.328c1.805 0 2.527-1.085 2.527-2.888v-110.608c0-21.298 8.461-32.851 30.847-32.851 9.026 0 16.8 1.803 22.213 3.969v139.489c0 1.803 0.722 2.888 2.527 2.888h34.328c2.166 0 2.527-1.086 2.527-2.888v-138.767z" />
<glyph unicode="&#xe60d;" glyph-name="uniE60D" d="M194.109 217.192h-26.182v-172.483c8.029-4.041 17.6-7.563 26.182-10.473v182.956zM243.564 228.829v-203.578c3.695-1.336 9.047-2.79 12.771-2.79 4.654 0 9.135-0.584 13.324 0.375l0.087 205.993h-26.182zM394.837 83.928c9.37 9.891 18.967 21.877 26.182 33.544v131.72h-26.182v-165.266zM105.934 206.488l60.888 69.99 57.833-21.469 123.316 88.264 62.164-58.677 31.243 24.96-4.68 9.978-26.735-21.12-60.742 56.611-125.294-89.483-58.182 22.575-64.873-73.135-40.582-9.51 0.029-9.341 45.614 10.356zM118.472 164.829h-26.182v-50.938c7.302-11.171 16.873-21.556 26.182-31.011v81.949zM345.382 281.192h-26.182v-246.051c8.611 3.087 18.152 6.749 26.182 10.967v235.084z" />
<glyph unicode="&#xe60e;" glyph-name="uniE60E" horiz-adv-x="525" d="M0 480v-512h525.13v512h-525.13zM21.881 458.12h481.37v-468.24h-481.37v468.24zM182.161 190.086l-17.329-65.601c-0.361-1.803-1.083-2.228-3.249-2.228h-32.136c-2.162 0-2.52 0.722-2.162 3.249l62.096 217.595c1.083 3.971 1.805 7.389 2.166 18.222 0 1.444 0.722 2.166 1.805 2.166h45.85c1.444 0 2.166-0.361 2.527-2.166l69.678-236.176c0.361-1.803 0-2.888-1.805-2.888h-36.103c-1.803 0-2.886 0.423-3.247 1.868l-18.052 65.961h-70.041zM243.173 225.641c-6.137 24.191-20.578 77.207-25.994 102.838h-0.361c-4.696-25.633-16.246-68.901-25.272-102.838h51.626zM341.618 347.248c0 14.080 9.748 22.383 22.384 22.383 13.356 0 22.382-9.025 22.382-22.383 0-14.441-9.387-22.383-22.745-22.383-12.995 0-22.020 7.942-22.020 22.383zM344.068 297.507c0 1.805 0.722 2.527 2.527 2.527h34.328c1.805 0 2.527-0.722 2.527-2.527v-172.721c0-1.808-0.361-2.529-2.527-2.529h-33.967c-2.166 0-2.888 1.086-2.888 2.888v172.363z" />
<glyph unicode="&#xe60f;" glyph-name="uniE60F" horiz-adv-x="525" d="M0 480v-512h525.13v512h-525.13zM21.881 458.12h481.37v-468.24h-481.37v468.24zM148.428 190.086l-17.329-65.346c-0.363-1.803-1.085-2.483-3.251-2.483h-32.127c-2.166 0-2.529 0.722-2.166 3.247l62.094 217.337c1.085 3.969 1.808 7.103 2.166 17.931 0 1.444 0.722 2.166 1.808 2.166h45.85c1.44 0 2.162-0.363 2.525-2.166l69.68-235.627c0.359-1.808 0-2.888-1.808-2.888h-36.102c-1.803 0-2.888 0.68-3.247 2.12l-18.052 65.709h-70.041zM209.834 225.608c-6.137 24.189-20.975 77.24-26.39 102.87h-0.359c-4.694-25.633-16.543-68.915-25.57-102.851l52.318-0.019zM327.122 203.214c0.363-29.606 14.445-49.461 47.657-49.461 12.995 0 24.132 1.717 35.685 6.774 1.444 0.722 2.529 0.359 2.529-1.444v-27.44c0-2.166-0.722-3.247-2.166-4.33-11.55-5.779-25.939-8.303-43.99-8.303-57.762 0-79.425 42.599-79.425 90.257 0 51.625 26.714 93.863 73.651 93.863 47.653 0 64.26-40.072 64.26-72.564 0-10.47-0.722-19.136-1.803-23.108-0.363-1.803-1.086-2.44-2.888-2.798-4.332-0.722-17.329-1.444-36.466-1.444h-57.044zM371.528 233.299c11.192 0 15.168 0 16.248 0.359 0 1.444 0.363 2.685 0.363 3.766 0 11.914-5.779 33.781-28.521 33.781-20.94 0-29.965-18.41-32.133-37.906h44.043z" />
<glyph unicode="&#xe610;" glyph-name="uniE610" horiz-adv-x="525" d="M0 480v-512h525.13v512h-525.13zM21.881 458.12h481.37v-468.24h-481.37v468.24zM89.213 363.487h51.266c1.805 0 2.527-0.372 2.888-2.175 9.025-33.577 35.019-142.605 41.157-179.43h0.361c6.859 33.577 37.185 143.935 46.572 179.316 0.361 1.803 1.083 2.291 2.888 2.291h49.458c1.805 0 2.166-0.359 2.527-1.803l8.664-236.538c0.361-2.166-0.722-2.888-2.525-2.888h-35.022c-2.164 0-2.525 1.005-2.525 2.807-1.444 77.262-1.444 186.469-1.444 205.601h-0.361c-6.139-30.685-37.907-153.974-51.626-205.601-0.361-2.166-1.444-2.807-2.888-2.807h-31.77c-1.805 0-2.888 0.641-3.249 2.449-13.358 53.791-37.907 165.166-46.212 205.959h-0.722c0-28.521-2.888-127.26-5.776-205.601 0-2.166-1.083-2.807-2.527-2.807h-31.77c-2.166 0-2.888 0.722-2.888 2.529l12.997 236.531c0.361 1.808 0.722 2.166 2.527 2.166zM451.829 158.904c0-2.525 0.359-10.106 1.081-22.384 0-1.444-0.144-2.166-1.591-2.525-19.137-7.223-40.343-14.804-67.059-14.804-32.851 0-64.26 12.636-64.26 63.18v115.322c0 1.808 0.722 2.888 2.525 2.888h34.328c1.808 0 2.529-1.081 2.529-2.888v-110.627c0-21.303 8.057-32.856 30.44-32.856 9.026 0 17.204 1.803 22.62 3.969v139.513c0 1.808 0.722 2.888 2.525 2.888h34.328c2.166 0 2.529-1.081 2.529-2.888v-138.789z" />
<glyph unicode="&#xe611;" glyph-name="uniE611" horiz-adv-x="525" d="M0 480v-512h525.13v512h-525.13zM21.881 458.12h481.37v-468.24h-481.37v468.24zM199.111 382.632h-31.726v-31.726h31.726v31.726zM357.743 350.906h-31.726v-31.726h31.726v31.726zM294.291 350.906h-31.726v-31.726h31.726v31.726zM230.838 319.179v31.727h-31.727v-31.726h31.726zM262.564 287.453v31.727h-31.726v-31.726h31.726zM389.47 287.453v-31.726h31.726v31.726h-31.726zM357.743 287.453h-31.726v-31.726h31.726v31.726zM294.291 255.726v31.726h-31.726v-31.726h31.726zM326.017 224v31.726h-31.726v-31.726h31.726zM389.47 192.274h31.726v31.726h-31.726v-31.726zM357.743 192.274v31.726h-31.726v-31.726h31.726zM357.743 160.547h31.726v31.726h-31.726v-31.726zM421.197 128.82v31.726h-31.726v-31.726h31.726zM357.743 160.547h-31.726v31.726h-31.726v31.726h-31.726v31.726h-31.726v31.726h-31.726v31.726h-31.726v31.726h-31.726v31.726h-31.727v-316.171h317.265v31.726h-31.726v30.632h-31.726v31.726z" />
<glyph unicode="&#xe612;" glyph-name="uniE612" horiz-adv-x="525" d="M0 480v-512h525.13v512h-525.13zM21.881 458.12h481.37v-468.24h-481.37v468.24zM145.471 122.803c-2.527 0-3.249 1.086-3.249 3.249v235.094c0 1.805 0.722 2.888 2.527 2.888h34.691c1.805 0 2.166-0.722 2.166-2.527v-202.603h90.257c1.805 0 2.326-0.722 1.959-2.525l-5.416-31.046c-0.356-1.808-1.444-2.529-3.243-2.529h-119.692zM307.419 264.505c0 2.527 0 9.025-1.083 21.3 0 1.805 0.396 2.166 1.838 2.888 13.358 5.416 45.029 15.163 80.411 15.163 1.805 0 2.527-0.361 2.527-2.166v-31.771c0-1.805-0.722-2.166-2.527-2.166-13.719 0.722-34.199-1.083-41.781-4.332v-138.091c0-1.808-0.722-2.529-2.527-2.529h-34.328c-1.805 0-2.527 0.722-2.527 2.529v139.174z" />
<glyph unicode="&#xe613;" glyph-name="uniE613" horiz-adv-x="525" d="M0 480v-512h525.13v512h-525.13zM21.881 458.12h481.37v-468.24h-481.37v468.24zM192 125.142c0-2.162-0.361-2.884-2.888-2.884h-33.608c-2.166 0-2.888 1.081-2.888 2.884v234.91c0 2.166 1.083 2.888 2.888 2.888h33.969c1.805 0 2.527-0.722 2.527-2.527v-235.271zM230.707 209.88c0 52.349 34.538 93.144 89.773 93.144 4.695 0 7.223 0 11.555-0.361v58.11c0 1.444 1.081 2.166 2.166 2.166h35.599c1.803 0 2.166-0.722 2.166-1.805v-204.684c0-6.137 0-13.719 1.081-22.021 0-1.444-0.457-1.808-1.901-2.529-18.774-9.026-38.632-12.995-57.403-12.995-48.375-0.005-83.036 29.963-83.036 90.974zM332.034 267.284c-3.247 1.444-7.582 2.166-12.995 2.166-28.162 0-47.899-21.661-47.899-57.767 0-41.154 20.097-57.76 45.366-57.76 5.416 0 11.192 0.722 15.526 2.525v110.835z" />
<glyph unicode="&#xe614;" glyph-name="uniE614" horiz-adv-x="525" d="M0 480v-512h525.13v512h-525.13zM21.881 458.12h481.37v-468.24h-481.37v468.24zM208.958 125.144c0-2.166-0.361-2.888-2.888-2.888h-33.608c-2.166 0-2.888 1.086-2.888 2.888v234.908c0 2.166 1.083 2.888 2.888 2.888h33.969c1.805 0 2.527-0.722 2.527-2.527v-235.269zM370.325 126.799c0-1.444-0.361-2.166-1.805-2.888-9.387-3.611-20.889-4.695-32.803-4.695-51.268 0-81.231 37.91-81.231 91.701 0 52.709 33.937 92.425 85.924 92.425 14.082 0 22.747-1.081 28.16-3.247 1.444-1.086 1.805-1.808 1.805-3.611l-0.361-29.965c0-1.803-1.083-2.166-2.527-1.803-6.137 2.525-14.080 3.969-24.911 3.969-28.521 0-48.014-19.854-48.014-55.959 0-42.603 24.55-57.406 48.736-57.406 10.469 0 19.086 1.086 24.5 3.252 1.805 0.359 2.527-0.363 2.527-1.808v-29.965z" />
<glyph unicode="&#xe615;" glyph-name="uniE615" horiz-adv-x="525" d="M0 480v-512h525.13v512h-525.13zM21.881 458.12h481.37v-468.24h-481.37v468.24zM127.453 125.593c0-2.166-0.722-3.337-2.527-3.337h-34.328c-1.805 0-2.527 0.722-2.527 2.888v235.269c0 1.805 0.722 2.527 2.527 2.527h120.193c2.166 0 2.527-0.722 2.888-2.527l3.611-30.14c0.361-2.166-0.722-2.888-2.888-2.888h-86.948v-68.376h77.945c1.805 0 2.466-0.359 2.466-2.525v-30.499c0-2.166-0.722-2.529-2.527-2.529h-77.883v-97.862zM370.655 122.257c-2.527 0-3.249 0.974-3.611 3.142-10.831 60.291-19.856 102.914-23.827 132.516h-0.361c-4.695-26.713-13.358-71.141-27.799-132.88-0.722-2.162-1.444-2.779-3.249-2.779h-35.38c-2.527 0-3.249 0.363-3.971 2.529l-38.63 172.36c-0.361 1.444 0.361 2.888 2.527 2.888h35.378c1.444 0 2.527-0.501 2.888-1.947 13.721-77.621 19.495-117.828 21.661-133.713h1.444c2.525 18.774 10.106 57.897 26.355 132.991 0.722 2.166 0.722 2.669 2.886 2.669h37.185c1.805 0 2.166-0.875 2.527-2.68 12.636-71.12 20.94-116.022 23.108-134.074h1.081c3.611 23.108 8.303 54.288 23.83 134.435 0.361 1.444 0.722 2.32 2.525 2.32h33.216c1.444 0 2.527-0.722 1.805-2.527l-42.964-172.721c-0.361-1.808-0.722-2.529-3.247-2.529h-35.378z" />
<glyph unicode="&#xe616;" glyph-name="uniE616" d="M256.654 402.842c21.12 0 39.418-12.248 48.2-29.992-4.797-2.851-9.306-6.342-13.353-10.386-9.306-9.309-21.699-14.458-34.848-14.458-13.175 0-25.539 5.149-34.851 14.458-4.070 4.043-8.55 7.534-13.382 10.386 8.782 17.745 27.113 29.992 48.233 29.992zM310.036 355.046c0.233-1.949 0.346-3.927 0.346-5.906 0-34.531 28.072-62.603 62.575-62.603 2.007 0 3.988-0.117 5.938-0.32-1.542-2.12-3.261-4.131-5.152-6.019-12.658-12.657-19.608-29.472-19.608-47.392-0.029-17.885 6.952-34.732 19.608-47.386 1.888-1.891 3.608-3.898 5.152-5.995-1.949-0.233-3.93-0.346-5.938-0.346-34.499 0-62.575-28.072-62.575-62.606 0-1.978-0.113-3.954-0.317-5.902-2.123 1.539-4.131 3.261-6.022 5.12-12.654 12.687-29.469 19.637-47.389 19.637s-34.731-6.95-47.389-19.637c-1.888-1.859-3.898-3.578-6.019-5.12-0.203 1.949-0.323 3.928-0.323 5.902 0 34.534-28.070 62.606-62.603 62.606-1.978 0-3.953 0.113-5.903 0.346 1.539 2.098 3.256 4.102 5.12 5.966 12.68 12.68 19.637 29.495 19.637 47.416 0 17.891-6.956 34.735-19.637 47.392-1.864 1.888-3.578 3.898-5.12 6.019 1.949 0.204 3.928 0.32 5.903 0.32 34.531 0 62.603 28.072 62.603 62.603 0 1.978 0.119 3.957 0.323 5.906 2.12-1.542 4.131-3.258 6.019-5.12 12.657-12.683 29.469-19.637 47.389-19.637 17.888 0 34.735 6.982 47.389 19.637 1.891 1.891 3.896 3.578 5.993 5.12zM396.666 281.010c17.774-8.756 30.022-27.087 30.022-48.203s-12.248-39.415-30.022-48.198c-2.851 4.794-6.313 9.306-10.385 13.353-9.306 9.306-14.426 21.67-14.426 34.848s5.12 25.542 14.426 34.851c4.075 4.070 7.534 8.547 10.385 13.35zM304.856 92.791c-8.757-17.777-27.084-30.022-48.2-30.022s-39.45 12.245-48.233 30.022c4.829 2.819 9.309 6.313 13.382 10.36 9.312 9.306 21.704 14.455 34.851 14.455 13.152 0 25.542-5.149 34.848-14.456 4.072-4.046 8.555-7.541 13.353-10.36zM116.64 184.605c-17.775 8.757-30.022 27.081-30.022 48.198s12.248 39.45 29.993 48.203c2.851-4.8 6.342-9.277 10.386-13.353 9.309-9.309 14.461-21.702 14.461-34.851 0-13.175-5.12-25.539-14.461-34.848-4.043-4.072-7.505-8.555-10.356-13.35zM256.654 53.894c24.582 0 45.906 14.228 56.116 34.88 8.178-3.433 17.018-5.233 26.123-5.233 17.92 0 34.731 6.95 47.386 19.608 12.683 12.654 19.637 29.495 19.637 47.416 0 9.108-1.8 17.949-5.236 26.123 20.657 10.211 34.88 31.534 34.88 56.113 0 24.584-14.226 45.906-34.88 56.149 3.435 8.146 5.236 16.989 5.236 26.094 0 17.92-6.979 34.735-19.637 47.418-12.654 12.655-29.498 19.608-47.386 19.608-9.137 0-17.981-1.803-26.123-5.236-10.24 20.625-31.563 34.88-56.116 34.88-24.582 0-45.903-14.226-56.145-34.88-8.145 3.433-16.992 5.237-26.095 5.237-17.92 0-34.734-6.953-47.421-19.608-12.654-12.684-19.608-29.498-19.608-47.418 0-9.106 1.775-17.981 5.237-26.12-20.654-10.243-34.88-31.535-34.88-56.12 0-24.579 14.225-45.902 34.88-56.113-3.433-8.178-5.237-17.018-5.237-26.123 0-17.92 6.953-34.731 19.636-47.416 12.658-12.661 29.472-19.608 47.392-19.608 9.102 0 17.949 1.8 26.095 5.233 10.24-20.654 31.56-34.883 56.145-34.883zM318.327 105.736c0.611 3.494 0.931 7.069 0.931 10.731 0 29.647 24.084 53.734 53.699 53.734 3.668 0 7.272 0.317 10.767 0.931 2.938-6.368 4.477-13.353 4.477-20.567 0-13.175-5.12-25.568-14.458-34.88-9.309-9.306-21.673-14.426-34.848-14.426-7.214 0-14.2 1.539-20.567 4.477zM383.724 294.481c-3.494 0.608-7.098 0.928-10.767 0.928-29.615 0-53.731 24.088-53.731 53.731 0 3.666-0.32 7.244-0.928 10.735 6.368 2.938 13.382 4.48 20.596 4.48 13.175 0 25.539-5.149 34.848-14.429 9.309-9.336 14.429-21.699 14.429-34.88 0.029-7.215-1.51-14.197-4.448-20.565zM194.979 359.875c-0.611-3.491-0.928-7.069-0.928-10.735 0-29.643-24.088-53.731-53.734-53.731-3.666 0-7.244-0.32-10.732-0.928-2.938 6.368-4.483 13.353-4.483 20.565 0 13.178 5.123 25.542 14.432 34.851 9.338 9.309 21.702 14.458 34.88 14.458 7.214 0 14.194-1.542 20.565-4.48zM129.585 171.133c3.488-0.614 7.069-0.931 10.732-0.931 29.643 0 53.734-24.084 53.734-53.734 0-3.666 0.317-7.238 0.928-10.731-6.371-2.938-13.352-4.477-20.565-4.477-13.178 0-25.542 5.12-34.851 14.426-9.338 9.312-14.461 21.704-14.461 34.88 0 7.214 1.544 14.2 4.483 20.567z" />
<glyph unicode="&#xe617;" glyph-name="uniE617" horiz-adv-x="525" d="M0 480v-512h525.13v512h-525.13zM21.881 458.12h481.37v-468.24h-481.37v468.24zM244.784 125.144c-0.361-2.166-1.083-2.888-3.249-2.888h-123.77c-2.166 0-2.888 0.722-2.888 2.888v234.909c0 2.164 0.722 2.886 2.888 2.886h119.438c2.166 0 2.888-0.359 3.249-2.525l3.249-30.14c0.361-1.803-0.361-2.888-2.166-2.888h-87.276v-64.547h78.163c1.805 0 2.794-0.722 2.794-2.525v-30.499c0-1.808-1.083-2.53-2.888-2.53h-78.069v-69.47h92.784c2.166 0 2.794-0.722 2.433-2.525l-4.691-30.147zM285.541 263.986c0 2.166 0 9.748-1.083 22.384 0 1.444 0.328 1.803 1.772 2.525 18.413 6.86 43.060 14.443 67.971 14.443 30.687 0 64.262-11.914 64.262-64.624v-113.572c0-2.166-0.722-2.888-2.527-2.888h-33.967c-2.166 0-2.888 1.086-2.888 2.888v110.684c0 20.937-8.238 32.493-29.899 32.493-9.387 0-17.756-1.805-24.255-3.971v-139.564c0-1.444-0.722-2.529-2.166-2.529h-34.689c-1.805 0-2.527 0.722-2.527 2.529v139.202z" />
<glyph unicode="&#xe618;" glyph-name="uniE618" horiz-adv-x="525" d="M0 480v-512h525.13v512h-525.13zM21.881 458.12h481.37v-468.24h-481.37v468.24zM68.376 359.472c0 1.805 0.361 2.527 2.527 2.888 8.303 0.361 32.153 1.083 56.703 1.083 73.288 0 109.752-47.294 109.752-116.611 0-96.394-63.179-125.637-111.918-125.637-18.412 0-45.15 0.361-54.898 0.722-1.444 0-2.166 1.081-2.166 2.888v234.667zM107.76 156.575c6.138-0.361 11.553-0.722 18.413-0.722 40.435 0 70.389 28.521 70.75 89.895 0.361 59.93-30.676 83.036-69.306 83.036-7.582 0-13.721-0.361-19.856-0.722v-171.487zM385.372 122.257c-2.525 0-3.247 0.974-3.608 3.142-10.831 60.291-19.856 102.914-23.827 132.516h-0.361c-4.695-26.713-13.358-71.144-27.799-132.877-0.722-2.164-1.444-2.781-3.249-2.781h-35.38c-2.527 0-3.249 0.363-3.971 2.529l-38.63 172.36c-0.361 1.444 0.361 2.888 2.527 2.888h35.38c1.444 0 2.527-0.503 2.888-1.947 13.721-77.62 19.495-117.825 21.661-133.711h1.444c2.525 18.774 10.108 57.897 26.355 132.988 0.722 2.166 0.722 2.67 2.886 2.67h37.185c1.805 0 2.166-0.875 2.527-2.681 12.636-71.122 20.94-116.020 23.108-134.072h1.081c3.611 23.108 8.303 54.288 23.83 134.433 0.361 1.444 0.722 2.32 2.525 2.32h33.216c1.442 0 2.527-0.722 1.805-2.527l-42.964-172.721c-0.361-1.808-0.722-2.529-3.247-2.529h-35.382z" />
<glyph unicode="&#xe619;" glyph-name="uniE619" horiz-adv-x="525" d="M0.267 479.532v-512h525.128v512h-525.128zM22.148 457.651h481.368v-468.24h-481.368v468.24zM191.173 125.158c0-2.166-0.722-2.82-2.527-2.82h-34.331c-1.805 0-2.527 0.722-2.527 2.888v235.266c0 1.805 0.722 2.527 2.527 2.527h119.959c2.166 0 2.527-0.722 2.888-2.527l3.611-30.14c0.361-2.166-0.722-2.888-2.888-2.888h-86.712v-68.376h78.178c1.812 0 2.232-0.361 2.232-2.527v-30.499c0-2.166-0.722-2.527-2.527-2.527h-77.883v-98.376zM320.269 360.853c0 1.444 0.359 2.166 2.525 2.166h33.969c2.166 0 2.888-0.722 2.888-2.166v-196.466c0-8.663 3.247-11.909 9.748-11.909 2.888 0 4.147 0.359 5.95 0.722 1.444 0 1.808-0.363 1.808-2.166v-25.633c0-2.166-0.363-2.888-1.808-3.611-4.693-1.808-11.397-2.529-18.979-2.529-19.137 0-36.103 7.223-36.103 41.881v199.711z" />
<glyph unicode="&#xe61a;" glyph-name="uniE61A" d="M256.010 140.539c-30.536 0-59.172 16.020-75.141 42.199l7.429 4.526c14.403-23.562 40.218-38.016 67.712-38.016l1.869 0.031c27.438 0.64 52.224 15.125 66.288 38.764v0c7.598 12.754 11.413 27.408 11.085 42.338-0.507 21.191-9.236 40.893-24.54 55.495-15.324 14.623-35.446 22.359-56.601 21.883l-0.195 8.709c23.475 0.527 45.803-8.069 62.802-24.284 16.998-16.22 26.654-38.103 27.213-61.573 0.389-16.583-3.856-32.855-12.283-47.037-15.601-26.204-43.095-42.286-73.575-43.008l-2.063-0.026zM71.178 106.547c-22.917 34.637-35.563 74.993-36.536 116.721-1.392 59.12 20.322 115.282 61.128 158.065 40.806 42.793 95.846 67.123 154.993 68.526 59.146 1.418 115.246-20.291 158.034-61.102 42.813-40.827 67.149-95.867 68.557-154.988 1.003-41.733-9.718-82.647-30.961-118.343l-7.481 4.459c20.398 34.279 30.704 73.579 29.726 113.69-1.341 56.796-24.729 109.66-65.843 148.874-41.103 39.214-95.089 60.011-151.844 58.726v0c-56.791-1.341-109.66-24.73-148.874-65.843-39.219-41.108-60.068-95.068-58.727-151.859 0.953-40.089 13.061-78.853 35.087-112.123l-7.26-4.803zM256.041 70.067c-53.089 0-103.019 26.906-132.301 71.147-16.384 24.786-25.426 53.668-26.153 83.569-2.069 87.332 67.323 160.066 154.655 162.135l0.2-8.679c-82.529-1.961-148.101-70.733-146.15-153.267 0.615-26.44 8.151-52.034 21.801-74.384 27.827-45.548 78.239-73.052 131.461-71.793 51.835 1.229 98.637 28.611 125.214 73.246l7.481-4.464c-28.109-47.202-77.63-76.17-132.5-77.455-1.224-0.036-2.478-0.057-3.707-0.057zM175.314 175.232c-14.233 21.55-19.2 47.37-14.008 72.653 5.161 25.287 19.901 47.058 41.447 61.291 15.216 10.025 32.829 15.554 50.969 15.97l0.614-26.096c-13.261-0.313-26.102-4.357-37.212-11.668-15.708-10.378-26.481-26.266-30.254-44.744-3.768-18.442-0.138-37.289 10.245-53.002l-21.801-14.402zM399.728 143.135l-22.441 13.342c13.538 22.743 20.347 48.778 19.733 75.387-1.838 76.621-64.752 137.718-140.979 137.718l-3.379-0.057-0.614 26.091c92.19 2.243 168.858-71.004 171.065-163.138 0.758-31.478-7.337-62.382-23.383-89.344zM256.041-1.608c-79.862 0-154.798 41.918-196.583 110.362l22.297 13.594c37.878-62.024 106.542-99.527 179.082-97.782 70.61 1.674 134.4 38.963 170.594 99.753l22.446-13.342c-40.842-68.572-112.763-110.633-192.425-112.502-1.776-0.057-3.599-0.082-5.412-0.082z" />
<glyph unicode="&#xe61b;" glyph-name="uniE61B" horiz-adv-x="510" d="M94.349 444.776c23.159 0.609 38.113-11.495 52.836-20.128 13.837-7.547 27.677-15.096 41.513-22.644 71.138-38.853 142.299-77.719 213.438-116.573 21.952-11.902 51.357-22.374 66.254-41.514 4.843-6.222 11.764-15.092 7.967-27.257-7.348-23.539-38.067-32.479-57.868-44.029-49.895-27.254-99.805-54.515-149.7-81.769-17.179-10.053-44.499-30.547-67.512-15.935-5.23 3.32-10.587 9.024-12.58 15.515-2.39 7.784-0.839 20.113-0.839 29.353 0 23.48 0 46.967 0 70.447-0.002 19.445-1.431 36.214 10.483 43.61 4.843 3.006 13.54 4.477 20.128 2.096 22.832-8.249 15.938-49.058 15.935-79.253 0.139-8.385 0.28-16.774 0.419-25.159 37.456 19.567 74.924 39.139 112.38 58.706 14.058 7.243 35.671 13.257 38.998 31.031 3.68 19.659-38.024 35.93-50.32 43.191-51.153 29.211-102.321 58.429-153.474 87.639-11.37 6.244-39.435 29.516-57.029 22.225-5.615-2.327-10.261-8.24-12.16-14.257-2.666-8.445-1.259-21.84-1.258-32.288 0-24.040 0-48.085 0-72.125 0-39.972 0-79.956 0-119.928-0.001-17.691-2.424-40.929 4.612-51.997 14.544-22.876 52.033 17.681 62.061-18.87 2.537-9.249-2.16-18.277-5.87-23.063-8.843-11.403-47.362-31.098-62.9-36.901-5.764-2.153-14.826-5.219-23.063-3.774-38.282 6.717-28.936 67.664-28.933 111.96 0 73.096 0 146.213 0 219.309-0.002 32.495-4.95 77.192 8.806 96.865 7.826 11.192 14.156 10.184 27.675 15.515zM209.664 300.947c33.656 0.875 35.244-43.289 5.452-48.642-17.195-3.089-31.421 14.507-26.417 31.031 3.373 11.139 10.506 13.306 20.966 17.612z" />
<glyph unicode="&#xe61c;" glyph-name="uniE61C" horiz-adv-x="702" d="M691.723 295.198c-2.789 9.693-6.163 19.224-10.092 28.514 1.299-3.070 2.597-6.14 3.896-9.211-2.525 5.965-5.047 11.93-7.568 17.896 1.22-2.882 2.439-5.763 3.659-8.649-28.577 67.546-86.212 120.637-155.859 143.592-71.909 23.698-152.654 13.748-216.654-26.676-24.716-15.611-46.716-35.463-64.783-58.444-67.54 11.656-137.452-11.061-185.292-60.117-46.492-47.675-67.404-116.235-55.95-181.785 17.198-98.406 105.755-172.284 205.51-172.32v0c0.006 0 0.013 0 0.020 0h237.087c73.495 0 144.474 32.327 192.859 87.606 50.341 57.513 72.388 136.285 59.572 211.62-1.603 9.435-3.745 18.781-6.404 27.975-0.317 1.101 6.656-23.001 0 0zM335.784 290.512l75.913-84.784c16.315-18.223-11.94-43.527-28.262-25.305l-75.913 84.781c-46.66 52.109-128.489 58.663-182.74 14.396-54.175-44.208-64.707-125.618-22.945-181.901 24.885-33.534 65.001-53.822 106.777-53.834h55.183c14.462-14.603 30.413-27.294 47.701-37.932h-102.891c-70.484 0-135.554 45.156-160.115 111.255-23.933 64.419-5.87 138.873 44.737 185.255 69.185 63.412 179.961 57.976 242.556-11.93zM359.33 23.709c-26.382 11.388-49.955 27.651-70.061 48.339l-89.681 92.289c-17.049 17.541 10.155 43.98 27.205 26.438l89.682-92.286c47.483-48.854 120.217-66.892 185.067-45.841 64.922 21.075 113.591 79.324 122.712 146.956 9.207 68.273-21.986 137.032-79.476 175.030-59.75 39.492-139.911 39.056-199.37-0.856-9.068-6.087-17.584-12.997-25.411-20.618-11.219 7.102-23.070 13.097-35.427 17.912 49.747 54.499 125.293 80.336 198.008 68.025 67.586-11.441 127.118-55.678 158.010-116.833 30.83-61.025 30.83-135.383 0-196.409-30.893-61.154-90.428-105.392-158.010-116.833-41.449-7.019-84.642-1.979-123.248 14.687-26.382 11.385 27.324-11.794 0 0z" />
<glyph unicode="&#xe61d;" glyph-name="uniE61D" d="M474.536 20.449h-437.073c-1.498 0-2.498 0.999-2.498 2.498v52.449c0 1.498 0.999 2.498 2.498 2.498h437.073c1.498 0 2.498-0.999 2.498-2.498v-52.449c0-1.498-0.999-2.498-2.498-2.498zM39.961 25.444h432.078v47.454h-432.078v-47.454zM439.57 72.897h-367.142c-1.499 0-2.498 0.999-2.498 2.498v227.278c0 1.498 0.999 2.497 2.498 2.497h367.142c1.498 0 2.498-0.999 2.498-2.497v-227.278c0-1.498-0.999-2.498-2.498-2.498zM74.927 77.892h362.147v222.283h-362.147v-222.283zM509.502-32h-507.005c-1.498 0-2.498 0.999-2.498 2.498s0.999 2.498 2.498 2.498h507.005c1.498 0 2.498-0.999 2.498-2.498s-0.999-2.498-2.498-2.498zM509.502 20.449h-507.005c-1.498 0-2.498 0.999-2.498 2.498s0.999 2.498 2.498 2.498h507.005c1.498 0 2.498-0.999 2.498-2.498s-0.999-2.498-2.498-2.498zM107.395 72.897c-1.498 0-2.498 0.999-2.498 2.498v227.278c0 1.498 0.999 2.497 2.498 2.497s2.498-0.999 2.498-2.497v-227.278c0-1.498-0.999-2.498-2.498-2.498zM212.292 72.897c-1.499 0-2.498 0.999-2.498 2.498v227.278c0 1.498 0.999 2.497 2.498 2.497s2.498-0.999 2.498-2.497v-227.278c0-1.498-0.999-2.498-2.498-2.498zM177.327 72.897c-1.499 0-2.498 0.999-2.498 2.498v227.278c0 1.498 0.999 2.497 2.498 2.497s2.498-0.999 2.498-2.497v-227.278c0-1.498-0.999-2.498-2.498-2.498zM299.707 72.897c-1.498 0-2.498 0.999-2.498 2.498v227.278c0 1.498 0.999 2.497 2.498 2.497s2.498-0.999 2.498-2.497v-227.278c0-1.498-0.999-2.498-2.498-2.498zM334.673 72.897c-1.498 0-2.498 0.999-2.498 2.498v227.278c0 1.498 0.999 2.497 2.498 2.497s2.498-0.999 2.498-2.497v-227.278c0-1.498-0.999-2.498-2.498-2.498zM404.605 72.897c-1.498 0-2.498 0.999-2.498 2.498v227.278c0 1.498 0.999 2.497 2.498 2.497s2.498-0.999 2.498-2.497v-227.278c0-1.498-0.999-2.498-2.498-2.498zM492.019 300.175h-472.039c-1.498 0-2.497 0.999-2.497 2.498v52.449c0 1.498 0.999 2.498 2.497 2.498h472.039c1.498 0 2.498-0.999 2.498-2.498v-52.449c0-1.499-0.999-2.498-2.498-2.498zM22.478 305.171h467.044v47.454h-467.044v-47.454zM492.019 352.625c0 0 0 0 0 0h-472.039c-0.999 0-1.998 0.999-2.497 1.998s0.5 2.498 1.498 2.997l235.77 121.881c0.5 0.5 1.498 0.5 2.498 0l235.77-122.38c0.999-0.5 1.998-1.499 1.998-2.498-0.5-0.999-1.498-1.998-2.997-1.998zM30.47 357.62h451.559l-226.279 116.886-225.28-116.886z" />
<glyph unicode="&#xe61e;" glyph-name="uniE61E" horiz-adv-x="371" d="M316.8 452.8c-32 22.4-70.4 27.2-97.6 27.2h-219.2v-512h51.2v219.2h156.8c51.2 0 91.2 12.8 120 38.4s43.2 62.4 43.2 107.2c0 54.4-17.6 96-54.4 120zM212.8 233.6h-163.2v200h166.4c97.6 0 104-76.8 104-100.8 1.6-73.6-54.4-99.2-107.2-99.2z" />
<glyph unicode="&#xe61f;" glyph-name="uniE61F" horiz-adv-x="525" d="M0 480v-512h525.128v512h-525.128zM21.881 458.12h481.368v-468.24h-481.368v468.24zM158.31 327.267h-60.665c-1.802 0-2.489 0.686-2.145 2.917l4.29 30.29c0.343 1.802 1.115 2.488 2.918 2.488h151.532c2.145 0 2.918-0.686 3.26-2.918l2.918-29.946c0.343-2.145-0.687-2.917-2.488-2.917h-60.236v-202.072c0-1.802-0.686-2.918-2.917-2.918h-33.55c-2.145 0-2.917 0.687-2.917 2.918v202.157zM323.572 223.013l55.173 74.737c1.459 1.802 1.802 2.488 3.604 2.488h36.81c2.145 0 2.918-1.458 1.459-3.26-8.666-11.154-48.394-60.236-61.351-76.11-0.343-0.687-0.343-1.459 0-2.145l70.017-93.442c0.687-1.459 0.343-2.918-1.802-2.918h-42.56c-2.145 0-2.918 0.687-3.604 2.145-11.927 15.874-42.56 58.433-57.747 80.486v-80.142c0-1.802-0.343-2.488-2.488-2.488h-33.893c-2.488 0-2.918 0.687-2.918 2.918v235.536c0 1.115 0.343 2.145 2.488 2.145h34.322c1.459 0 2.488-0.686 2.488-2.488v-137.46z" />
<glyph unicode="&#xe620;" glyph-name="uniE620" horiz-adv-x="541" d="M508.923 152.457c-14.189 14.959-44.106 23.164-86.673 23.164-23.933 0-50.858-2.223-79.92-7.437-17.18 15.728-33.592 35.13-49.32 56.756-11.197 15.727-21.711 32.139-30.601 47.867 14.959 46.328 25.387 91.202 25.387 124.795 0 25.386-8.205 67.269-45.559 67.269-9.744 0-20.172-5.984-25.387-14.959-15.727-27.608-8.975-88.895 20.172-152.489-9.744-30.601-21.711-60.517-35.9-95.647-11.966-28.378-26.155-57.525-41.114-84.45-82.228-32.139-133.769-69.492-139.753-98.639-1.453-9.744 1.453-19.403 8.975-26.925 4.444-4.445 14.959-10.428 29.916-10.428 47.097 0 99.409 68.722 138.983 139.753 21.711 7.437 44.875 14.959 68.722 20.942 25.387 6.752 50.089 11.966 73.253 16.411 56.756-51.542 107.614-59.064 132.231-59.064 31.37 0 40.344 12.736 43.336 20.942 3.676 11.966-0.086 25.387-6.752 32.139zM224.203 445.382c3.761 6.752 10.428 10.428 17.18 10.428 14.189 0 21.711-12.736 21.711-35.13 0-24.702-7.436-64.278-22.394-109.837-27.011 64.363-27.779 115.136-16.497 134.539zM29.147 17.234c4.444 24.702 51.542 57.525 122.573 87.442-39.576-68.038-79.236-109.837-103.853-109.837-4.444 0-9.744 1.453-12.736 4.445-5.3 4.445-7.522 11.197-5.983 17.95zM330.279 166.646c-21.711-3.761-44.106-8.975-67.269-14.959-20.173-5.214-40.344-11.197-59.064-17.95 11.197 20.942 20.941 41.114 28.378 59.748 8.975 22.394 17.95 44.875 25.387 68.038 8.206-14.189 17.18-28.378 26.925-41.883 15.043-20.087 29.916-38.036 45.644-52.995v0 0zM351.22 159.978c47.866 8.975 90.433 7.437 108.384 3.761 18.719-3.761 28.378-14.959 25.387-31.37s-23.164-24.702-45.558-19.403c-35.9 8.12-65.047 27.523-88.211 47.012z" />
<glyph unicode="&#xe621;" glyph-name="uniE621" d="M512 25.86l-57.86-57.86-136.188 135.675c-79.351-52.706-187.906-44.043-258.047 26.097-79.863 80.375-79.863 209.91 0 290.284 80.375 79.899 209.91 79.899 290.284 0 70.14-70.141 78.839-178.696 26.097-258.047l135.712-136.151zM291.82 188.18c48.101 47.625 48.101 125.953 0 173.579-47.625 48.137-125.953 48.137-174.090 0-47.589-47.662-47.589-125.99 0.549-173.579 47.626-48.137 125.953-48.137 173.542 0z" />
<glyph unicode="&#xe622;" glyph-name="uniE622" d="M59 224q0 34.5 24.375 59t58.875 24.5q17.5 0 34-7.25l65.5 65q-6.75 16.5-6.75 31.25 0 34.5 24.5 59t59 24.5 59-24.5 24.5-59-24.5-58.625-59-24.125q-19 0-37 8l-63.5-63.5q7.25-16.5 7.25-34.25 0-17.25-7.25-33.75l64-64q17.75 8.25 36.5 8.25 34.5 0 59-24.25t24.5-58.75-24.5-59-59-24.5-59 24.5-24.5 59q0 15.25 6.75 31.75l-65.5 65q-16.5-7.25-34-7.25-34.5 0-58.875 24.25t-24.375 58.75z" />
<glyph unicode="&#xe623;" glyph-name="uniE623" d="M462.557 272.439h-68.853c-27.859 0-50.531 22.672-50.531 50.531v10.374c-29.783 2.761-58.311 4.1-87.090 4.1s-57.391-1.339-87.174-4.1v-10.374c0-27.859-22.672-50.531-50.531-50.531h-68.936c-27.859 0-50.531 22.672-50.531 50.531v28.779c0 33.715 26.436 65.589 60.236 72.45 64.753 13.219 131.012 19.911 196.852 19.911 65.757 0 132.016-6.693 196.768-19.911 33.798-6.944 60.236-38.735 60.236-72.45v-28.779c0.083-27.859-22.588-50.531-50.447-50.531zM256 352.586c31.456 0 62.661-1.59 95.373-4.853l6.776-0.67v-24.010c0-19.577 15.896-35.472 35.472-35.472h68.853c19.577 0 35.472 15.895 35.472 35.472v28.779c0 26.855-21.166 52.204-48.188 57.726-63.832 12.967-129.004 19.577-193.757 19.577-64.837 0-130.008-6.609-193.84-19.577-27.022-5.522-48.272-30.87-48.188-57.726v-28.779c0-19.577 15.895-35.472 35.472-35.472h68.853c19.577 0 35.472 15.895 35.472 35.472v24.010l6.776 0.67c32.795 3.262 64 4.853 95.456 4.853zM461.469-2.887h-410.938v72.617c0 48.606 17.401 94.034 48.941 127.749 32.209 34.468 76.215 53.375 123.984 53.375h65.087c47.77 0 91.775-18.991 123.985-53.375 31.54-33.715 48.941-79.142 48.941-127.749v-72.617zM65.59 12.173h380.738v57.558c0 93.113-69.354 166.065-157.866 166.065h-65.088c-88.513 0-157.867-72.952-157.867-166.065v-57.558zM205.47 286.745h15.059v-43.419h-15.059v43.419zM291.89 286.745h15.059v-43.419h-15.059v43.419zM256 31.498c-46.85 0-84.999 38.149-84.999 84.998s38.149 84.999 84.999 84.999c46.849 0 84.999-38.149 84.999-84.999s-38.149-84.999-84.999-84.999zM256 186.437c-38.567 0-69.94-31.373-69.94-69.94s31.373-69.94 69.94-69.94c38.567 0 69.94 31.373 69.94 69.94s-31.373 69.94-69.94 69.94z" />
<glyph unicode="&#xe624;" glyph-name="uniE624" d="M46.934 359.182c0 1.947 0.391 2.72 2.72 3.111 8.942 0.391 34.613 1.165 61.049 1.165 78.898 0 118.16-50.916 118.16-125.547 0-103.778-68.018-135.262-120.489-135.262-19.822 0-48.605 0.391-59.102 0.774-1.556 0-2.329 1.164-2.329 3.111v252.649zM89.334 140.747c6.605-0.391 12.436-0.774 19.822-0.774 43.529 0 75.778 30.702 76.169 96.782 0.391 64.524-33.022 89.395-74.614 89.395-8.16 0-14.773-0.391-21.378-0.774v-184.631zM388.214 103.795c-2.72 0-3.493 1.049-3.885 3.378-11.662 64.906-21.378 110.8-25.654 142.667h-0.391c-5.058-28.764-14.382-76.596-29.929-143.058-0.774-2.329-1.555-2.995-3.502-2.995h-38.089c-2.72 0-3.502 0.391-4.276 2.72l-41.591 185.565c-0.391 1.556 0.391 3.111 2.72 3.111h38.089c1.555 0 2.72-0.542 3.111-2.098 14.774-83.565 20.986-126.854 23.325-143.956h1.555c2.72 20.214 10.88 62.329 28.373 143.174 0.774 2.329 0.774 2.871 3.111 2.871h40.036c1.947 0 2.329-0.942 2.72-2.889 13.609-76.569 22.542-124.906 24.88-144.347h1.164c3.885 24.88 8.942 58.445 25.654 144.729 0.391 1.555 0.774 2.498 2.72 2.498h35.76c1.555 0 2.72-0.774 1.947-2.72l-46.258-185.955c-0.391-1.947-0.774-2.72-3.493-2.72h-38.098z" />
<glyph unicode="&#xe625;" glyph-name="uniE625" horiz-adv-x="488" d="M0-7.619c0 4.876 0 34.621 0.487 40.919 0.975 9.265 2.925 18.529 4.876 25.844 0.487 1.463 0.487 2.438 0.975 3.413 2.925 6.339 6.826 11.703 11.703 16.579 5.852 5.851 13.166 10.24 21.943 13.166 5.364 1.95 11.215 3.901 18.042 6.827 0.975 0.488 1.463 0.488 2.438 0.975 6.826 2.925 14.141 5.851 21.943 9.265 9.265 3.901 19.017 7.802 28.769 12.19 7.802 2.925 15.116 6.339 22.918 9.752 2.438 0.488 4.876 1.463 6.827 2.438 4.308 1.463 8.696 2.885 13.084 4.876 4.388 1.91 8.777 5.323 12.678 8.736 6.339 5.364 11.703 11.215 16.579 14.628 0.488 0 1.951 0.488 1.951 0.488l3.413 4.876c-0.975 5.364-4.388 20.48-5.851 23.894 0 0.975 0 3.413 0 3.901-0.488 2.438-0.975 4.876-1.463 8.289s-1.463 7.315-2.438 10.728c-0.488 4.876-1.951 9.752-2.925 14.629-0.975 1.422-5.364 3.861-6.827 5.811-5.364 7.802-8.777 18.529-11.215 30.233-1.463 7.762-2.438 16.091-2.925 23.365-0.975 6.827 2.438 13.654 1.463 22.918-1.951 21.455-0.975 39.010 2.438 53.638 3.413 15.116 8.777 27.266 16.579 36.531 7.802 8.777 17.066 15.116 27.306 19.017 9.752 3.901 21.455 7.315 34.621 8.777 11.703 0.975 23.405 0 35.068-2.925 8.736-2.925 17.514-6.827 25.315-13.654 0.975-0.488 3.901-3.901 4.876-4.876 0.488-0.487 2.925-2.925 3.413-3.413 1.463-1.95 9.265-5.364 10.728-7.802 5.364-5.364 8.777-16.091 10.2-20.44 3.413-11.215 3.901-16.579 4.876-29.257 0.529-7.315-0.488-21.943-0.488-33.158 0-2.438 0-4.389 0-6.339 0.488-5.364 1.016-7.802 1.991-12.637 1.95-10.24 0.488-21.943-1.95-31.695-1.463-6.339-3.413-13.654-6.339-19.505-2.925-6.339-8.289-9.752-11.215-15.604-1.95-4.876-2.925-10.24-3.901-15.116s-1.463-9.265-2.925-13.654c-0.975-3.413-1.463-6.298-2.438-7.762-1.463-2.438-3.901-15.116-3.901-19.505 1.463-0.488 3.413-7.802 5.364-8.289 0.488-0.488 0.488-2.925 0.488-3.413 5.364-4.876 11.703-10.728 18.529-16.091 2.925-1.95 5.364-3.901 8.289-5.364 6.339-2.438 12.678-4.389 19.017-6.827 9.265-3.901 18.529-7.802 28.241-12.19 9.265-3.901 18.529-7.802 27.307-11.215 6.339-2.925 12.678-5.364 18.529-7.802 1.463-0.975 2.925-1.463 4.389-1.95 6.339-2.438 12.19-4.389 17.067-6.339 8.777-2.925 16.579-7.315 22.43-13.654 4.389-4.389 7.802-9.265 10.24-15.116 0.488-1.463 0.975-2.925 1.463-4.876 2.438-7.315 4.389-16.091 5.364-25.356 0-6.339 0-36.084 0-40.919h-487.416z" />
<glyph unicode="&#xe626;" glyph-name="uniE626" d="M312.407 220.529v59.878h-21.695v8.678h30.373v-44.257l36.882 44.257h54.238c52.935 0 91.118 36.882 91.118 88.082 0 52.068-42.088 94.156-94.156 94.156h-131.471c-51.634 0-94.156-42.088-94.156-94.156h-8.678c0.434 56.841 46.427 102.834 102.834 102.834h131.471c56.841 0 102.834-45.993 102.834-102.834 0-55.973-42.088-96.76-99.796-96.76h-49.899l-49.899-59.878zM338.44-32h-338.44v39.051c0 22.997 14.319 42.522 36.882 50.766l84.61 30.373v42.956h8.678v-49.031l-90.251-32.543c-19.526-6.942-31.241-22.997-31.241-42.522v-30.373h321.084v30.373c0 19.091-12.583 35.579-32.543 42.522l-88.949 32.543v53.37h8.678v-47.295l82.875-30.373c23.43-8.244 38.617-28.204 38.617-50.766v-39.051zM166.183 114.658c-49.898 0-90.684 48.596-90.684 108.041s40.787 108.041 90.684 108.041c49.899 0 90.685-48.596 90.685-108.041s-40.352-108.041-90.685-108.041zM166.183 322.061c-45.126 0-82.007-44.692-82.007-99.363s36.882-99.363 82.007-99.363 82.007 44.692 82.007 99.363c0 55.105-36.447 99.363-82.007 99.363zM229.532 225.736c-20.827 0-36.447 9.98-49.898 31.24-13.017-16.488-40.786-29.505-65.085-29.505-13.451 0-24.732 2.603-35.58 8.244l3.905 7.81c9.546-4.773 19.525-7.376 31.674-7.376 23.864 0 52.501 14.319 61.179 30.807l3.471 6.942 3.905-6.942c15.62-27.336 32.977-36.448 59.878-31.241 2.169 0.434 3.905 0.434 5.207 0.434 0.868 0 2.169 0 3.037 0l0.868-8.678c-1.302 0-2.603 0-4.339-0.434-1.302 0-2.603 0-3.905-0.434-4.339-0.434-9.546-0.868-14.319-0.868zM412.204 380.204h-17.356v-17.356h17.356v17.356zM360.135 380.204h-17.356v-17.356h17.356v17.356zM308.068 380.204h-17.356v-17.356h17.356v17.356z" />
<glyph unicode="&#xe627;" glyph-name="uniE627" d="M507.077-32h-502.154c-1.641 0-3.282 1.641-3.282 3.282s1.641 3.282 3.282 3.282h503.795c1.641 0 3.282-1.641 3.282-3.282s-1.641-3.282-4.923-3.282zM507.077 384.82h-502.154c-3.282 0-4.923 1.641-4.923 3.282s1.641 3.282 3.282 3.282h503.795c1.641 0 3.282-1.641 3.282-3.282s0-3.282-3.282-3.282zM441.436 384.82h-370.872c-3.282 0-4.923 1.641-4.923 3.282v44.308c0 1.641 1.641 3.282 3.282 3.282h372.513c1.641 0 3.282-1.641 3.282-3.282v-44.308c1.641-1.641 0-3.282-3.282-3.282zM73.846 391.385h364.308v36.103h-364.308v-36.103zM310.154 427.487h-109.948c-1.641 0-3.282 1.641-3.282 3.282v44.308c0 1.641 1.641 3.282 3.282 3.282h109.948c1.641 0 3.282-1.641 3.282-3.282v-44.308c1.641-1.641 0-3.282-3.282-3.282zM205.128 435.692h101.743v36.103h-101.743v-36.103zM464.411 391.385h-416.82c-1.641 0-3.282-1.641-3.282-3.282v-415.18c0-1.641 1.641-3.282 3.282-3.282h175.589c-1.641 0-3.282 1.641-3.282 3.282v3.282h-167.385v408.615h406.974v-406.974h-167.385v-3.282c0-1.641-1.641-3.282-3.282-3.282h175.589c1.641 0 3.282 1.641 3.282 3.282v413.538c0 1.641-1.641 3.282-3.282 3.282zM226.462 56.615h57.436v-78.769h8.205v82.052c0 1.641-1.641 3.282-3.282 3.282h-65.641c-1.641 0-3.282-1.641-3.282-3.282v-83.692h8.205v80.411zM292.103-27.077v3.282h-73.846v-3.282c0-1.641 1.641-3.282 3.282-3.282h65.641c3.282-1.641 4.923 0 4.923 3.282zM178.872 33.641h-65.641c-1.641 0-3.282 1.641-3.282 3.282s1.641 3.282 3.282 3.282h65.641c1.641 0 3.282-1.641 3.282-3.282s0-3.282-3.282-3.282zM398.769 33.641h-65.641c-1.641 0-3.282 1.641-3.282 3.282s1.641 3.282 3.282 3.282h65.641c1.641 0 3.282-1.641 3.282-3.282s-1.641-3.282-3.282-3.282zM223.179 122.257h-109.948c-1.641 0-3.282 1.641-3.282 3.282s1.641 3.282 3.282 3.282h109.948c1.641 0 3.282-1.641 3.282-3.282s-1.641-3.282-3.282-3.282zM398.769 122.257h-109.948c-1.641 0-3.282 1.641-3.282 3.282s1.641 3.282 3.282 3.282h109.948c1.641 0 3.282-1.641 3.282-3.282s-1.641-3.282-3.282-3.282zM223.179 187.897h-109.948c-1.641 0-3.282 1.641-3.282 3.282s1.641 3.282 3.282 3.282h109.948c1.641 0 3.282-1.641 3.282-3.282s-1.641-3.282-3.282-3.282zM398.769 187.897h-109.948c-1.641 0-3.282 1.641-3.282 3.282s1.641 3.282 3.282 3.282h109.948c1.641 0 3.282-1.641 3.282-3.282s-1.641-3.282-3.282-3.282zM223.179 253.538h-109.948c-1.641 0-3.282 1.641-3.282 3.282s1.641 3.282 3.282 3.282h109.948c1.641 0 3.282-1.641 3.282-3.282s-1.641-3.282-3.282-3.282zM398.769 253.538h-109.948c-1.641 0-3.282 1.641-3.282 3.282s1.641 3.282 3.282 3.282h109.948c1.641 0 3.282-1.641 3.282-3.282s-1.641-3.282-3.282-3.282zM223.179 319.179h-109.948c-1.641 0-3.282 1.641-3.282 3.282s1.641 3.282 3.282 3.282h109.948c1.641 0 3.282-1.641 3.282-3.282s-1.641-3.282-3.282-3.282zM398.769 319.179h-109.948c-1.641 0-3.282 1.641-3.282 3.282s1.641 3.282 3.282 3.282h109.948c1.641 0 3.282-1.641 3.282-3.282s-1.641-3.282-3.282-3.282z" />
<glyph unicode="&#xe628;" glyph-name="uniE628" d="M89.71 38.017h-87.522c-1.313 0-2.188 0.875-2.188 2.188v175.042c0 1.313 0.875 2.188 2.188 2.188h87.522c1.313 0 2.188-0.875 2.188-2.188s-0.875-2.188-2.188-2.188h-85.334v-170.667h85.334c1.313 0 2.188-0.875 2.188-2.188s-0.875-2.188-2.188-2.188zM509.812 38.017h-87.522c-1.313 0-2.188 0.875-2.188 2.188s0.875 2.188 2.188 2.188h85.334v170.666h-85.334c-1.313 0-2.188 0.875-2.188 2.188s0.875 2.188 2.188 2.188h87.522c1.313 0 2.188-0.875 2.188-2.188v-175.043c0-1.313-0.875-2.188-2.188-2.188zM422.291-32h-332.581c-1.313 0-2.188 0.875-2.188 2.188v245.060c0 0.875 0.438 1.75 1.313 2.188l166.291 52.513c0.438 0 0.875 0 1.313 0l166.291-52.513c0.875-0.438 1.313-1.313 1.313-2.188v-245.060c0.438-1.313-0.438-2.188-1.75-2.188zM91.897-27.624h328.205v241.121l-164.102 52.075-164.102-52.075v-241.121zM404.786 218.748c-1.313 0-2.188 0.875-2.188 2.188v62.14h-293.197v-62.14c0-1.313-0.875-2.188-2.188-2.188s-2.188 0.875-2.188 2.188v64.328c0 1.313 0.875 2.188 2.188 2.188h297.572c1.313 0 2.188-0.875 2.188-2.188v-64.328c0-1.313-0.875-2.188-2.188-2.188zM256 431.863c-1.313 0-2.188 0.875-2.188 2.188v43.761c0 1.313 0.875 2.188 2.188 2.188s2.188-0.875 2.188-2.188v-43.761c0-1.313-0.875-2.188-2.188-2.188zM369.778 20.513c-1.313 0-2.188 0.875-2.188 2.188v140.034c0 1.313 0.875 2.188 2.188 2.188s2.188-0.875 2.188-2.188v-140.034c0-1.313-0.875-2.188-2.188-2.188zM299.76 20.513c-1.313 0-2.188 0.875-2.188 2.188v140.034c0 1.313 0.875 2.188 2.188 2.188s2.188-0.875 2.188-2.188v-140.034c0-1.313-0.875-2.188-2.188-2.188zM212.239 20.513c-1.313 0-2.188 0.875-2.188 2.188v140.034c0 1.313 0.875 2.188 2.188 2.188s2.188-0.875 2.188-2.188v-140.034c0-1.313-0.875-2.188-2.188-2.188zM142.222 20.513c-1.313 0-2.188 0.875-2.188 2.188v140.034c0 1.313 0.875 2.188 2.188 2.188s2.188-0.875 2.188-2.188v-140.034c0-1.313-0.875-2.188-2.188-2.188zM422.291 160.547h-332.581c-1.313 0-2.188 0.875-2.188 2.188s0.875 2.188 2.188 2.188h332.581c1.313 0 2.188-0.875 2.188-2.188s-0.875-2.188-2.188-2.188zM422.291 20.513h-332.581c-1.313 0-2.188 0.875-2.188 2.188s0.875 2.188 2.188 2.188h332.581c1.313 0 2.188-0.875 2.188-2.188s-0.875-2.188-2.188-2.188zM404.786 283.077c-1.313 0-2.188 0.875-2.188 2.188 0 80.957-65.641 146.599-146.599 146.599s-146.599-65.641-146.599-146.599c0-1.313-0.875-2.188-2.188-2.188s-2.188 0.875-2.188 2.188c0 83.145 67.829 150.975 150.975 150.975s150.975-67.829 150.975-150.975c0-1.313-0.875-2.188-2.188-2.188z" />
<glyph unicode="&#xe629;" glyph-name="uniE629" d="M153.6 258.134h-133.974l1.706 10.24c17.92 95.573 94.72 172.373 190.293 190.293l10.24 1.706v-133.974h-17.066v113.494c-81.067-19.627-145.066-83.627-164.694-164.694h113.494v-17.066zM492.373 258.134h-133.974v17.066h113.493c-19.627 81.067-83.627 145.066-164.694 164.694v-113.494h-17.067v133.974l10.24-1.707c95.573-17.92 172.374-94.72 190.293-190.293l1.707-10.24zM290.134-12.373v133.974h17.067v-113.493c81.067 19.627 145.067 83.627 164.693 164.694h-113.493v17.067h133.974l-1.707-10.24c-17.92-95.573-94.72-172.374-190.293-190.293l-10.24-1.707zM221.867-12.373l-10.24 1.707c-95.573 17.92-172.374 94.72-190.293 190.293l-1.706 10.24h133.974v-17.067h-113.493c19.627-81.067 83.626-145.066 164.694-164.694v113.493h17.066v-133.974zM256 104.534c-65.707 0-119.466 53.76-119.466 119.466s53.76 119.466 119.466 119.466 119.466-53.76 119.466-119.466-53.76-119.466-119.466-119.466zM256 326.4c-56.32 0-102.4-46.080-102.4-102.4s46.080-102.4 102.4-102.4 102.4 46.080 102.4 102.4-46.080 102.4-102.4 102.4zM29.866 172.8h-29.866v102.4h29.866v-17.067h-12.8v-68.267h12.8zM307.2-32h-102.4v29.866h17.066v-12.8h68.267v12.8h17.067zM512 172.8h-29.866v17.067h12.8v68.267h-12.8v17.067h29.866zM307.2 450.134h-17.067v12.8h-68.267v-12.8h-17.066v29.866h102.4z" />
<glyph unicode="&#xe62a;" glyph-name="uniE62A" d="M32 384h448v-96h-448zM32 256h448v-96h-448zM32 128h448v-96h-448z" />
<glyph unicode="&#xe62b;" glyph-name="uniE62B" d="M236.853 106.907c-0.391-2.329-1.165-3.111-3.502-3.111h-133.244c-2.329 0-3.111 0.774-3.111 3.111v252.898c0 2.329 0.773 3.111 3.111 3.111h128.587c2.329 0 3.111-0.382 3.502-2.72l3.502-32.453c0.391-1.938-0.391-3.111-2.329-3.111h-93.974v-69.494h84.151c1.946 0 3.005-0.774 3.005-2.72v-32.836c0-1.946-1.165-2.72-3.111-2.72h-84.053v-74.791h99.902c2.329 0 3.013-0.774 2.622-2.72l-5.058-32.445zM280.738 256.382c0 2.329 0 10.498-1.164 24.098 0 1.556 0.356 1.938 1.911 2.72 19.822 7.387 46.356 15.547 73.182 15.547 33.040 0 69.182-12.827 69.182-69.574v-122.276c0-2.329-0.774-3.111-2.72-3.111h-36.569c-2.329 0-3.111 1.164-3.111 3.111v119.174c0 22.542-8.871 34.978-32.187 34.978-10.106 0-19.12-1.947-26.115-4.276v-150.258c0-1.555-0.774-2.72-2.329-2.72h-37.351c-1.947 0-2.72 0.774-2.72 2.72v149.867z" />
<glyph unicode="&#xe62c;" glyph-name="uniE62C" d="M109.947 359.884c0 1.556 3.334 2.72 5.28 2.72 15.156 0.774 37.413 1.164 60.738 1.164 65.298 0 90.729-35.76 90.729-81.618 0-59.858-43.413-85.511-96.658-85.511-8.942 0-12.044 0.391-18.267 0.391v-90.507c0-1.947-0.774-2.72-2.72-2.72h-36.374c-1.947 0-2.72 0.774-2.72 2.72v253.36zM151.76 234.72c5.44-0.382 9.715-0.382 19.049-0.382 27.6 0 53.511 9.715 53.511 47.031 0 29.929-18.534 45.085-50.018 45.085-9.325 0-18.267-0.391-22.542-0.774v-90.96zM354.515 262.711c-18.658 0-24.871-9.333-24.871-17.102 0-8.551 4.276-14.382 29.156-27.209 36.925-17.885 48.587-34.978 48.587-60.249 0-37.707-28.764-57.92-67.627-57.92-20.605 0-38.134 4.276-48.24 10.106-1.555 0.774-1.947 1.938-1.947 3.885v34.587c0 2.329 1.164 3.111 2.72 1.947 14.774-9.716 31.911-14 47.458-14 18.658 0 26.426 7.778 26.426 18.267 0 8.551-5.44 15.938-29.156 28.373-33.422 15.938-47.422 32.267-47.422 59.467 0 30.32 23.707 55.582 64.906 55.582 20.214 0 34.48-3.111 42.258-6.604 1.947-1.165 2.329-3.111 2.329-4.666v-32.258c0-1.938-1.164-3.111-3.502-2.329-10.48 6.231-25.911 10.125-41.075 10.125z" />
<glyph unicode="&#xe62d;" glyph-name="uniE62D" d="M511.457 224c0-70.509-25.039-130.803-75.118-180.881s-110.373-75.118-180.881-75.118c-70.508 0-130.712 25.039-180.61 75.118s-74.847 110.373-74.847 180.881c0 70.147 25.040 130.35 75.118 180.61s110.192 75.39 180.339 75.39c70.509 0 130.803-25.040 180.881-75.118 50.079-50.125 75.118-110.373 75.118-180.882z" />
<glyph unicode="&#xe62e;" glyph-name="uniE62E" horiz-adv-x="571" d="M140.076 93.585c-0.483 0-0.966 0-1.932 0.483-1.449 0.483-2.898 2.415-2.898 4.347v101.434h-32.846c-60.377 0-102.4 37.675-102.4 91.774v86.943c0 56.996 44.438 101.434 101.434 101.434h241.51c59.411 0 111.094-47.336 111.094-101.434v-77.283c0-54.098-51.683-101.434-111.094-101.434h-104.332l-95.154-104.815c-0.966-0.966-1.932-1.449-3.381-1.449zM101.434 470.339c-51.683 0-91.773-40.090-91.773-91.773v-86.944c0-48.302 38.158-82.113 92.74-82.113h37.675c2.898 0 4.83-1.932 4.83-4.83v-93.705l87.909 97.087c0.966 0.966 2.415 1.449 3.381 1.449h106.747c54.098 0 101.434 42.988 101.434 91.774v77.283c0 48.785-47.336 91.773-101.434 91.773h-241.51zM468.529-32c-1.449 0-2.415 0.483-3.381 1.449l-75.834 75.834h-56.030c-36.226 0-62.793 26.566-62.793 62.793 0 2.898 1.932 4.83 4.83 4.83s4.83-1.932 4.83-4.83c0-30.913 22.219-53.132 53.132-53.132h57.962c1.449 0 2.415-0.483 3.381-1.449l69.072-69.072v65.69c0 2.898 1.932 4.83 4.83 4.83h36.226c14.973 0 28.981 5.796 39.607 16.423s16.423 25.117 16.423 40.091l-0.483 44.438c0 30.913-22.219 53.615-53.132 53.615-2.898 0-4.83 1.932-4.83 4.83s1.932 4.83 4.83 4.83c36.227 0 62.792-26.566 62.792-63.276l0.483-44.438c0-17.872-6.763-34.295-18.837-46.853-12.558-12.558-28.981-19.321-46.853-19.321h-31.396v-72.453c0-1.932-0.966-3.864-2.898-4.347-0.483-0.483-1.449-0.483-1.932-0.483z" />
<glyph unicode="&#xe62f;" glyph-name="uniE62F" horiz-adv-x="831" d="M830.715-32h-424.611v37.526c0 29.301 18.506 55.518 45.751 65.285l111.55 41.639v53.462h5.14v-57.060l-115.149-42.666c-25.189-9.253-42.153-33.413-42.153-60.659v-32.385h414.33v32.385c0 26.731-17.478 51.406-43.181 60.144l-114.12 43.18v61.173h5.14v-57.575l111.036-41.639c27.245-9.767 46.265-36.498 46.265-65.285v-37.526zM615.326 149.462c-62.201 0-112.579 60.659-112.579 134.683s50.377 134.683 112.579 134.683c62.201 0 112.578-60.659 112.578-134.683s-50.378-134.683-112.578-134.683zM615.326 413.687c-59.116 0-107.438-58.089-107.438-129.542s48.322-129.542 107.438-129.542c59.116 0 107.438 58.089 107.438 129.542s-48.322 129.542-107.438 129.542zM696.032 290.827c-26.731 0-46.779 13.365-63.743 42.153-14.394-22.105-50.891-40.096-82.763-40.096-15.936 0-30.33 3.598-43.695 10.795l2.57 4.626c12.851-6.683 26.217-9.767 41.639-9.767 31.871 0 68.884 19.020 80.707 41.124l2.056 4.113 2.571-4.113c20.563-35.984 43.695-48.322 79.678-41.125 2.571 0.514 4.626 0.514 6.683 0.514 1.542 0 2.571 0 4.112 0l0.514-5.141c-1.542 0-3.085 0-5.14 0s-3.598 0-5.654-0.514c-7.197-2.056-13.365-2.57-19.534-2.57zM509.43-32h-506.86c-1.542 0-2.571 1.028-2.571 2.57 0 0.514 0 46.265 22.105 90.474 14.393 28.787 64.771 47.293 134.683 72.996 11.309 4.113 23.132 8.225 35.47 12.851v66.827c-5.141 4.113-26.217 25.189-26.731 64.257-5.655 2.056-9.253 10.795-11.309 18.506-3.599 14.907-1.542 32.899 10.795 40.096-0.514 2.056-1.542 5.654-2.571 9.253-6.683 21.59-20.048 66.314-3.599 88.931 6.168 8.225 15.935 12.852 29.301 13.366 7.197 22.104 46.779 31.871 82.763 31.871 44.209 0 91.502-13.88 97.671-44.723 5.654-28.787-9.253-66.827-17.478-87.389-1.542-4.112-3.599-8.739-4.113-11.309 12.337-7.711 14.394-25.189 10.795-40.096-1.542-7.711-5.654-16.45-11.309-18.506-0.514-39.583-22.104-63.229-26.731-67.856v-63.229c12.337-4.627 24.161-8.739 35.47-12.851 69.911-25.703 120.289-44.209 134.683-72.996 22.105-44.209 22.105-89.96 22.105-90.474 0-1.542-1.028-2.57-2.57-2.57zM5.141-26.86h501.719c-0.514 10.281-3.084 48.836-21.591 85.847-13.365 27.245-63.229 45.237-131.599 70.425-11.824 4.113-24.161 8.739-37.012 13.88-1.028 0.514-1.542 1.542-1.542 2.57v65.799c0 0.514 0.514 1.542 1.028 2.056 0.514 0 26.217 24.674 26.217 66.827 0 1.542 1.028 2.57 2.57 2.57 2.57 0 6.683 5.655 8.739 14.908 3.084 13.365 1.542 29.815-9.767 35.47-1.028 0.514-1.542 1.542-1.542 2.056 0 2.056 1.542 5.655 4.627 14.393 7.711 20.048 22.618 57.060 17.478 84.305-6.168 27.759-52.433 40.611-93.558 40.611-42.153 0-74.538-12.338-78.65-29.816-0.514-1.028-1.542-2.056-2.571-2.056-12.338 0-21.59-3.599-26.731-11.309-14.907-20.563-2.056-63.743 4.113-84.305 2.056-7.197 3.084-10.281 3.084-12.338 0-1.028-0.514-2.056-1.542-2.056-11.309-5.655-12.851-21.591-9.767-35.47 2.056-9.253 6.168-14.908 8.739-14.908 1.542 0 2.571-1.028 2.571-2.57 0-42.153 25.703-62.715 26.217-63.229s1.028-1.028 1.028-2.056v-69.911c0-1.028-0.514-2.056-1.542-2.57-12.851-4.627-25.189-9.253-37.012-13.88-68.37-25.189-118.233-43.18-131.599-70.425-19.020-35.984-21.59-74.538-22.105-84.82z" />
<glyph unicode="&#xe630;" glyph-name="uniE630" horiz-adv-x="549" d="M23.273-32c-1.396 0-2.328 0.466-3.258 1.397-1.396 1.397-1.862 3.724-0.931 5.12l60.509 121.949c-51.2 42.356-79.593 98.677-79.593 158.72 0 123.811 123.346 224.814 274.618 224.814s274.618-101.003 274.618-224.814c0-123.811-123.346-224.815-274.618-224.815-32.582 0-64.233 4.654-94.022 13.498l-155.462-75.404c-0.465-0.465-1.396-0.465-1.862-0.465zM274.618 470.691c-146.153 0-265.309-96.814-265.309-215.505 0-58.182 27.927-112.64 79.127-153.6 1.862-1.397 2.328-3.724 1.397-5.586l-56.32-113.106 144.291 70.284c0.931 0.466 2.327 0.466 3.258 0.466 29.789-9.309 60.975-13.498 93.091-13.498 146.152 0 265.309 96.815 265.309 215.506 0.466 118.225-118.691 215.040-264.844 215.040zM283.928 135.563c-7.913 0-13.964 6.051-13.964 13.964s6.051 13.964 13.964 13.964 13.964-6.051 13.964-13.964-6.051-13.964-13.964-13.964zM283.928 154.182c-2.793 0-4.654-1.862-4.654-4.654s1.862-4.654 4.654-4.654 4.654 1.862 4.654 4.654-1.862 4.654-4.654 4.654zM283.928 191.418c-2.793 0-4.654 1.862-4.654 4.654v37.237c0 2.792 1.862 4.655 4.654 4.655 39.098 0 68.422 26.065 68.422 60.509 0 35.84-29.324 65.163-65.629 65.163-35.84 0-65.629-30.72-65.629-67.026 0-2.792-1.862-4.654-4.655-4.654s-4.655 1.862-4.655 4.654c0 42.357 33.512 76.335 74.938 76.335s74.938-33.513 74.938-74.473c0-37.702-31.651-67.491-73.077-69.818v-32.582c0-2.793-1.862-4.654-4.654-4.654z" />
<glyph unicode="&#xe631;" glyph-name="uniE631" d="M511.457 224c0-70.509-25.084-130.803-75.118-180.881-50.079-50.079-110.373-75.118-180.881-75.118-70.554 0-130.757 25.039-180.61 75.118-49.898 50.079-74.847 110.373-74.847 180.881 0 70.147 25.040 130.35 75.118 180.61s110.192 75.39 180.339 75.39c70.509 0 130.803-25.040 180.881-75.118 50.079-50.125 75.118-110.373 75.118-180.882zM174.644 377.491l75.39-166.508-73.762-162.17 162.17 163.254-163.797 165.423z" />
<glyph unicode="&#xe632;" glyph-name="uniE632" d="M110.534 107.387c0-2.329-0.773-3.591-2.72-3.591h-36.96c-1.947 0-2.72 0.774-2.72 3.111v253.289c0 1.946 0.773 2.72 2.72 2.72h129.405c2.329 0 2.72-0.774 3.111-2.72l3.885-32.445c0.391-2.329-0.774-3.111-3.111-3.111h-93.609v-73.618h83.911c1.946 0 2.658-0.382 2.658-2.72v-32.836c0-2.329-0.774-2.72-2.72-2.72h-83.849v-105.36zM372.373 103.795c-2.72 0-3.502 1.049-3.885 3.378-11.662 64.906-21.378 110.8-25.654 142.667h-0.391c-5.058-28.764-14.382-76.587-29.929-143.058-0.774-2.329-1.555-2.986-3.502-2.986h-38.089c-2.72 0-3.502 0.391-4.276 2.72l-41.591 185.565c-0.391 1.556 0.391 3.111 2.72 3.111h38.089c1.555 0 2.72-0.542 3.111-2.098 14.774-83.565 20.986-126.854 23.325-143.956h1.555c2.72 20.214 10.88 62.329 28.373 143.182 0.774 2.329 0.774 2.871 3.111 2.871h40.036c1.947 0 2.329-0.942 2.72-2.889 13.609-76.569 22.542-124.907 24.88-144.347h1.164c3.885 24.88 8.942 58.445 25.654 144.738 0.391 1.556 0.774 2.498 2.72 2.498h35.76c1.555 0 2.72-0.774 1.947-2.72l-46.258-185.956c-0.391-1.947-0.774-2.72-3.493-2.72h-38.098z" />
<glyph unicode="&#xe633;" glyph-name="uniE633" d="M178.853 107.422c0-2.329-0.774-3.040-2.72-3.040h-36.96c-1.946 0-2.72 0.774-2.72 3.111v253.289c0 1.946 0.774 2.72 2.72 2.72h129.147c2.329 0 2.72-0.774 3.111-2.72l3.885-32.445c0.391-2.329-0.774-3.111-3.111-3.111h-93.351v-73.618h84.169c1.947 0 2.4-0.391 2.4-2.72v-32.836c0-2.329-0.774-2.72-2.72-2.72h-83.849v-105.911zM317.84 361.173c0 1.555 0.382 2.329 2.72 2.329h36.569c2.329 0 3.111-0.774 3.111-2.329v-211.511c0-9.325 3.493-12.827 10.498-12.827 3.111 0 4.462 0.382 6.4 0.774 1.555 0 1.947-0.391 1.947-2.329v-27.6c0-2.329-0.391-3.111-1.947-3.885-5.049-1.947-12.267-2.72-20.435-2.72-20.605 0-38.871 7.778-38.871 45.084v215.014z" />
<glyph unicode="&#xe634;" glyph-name="uniE634" horiz-adv-x="608" d="M541.642 289.723h-79.216c-28.711 0-52.068 23.358-52.068 52.069v17.482c-36.437 3.547-71.243 5.271-106.337 5.271s-69.918-1.724-106.382-5.271v-17.483c0-28.711-23.358-52.069-52.069-52.069h-79.213c-28.712 0-52.069 23.358-52.069 52.069v33.152c-0.021 36.019 28.298 70.028 64.469 77.425 74.145 15.102 149.94 22.76 225.285 22.76 75.286 0 151.054-7.657 225.199-22.76 36.153-7.392 64.47-41.401 64.47-77.425v-33.151c0-28.712-23.357-52.069-52.069-52.069zM304.023 369.666c36.002 0 71.707-1.806 109.149-5.522 1.31-0.131 2.308-1.232 2.308-2.547v-19.804c0-25.888 21.060-46.949 46.948-46.949h79.216c25.888 0 46.949 21.061 46.949 46.949v33.15c0 33.681-26.52 65.486-60.374 72.409-73.81 15.034-149.234 22.656-224.177 22.656-75.001 0-150.454-7.623-224.261-22.657-33.871-6.926-60.392-38.73-60.373-72.406v-33.152c0-25.888 21.061-46.949 46.949-46.949h79.214c25.888 0 46.949 21.061 46.949 46.949v19.803c0 1.316 0.997 2.418 2.308 2.547 37.472 3.717 73.19 5.523 109.194 5.523zM531.74-27.134h-455.481c-1.413 0-2.56 1.147-2.56 2.56v74.916c0 54.404 19.4 105.125 54.626 142.821 35.856 38.368 84.944 59.497 138.225 59.497h74.916c53.264 0 102.346-21.13 138.201-59.497 35.23-37.7 54.633-88.421 54.633-142.821v-74.916c0-1.414-1.147-2.56-2.56-2.56zM78.82-22.014h450.36v72.356c0 110.579-82.454 197.2-187.712 197.2h-74.916c-105.27 0-187.732-86.62-187.732-197.2v-72.356zM254.491 247.542c-1.413 0-2.56 1.147-2.56 2.56v49.945c0 1.413 1.147 2.56 2.56 2.56s2.56-1.147 2.56-2.56v-49.945c0-1.415-1.145-2.56-2.56-2.56zM353.945 247.542c-1.413 0-2.56 1.147-2.56 2.56v49.945c0 1.413 1.147 2.56 2.56 2.56s2.56-1.147 2.56-2.56v-49.945c0-1.415-1.147-2.56-2.56-2.56zM304 12.474c-50.55 0-91.676 41.127-91.676 91.676s41.125 91.675 91.676 91.675 91.675-41.125 91.675-91.675-41.125-91.676-91.675-91.676zM304 190.704c-47.728 0-86.556-38.829-86.556-86.555 0-47.728 38.829-86.556 86.556-86.556s86.555 38.829 86.555 86.556c0 47.726-38.829 86.555-86.555 86.555z" />
<glyph unicode="&#xe635;" glyph-name="uniE635" horiz-adv-x="561" d="M178.717 45.283c-0.483 0-0.966 0-1.932 0.483-1.449 0.483-2.898 2.415-2.898 4.347v91.774h-14.49c-87.909 0-159.396 73.902-159.396 165.192 0 88.392 68.106 162.777 158.913 172.921 0 0 0.483 0 0.483 0h198.521c0 0 0.483 0 0.483 0 91.291-10.144 162.777-85.978 162.777-172.921 0-15.94-2.415-31.396-6.763-46.37-0.966-2.415-3.381-3.864-5.796-3.381-2.415 0.966-3.864 3.381-3.381 5.796 4.347 14.007 6.279 28.981 6.279 43.471 0 81.63-67.623 153.6-153.6 163.26h-198.037c-85.978-9.178-150.219-79.215-150.219-162.778 0-85.494 67.139-155.532 149.736-155.532h19.321c2.898 0 4.83-1.932 4.83-4.83v-84.046l78.732 87.426c0.966 0.966 2.415 1.449 3.381 1.449h47.819c2.898 0 4.83-1.932 4.83-4.83s-1.932-4.83-4.83-4.83h-45.887l-85.495-95.154c-0.966-0.966-1.932-1.449-3.381-1.449zM555.471-32c0 0 0 0 0 0h-241.51c-1.449 0-3.381 0.966-3.864 2.415-0.966 1.449-0.966 3.381-0.483 4.83l115.924 241.51c0.966 1.449 2.415 2.898 4.347 2.898s3.381-0.966 4.347-2.415l125.102-240.543c0.483-0.966 0.966-1.932 0.966-2.898 0-3.864-1.932-5.796-4.83-5.796zM321.69-22.339h226.053l-117.856 226.053-108.196-226.053zM429.887 54.943c-2.898 0-4.83 1.932-4.83 4.83v48.302c0 2.898 1.932 4.83 4.83 4.83s4.83-1.932 4.83-4.83v-48.302c0-2.898-1.932-4.83-4.83-4.83zM429.887 6.642c-8.212 0-14.49 6.279-14.49 14.49s6.279 14.49 14.49 14.49 14.49-6.279 14.49-14.49-6.279-14.49-14.49-14.49zM429.887 25.962c-2.898 0-4.83-1.932-4.83-4.83s1.932-4.83 4.83-4.83 4.83 1.932 4.83 4.83-1.932 4.83-4.83 4.83z" />
<glyph unicode="&#xe636;" glyph-name="uniE636" horiz-adv-x="402" d="M397.128 480h-218.256c-1.641 0-3.282-1.641-3.282-3.282v-175.589c0-1.641 0-1.641 1.641-3.282s1.641-1.641 3.282-1.641h39.385v-323.282c0-1.641 1.641-3.282 3.282-3.282h65.641c-1.641 0-3.282 1.641-3.282 3.282v3.282h-57.436v324.923c0 1.641 0 1.641-1.641 3.282s-1.641 1.641-3.282 1.641h-39.385v165.743h210.052v-495.589h-36.103v-3.282c0-1.641-1.641-3.282-3.282-3.282h42.666c1.641 0 3.282 1.641 3.282 3.282v502.154c0 3.282-1.641 4.923-3.282 4.923zM292.103 33.641h57.436v-57.436h8.205v62.359c0 1.641-1.641 3.282-3.282 3.282h-65.641c-1.641 0-3.282-1.641-3.282-3.282v-62.359h8.205v57.436zM357.743-27.077v3.282h-73.846v-3.282c0-1.641 1.641-3.282 3.282-3.282h65.641c3.282-1.641 4.923 0 4.923 3.282zM221.538 304.411h-218.256c-1.641 0-3.282-1.641-3.282-3.282v-328.205c0-1.641 1.641-3.282 3.282-3.282h44.307c-1.641 0-3.282 1.641-3.282 3.282v3.282h-37.743v320h210.051v-320h-101.743v-3.282c0-1.641-1.641-3.282-3.282-3.282h109.948c1.641 0 3.282 1.641 3.282 3.282v328.205c1.641 1.641 0 3.282-3.282 3.282zM50.872 33.641h57.436v-57.436h8.205v62.359c0 1.641-1.641 3.282-3.282 3.282h-65.641c-1.641 0-3.282-1.641-3.282-3.282v-62.359h8.205v57.436zM116.513-27.077v3.282h-73.846v-3.282c0-1.641 1.641-3.282 3.282-3.282h65.641c3.282-1.641 4.923 0 4.923 3.282zM90.257 253.538h-86.975c-1.641 0-3.282 1.641-3.282 3.282s1.641 3.282 3.282 3.282h86.975c1.641 0 3.282-1.641 3.282-3.282s0-3.282-3.282-3.282zM68.923 209.231h-65.641c-1.641 0-3.282 1.641-3.282 3.282s1.641 3.282 3.282 3.282h65.641c1.641 0 3.282-1.641 3.282-3.282s-1.641-3.282-3.282-3.282zM265.846 384.82h-86.975c-1.641 0-3.282 1.641-3.282 3.282s1.641 3.282 3.282 3.282h86.975c1.641 0 3.282-1.641 3.282-3.282s-1.641-3.282-3.282-3.282zM310.154 427.487h-131.282c-1.641 0-3.282 1.641-3.282 3.282s1.641 3.282 3.282 3.282h131.282c1.641 0 3.282-1.641 3.282-3.282s-1.641-3.282-3.282-3.282zM244.513 340.513h-65.641c-1.641 0-3.282 1.641-3.282 3.282s1.641 3.282 3.282 3.282h65.641c1.641 0 3.282-1.641 3.282-3.282s-1.641-3.282-3.282-3.282zM47.59 164.923h-44.307c-1.641 0-3.282 1.641-3.282 3.282s1.641 3.282 3.282 3.282h44.307c1.641 0 3.282-1.641 3.282-3.282s-1.641-3.282-3.282-3.282z" />
<glyph unicode="&#xe637;" glyph-name="uniE637" horiz-adv-x="568" d="M283.808-32c-1.72 0-2.866 1.147-2.866 2.866 0 48.161-122.123 85.429-278.074 85.429-1.72 0-2.866 1.147-2.866 2.866v417.971c0 1.72 1.147 2.866 2.866 2.866 147.351 0 261.447-32.681 280.94-77.975 19.494 45.294 133.59 77.975 280.941 77.975 1.72 0 2.866-1.146 2.866-2.866v-417.397c0-1.72-1.146-2.866-2.866-2.866-155.951 0-278.074-37.841-278.074-86.002 0-1.147-1.147-2.866-2.866-2.866zM5.734 62.603c146.204-0.574 259.154-32.681 278.074-77.976 18.921 44.721 131.87 77.402 278.074 77.976v411.664c-154.804-0.574-275.207-37.841-275.207-85.429 0-1.72-1.147-2.866-2.866-2.866s-2.866 1.147-2.866 2.866c0 47.588-120.403 84.856-275.207 85.429v-411.664zM283.808-32c-1.72 0-2.866 1.147-2.866 2.866v417.971c0 1.72 1.147 2.866 2.866 2.866s2.866-1.146 2.866-2.866v-417.397c0-1.72-1.147-3.44-2.866-3.44zM220.739 329.209c-0.573 0-0.573 0-1.147 0-41.281 16.054-99.189 26.947-163.404 30.961-1.72 0-2.867 1.72-2.867 2.866 0 1.72 1.147 2.867 2.867 2.867 64.788-4.587 123.27-15.481 165.125-31.534 1.72-0.574 2.293-2.293 1.72-3.44 0-1.146-1.147-1.72-2.293-1.72zM220.739 252.954c-0.573 0-0.573 0-1.147 0-41.281 16.054-99.189 26.947-163.404 30.961-1.72 0-2.867 1.72-2.867 2.867 0 1.72 1.72 2.866 2.867 2.866 64.788-4.587 123.27-15.481 165.125-31.534 1.72-0.573 2.293-2.293 1.72-3.44 0-0.573-1.147-1.72-2.293-1.72zM220.739 177.272c-0.573 0-0.573 0-1.147 0-41.281 16.054-99.189 26.947-163.977 31.534-1.72 0-2.867 1.72-2.867 2.866 0 1.72 1.147 2.866 2.867 2.866 64.788-4.587 123.27-15.481 165.125-31.534 1.72-0.574 2.293-2.293 1.72-3.44 0.573-1.72-0.573-2.293-1.72-2.293zM220.739 101.59c-0.573 0-0.573 0-1.147 0-41.281 15.481-99.189 26.947-163.404 30.961-1.72 0-2.867 1.72-2.867 2.866 0 1.72 1.72 2.866 2.867 2.866 64.788-4.587 123.27-15.481 165.125-31.534 1.72-0.574 2.293-2.293 1.72-3.44 0-1.147-1.147-1.72-2.293-1.72zM346.875 177.272c-1.147 0-2.293 0.574-2.866 1.72-0.574 1.72 0 2.866 1.72 3.44 41.855 16.054 100.336 26.947 165.125 31.534 1.146 0 2.866-1.147 2.866-2.866s-1.146-2.866-2.866-2.866c-64.215-4.587-122.123-15.481-163.404-30.961 0.574 0 0 0-0.574 0zM346.875 101.59c-1.147 0-2.293 0.574-2.866 1.72-0.574 1.72 0 2.866 1.72 3.44 41.855 16.054 100.336 26.947 165.125 31.534 1.72 0 2.866-1.147 2.866-2.866s-1.146-2.866-2.866-2.866c-63.642-4.014-121.55-15.481-162.831-30.961 0 0-0.574 0-1.147 0zM507.413 259.261l-53.322 53.322-52.748-53.322v202.392h5.733v-188.058l47.014 47.014 47.588-47.014v201.819h5.733z" />
<glyph unicode="&#xe638;" glyph-name="uniE638" d="M489.412-9.412h-365.93v30.118h335.812v335.812h30.118zM442.729 37.271h-380.988v30.118h350.87v350.87h30.118zM399.059 80.941h-376.471v376.471h376.471v-376.471zM52.706 111.059h316.236v316.236h-316.236v-316.236zM123.483 160.753l-25.6 15.059 55.718 91.859c3.012 4.517 7.53 7.53 12.047 7.53s9.036-1.506 12.047-6.024l33.13-39.153 61.741 91.859c3.012 4.517 9.036 7.53 13.553 6.024 6.024 0 10.541-4.517 12.047-9.036l55.718-146.071-28.612-10.541-45.176 118.964-55.718-84.329c-3.012-4.517-7.53-6.024-12.047-6.024s-9.036 1.506-12.047 6.024l-31.624 37.647-45.177-73.788zM138.541 317.365c-22.588 0-42.165 19.577-42.165 42.164s19.576 42.164 42.165 42.164c22.588 0 42.165-18.070 42.165-42.164 0-22.588-19.577-42.164-42.165-42.164zM138.541 371.577c-7.53 0-12.047-4.518-12.047-12.047s6.024-12.047 12.047-12.047 12.047 6.024 12.047 12.047-6.024 12.047-12.047 12.047zM37.647 183.341h344.847v-30.118h-344.847v30.118z" />
</font>
</defs>
</svg>
