<?xml version="1.0" encoding="utf-8"?>
<svg version="1.1" id="Layer_1" xmlns="http://www.w3.org/2000/svg" xmlns:xlink="http://www.w3.org/1999/xlink" x="0px" y="0px"
	 width="125px" height="32px" viewBox="0 0 125 32" style="enable-background:new 0 0 125 32;" xml:space="preserve">
<g style="fill:none;stroke:#FFFFFF;stroke-miterlimit:10;">
	<circle cx="16" cy="16" r="15"/>
	<circle cx="61" cy="16" r="15"/>
	<circle cx="107" cy="16" r="15"/>
</g>
<g style="fill:#FFFFFF;">
	<path d="M17.3,25.1v-8.3H20l0.4-3.2h-3.1v-2.1c0-0.9,0.2-1.6,1.5-1.6l1.6,0V7c-0.3,0-1.3-0.1-2.4-0.1c-2.3,0-4,1.5-4,4.3v2.4h-2.7v3.2h2.7v8.3H17.3z"/>
	<path d="M69.5,10.7c-0.6,0.3-1.3,0.5-2,0.5c0.7-0.4,1.3-1.1,1.5-1.9c-0.7,0.4-1.4,0.7-2.2,0.8c-0.6-0.7-1.5-1.1-2.5-1.1c-1.9,0-3.5,1.6-3.5,3.5c0,0.3,0,0.5,0.1,0.8c-2.9-0.1-5.5-1.5-7.2-3.6c-0.3,0.5-0.5,1.1-0.5,1.8c0,1.2,0.6,2.3,1.6,2.9c-0.6,0-1.1-0.2-1.6-0.4c0,0,0,0,0,0c0,1.7,1.2,3.1,2.8,3.4c-0.3,0.1-0.6,0.1-0.9,0.1c-0.2,0-0.4,0-0.7-0.1c0.4,1.4,1.7,2.4,3.3,2.4c-1.2,0.9-2.7,1.5-4.3,1.5c-0.3,0-0.6,0-0.8,0c1.5,1,3.4,1.6,5.3,1.6c6.4,0,9.9-5.3,9.9-9.9c0-0.2,0-0.3,0-0.5C68.4,12,69,11.4,69.5,10.7z"/>
	<path style="fill-rule:evenodd;clip-rule:evenodd;" d="M112.4,14.9h-1.2c0.1,0.3,0.1,0.7,0.1,1.1c0,2.4-1.9,4.3-4.3,4.3c-2.4,0-4.3-1.9-4.3-4.3c0-0.4,0.1-0.7,0.1-1.1h-1.2v5.9c0,0.3,0.2,0.5,0.5,0.5h9.7c0.3,0,0.5-0.2,0.5-0.5V14.9z M112.4,11.2c0-0.3-0.2-0.5-0.5-0.5h-1.6c-0.3,0-0.5,0.2-0.5,0.5v1.6c0,0.3,0.2,0.5,0.5,0.5h1.6c0.3,0,0.5-0.2,0.5-0.5V11.2zM107,13.3c-1.5,0-2.7,1.2-2.7,2.7c0,1.5,1.2,2.7,2.7,2.7c1.5,0,2.7-1.2,2.7-2.7C109.7,14.5,108.5,13.3,107,13.3 M112.4,23h-10.8c-0.9,0-1.6-0.7-1.6-1.6V10.6c0-0.9,0.7-1.6,1.6-1.6h10.8c0.9,0,1.6,0.7,1.6,1.6v10.8C114,22.3,113.3,23,112.4,23"/>
</g>
</svg>
