<?xml version="1.0" encoding="utf-8"?>
<!-- Generator: Adobe Illustrator 16.0.0, SVG Export Plug-In . SVG Version: 6.00 Build 0)  -->
<!DOCTYPE svg PUBLIC "-//W3C//DTD SVG 1.1//EN" "http://www.w3.org/Graphics/SVG/1.1/DTD/svg11.dtd">
<svg version="1.1" id="图层_1" xmlns="http://www.w3.org/2000/svg" xmlns:xlink="http://www.w3.org/1999/xlink" x="0px" y="0px"
	 width="595.279px" height="841.89px" viewBox="0 0 595.279 841.89" enable-background="new 0 0 595.279 841.89"
	 xml:space="preserve">
<path fill="#EEEEEE" d="M4.032,83.653v1.769c8.125,0,14.733,6.608,14.733,14.732h1.769C20.534,91.055,13.131,83.653,4.032,83.653z"
	/>
<path fill="#EEEEEE" d="M4.051,89.686v1.179c5.121,0,9.289,4.167,9.289,9.289h1.181C14.519,94.382,9.823,89.686,4.051,89.686z"/>
<path fill="#EEEEEE" d="M5.873,95.679c-1.371,0-2.485,1.117-2.485,2.488s1.114,2.485,2.485,2.485s2.486-1.115,2.486-2.485
	C8.359,96.796,7.244,95.679,5.873,95.679z"/>
<g>
	<path fill="#888888" d="M10.817,240.18c-5.169,0-9.375,4.207-9.375,9.377c0,0.947,0.146,1.863,0.407,2.727l1.542-1.055
		c-0.122-0.539-0.19-1.098-0.19-1.672c0-4.201,3.417-7.617,7.617-7.617s7.617,3.416,7.617,7.617c0,4.199-3.417,7.617-7.617,7.617
		c-2.354,0-4.455-1.08-5.854-2.764l1.761-1.201c1.065,1.098,2.543,1.734,4.092,1.734c1.838,0,3.575-0.898,4.646-2.4
		c0.282-0.395,0.189-0.943-0.206-1.227c-0.396-0.281-0.942-0.189-1.227,0.207c-0.741,1.041-1.943,1.662-3.215,1.662
		c-1.272,0-2.476-0.621-3.215-1.662l-0.5-0.701l-4.564,3.119c1.576,2.965,4.694,4.99,8.28,4.99c5.169,0,9.375-4.205,9.375-9.375
		C20.192,244.386,15.986,240.18,10.817,240.18z"/>
	<rect x="6.718" y="245.647" fill="#888888" width="1.759" height="2.93"/>
	<rect x="13.158" y="245.647" fill="#888888" width="1.758" height="2.93"/>
</g>
<g>
	<path fill="#888888" d="M20.582,204.718h1.172c0-4.265-3.471-7.736-7.735-7.736v1.171
		C17.636,198.153,20.582,201.099,20.582,204.718z"/>
	<path fill="#888888" d="M17.456,204.718h1.172c0-2.543-2.067-4.613-4.61-4.613v1.173C15.914,201.278,17.456,202.821,17.456,204.718
		z"/>
	<path fill="#888888" d="M14.58,205.489c-1.274-0.925-2.304-2.171-2.972-3.606l-0.8-1.717l-0.795,1.721
		c-0.661,1.431-1.688,2.682-2.966,3.614c-1.291,0.941-2.753,1.517-4.347,1.716l-1.875,0.232l1.385,1.283
		c1.161,1.076,2.033,2.436,2.522,3.934c0.488,1.492,0.592,3.096,0.294,4.641l-0.354,1.844l1.644-0.908
		c2.761-1.527,6.271-1.523,9.028,0.014l1.658,0.928l-0.368-1.865c-0.232-1.176-0.237-2.365-0.017-3.537l0.111-0.588l-5.446-3.445
		c-0.41-0.26-0.954-0.137-1.212,0.273c-0.261,0.41-0.139,0.953,0.271,1.211l4.451,2.816c-0.088,0.658-0.116,1.32-0.085,1.98
		c-2.479-0.934-5.291-0.934-7.771-0.006c0.056-1.32-0.126-2.646-0.538-3.904c-0.413-1.264-1.055-2.443-1.885-3.479
		c1.277-0.355,2.489-0.938,3.563-1.721c1.076-0.785,2.001-1.76,2.729-2.867c0.729,1.108,1.657,2.08,2.732,2.859
		c1.077,0.779,2.288,1.359,3.565,1.709c-0.359,0.453-0.687,0.932-0.971,1.436c-0.239,0.422-0.093,0.959,0.329,1.199
		c0.424,0.24,0.959,0.092,1.198-0.332c0.467-0.822,1.059-1.568,1.751-2.219l1.38-1.289l-1.875-0.225
		C17.338,207,15.875,206.428,14.58,205.489z"/>
</g>
<g>
	<path fill="#888888" d="M3.725,158.669c1.039-0.242,1.712,0.349,2.694,1.348l0.563,0.563l0.829-0.827l-0.559-0.56
		c-0.908-0.924-2.04-2.072-3.795-1.665c-1.129,0.262-2,1.095-2.33,2.232c-0.332,1.146-0.041,2.325,0.779,3.158l0.075,0.076
		c1.118,1.133,1.766,1.904,1.331,3.047c-0.438,1.154-1.435,1.261-3.021,1.298L0,167.348l0.034,1.171l0.29-0.007
		c1.409-0.033,3.34-0.079,4.089-2.053c0.731-1.931-0.558-3.236-1.594-4.286l-0.074-0.077c-0.519-0.525-0.701-1.277-0.488-2.01
		C2.466,159.365,3.015,158.834,3.725,158.669z"/>
	<path fill="#888888" d="M21.859,164.694l-3.272-3.271c-1.324-1.325-3.088-2.053-4.963-2.053c-1.876,0-3.641,0.729-4.966,2.056
		c-0.141,0.142-0.269,0.288-0.394,0.438l4.361,4.362l0.829-0.828l-3.117-3.116c0.931-0.746,2.075-1.152,3.284-1.152
		c1.405,0,2.729,0.547,3.723,1.538l3.271,3.271c0.994,0.994,1.542,2.315,1.543,3.722c0.001,1.407-0.548,2.728-1.541,3.723
		c-0.991,0.992-2.31,1.537-3.71,1.537c-1.406,0-2.729-0.548-3.726-1.544l-3.271-3.271c-1.455-1.454-1.876-3.552-1.271-5.38
		l-1.35-1.349c-1.23,2.604-0.775,5.816,1.378,7.972l3.271,3.271c1.328,1.327,3.094,2.059,4.968,2.059c1.87,0,3.63-0.729,4.953-2.053
		c1.326-1.326,2.057-3.09,2.056-4.965C23.917,167.782,23.186,166.02,21.859,164.694z"/>
</g>
<g>
	<polygon fill="#EEEEEE" points="12.867,65.986 11.049,65.986 11.049,67.286 5.593,67.286 5.593,69.104 11.049,69.104 
		11.049,73.262 12.867,73.262 12.867,69.104 18.324,69.104 18.324,67.286 12.867,67.286 	"/>
	<polygon fill="#EEEEEE" points="20.709,56.262 17.937,56.262 11.96,61.461 5.979,56.262 3.209,56.262 10.467,62.572 5.593,62.572 
		5.593,64.39 18.324,64.39 18.324,62.572 13.454,62.572 	"/>
</g>
<g>
	<path fill="#EEEEEE" d="M1.622,29.28v0.862l10.338,9.605l10.335-9.605V29.28H1.622z M11.96,38.148l-7.651-7.109H19.61L11.96,38.148
		z"/>
	<path fill="#EEEEEE" d="M20.539,42.013c0,1.733-0.76,1.915-2.491,1.915H5.871c-1.73,0-2.491-0.182-2.491-1.915v-7.838l-1.758-1.633
		v9.471c0,3.674,2.979,3.674,4.249,3.674h12.176c1.271,0,4.249,0,4.249-3.674v-9.471l-1.757,1.634V42.013z"/>
</g>
<g>
	<path fill="#888888" d="M1.622,121.285v0.862l10.338,9.605l10.335-9.605v-0.862H1.622z M11.96,130.153l-7.651-7.109H19.61
		L11.96,130.153z"/>
	<path fill="#888888" d="M20.539,134.019c0,1.733-0.76,1.915-2.491,1.915H5.871c-1.73,0-2.491-0.182-2.491-1.915v-7.838
		l-1.758-1.633v9.471c0,3.674,2.979,3.674,4.249,3.674h12.176c1.271,0,4.249,0,4.249-3.674v-9.471l-1.757,1.634V134.019z"/>
</g>
<g>
	<g>
		<path fill="#EEEEEE" d="M17.525,10.5c0,1.445-2.694,2.552-5.898,1.282c-3.562-1.413-4.129-4.164-3.172-5.158
			c0.996-1.035,2.543,0.464,4.672,1.505C15.303,9.194,17.525,8.903,17.525,10.5z"/>
	</g>
	<g>
		<path fill="#EEEEEE" d="M17.525,7.974c-0.201,0-0.386-0.128-0.451-0.328c-0.195-0.6-0.823-2.065-2.453-2.716
			c-1.323-0.527-2.878-0.469-3.961,0.148c-0.228,0.129-0.517,0.05-0.646-0.177c-0.131-0.228-0.051-0.517,0.177-0.646
			c1.325-0.754,3.201-0.835,4.782-0.204c2.001,0.799,2.766,2.575,3.002,3.302c0.081,0.249-0.058,0.516-0.306,0.597
			C17.622,7.966,17.573,7.974,17.525,7.974z"/>
	</g>
	<g>
		<path fill="#EEEEEE" d="M6.303,18.606c-0.237,0-0.527-0.071-0.851-0.298C4.583,17.695,5,16.135,5.417,15.436
			c0.716-1.202,1.854-1.743,3.679-1.746c-2.378-1.293-4.451-3.911-4.058-6.717c0.513-3.647,4.461-5.986,9.184-5.439
			c1.161,0.134,1.526,0.109,1.777-0.125c0.214-0.2-0.024-0.713-0.026-0.718c-0.076-0.147-0.07-0.324,0.017-0.466
			C16.075,0.084,16.21,0.005,16.395,0c0.832,0.007,1.833,0.509,2.195,1.616c0.163,0.495,0.116,0.882,0.081,1.165
			c-0.042,0.342-0.045,0.37,0.222,0.541c1.898,1.221,3,3.679,2.674,5.979c-0.315,2.235-2.188,4.234-4.773,5.093
			c-0.249,0.083-0.516-0.052-0.599-0.3c-0.082-0.249,0.052-0.517,0.301-0.6c2.211-0.734,3.872-2.473,4.133-4.327
			c0.271-1.915-0.675-4.039-2.249-5.05c-0.765-0.491-0.695-1.046-0.646-1.452c0.029-0.236,0.056-0.46-0.041-0.754
			c-0.142-0.425-0.403-0.663-0.657-0.796c0.007,0.343-0.088,0.704-0.39,0.985c-0.595,0.554-1.354,0.511-2.535,0.373
			C9.914,1.99,6.416,3.979,5.976,7.105c-0.354,2.5,1.78,4.933,3.969,5.954c0.517,0.242,0.74,0.528,0.746,0.958
			c0.002,0.159-0.063,0.308-0.176,0.42c-0.257,0.248-0.688,0.228-1.108,0.208c-0.064-0.003-0.124-0.006-0.172-0.007
			c-1.59-0.023-2.447,0.348-3.004,1.282C5.917,16.446,5.783,17.379,6,17.531c0.104,0.074,0.252,0.154,0.368,0.116
			c0.063-0.019,0.276-0.128,0.486-0.717c0.013-0.035,0.023-0.077,0.038-0.122c0.082-0.271,0.204-0.681,0.56-0.861
			c0.132-0.067,0.347-0.128,0.622-0.031c0.247,0.087,0.376,0.357,0.29,0.604c-0.074,0.206-0.272,0.33-0.482,0.315
			C7.852,16.91,7.819,17.018,7.8,17.079c-0.019,0.062-0.034,0.12-0.053,0.168c-0.255,0.714-0.622,1.152-1.092,1.302
			C6.557,18.583,6.438,18.606,6.303,18.606z"/>
	</g>
	<g>
		<path fill="#EEEEEE" d="M10.717,22c-0.532,0-0.973-0.215-1.193-0.594c-0.492-0.841,0.024-1.464,0.441-1.966
			c0.165-0.198,0.336-0.404,0.475-0.635c0.662-1.115,0.752-1.758,0.617-1.989c-0.093-0.155-0.353-0.16-0.427-0.158
			c-0.163,0.005-0.325,0.427-0.5,0.874c-0.115,0.303-0.25,0.646-0.432,1.002c-0.575,1.127-1.075,2.006-1.823,2.22
			c-0.352,0.101-0.716,0.04-1.081-0.18c-0.3-0.181-0.503-0.482-0.57-0.848c-0.103-0.533,0.085-1.141,0.522-1.712
			c0.622-0.812,0.771-1.204,0.803-1.345c-0.118-0.145-0.146-0.353-0.053-0.529c0.125-0.23,0.413-0.316,0.645-0.191
			c0.182,0.098,0.306,0.266,0.351,0.474c0.063,0.293,0.028,0.837-0.992,2.167c-0.264,0.344-0.393,0.704-0.344,0.96
			c0.019,0.1,0.063,0.171,0.13,0.212c0.196,0.119,0.294,0.091,0.331,0.081c0.411-0.118,0.949-1.173,1.239-1.74
			c0.159-0.312,0.283-0.631,0.392-0.913c0.276-0.716,0.563-1.458,1.357-1.479c0.56-0.016,1.023,0.211,1.267,0.625
			c0.38,0.646,0.178,1.611-0.618,2.953c-0.176,0.296-0.38,0.541-0.56,0.758c-0.444,0.534-0.49,0.649-0.354,0.882
			c0.043,0.074,0.21,0.143,0.474,0.121c0.638-0.055,1.459-0.585,1.854-1.646c0.229-0.611,0.296-1.027,0.348-1.332
			c0.058-0.36,0.131-0.809,0.628-0.915c0.346-0.075,0.677,0.035,0.884,0.293c0.322,0.402,0.3,1.058-0.063,1.845
			c-0.082,0.179-0.154,0.33-0.223,0.465c-0.257,0.521-0.274,0.585-0.204,0.772c0.048,0.127,0.166,0.211,0.316,0.226
			c0.142,0.012,0.646-0.016,1.229-0.966c0.73-1.192,0.499-2.819-0.517-3.625c-0.157-0.124-0.287-0.223-0.399-0.308
			c-0.335-0.253-0.558-0.421-0.824-0.779c-0.155-0.209-0.112-0.506,0.098-0.662c0.21-0.158,0.506-0.114,0.663,0.096
			c0.186,0.25,0.327,0.356,0.636,0.589c0.118,0.089,0.254,0.192,0.417,0.321c1.379,1.094,1.709,3.276,0.737,4.863
			c-0.847,1.379-1.771,1.449-2.129,1.414c-0.514-0.049-0.938-0.369-1.113-0.835c-0.03-0.081-0.053-0.158-0.068-0.232
			c-0.606,0.856-1.473,1.299-2.188,1.361C10.834,21.998,10.775,22,10.717,22z"/>
	</g>
</g>
<path fill="#EEEEEE" d="M11.154,298.773c5.513-3.821,8.81-6.543,8.81-10.381c0-2.442-1.622-5.216-4.605-5.216
	s-4.205,1.883-4.205,1.883s-1.222-1.883-4.205-1.883c-2.983,0-4.605,2.773-4.605,5.216C2.344,292.23,5.64,294.952,11.154,298.773z"
	/>
</svg>
