<?xml version="1.0" encoding="utf-8"?>
<!-- Generator: Adobe Illustrator 19.1.0, SVG Export Plug-In . SVG Version: 6.00 Build 0)  -->
<svg version="1.1" id="Layer_1" xmlns="http://www.w3.org/2000/svg" xmlns:xlink="http://www.w3.org/1999/xlink" x="0px" y="0px"
	 width="60px" height="60px" viewBox="-64 96 60 60" style="enable-background:new -64 96 60 60;" xml:space="preserve">
<g id="XMLID_31_">
	<g id="XMLID_45_">
		<path d="M-25.5,151.1c-4.6,0-21.9-3.8-23.6-4.2l-11.5,0.5l-3.4-20.3l0.8-0.2c0.1,0,5.5-1.2,10.5-4.2c7.2-4.3,16.3,1.1,23.6,5.4
			c2.1,1.2,4,2.4,5.6,3.1l0.2,0.1l0.1,0.2c0.6,1,0.8,2.1,0.6,3.3c-0.2,0.9-0.6,1.7-1.1,2.4c4.1-0.7,11.6-2.2,17.6-4l0.7-0.2l0.3,0.6
			c0.1,0.1,1.6,3.3,0.6,6.2c-0.5,1.5-1.6,2.7-3.3,3.4c-2.1,0.9-4.2,2.1-6.3,3.1c-4.3,2.3-8.4,4.4-11.1,4.6
			C-25.1,151.1-25.3,151.1-25.5,151.1z M-48.9,145.2h0.1c5.6,1.3,20.6,4.5,23.7,4.2c2.4-0.2,6.3-2.2,10.5-4.4
			c2.1-1.1,4.2-2.2,6.3-3.2c1.2-0.6,2-1.3,2.4-2.4c0.5-1.5,0.1-3.3-0.3-4.2c-7.4,2.1-17.3,4-19.8,4.2l0,0c-2.1,0.1-9.9-3-11.4-3.7
			c-0.4-0.2-0.6-0.7-0.5-1.1c0.2-0.4,0.7-0.6,1.1-0.5c3.3,1.4,8.8,3.4,10.4,3.5c0.9-0.6,1.9-1.8,2.2-3.1c0.1-0.7,0.1-1.3-0.2-1.8
			c-1.6-0.8-3.5-1.9-5.6-3.1c-6.9-4.1-15.5-9.2-21.8-5.4c-4.1,2.5-8.5,3.8-10.2,4.2l2.8,17.2L-48.9,145.2z"/>
	</g>
</g>
<g id="XMLID_65_">
	<g id="XMLID_68_">
		<path d="M-21.2,124.6c-5.7,0-10.3-5.3-10.3-11.8s4.6-11.8,10.3-11.8s10.3,5.3,10.3,11.8S-15.5,124.6-21.2,124.6z M-21.2,102.7
			c-4.8,0-8.6,4.5-8.6,10.1c0,5.6,3.9,10.1,8.6,10.1s8.6-4.5,8.6-10.1C-12.6,107.2-16.4,102.7-21.2,102.7z"/>
	</g>
</g>
<g id="XMLID_64_">
	<path d="M-22.1,120.1v-1.8c-1.2,0-2.5-0.4-3.2-0.8l0.5-1.7c0.8,0.4,1.9,0.8,3.1,0.8c1.2,0,2.1-0.6,2.1-1.4c0-0.8-0.7-1.3-2.1-1.8
		c-2.1-0.7-3.4-1.6-3.4-3.3c0-1.6,1.2-2.8,3.2-3.1v-1.8h1.6v1.7c1.2,0,2.1,0.3,2.7,0.6l-0.5,1.7c-0.5-0.2-1.3-0.6-2.7-0.6
		s-1.9,0.7-1.9,1.3c0,0.7,0.7,1.2,2.4,1.8c2.2,0.8,3.2,1.7,3.2,3.4c0,1.5-1.2,2.9-3.3,3.2v1.9h-1.7
		C-22.1,120.2-22.1,120.1-22.1,120.1z"/>
</g>
</svg>
