<?xml version="1.0" standalone="no"?> <!DOCTYPE svg PUBLIC "-//W3C//DTD SVG 1.0//EN" "http://www.w3.org/TR/2001/REC-SVG-20010904/DTD/svg10.dtd" > <svg xmlns="http://www.w3.org/2000/svg" width="100%" height="100%">
<defs >
<font id="CorpidC1_9" horiz-adv-x="2261" ><font-face
    font-family="Corpid"
    units-per-em="4096"
    panose-1="2 11 10 3 4 5 2 6 2 4"
    ascent="4010"
    descent="-905"
    alphabetic="0" />
<missing-glyph horiz-adv-x="2253" d="M614 614V1638H819V819H1229V614H614ZM205 205V2048H2048V205H205ZM1024 1434V1638H1638V614H1434V1024H1024V1229H1434V1434H1024ZM1843 410V1843H410V410H1843Z" />
<glyph unicode=" " glyph-name="space" horiz-adv-x="1106" />
<glyph unicode="!" glyph-name="exclam" horiz-adv-x="1475" d="M1184 1020H455L360 3072H1278L1184 1020ZM1278 410Q1278 311 1243 227T1147 82T1001 -14T819 -49Q721 -49 637 -15T492 81T395 227T360 410Q360 508 395 592T491 737T637 833T819 868Q917 868 1001
834T1146 738T1243 592T1278 410Z" />
<glyph unicode="&quot;" glyph-name="quotedbl" horiz-adv-x="2253" d="M1782 1937H1196L1135 3072H1843L1782 1937ZM852 1937H266L205 3072H913L852 1937Z" />
<glyph unicode="#" glyph-name="numbersign" horiz-adv-x="2253" d="M1913 1614L1876 1286H2105V754H1819L1733 0H1118L1204 754H901L815 0H201L287 754H66V1286H344L381 1614H147V2146H442L520 2859H1135L1057 2146H1360L1438 2859H2052L1974 2146H2187V1614H1913ZM995
1614L958 1286H1262L1298 1614H995Z" />
<glyph unicode="$" glyph-name="dollar" horiz-adv-x="2253" d="M2105 942Q2105 805 2079 692T2007 486T1897 322T1757 194T1596 99T1421 33V-475H803V-25Q705 -22 609 -10T421 19T246 59T90 106L221 758Q285 733 364 712T533 676T720 652T918 643Q1004 643 1063
654T1159 689T1212 746T1229 827Q1229 867 1209 895T1152 944T1065 980T956 1008T832 1036T700 1069Q629 1088 560 1115T426 1183T308 1277T213 1405T150 1574T127 1790Q127 1968 178 2110T319 2358T533 2534T803 2638V3092H1421V2654Q1487 2648 1557 2634T1696
2601T1828 2562T1942 2523L1786 1937Q1737 1956 1671 1973T1529 2005T1375 2027T1221 2036Q1155 2036 1113 2026T1046 1995T1013 1944T1004 1876Q1004 1844 1023 1821T1077 1780T1158 1748T1262 1720T1380 1692T1507 1659Q1580 1639 1652 1611T1791 1542T1915 1448T2014
1321T2081 1155T2105 942Z" />
<glyph unicode="%" glyph-name="percent" horiz-adv-x="3539" d="M1585 2159Q1585 2024 1558 1914T1482 1717T1362 1567T1204 1462T1016 1400T803 1380Q623 1380 484 1424T249 1561T103 1801T53 2154Q53 2357 112 2504T277 2746T525 2887T836 2933Q1016 2933 1155
2889T1390 2752T1535 2511T1585 2159ZM3486 717Q3486 582 3459 472T3383 275T3263 125T3105 21T2917 -41T2703 -61Q2523 -61 2384 -18T2149 120T2004 360T1954 713Q1954 848 1981 958T2057 1154T2177 1304T2335 1409T2523 1471T2736 1491Q2916 1491 3055 1448T3290
1310T3436 1070T3486 717ZM958 2159Q958 2254 951 2314T927 2407T885 2453T823 2466Q786 2466 759 2453T715 2406T689 2310T680 2154Q680 2091 683 2044T694 1962T712 1906T738 1870T772 1852T815 1847Q852 1847 879 1860T923 1907T949 2003T958 2159ZM2859 717Q2859
780 2856 827T2845 909T2827 966T2801 1001T2767 1019T2724 1024Q2687 1024 2660 1011T2615 964T2589 869T2580 713Q2580 618 2588 558T2612 464T2654 418T2716 406Q2753 406 2780 419T2824 466T2850 561T2859 717ZM897 -106L463 205L2642 2978L3076 2666L897 -106Z"
/>
<glyph unicode="&amp;" glyph-name="ampersand" horiz-adv-x="3109" d="M2630 -106Q2584 -74 2528 -34T2416 46T2307 125T2216 193Q2128 131 2029 82T1817 -2T1577 -55T1307 -74Q1130 -74 977 -51T698 19T474 138T309 308T207 532T172 811Q172 925 197 1026T276
1219T413 1396T614 1561Q557 1636 511 1707T433 1853T383 2008T365 2183Q365 2358 425 2497T601 2733T886 2881T1274 2933Q1370 2933 1472 2920T1670 2876T1852 2795T2002 2670T2104 2494T2142 2261Q2142 2168 2125 2089T2076 1941T1999 1814T1899 1703T1780 1604T1647
1511Q1685 1480 1723 1450T1800 1391T1877 1332T1953 1275T2028 1220T2101 1167Q2113 1213 2122 1264T2138 1371T2147 1482T2150 1593H2851Q2848 1475 2834 1363T2797 1145T2741 944T2671 762Q2722 727 2771 693T2868 628T2961 566T3047 508L2630 -106ZM1434 2220Q1434
2250 1429 2274T1413 2317T1386 2351T1350 2374T1304 2387T1249 2392Q1206 2392 1173 2377T1116 2337T1081 2280T1069 2212Q1069 2173 1077 2139T1104 2070T1150 1997T1217 1913Q1275 1953 1316 1990T1383 2064T1422 2140T1434 2220ZM1667 598Q1632 623 1585 660T1482
742T1368 835T1252 932T1141 1026T1044 1110Q1026 1089 1010 1065T983 1014T965 957T958 893Q958 810 984 744T1064 632T1197 562T1384 537Q1421 537 1460 542T1536 555T1607 574T1667 598Z" />
<glyph unicode="&apos;" glyph-name="quotesingle" horiz-adv-x="1147" d="M881 1937H266L205 3072H942L881 1937Z" />
<glyph unicode="(" glyph-name="parenleft" horiz-adv-x="1466" d="M655 -852Q518 -591 421 -339T263 165T172 671T143 1192Q143 1458 172 1712T262 2218T421 2722T655 3236L1323 2986Q1248 2780 1189 2567T1090 2132T1029 1675T1008 1192Q1008 943 1029 709T1090
252T1189 -183T1323 -602L655 -852Z" />
<glyph unicode=")" glyph-name="parenright" horiz-adv-x="1466" d="M1323 1192Q1323 926 1295 672T1204 166T1045 -338T811 -852L143 -602Q218 -396 277 -184T376 252T438 709T459 1192Q459 1441 438 1675T377 2131T277 2567T143 2986L811 3236Q948 2975 1045
2723T1204 2219T1294 1713T1323 1192Z" />
<glyph unicode="*" glyph-name="asterisk" horiz-adv-x="2253" d="M1765 1503L1327 1884L1445 1327H806L938 1876L487 1503L172 2052L712 2245L172 2421L487 2970L938 2589L806 3146H1445L1314 2597L1765 2970L2080 2421L1540 2241L2080 2052L1765 1503Z" />
<glyph unicode="+" glyph-name="plus" horiz-adv-x="2253" d="M1462 963V201H791V963H82V1573H791V2331H1462V1573H2171V963H1462Z" />
<glyph unicode="," glyph-name="comma" horiz-adv-x="1229" d="M610 868Q722 868 812 825T964 705T1058 524T1087 297T1041 41T914 -230T697 -500T381 -754L57 -442Q142 -367 198 -310T289 -208T337 -129T352 -66Q352 -34 339 -7T305 50T262 113T219 191T186 294T172
430Q172 528 205 609T297 747T436 836T610 868Z" />
<glyph unicode="-" glyph-name="hyphen" horiz-adv-x="1298" d="M143 754V1450H1262V754H143Z" />
<glyph unicode="." glyph-name="period" horiz-adv-x="1229" d="M1073 410Q1073 311 1039 227T943 82T797 -14T614 -49Q516 -49 432 -15T287 81T191 227T156 410Q156 508 190 592T286 737T432 833T614 868Q713 868 797 834T942 738T1038 592T1073 410Z" />
<glyph unicode="/" glyph-name="slash" horiz-adv-x="2253" d="M803 -758L33 -524L1364 3371L2134 3138L803 -758Z" />
<glyph unicode="0" glyph-name="zero" horiz-adv-x="2253" d="M2200 1208Q2200 1020 2175 852T2094 541T1953 285T1746 91T1467 -31T1110 -74Q891 -74 728 -27T447 104T253 305T133 563T71 863T53 1192Q53 1379 78 1547T158 1857T298 2114T505 2308T784 2431T1143
2474Q1363 2474 1527 2427T1808 2295T2001 2093T2121 1835T2183 1535T2200 1208ZM1307 1192Q1307 1333 1301 1435T1284 1609T1255 1723T1217 1791T1170 1823T1114 1831Q1087 1831 1065 1823T1024 1791T991 1725T966 1615T951 1449T946 1217Q946 1074 952 970T969
793T998 676T1036 607T1083 574T1139 565Q1159 565 1176 569T1210 586T1239 619T1263 674T1282 754T1295 864T1304 1008T1307 1192Z" />
<glyph unicode="1" glyph-name="one" horiz-adv-x="2253" d="M229 0V676H741V1626L340 1454L131 1954L860 2433H1634V676H2130V0H229Z" />
<glyph unicode="2" glyph-name="two" horiz-adv-x="2253" d="M102 0V659L631 1036Q722 1100 788 1156T901 1261T976 1352T1021 1434T1043 1508T1049 1577Q1049 1611 1042 1637T1020 1684T984 1719T937 1743T881 1756T815 1761Q743 1761 673 1752T535 1725T405
1682T283 1626L127 2310Q214 2345 320 2375T544 2427T790 2461T1049 2474Q1289 2474 1482 2434T1810 2306T2019 2082T2093 1753Q2093 1661 2083 1579T2045 1421T1972 1271T1854 1123T1685 968T1454 799L1315 705H2154V0H102Z" />
<glyph unicode="3" glyph-name="three" horiz-adv-x="2253" d="M2175 430Q2175 256 2129 119T2003 -123T1813 -302T1576 -422T1310 -490T1032 -512Q891 -512 765 -509T525 -499T312 -480T123 -451V180Q207 174 281 170T426 164T569 161T721 160Q825 160 899 179T1020
231T1088 311T1110 414Q1110 458 1102 496T1074 565T1020 621T932 662T804 687T631 696H377V1319H705Q825 1319 903 1337T1027 1388T1091 1464T1110 1556Q1110 1590 1104 1620T1083 1676T1045 1722T989 1756T911 1778T811 1786Q746 1786 682 1778T551 1752T412
1708T262 1647L115 2290Q236 2336 358 2370T602 2428T839 2462T1065 2474Q1305 2474 1496 2423T1822 2274T2029 2038T2101 1724Q2101 1606 2071 1502T1980 1312T1825 1162T1606 1061V1053Q1690 1045 1765 1017T1903 945T2016 844T2102 721T2156 581T2175 430Z"
/>
<glyph unicode="4" glyph-name="four" horiz-adv-x="2253" d="M2003 0V-442H1143V0H41V799L819 2400H2003V700H2212V0H2003ZM1143 1642H1139L688 700H1143V1642Z" />
<glyph unicode="5" glyph-name="five" horiz-adv-x="2253" d="M2159 483Q2159 247 2072 62T1827 -250T1447 -445T954 -512Q861 -512 759 -508T555 -496T353 -478T164 -455V184Q227 178 291 174T432 166T602 162T815 160Q916 160 989 177T1109 226T1178 305T1200
410Q1200 471 1184 525T1126 619T1010 682T819 705Q741 705 662 702T507 691T360 675T225 655L246 2400H1970V1659H958L954 1348Q991 1349 1028 1350T1099 1353T1165 1355T1221 1356Q1361 1356 1485 1338T1713 1278T1900 1169T2040 1004T2128 778T2159 483Z" />
<glyph unicode="6" glyph-name="six" horiz-adv-x="2253" d="M2187 967Q2187 801 2153 660T2054 402T1899 198T1693 49T1444 -43T1159 -74Q968 -74 814 -38T541 71T335 257T194 523T113 870T86 1303Q86 1472 100 1632T147 1938T230 2214T354 2455T525 2654T747
2805T1025 2900T1364 2933Q1444 2933 1526 2925T1690 2902T1855 2866T2015 2818L1884 2245Q1821 2262 1758 2275T1633 2298T1508 2313T1384 2318Q1296 2318 1228 2297T1107 2239T1019 2152T961 2045T928 1926T918 1802V1782Q956 1809 1006 1833T1116 1876T1242
1906T1380 1917Q1526 1917 1643 1891T1849 1813T2003 1682T2108 1498T2168 1260T2187 967ZM1323 918Q1323 989 1320 1043T1310 1138T1291 1205T1263 1248T1225 1271T1176 1278Q1137 1278 1106 1272T1048 1256T994 1230T938 1196Q938 1078 942 986T955 823T979 704T1016
624T1067 579T1135 565Q1165 565 1191 570T1238 591T1275 631T1301 695T1317 789T1323 918Z" />
<glyph unicode="7" glyph-name="seven" horiz-adv-x="2253" d="M1446 295Q1400 201 1354 117T1261 -42T1168 -183T1077 -307T989 -418T905 -516L221 -205Q275 -111 332 -6T446 213T561 445T672 684L1102 1659H131V2400H2118V1671L1446 295Z" />
<glyph unicode="8" glyph-name="eight" horiz-adv-x="2253" d="M2212 811Q2212 587 2144 421T1937 144T1592 -20T1106 -74Q851 -74 653 -33T319 101T112 346T41 717Q41 785 52 851T88 981T148 1105T235 1220T351 1327T496 1425Q419 1477 347 1541T218 1689T128
1878T94 2122Q94 2254 124 2365T213 2567T359 2725T563 2840T822 2909T1135 2933Q1317 2933 1464 2911T1724 2844T1920 2734T2055 2584T2134 2395T2159 2167Q2159 2061 2133 1969T2057 1799T1939 1656T1786 1536Q1889 1474 1968 1397T2102 1227T2184 1031T2212
811ZM1315 2089Q1315 2143 1307 2183T1277 2251T1218 2292T1122 2306Q1071 2306 1036 2293T980 2255T948 2196T938 2118Q938 2072 952 2032T996 1954T1072 1883T1184 1815Q1216 1845 1240 1878T1281 1945T1306 2016T1315 2089ZM1343 770Q1343 821 1328 864T1281
949T1200 1031T1085 1114Q1048 1080 1016 1040T960 955T923 863T909 770Q909 718 921 679T959 614T1028 574T1130 561Q1185 561 1225 572T1292 608T1330 673T1343 770Z" />
<glyph unicode="9" glyph-name="nine" horiz-adv-x="2253" d="M2175 1106Q2175 883 2150 676T2065 287T1908 -44T1668 -300T1333 -465T889 -524Q803 -524 717 -520T542 -506T359 -483T164 -451L221 156Q307 141 392 129T559 108T716 95T860 90Q952 90 1024 110T1149
167T1240 252T1300 357T1333 474T1343 598V618Q1305 591 1255 567T1145 524T1018 494T881 483Q735 483 618 509T412 588T258 720T153 906T93 1145T74 1438Q74 1604 108 1745T207 2001T362 2204T568 2353T816 2443T1102 2474Q1293 2474 1447 2439T1720 2331T1926
2147T2067 1883T2148 1537T2175 1106ZM1323 1204Q1323 1323 1319 1416T1306 1579T1282 1697T1245 1776T1194 1821T1126 1835Q1095 1835 1070 1830T1023 1810T986 1770T960 1707T944 1614T938 1487Q938 1415 941 1360T951 1265T969 1197T996 1153T1034 1129T1085
1122Q1117 1122 1147 1128T1207 1144T1265 1170T1323 1204Z" />
<glyph unicode=":" glyph-name="colon" horiz-adv-x="1311" d="M1155 1716Q1155 1618 1120 1534T1024 1389T878 1292T696 1257Q598 1257 514 1292T369 1388T273 1534T238 1716Q238 1814 272 1898T368 2043T514 2140T696 2175Q794 2175 878 2140T1023 2044T1120
1898T1155 1716ZM1155 410Q1155 311 1120 227T1024 82T878 -14T696 -49Q598 -49 514 -15T369 81T273 227T238 410Q238 508 272 592T368 737T514 833T696 868Q794 868 878 834T1023 738T1120 592T1155 410Z" />
<glyph unicode=";" glyph-name="semicolon" horiz-adv-x="1311" d="M1155 1716Q1155 1618 1120 1534T1024 1389T878 1292T696 1257Q598 1257 514 1292T369 1388T273 1534T238 1716Q238 1814 272 1898T368 2043T514 2140T696 2175Q794 2175 878 2140T1023 2044T1120
1898T1155 1716ZM692 868Q804 868 894 825T1046 705T1140 524T1169 297T1123 41T996 -230T779 -500T463 -754L139 -442Q224 -367 280 -310T371 -208T419 -129T434 -66Q434 -34 421 -7T387 50T344 113T301 191T268 294T254 430Q254 528 287 609T379 747T518 836T692
868Z" />
<glyph unicode="&lt;" glyph-name="less" horiz-adv-x="2253" d="M172 954V1602L1970 2474V1745L885 1286L1970 827V82L172 954Z" />
<glyph unicode="=" glyph-name="equal" horiz-adv-x="2253" d="M180 1446V2048H2073V1446H180ZM180 500V1102H2073V500H180Z" />
<glyph unicode="&gt;" glyph-name="greater" horiz-adv-x="2253" d="M283 82V811L1368 1270L283 1729V2474L2081 1602V954L283 82Z" />
<glyph unicode="?" glyph-name="question" horiz-adv-x="1966" d="M1864 2404Q1864 2260 1835 2153T1758 1963T1650 1815T1527 1690T1407 1567T1306 1427T1241 1252T1229 1020H483Q448 1183 450 1305T481 1520T557 1679T660 1801T772 1901T875 1998T950 2107T979
2245Q979 2297 958 2339T893 2412T780 2458T614 2474Q509 2474 402 2466T205 2445V3047Q257 3064 321 3079T459 3105T618 3122T795 3129Q1073 3129 1274 3080T1607 2937T1801 2710T1864 2404ZM1335 410Q1335 311 1301 227T1205 82T1059 -14T877 -49Q778 -49 694
-15T549 81T453 227T418 410Q418 508 452 592T548 737T694 833T877 868Q975 868 1059 834T1204 738T1300 592T1335 410Z" />
<glyph unicode="@" glyph-name="at" horiz-adv-x="3621" d="M3310 -373Q3181 -433 3034 -481T2732 -563T2416 -616T2101 -635Q1807 -635 1553 -578T1088 -411T715 -145T439 211T268 649T209 1159Q209 1447 276 1693T468 2141T767 2498T1158 2759T1623 2919T2146
2974Q2400 2974 2588 2937T2911 2834T3131 2680T3267 2489T3336 2274T3355 2048V569H2720L2650 836Q2596 745 2530 683T2383 581T2210 525T2011 508Q1858 508 1725 556T1493 691T1339 896T1282 1155Q1282 1379 1352 1530T1571 1772T1951 1903T2503 1942H2535V2040Q2535
2127 2517 2190T2449 2295T2313 2356T2089 2376Q1917 2376 1763 2339T1479 2232T1243 2060T1065 1826T953 1537T913 1196Q913 1015 951 854T1064 556T1246 312T1495 128T1807 12T2179 -29Q2299 -29 2417 -17T2654 23T2898 92T3154 193L3310 -373V-373ZM2535 1462H2478Q2372
1462 2297 1453T2173 1420T2103 1353T2081 1245Q2081 1210 2091 1181T2123 1130T2175 1097T2249 1085Q2295 1085 2336 1099T2412 1140T2478 1203T2535 1282V1462Z" />
<glyph unicode="A" glyph-name="A" horiz-adv-x="2982" d="M1974 0Q1962 54 1949 114T1921 238T1891 367T1860 496H991Q973 428 956 364T923 237T893 116T864 0H0Q97 344 199 686T415 1380T653 2099T922 2859H2052Q2182 2498 2308 2134T2553 1410T2780 695T2982
0H1974ZM1692 1163Q1661 1277 1632 1385T1574 1599T1513 1814T1446 2036H1442Q1405 1922 1370 1812T1302 1594T1238 1378T1176 1163H1692Z" />
<glyph unicode="B" glyph-name="B" horiz-adv-x="2654" d="M2564 918Q2564 736 2512 597T2366 356T2147 186T1872 76T1560 18T1229 0H205V2859H1270Q1441 2859 1592 2843T1870 2792T2098 2700T2269 2562T2376 2372T2413 2126Q2413 2020 2382 1930T2296 1768T2163
1646T1991 1569Q2117 1549 2222 1499T2403 1367T2521 1173T2564 918ZM1532 1999Q1532 2040 1523 2072T1495 2130T1451 2173T1393 2202T1323 2218T1241 2224H1077V1769H1257Q1325 1769 1376 1786T1462 1835T1514 1908T1532 1999ZM1638 897Q1638 954 1620 1001T1559
1083T1447 1136T1274 1155H1077V651H1315Q1369 651 1414 658T1495 681T1558 717T1602 765T1629 826T1638 897Z" />
<glyph unicode="C" glyph-name="C" horiz-adv-x="2355" d="M2314 90Q2245 55 2154 25T1964 -27T1765 -61T1577 -74Q1224 -74 951 14T491 281T208 734T111 1380Q111 1638 159 1853T296 2241T513 2543T800 2759T1148 2889T1548 2933Q1648 2933 1748 2922T1945 2890T2133
2838T2306 2765L2056 2085Q2001 2114 1944 2135T1830 2169T1718 2189T1610 2195Q1518 2195 1442 2168T1304 2093T1198 1975T1122 1822T1076 1641T1061 1438Q1061 1218 1106 1071T1233 834T1425 706T1667 668Q1722 668 1778 675T1889 695T1997 727T2101 770L2314
90V90Z" />
<glyph unicode="D" glyph-name="D" horiz-adv-x="2957" d="M2859 1466Q2859 1208 2806 999T2655 627T2415 346T2098 151T1714 37T1274 0H205V2859H1339Q1576 2859 1780 2824T2154 2716T2454 2531T2675 2264T2812 1911T2859 1466ZM1937 1421Q1937 1531 1923 1630T1878
1815T1797 1968T1673 2085T1502 2160T1278 2187H1098V680H1282Q1445 680 1567 733T1772 883T1895 1117T1937 1421Z" />
<glyph unicode="E" glyph-name="E" horiz-adv-x="2257" d="M205 0V2859H2081V2187H1098V1798H1925V1139H1098V672H2093V0H205Z" />
<glyph unicode="F" glyph-name="F" horiz-adv-x="2073" d="M1106 2187V1757H1827V1094H1106V0H205V2859H1929V2187H1106Z" />
<glyph unicode="G" glyph-name="G" horiz-adv-x="2929" d="M2490 2040Q2392 2086 2297 2120T2109 2176T1924 2209T1737 2220Q1634 2220 1540 2197T1364 2129T1217 2018T1105 1865T1034 1671T1008 1438Q1008 1240 1055 1093T1190 848T1407 703T1696 655Q1736 655
1769 661T1827 676V1622H2724V94Q2623 57 2498 27T2234 -26T1945 -61T1647 -74Q1406 -74 1198 -33T818 90T511 295T286 581T146 947T98 1393Q98 1639 148 1848T294 2229T529 2531T846 2752T1238 2887T1700 2933Q1852 2933 1988 2919T2250 2874T2496 2800T2736 2695L2490
2040Z" />
<glyph unicode="H" glyph-name="H" horiz-adv-x="2966" d="M1864 0V1081H1102V0H205V2859H1102V1839H1864V2859H2761V0H1864Z" />
<glyph unicode="I" glyph-name="I" horiz-adv-x="1311" d="M205 0V2859H1106V0H205Z" />
<glyph unicode="J" glyph-name="J" horiz-adv-x="1585" d="M1380 893Q1380 740 1361 609T1298 370T1186 180T1019 41T793 -45T500 -74Q460 -74 404 -70T284 -59T156 -41T33 -16V700H266Q294 700 320 704T370 719T414 744T448 780T471 828T479 889V2859H1380V893V893Z" />
<glyph unicode="K" glyph-name="K" horiz-adv-x="2798" d="M1765 0L1290 1167L1102 913V0H205V2859H1102V1901Q1180 2021 1257 2140T1410 2380T1561 2619T1712 2859H2761L1942 1802L2810 0H1765Z" />
<glyph unicode="L" glyph-name="L" horiz-adv-x="1933" d="M205 0V2859H1106V700H1888V0H205Z" />
<glyph unicode="M" glyph-name="M" horiz-adv-x="4055" d="M2982 0Q2982 166 2981 338T2978 685T2973 1031T2965 1369T2954 1690T2941 1987H2937L2396 0H1552L1032 1987H1028Q1021 1847 1014 1691T1001 1370T991 1032T983 685T977 339T975 0H176Q176 217 180 450T193
925T214 1414T241 1906T273 2392T311 2859H1614L2023 1282V1282L2454 2859H3756Q3774 2632 3790 2392T3820 1907T3845 1414T3863 925T3875 450T3879 0H2982Z" />
<glyph unicode="N" glyph-name="N" horiz-adv-x="3076" d="M1729 0L983 1610H975V0H205V2859H1348L2093 1249H2101V2859H2871V0H1729Z" />
<glyph unicode="O" glyph-name="O" horiz-adv-x="3162" d="M3052 1458Q3052 1208 3010 998T2885 617T2678 318T2389 101T2019 -30T1569 -74Q1338 -74 1140 -43T779 60T493 246T283 528T155 919T111 1430Q111 1666 154 1869T282 2240T492 2536T783 2753T1150 2887T1593
2933Q1819 2933 2015 2900T2374 2793T2662 2605T2875 2325T3007 1946T3052 1458ZM2114 1421Q2114 1549 2104 1657T2068 1854T2003 2010T1902 2123T1762 2192T1577 2216Q1469 2216 1388 2189T1248 2111T1151 1992T1090 1839T1058 1661T1049 1466Q1049 1325 1060
1209T1097 1002T1164 843T1264 731T1403 665T1585 643Q1689 643 1769 669T1908 745T2006 863T2070 1019T2104 1207T2114 1421Z" />
<glyph unicode="P" glyph-name="P" horiz-adv-x="2523" d="M2478 1942Q2478 1658 2396 1451T2152 1109T1752 909T1204 844H1102V0H205V2859H1241Q1359 2859 1462 2852T1671 2826Q1860 2795 2009 2727T2263 2549T2423 2288T2478 1942ZM1540 1880Q1540 1934 1533
1979T1508 2062T1461 2126T1389 2171Q1369 2178 1348 2183T1304 2193T1252 2198T1188 2200H1102V1507H1233Q1324 1507 1383 1535T1477 1612T1526 1730T1540 1880Z" />
<glyph unicode="Q" glyph-name="Q" horiz-adv-x="3195" d="M2757 -385L2294 53Q2219 21 2136 -3T1962 -43T1773 -66T1569 -74Q1338 -74 1140 -43T779 60T493 246T283 528T155 919T111 1430Q111 1666 154 1869T282 2240T492 2536T783 2753T1150 2887T1593 2933Q1819
2933 2015 2900T2374 2793T2662 2605T2875 2325T3007 1946T3052 1458Q3052 1303 3035 1161T2985 890T2901 650T2785 442L3203 45L2757 -385ZM2114 1421Q2114 1549 2104 1657T2068 1854T2003 2010T1902 2123T1762 2192T1577 2216Q1469 2216 1388 2189T1248 2111T1151
1992T1090 1839T1058 1661T1049 1466Q1049 1325 1060 1209T1097 1002T1164 843T1264 731T1403 665T1585 643Q1596 643 1606 643T1627 643T1648 644T1667 647L1397 905L1843 1335L2089 1102Q2095 1137 2099 1175T2107 1252T2112 1334T2114 1421Z" />
<glyph unicode="R" glyph-name="R" horiz-adv-x="2691" d="M1671 0L1241 1004H1102V0H205V2859H1450Q1599 2859 1739 2841T2001 2783T2225 2680T2399 2525T2512 2314T2552 2040Q2552 1938 2539 1849T2499 1682T2434 1539T2344 1420T2229 1325T2089 1253L2691 0H1671ZM1614
1954Q1614 1990 1608 2022T1588 2081T1553 2131T1504 2168T1440 2191T1360 2200H1102V1642H1249Q1337 1642 1405 1663T1519 1724T1590 1822T1614 1954Z" />
<glyph unicode="S" glyph-name="S" horiz-adv-x="2327" d="M2232 971Q2232 784 2187 634T2058 367T1860 168T1604 31T1304 -48T971 -74Q883 -74 809 -71T668 -62T539 -45T414 -21T282 10T135 49L217 750Q292 722 373 700T539 663T708 639T877 631Q1004 631 1085
644T1213 682T1276 744T1294 831Q1294 865 1287 892T1262 941T1213 984T1133 1024T1018 1067T860 1118Q744 1154 645 1198T465 1297T320 1421T214 1575T149 1765T127 1995Q127 2157 169 2289T288 2526T471 2706T705 2833T977 2908T1274 2933Q1389 2933 1493 2925T1694
2901T1883 2861T2068 2802L1954 2134Q1883 2162 1806 2184T1647 2223T1483 2248T1319 2257Q1267 2257 1222 2251T1144 2228T1092 2183T1073 2109Q1073 2075 1080 2049T1102 2000T1141 1960T1198 1926T1274 1895T1372 1864Q1468 1834 1569 1801T1766 1723T1946 1614T2094
1462T2195 1253T2232 971Z" />
<glyph unicode="T" glyph-name="T" horiz-adv-x="2294" d="M1597 2146V0H697V2146H33V2859H2261V2146H1597Z" />
<glyph unicode="U" glyph-name="U" horiz-adv-x="3031" d="M2826 1077Q2826 813 2746 600T2502 238T2090 7T1507 -74Q1184 -74 941 -6T534 203T288 557T205 1061V2859H1102V1118Q1102 1035 1117 968T1159 848T1226 756T1313 692T1416 655T1532 643Q1627 643 1703
675T1832 765T1913 900T1942 1069V2859H2826V1077V1077Z" />
<glyph unicode="V" glyph-name="V" horiz-adv-x="2892" d="M2892 2859Q2807 2520 2712 2180T2510 1487T2283 765T2028 0H852Q730 361 615 725T393 1449T188 2164T4 2859H1008Q1036 2721 1071 2561T1148 2230T1224 1918T1305 1604T1394 1271T1499 893H1503Q1591
1192 1670 1481T1812 2017T1921 2476T1999 2859H2892V2859Z" />
<glyph unicode="W" glyph-name="W" horiz-adv-x="4256" d="M4162 2859Q4128 2527 4084 2192T3981 1506T3850 782T3686 0H2466L2130 1606H2126L1790 0H553Q470 370 400 739T273 1470T173 2181T98 2859H1069Q1075 2719 1086 2557T1112 2224T1144 1876T1182 1530T1223
1203T1266 913H1270L1683 2859H2658L3072 913H3076Q3113 1117 3143 1310T3197 1682T3239 2026T3270 2339T3290 2618T3301 2859H4162V2859Z" />
<glyph unicode="X" glyph-name="X" horiz-adv-x="2802" d="M1724 0L1389 856L1065 0H0L745 1491L86 2859H1135L1417 2118L1683 2859H2712L2060 1495L2798 0H1724Z" />
<glyph unicode="Y" glyph-name="Y" horiz-adv-x="2564" d="M2564 2859Q2512 2689 2454 2525T2331 2203T2198 1893T2055 1596T1901 1311T1737 1040V0H836V1040Q710 1251 595 1470T375 1917T177 2380T0 2859H1012Q1034 2764 1056 2678T1100 2510T1146 2350T1197
2193T1255 2031T1323 1860Q1359 1938 1390 2014T1450 2169T1503 2327T1552 2493T1596 2669T1638 2859H2564V2859Z" />
<glyph unicode="Z" glyph-name="Z" horiz-adv-x="2228" d="M86 0V659L1036 2171H147V2859H2073V2204L1151 684H2109V0H86Z" />
<glyph unicode="[" glyph-name="bracketleft" horiz-adv-x="1597" d="M225 -803V3187H1393V2585H1024V-201H1393V-803H225Z" />
<glyph unicode="\" glyph-name="backslash" horiz-adv-x="2253" d="M1450 -758L119 3138L889 3371L2220 -524L1450 -758Z" />
<glyph unicode="]" glyph-name="bracketright" horiz-adv-x="1597" d="M205 -803V-201H573V2585H205V3187H1372V-803H205Z" />
<glyph unicode="^" glyph-name="asciicircum" horiz-adv-x="2253" d="M1393 1470L1126 2232L860 1470H41L627 2859H1626L2212 1470H1393Z" />
<glyph unicode="_" glyph-name="underscore" horiz-adv-x="2253" d="M0 -905V-307H2253V-905H0Z" />
<glyph unicode="`" glyph-name="grave" horiz-adv-x="1434" d="M745 2322L0 2945L582 3273L1143 2552L745 2322Z" />
<glyph unicode="a" glyph-name="a" horiz-adv-x="2380" d="M1548 0L1495 176Q1443 121 1375 75T1225 -4T1049 -55T848 -74Q691 -74 552 -33T309 95T143 313T82 627Q82 831 156 974T383 1207T769 1339T1323 1380H1356V1438Q1356 1482 1344 1516T1297 1572T1199
1606T1032 1618Q952 1618 868 1608T700 1581T539 1540T393 1491L262 2064Q351 2100 457 2128T677 2177T905 2209T1126 2220Q1302 2220 1449 2205T1715 2153T1923 2056T2071 1908T2161 1701T2191 1425V0H1548ZM1356 881H1298Q1186 881 1110 871T986 837T918 774T897
676Q897 642 909 613T946 563T1008 529T1094 516Q1131 516 1167 527T1238 557T1303 602T1356 659V881Z" />
<glyph unicode="b" glyph-name="b" horiz-adv-x="2548" d="M2454 1180Q2454 982 2421 814T2319 507T2146 263T1900 85T1579 -24T1180 -61Q1054 -61 927 -47T675 -9T428 47T188 115V3072H1040V2064Q1089 2101 1145 2130T1263 2179T1392 2209T1532 2220Q1688 2220
1816 2184T2047 2082T2226 1921T2353 1712T2429 1462T2454 1180ZM1565 1057Q1565 1147 1560 1217T1542 1340T1512 1429T1469 1489T1412 1522T1339 1532Q1299 1532 1260 1521T1184 1489T1110 1439T1040 1372V684Q1054 672 1074 660T1120 637T1173 621T1233 614Q1310
614 1371 640T1476 720T1542 858T1565 1057Z" />
<glyph unicode="c" glyph-name="c" horiz-adv-x="1819" d="M1786 86Q1715 54 1640 26T1483 -22T1311 -54T1118 -66Q869 -66 678 7T358 221T161 563T94 1024Q94 1321 174 1543T400 1914T754 2137T1217 2212Q1281 2212 1350 2206T1490 2188T1629 2155T1761 2105L1593
1475Q1566 1487 1532 1498T1459 1517T1381 1531T1303 1536Q1220 1536 1158 1509T1054 1426T992 1286T971 1090Q971 981 989 896T1047 753T1154 665T1315 635Q1361 635 1403 639T1486 653T1565 676T1642 709L1786 86V86Z" />
<glyph unicode="d" glyph-name="d" horiz-adv-x="2548" d="M1716 0L1663 188Q1601 127 1533 79T1387 -4T1223 -56T1040 -74Q878 -74 745 -39T507 63T325 222T196 432T119 684T94 971Q94 1152 125 1314T218 1613T376 1861T599 2048T888 2166T1245 2208Q1279 2208
1314 2206T1384 2200T1449 2191T1507 2179V3072H2359V0H1716ZM1507 1450Q1487 1481 1430 1506T1294 1532Q1220 1532 1163 1507T1065 1428T1004 1291T983 1090Q983 1000 988 930T1006 806T1038 717T1084 657T1146 624T1225 614Q1252 614 1276 618T1323 632T1369
654T1413 685T1459 725T1507 774V1450Z" />
<glyph unicode="e" glyph-name="e" horiz-adv-x="2384" d="M2261 1151Q2261 1123 2260 1086T2258 1005T2254 918T2249 831H958Q958 787 968 751T1001 686T1056 636T1135 601T1237 580T1364 573Q1445 573 1538 578T1728 593T1923 618T2114 655L2179 53Q2068 22
1955 -1T1726 -41T1490 -65T1245 -74Q955 -74 739 -10T379 189T165 533T94 1032Q94 1316 168 1537T386 1910T745 2141T1241 2220Q1422 2220 1568 2193T1827 2109T2023 1965T2158 1759T2236 1489T2261 1151ZM1434 1331Q1437 1403 1429 1463T1396 1565T1323 1631T1200
1655Q1158 1655 1125 1645T1065 1615T1019 1567T988 1503T968 1424T958 1331H1434V1331Z" />
<glyph unicode="f" glyph-name="f" horiz-adv-x="1511" d="M1323 2499Q1299 2499 1279 2494T1240 2479T1208 2455T1184 2421T1169 2378T1163 2327V2146H1470V1507H1163V0H311V1507H41V2146H311V2294Q311 2422 329 2533T385 2738T483 2903T628 3026T823 3102T1073
3129Q1136 3129 1196 3126T1312 3116T1418 3102T1511 3084V2499H1323Z" />
<glyph unicode="g" glyph-name="g" horiz-adv-x="2548" d="M2359 115Q2359 -61 2319 -202T2204 -453T2023 -640T1783 -769T1494 -844T1163 -868Q1059 -868 955 -863T753 -849T566 -826T401 -795L426 -160Q504 -177 589 -190T762 -211T942 -224T1126 -229Q1190
-229 1243 -225T1339 -211T1413 -187T1465 -154T1496 -109T1507 -53V123Q1469 97 1419 73T1310 31T1187 3T1057 -8Q890 -8 754 28T510 131T325 291T196 499T119 746T94 1024Q94 1208 128 1362T233 1650T409 1887T657 2062T977 2170T1372 2208Q1470 2208 1569 2201T1790
2175T2051 2122T2359 2032V115V115ZM1507 1483Q1489 1494 1467 1503T1417 1520T1360 1531T1298 1536Q1227 1536 1171 1511T1072 1435T1007 1310T983 1130Q983 1047 988 981T1005 864T1038 777T1089 717T1161 683T1257 672Q1294 672 1331 680T1402 702T1463 732T1507
766V1483Z" />
<glyph unicode="h" glyph-name="h" horiz-adv-x="2535" d="M1511 0V1192Q1511 1252 1507 1301T1493 1387T1469 1452T1434 1497T1386 1523T1323 1532Q1278 1532 1243 1522T1174 1491T1109 1441T1040 1372V0H188V3072H1040V2032Q1088 2069 1143 2103T1265 2163T1414
2204T1597 2220Q1716 2220 1819 2198T2007 2130T2158 2015T2270 1852T2339 1639T2363 1376V0H1511Z" />
<glyph unicode="i" glyph-name="i" horiz-adv-x="1352" d="M1208 2707Q1208 2603 1174 2519T1079 2376T930 2285T737 2253Q631 2253 545 2285T396 2376T300 2519T266 2707Q266 2812 300 2896T396 3039T544 3130T737 3162Q843 3162 930 3130T1078 3039T1174 2896T1208
2707ZM311 0V1507H41V2146H1163V0H311Z" />
<glyph unicode="j" glyph-name="j" horiz-adv-x="1274" d="M1135 2707Q1135 2603 1101 2519T1005 2376T857 2285T664 2253Q558 2253 471 2285T323 2376T227 2519T193 2707Q193 2812 227 2896T322 3039T471 3130T664 3162Q770 3162 856 3130T1005 3039T1101 2896T1135
2707ZM1085 33Q1085 -99 1065 -218T1003 -438T896 -620T740 -759T532 -846T270 -877Q230 -877 183 -875T88 -868T-9 -858T-98 -844L-74 -180H29Q75 -180 112 -173T177 -144T218 -86T233 12V2146H1085V33V33Z" />
<glyph unicode="k" glyph-name="k" horiz-adv-x="2429" d="M1458 0L1208 885L1040 684V0H188V3072H1040V1552Q1133 1701 1226 1849T1413 2146H2404L1835 1470L2433 0H1458Z" />
<glyph unicode="l" glyph-name="l" horiz-adv-x="1311" d="M1282 0Q1240 -12 1190 -25T1080 -49T947 -67T791 -74Q659 -74 548 -46T357 52T233 240T188 541V3072H1040V766Q1040 717 1047 684T1072 631T1116 603T1184 594H1282V0V0Z" />
<glyph unicode="m" glyph-name="m" horiz-adv-x="3842" d="M2818 0V1192Q2818 1252 2814 1301T2801 1387T2778 1452T2744 1497T2696 1523T2634 1532Q2589 1532 2554 1522T2487 1491T2424 1441T2355 1372V0H1503V1192Q1503 1252 1499 1301T1486 1387T1463 1452T1429
1497T1381 1523T1319 1532Q1274 1532 1239 1522T1172 1491T1109 1441T1040 1372V0H188V2146H831L885 1958Q958 2025 1031 2074T1184 2156T1355 2204T1556 2220Q1670 2220 1767 2204T1944 2155T2088 2073T2200 1958Q2273 2025 2346 2074T2498 2156T2669 2204T2871
2220Q3003 2220 3113 2198T3313 2130T3469 2015T3580 1852T3647 1639T3670 1376V0H2818Z" />
<glyph unicode="n" glyph-name="n" horiz-adv-x="2535" d="M1511 0V1192Q1511 1283 1501 1347T1469 1453T1411 1513T1323 1532Q1278 1532 1243 1522T1174 1491T1109 1441T1040 1372V0H188V2146H831L885 1958Q958 2025 1031 2074T1186 2156T1358 2204T1561 2220Q1693
2220 1803 2198T2003 2130T2160 2015T2272 1852T2340 1639T2363 1376V0H1511Z" />
<glyph unicode="o" glyph-name="o" horiz-adv-x="2540" d="M2445 1090Q2445 908 2412 751T2312 464T2145 234T1913 66T1614 -38T1249 -74Q1051 -74 888 -41T597 56T374 213T217 428T125 698T94 1020Q94 1211 128 1374T229 1671T397 1907T630 2079T928 2184T1290
2220Q1588 2220 1806 2144T2166 1922T2376 1567T2445 1090ZM1569 1053Q1569 1155 1560 1232T1534 1366T1490 1460T1429 1520T1351 1552T1257 1561Q1176 1561 1121 1527T1033 1429T985 1278T971 1081Q971 980 980 904T1006 772T1050 680T1110 622T1188 591T1282
582Q1336 582 1378 596T1453 639T1507 708T1543 801T1563 917T1569 1053Z" />
<glyph unicode="p" glyph-name="p" horiz-adv-x="2548" d="M2454 1176Q2454 995 2423 833T2330 534T2172 286T1949 99T1660 -19T1303 -61Q1269 -61 1234 -59T1164 -53T1098 -44T1040 -33V-803H188V2146H831L885 1958Q946 2019 1015 2068T1161 2150T1324 2202T1507
2220Q1669 2220 1802 2185T2040 2083T2223 1924T2352 1714T2429 1462T2454 1176ZM1565 1057Q1565 1147 1560 1217T1542 1340T1510 1429T1464 1489T1402 1522T1323 1532Q1296 1532 1272 1528T1225 1514T1179 1492T1134 1461T1088 1421T1040 1372V696Q1051 681 1070
666T1117 640T1179 621T1253 614Q1327 614 1385 639T1483 718T1544 856T1565 1057Z" />
<glyph unicode="q" glyph-name="q" horiz-adv-x="2548" d="M1507 -803V82Q1458 45 1402 16T1285 -33T1156 -63T1016 -74Q860 -74 732 -38T501 64T322 225T195 435T119 685T94 967Q94 1164 127 1333T229 1640T402 1884T648 2062T969 2171T1368 2208Q1494 2208 1621
2195T1873 2160T2120 2104T2359 2032V-803H1507ZM1507 1479Q1489 1490 1469 1498T1424 1514T1365 1526T1298 1532Q1223 1532 1165 1504T1068 1424T1006 1289T983 1090Q983 1000 988 930T1006 806T1036 717T1079 657T1136 624T1208 614Q1235 614 1261 619T1313 633T1364
657T1413 689T1461 728T1507 774V1479Z" />
<glyph unicode="r" glyph-name="r" horiz-adv-x="1638" d="M1552 1389Q1538 1393 1513 1397T1459 1405T1399 1411T1343 1413Q1316 1413 1289 1406T1236 1385T1183 1352T1132 1309T1084 1257T1040 1196V0H188V2146H848L922 1880Q980 1969 1032 2033T1142 2139T1268
2200T1425 2220Q1465 2220 1497 2219T1553 2215T1594 2210T1622 2204L1552 1389Z" />
<glyph unicode="s" glyph-name="s" horiz-adv-x="1860" d="M1790 717Q1790 546 1727 402T1540 151T1237 -14T823 -74Q736 -74 646 -70T464 -56T279 -32T94 0L205 643Q269 623 335 607T466 578T597 560T725 553Q774 553 807 559T860 577T888 603T897 635Q897 659
887 680T852 720T782 758T668 795Q522 833 413 886T230 1017T119 1206T82 1470Q82 1583 110 1682T192 1865T328 2014T514 2126T749 2196T1032 2220Q1120 2220 1205 2215T1372 2200T1530 2178T1675 2154L1585 1532Q1531 1547 1471 1561T1349 1586T1228 1603T1118
1610Q1066 1610 1034 1604T984 1587T960 1562T954 1532Q954 1512 964 1497T999 1467T1070 1437T1184 1401Q1306 1367 1398 1328T1557 1241T1669 1139T1741 1019T1779 879T1790 717Z" />
<glyph unicode="t" glyph-name="t" horiz-adv-x="1638" d="M1520 0Q1475 -17 1409 -30T1264 -54T1102 -69T938 -74Q843 -74 758 -59T602 -11T474 74T377 201T316 374T295 598V1507H41V2146H295L496 2757H1147V2146H1520V1507H1147V950Q1147 884 1149 833T1159
742T1182 674T1221 628T1282 602T1368 594H1520V0V0Z" />
<glyph unicode="u" glyph-name="u" horiz-adv-x="2535" d="M1704 0L1651 188Q1577 120 1504 71T1350 -10T1178 -58T975 -74Q843 -74 732 -52T532 16T375 131T263 295T195 507T172 770V2146H1024V954Q1024 894 1028 846T1042 759T1066 694T1101 649T1149 623T1212
614Q1257 614 1293 624T1361 655T1426 706T1495 774V2146H2347V0H1704Z" />
<glyph unicode="v" glyph-name="v" horiz-adv-x="2245" d="M2245 2146Q2188 1876 2125 1608T1989 1073T1832 538T1647 0H602Q502 255 415 517T252 1047T114 1590T0 2146H881Q907 1979 939 1810T1007 1474T1085 1147T1171 836H1176Q1217 991 1253 1159T1319 1498T1372
1834T1413 2146H2245V2146Z" />
<glyph unicode="w" glyph-name="w" horiz-adv-x="3527" d="M3510 2146Q3465 1876 3408 1608T3282 1073T3131 538T2957 0H1970L1749 1053H1745L1544 0H557Q480 243 402 508T253 1047T120 1599T16 2146H889Q912 1972 936 1809T988 1487T1046 1173T1110 860H1114L1360
2146H2216L2486 860H2490Q2527 1032 2556 1194T2610 1514T2653 1828T2687 2146H3510V2146Z" />
<glyph unicode="x" glyph-name="x" horiz-adv-x="2343" d="M1364 0L1176 606L967 0H0L496 1114L37 2146H999L1184 1589L1372 2146H2273L1864 1135L2343 0H1364Z" />
<glyph unicode="y" glyph-name="y" horiz-adv-x="2241" d="M2232 2146Q2163 1787 2091 1475T1943 897T1785 408T1614 4Q1527 -173 1436 -306T1251 -537T1058 -698T857 -799T649 -852T434 -868Q385 -868 336 -863T240 -848T155 -827T86 -803L98 -184H393Q430 -184
459 -179T512 -165T555 -140T592 -105T625 -58T659 0Q591 144 525 306T398 644T281 1004T174 1379T80 1762T0 2146H881Q907 1979 939 1809T1007 1473T1085 1146T1171 836H1176Q1216 982 1251 1148T1316 1486T1368 1827T1405 2146H2232V2146Z" />
<glyph unicode="z" glyph-name="z" horiz-adv-x="1962" d="M106 0V614L774 1479H152V2146H1815V1520L1163 668H1860V0H106Z" />
<glyph unicode="{" glyph-name="braceleft" horiz-adv-x="1761" d="M1556 -786Q1518 -801 1469 -813T1369 -834T1269 -847T1180 -852Q965 -852 819 -787T582 -597T453 -287T414 135V487Q414 586 388 661T312 789T194 871T41 909V1565Q125 1572 194 1602T312 1684T387
1812T414 1987V2249Q414 2487 453 2671T582 2980T818 3171T1180 3236Q1220 3236 1269 3232T1369 3219T1469 3198T1556 3170V2585H1425Q1383 2585 1351 2579T1295 2559T1256 2520T1230 2461T1216 2377T1212 2265V1978Q1212 1888 1198 1805T1153 1649T1078 1511T971
1395T830 1302T655 1237Q751 1212 830 1173T970 1082T1077 965T1153 827T1197 669T1212 496V119Q1212 56 1216 8T1230 -76T1255 -136T1295 -174T1351 -195T1425 -201H1556V-786V-786Z" />
<glyph unicode="|" glyph-name="bar" horiz-adv-x="2253" d="M725 -803V3187H1528V-803H725Z" />
<glyph unicode="}" glyph-name="braceright" horiz-adv-x="1761" d="M1720 909Q1636 901 1567 872T1450 790T1375 662T1348 487V135Q1348 -103 1309 -287T1180 -596T944 -787T582 -852Q542 -852 493 -848T392 -835T292 -814T205 -786V-201H336Q378 -201 410 -195T466
-175T505 -136T531 -77T545 7T549 119V496Q549 586 563 669T608 826T683 964T790 1081T931 1173T1106 1237Q1010 1262 931 1302T791 1394T684 1511T608 1648T564 1805T549 1978V2265Q549 2329 545 2377T531 2460T506 2520T466 2558T410 2579T336 2585H205V3170Q243
3185 292 3197T392 3218T492 3231T582 3236Q797 3236 943 3171T1180 2981T1309 2671T1348 2249V1987Q1348 1888 1374 1813T1449 1685T1567 1602T1720 1565V909V909Z" />
<glyph unicode="~" glyph-name="asciitilde" horiz-adv-x="2253" d="M2150 2482Q2150 2266 2099 2110T1959 1852T1753 1703T1503 1655Q1422 1655 1356 1663T1236 1689T1136 1731T1049 1790Q990 1838 956 1875T899 1938T856 1977T807 1991Q781 1991 762 1978T731
1932T713 1846T705 1712H111V1868Q111 2084 162 2240T302 2498T508 2647T758 2695Q839 2695 905 2687T1025 2661T1125 2619T1212 2560Q1270 2512 1304 2475T1362 2412T1405 2373T1454 2359Q1480 2359 1499 2372T1530 2418T1548 2504T1556 2638H2150V2482V2482Z"
/>
</font>
</defs>
</svg>
