<?xml version="1.0" encoding="utf-8"?>
<!-- Generator: Adobe Illustrator 19.1.0, SVG Export Plug-In . SVG Version: 6.00 Build 0)  -->
<svg version="1.1" id="Layer_1" xmlns="http://www.w3.org/2000/svg" xmlns:xlink="http://www.w3.org/1999/xlink" x="0px" y="0px"
	 width="60px" height="60px" viewBox="-275 367 60 60" style="enable-background:new -275 367 60 60;" xml:space="preserve">
<path d="M-248.3,400.103c-2.3,0-4.4-0.7-5.9-1.5l-1,3.3c1.4,0.8,3.7,1.5,6.1,1.5v3.4h3.1v-3.6c4.2-0.6,6.4-3.2,6.4-6.2
	c0-3.1-1.9-5-6.1-6.5c-3.2-1.2-4.6-2-4.6-3.4c0-1.2,0.9-2.4,3.6-2.4c2.6,0,4.2,0.8,5.1,1.2l1-3.2c-1.2-0.6-2.8-1.1-5.2-1.2v-3.2
	h-3.1v3.3c-3.8,0.6-6.1,2.9-6.1,5.9c0,3.2,2.6,4.9,6.5,6.2c2.8,0.9,4.1,2,4.1,3.5C-244.3,399.003-246,400.103-248.3,400.103z"/>
<path d="M-218.3,382.003l-2.9,4.8c-1.6-6.9-6-12.8-12.2-16.4c-6.1-3.5-12.8-4.3-19.5-2.4l0.5,1.6c6.2-1.7,12.5-1,18.2,2.3
	c5.9,3.4,10,9,11.5,15.6l-4.9-3.4l-0.8,1.2l7,4.9l4.4-7.4L-218.3,382.003z"/>
<path d="M-272.5,375.103l5.6,0.1c-5.2,4.8-8.1,11.6-8.1,18.8c0,7,2.6,13.3,7.7,18.1l1.2-1.2c-4.7-4.5-7.1-10.3-7.1-16.9
	c0-6.8,2.8-13.2,7.8-17.7l-0.5,6l1.4,0.1l0.7-8.5l-8.7-0.3V375.103z"/>
<path d="M-234.8,416.803c-5.9,3.4-12.8,4.2-19.2,2.1l5.4-2.5l-0.6-1.3l-7.7,3.6l4.2,7.5l1.2-0.7l-2.7-4.9c2.4,0.7,4.9,1.1,7.4,1.1
	c4.5,0,8.9-1.2,12.9-3.5c6.1-3.5,10.2-8.9,11.8-15.7l-1.6-0.4C-225.3,408.503-229.1,413.503-234.8,416.803z"/>
</svg>
