<?xml version="1.0" encoding="utf-8"?>
<!-- Generator: Adobe Illustrator 19.1.0, SVG Export Plug-In . SVG Version: 6.00 Build 0)  -->
<svg version="1.1" id="Layer_1" xmlns="http://www.w3.org/2000/svg" xmlns:xlink="http://www.w3.org/1999/xlink" x="0px" y="0px"
	 width="70px" height="70px" viewBox="-270 362 70 70" style="enable-background:new -270 362 70 70;" xml:space="preserve">
<circle style="fill:#EBEDEF;" cx="-235" cy="397" r="35"/>
<path style="fill:#737F89;" d="M-235,414.5c-0.2,0-0.3-0.1-0.5-0.3l-10.6-15.8c-1.2-2-1.9-4.2-1.9-6.5c0-6.9,5.8-12.5,13-12.5
	s12.9,5.6,12.9,12.5c0,2.3-0.6,4.6-1.9,6.4l-10.5,15.7C-234.7,414.4-234.8,414.5-235,414.5L-235,414.5z M-235,380.8
	c-6.5,0-11.7,5-11.7,11.2c0,2,0.6,4,1.8,5.8l9.9,15l10.2-15c1.1-1.8,1.6-3.7,1.6-5.7C-223.3,385.8-228.5,380.8-235,380.8z"/>
<path style="fill:#737F89;" d="M-235,397.2c-3.2,0-5.5-2.5-5.5-5.2s2.4-5.2,5.5-5.2c3.2,0,5.5,2.5,5.5,5.2S-231.8,397.2-235,397.2z
	 M-235,387.8c-2.3,0-4.2,1.8-4.2,4c0,2.2,1.9,4.1,4.2,4.1s4.2-1.8,4.2-4C-230.8,389.7-232.7,387.8-235,387.8z"/>
</svg>
