<?xml version="1.0" encoding="utf-8"?>
<!-- Generator: Adobe Illustrator 19.2.1, SVG Export Plug-In . SVG Version: 6.00 Build 0)  -->
<svg version="1.1" id="Layer_1" xmlns="http://www.w3.org/2000/svg" xmlns:xlink="http://www.w3.org/1999/xlink" x="0px" y="0px"
	 width="32px" height="32px" viewBox="0 0 32 32" style="enable-background:new 0 0 32 32;" xml:space="preserve">
<g>
	<path d="M24.365,29.345H7.636C6.734,29.345,6,28.611,6,27.71V4.29c0-0.902,0.734-1.635,1.636-1.635h16.729
		C25.267,2.655,26,3.388,26,4.29V27.71C26,28.611,25.266,29.345,24.365,29.345z M7.636,4.253L7.598,27.71l16.767,0.037l0.037-0.037
		V4.29L7.636,4.253z"/>
</g>
<g>
	<path d="M11.609,26.418c-0.786,0-1.427-0.64-1.427-1.427c0-0.786,0.64-1.427,1.427-1.427s1.427,0.64,1.427,1.427
		C13.035,25.778,12.395,26.418,11.609,26.418z M11.609,24.819c-0.095,0-0.171,0.077-0.171,0.172c0,0.189,0.344,0.189,0.344,0
		C11.781,24.898,11.703,24.819,11.609,24.819z"/>
</g>
<g>
	<path d="M16,26.418c-0.786,0-1.427-0.64-1.427-1.427c0-0.786,0.64-1.427,1.427-1.427s1.427,0.64,1.427,1.427
		C17.427,25.778,16.786,26.418,16,26.418z M16,24.819c-0.095,0-0.171,0.077-0.171,0.172c0,0.189,0.343,0.189,0.343,0
		C16.171,24.898,16.095,24.819,16,24.819z"/>
</g>
<g>
	<path d="M20.391,26.418c-0.786,0-1.427-0.64-1.427-1.427c0-0.786,0.64-1.427,1.427-1.427c0.786,0,1.427,0.64,1.427,1.427
		C21.818,25.778,21.178,26.418,20.391,26.418z M20.391,24.819c-0.095,0-0.172,0.077-0.172,0.172c0,0.189,0.344,0.189,0.344,0
		C20.564,24.898,20.486,24.819,20.391,24.819z"/>
</g>
<g>
	<path d="M11.609,21.816c-0.786,0-1.427-0.64-1.427-1.427c0-0.786,0.64-1.427,1.427-1.427s1.427,0.64,1.427,1.427
		C13.035,21.176,12.395,21.816,11.609,21.816z M11.609,20.217c-0.095,0-0.171,0.077-0.171,0.172c0,0.189,0.344,0.189,0.344,0
		C11.781,20.295,11.703,20.217,11.609,20.217z"/>
</g>
<g>
	<path d="M16,21.816c-0.786,0-1.427-0.64-1.427-1.427c0-0.786,0.64-1.426,1.427-1.426c0.786,0,1.427,0.64,1.427,1.427
		C17.427,21.177,16.786,21.816,16,21.816z M16,20.217c-0.095,0-0.171,0.077-0.171,0.172c0,0.189,0.343,0.189,0.343,0
		C16.171,20.295,16.095,20.217,16,20.217z"/>
</g>
<g>
	<path d="M20.391,21.816c-0.786,0-1.427-0.64-1.427-1.427c0-0.786,0.64-1.427,1.427-1.427c0.786,0,1.427,0.64,1.427,1.427
		C21.818,21.176,21.178,21.816,20.391,21.816z M20.391,20.217c-0.095,0-0.172,0.077-0.172,0.172c0,0.189,0.344,0.189,0.344,0
		C20.564,20.295,20.486,20.217,20.391,20.217z"/>
</g>
<g>
	<path d="M11.609,17.214c-0.786,0-1.427-0.639-1.427-1.426s0.64-1.427,1.427-1.427s1.427,0.64,1.427,1.427
		C13.035,16.574,12.395,17.214,11.609,17.214z M11.609,15.615c-0.095,0-0.171,0.077-0.171,0.172c0,0.189,0.344,0.189,0.344,0
		C11.781,15.693,11.703,15.615,11.609,15.615z"/>
</g>
<g>
	<path d="M16,17.214c-0.786,0-1.427-0.639-1.427-1.426s0.64-1.427,1.427-1.427s1.427,0.64,1.427,1.427
		C17.427,16.574,16.786,17.214,16,17.214z M16,15.615c-0.095,0-0.171,0.077-0.171,0.172c0,0.189,0.343,0.189,0.343,0
		C16.171,15.693,16.095,15.615,16,15.615z"/>
</g>
<g>
	<path d="M20.391,17.214c-0.786,0-1.427-0.639-1.427-1.426s0.64-1.427,1.427-1.427c0.786,0,1.427,0.64,1.427,1.427
		C21.818,16.574,21.178,17.214,20.391,17.214z M20.391,15.615c-0.095,0-0.172,0.077-0.172,0.172c0,0.189,0.344,0.189,0.344,0
		C20.564,15.693,20.486,15.615,20.391,15.615z"/>
</g>
<g>
	<path d="M23.491,12.617H8.508V5.163h14.983L23.491,12.617L23.491,12.617z M10.107,11.019h11.786V6.761H10.107V11.019z"/>
</g>
<g>
	<rect x="19.383" y="7.635" width="1.598" height="1.674"/>
</g>
</svg>
