<?xml version="1.0" standalone="no"?>
<!DOCTYPE svg PUBLIC "-//W3C//DTD SVG 1.1//EN" "http://www.w3.org/Graphics/SVG/1.1/DTD/svg11.dtd" >
<svg xmlns="http://www.w3.org/2000/svg">
<metadata>
This is a custom SVG webfont generated by Font Squirrel.
Foundry     : [c] Luc(as) de Groot, published by LucasFonts
</metadata>
<defs>
<font id="webfont" horiz-adv-x="550" >
<font-face units-per-em="1000" ascent="800" descent="-200" />
<missing-glyph horiz-adv-x="270" />
<glyph unicode=" "  horiz-adv-x="270" />
<glyph unicode="&#x09;" horiz-adv-x="270" />
<glyph unicode="&#xa0;" horiz-adv-x="270" />
<glyph unicode="!" horiz-adv-x="360" d="M312 750l-23 -501h-178l-23 501h224zM312 100q0 -48 -32 -80t-80 -32t-80 32t-32 80t32 80t80 32t80 -32t32 -80z" />
<glyph unicode="&#x22;" d="M450 750l-15 -277h-143l-15 277h173zM223 750l-15 -277h-143l-15 277h173z" />
<glyph unicode="#" d="M534 394h-67l-9 -80h56v-130h-70l-21 -184h-150l21 184h-74l-21 -184h-150l21 184h-54v130h68l9 80h-57v130h72l19 174h150l-19 -174h74l19 174h150l-19 -174h52v-130zM317 394h-74l-9 -80h74z" />
<glyph unicode="$" d="M514 230q0 -172 -167 -222v-124h-151v110q-88 3 -174 32l32 159q74 -28 170 -28q76 0 76 45q0 16 -15 26t-38.5 15.5t-52 11.5t-57.5 18t-52.5 30t-38.5 52.5t-15 81.5q0 84 45 137t120 70v111h151v-107q52 -5 127 -32l-38 -143q-64 24 -138 24q-31 0 -42 -9.5t-11 -29.5 q0 -15 20 -24.5t50 -14.5t64.5 -17t64.5 -29.5t50 -54t20 -88.5z" />
<glyph unicode="%" horiz-adv-x="800" d="M777 161q0 -179 -182 -179q-172 0 -172 179q0 89 48.5 134t132.5 45q87 0 130 -42.5t43 -136.5zM720 651l-532 -677l-106 76l532 677zM376 537q0 -179 -182 -179q-172 0 -172 179q0 89 48.5 134t132.5 45q87 0 130 -42.5t43 -136.5zM635 161q0 44 -7 58.5t-25 14.5 q-20 0 -29 -15t-9 -58q0 -42 8 -57.5t24 -15.5q20 0 29 15.5t9 57.5zM234 537q0 44 -7 58.5t-25 14.5q-20 0 -29 -15t-9 -58q0 -42 8 -57.5t24 -15.5q20 0 29 15.5t9 57.5z" />
<glyph unicode="&#x26;" horiz-adv-x="759" d="M744 124l-102 -150q-63 44 -101 73q-93 -65 -222 -65q-277 0 -277 216q0 109 108 183q-31 41 -46 75t-15 77q0 86 58 134.5t164 48.5q38 0 73 -8t67.5 -25.5t52 -51t19.5 -79.5q0 -63 -31 -104t-90 -79q49 -40 111 -84q12 45 12 104h171q-3 -111 -44 -203zM350 542 q0 42 -45 42q-20 0 -32 -13t-12 -31q0 -30 36 -73q53 36 53 75zM407 146q-61 45 -152 125q-21 -25 -21 -53q0 -41 26 -64t78 -23q37 0 69 15z" />
<glyph unicode="'" horiz-adv-x="280" d="M230 750l-15 -277h-150l-15 277h180z" />
<glyph unicode="(" horiz-adv-x="358" d="M323 -147l-163 -61q-125 239 -125 499t125 499l163 -61q-77 -211 -77 -438t77 -438z" />
<glyph unicode=")" horiz-adv-x="358" d="M323 291q0 -260 -125 -499l-163 61q77 211 77 438t-77 438l163 61q125 -239 125 -499z" />
<glyph unicode="*" d="M503 501l-77 -134l-107 93l29 -136h-156l32 134l-110 -91l-77 134l132 47l-132 43l77 134l110 -93l-32 136h156l-32 -134l110 91l77 -134l-132 -44z" />
<glyph unicode="+" d="M530 235h-173v-186h-164v186h-173v149h173v185h164v-185h173v-149z" />
<glyph unicode="," horiz-adv-x="300" d="M149 212q70 0 101 -63q35 -73 -7 -168q-43 -95 -150 -165l-79 76q72 64 72 92q0 12 -11 26.5t-22 38t-11 56.5q0 47 30.5 77t76.5 30z" />
<glyph unicode="-" horiz-adv-x="317" d="M308 184h-273v170h273v-170z" />
<glyph unicode="&#xad;" horiz-adv-x="317" d="M308 184h-273v170h273v-170z" />
<glyph unicode="." horiz-adv-x="300" d="M262 100q0 -48 -32 -80t-80 -32t-80 32t-32 80t32 80t80 32t80 -32t32 -80z" />
<glyph unicode="/" d="M521 766l-325 -951l-188 57l325 951z" />
<glyph unicode=":" horiz-adv-x="320" d="M282 419q0 -48 -32 -80t-80 -32t-80 32t-32 80t32 80t80 32t80 -32t32 -80zM282 100q0 -48 -32 -80t-80 -32t-80 32t-32 80t32 80t80 32t80 -32t32 -80z" />
<glyph unicode=";" horiz-adv-x="320" d="M282 419q0 -48 -32 -80t-80 -32t-80 32t-32 80t32 80t80 32t80 -32t32 -80zM169 212q70 0 101 -63q35 -73 -7 -168q-43 -95 -150 -165l-79 76q72 64 72 92q0 12 -11 26.5t-22 38t-11 56.5q0 47 30.5 77t76.5 30z" />
<glyph unicode="&#x3c;" d="M481 20l-439 213v158l439 213v-178l-265 -112l265 -112v-182z" />
<glyph unicode="=" d="M506 353h-462v147h462v-147zM506 122h-462v147h462v-147z" />
<glyph unicode="&#x3e;" d="M508 233l-439 -213v178l265 112l-265 112v182l439 -213v-158z" />
<glyph unicode="?" horiz-adv-x="480" d="M455 587q0 -44 -12.5 -78.5t-30.5 -54.5l-39 -41.5l-38.5 -40.5t-27.5 -51t-7 -72h-182q-12 66 -5 103t27.5 64.5t42.5 43t39 38.5t17 50q0 56 -89 56q-49 0 -100 -7v147q62 20 144 20q261 0 261 -177zM326 100q0 -48 -32 -80t-80 -32t-80 32t-32 80t32 80t80 32t80 -32 t32 -80z" />
<glyph unicode="@" horiz-adv-x="884" d="M808 -91q-138 -64 -295 -64q-214 0 -338 119t-124 319q0 205 133.5 324t339.5 119q89 0 150 -19t91 -53.5t42 -71t12 -82.5v-361h-155l-17 65q-47 -80 -156 -80q-75 0 -126.5 45t-51.5 113q0 107 69 149.5t229 42.5h8v24q0 45 -22.5 63.5t-86.5 18.5q-128 0 -207.5 -78 t-79.5 -210q0 -135 82.5 -217t226.5 -82q116 0 238 54zM619 313v44h-14q-54 0 -75.5 -11t-21.5 -42q0 -39 41 -39t70 48z" />
<glyph unicode="A" horiz-adv-x="728" d="M728 0h-246l-28 121h-212l-31 -121h-211q98 348 225 698h276q146 -405 227 -698zM413 284q-41 153 -60 213h-1q-35 -107 -65 -213h126z" />
<glyph unicode="B" horiz-adv-x="648" d="M626 224q0 -64 -27 -109.5t-75.5 -69.5t-103 -34.5t-120.5 -10.5h-250v698h260q134 0 206.5 -41.5t72.5 -137.5q0 -51 -28 -87t-75 -49q64 -10 102 -51t38 -108zM374 488q0 55 -71 55h-40v-111h44q32 0 49.5 15.5t17.5 40.5zM400 219q0 63 -89 63h-48v-123h58q79 0 79 60 z" />
<glyph unicode="C" horiz-adv-x="575" d="M565 22q-34 -17 -85.5 -28.5t-94.5 -11.5q-358 0 -358 355q0 184 95.5 281.5t255.5 97.5q105 0 185 -41l-61 -166q-51 27 -109 27q-65 0 -99.5 -52t-34.5 -133q0 -188 148 -188q54 0 106 25z" />
<glyph unicode="D" horiz-adv-x="722" d="M698 358q0 -182 -104 -270t-283 -88h-261v698h277q371 0 371 -340zM473 347q0 187 -161 187h-44v-368h45q78 0 119 48.5t41 132.5z" />
<glyph unicode="E" horiz-adv-x="551" d="M511 0h-461v698h458v-164h-240v-95h202v-161h-202v-114h243v-164z" />
<glyph unicode="F" horiz-adv-x="506" d="M471 534h-201v-105h176v-162h-176v-267h-220v698h421v-164z" />
<glyph unicode="G" horiz-adv-x="715" d="M668 658l-60 -160q-94 44 -184 44q-78 0 -128 -50.5t-50 -140.5q0 -95 44 -143t124 -48q19 0 32 5v231h219v-373q-113 -41 -263 -41q-179 0 -278.5 91.5t-99.5 266.5q0 179 104.5 277.5t286.5 98.5q137 0 253 -58z" />
<glyph unicode="H" horiz-adv-x="724" d="M674 0h-219v264h-186v-264h-219v698h219v-249h186v249h219v-698z" />
<glyph unicode="I" horiz-adv-x="320" d="M270 0h-220v698h220v-698z" />
<glyph unicode="J" horiz-adv-x="387" d="M337 218q0 -118 -49.5 -177t-165.5 -59q-55 0 -114 14v175h57q22 0 37 11.5t15 34.5v481h220v-480z" />
<glyph unicode="K" horiz-adv-x="683" d="M686 0h-255l-116 285l-46 -62v-223h-219v698h219v-234l149 234h256l-200 -258z" />
<glyph unicode="L" horiz-adv-x="472" d="M461 0h-411v698h220v-527h191v-171z" />
<glyph unicode="M" horiz-adv-x="990" d="M947 0h-219q0 289 -10 485h-1l-132 -485h-206l-127 485h-1q-13 -254 -13 -485h-195q0 312 33 698h318l100 -385l105 385h318q30 -370 30 -698z" />
<glyph unicode="N" horiz-adv-x="751" d="M701 0h-279l-182 393h-2v-393h-188v698h279l182 -393h2v393h188v-698z" />
<glyph unicode="O" horiz-adv-x="772" d="M745 356q0 -184 -91.5 -279t-270.5 -95t-267.5 82.5t-88.5 284.5q0 174 94 270.5t268 96.5t265 -84t91 -276zM516 347q0 99 -29 146.5t-102 47.5t-101 -49t-28 -134q0 -107 29 -154t102 -47q72 0 100.5 49.5t28.5 140.5z" />
<glyph unicode="P" horiz-adv-x="616" d="M605 474q0 -268 -311 -268h-25v-206h-219v698h253q60 0 105 -8q197 -32 197 -216zM376 459q0 56 -37 71q-18 7 -49 7h-21v-169h32q75 0 75 91z" />
<glyph unicode="Q" horiz-adv-x="780" d="M782 11l-109 -105l-113 107q-72 -31 -177 -31q-179 0 -267.5 82.5t-88.5 284.5q0 174 94 270.5t268 96.5t265 -84t91 -276q0 -154 -65 -248zM516 347q0 99 -29 146.5t-102 47.5t-101 -49t-28 -134q0 -107 29 -154t102 -47q14 0 20 1l-66 63l109 105l60 -57q6 34 6 78z " />
<glyph unicode="R" horiz-adv-x="657" d="M657 0h-249l-105 245h-34v-245h-219v698h304q121 0 195 -47.5t74 -152.5q0 -148 -113 -192zM394 477q0 60 -62 60h-63v-136h36q43 0 66 20t23 56z" />
<glyph unicode="S" horiz-adv-x="568" d="M545 237q0 -130 -86 -192.5t-222 -62.5q-94 0 -204 30l20 171q79 -29 161 -29q59 0 80.5 11.5t21.5 37.5q0 24 -19.5 36.5t-86.5 33.5q-90 28 -134.5 77t-44.5 137q0 112 80 170.5t200 58.5q107 0 194 -32l-28 -163q-77 30 -155 30q-60 0 -60 -36q0 -24 15.5 -35.5 t57.5 -24.5q31 -9 42.5 -13t39.5 -15.5t41 -20.5t33 -26.5t29.5 -36t17 -46t7.5 -60.5z" />
<glyph unicode="T" horiz-adv-x="560" d="M552 524h-162v-524h-220v524h-162v174h544v-174z" />
<glyph unicode="U" horiz-adv-x="740" d="M690 263q0 -132 -81 -206.5t-241 -74.5q-318 0 -318 277v439h219v-425q0 -58 29 -87t76 -29q46 0 73 29.5t27 74.5v437h216v-435z" />
<glyph unicode="V" horiz-adv-x="706" d="M706 698q-73 -294 -211 -698h-287q-124 369 -207 698h245q44 -219 120 -480h1q90 305 121 480h218z" />
<glyph unicode="W" horiz-adv-x="1039" d="M1016 698q-33 -324 -116 -698h-298l-82 392h-1l-82 -392h-302q-79 350 -111 698h237q11 -244 48 -475h1l101 475h238l101 -475h1q49 273 55 475h210z" />
<glyph unicode="X" horiz-adv-x="684" d="M683 0h-262l-82 209l-79 -209h-260l182 364l-161 334h256l69 -181l65 181h251l-159 -333z" />
<glyph unicode="Y" horiz-adv-x="626" d="M626 698q-75 -244 -202 -444v-254h-220v254q-122 204 -204 444h247q33 -141 76 -244q48 105 77 244h226z" />
<glyph unicode="Z" horiz-adv-x="544" d="M515 0h-494v161l232 369h-217v168h470v-160l-225 -371h234v-167z" />
<glyph unicode="[" horiz-adv-x="390" d="M340 -196h-285v974h285v-147h-90v-680h90v-147z" />
<glyph unicode="\" d="M542 -128l-188 -57l-325 951l188 57z" />
<glyph unicode="]" horiz-adv-x="390" d="M335 -196h-285v147h90v680h-90v147h285v-974z" />
<glyph unicode="^" d="M540 359h-200l-65 186l-65 -186h-200l143 339h244z" />
<glyph unicode="_" d="M550 -221h-550v146h550v-146z" />
<glyph unicode="`" horiz-adv-x="350" d="M279 623l-97 -56l-182 152l142 80z" />
<glyph unicode="a" horiz-adv-x="581" d="M535 0h-157l-13 43q-58 -61 -158 -61q-82 0 -134.5 43.5t-52.5 127.5q0 98 72.5 141t230.5 43h8v14q0 24 -16 34t-63 10q-76 0 -156 -31l-32 140q96 38 211 38q136 0 198 -42t62 -152v-348zM331 161v54h-14q-55 0 -76.5 -11t-21.5 -39q0 -17 12.5 -28t35.5 -11 q38 0 64 35z" />
<glyph unicode="b" horiz-adv-x="622" d="M599 288q0 -303 -311 -303q-100 0 -242 43v722h208v-246q51 38 120 38q110 0 167.5 -70.5t57.5 -183.5zM382 258q0 65 -12.5 90.5t-42.5 25.5q-37 0 -73 -39v-168q19 -17 47 -17q81 0 81 108z" />
<glyph unicode="c" horiz-adv-x="444" d="M436 21q-81 -37 -163 -37q-121 0 -185.5 69.5t-64.5 196.5q0 142 73 216t201 74q77 0 133 -26l-41 -154q-34 15 -71 15q-81 0 -81 -109q0 -55 19.5 -83t64.5 -28q43 0 80 18z" />
<glyph unicode="d" horiz-adv-x="622" d="M576 0h-157l-13 46q-64 -64 -152 -64q-114 0 -172.5 70t-58.5 185q0 138 71 220t210 82q34 0 64 -7v218h208v-750zM368 189v165q-14 20 -52 20q-76 0 -76 -108q0 -65 13 -90.5t46 -25.5t69 39z" />
<glyph unicode="e" horiz-adv-x="582" d="M552 281q0 -37 -3 -78h-315q0 -63 99 -63q97 0 183 20l16 -147q-112 -31 -228 -31q-143 0 -212 65t-69 205t72 215t208 75q132 0 190.5 -62t58.5 -199zM350 325q2 39 -10.5 59t-46.5 20q-56 0 -59 -79h116z" />
<glyph unicode="f" horiz-adv-x="369" d="M369 610h-46q-18 0 -28.5 -11t-10.5 -31v-44h75v-156h-75v-368h-208v368h-66v156h66v36q0 204 186 204q56 0 107 -11v-143z" />
<glyph unicode="g" horiz-adv-x="622" d="M576 28q0 -123 -78.5 -181.5t-213.5 -58.5q-106 0 -186 18l6 155q79 -17 171 -17q93 0 93 43v43q-47 -32 -110 -32q-117 0 -176 70t-59 182q0 138 78.5 215t233.5 77q105 0 241 -43v-471zM368 187v177q-11 16 -47 16q-37 0 -59 -27t-22 -77q0 -62 14 -87t53 -25 q38 0 61 23z" />
<glyph unicode="h" horiz-adv-x="619" d="M577 0h-208v291q0 45 -10.5 64t-35.5 19q-32 0 -69 -39v-335h-208v750h208v-254q59 46 136 46q89 0 138 -51.5t49 -154.5v-336z" />
<glyph unicode="i" horiz-adv-x="330" d="M295 661q0 -51 -31.5 -81t-83.5 -30t-83.5 30t-31.5 81t31.5 81t83.5 30t83.5 -30t31.5 -81zM284 0h-208v368h-66v156h274v-524z" />
<glyph unicode="j" horiz-adv-x="311" d="M277 661q0 -51 -31.5 -81t-83.5 -30t-83.5 30t-31.5 81t31.5 81t83.5 30t83.5 -30t31.5 -81zM265 8q0 -102 -48.5 -162t-150.5 -60q-47 0 -90 8l6 162h25q25 0 37.5 10t12.5 37v521h208v-516z" />
<glyph unicode="k" horiz-adv-x="593" d="M594 0h-238l-61 216l-41 -49v-167h-208v750h208v-371l91 145h242l-139 -165z" />
<glyph unicode="l" horiz-adv-x="320" d="M313 0q-61 -18 -120 -18q-71 0 -109 33.5t-38 116.5v618h208v-563q0 -24 7.5 -33t27.5 -9h24v-145z" />
<glyph unicode="m" horiz-adv-x="938" d="M896 0h-208v291q0 45 -10 64t-35 19q-20 0 -33.5 -8.5t-34.5 -30.5v-335h-208v291q0 45 -10 64t-35 19q-20 0 -33.5 -8.5t-34.5 -30.5v-335h-208v524h157l13 -46q37 34 74 49t90 15q111 0 157 -64q37 34 74 49t90 15q195 0 195 -206v-336z" />
<glyph unicode="n" horiz-adv-x="619" d="M577 0h-208v291q0 45 -10.5 64t-35.5 19q-32 0 -69 -39v-335h-208v524h157l13 -46q37 34 74.5 49t90.5 15q196 0 196 -206v-336z" />
<glyph unicode="o" horiz-adv-x="620" d="M597 266q0 -136 -74.5 -210t-217.5 -74q-282 0 -282 267q0 141 74.5 217t217.5 76t212.5 -71t69.5 -205zM383 257q0 72 -18 98t-58 26q-70 0 -70 -117q0 -71 18 -96.5t58 -25.5q70 0 70 115z" />
<glyph unicode="p" horiz-adv-x="622" d="M599 287q0 -138 -71 -220t-210 -82q-34 0 -64 7v-188h-208v720h157l13 -46q64 64 152 64q114 0 172.5 -70t58.5 -185zM382 258q0 65 -13 90.5t-46 25.5t-69 -39v-165q14 -20 52 -20q76 0 76 108z" />
<glyph unicode="q" horiz-adv-x="622" d="M576 -196h-208v216q-51 -38 -120 -38q-110 0 -167.5 70.5t-57.5 183.5q0 303 311 303q100 0 242 -43v-692zM368 189v168q-19 17 -47 17q-81 0 -81 -108q0 -65 12.5 -90.5t42.5 -25.5q37 0 73 39z" />
<glyph unicode="r" horiz-adv-x="400" d="M396 538l-17 -199q-18 6 -51 6q-40 0 -74 -53v-292h-208v524h161l18 -65q30 46 55.5 64.5t67.5 18.5q34 0 48 -4z" />
<glyph unicode="s" horiz-adv-x="454" d="M437 175q0 -86 -62.5 -139.5t-173.5 -53.5q-88 0 -178 18l27 157q71 -22 127 -22q42 0 42 20q0 13 -12 21.5t-44 17.5q-75 20 -109 56.5t-34 108.5q0 84 61 133.5t171 49.5q67 0 157 -16l-22 -152q-67 19 -114 19q-40 0 -40 -19q0 -10 11 -16t45 -16q86 -24 117 -62 t31 -105z" />
<glyph unicode="t" horiz-adv-x="400" d="M371 0q-47 -18 -142 -18q-157 0 -157 164v222h-62v156h62l49 149h159v-149h91v-156h-91v-136q0 -51 9.5 -69t44.5 -18h37v-145z" />
<glyph unicode="u" horiz-adv-x="619" d="M573 0h-157l-13 46q-37 -34 -74.5 -49t-90.5 -15q-196 0 -196 206v336h208v-291q0 -45 10.5 -64t35.5 -19q32 0 69 39v335h208v-524z" />
<glyph unicode="v" horiz-adv-x="548" d="M548 524q-63 -299 -146 -524h-255q-97 249 -147 524h215q26 -169 71 -320h1q37 140 58 320h203z" />
<glyph unicode="w" horiz-adv-x="861" d="M857 524q-41 -248 -135 -524h-241l-54 257h-1l-49 -257h-241q-97 308 -132 524h213q22 -165 54 -314h1l60 314h209l66 -314h1q33 152 48 314h201z" />
<glyph unicode="x" horiz-adv-x="572" d="M572 0h-239l-46 148l-51 -148h-236l121 272l-112 252h235l45 -136l46 136h220l-100 -247z" />
<glyph unicode="y" horiz-adv-x="547" d="M545 524q-68 -354 -151 -523q-60 -121 -129.5 -167t-158.5 -46q-47 0 -85 16l3 151h72q25 0 38 10t27 35q-103 217 -161 524h215q27 -173 71 -320h1q40 146 56 320h202z" />
<glyph unicode="z" horiz-adv-x="479" d="M454 0h-428v150l163 211h-152v163h406v-153l-159 -208h170v-163z" />
<glyph unicode="{" horiz-adv-x="430" d="M380 -192q-40 -16 -92 -16q-101 0 -144 60t-43 181v86q0 47 -24.5 73t-66.5 30v160q42 4 66.5 30t24.5 73v64q0 121 43 181t144 60q52 0 92 -16v-143h-32q-31 0 -41.5 -16t-10.5 -62v-70q0 -145 -136 -181q68 -17 102 -64.5t34 -116.5v-92q0 -46 10.5 -62t41.5 -16h32 v-143z" />
<glyph unicode="|" d="M373 -196h-196v974h196v-974z" />
<glyph unicode="}" horiz-adv-x="430" d="M420 222q-42 -4 -66.5 -30t-24.5 -73v-86q0 -121 -43 -181t-144 -60q-52 0 -92 16v143h32q31 0 41.5 16t10.5 62v92q0 69 34 116.5t102 64.5q-136 36 -136 181v70q0 46 -10.5 62t-41.5 16h-32v143q40 16 92 16q101 0 144 -60t43 -181v-64q0 -47 24.5 -73t66.5 -30v-160z " />
<glyph unicode="~" d="M525 606q0 -100 -44.5 -151t-113.5 -51q-71 0 -111 33q-12 10 -22 20.5t-14.5 16t-10 9t-12.5 3.5q-13 0 -18.5 -15t-6.5 -53h-145v38q0 100 44.5 151t113.5 51q71 0 111 -33q12 -10 22 -20.5t14.5 -16t10 -9t12.5 -3.5q13 0 18.5 15t6.5 53h145v-38z" />
<glyph unicode="&#xa1;" horiz-adv-x="360" d="M272 492q0 -48 -32 -80t-80 -32t-80 32t-32 80t32 80t80 32t80 -32t32 -80zM272 -158h-224l23 501h178z" />
<glyph unicode="&#xa2;" d="M518 134q-56 -33 -110 -45v-89h-149v89q-89 16 -142.5 78t-53.5 175q0 107 53.5 175t142.5 89v92h149v-85q61 -13 95 -29l-43 -156q-43 23 -92 23q-36 0 -65.5 -24.5t-29.5 -73.5q0 -48 25 -76t69 -28q62 0 108 36z" />
<glyph unicode="&#xa3;" d="M517 0h-481v140q31 25 49.5 46t26 39.5t9 29t1.5 28.5h-87v146h52q-10 42 -10 82q0 87 64 146t198 59q111 0 153 -13v-154q-49 17 -125 17q-45 0 -62.5 -14.5t-17.5 -44.5q0 -25 15 -78h138v-146h-108q0 -68 -47 -115h232v-168z" />
<glyph unicode="&#xa4;" d="M542 54l-165 -72l-46 106q-12 -7 -61 -7q-47 0 -52 5l-45 -104l-165 72l67 103q-40 57 -40 143q0 101 45 157l-72 110l165 71l46 -104q12 7 63 7q7 0 14 -0.5l13.5 -1t12 -1t8 -1t2.5 -1.5l45 102l165 -70l-68 -106q41 -56 41 -152q0 -90 -44 -148zM332 307q0 91 -60 91 q-27 0 -40.5 -24t-13.5 -61q0 -52 16 -70.5t44 -18.5q54 0 54 83z" />
<glyph unicode="&#xa5;" d="M539 698q-57 -176 -159 -334v-2h115v-115h-115v-66h115v-115h-115v-66h-210v66h-115v115h115v66h-115v115h115v2q-102 178 -162 334h208q29 -91 66 -171q37 63 65 171h192z" />
<glyph unicode="&#xa6;" d="M373 396h-196v382h196v-382zM373 -196h-196v380h196v-380z" />
<glyph unicode="&#xa7;" horiz-adv-x="629" d="M593 202q0 -57 -28 -134.5t-66 -128.5q-57 -77 -122 -113t-154 -36q-39 0 -87 5l9 169q47 -12 93 -12q54 0 54 32q0 21 -26.5 43.5t-64 48t-75 59.5t-64 92t-26.5 132q0 57 30 135t70 130q109 141 255 141q50 0 88 -6l-6 -160q-42 9 -82 9q-32 0 -43.5 -7.5t-11.5 -24.5 q0 -18 26.5 -38t64 -45.5t75.5 -60.5t64.5 -94.5t26.5 -135.5zM423 167q0 44 -18 75.5t-46 52l-57 40t-55 50.5t-36 72q-6 -36 -6 -63q0 -34 13 -61t33.5 -44l45.5 -36l48.5 -36.5t43 -46.5t28.5 -64q6 34 6 61z" />
<glyph unicode="&#xa8;" horiz-adv-x="490" d="M423 673q0 -44 -26 -69.5t-70 -25.5t-70 25.5t-26 69.5t26 69.5t70 25.5t70 -25.5t26 -69.5zM192 673q0 -44 -26 -69.5t-70 -25.5t-70 25.5t-26 69.5t26 69.5t70 25.5t70 -25.5t26 -69.5z" />
<glyph unicode="&#xa9;" horiz-adv-x="808" d="M768 351q0 -153 -105.5 -261t-260.5 -108t-258.5 106t-103.5 259q0 154 105.5 261.5t260.5 107.5t258.5 -106t103.5 -259zM630 347q0 100 -65 168t-163 68t-161 -66t-63 -166t65 -168t163 -68t161 66t63 166zM525 183q-57 -25 -118 -25q-87 0 -133.5 47.5t-46.5 132.5 q0 96 52.5 146t144.5 50q56 0 96 -18l-29 -116q-22 8 -45 8q-50 0 -50 -60q0 -61 52 -61q29 0 49 10z" />
<glyph unicode="&#xaa;" horiz-adv-x="484" d="M431 330h-121l-13 47q-37 -57 -120 -57q-63 0 -100 29.5t-37 89.5q0 71 52.5 101t173.5 30h6v10q0 17 -10.5 24t-46.5 7q-55 0 -117 -22l-24 100q74 27 160 27q104 0 150.5 -31.5t46.5 -115.5v-239zM432 159h-372v134h372v-134zM272 454v29h-11q-41 0 -54.5 -7t-13.5 -28 q0 -28 30 -28q32 0 49 34z" />
<glyph unicode="&#xab;" horiz-adv-x="640" d="M557 90l-139 -48l-141 238l141 238l139 -48l-82 -190zM312 73l-144 -48l-151 255l151 255l144 -48l-92 -207z" />
<glyph unicode="&#xac;" d="M514 89h-157v166h-337v149h494v-315z" />
<glyph unicode="&#xae;" horiz-adv-x="579" d="M560 537q0 -114 -78 -193.5t-193 -79.5t-192 78t-77 192t78 193.5t193 79.5t192 -78.5t77 -191.5zM458 534q0 74 -48.5 124.5t-120.5 50.5q-73 0 -120 -49t-47 -123q0 -75 48 -125t121 -50t120 48.5t47 123.5zM407 582q0 -51 -30 -67l29 -99h-99l-14 70h-21v-70h-91v239 h124q102 0 102 -73zM316 575q0 19 -26 19h-18v-41h15q29 0 29 22z" />
<glyph unicode="&#xaf;" horiz-adv-x="350" d="M307 608h-307v130h307v-130z" />
<glyph unicode="&#xb0;" horiz-adv-x="384" d="M369 601q0 -71 -50 -118.5t-129 -47.5q-82 0 -128.5 45t-46.5 117q0 69 50 117.5t129 48.5q81 0 128 -45.5t47 -116.5zM237 597q0 21 -13 35.5t-33 14.5q-18 0 -30.5 -14t-12.5 -33q0 -20 12.5 -34.5t32.5 -14.5q19 0 31.5 13.5t12.5 32.5z" />
<glyph unicode="&#xb1;" d="M512 365h-158v-177h-158v177h-158v147h158v176h158v-176h158v-147zM500 0h-450v149h450v-149z" />
<glyph unicode="&#xb2;" horiz-adv-x="370" d="M350 374h-325v112l54 34q57 35 57 59q0 17 -29 17t-55 -12l-30 103q70 28 157 28q165 0 165 -100q0 -58 -79 -103l-16 -9h101v-129z" />
<glyph unicode="&#xb3;" horiz-adv-x="370" d="M332 472q0 -116 -160 -116q-68 0 -139 13v93q53 -4 82 -4q36 0 36 20q0 19 -37 19h-38v88h38q41 0 41 19q0 15 -27 15q-32 0 -76 -9l-24 90q70 15 145 15q153 0 153 -93q0 -30 -12 -46.5t-42 -28.5q60 -11 60 -75z" />
<glyph unicode="&#xb4;" horiz-adv-x="350" d="M279 719l-182 -152l-97 56l137 176z" />
<glyph unicode="&#xb5;" horiz-adv-x="667" d="M647 0q-61 -18 -101 -18q-110 0 -139 54q-65 -52 -133 -52q-7 0 -13 2v-196h-204v734h208v-291q0 -45 10.5 -64t35.5 -19q32 0 69 39v335h208v-337q0 -24 7.5 -33t27.5 -9h24v-145z" />
<glyph unicode="&#xb6;" horiz-adv-x="665" d="M602 -108h-141v672h-76v-672h-140v359q-102 -6 -164.5 54.5t-62.5 163.5t64.5 166t176.5 63h343v-806z" />
<glyph unicode="&#xb7;" horiz-adv-x="300" d="M262 312q0 -48 -32 -80t-80 -32t-80 32t-32 80t32 80t80 32t80 -32t32 -80z" />
<glyph unicode="&#xb8;" horiz-adv-x="350" d="M294 -118q0 -51 -36 -73.5t-90 -22.5q-68 0 -125 24v109h77q15 0 15 6q0 4 -5 16l-28 59h141l18 -28q33 -51 33 -90z" />
<glyph unicode="&#xb9;" horiz-adv-x="370" d="M352 375h-315v107h77v95l-59 -10l-23 93l147 38h106v-216h67v-107z" />
<glyph unicode="&#xba;" horiz-adv-x="502" d="M462 520q0 -95 -56 -147.5t-164 -52.5q-212 0 -212 188q0 100 56 154t164 54q107 0 159.5 -51t52.5 -145zM432 159h-372v134h372v-134zM299 514q0 49 -13.5 68.5t-41.5 19.5q-51 0 -51 -83q0 -48 13 -66.5t42 -18.5q51 0 51 80z" />
<glyph unicode="&#xbb;" horiz-adv-x="640" d="M623 280l-151 -255l-144 48l92 207l-92 207l144 48zM363 280l-141 -238l-139 48l82 190l-82 190l139 48z" />
<glyph unicode="&#xbc;" horiz-adv-x="845" d="M799 33h-37v-51h-153v51h-196v102l127 188h222v-186h37v-104zM720 651l-532 -677l-106 76l532 677zM299 375h-181v167l-55 -17l-41 118l139 67h138v-335zM609 137v97h-1l-66 -97h67z" />
<glyph unicode="&#xbd;" horiz-adv-x="862" d="M815 0h-325v112l54 34q57 35 57 59q0 17 -29 17t-55 -12l-30 103q70 28 157 28q165 0 165 -100q0 -58 -79 -103l-16 -9h101v-129zM720 651l-532 -677l-106 76l532 677zM299 375h-181v167l-55 -17l-41 118l139 67h138v-335z" />
<glyph unicode="&#xbe;" horiz-adv-x="847" d="M816 33h-37v-51h-153v51h-196v102l127 188h222v-186h37v-104zM730 651l-532 -677l-106 76l532 677zM340 473q0 -116 -160 -116q-68 0 -129 11v93q60 -2 72 -2q36 0 36 20q0 19 -37 19h-38v88h38q41 0 41 19q0 15 -27 15q-36 0 -63 -17l-24 90q57 23 141 23q144 0 144 -90 q0 -32 -12 -49t-42 -29q60 -12 60 -75zM626 137v97h-1l-66 -97h67z" />
<glyph unicode="&#xbf;" horiz-adv-x="480" d="M378 492q0 -48 -32 -80t-80 -32t-80 32t-32 80t32 80t80 32t80 -32t32 -80zM430 -152q-62 -20 -144 -20q-261 0 -261 177q0 44 12.5 78.5t30.5 54.5l39 41.5l38.5 40.5t27.5 51t7 72h182q12 -66 5 -103t-27.5 -64.5t-42.5 -43t-39 -38.5t-17 -50q0 -56 89 -56q49 0 100 7 v-147z" />
<glyph unicode="&#xc0;" horiz-adv-x="728" d="M728 0h-246l-28 121h-212l-31 -121h-211q98 348 225 698h276q146 -405 227 -698zM413 284q-41 153 -60 213h-1q-35 -107 -65 -213h126zM453 819l-42 -90l-234 46l57 125z" />
<glyph unicode="&#xc1;" horiz-adv-x="728" d="M728 0h-246l-28 121h-212l-31 -121h-211q98 348 225 698h276q146 -405 227 -698zM413 284q-41 153 -60 213h-1q-35 -107 -65 -213h126zM540 775l-234 -46l-42 90l219 81z" />
<glyph unicode="&#xc2;" horiz-adv-x="728" d="M728 0h-246l-28 121h-212l-31 -121h-211q98 348 225 698h276q146 -405 227 -698zM413 284q-41 153 -60 213h-1q-35 -107 -65 -213h126zM541 820l-36 -91l-142 45l-142 -45l-36 91l178 80z" />
<glyph unicode="&#xc3;" horiz-adv-x="728" d="M728 0h-246l-28 121h-212l-31 -121h-211q98 348 225 698h276q146 -405 227 -698zM413 284q-41 153 -60 213h-1q-35 -107 -65 -213h126zM571 854q-26 -114 -137 -114q-43 0 -87 19.5t-67 19.5q-28 0 -49 -41l-85 46q26 114 137 114q43 0 87 -19.5t67 -19.5q28 0 49 41z " />
<glyph unicode="&#xc4;" horiz-adv-x="728" d="M728 0h-246l-28 121h-212l-31 -121h-211q98 348 225 698h276q146 -405 227 -698zM413 284q-41 153 -60 213h-1q-35 -107 -65 -213h126zM561 814q0 -40 -23.5 -62.5t-63.5 -22.5t-63 22.5t-23 62.5t23 63t63 23t63.5 -23t23.5 -63zM338 814q0 -40 -23 -62.5t-64 -22.5 q-40 0 -63 22.5t-23 62.5t23 63t63 23t63.5 -23t23.5 -63z" />
<glyph unicode="&#xc5;" horiz-adv-x="728" d="M517 763q0 -39 -16 -65q146 -405 227 -698h-246l-28 121h-212l-31 -121h-211q98 348 225 698q-12 24 -12 58q0 62 39.5 94.5t113.5 32.5q151 0 151 -120zM413 284q-41 153 -60 213h-1q-35 -107 -65 -213h126zM402 759q0 29 -9.5 39.5t-30.5 10.5q-36 0 -36 -47 q0 -28 9 -38.5t30 -10.5q37 0 37 46z" />
<glyph unicode="&#xc6;" horiz-adv-x="893" d="M853 0h-461v121h-164l-41 -121h-211q125 350 280 698h594v-164h-240v-95h202v-161h-202v-114h243v-164zM392 284v258h-8l-99 -258h107z" />
<glyph unicode="&#xc7;" horiz-adv-x="575" d="M464 -118q0 -51 -36 -73.5t-90 -22.5q-68 0 -125 24v109h77q15 0 15 6q0 4 -5 16l-25 51q-248 50 -248 345q0 184 95.5 281.5t255.5 97.5q105 0 185 -41l-61 -166q-51 27 -109 27q-65 0 -99.5 -52t-34.5 -133q0 -188 148 -188q54 0 106 25l52 -166q-59 -30 -142 -38 l8 -12q33 -51 33 -90z" />
<glyph unicode="&#xc8;" horiz-adv-x="551" d="M511 0h-461v698h458v-164h-240v-95h202v-161h-202v-114h243v-164zM365 819l-42 -90l-234 46l57 125z" />
<glyph unicode="&#xc9;" horiz-adv-x="551" d="M511 0h-461v698h458v-164h-240v-95h202v-161h-202v-114h243v-164zM447 775l-234 -46l-42 90l219 81z" />
<glyph unicode="&#xca;" horiz-adv-x="551" d="M511 0h-461v698h458v-164h-240v-95h202v-161h-202v-114h243v-164zM455 820l-36 -91l-142 45l-142 -45l-36 91l178 80z" />
<glyph unicode="&#xcb;" horiz-adv-x="551" d="M511 0h-461v698h458v-164h-240v-95h202v-161h-202v-114h243v-164zM476 814q0 -40 -23.5 -62.5t-63.5 -22.5t-63 22.5t-23 62.5t23 63t63 23t63.5 -23t23.5 -63zM253 814q0 -40 -23 -62.5t-64 -22.5q-40 0 -63 22.5t-23 62.5t23 63t63 23t63.5 -23t23.5 -63z" />
<glyph unicode="&#xcc;" horiz-adv-x="320" d="M270 0h-220v698h220v-698zM276 819l-42 -90l-234 46l57 125z" />
<glyph unicode="&#xcd;" horiz-adv-x="320" d="M270 0h-220v698h220v-698zM300 775l-234 -46l-42 90l219 81z" />
<glyph unicode="&#xce;" horiz-adv-x="320" d="M270 0h-220v698h220v-698zM338 820l-36 -91l-142 45l-142 -45l-36 91l178 80z" />
<glyph unicode="&#xcf;" horiz-adv-x="320" d="M354 814q0 -40 -23.5 -62.5t-63.5 -22.5t-63 22.5t-23 62.5t23 63t63 23t63.5 -23t23.5 -63zM145 814q0 -40 -23 -62.5t-64 -22.5q-40 0 -63 22.5t-23 62.5t23 63t63 23t63.5 -23t23.5 -63zM270 0h-220v698h220v-698z" />
<glyph unicode="&#xd0;" horiz-adv-x="732" d="M708 358q0 -182 -104 -270t-283 -88h-261v271h-60v156h60v271h277q371 0 371 -340zM483 347q0 187 -161 187h-44v-107h100v-156h-100v-105h45q78 0 119 48.5t41 132.5z" />
<glyph unicode="&#xd1;" horiz-adv-x="751" d="M701 0h-279l-182 393h-2v-393h-188v698h279l182 -393h2v393h188v-698zM586 854q-26 -114 -137 -114q-43 0 -87 19.5t-67 19.5q-28 0 -49 -41l-85 46q26 114 137 114q43 0 87 -19.5t67 -19.5q28 0 49 41z" />
<glyph unicode="&#xd2;" horiz-adv-x="772" d="M745 356q0 -184 -91.5 -279t-270.5 -95t-267.5 82.5t-88.5 284.5q0 174 94 270.5t268 96.5t265 -84t91 -276zM516 347q0 99 -29 146.5t-102 47.5t-101 -49t-28 -134q0 -107 29 -154t102 -47q72 0 100.5 49.5t28.5 140.5zM466 819l-42 -90l-234 46l57 125z" />
<glyph unicode="&#xd3;" horiz-adv-x="772" d="M745 356q0 -184 -91.5 -279t-270.5 -95t-267.5 82.5t-88.5 284.5q0 174 94 270.5t268 96.5t265 -84t91 -276zM516 347q0 99 -29 146.5t-102 47.5t-101 -49t-28 -134q0 -107 29 -154t102 -47q72 0 100.5 49.5t28.5 140.5zM584 775l-234 -46l-42 90l219 81z" />
<glyph unicode="&#xd4;" horiz-adv-x="772" d="M745 356q0 -184 -91.5 -279t-270.5 -95t-267.5 82.5t-88.5 284.5q0 174 94 270.5t268 96.5t265 -84t91 -276zM516 347q0 99 -29 146.5t-102 47.5t-101 -49t-28 -134q0 -107 29 -154t102 -47q72 0 100.5 49.5t28.5 140.5zM566 820l-36 -91l-142 45l-142 -45l-36 91l178 80 z" />
<glyph unicode="&#xd5;" horiz-adv-x="772" d="M745 356q0 -184 -91.5 -279t-270.5 -95t-267.5 82.5t-88.5 284.5q0 174 94 270.5t268 96.5t265 -84t91 -276zM516 347q0 99 -29 146.5t-102 47.5t-101 -49t-28 -134q0 -107 29 -154t102 -47q72 0 100.5 49.5t28.5 140.5zM601 854q-26 -114 -137 -114q-43 0 -87 19.5 t-67 19.5q-28 0 -49 -41l-85 46q26 114 137 114q43 0 87 -19.5t67 -19.5q28 0 49 41z" />
<glyph unicode="&#xd6;" horiz-adv-x="772" d="M745 356q0 -184 -91.5 -279t-270.5 -95t-267.5 82.5t-88.5 284.5q0 174 94 270.5t268 96.5t265 -84t91 -276zM516 347q0 99 -29 146.5t-102 47.5t-101 -49t-28 -134q0 -107 29 -154t102 -47q72 0 100.5 49.5t28.5 140.5zM585 814q0 -40 -23.5 -62.5t-63.5 -22.5t-63 22.5 t-23 62.5t23 63t63 23t63.5 -23t23.5 -63zM362 814q0 -40 -23 -62.5t-64 -22.5q-40 0 -63 22.5t-23 62.5t23 63t63 23t63.5 -23t23.5 -63z" />
<glyph unicode="&#xd7;" d="M521 170l-100 -100l-143 145l-142 -144l-103 101l143 143l-141 141l100 100l141 -141l143 142l102 -100l-145 -144z" />
<glyph unicode="&#xd8;" horiz-adv-x="772" d="M745 356q0 -184 -91.5 -279t-270.5 -95q-50 0 -95 6l-65 -136l-121 53l60 125q-135 78 -135 319q0 174 94 270.5t268 96.5q56 0 99 -7l61 127l121 -53l-57 -119q132 -83 132 -308zM531 347q0 73 -14 118l-155 -323q8 -1 25 -1q80 0 112 54t32 152zM414 555q-18 2 -29 2 q-43 0 -72 -15.5t-44.5 -44.5t-21.5 -62t-6 -76q0 -83 16 -131z" />
<glyph unicode="&#xd9;" horiz-adv-x="740" d="M690 263q0 -132 -81 -206.5t-241 -74.5q-318 0 -318 277v439h219v-425q0 -58 29 -87t76 -29q46 0 73 29.5t27 74.5v437h216v-435zM416 819l-42 -90l-234 46l57 125z" />
<glyph unicode="&#xda;" horiz-adv-x="740" d="M690 263q0 -132 -81 -206.5t-241 -74.5q-318 0 -318 277v439h219v-425q0 -58 29 -87t76 -29q46 0 73 29.5t27 74.5v437h216v-435zM606 775l-234 -46l-42 90l219 81z" />
<glyph unicode="&#xdb;" horiz-adv-x="740" d="M690 263q0 -132 -81 -206.5t-241 -74.5q-318 0 -318 277v439h219v-425q0 -58 29 -87t76 -29q46 0 73 29.5t27 74.5v437h216v-435zM552 820l-36 -91l-142 45l-142 -45l-36 91l178 80z" />
<glyph unicode="&#xdc;" horiz-adv-x="740" d="M690 263q0 -132 -81 -206.5t-241 -74.5q-318 0 -318 277v439h219v-425q0 -58 29 -87t76 -29q46 0 73 29.5t27 74.5v437h216v-435zM566 814q0 -40 -23.5 -62.5t-63.5 -22.5t-63 22.5t-23 62.5t23 63t63 23t63.5 -23t23.5 -63zM343 814q0 -40 -23 -62.5t-64 -22.5 q-40 0 -63 22.5t-23 62.5t23 63t63 23t63.5 -23t23.5 -63z" />
<glyph unicode="&#xdd;" horiz-adv-x="626" d="M626 698q-75 -244 -202 -444v-254h-220v254q-122 204 -204 444h247q33 -141 76 -244q48 105 77 244h226zM553 775l-234 -46l-42 90l219 81z" />
<glyph unicode="&#xde;" horiz-adv-x="616" d="M605 372q0 -268 -311 -268h-25v-104h-219v698h219v-102h34q60 0 105 -8q197 -32 197 -216zM376 357q0 56 -37 71q-18 7 -49 7h-21v-169h32q75 0 75 91z" />
<glyph unicode="&#xdf;" horiz-adv-x="664" d="M651 195q0 -92 -61 -151t-173 -59q-74 0 -135 15l20 156q48 -14 80 -14q25 0 38 10.5t13 25.5q0 14 -12.5 27t-46.5 36q-55 37 -73 73t-18 84q0 33 14 61.5t30.5 45t30.5 35t14 32.5q0 16 -13 28t-40 12q-37 0 -50.5 -23t-13.5 -74v-515h-208v510q0 128 73 193t211 65 q124 0 191.5 -46t67.5 -136q0 -41 -15 -69t-33.5 -39t-33.5 -25t-15 -31q0 -24 41 -49q65 -40 91 -81t26 -97z" />
<glyph unicode="&#xe0;" horiz-adv-x="581" d="M535 0h-157l-13 43q-58 -61 -158 -61q-82 0 -134.5 43.5t-52.5 127.5q0 98 72.5 141t230.5 43h8v14q0 24 -16 34t-63 10q-76 0 -156 -31l-32 140q96 38 211 38q136 0 198 -42t62 -152v-348zM331 161v54h-14q-55 0 -76.5 -11t-21.5 -39q0 -17 12.5 -28t35.5 -11 q38 0 64 35zM379 623l-97 -56l-182 152l142 80z" />
<glyph unicode="&#xe1;" horiz-adv-x="581" d="M535 0h-157l-13 43q-58 -61 -158 -61q-82 0 -134.5 43.5t-52.5 127.5q0 98 72.5 141t230.5 43h8v14q0 24 -16 34t-63 10q-76 0 -156 -31l-32 140q96 38 211 38q136 0 198 -42t62 -152v-348zM331 161v54h-14q-55 0 -76.5 -11t-21.5 -39q0 -17 12.5 -28t35.5 -11 q38 0 64 35zM459 719l-182 -152l-97 56l137 176z" />
<glyph unicode="&#xe2;" horiz-adv-x="581" d="M535 0h-157l-13 43q-58 -61 -158 -61q-82 0 -134.5 43.5t-52.5 127.5q0 98 72.5 141t230.5 43h8v14q0 24 -16 34t-63 10q-76 0 -156 -31l-32 140q96 38 211 38q136 0 198 -42t62 -152v-348zM331 161v54h-14q-55 0 -76.5 -11t-21.5 -39q0 -17 12.5 -28t35.5 -11 q38 0 64 35zM485 653l-64 -86l-119 76l-121 -76l-62 86l183 146z" />
<glyph unicode="&#xe3;" horiz-adv-x="581" d="M535 0h-157l-13 43q-58 -61 -158 -61q-82 0 -134.5 43.5t-52.5 127.5q0 98 72.5 141t230.5 43h8v14q0 24 -16 34t-63 10q-76 0 -156 -31l-32 140q96 38 211 38q136 0 198 -42t62 -152v-348zM331 161v54h-14q-55 0 -76.5 -11t-21.5 -39q0 -17 12.5 -28t35.5 -11 q38 0 64 35zM502 716q-26 -128 -133 -128q-42 0 -84.5 21.5t-65.5 21.5q-27 0 -47 -46l-83 52q26 128 133 128q42 0 84.5 -21.5t65.5 -21.5q27 0 47 46z" />
<glyph unicode="&#xe4;" horiz-adv-x="581" d="M535 0h-157l-13 43q-58 -61 -158 -61q-82 0 -134.5 43.5t-52.5 127.5q0 98 72.5 141t230.5 43h8v14q0 24 -16 34t-63 10q-76 0 -156 -31l-32 140q96 38 211 38q136 0 198 -42t62 -152v-348zM331 161v54h-14q-55 0 -76.5 -11t-21.5 -39q0 -17 12.5 -28t35.5 -11 q38 0 64 35zM513 673q0 -44 -26 -69.5t-70 -25.5t-70 25.5t-26 69.5t26 69.5t70 25.5t70 -25.5t26 -69.5zM282 673q0 -44 -26 -69.5t-70 -25.5t-70 25.5t-26 69.5t26 69.5t70 25.5t70 -25.5t26 -69.5z" />
<glyph unicode="&#xe5;" horiz-adv-x="581" d="M535 0h-157l-13 43q-58 -61 -158 -61q-82 0 -134.5 43.5t-52.5 127.5q0 98 72.5 141t230.5 43h8v14q0 24 -16 34t-63 10q-76 0 -156 -31l-32 140q96 38 211 38q136 0 198 -42t62 -152v-348zM331 161v54h-14q-55 0 -76.5 -11t-21.5 -39q0 -17 12.5 -28t35.5 -11 q38 0 64 35zM438 710q0 -60 -38.5 -92t-113.5 -32q-146 0 -146 117q0 62 38.5 94.5t112.5 32.5q147 0 147 -120zM327 706q0 29 -9.5 39.5t-30.5 10.5q-36 0 -36 -47q0 -28 9 -38.5t30 -10.5q37 0 37 46z" />
<glyph unicode="&#xe6;" horiz-adv-x="874" d="M844 281q0 -37 -3 -78h-315q0 -63 99 -63q97 0 183 20l16 -147q-112 -31 -228 -31q-143 0 -211 64q-64 -64 -187 -64q-80 0 -129 43t-49 128q0 99 68.5 141.5t225.5 42.5h8v14q0 24 -13.5 34t-60.5 10q-72 0 -152 -31l-32 140q96 38 208 38q123 0 176 -38q54 38 147 38 q132 0 190.5 -62t58.5 -199zM642 325q2 39 -10.5 59t-46.5 20q-56 0 -59 -79h116zM322 174v41h-14q-53 0 -71 -10.5t-18 -39.5q0 -17 10 -28t29 -11q42 0 64 48z" />
<glyph unicode="&#xe7;" horiz-adv-x="444" d="M390 -118q0 -51 -36 -73.5t-90 -22.5q-68 0 -125 24v109h77q15 0 15 6q0 4 -5 16l-24 50q-87 19 -133 85.5t-46 173.5q0 142 73 216t201 74q77 0 133 -26l-41 -154q-34 15 -71 15q-81 0 -81 -109q0 -55 19.5 -83t64.5 -28q43 0 80 18l35 -152q-48 -22 -91 -30l12 -19 q33 -51 33 -90z" />
<glyph unicode="&#xe8;" horiz-adv-x="582" d="M552 281q0 -37 -3 -78h-315q0 -63 99 -63q97 0 183 20l16 -147q-112 -31 -228 -31q-143 0 -212 65t-69 205t72 215t208 75q132 0 190.5 -62t58.5 -199zM350 325q2 39 -10.5 59t-46.5 20q-56 0 -59 -79h116zM385 623l-97 -56l-182 152l142 80z" />
<glyph unicode="&#xe9;" horiz-adv-x="582" d="M552 281q0 -37 -3 -78h-315q0 -63 99 -63q97 0 183 20l16 -147q-112 -31 -228 -31q-143 0 -212 65t-69 205t72 215t208 75q132 0 190.5 -62t58.5 -199zM350 325q2 39 -10.5 59t-46.5 20q-56 0 -59 -79h116zM476 719l-182 -152l-97 56l137 176z" />
<glyph unicode="&#xea;" horiz-adv-x="582" d="M552 281q0 -37 -3 -78h-315q0 -63 99 -63q97 0 183 20l16 -147q-112 -31 -228 -31q-143 0 -212 65t-69 205t72 215t208 75q132 0 190.5 -62t58.5 -199zM350 325q2 39 -10.5 59t-46.5 20q-56 0 -59 -79h116zM477 653l-64 -86l-119 76l-121 -76l-62 86l183 146z" />
<glyph unicode="&#xeb;" horiz-adv-x="582" d="M552 281q0 -37 -3 -78h-315q0 -63 99 -63q97 0 183 20l16 -147q-112 -31 -228 -31q-143 0 -212 65t-69 205t72 215t208 75q132 0 190.5 -62t58.5 -199zM350 325q2 39 -10.5 59t-46.5 20q-56 0 -59 -79h116zM504 673q0 -44 -26 -69.5t-70 -25.5t-70 25.5t-26 69.5t26 69.5 t70 25.5t70 -25.5t26 -69.5zM273 673q0 -44 -26 -69.5t-70 -25.5t-70 25.5t-26 69.5t26 69.5t70 25.5t70 -25.5t26 -69.5z" />
<glyph unicode="&#xec;" horiz-adv-x="330" d="M284 0h-208v368h-66v156h274v-524zM279 623l-97 -56l-182 152l142 80z" />
<glyph unicode="&#xed;" horiz-adv-x="330" d="M284 0h-208v368h-66v156h274v-524zM331 719l-182 -152l-97 56l137 176z" />
<glyph unicode="&#xee;" horiz-adv-x="330" d="M284 0h-208v368h-66v156h274v-524zM366 653l-64 -86l-119 76l-121 -76l-62 86l183 146z" />
<glyph unicode="&#xef;" horiz-adv-x="330" d="M381 673q0 -44 -26 -69.5t-70 -25.5t-70 25.5t-26 69.5t26 69.5t70 25.5t70 -25.5t26 -69.5zM152 673q0 -44 -26 -69.5t-70 -25.5t-70 25.5t-26 69.5t26 69.5t70 25.5t70 -25.5t26 -69.5zM284 0h-208v368h-66v156h274v-524z" />
<glyph unicode="&#xf0;" horiz-adv-x="610" d="M582 283q0 -133 -78 -217t-213 -84q-268 0 -268 273q0 124 69.5 197.5t178.5 73.5q9 0 19 -2l-30 47l-76 -20l-60 100l64 17q-20 26 -39 47l201 53l40 -46l104 27l60 -100l-90 -24q118 -166 118 -342zM374 255q0 52 -13 104q-22 8 -61 8q-32 0 -49 -27.5t-17 -70.5 q0 -129 73 -129q31 0 49 32.5t18 82.5z" />
<glyph unicode="&#xf1;" horiz-adv-x="619" d="M577 0h-208v291q0 45 -10.5 64t-35.5 19q-32 0 -69 -39v-335h-208v524h157l13 -46q37 34 74.5 49t90.5 15q196 0 196 -206v-336zM520 716q-26 -128 -133 -128q-42 0 -84.5 21.5t-65.5 21.5q-27 0 -47 -46l-83 52q26 128 133 128q42 0 84.5 -21.5t65.5 -21.5q27 0 47 46z " />
<glyph unicode="&#xf2;" horiz-adv-x="620" d="M597 266q0 -136 -74.5 -210t-217.5 -74q-282 0 -282 267q0 141 74.5 217t217.5 76t212.5 -71t69.5 -205zM383 257q0 72 -18 98t-58 26q-70 0 -70 -117q0 -71 18 -96.5t58 -25.5q70 0 70 115zM410 623l-97 -56l-182 152l142 80z" />
<glyph unicode="&#xf3;" horiz-adv-x="620" d="M597 266q0 -136 -74.5 -210t-217.5 -74q-282 0 -282 267q0 141 74.5 217t217.5 76t212.5 -71t69.5 -205zM383 257q0 72 -18 98t-58 26q-70 0 -70 -117q0 -71 18 -96.5t58 -25.5q70 0 70 115zM483 719l-182 -152l-97 56l137 176z" />
<glyph unicode="&#xf4;" horiz-adv-x="620" d="M597 266q0 -136 -74.5 -210t-217.5 -74q-282 0 -282 267q0 141 74.5 217t217.5 76t212.5 -71t69.5 -205zM383 257q0 72 -18 98t-58 26q-70 0 -70 -117q0 -71 18 -96.5t58 -25.5q70 0 70 115zM493 653l-64 -86l-119 76l-121 -76l-62 86l183 146z" />
<glyph unicode="&#xf5;" horiz-adv-x="620" d="M597 266q0 -136 -74.5 -210t-217.5 -74q-282 0 -282 267q0 141 74.5 217t217.5 76t212.5 -71t69.5 -205zM383 257q0 72 -18 98t-58 26q-70 0 -70 -117q0 -71 18 -96.5t58 -25.5q70 0 70 115zM518 716q-26 -128 -133 -128q-42 0 -84.5 21.5t-65.5 21.5q-27 0 -47 -46 l-83 52q26 128 133 128q42 0 84.5 -21.5t65.5 -21.5q27 0 47 46z" />
<glyph unicode="&#xf6;" horiz-adv-x="620" d="M597 266q0 -136 -74.5 -210t-217.5 -74q-282 0 -282 267q0 141 74.5 217t217.5 76t212.5 -71t69.5 -205zM383 257q0 72 -18 98t-58 26q-70 0 -70 -117q0 -71 18 -96.5t58 -25.5q70 0 70 115zM523 673q0 -44 -26 -69.5t-70 -25.5t-70 25.5t-26 69.5t26 69.5t70 25.5 t70 -25.5t26 -69.5zM292 673q0 -44 -26 -69.5t-70 -25.5t-70 25.5t-26 69.5t26 69.5t70 25.5t70 -25.5t26 -69.5z" />
<glyph unicode="&#xf7;" d="M384 525q0 -46 -31 -77t-78 -31q-46 0 -77.5 31t-31.5 77t31 77t77 31q47 0 78.5 -31t31.5 -77zM530 235h-510v149h510v-149zM384 95q0 -46 -31.5 -77t-78.5 -31q-46 0 -77 31t-31 77t31.5 77t77.5 31q47 0 78 -31t31 -77z" />
<glyph unicode="&#xf8;" horiz-adv-x="620" d="M597 266q0 -136 -74.5 -210t-217.5 -74q-39 0 -67 4l-60 -118l-113 43l58 116q-100 65 -100 222q0 141 74.5 217t217.5 76q32 0 67 -5l56 111l113 -43l-55 -108q101 -68 101 -231zM404 257q0 30 -4 58l-96 -192h10q49 0 69.5 34.5t20.5 99.5zM316 399h-10q-90 0 -90 -135 q0 -17 3 -56z" />
<glyph unicode="&#xf9;" horiz-adv-x="619" d="M573 0h-157l-13 46q-37 -34 -74.5 -49t-90.5 -15q-196 0 -196 206v336h208v-291q0 -45 10.5 -64t35.5 -19q32 0 69 39v335h208v-524zM400 623l-97 -56l-182 152l142 80z" />
<glyph unicode="&#xfa;" horiz-adv-x="619" d="M573 0h-157l-13 46q-37 -34 -74.5 -49t-90.5 -15q-196 0 -196 206v336h208v-291q0 -45 10.5 -64t35.5 -19q32 0 69 39v335h208v-524zM486 719l-182 -152l-97 56l137 176z" />
<glyph unicode="&#xfb;" horiz-adv-x="619" d="M573 0h-157l-13 46q-37 -34 -74.5 -49t-90.5 -15q-196 0 -196 206v336h208v-291q0 -45 10.5 -64t35.5 -19q32 0 69 39v335h208v-524zM488 653l-64 -86l-119 76l-121 -76l-62 86l183 146z" />
<glyph unicode="&#xfc;" horiz-adv-x="619" d="M573 0h-157l-13 46q-37 -34 -74.5 -49t-90.5 -15q-196 0 -196 206v336h208v-291q0 -45 10.5 -64t35.5 -19q32 0 69 39v335h208v-524zM521 673q0 -44 -26 -69.5t-70 -25.5t-70 25.5t-26 69.5t26 69.5t70 25.5t70 -25.5t26 -69.5zM290 673q0 -44 -26 -69.5t-70 -25.5 t-70 25.5t-26 69.5t26 69.5t70 25.5t70 -25.5t26 -69.5z" />
<glyph unicode="&#xfd;" horiz-adv-x="547" d="M545 524q-68 -354 -151 -523q-60 -121 -129.5 -167t-158.5 -46q-47 0 -85 16l3 151h72q25 0 38 10t27 35q-103 217 -161 524h215q27 -173 71 -320h1q40 146 56 320h202zM459 719l-182 -152l-97 56l137 176z" />
<glyph unicode="&#xfe;" horiz-adv-x="622" d="M599 287q0 -138 -71 -220t-210 -82q-34 0 -64 7v-202h-208v960h208v-240q50 32 110 32q117 0 176 -70t59 -185zM382 257q0 68 -14 92.5t-53 24.5q-38 0 -61 -23v-181q14 -20 52 -20q76 0 76 107z" />
<glyph unicode="&#xff;" horiz-adv-x="547" d="M545 524q-68 -354 -151 -523q-60 -121 -129.5 -167t-158.5 -46q-47 0 -85 16l3 151h72q25 0 38 10t27 35q-103 217 -161 524h215q27 -173 71 -320h1q40 146 56 320h202zM495 673q0 -44 -26 -69.5t-70 -25.5t-70 25.5t-26 69.5t26 69.5t70 25.5t70 -25.5t26 -69.5z M264 673q0 -44 -26 -69.5t-70 -25.5t-70 25.5t-26 69.5t26 69.5t70 25.5t70 -25.5t26 -69.5z" />
<glyph unicode="&#x152;" horiz-adv-x="970" d="M930 0h-431q-66 -15 -116 -15q-88 0 -151.5 17.5t-110.5 58.5t-70.5 112.5t-23.5 175.5q0 174 93.5 269t268.5 95q56 0 127 -15h411v-164h-240v-95h202v-161h-202v-114h243v-164zM469 184v331q-38 23 -84 23q-73 0 -101 -48t-28 -132q0 -106 29 -152t102 -46q44 0 82 24z " />
<glyph unicode="&#x153;" horiz-adv-x="937" d="M907 281q0 -37 -3 -78h-315q0 -63 99 -63q97 0 183 20l16 -147q-112 -31 -228 -31q-121 0 -181 51q-61 -51 -173 -51q-282 0 -282 267q0 141 74.5 217t217.5 76q114 0 176 -52q60 52 167 52q132 0 190.5 -62t58.5 -199zM705 325q2 39 -10.5 59t-46.5 20q-56 0 -59 -79 h116zM383 257q0 72 -18 98t-58 26q-70 0 -70 -117q0 -71 18 -96.5t58 -25.5q70 0 70 115z" />
<glyph unicode="&#x178;" horiz-adv-x="626" d="M626 698q-75 -244 -202 -444v-254h-220v254q-122 204 -204 444h247q33 -141 76 -244q48 105 77 244h226zM520 814q0 -40 -23.5 -62.5t-63.5 -22.5t-63 22.5t-23 62.5t23 63t63 23t63.5 -23t23.5 -63zM297 814q0 -40 -23 -62.5t-64 -22.5q-40 0 -63 22.5t-23 62.5t23 63 t63 23t63.5 -23t23.5 -63z" />
<glyph unicode="&#x2c6;" horiz-adv-x="390" d="M366 653l-64 -86l-119 76l-121 -76l-62 86l183 146z" />
<glyph unicode="&#x2dc;" horiz-adv-x="450" d="M413 716q-26 -128 -133 -128q-42 0 -84.5 21.5t-65.5 21.5q-27 0 -47 -46l-83 52q26 128 133 128q42 0 84.5 -21.5t65.5 -21.5q27 0 47 46z" />
<glyph unicode="&#x2000;" horiz-adv-x="450" />
<glyph unicode="&#x2001;" horiz-adv-x="900" />
<glyph unicode="&#x2002;" horiz-adv-x="450" />
<glyph unicode="&#x2003;" horiz-adv-x="900" />
<glyph unicode="&#x2004;" horiz-adv-x="300" />
<glyph unicode="&#x2005;" horiz-adv-x="225" />
<glyph unicode="&#x2006;" horiz-adv-x="150" />
<glyph unicode="&#x2007;" horiz-adv-x="150" />
<glyph unicode="&#x2008;" horiz-adv-x="112" />
<glyph unicode="&#x2009;" horiz-adv-x="180" />
<glyph unicode="&#x200a;" horiz-adv-x="50" />
<glyph unicode="&#x2010;" horiz-adv-x="317" d="M308 184h-273v170h273v-170z" />
<glyph unicode="&#x2011;" horiz-adv-x="317" d="M308 184h-273v170h273v-170z" />
<glyph unicode="&#x2013;" d="M550 228h-550v162h550v-162z" />
<glyph unicode="&#x2014;" horiz-adv-x="1000" d="M940 228h-880v162h880v-162z" />
<glyph unicode="&#x2018;" horiz-adv-x="282" d="M269 740q-68 -60 -68 -86q0 -11 10.5 -24.5t21 -36t10.5 -53.5q0 -44 -29 -72t-72 -28q-67 0 -96 61q-33 70 10 161q41 86 139 150z" />
<glyph unicode="&#x2019;" horiz-adv-x="282" d="M140 784q67 0 96 -61q33 -70 -10 -161q-41 -86 -139 -150l-74 72q68 60 68 86q0 11 -10.5 24.5t-21 36t-10.5 53.5q0 44 29 72t72 28z" />
<glyph unicode="&#x201a;" horiz-adv-x="282" d="M140 199q67 0 96 -61q33 -70 -10 -161q-41 -86 -139 -150l-74 72q68 60 68 86q0 11 -10.5 24.5t-21 36t-10.5 53.5q0 44 29 72t72 28z" />
<glyph unicode="&#x201c;" horiz-adv-x="508" d="M490 725q-35 -22 -49 -38t-11 -29.5t12 -25.5t18.5 -34.5t9.5 -49.5q0 -37 -28.5 -64t-63.5 -27q-64 0 -92 58q-33 66 7 148q38 78 132 133zM255 729q-36 -24 -50.5 -40t-11.5 -30t12 -26t18.5 -35t9.5 -50q0 -37 -28.5 -64t-63.5 -27q-64 0 -92 58q-33 67 8 150 q39 79 132 135z" />
<glyph unicode="&#x201d;" horiz-adv-x="508" d="M367 768q64 0 92 -58q33 -67 -8 -150q-39 -79 -132 -135l-66 71q36 24 50.5 40t11.5 30t-12 26t-18.5 35t-9.5 50q0 37 28.5 64t63.5 27zM130 768q64 0 92 -58q33 -66 -7 -148q-38 -78 -132 -133l-65 71q35 22 49 38t11 29.5t-12 25.5t-18.5 34.5t-9.5 49.5q0 37 28.5 64 t63.5 27z" />
<glyph unicode="&#x201e;" horiz-adv-x="518" d="M374 193q65 0 94 -59q34 -68 -7 -152q-39 -81 -136 -139l-67 72q37 24 51.5 41t12 31t-11.5 26.5t-19 36t-10 50.5q0 38 28.5 65.5t64.5 27.5zM133 193q65 0 94 -59q33 -67 -8 -151q-39 -80 -134 -136l-67 72q44 28 56 48t2.5 32.5t-23.5 40.5t-14 60q0 38 29 65.5 t65 27.5z" />
<glyph unicode="&#x2022;" d="M506 347q0 -97 -68 -165t-165 -68t-164 67t-67 164t68 165t165 68t164 -67t67 -164z" />
<glyph unicode="&#x2026;" horiz-adv-x="820" d="M782 100q0 -48 -32 -80t-80 -32t-80 32t-32 80t32 80t80 32t80 -32t32 -80zM522 100q0 -48 -32 -80t-80 -32t-80 32t-32 80t32 80t80 32t80 -32t32 -80zM262 100q0 -48 -32 -80t-80 -32t-80 32t-32 80t32 80t80 32t80 -32t32 -80z" />
<glyph unicode="&#x202f;" horiz-adv-x="180" />
<glyph unicode="&#x2039;" horiz-adv-x="390" d="M312 73l-144 -48l-151 255l151 255l144 -48l-92 -207z" />
<glyph unicode="&#x203a;" horiz-adv-x="390" d="M373 280l-151 -255l-144 48l92 207l-92 207l144 48z" />
<glyph unicode="&#x205f;" horiz-adv-x="225" />
<glyph unicode="&#x20ac;" d="M520 17q-85 -35 -160 -35q-138 0 -206.5 53.5t-88.5 159.5h-52v115h45v31v35h-45v115h57q57 225 284 225q92 0 165 -39l-50 -145q-46 22 -97 22q-81 0 -96 -63h130v-115h-145v-28v-38h145v-115h-129q6 -53 93 -53q56 0 102 26z" />
<glyph unicode="&#x2122;" horiz-adv-x="710" d="M674 406h-105q-1 38 -3 85t-3 75l-49 -160h-95l-50 160q0 -32 0.5 -79.5t0.5 -80.5h-96q0 110 12 292h147l38 -129l40 129h143q16 -148 20 -292zM261 600h-55v-194h-127v194h-55v98h237v-98z" />
</font>
</defs>
</svg>
