<?xml version="1.0" encoding="utf-8"?>
<!-- Generator: Adobe Illustrator 19.1.0, SVG Export Plug-In . SVG Version: 6.00 Build 0)  -->
<svg version="1.1" id="Layer_1" xmlns="http://www.w3.org/2000/svg" xmlns:xlink="http://www.w3.org/1999/xlink" x="0px" y="0px"
	 width="35px" height="35px" viewBox="-288 379 35 35" style="enable-background:new -288 379 35 35;" xml:space="preserve">
<path style="fill:#FFFFFF;" d="M-259.4,413h-22.2c-0.8,0-1.4-0.6-1.4-1.4v-31.2c0-0.8,0.6-1.4,1.4-1.4h22.2c0.8,0,1.4,0.6,1.4,1.4
	v31.1C-258,412.4-258.6,413-259.4,413z M-281.6,379.9c-0.3,0-0.5,0.2-0.5,0.5v31.1c0,0.3,0.2,0.5,0.5,0.5h22.2
	c0.3,0,0.5-0.2,0.5-0.5v-31.1c0-0.3-0.2-0.5-0.5-0.5H-281.6z"/>
<path style="fill:#FFFFFF;" d="M-261,388.4h-19v-5.8h19V388.4z M-279.1,387.5h17.2v-4h-17.2V387.5z"/>
<polygon style="fill:#FFFFFF;" points="-274.6,395.4 -280,395.4 -280,390.1 -279.1,390.1 -279.1,394.5 -274.6,394.5 "/>
<polygon style="fill:#FFFFFF;" points="-268,395.4 -273.1,395.4 -273.1,390.1 -272.2,390.1 -272.2,394.5 -268,394.5 "/>
<polygon style="fill:#FFFFFF;" points="-261.1,395.4 -266.5,395.4 -266.5,390.1 -265.6,390.1 -265.6,394.5 -261.1,394.5 "/>
<polygon style="fill:#FFFFFF;" points="-274.6,402.5 -280,402.5 -280,397.1 -279.1,397.1 -279.1,401.6 -274.6,401.6 "/>
<polygon style="fill:#FFFFFF;" points="-268,402.5 -273.1,402.5 -273.1,397.1 -272.2,397.1 -272.2,401.6 -268,401.6 "/>
<polygon style="fill:#FFFFFF;" points="-261.1,402.5 -266.5,402.5 -266.5,397.1 -265.6,397.1 -265.6,401.6 -261.1,401.6 "/>
<polygon style="fill:#FFFFFF;" points="-274.6,409.3 -280,409.3 -280,403.9 -279.1,403.9 -279.1,408.4 -274.6,408.4 "/>
<polygon style="fill:#FFFFFF;" points="-268,409.3 -273.1,409.3 -273.1,403.9 -272.2,403.9 -272.2,408.4 -268,408.4 "/>
<polygon style="fill:#FFFFFF;" points="-261.1,409.3 -266.5,409.3 -266.5,403.9 -265.6,403.9 -265.6,408.4 -261.1,408.4 "/>
</svg>
