<?xml version="1.0" encoding="UTF-8"?>
<!-- Generator: Adobe Illustrator 19.1.0, SVG Export Plug-In . SVG Version: 6.00 Build 0)  -->
<svg version="1.1" id="Layer_1" xmlns="http://www.w3.org/2000/svg" xmlns:xlink="http://www.w3.org/1999/xlink" x="0px" y="0px" width="70px" height="70px" viewBox="0 0 70 70" style="enable-background:new 0 0 70 70;" xml:space="preserve">
<path d="M25.643,31.355L9.478,36.024c-0.531,0.153-0.836,0.708-0.684,1.238c0.127,0.438,0.526,0.723,0.96,0.723  c0.092,0,0.186-0.013,0.278-0.039l16.165-4.669c0.531-0.153,0.836-0.708,0.684-1.238C26.728,31.507,26.17,31.203,25.643,31.355z"/>
<path d="M42.406,33.358l-0.172-0.597c0-0.001,0-0.001,0-0.002l-4.065-14.073L36.78,13.88  c-0.176-0.608-0.579-1.113-1.136-1.42c-0.559-0.308-1.2-0.379-1.807-0.204l-0.597,0.172c-0.001,0-0.001,0-0.002,0l-10.71,3.094l0,0  L2.615,21.275c-0.608,0.176-1.113,0.579-1.42,1.136c-0.307,0.557-0.379,1.198-0.204,1.806L4.19,35.292h0l1.125,3.895l1.302,4.508  c0.301,1.04,1.253,1.718,2.284,1.718c0.218,0,0.439-0.03,0.658-0.094l0.596-0.172c0.001,0,0.002,0,0.003-0.001l11.095-3.205  l19.529-5.641c0.608-0.176,1.113-0.579,1.42-1.136C42.51,34.608,42.582,33.966,42.406,33.358z M9.602,43.225  c-0.529,0.148-1.083-0.154-1.237-0.683l-3.102-10.74l31.946-9.227l3.102,10.74c0.152,0.53-0.155,1.084-0.684,1.237l-15.012,4.336  L9.602,43.225z M2.946,23.377c0.028-0.051,0.095-0.143,0.224-0.18l30.625-8.846c0.529-0.153,1.085,0.154,1.237,0.683l0.512,1.772  L3.597,26.034l-0.685-2.371C2.875,23.534,2.917,23.429,2.946,23.377z"/>
<path d="M60.734,65.392H30.997c-2.741,0-5.038-2.229-5.12-4.968l-0.513-17.096l1.999-0.061l0.513,17.096  c0.05,1.67,1.45,3.028,3.121,3.028h29.737c1.673,0,3.079-1.359,3.135-3.031l1.716-51.396c0.026-0.79-0.258-1.534-0.8-2.094  C64.243,6.309,63.509,6,62.718,6H29.014c-0.92,0-1.754,0.325-2.289,0.891c-0.26,0.275-0.562,0.732-0.527,1.353l0.186,3.299  l-1.997,0.112l-0.186-3.299c-0.058-1.039,0.322-2.047,1.07-2.838C26.182,4.553,27.546,4,29.014,4h33.704  c1.338,0,2.583,0.525,3.506,1.48c0.922,0.954,1.405,2.215,1.359,3.551l-1.716,51.396C65.776,63.164,63.474,65.392,60.734,65.392z"/>
<path d="M58.486,33.272H44.784v-2h13.242l0.831-20.06H31.875v-2h27.525c0.402,0,0.792,0.166,1.069,0.455  s0.427,0.686,0.409,1.087l-0.872,21.059C59.975,32.617,59.293,33.272,58.486,33.272z"/>
<polygon  points="39.561,42.912 33.863,42.912 33.863,39.962 35.463,39.962 35.463,41.312 39.561,41.312 "/>
<polygon  points="48.661,42.912 42.964,42.912 42.964,36.585 44.563,36.585 44.563,41.312 48.661,41.312 "/>
<polygon  points="57.642,42.912 51.943,42.912 51.943,36.585 53.543,36.585 53.543,41.312 57.642,41.312 "/>
<polygon  points="39.561,51.839 33.863,51.839 33.863,45.512 35.463,45.512 35.463,50.239 39.561,50.239 "/>
<polygon  points="48.661,51.839 42.964,51.839 42.964,45.512 44.563,45.512 44.563,50.239 48.661,50.239 "/>
<polygon  points="57.642,51.839 51.943,51.839 51.943,45.512 53.543,45.512 53.543,50.239 57.642,50.239 "/>
<polygon  points="39.561,60.397 33.863,60.397 33.863,54.071 35.463,54.071 35.463,58.798 39.561,58.798 "/>
<polygon  points="48.661,60.397 42.964,60.397 42.964,54.071 44.563,54.071 44.563,58.798 48.661,58.798 "/>
<polygon  points="57.642,60.397 51.943,60.397 51.943,54.071 53.543,54.071 53.543,58.798 57.642,58.798 "/>
</svg>