<?xml version="1.0" encoding="utf-8"?>
<!-- Generator: Adobe Illustrator 18.1.1, SVG Export Plug-In . SVG Version: 6.00 Build 0)  -->
<!DOCTYPE svg PUBLIC "-//W3C//DTD SVG 1.1//EN" "http://www.w3.org/Graphics/SVG/1.1/DTD/svg11.dtd">
<svg version="1.1" id="Layer_1" xmlns="http://www.w3.org/2000/svg" xmlns:xlink="http://www.w3.org/1999/xlink" x="0px" y="0px"
	 viewBox="0 0 60 60" enable-background="new 0 0 60 60" xml:space="preserve">
<g>
	<circle id="circle" fill="#FFFFFF" cx="30.069" cy="29.988" r="29.959"/>
	<g>
		<path id="magnifying-glass" fill="#BE0D00" d="M44.114,40.72l-7.234-7.234c1.092-1.791,1.716-3.896,1.716-6.147
			c0-6.541-5.668-12.204-12.209-12.204s-11.839,5.299-11.839,11.84s5.668,12.204,12.204,12.204c2.175,0,4.211-0.588,5.963-1.611
			l7.269,7.269c0.709,0.709,1.866,0.709,2.575,0l1.806-1.806C45.083,42.333,44.823,41.434,44.114,40.72z M18.194,26.98
			c0-4.53,3.667-8.198,8.198-8.198s8.562,4.036,8.562,8.562c0,4.53-3.673,8.198-8.198,8.198S18.194,31.51,18.194,26.98z"/>
	</g>
</g>
</svg>
