<?xml version="1.0" standalone="no"?>
<!DOCTYPE svg PUBLIC "-//W3C//DTD SVG 1.1//EN" "http://www.w3.org/Graphics/SVG/1.1/DTD/svg11.dtd" >
<svg xmlns="http://www.w3.org/2000/svg">
<metadata>
This is a custom SVG webfont generated by Font Squirrel.
Copyright   : Copyright c 2007 by George Triantafyllakos backpackergr All rights reserved
Designer    : George Triantafyllakos
Foundry     : George Triantafyllakos backpackergr
Foundry URL : httpwwwbackpackergr
</metadata>
<defs>
<font id="webfontwFt0z31g" horiz-adv-x="1044" >
<font-face units-per-em="2048" ascent="1638" descent="-410" />
<missing-glyph horiz-adv-x="688" />
<glyph unicode=" "  horiz-adv-x="688" />
<glyph unicode="&#x09;" horiz-adv-x="688" />
<glyph unicode="&#xa0;" horiz-adv-x="688" />
<glyph unicode="!" horiz-adv-x="944" d="M72 315q0 129 106.5 222.5t296.5 93.5q186 0 291.5 -93.5t105.5 -222.5t-105 -222t-292 -93q-190 0 -296.5 93t-106.5 222zM84 1516h760l-62 -811h-639z" />
<glyph unicode="&#x22;" horiz-adv-x="1615" d="M72 758l98 758h637l-285 -699zM809 758l98 758h637l-284 -699z" />
<glyph unicode="#" horiz-adv-x="1280" d="M72 254l24 242h160l25 284h-164l24 244h164l31 356h330l-31 -356h76l30 356h332l-31 -356h166l-24 -244h-166l-25 -284h166l-24 -242h-162l-23 -254h-327l18 254h-94l-23 -254h-325l16 254h-143zM588 496h74l24 284h-74z" />
<glyph unicode="$" horiz-adv-x="1488" d="M35 80l92 586q238 -145 547 -146q41 0 41 12.5t-66.5 19.5t-161 22.5t-188.5 45t-160.5 102.5t-66.5 181q0 328 438 402v211h512v-205q80 -10 210 -33t183 -29l-90 -504q-96 39 -242.5 66t-269.5 27q-47 0 -47 -13q0 -14 70.5 -22t172 -22.5t203 -43t172 -100.5 t70.5 -178q0 -336 -432 -410v-203h-512v183q-190 8 -475 51z" />
<glyph unicode="%" horiz-adv-x="3166" d="M72 1026q0 182 173 308t437 126q266 0 438 -126t172 -308t-172 -308t-438 -126q-264 0 -437 126t-173 308zM598 1026q0 -33 21.5 -57.5t62.5 -24.5q43 0 65.5 24.5t22.5 57.5t-23.5 58.5t-64.5 25.5t-62.5 -24.5t-21.5 -59.5zM842 2l878 1428h627l-879 -1428h-626z M1874 411.5q0 182.5 173 308.5t437 126q266 0 438.5 -126t172.5 -308.5t-172.5 -308.5t-438.5 -126q-264 0 -437 126t-173 308.5zM2400 412q0 -33 21.5 -57.5t62.5 -24.5q43 0 65.5 24.5t22.5 57t-23.5 58.5t-64.5 26t-62.5 -24.5t-21.5 -59.5z" />
<glyph unicode="&#x26;" horiz-adv-x="2373" d="M35 479q0 152 98 257.5t215 146.5q-74 27 -140.5 104.5t-66.5 171.5q0 133 95.5 222t243 127t337.5 38q334 0 555 -73l-43 -390q-96 18 -190 19q-190 0 -191 -94q0 -74 117 -84h1274v-164h-221v-162q0 -152 -92.5 -274.5t-243 -197.5t-332.5 -114t-375 -39 q-279 0 -510 55.5t-380.5 173t-149.5 277.5zM905 643q0 -72 55.5 -122t145.5 -50q88 0 140 50t52 122v117h-231q-86 0 -124 -23.5t-38 -93.5z" />
<glyph unicode="'" horiz-adv-x="960" d="M72 758l98 758h719l-285 -699z" />
<glyph unicode="(" horiz-adv-x="946" d="M72 674q0 162 44 322.5t105.5 276.5t124 209t105.5 140l45 45l354 -215q-246 -342 -246 -745q0 -420 270 -766l-401 -199l-43 39.5t-96.5 117t-122.5 191.5t-96 259t-43 325z" />
<glyph unicode=")" horiz-adv-x="946" d="M72 -59q270 346 270 766q0 403 -246 745l355 215q16 -16 44.5 -48t102.5 -135.5t129 -212t101 -272t46 -325.5q0 -166 -40.5 -323.5t-100 -263t-119 -187.5t-100.5 -121l-41 -37z" />
<glyph unicode="*" horiz-adv-x="1544" d="M72 881l207 59l-207 61l241 453l154 -100v159h608v-159l154 100l244 -453l-209 -61l209 -59l-244 -453l-154 100v-159h-608v159l-154 -100z" />
<glyph unicode="+" horiz-adv-x="1249" d="M72 410v409h327v348h451v-348h328v-409h-328v-349h-451v349h-327z" />
<glyph unicode="," horiz-adv-x="960" d="M72 -291l98 758h719l-285 -698z" />
<glyph unicode="-" d="M72 348v471h901v-471h-901z" />
<glyph unicode="." horiz-adv-x="944" d="M72 254q0 129 106.5 222t296.5 93q186 0 291.5 -93t105.5 -222t-105 -222t-292 -93q-190 0 -296.5 93t-106.5 222z" />
<glyph unicode="/" horiz-adv-x="1648" d="M72 -182l878 1755h627l-879 -1755h-626z" />
<glyph unicode="0" horiz-adv-x="1748" d="M25 715q0 322 229 532.5t639 210.5q408 0 619.5 -209t211.5 -534.5t-230 -541.5t-642 -216q-406 0 -616.5 214t-210.5 544zM764 711q0 -59 24.5 -108.5t79.5 -49.5q53 0 78 51t25 107q0 68 -23.5 118t-79 50t-80 -50t-24.5 -118z" />
<glyph unicode="1" horiz-adv-x="1132" d="M29 1325l645 123h276v-1448h-706v987l-154 -22z" />
<glyph unicode="2" horiz-adv-x="1579" d="M25 1100q92 164 325.5 261t497.5 97q281 0 479.5 -113.5t216.5 -334.5q0 -160 -104.5 -286t-319.5 -251h406v-473h-1432v354q2 0 64.5 33t152.5 88t179.5 115.5t152 127t62.5 111.5q0 47 -43.5 73t-106.5 26q-61 0 -140 -47t-104 -99z" />
<glyph unicode="3" horiz-adv-x="1347" d="M27 84l139 473q115 -47 246 -47q135 0 135 80q0 25 -13.5 40t-45 21t-55 7t-71.5 1q-37 0 -81 -4v158q16 -2 65 -2q88 0 141.5 21.5t53.5 58.5q0 31 -34 53.5t-101 22.5q-109 0 -213 -35l-111 409q233 117 543 117q172 0 311 -36t231.5 -118.5t92.5 -199.5 q0 -74 -58.5 -155t-171.5 -140q293 -150 293 -385q0 -121 -57.5 -210t-158.5 -139t-220 -72.5t-258 -22.5q-346 0 -602 104z" />
<glyph unicode="4" horiz-adv-x="1605" d="M6 162v270l688 1006h719v-801h162v-475h-162v-162h-584v162h-823zM690 637h139v221z" />
<glyph unicode="5" horiz-adv-x="1564" d="M25 90l165 391q176 -49 297 -49q63 0 104.5 26.5t41.5 73.5q0 29 -29 48.5t-67 19.5h-181l-241 90l147 744h1219l-82 -437h-498l-14 -73q344 -6 496.5 -108.5t152.5 -295.5q0 -264 -218 -403.5t-593 -139.5q-172 0 -371.5 30t-328.5 83z" />
<glyph unicode="6" horiz-adv-x="1552" d="M16 600q0 352 340 602t928 258l49 -483q-446 0 -628 -176q174 74 270 73q299 0 427 -106t128 -307q0 -223 -194.5 -345t-542.5 -122q-203 0 -356.5 49t-243 136t-133.5 192.5t-44 228.5zM692 492q0 -29 20.5 -50.5t57.5 -21.5q41 0 65.5 26.5t24.5 61.5q0 31 -18.5 50.5 t-55.5 19.5q-43 0 -68.5 -26.5t-25.5 -59.5z" />
<glyph unicode="7" horiz-adv-x="1505" d="M37 940v494h1456v-375l-602 -1059h-799l535 940h-590z" />
<glyph unicode="8" horiz-adv-x="1509" d="M27 371q0 135 85 236.5t236 156.5q-109 37 -186.5 114.5t-77.5 202.5q0 168 191.5 273.5t476.5 105.5q276 0 457.5 -99t181.5 -263q0 -119 -68 -208t-180 -126q342 -133 342 -393q0 -188 -192.5 -292t-547.5 -104q-346 0 -532 104t-186 292zM684 514q0 -25 17.5 -42 t50 -17t52 17t19.5 42t-19.5 43t-52 18t-50 -18t-17.5 -43zM684 997.5q0 -24.5 17.5 -42t50 -17.5t52 17.5t19.5 42t-19.5 43t-52 18.5t-50 -18.5t-17.5 -43z" />
<glyph unicode="9" horiz-adv-x="1558" d="M25 993q0 143 106.5 252t271 162t359.5 53q203 0 356.5 -49t243.5 -136t134 -192.5t44 -228.5q0 -397 -348 -621.5t-983 -232.5l-59 477q502 0 659 156q-121 -61 -279 -62q-215 0 -360 113.5t-145 308.5zM684 967q0 -29 19.5 -49.5t56.5 -20.5q43 0 67.5 26.5t24.5 59.5 q0 31 -20.5 51.5t-57.5 20.5q-41 0 -65.5 -26.5t-24.5 -61.5z" />
<glyph unicode=":" horiz-adv-x="944" d="M72 254q0 129 106.5 222t296.5 93q186 0 291.5 -93t105.5 -222t-105 -222t-292 -93q-190 0 -296.5 93t-106.5 222zM72 950q0 129 106.5 222.5t296.5 93.5q186 0 291.5 -93.5t105.5 -222.5t-105 -222t-292 -93q-190 0 -296.5 93t-106.5 222z" />
<glyph unicode=";" horiz-adv-x="999" d="M72 -291l98 758h719l-285 -698zM129 950q0 129 105.5 222.5t295.5 93.5q188 0 293 -93.5t105 -222.5t-105.5 -222t-292.5 -93q-190 0 -295.5 93t-105.5 222z" />
<glyph unicode="&#x3c;" horiz-adv-x="1087" d="M72 362v431l944 358v-436l-500 -135l500 -119v-453z" />
<glyph unicode="=" horiz-adv-x="1374" d="M72 61v431h1231v-431h-1231zM72 635v430h1231v-430h-1231z" />
<glyph unicode="&#x3e;" horiz-adv-x="1087" d="M72 8v453l499 119l-499 135v436l944 -358v-431z" />
<glyph unicode="?" horiz-adv-x="1339" d="M72 963v436q240 88 516 88q291 0 485.5 -104.5t194.5 -299.5q0 -193 -271 -378h-686v126q0 59 -42 100.5t-117 41.5q-45 0 -80 -10zM229 315q0 129 105.5 222.5t296.5 93.5q188 0 292.5 -93.5t104.5 -222.5t-105.5 -222t-291.5 -93q-190 0 -296 93t-106 222z" />
<glyph unicode="@" horiz-adv-x="2770" d="M72 627q0 324 145 602h148q-164 -279 -164 -602q0 -342 178 -627h-148q-159 291 -159 627zM434 362.5q0 129.5 100.5 198t249.5 68.5q94 0 191 -29v25q0 72 -178 71q-156 0 -267 -39l-45 371q254 57 447 57q334 0 474 -135t140 -456q6 -37 37 -37q14 0 25 2v266h-58v201 h58v194h583v-194h111v-201h-111v-236q0 -33 37 -32q23 0 37 6l43 -240q-45 -61 -135 -94t-195 -33q-219 0 -319 121q-47 -53 -129 -86t-168 -33q-184 0 -250 127q-55 -55 -150.5 -87t-195.5 -32q-141 0 -236.5 63.5t-95.5 193zM883 389q0 -25 32 -24q39 0 60 16v29 q-29 12 -53 12q-39 0 -39 -33zM2390 0q180 289 180 627q0 319 -166 602h148q147 -283 147 -602q0 -330 -159 -627h-150z" />
<glyph unicode="A" horiz-adv-x="2144" d="M35 0l461 1434h1122l491 -1434h-876l-76 283h-203l-75 -283h-844zM985 481h129l-65 267z" />
<glyph unicode="B" horiz-adv-x="1857" d="M72 0v1434h1007q332 0 493 -125t161 -291q0 -86 -42 -156.5t-112 -99.5q238 -121 238 -324q0 -184 -170 -311t-519 -127h-1056zM838 418h77q90 0 91 74q0 72 -91 71h-77v-145zM838 879h77q90 0 91 73q0 72 -91 72h-77v-145z" />
<glyph unicode="C" horiz-adv-x="1878" d="M41 719q0 242 131 417t343 259t476 84q434 0 834 -222l-238 -446q-158 59 -303 59q-106 0 -168.5 -42t-62.5 -103q0 -57 50 -103.5t140 -46.5q104 0 234.5 35t191.5 68l168 -506q-201 -113 -395.5 -154t-433.5 -41q-270 0 -486.5 83t-348.5 254.5t-132 404.5z" />
<glyph unicode="D" horiz-adv-x="1992" d="M72 0v1434h895q270 0 467.5 -58.5t307 -162t160 -225.5t50.5 -269q0 -117 -30 -217.5t-101.5 -194.5t-181 -160.5t-282.5 -106.5t-392 -40h-893zM879 629h96q113 0 112 92q0 90 -112 90h-96v-182z" />
<glyph unicode="E" horiz-adv-x="1601" d="M72 0v1434h1474v-564h-631v-71h441v-164h-441v-72h646v-563h-1489z" />
<glyph unicode="F" horiz-adv-x="1587" d="M72 0v1434h1474v-564h-631v-71h523v-512h-523v-287h-843z" />
<glyph unicode="G" horiz-adv-x="1986" d="M41 719q0 238 141.5 415t356.5 261t462 84q414 0 814 -222l-238 -446q-174 68 -350 68q-127 0 -200 -58.5t-73 -134.5q0 -61 52.5 -104t148.5 -43q113 0 191 59h-197v137h776v-753h-342v165q-244 -170 -670 -170q-377 0 -624.5 210t-247.5 532z" />
<glyph unicode="H" horiz-adv-x="1986" d="M72 0v1434h843v-594h154v594h846v-1434h-846v553h-154v-553h-843z" />
<glyph unicode="I" horiz-adv-x="987" d="M72 0v1434h843v-1434h-843z" />
<glyph unicode="J" horiz-adv-x="1105" d="M35 23v294q158 18 158 119v998h841v-963q0 -135 -53 -233.5t-148.5 -152.5t-205 -78.5t-238.5 -24.5q-174 0 -354 41z" />
<glyph unicode="K" horiz-adv-x="2025" d="M72 0v1434h843v-570l170 570h906l-338 -662l338 -772h-906l-170 608v-608h-843z" />
<glyph unicode="L" horiz-adv-x="1595" d="M72 0v1434h843v-850h646v-584h-1489z" />
<glyph unicode="M" horiz-adv-x="2756" d="M35 0l219 1434h1028l72 -596l98 596h1028l242 -1434h-862l-88 809l-82 -809h-691l-88 809l-51 -809h-825z" />
<glyph unicode="N" horiz-adv-x="2119" d="M61 0v1434h998l153 -820v820h846v-1434h-999l-154 815v-815h-844z" />
<glyph unicode="O" horiz-adv-x="2342" d="M41 719q0 143 72.5 274t210 237.5t357.5 170t490.5 63.5t490.5 -63.5t357.5 -170t210 -237.5t72.5 -274q0 -141 -71.5 -271.5t-208 -236t-357.5 -167.5t-493.5 -62t-493.5 62t-357.5 167.5t-208 236t-71.5 271.5zM987 719q0 -74 49 -127t135 -53q90 0 139.5 50 t49.5 121.5t-49 126t-140 58.5q-86 0 -135 -52t-49 -124z" />
<glyph unicode="P" horiz-adv-x="1839" d="M72 0v1434h1028q170 0 298 -33t202.5 -84t120.5 -128t61.5 -151.5t15.5 -167t-27.5 -183.5t-86 -180t-171 -144.5t-264.5 -55.5h-334v-307h-843zM907 780h78q90 0 90 74q0 72 -90 72h-78v-146z" />
<glyph unicode="Q" horiz-adv-x="2490" d="M41 719q0 143 72.5 274t210 237.5t357.5 170t490.5 63.5t490.5 -63.5t357.5 -170t210 -237.5t72.5 -274q0 -201 -141 -373l288 -180l-534 -422l-412 264q-166 -27 -332 -26q-272 0 -493 62t-357.5 167.5t-208 236t-71.5 271.5zM999 719q0 -74 49.5 -127t135.5 -53 q90 0 139 50t49 121.5t-49 126t-139 58.5q-86 0 -135.5 -52t-49.5 -124z" />
<glyph unicode="R" horiz-adv-x="1976" d="M72 0v1434h1028q219 0 373.5 -44t235.5 -121t116 -164t35 -194q0 -96 -63.5 -192t-168.5 -154l314 -565h-875q-66 211 -115 348h-37v-348h-843zM905 797h78q90 0 90 73q0 72 -90 72h-78v-145z" />
<glyph unicode="S" horiz-adv-x="1718" d="M41 41l109 676q270 -168 628 -168q47 0 47 14.5t-76.5 22.5t-185 25.5t-217 52t-185.5 118.5t-77 209q0 109 44 193t119 139t181.5 91t224 50.5t256.5 14.5q131 0 260 -15.5t271.5 -42t191.5 -32.5l-102 -580q-113 45 -282 75.5t-308 30.5q-55 0 -55 -14q0 -16 82 -25.5 t198.5 -27t232 -50t197.5 -115.5t82 -206q0 -121 -48 -210t-127 -144t-198.5 -88t-244.5 -45.5t-285 -12.5q-313 1 -733 64z" />
<glyph unicode="T" horiz-adv-x="1636" d="M35 909v525h1567v-525h-365v-909h-846v909h-356z" />
<glyph unicode="U" horiz-adv-x="1976" d="M72 717v717h846v-625q0 -109 12 -166t25.5 -68.5t37.5 -11.5q23 0 37 11.5t27.5 68.5t13.5 166v625h844v-727q0 -717 -930 -717q-492 0 -702.5 186.5t-210.5 540.5z" />
<glyph unicode="V" horiz-adv-x="2144" d="M35 1434h827l199 -809l184 809h864l-491 -1434h-1122z" />
<glyph unicode="W" horiz-adv-x="3248" d="M35 1434h936l90 -809l92 809h905l109 -809l80 809h966l-460 -1434h-1059l-99 616l-71 -616h-1059z" />
<glyph unicode="X" horiz-adv-x="1929" d="M35 0l338 737l-338 697h846l82 -267l86 267h845l-338 -701l338 -733h-845l-86 266l-82 -266h-846z" />
<glyph unicode="Y" horiz-adv-x="1927" d="M35 1434h844l84 -451l86 451h843l-512 -906v-528h-845v532z" />
<glyph unicode="Z" horiz-adv-x="1601" d="M41 0v442l371 510h-316v482h1438v-482l-311 -407h338v-545h-1520z" />
<glyph unicode="[" horiz-adv-x="1107" d="M72 -369v2151h964v-340h-350v-1471h350v-340h-964z" />
<glyph unicode="\" horiz-adv-x="1648" d="M72 1573h626l879 -1755h-627z" />
<glyph unicode="]" horiz-adv-x="1107" d="M72 -29h350v1471h-350v340h964v-2151h-964v340z" />
<glyph unicode="^" horiz-adv-x="1286" d="M72 1327l358 635h430l354 -637h-444l-119 295l-135 -295z" />
<glyph unicode="_" horiz-adv-x="2170" d="M72 0v471h2027v-471h-2027z" />
<glyph unicode="a" horiz-adv-x="1699" d="M41 322q0 172 134 264t335 92q123 0 252 -39v33q0 96 -238 96q-205 0 -354 -53l-59 493q336 78 594 78q446 0 633.5 -180t187.5 -608q6 -51 47 -52q25 0 47 11l59 -322q-61 -74 -172.5 -120t-228.5 -46q-242 0 -332 170q-74 -74 -201 -116.5t-262 -42.5q-186 0 -314 86 t-128 256zM639 358q0 -35 45 -34q51 0 78 22v39q-37 16 -70 16q-53 0 -53 -43z" />
<glyph unicode="b" horiz-adv-x="1789" d="M72 45v1471h759v-318q143 45 281 45q293 0 465 -148.5t172 -451.5q0 -150 -52 -269.5t-140.5 -197.5t-208 -129t-250.5 -73.5t-275 -22.5q-352 0 -751 94zM846 626.5q0 -65.5 53 -65.5q51 0 51 65.5t-51 65.5q-53 0 -53 -65.5z" />
<glyph unicode="c" horiz-adv-x="1615" d="M41 629q0 180 76 315t207 210t282.5 110.5t323.5 35.5q375 0 631 -124l-158 -433q-125 29 -215 29q-111 0 -170.5 -39t-59.5 -92q0 -51 52.5 -89t140.5 -38q143 0 305 66l125 -457q-315 -156 -711 -156q-168 0 -311 36t-262 110.5t-187.5 207t-68.5 308.5z" />
<glyph unicode="d" horiz-adv-x="1789" d="M41 582q0 311 177 496.5t460 185.5q137 0 280 -45v297h760v-1516h-755v59q-176 -94 -359 -94q-240 0 -401.5 164t-161.5 453zM840 626.5q0 -65.5 51 -65.5q53 0 53 65.5t-53 65.5q-51 0 -51 -65.5z" />
<glyph unicode="e" horiz-adv-x="1656" d="M41 629q0 211 116.5 367.5t292 231.5t377.5 75q336 0 555.5 -198t219.5 -554h-762q18 -143 258 -143q106 0 221 27.5t178 62.5l125 -314q-127 -106 -321.5 -165.5t-405.5 -59.5q-166 0 -315.5 40t-272.5 118t-194.5 210t-71.5 302zM840 791h114q0 76 -57 76t-57 -76z" />
<glyph unicode="f" horiz-adv-x="1060" d="M35 805v268h57v123q0 174 145.5 267t348.5 93q139 0 258 -44t182 -123l-59 -158q-20 4 -31 4q-66 0 -66 -59v-103h146v-268h-146v-805h-778v805h-57z" />
<glyph unicode="g" horiz-adv-x="1748" d="M41 -227l162 540q197 -117 430 -116q145 0 293 63v45q-139 -66 -291 -65q-156 0 -274.5 43t-185 114.5t-98.5 155.5t-32 176q0 236 169 377t445 141q172 0 316 -82l45 62l657 2v-819q0 -211 -72.5 -369t-203.5 -252t-297 -140t-367 -46q-385 0 -696 170zM825 729.5 q0 -65.5 54 -65.5q51 0 51 65.5t-51 65.5q-54 0 -54 -65.5z" />
<glyph unicode="h" horiz-adv-x="1736" d="M82 0v1516h760v-347q190 78 366 78q229 0 368.5 -148.5t139.5 -455.5v-643h-798v627q0 70 -33 69q-12 0 -29 -6v-690h-774z" />
<glyph unicode="i" horiz-adv-x="944" d="M72 1606q0 129 106.5 222t296.5 93q186 0 291.5 -93t105.5 -222t-105 -222.5t-292 -93.5q-190 0 -296.5 93.5t-106.5 222.5zM78 0v1229h778v-1229h-778z" />
<glyph unicode="j" horiz-adv-x="1093" d="M72 -193l59 158q23 -10 47 -10q27 0 38 14.5t11 30.5v1229h779v-1229q0 -174 -145.5 -267t-348.5 -93q-139 0 -258 43.5t-182 123.5zM221 1606q0 129 106.5 222t297.5 93q186 0 291.5 -93t105.5 -222t-105.5 -222.5t-291.5 -93.5q-190 0 -297 93.5t-107 222.5z" />
<glyph unicode="k" horiz-adv-x="1871" d="M82 0v1516h778v-508l-20 -111l157 332h789l-285 -565l336 -664h-840l-157 389l20 -127v-262h-778z" />
<glyph unicode="l" horiz-adv-x="1036" d="M82 332v1184h778v-1020q0 -16 11.5 -30.5t37.5 -14.5q25 0 47 10l60 -322q-63 -80 -182 -124t-259 -44q-203 0 -348 93.5t-145 267.5z" />
<glyph unicode="m" horiz-adv-x="2635" d="M72 0v1229h678l41 -80q240 98 407 98q231 0 365 -145q207 145 493 145q229 0 368.5 -148.5t139.5 -455.5v-643h-799v627q0 70 -32 69q-12 0 -29 -6q2 -16 2 -47v-643h-799v627q0 70 -33 69q-14 0 -28 -6v-690h-774z" />
<glyph unicode="n" horiz-adv-x="1777" d="M72 0v1229h678l41 -80q240 98 407 98q229 0 368.5 -148.5t139.5 -455.5v-643h-799v627q0 70 -33 69q-14 0 -28 -6v-690h-774z" />
<glyph unicode="o" horiz-adv-x="1835" d="M41 610q0 213 127 369t322.5 229.5t427 73.5t427 -73.5t322.5 -229.5t127 -369q0 -160 -72.5 -286.5t-196.5 -204.5t-279.5 -118t-328 -40t-328 40t-279.5 118t-196.5 204.5t-72.5 286.5zM860 620.5q0 -65.5 51 -65.5q53 0 53.5 65.5t-53.5 65.5q-51 0 -51 -65.5z" />
<glyph unicode="p" horiz-adv-x="1773" d="M82 -287v1516h674l61 -80q223 98 371 98q246 0 408.5 -154.5t162.5 -445.5q0 -100 -13 -187t-53 -180.5t-104.5 -159t-174 -108.5t-255.5 -43q-166 0 -317 62v-318h-760zM856 626.5q0 -65.5 53 -65.5q51 0 51.5 65.5t-51.5 65.5q-53 0 -53 -65.5z" />
<glyph unicode="q" horiz-adv-x="1789" d="M41 590q0 162 52 286.5t138 203.5t209 129.5t255 70.5t286 20q371 0 737 -118v-1469h-760v301q-143 -45 -280 -45q-291 0 -464 158t-173 463zM840 626.5q0 -65.5 51 -65.5q53 0 53 65.5t-53 65.5q-51 0 -51 -65.5z" />
<glyph unicode="r" horiz-adv-x="1288" d="M72 0v1229h678l41 -80q88 88 249 88q117 0 213 -53l-161 -576q-68 39 -127 39q-61 0 -119 -39v-608h-774z" />
<glyph unicode="s" horiz-adv-x="1552" d="M72 39l92 586q238 -145 547 -146q41 0 41 12.5t-67 19.5t-161 22.5t-188 45t-160.5 102.5t-66.5 181q0 422 716 422q115 0 225.5 -13.5t234.5 -35t167 -27.5l-90 -503q-96 39 -242.5 65.5t-269.5 26.5q-47 0 -47 -13q0 -14 70.5 -22t172 -22.5t203 -43t172 -100.5 t70.5 -178q0 -129 -60.5 -218t-174 -134.5t-244.5 -63.5t-305 -18q-268 0 -635 55z" />
<glyph unicode="t" horiz-adv-x="1081" d="M35 805v268h78v258h778v-258h145v-268h-145v-313q0 -16 11 -31t38 -15q25 0 47 11l60 -322q-63 -80 -182.5 -124t-258.5 -44q-203 0 -348 93.5t-145 267.5v477h-78z" />
<glyph unicode="u" horiz-adv-x="1746" d="M41 586v643h799v-627q0 -70 32 -70q12 0 29 7v690h774v-1229h-616l-41 80q-242 -98 -443 -98q-244 0 -389 147.5t-145 456.5z" />
<glyph unicode="v" horiz-adv-x="1849" d="M35 1229h803l86 -705l86 705h805l-435 -1229h-934z" />
<glyph unicode="w" horiz-adv-x="2627" d="M35 1229h803l86 -705l106 705h565l107 -705l86 705h805l-393 -1229h-791l-109 678l-104 -678h-831z" />
<glyph unicode="x" horiz-adv-x="1806" d="M35 0l317 635l-317 594h784l82 -266l86 266h785l-318 -598l318 -631h-785l-86 266l-82 -266h-784z" />
<glyph unicode="y" horiz-adv-x="1742" d="M35 -227l141 546q236 -129 541 -129q92 0 178 17l2 37q-113 -10 -192 -11q-317 0 -492.5 144.5t-175.5 494.5v357h799v-463q0 -70 32 -70q12 0 29 6v527h774v-819q0 -211 -73.5 -366t-203.5 -240t-284 -123.5t-338 -38.5q-366 0 -737 131z" />
<glyph unicode="z" horiz-adv-x="1652" d="M72 0v258l329 490h-274v481h1438v-277l-271 -407h297v-545h-1519z" />
<glyph unicode="{" horiz-adv-x="1042" d="M72 670v90q12 2 32.5 4t71.5 16.5t90 35t72 59t33 88.5q0 78 -82 203.5t-82 219.5q0 78 29.5 135.5t72.5 83t86 41t72 17.5l31 2h438l35 -27q-143 -90 -144 -252q0 -84 61.5 -208.5t61.5 -214.5q0 -68 -57 -129.5t-115 -88.5l-57 -28q86 -25 158.5 -93.5t72.5 -156.5 q0 -84 -62.5 -210t-62.5 -212q0 -147 127 -240l-55 -41h-401q-12 0 -32 2.5t-70 17.5t-88 42t-69.5 84t-31.5 135q0 80 41 154.5t82 140.5t41 127q0 78 -75 128t-149 62z" />
<glyph unicode="|" horiz-adv-x="839" d="M72 -287v1925h696v-1925h-696z" />
<glyph unicode="}" horiz-adv-x="1042" d="M72 1638l34 27h439q12 0 31.5 -2t69.5 -17.5t88 -41t70 -83t32 -135.5q0 -94 -82 -220t-82 -203.5t74.5 -128t150.5 -62.5l74 -12v-90q-12 -2 -32.5 -4t-72 -16.5t-90.5 -35t-71.5 -59.5t-32.5 -88q0 -61 41 -127t82 -140.5t41 -154.5q0 -78 -30 -135t-73 -84t-86 -42 t-74 -17l-28 -3h-402l-55 41q127 92 127 240q0 86 -62.5 212t-62.5 210q0 88 73 156.5t159 93.5q-10 4 -25.5 11t-54.5 30.5t-70 50.5t-55.5 69t-24.5 85q0 90 61.5 215t61.5 208q0 162 -143 252z" />
<glyph unicode="~" horiz-adv-x="1447" d="M72 639q4 12 14 33.5t45 75t76 94.5t107.5 74.5t138.5 33.5q111 0 290 -54t254 -54q43 0 76 13t74 46l41 33l188 -252l-17 -34q-11 -22 -48 -75t-78 -94t-105.5 -74.5t-130.5 -33.5q-102 0 -280 55t-266 55q-27 0 -55.5 -10t-47 -20.5t-46.5 -28.5l-34 -23z" />
<glyph unicode="&#xa3;" horiz-adv-x="1529" d="M72 266q6 4 15 13.5t33.5 46t44 83t35 131.5t15.5 183h-57v268h57v123q0 117 90 202t212 122t253 37q152 0 317.5 -45.5t225.5 -122.5l-60 -158q-74 29 -129 29q-131 0 -131 -125v-62h187v-268h-187q0 -170 -61 -274q76 -33 141 -33q57 0 96 24.5t67 60.5t34 40l188 -252 l-17 -34q-11 -22 -48 -75t-78 -94t-105.5 -75t-130.5 -34q-102 0 -311 55.5t-297 55.5q-27 0 -55.5 -10t-47 -20.5t-45.5 -28.5l-34 -23z" />
<glyph unicode="&#xa5;" horiz-adv-x="2000" d="M72 1434h843l84 -451l86 451h844l-360 -635h211v-267l-363 -4v-36h363v-267h-363v-225h-846v225h-391v267h391v40h-391v267h244z" />
<glyph unicode="&#xa9;" horiz-adv-x="1910" d="M72 627q0 324 145 602h148q-164 -279 -164 -602q0 -342 178 -627h-148q-159 291 -159 627zM352 631q0 -133 51.5 -232.5t141.5 -156t197.5 -83t232.5 -26.5q293 0 532 117l-94 344q-115 -49 -229 -49q-66 0 -105 28.5t-39 65.5q0 41 44 69.5t128 28.5q59 0 162 -20 l117 323q-193 94 -473 95q-129 0 -242.5 -27t-211 -83t-155 -157.5t-57.5 -236.5zM1530 0q180 289 180 627q0 319 -166 602h148q147 -283 147 -602q0 -330 -160 -627h-149z" />
<glyph unicode="&#xad;" d="M72 348v471h901v-471h-901z" />
<glyph unicode="&#xae;" horiz-adv-x="1910" d="M72 1057q0 324 145 602h148q-164 -279 -164 -602q0 -342 178 -627h-148q-159 291 -159 627zM414 618v898h643q475 0 475 -328q0 -59 -40 -119.5t-106 -95.5l197 -355h-547q-41 131 -71 218h-25v-218h-526zM940 1137q55 2 55 45q0 16 -14 30.5t-41 14.5v-90zM1530 430 q180 289 180 627q0 319 -166 602h148q147 -283 147 -602q0 -330 -160 -627h-149z" />
<glyph unicode="&#x2000;" horiz-adv-x="980" />
<glyph unicode="&#x2001;" horiz-adv-x="1961" />
<glyph unicode="&#x2002;" horiz-adv-x="980" />
<glyph unicode="&#x2003;" horiz-adv-x="1961" />
<glyph unicode="&#x2004;" horiz-adv-x="653" />
<glyph unicode="&#x2005;" horiz-adv-x="489" />
<glyph unicode="&#x2006;" horiz-adv-x="325" />
<glyph unicode="&#x2007;" horiz-adv-x="325" />
<glyph unicode="&#x2008;" horiz-adv-x="243" />
<glyph unicode="&#x2009;" horiz-adv-x="391" />
<glyph unicode="&#x200a;" horiz-adv-x="108" />
<glyph unicode="&#x2010;" d="M72 348v471h901v-471h-901z" />
<glyph unicode="&#x2011;" d="M72 348v471h901v-471h-901z" />
<glyph unicode="&#x2012;" d="M72 348v471h901v-471h-901z" />
<glyph unicode="&#x2013;" horiz-adv-x="1495" d="M72 348v471h1351v-471h-1351z" />
<glyph unicode="&#x2014;" horiz-adv-x="2539" d="M72 348v471h2396v-471h-2396z" />
<glyph unicode="&#x2018;" horiz-adv-x="960" d="M72 1634h719l98 -757l-533 59z" />
<glyph unicode="&#x2019;" horiz-adv-x="960" d="M72 877l98 757h719l-285 -698z" />
<glyph unicode="&#x201c;" horiz-adv-x="1779" d="M72 1634h719l98 -757l-533 59zM891 1634h719l98 -757l-532 59z" />
<glyph unicode="&#x201d;" horiz-adv-x="1779" d="M72 877l98 757h719l-285 -698zM891 877l98 757h719l-285 -698z" />
<glyph unicode="&#x2022;" horiz-adv-x="1167" d="M72 655q0 213 150.5 362.5t361.5 149.5t361.5 -149.5t150.5 -362.5t-150.5 -362.5t-361.5 -149.5t-361.5 149.5t-150.5 362.5z" />
<glyph unicode="&#x2026;" horiz-adv-x="2680" d="M72 254q0 129 106.5 222t296.5 93q186 0 291.5 -93t105.5 -222t-105 -222t-292 -93q-190 0 -296.5 93t-106.5 222zM940 254q0 129 106.5 222t296.5 93q186 0 292 -93t106 -222t-105.5 -222t-292.5 -93q-190 0 -296.5 93t-106.5 222zM1808 254q0 129 106.5 222t297.5 93 q186 0 291.5 -93t105.5 -222t-105.5 -222t-291.5 -93q-190 0 -297 93t-107 222z" />
<glyph unicode="&#x202f;" horiz-adv-x="391" />
<glyph unicode="&#x205f;" horiz-adv-x="489" />
<glyph unicode="&#x20ac;" horiz-adv-x="2000" d="M72 643v64h61v30h-61v64h65q33 322 299 500t647 178q434 0 834 -222l-238 -446q-158 59 -303 59q-143 0 -202 -69h335v-64h-364v-12q0 -12 2 -18h321v-64h-294q49 -68 161 -68q104 0 234.5 35t191.5 68l168 -506q-201 -113 -395.5 -154t-433.5 -41q-254 0 -462 75 t-344 227.5t-157 363.5h-65z" />
<glyph unicode="&#x2122;" horiz-adv-x="1771" d="M72 1198v236h559v-236h-119v-317h-326v317h-114zM662 881l86 553h397l31 -232l36 232h400l88 -553h-332l-33 313l-35 -313h-264l-32 313l-19 -313h-323z" />
<glyph unicode="&#xe000;" horiz-adv-x="1230" d="M0 1230h1230v-1230h-1230v1230z" />
<glyph unicode="&#xfb01;" horiz-adv-x="2004" d="M1133 1606q0 129 106.5 222t296.5 93q186 0 291.5 -93t105.5 -222t-105 -222.5t-292 -93.5q-190 0 -296.5 93.5t-106.5 222.5zM1139 0v1229h778v-1229h-778zM35 805v268h57v123q0 174 145.5 267t348.5 93q139 0 258 -44t182 -123l-59 -158q-20 4 -31 4q-66 0 -66 -59 v-103h146v-268h-146v-805h-778v805h-57z" />
<glyph unicode="&#xfb02;" horiz-adv-x="2097" d="M1143 332v1184h778v-1020q0 -16 11.5 -30.5t37.5 -14.5q25 0 47 10l60 -322q-63 -80 -182 -124t-259 -44q-203 0 -348 93.5t-145 267.5zM35 805v268h57v123q0 174 145.5 267t348.5 93q139 0 258 -44t182 -123l-59 -158q-20 4 -31 4q-66 0 -66 -59v-103h146v-268h-146 v-805h-778v805h-57z" />
<glyph unicode="&#xfb03;" horiz-adv-x="3065" d="M2194 1606q0 129 106.5 222t296.5 93q186 0 291.5 -93t105.5 -222t-105 -222.5t-292 -93.5q-190 0 -296.5 93.5t-106.5 222.5zM2200 0v1229h778v-1229h-778zM1096 805v268h57v123q0 174 145.5 267t348.5 93q139 0 258 -44t182 -123l-59 -158q-20 4 -31 4q-66 0 -66 -59 v-103h146v-268h-146v-805h-778v805h-57zM35 805v268h57v123q0 174 145.5 267t348.5 93q139 0 258 -44t182 -123l-59 -158q-20 4 -31 4q-66 0 -66 -59v-103h146v-268h-146v-805h-778v805h-57z" />
<glyph unicode="&#xfb04;" horiz-adv-x="3158" d="M2204 332v1184h778v-1020q0 -16 11.5 -30.5t37.5 -14.5q25 0 47 10l60 -322q-63 -80 -182 -124t-259 -44q-203 0 -348 93.5t-145 267.5zM1096 805v268h57v123q0 174 145.5 267t348.5 93q139 0 258 -44t182 -123l-59 -158q-20 4 -31 4q-66 0 -66 -59v-103h146v-268h-146 v-805h-778v805h-57zM35 805v268h57v123q0 174 145.5 267t348.5 93q139 0 258 -44t182 -123l-59 -158q-20 4 -31 4q-66 0 -66 -59v-103h146v-268h-146v-805h-778v805h-57z" />
</font>
</defs>
</svg>
