<?xml version="1.0" encoding="utf-8"?>
<!-- Generator: Adobe Illustrator 19.2.0, SVG Export Plug-In . SVG Version: 6.00 Build 0)  -->
<svg version="1.1" id="Layer_1" xmlns="http://www.w3.org/2000/svg" xmlns:xlink="http://www.w3.org/1999/xlink" x="0px" y="0px"
	 viewBox="0 0 60.4 67.6" style="enable-background:new 0 0 60.4 67.6;" xml:space="preserve">
<style type="text/css">
	.st0{fill:#CEE5FF;}
</style>
<path class="st0" d="M34.9,36.4l-4.6,2.6l-4.6-2.7v-5.3l4.6-2.7l4.6,2.7V36.4z M58.5,15.2l-4.6,2.6l0.2-3.2l-3.8-0.2L50,20.2
	L46.9,22l0.5-7.7L43.6,14L43,24.3L36.7,28L32,25.3V18l8.6-5.7l-2.1-3.1L32,13.4V9.8l4.8-3.2l-2.1-3.1l-2.6,1.9V0h-3.8v5.2l-2.7-1.8
	l-2.1,3.1l4.8,3.2v3.6l-6.4-4.3l-2.1,3.1l8.6,5.7v7.3L23.7,28l-6.3-3.7l-0.7-10.3L13,14.2l0.5,7.7l-3.1-1.8L10,14.4l-3.7,0.2
	l0.2,3.2l-4.6-2.6L0,18.5l4.6,2.6l-2.9,1.4l1.6,3.4l5.2-2.6l3.1,1.8l-7,3.4L6.3,32l9.2-4.6l6.3,3.7v5.3l-6.3,3.7l-9.2-4.6l-1.6,3.4
	l7,3.5l-3.1,1.8l-5.2-2.6l-1.6,3.4l2.9,1.4L0,49l1.9,3.2l4.6-2.6l-0.2,3.2L10,53l0.4-5.8l3.1-1.8L13,53.2l3.8,0.2l0.7-10.3l6.3-3.7
	l4.6,2.7v7.3l-8.6,5.7l2.1,3.1l6.4-4.3v3.7L23.5,61l2.1,3.1l2.7-1.8v5.2h3.8v-5.2l2.7,1.8l2.1-3.1l-4.8-3.2v-3.6l6.4,4.3l2.1-3.1
	l-8.6-5.7v-7.3l4.6-2.7l6.3,3.7l0.7,10.3l3.8-0.2L47,45.6l3.1,1.8l0.4,5.8l3.8-0.2L54,49.7l4.6,2.6l1.9-3.2l-4.6-2.6l2.9-1.4
	l-1.6-3.4L52,44.1l-3.1-1.8l7-3.4l-1.6-3.4l-9.2,4.6l-6.3-3.7v-5.3l6.3-3.7l9.2,4.6l1.6-3.4l-7-3.4l3.1-1.8l5.2,2.6l1.6-3.4
	l-2.9-1.4l4.6-2.6L58.5,15.2z"/>
</svg>
