<svg id="Layer_1" data-name="Layer 1" xmlns="http://www.w3.org/2000/svg" viewBox="0 0 23 18.55"><defs><style>.cls-1{fill:#fff;}</style></defs><title>vimeo</title><path class="cls-1" d="M19.65,0Q23,0.09,23,3.79c0,0.16,0,.33,0,0.5q-0.15,3.14-4.68,8.56-4.68,5.68-7.94,5.69-2,0-3.38-3.48L6,11.89,5.1,8.72q-1-3.45-2.21-3.45a7.19,7.19,0,0,0-1.79,1L0,5,1.69,3.58,3.36,2.18A8.2,8.2,0,0,1,6.77.25H7.08q2.4,0,3,3.45,0.33,2,.55,3.2T11,8.59q0.79,3.26,1.71,3.27,0.7,0,2.17-2.12a8.56,8.56,0,0,0,1.54-3.23,2.73,2.73,0,0,0,0-.4,1.32,1.32,0,0,0-1.56-1.42,5,5,0,0,0-1.7.33q1.62-5,6.23-5h0.26Z"/></svg>