<svg id="Layer_1" data-name="Layer 1" xmlns="http://www.w3.org/2000/svg" viewBox="0 0 23 16.35"><defs><style>.cls-1{fill:#fff;}</style></defs><title>youtube</title><path class="cls-1" d="M15.42,8.71L10,11.64a0.61,0.61,0,0,1-1-.58V5.3a0.61,0.61,0,0,1,1-.58l5.42,2.93a0.55,0.55,0,0,1,0,1.06M22.6,2.76A2.9,2.9,0,0,0,20.12.51,77.52,77.52,0,0,0,11.5,0,77.92,77.92,0,0,0,2.89.51,2.9,2.9,0,0,0,.41,2.76,24.47,24.47,0,0,0,0,8.18a24.47,24.47,0,0,0,.4,5.41,2.9,2.9,0,0,0,2.49,2.25,77.61,77.61,0,0,0,8.61.51,78,78,0,0,0,8.61-.51,2.9,2.9,0,0,0,2.49-2.25A24.47,24.47,0,0,0,23,8.18a24.32,24.32,0,0,0-.4-5.41"/></svg>