<?xml version="1.0" standalone="no"?>
<!DOCTYPE svg PUBLIC "-//W3C//DTD SVG 1.1//EN" "http://www.w3.org/Graphics/SVG/1.1/DTD/svg11.dtd" >
<svg xmlns="http://www.w3.org/2000/svg">
<metadata>
This is a custom SVG webfont generated by Font Squirrel.
Copyright   : Copyright URW copyright 1999 by URW Design  Development Cyrillic glyphs added by Valek Filippov copyright 20012002 Vietnamese characters were added by Han The Thanh copyright 2006 2008 for TeX Gyre extensions by B Jackowski and JM Nowacki on behalf of TeX users groups This work is released under the GUST Font License   see httptugorgfontslicensesGUSTFONTLICENSEtxt for details
</metadata>
<defs>
<font id="webfont2wn1PO08" horiz-adv-x="1515" >
<font-face units-per-em="2048" ascent="1655" descent="-393" />
<missing-glyph horiz-adv-x="567" />
<glyph unicode="IJ" horiz-adv-x="1370" d="M129 0v1513h152v-1513h-152zM432 358h150q8 -115 76.5 -181t181.5 -66q250 0 250 362v1040h151v-1040q0 -250 -103.5 -376t-299.5 -126q-180 0 -288 102.5t-118 284.5z" />
<glyph unicode="ij" horiz-adv-x="825" d="M129 0v1120h152v-1120h-152zM129 1243v258h152v-258h-152zM317 -248q127 8 177.5 80t50.5 246v1042h151v-1042q0 -240 -93 -351.5t-286 -119.5v145zM545 1243v258h151v-258h-151z" />
<glyph unicode="fk" horiz-adv-x="1611" d="M33 983v137h174q-6 393 430 393v-137q-156 0 -218.5 -58t-60.5 -198h279v-137h-279v-983h-151v983h-174zM713 0v1513h151v-1073l522 680h187l-436 -563l465 -557h-189l-373 449l-176 -218v-231h-151z" />
<glyph unicode="&#xfb00;" horiz-adv-x="1175" d="M33 983v137h174q-6 393 430 393v-137q-156 0 -218.5 -58t-60.5 -198h355q-6 393 430 393v-137q-156 0 -218.5 -58t-60.5 -198h279v-137h-279v-983h-151v983h-355v-983h-151v983h-174z" />
<glyph unicode="&#xfb01;" horiz-adv-x="997" d="M33 983v137h174q-6 393 430 393v-137q-156 0 -218.5 -58t-60.5 -198h279v-137h-279v-983h-151v983h-174zM717 0v1120h151v-1120h-151zM717 1243v258h151v-258h-151z" />
<glyph unicode="&#xfb02;" horiz-adv-x="993" d="M33 983v137h174q-6 393 430 393v-137q-156 0 -218.5 -58t-60.5 -198h279v-137h-279v-983h-151v983h-174zM713 0v1513h151v-1513h-151z" />
<glyph unicode="&#xfb03;" horiz-adv-x="1499" d="M33 983v137h174q-6 393 430 393v-137q-156 0 -218.5 -58t-60.5 -198h355q-6 393 430 393v-137q-156 0 -218.5 -58t-60.5 -198h279v-137h-279v-983h-151v983h-355v-983h-151v983h-174zM1219 0v1120h151v-1120h-151zM1219 1243v258h151v-258h-151z" />
<glyph unicode="&#xfb04;" horiz-adv-x="1499" d="M33 983v137h174q-6 393 430 393v-137q-156 0 -218.5 -58t-60.5 -198h355q-6 393 430 393v-137q-156 0 -218.5 -58t-60.5 -198h279v-137h-279v-983h-151v983h-355v-983h-151v983h-174zM1219 0v1513h151v-1513h-151z" />
<glyph unicode=" "  horiz-adv-x="567" />
<glyph unicode="&#x09;" horiz-adv-x="567" />
<glyph unicode="&#xa0;" horiz-adv-x="567" />
<glyph unicode="!" horiz-adv-x="604" d="M227 0v258h152v-258h-152zM227 403v1110h152v-1110h-152z" />
<glyph unicode="&#x22;" horiz-adv-x="632" d="M152 1051v462h102v-462h-102zM383 1051v462h102v-462h-102z" />
<glyph unicode="#" horiz-adv-x="1134" d="M10 485v125h228l59 318h-254v125h276l87 460h131l-84 -460h333l82 460h138l-84 -460h202v-125h-225l-57 -318h252v-125h-277l-88 -485h-135l88 485h-336l-92 -485h-133l92 485h-203zM371 610h334l59 318h-334z" />
<glyph unicode="$" horiz-adv-x="1134" d="M154 467h141q0 -131 74.5 -207t197.5 -76q115 0 188.5 78t73.5 197q0 125 -86 198q-57 47 -190 86q-115 35 -171 67t-97 83q-80 96 -80 237q0 139 80 236.5t217 124.5v168h135v-168q152 -23 242 -122t90 -249h-144q0 113 -65.5 177.5t-172 64.5t-169 -65.5t-62.5 -178.5 q0 -94 52.5 -144t197.5 -97q190 -61 262 -134q113 -106 113 -280q0 -162 -96.5 -274.5t-247.5 -129.5v-174h-135v174q-348 64 -348 408z" />
<glyph unicode="%" horiz-adv-x="1587" d="M27 1174q0 152 105.5 256t256.5 104q145 0 250.5 -106.5t105.5 -253.5q0 -150 -105 -255.5t-255 -105.5q-147 0 -252.5 105.5t-105.5 255.5zM162 1174q0 -92 65.5 -159t157.5 -67q90 0 155.5 65.5t65.5 160.5q0 92 -64.5 158.5t-154.5 66.5q-94 0 -159.5 -65.5 t-65.5 -159.5zM373 0l680 1513h151l-684 -1513h-147zM821 332q0 152 105.5 256t257.5 104q145 0 250.5 -106.5t105.5 -251.5q0 -150 -105.5 -255.5t-254.5 -105.5q-147 0 -253 106t-106 253zM958 332q0 -92 66 -157.5t156 -65.5t155.5 65.5t65.5 157.5t-64.5 158.5 t-154.5 66.5q-94 0 -159 -65.5t-65 -159.5z" />
<glyph unicode="&#x26;" horiz-adv-x="1550" d="M117 436q0 150 83 253.5t265 197.5q-94 98 -131 168.5t-37 148.5q0 141 104.5 238.5t253.5 97.5q158 0 261.5 -98.5t103.5 -247.5q0 -121 -60.5 -192.5t-234.5 -159.5l287 -283l221 426h168l-279 -534l383 -373l-104 -105l-350 340q-90 -178 -199 -259t-258 -81 q-205 0 -341 134t-136 329zM266 420q0 -129 92.5 -219t225.5 -90q109 0 190.5 71.5t163.5 239.5l-365 356q-168 -82 -237.5 -162.5t-69.5 -195.5zM449 1208q0 -106 165 -258q135 51 199 113.5t64 142.5q0 84 -62.5 140.5t-155.5 56.5q-88 0 -149 -56.5t-61 -138.5z" />
<glyph unicode="'" horiz-adv-x="405" d="M152 1051v462h102v-462h-102z" />
<glyph unicode="(" horiz-adv-x="755" d="M117 633q0 283 156.5 537.5t412.5 342.5v-129q-199 -119 -308.5 -327.5t-109.5 -423.5q0 -223 107.5 -427t310.5 -329v-133q-244 90 -406.5 347t-162.5 542z" />
<glyph unicode=")" horiz-adv-x="755" d="M70 -125q199 115 308 326t109 426q0 221 -108.5 427t-308.5 326v133q242 -86 405.5 -345t163.5 -543q0 -283 -156.5 -538t-412.5 -343v131z" />
<glyph unicode="*" horiz-adv-x="870" d="M131 1194v100h215l-115 189l101 57l108 -184l107 184l96 -57l-117 -189h211v-100h-209l113 -180l-96 -56l-109 187l-108 -187l-99 58l117 178h-215z" />
<glyph unicode="+" horiz-adv-x="1241" d="M129 436v152h416v416h151v-416h416v-152h-416v-416h-151v416h-416z" />
<glyph unicode="," horiz-adv-x="567" d="M186 -137l181 395h151l-180 -395h-152z" />
<glyph unicode="-" horiz-adv-x="679" d="M63 477v129h555v-129h-555z" />
<glyph unicode="." horiz-adv-x="567" d="M207 0v258h151v-258h-151z" />
<glyph unicode="/" horiz-adv-x="894" d="M82 -262l588 1775h143l-594 -1775h-137z" />
<glyph unicode="0" horiz-adv-x="1134" d="M61 551v430q0 276 134.5 417.5t371.5 141.5q233 0 370.5 -139t137.5 -420v-430q0 -578 -495 -578q-246 0 -382.5 142.5t-136.5 435.5zM211 575q0 -252 93 -358t269 -106q182 0 267.5 108.5t85.5 355.5v371q0 219 -80 338t-277 119q-176 0 -267 -106.5t-91 -350.5v-371z " />
<glyph unicode="1" horiz-adv-x="1134" d="M317 1376v137h408v-1513h-150v1376h-258z" />
<glyph unicode="2" horiz-adv-x="1134" d="M68 0v137l530 512q82 78 118 115t84 96.5t66.5 112.5t18.5 114q0 137 -92.5 226.5t-235.5 89.5q-152 0 -240 -98.5t-88 -280.5h-149q0 240 130 378t349 138q207 0 342 -130t135 -331q0 -121 -59 -223t-219 -254l-486 -465h756v-137h-960z" />
<glyph unicode="3" horiz-adv-x="1134" d="M68 473h149q0 -180 95.5 -271t240.5 -91q139 0 233.5 98t94.5 242q0 119 -72 212t-184 119q-49 10 -176 13v135l34 -2q18 -2 39 -2q119 0 188.5 64.5t69.5 172.5q0 106 -63.5 173t-165.5 67q-111 0 -172.5 -69.5t-61.5 -196.5h-149q0 184 105.5 293.5t277.5 109.5 q168 0 274.5 -107.5t106.5 -275.5q0 -182 -156 -291q256 -129 256 -407q0 -205 -137 -345.5t-338 -140.5q-211 0 -350 136.5t-139 363.5z" />
<glyph unicode="4" horiz-adv-x="1134" d="M25 276v138l737 1099h178v-1099h139v-138h-139v-276h-149v276h-766zM199 414h592v891z" />
<glyph unicode="5" horiz-adv-x="1134" d="M53 475h148q20 -162 121.5 -263t244.5 -101q152 0 257.5 113.5t105.5 279.5t-104.5 277.5t-258.5 111.5q-176 0 -313 -170l-117 45l135 745h682v-137h-561l-74 -418q129 72 261 72q211 0 356 -152.5t145 -373.5q0 -223 -147.5 -377t-360.5 -154q-207 0 -347 133t-173 369 z" />
<glyph unicode="6" horiz-adv-x="1134" d="M51 500q0 113 36 205t144 251l375 557h174l-356 -526q94 43 178 43q201 0 341 -151.5t140 -368.5q0 -231 -144 -384t-366 -153q-223 0 -372.5 151t-149.5 376zM203 508q0 -172 105.5 -284.5t264.5 -112.5q156 0 257.5 111.5t101.5 281.5t-102.5 279.5t-260.5 109.5 q-156 0 -261 -110.5t-105 -274.5z" />
<glyph unicode="7" horiz-adv-x="1134" d="M131 1376v137h873v-137l-619 -1376h-160l623 1376h-717z" />
<glyph unicode="8" horiz-adv-x="1134" d="M86 440q0 283 256 406q-176 106 -176 303q0 168 115.5 279.5t287.5 111.5q174 0 287 -110.5t113 -280.5q0 -219 -181 -303q260 -115 261 -400q0 -207 -134.5 -340t-341.5 -133q-209 0 -348 133t-139 334zM238 442q0 -145 93 -238t240 -93q143 0 234.5 93t91.5 238 q0 143 -92 234.5t-236 91.5q-145 0 -238 -91.5t-93 -234.5zM317 1161q0 -109 73 -180.5t185 -71.5q102 0 172 71t70 177.5t-70.5 176t-179 69.5t-179.5 -68t-71 -174z" />
<glyph unicode="9" horiz-adv-x="1134" d="M51 1004q0 231 144.5 383.5t365.5 152.5q223 0 372.5 -150.5t149.5 -375.5q0 -113 -36.5 -205t-143.5 -252l-375 -557h-174l357 526q-94 -43 -179 -43q-201 0 -341 152t-140 369zM203 1010q0 -170 102.5 -279.5t259.5 -109.5q156 0 261.5 110.5t105.5 274.5 q0 172 -105.5 284.5t-265.5 112.5q-156 0 -257 -110.5t-101 -282.5z" />
<glyph unicode=":" horiz-adv-x="567" d="M207 0v258h151v-258h-151zM207 780v258h151v-258h-151z" />
<glyph unicode=";" horiz-adv-x="567" d="M84 -137l180 395h152l-180 -395h-152zM256 780v258h152v-258h-152z" />
<glyph unicode="&#x3c;" horiz-adv-x="1241" d="M209 455v114l774 650v-197l-606 -510l606 -510v-197z" />
<glyph unicode="=" horiz-adv-x="1241" d="M129 248v151h983v-151h-983zM129 625v151h983v-151h-983z" />
<glyph unicode="&#x3e;" horiz-adv-x="1241" d="M209 2l606 510l-606 510v197l774 -650v-114l-774 -650v197z" />
<glyph unicode="?" horiz-adv-x="1210" d="M133 1040q0 240 134 370t345 130q201 0 332 -126t131 -318q0 -98 -42 -178t-142 -170q-115 -102 -161 -179t-48 -174h-143q2 125 49 216t164 202q104 96 138 153.5t34 133.5q0 131 -88 217t-224 86q-154 0 -245 -91t-91 -272h-143zM535 0v258h151v-258h-151z" />
<glyph unicode="@" horiz-adv-x="1775" d="M145 752q0 328 228.5 558t554.5 230q291 0 497.5 -189.5t206.5 -463.5q0 -221 -145.5 -411.5t-331.5 -190.5q-72 0 -114 26.5t-66 89.5q-106 -106 -244 -106q-125 0 -203.5 85t-78.5 218q0 236 154.5 426t344.5 190q172 0 236 -141l35 103h124l-190 -570 q-41 -125 -41 -157q0 -25 19.5 -41.5t50.5 -16.5q123 0 235.5 164t112.5 334q0 231 -173 389t-431 158q-279 0 -476.5 -201t-197.5 -481q0 -283 196.5 -480.5t479 -197.5t479.5 207l82 -68q-94 -113 -246.5 -177.5t-318.5 -64.5q-326 0 -552.5 226.5t-226.5 552.5zM596 602 q0 -84 45 -136t119 -52q133 0 235 182q45 80 78 182.5t33 161.5q0 76 -41 120t-111 44q-135 0 -246.5 -157t-111.5 -345z" />
<glyph unicode="A" d="M23 0l649 1513h170l651 -1513h-166l-219 510h-705l-221 -510h-159zM461 647h588l-291 694z" />
<glyph unicode="B" horiz-adv-x="1175" d="M156 0v1513h354q272 0 395 -97t123 -296q0 -219 -168 -313q254 -102 254 -373q0 -227 -136 -330.5t-448 -103.5h-374zM307 137h207q238 0 342.5 64.5t104.5 224.5q0 82 -26 139.5t-62.5 88t-104.5 47t-126 20.5t-155 4h-180v-588zM307 862h185q213 0 297.5 56.5t84.5 200 t-80.5 200.5t-304.5 57h-182v-514z" />
<glyph unicode="C" horiz-adv-x="1665" d="M90 752q0 340 223.5 564t560.5 224q236 0 422.5 -112.5t274.5 -307.5h-170q-178 281 -520 281q-270 0 -453.5 -185.5t-183.5 -457.5q0 -266 188.5 -455.5t450.5 -189.5q164 0 284.5 66.5t241.5 217.5h168q-229 -424 -692 -424q-340 0 -567.5 223.5t-227.5 555.5z" />
<glyph unicode="D" horiz-adv-x="1523" d="M156 0v1513h356q207 0 339 -27.5t239 -90.5q344 -203 344 -643q0 -342 -221.5 -547t-649.5 -205h-407zM307 137h211q201 0 328 32t217 103q217 176 217 486q0 170 -71.5 306t-202.5 214q-162 98 -488 98h-211v-1239z" />
<glyph unicode="E" horiz-adv-x="1097" d="M156 0v1513h827v-137h-676v-542h654v-138h-654v-559h676v-137h-827z" />
<glyph unicode="F" horiz-adv-x="993" d="M156 0v1513h768v-137h-617v-547h594v-137h-594v-692h-151z" />
<glyph unicode="G" horiz-adv-x="1785" d="M90 760q0 328 232.5 554t570.5 226q248 0 444.5 -117.5t272.5 -312.5h-170q-78 137 -218.5 214t-316.5 77q-281 0 -471 -186.5t-190 -458.5q0 -270 192.5 -456.5t470.5 -186.5q219 0 394.5 132t218.5 316h-846v137h1028q-18 -295 -241.5 -510t-547.5 -215 q-348 0 -585.5 227.5t-237.5 559.5z" />
<glyph unicode="H" horiz-adv-x="1398" d="M156 0v1513h151v-665h785v665h151v-1513h-151v711h-785v-711h-151z" />
<glyph unicode="I" horiz-adv-x="462" d="M156 0v1513h151v-1513h-151z" />
<glyph unicode="J" horiz-adv-x="987" d="M23 358h149q8 -115 76.5 -181t181.5 -66q250 0 250 362v1040h151v-1040q0 -250 -103 -376t-300 -126q-180 0 -287.5 102.5t-117.5 284.5z" />
<glyph unicode="K" horiz-adv-x="1210" d="M156 0v1513h151v-870l701 870h190l-598 -737l598 -776h-190l-504 655l-197 -241v-414h-151z" />
<glyph unicode="L" horiz-adv-x="946" d="M156 0v1513h151v-1376h627v-137h-778z" />
<glyph unicode="M" horiz-adv-x="1882" d="M156 0v1513h235l551 -1288l549 1288h235v-1513h-151v1348l-569 -1348h-132l-567 1348v-1348h-151z" />
<glyph unicode="N" d="M156 0v1513h204l848 -1255v1255h152v-1513h-152l-901 1331v-1331h-151z" />
<glyph unicode="O" horiz-adv-x="1779" d="M90 766q0 315 237.5 544.5t563.5 229.5q330 0 564.5 -230.5t234.5 -553.5q0 -322 -235.5 -552.5t-563.5 -230.5q-334 0 -567.5 231.5t-233.5 561.5zM244 762q0 -268 189.5 -458.5t457.5 -190.5q264 0 454.5 189.5t190.5 451.5q0 266 -190.5 456.5t-454.5 190.5 q-262 0 -454.5 -189.5t-192.5 -449.5z" />
<glyph unicode="P" horiz-adv-x="1212" d="M156 0v1513h417q309 0 446.5 -109.5t137.5 -348.5q0 -223 -130 -333t-429 -110h-291v-612h-151zM307 750h281q225 0 320.5 70.5t95.5 234.5q0 90 -25 151.5t-59.5 94t-104.5 50t-130 21.5t-163 4h-215v-626z" />
<glyph unicode="Q" horiz-adv-x="1783" d="M90 756q0 336 234.5 560t584.5 224q348 0 578.5 -222t230.5 -558q0 -354 -252 -570q109 -78 189 -77q27 0 39 2v-142q-106 2 -180 31t-152 100q-193 -131 -455 -131q-340 0 -578.5 228.5t-238.5 554.5zM244 743q0 -72 22 -172q160 53 324 54q219 0 394 -80t374 -254 q207 199 207 469q0 272 -189.5 456.5t-470 184.5t-471 -189.5t-190.5 -468.5zM330 442q74 -139 234.5 -234t343 -95t331.5 92q-164 150 -321.5 215t-350.5 65q-128 0 -237 -43z" />
<glyph unicode="R" horiz-adv-x="1243" d="M156 0v1513h374q346 0 499 -121.5t153 -365.5q0 -201 -115 -319.5t-332 -141.5l424 -565h-188l-510 686q324 0 445.5 72.5t121.5 273.5q0 186 -120 265t-388 79h-213v-1376h-151z" />
<glyph unicode="S" horiz-adv-x="1019" d="M45 424h162q16 -150 101 -230.5t214 -80.5t214 85t85 216q0 125 -71.5 191.5t-266.5 125.5q-131 39 -184 64.5t-98 68.5q-106 100 -107 269q0 176 119 291.5t301 115.5q186 0 305 -113.5t119 -296.5h-158q0 121 -76.5 196t-193.5 75q-113 0 -187.5 -75t-74.5 -189.5 t71 -175.5q47 -41 224 -95q197 -59 280 -121q152 -113 152 -323q0 -193 -130 -321t-327 -128q-205 0 -334 123t-139 328z" />
<glyph unicode="T" horiz-adv-x="872" d="M14 1376v137h844v-137h-346v-1376h-152v1376h-346z" />
<glyph unicode="U" horiz-adv-x="1341" d="M156 569v944h151v-944q0 -457 365 -456q362 0 362 456v944h152v-944q0 -299 -138.5 -447.5t-377.5 -148.5q-238 0 -376 148.5t-138 447.5z" />
<glyph unicode="V" horiz-adv-x="1437" d="M20 1513h166l533 -1325l534 1325h164l-626 -1513h-148z" />
<glyph unicode="W" horiz-adv-x="1966" d="M20 1513h156l373 -1316l362 1316h144l362 -1316l373 1316h156l-435 -1513h-194l-336 1241l-332 -1241h-196z" />
<glyph unicode="X" horiz-adv-x="1247" d="M16 0l514 774l-485 739h178l402 -606l399 606h176l-485 -739l516 -774h-178l-428 647l-430 -647h-179z" />
<glyph unicode="Y" horiz-adv-x="1212" d="M4 1513h168l430 -847l440 847h166l-528 -1007v-506h-152v506z" />
<glyph unicode="Z" horiz-adv-x="983" d="M35 0v137l743 1239h-721v137h891v-137l-741 -1239h764v-137h-936z" />
<glyph unicode="[" horiz-adv-x="718" d="M229 336v610q0 219 111 367.5t301 199.5v-153q-150 -66 -209 -163t-59 -279v-556q0 -197 58 -297t210 -167v-154q-412 121 -412 592z" />
<glyph unicode="\" horiz-adv-x="1239" d="M172 1513h143l635 -1513h-143z" />
<glyph unicode="]" horiz-adv-x="718" d="M78 -102q152 68 210 165t58 277v557q0 195 -58.5 295t-209.5 168v153q412 -119 411 -591v-609q0 -221 -111.5 -369.5t-299.5 -199.5v154z" />
<glyph unicode="^" horiz-adv-x="1241" d="M37 369l498 1144h174l495 -1144h-166l-415 983l-420 -983h-166z" />
<glyph unicode="_" horiz-adv-x="1024" d="M0 -137h1024v-119h-1024v119z" />
<glyph unicode="`" horiz-adv-x="768" d="M74 1450l69 119l396 -238l-70 -114z" />
<glyph unicode="a" horiz-adv-x="1398" d="M86 557q0 252 169 421t421 169q283 0 442 -225v198h152v-1120h-152v197q-90 -121 -189.5 -172.5t-242.5 -51.5q-258 0 -429 167t-171 417zM240 567q0 -193 129 -323.5t319 -130.5q180 0 305 131t125 321q0 186 -127 314.5t-311 128.5q-182 0 -311 -129.5t-129 -311.5z " />
<glyph unicode="b" horiz-adv-x="1396" d="M129 0v1513h152v-585q150 219 440 219q250 0 420 -169t170 -417q0 -252 -169 -420t-423 -168q-137 0 -253 57.5t-185 162.5v-193h-152zM270 565.5q0 -186.5 130 -319.5t315 -133q188 0 315 130t127 322q0 188 -126 315.5t-314.5 127.5t-317.5 -128t-129 -314.5z" />
<glyph unicode="c" horiz-adv-x="1325" d="M86 563q0 244 174 414t426 170q188 0 339 -99.5t218 -267.5h-170q-133 227 -389 228q-186 0 -315 -130t-129 -319q0 -186 131 -316t319 -130q119 0 207 50t176 167h172q-188 -356 -549 -357q-258 0 -434 170t-176 420z" />
<glyph unicode="d" horiz-adv-x="1402" d="M86 559q0 250 171 419t425 169q270 0 440 -205v571h152v-1513h-152v203q-84 -121 -185 -175.5t-241 -54.5q-260 0 -435 168t-175 418zM240 565q0 -193 130 -322.5t322 -129.5q180 0 308 133t128 317.5t-132 314.5t-318 130q-182 0 -310 -129.5t-128 -313.5z" />
<glyph unicode="e" horiz-adv-x="1331" d="M86 565q0 244 169 413t413 169q254 0 418.5 -173t164.5 -464h-1013q8 -166 136 -281.5t300 -115.5q127 0 235.5 70.5t155.5 185.5h158q-55 -166 -208 -281t-337 -115q-248 0 -420 171t-172 421zM242 647h858q-39 168 -155 264.5t-279 96.5q-160 0 -276.5 -99.5 t-147.5 -261.5z" />
<glyph unicode="f" horiz-adv-x="643" d="M33 983v137h174v11q0 382 430 382v-137q-156 0 -218.5 -58t-60.5 -198h279v-137h-279v-983h-151v983h-174z" />
<glyph unicode="g" horiz-adv-x="1378" d="M86 555q0 254 164 423t409 169q272 0 439 -225v198h151v-919q0 -164 -23.5 -263.5t-80.5 -177.5q-152 -201 -455 -200q-211 0 -356.5 104.5t-206.5 300.5h147q84 -150 176.5 -208t235.5 -58q203 0 307.5 115.5t104.5 337.5v75q-129 -254 -428 -254q-246 0 -415 168 t-169 414zM240 567q0 -195 122.5 -324.5t307.5 -129.5q182 0 305 132t123 328q0 182 -125 308.5t-305 126.5q-186 0 -307 -124t-121 -317z" />
<glyph unicode="h" horiz-adv-x="1249" d="M129 0v1513h152v-538q119 172 356 172q225 0 354 -136.5t129 -408.5v-602h-151v602q0 203 -93.5 304.5t-252.5 101.5q-154 0 -248 -98.5t-94 -295.5v-614h-152z" />
<glyph unicode="i" horiz-adv-x="409" d="M129 0v1120h152v-1120h-152zM129 1243v258h152v-258h-152z" />
<glyph unicode="j" horiz-adv-x="415" d="M-92 -248q127 8 177 80t50 246v1042h152v-1042q0 -240 -93.5 -351.5t-285.5 -119.5v145zM135 1243v258h152v-258h-152z" />
<glyph unicode="k" horiz-adv-x="1028" d="M129 0v1513h152v-1073l522 680h186l-436 -563l465 -557h-189l-372 449l-176 -218v-231h-152z" />
<glyph unicode="l" horiz-adv-x="409" d="M129 0v1513h152v-1513h-152z" />
<glyph unicode="m" horiz-adv-x="1921" d="M129 0v1120h152v-129q63 84 135.5 120t179.5 36q125 0 213 -51.5t154 -163.5q137 217 389 217q199 0 319.5 -124t120.5 -359v-666h-152v649q0 360 -297 361q-141 0 -224 -89.5t-83 -271.5v-649h-151v653q0 178 -83 266.5t-220 88.5q-141 0 -221 -93.5t-80 -261.5v-653 h-152z" />
<glyph unicode="n" horiz-adv-x="1249" d="M129 0v1120h152v-145q141 172 360 172q221 0 350 -138.5t129 -420.5v-588h-151v588q0 420 -346 420q-160 0 -251 -96.5t-91 -295.5v-616h-152z" />
<glyph unicode="o" horiz-adv-x="1341" d="M86 567q0 246 169 413t419 167q252 0 416.5 -167t164.5 -423q0 -252 -161.5 -418t-407.5 -166q-260 0 -430 168t-170 426zM240 563q0 -197 124.5 -323.5t317.5 -126.5q182 0 301 124.5t119 317.5q0 195 -122 324t-306 129q-186 0 -310 -127.5t-124 -317.5z" />
<glyph unicode="p" horiz-adv-x="1396" d="M129 -393v1513h152v-192q145 219 440 219q250 0 420 -170t170 -420q0 -246 -172 -415t-422 -169q-287 0 -436 220v-586h-152zM270 565q0 -195 127 -323.5t320 -128.5q186 0 313 128t127 316q0 193 -127 322t-315 129q-186 0 -315.5 -128.5t-129.5 -314.5z" />
<glyph unicode="q" horiz-adv-x="1396" d="M86 559q0 250 170 419t420 169q297 0 440 -219v192h152v-1513h-152v586q-150 -219 -436 -220q-250 0 -422 169t-172 417zM240 557q0 -188 127 -316t315 -128q186 0 315 128t129 312q0 195 -127 325t-317 130q-188 0 -315 -129t-127 -322z" />
<glyph unicode="r" horiz-adv-x="616" d="M129 0v1120h152v-159q45 92 120.5 136t196.5 50v-150q-317 -31 -317 -344v-653h-152z" />
<glyph unicode="s" horiz-adv-x="794" d="M37 330h149q0 -100 58.5 -158.5t152.5 -58.5q82 0 135.5 55t53.5 139q0 82 -44 123t-173 92q-119 47 -146.5 61.5t-60.5 47.5q-84 78 -84 200q0 137 90 226.5t227 89.5t226.5 -85t89.5 -218h-154q0 78 -44 121t-120 43q-68 0 -115 -47.5t-47 -114.5q0 -96 103 -148 q41 -20 211 -90q195 -82 194 -286q0 -154 -95 -251.5t-247 -97.5q-162 0 -261 97.5t-99 259.5z" />
<glyph unicode="t" horiz-adv-x="694" d="M25 983v137h241v393h152v-393h252v-137h-252v-983h-152v983h-241z" />
<glyph unicode="u" horiz-adv-x="1245" d="M129 516v604h152v-604q0 -403 335 -403q162 0 255.5 106.5t93.5 325.5v575h151v-1120h-151v174q-109 -201 -361 -201q-475 0 -475 543z" />
<glyph unicode="v" horiz-adv-x="1134" d="M16 1120h154l393 -942l402 942h153l-471 -1120h-160z" />
<glyph unicode="w" horiz-adv-x="1701" d="M14 1120h152l356 -938l264 801h125l265 -801l364 938h148l-435 -1120h-161l-244 743l-242 -743h-164z" />
<glyph unicode="x" horiz-adv-x="983" d="M16 0l390 571l-390 549h172l304 -432l301 432h174l-392 -549l392 -571h-174l-301 449l-304 -449h-172z" />
<glyph unicode="y" horiz-adv-x="1097" d="M18 1120h166l355 -893l379 893h161l-647 -1513h-162l183 430z" />
<glyph unicode="z" horiz-adv-x="870" d="M20 0v137l619 846h-598v137h770v-129l-612 -854h651v-137h-830z" />
<glyph unicode="{" horiz-adv-x="718" d="M76 557v141q100 16 131 51t31 132v348q0 160 61 219t256 65v-137q-109 -10 -134.5 -34.5t-25.5 -110.5v-348q0 -106 -31.5 -158.5t-113.5 -83.5q-25 -8 -37 -14q109 -41 145.5 -89.5t36.5 -164.5v-348q0 -78 28 -107t109 -37l23 -2v-137q-193 2 -255 64.5t-62 220.5v348 q0 94 -31 129t-131 53z" />
<glyph unicode="|" horiz-adv-x="1376" d="M612 -256v1769h152v-1769h-152z" />
<glyph unicode="}" horiz-adv-x="718" d="M78 -121l22 2q49 4 78 14.5t41 32t15.5 40t3.5 57.5v348q0 117 36.5 165t145.5 89q-55 27 -72.5 37t-48.5 31.5t-39 43t-15 57t-7 87.5v348q0 39 -3.5 57.5t-15.5 40t-40.5 31.5t-78.5 14l-22 2v137q195 -6 256 -66.5t61 -217.5v-348q0 -96 30 -131t126 -52v-141 q-96 -16 -126 -51t-30 -131v-348q0 -160 -62.5 -221.5t-254.5 -63.5v137z" />
<glyph unicode="~" horiz-adv-x="1241" d="M104 526q74 133 140.5 189.5t152.5 56.5q57 0 158 -39l133 -55q113 -47 164 -47q96 0 195 168l90 -97q-53 -104 -131 -166.5t-156 -62.5q-57 0 -191 53l-112 45q-109 43 -150 43q-66 0 -103.5 -36.5t-103.5 -147.5z" />
<glyph unicode="&#xa1;" horiz-adv-x="604" d="M225 -393v1110h152v-1110h-152zM225 862v258h152v-258h-152z" />
<glyph unicode="&#xa2;" horiz-adv-x="1134" d="M92 782q0 193 122 324t316 151v191h136v-191q131 -18 231 -100t145 -209h-170q-96 172 -292 172q-145 0 -240.5 -95t-95.5 -241q0 -143 97 -241.5t237 -98.5q158 0 286 150h166q-41 -113 -141.5 -189.5t-222.5 -93.5v-184h-136v184q-188 14 -313 148.5t-125 322.5z" />
<glyph unicode="&#xa3;" horiz-adv-x="1134" d="M37 711v137h153q-45 109 -45 201q0 215 136.5 353t345.5 138q205 0 345 -120t163 -312h-142q-31 139 -127 217t-237 78q-147 0 -239.5 -98.5t-92.5 -253.5q0 -96 57 -203h582v-137h-440q147 -156 147 -334q0 -104 -59 -240h116q184 0 272.5 85t88.5 227q0 39 -12 100h147 q16 -63 16 -113q0 -199 -130 -317.5t-377 -118.5h-584v137h285q86 96 86 238q0 94 -40 162.5t-157 173.5h-258z" />
<glyph unicode="&#xa4;" horiz-adv-x="1134" d="M53 621q0 170 97 305l-91 86l113 110l88 -86q150 96 305 97q174 0 307 -95l89 86l110 -112l-84 -86q94 -139 94 -312q0 -182 -96 -301l86 -86l-110 -108l-84 86q-86 -57 -155 -80t-157 -23q-158 0 -307 103l-86 -86l-109 110l84 84q-94 130 -94 308zM199 618 q0 -158 106.5 -263t265.5 -105q156 0 260.5 106.5t104.5 264t-103.5 263t-259.5 105.5q-164 0 -269 -104.5t-105 -266.5z" />
<glyph unicode="&#xa5;" horiz-adv-x="1134" d="M0 1513h156l452 -843l443 843h155l-299 -565h211v-137h-284l-99 -188h369v-138h-422v-485h-150v485h-430v138h375l-100 188h-289v137h215z" />
<glyph unicode="&#xa6;" horiz-adv-x="1376" d="M612 -256v709h152v-709h-152zM612 805v708h152v-708h-152z" />
<glyph unicode="&#xa7;" horiz-adv-x="1259" d="M178 694q0 186 176 312q-78 84 -78 200q0 143 100.5 238.5t252.5 95.5q150 0 250 -83t110 -216h-145q-35 162 -215 162q-94 0 -153.5 -54.5t-59.5 -138.5q0 -119 121 -176l323 -151q223 -104 223 -291q0 -178 -155 -293q98 -104 98 -223q0 -156 -110.5 -260.5 t-274.5 -104.5q-180 0 -299 118t-125 302h139q10 -127 88 -205t197 -78q104 0 175 64.5t71 159.5q0 61 -45 109t-148 100l-293 143q-125 61 -174 120.5t-49 149.5zM317 717q0 -94 111 -148l406 -196q111 80 110 200q0 117 -125 175l-385 182q-117 -80 -117 -213z" />
<glyph unicode="&#xa8;" horiz-adv-x="755" d="M152 1243v258h151v-258h-151zM453 1243v258h151v-258h-151z" />
<glyph unicode="&#xa9;" horiz-adv-x="1529" d="M43 698q0 299 212 512t511 213t512 -213t213 -512t-213 -511t-512 -212t-511 212t-212 511zM119 698.5q0 -268.5 189.5 -458t457.5 -189.5t458.5 189.5t190.5 458t-190.5 459t-458.5 190.5t-457.5 -190.5t-189.5 -459zM305 696q0 190 136.5 316.5t344.5 126.5 q152 0 270 -70t167 -188h-129q-100 152 -306 151q-156 0 -261 -95t-105 -239q0 -137 108.5 -235t260.5 -98q96 0 166.5 35.5t142.5 117.5h129q-139 -260 -436 -260q-209 0 -348.5 126t-139.5 312z" />
<glyph unicode="&#xaa;" horiz-adv-x="755" d="M63 653v105h631v-105h-631zM63 1216.5q0 126.5 91.5 218t220.5 91.5q63 0 121.5 -30t87.5 -75v92h98v-595h-98v92q-84 -106 -211 -107q-125 0 -217.5 93.5t-92.5 220zM172 1219q0 -86 61.5 -150.5t143.5 -64.5q80 0 140.5 63t60.5 145q0 86 -60.5 149.5t-140.5 63.5 t-142.5 -62t-62.5 -144z" />
<glyph unicode="&#xab;" horiz-adv-x="870" d="M82 614l231 408l121 -66l-192 -342l192 -344l-121 -67zM432 614l236 408l120 -66l-192 -342l192 -344l-120 -67z" />
<glyph unicode="&#xac;" horiz-adv-x="1241" d="M129 625v151h983v-452h-151v301h-832z" />
<glyph unicode="&#xad;" horiz-adv-x="679" d="M63 477v129h555v-129h-555z" />
<glyph unicode="&#xae;" horiz-adv-x="1529" d="M43 698q0 299 212 512t511 213t512 -213t213 -512t-213 -511t-512 -212t-511 212t-212 511zM119 698.5q0 -268.5 189.5 -458t457.5 -189.5t458.5 189.5t190.5 458t-190.5 459t-458.5 190.5t-457.5 -190.5t-189.5 -459zM444 272v852h238q213 0 306 -70.5t93 -209.5 q0 -225 -250 -262l256 -310h-149l-330 404q207 -2 282 31.5t75 140.5q0 94 -68 132t-221 38h-115v-746h-117z" />
<glyph unicode="&#xaf;" horiz-adv-x="993" d="M152 1307v131h690v-131h-690z" />
<glyph unicode="&#xb0;" horiz-adv-x="819" d="M102 1094q0 131 91.5 221t224.5 90q127 0 213 -91t86 -222t-89 -222.5t-218 -91.5t-218.5 91.5t-89.5 224.5zM217 1092q0 -82 57.5 -139.5t135.5 -57.5q80 0 135 57.5t55 139.5t-54 139t-132 57q-82 0 -139.5 -57t-57.5 -139z" />
<glyph unicode="&#xb1;" horiz-adv-x="1241" d="M129 0v152h983v-152h-983zM129 588v151h416v416h151v-416h416v-151h-416v-299h-151v299h-416z" />
<glyph unicode="&#xb2;" horiz-adv-x="679" d="M25 590v104l333 307q115 104 143.5 144.5t28.5 99.5q0 70 -55 121t-131 51q-84 0 -136 -55t-52 -158v-10h-123q2 160 86 248t231 88q127 0 216 -84t89 -205q0 -72 -40 -137.5t-136 -153.5l-272 -248h444v-112h-626z" />
<glyph unicode="&#xb3;" horiz-adv-x="679" d="M27 899h125q6 -111 57 -162t129 -51q76 0 133 55.5t57 128.5q0 188 -266 189v110l43 -2q76 0 120 34t44 91q0 53 -37 89t-92 36q-59 0 -93 -40t-34 -117h-125q2 123 70.5 196.5t183.5 73.5q106 0 179 -70.5t73 -173.5q0 -53 -18.5 -89t-65.5 -79q143 -88 143 -244 q0 -123 -93 -212t-220 -89q-133 0 -219 86t-94 240z" />
<glyph unicode="&#xb4;" horiz-adv-x="768" d="M229 1331l396 238l69 -119l-395 -233z" />
<glyph unicode="&#xb5;" horiz-adv-x="1245" d="M129 -393v1513h152v-575q0 -141 21.5 -210t86.5 -128q102 -96 240 -96q156 0 246 106.5t90 327.5v575h151v-1120h-151v174q-102 -201 -336 -201q-227 0 -348 201v-567h-152z" />
<glyph unicode="&#xb6;" horiz-adv-x="1155" d="M76 1124q0 176 116.5 282.5t339.5 106.5h474v-1785h-154v1648h-234v-1648h-153v999q-180 18 -284.5 124.5t-104.5 272.5z" />
<glyph unicode="&#xb7;" horiz-adv-x="567" d="M156 512q0 53 37.5 91t91 38t91.5 -38t38 -91t-38 -91t-91.5 -38t-91 38t-37.5 91z" />
<glyph unicode="&#xb8;" horiz-adv-x="663" d="M166 -340l108 12q20 -68 91 -67q43 0 70.5 29.5t27.5 74.5q0 49 -28.5 79t-76.5 30q-55 0 -94 -39l-65 39l77 192h80l-34 -108l26 4q25 6 41 6q84 0 142.5 -54.5t58.5 -138.5q0 -98 -62.5 -165.5t-165.5 -67.5q-76 0 -127 47t-69 127z" />
<glyph unicode="&#xb9;" horiz-adv-x="679" d="M201 1401v112h276v-923h-123v811h-153z" />
<glyph unicode="&#xba;" horiz-adv-x="755" d="M66 653v105h624v-105h-624zM66 1221q0 123 93 214t220 91t219 -92.5t92 -216.5q0 -127 -93 -219.5t-220 -92.5q-129 0 -220 92.5t-91 223.5zM174 1217q0 -88 59.5 -149.5t145.5 -61.5q82 0 142.5 61t60.5 145q0 90 -58.5 151.5t-146.5 61.5q-84 0 -143.5 -61t-59.5 -147z " />
<glyph unicode="&#xbb;" horiz-adv-x="870" d="M82 270l192 344l-192 342l121 66l235 -408l-235 -411zM436 270l193 344l-193 342l121 66l231 -408l-231 -411z" />
<glyph unicode="&#xbc;" horiz-adv-x="1701" d="M207 1401v112h276v-923h-123v811h-153zM432 0l698 1513h113l-700 -1513h-111zM963 162v102l462 660h134v-650h86v-112h-86v-162h-123v162h-473zM1116 274h320v461z" />
<glyph unicode="&#xbd;" horiz-adv-x="1701" d="M197 1401v112h276v-923h-123v811h-153zM422 0l698 1513h113l-701 -1513h-110zM1036 0v104l334 308q115 104 143.5 144t28.5 99q0 70 -55 121t-131 51q-84 0 -136.5 -55t-52.5 -158v-10h-123q2 160 86 248t232 88q127 0 216 -84t89 -205q0 -72 -40 -137t-136 -154 l-272 -247h444v-113h-627z" />
<glyph unicode="&#xbe;" horiz-adv-x="1701" d="M27 899h125q6 -113 57 -163t129 -50q76 0 133 55.5t57 128.5q0 188 -266 189v110l43 -2q76 0 120 34t44 91q0 53 -37 89t-92 36q-59 0 -93 -40t-34 -117h-125q2 123 70.5 196.5t183.5 73.5q106 0 179 -70.5t73 -173.5q0 -53 -18.5 -89t-65.5 -79q143 -90 143 -244 q0 -123 -93 -212t-220 -89q-133 0 -222 87t-91 239zM489 0l699 1513h112l-700 -1513h-111zM963 162v102l462 660h134v-650h86v-112h-86v-162h-123v162h-473zM1116 274h320v461z" />
<glyph unicode="&#xbf;" horiz-adv-x="1210" d="M135 25q0 98 42 178t142 170q115 102 161 179t48 173h144q-2 -125 -49.5 -216t-163.5 -202q-104 -96 -138 -153.5t-34 -133.5q0 -131 88 -217t223 -86q154 0 245 91.5t91 271.5h143q0 -240 -134 -370t-345 -130q-201 0 -332 126t-131 319zM524 862v258h152v-258h-152z " />
<glyph unicode="&#xc0;" d="M23 0l649 1513h170l651 -1513h-166l-219 510h-705l-221 -510h-159zM446 1823l70 119l395 -238l-69 -115zM461 647h588l-291 694z" />
<glyph unicode="&#xc1;" d="M23 0l649 1513h170l651 -1513h-166l-219 510h-705l-221 -510h-159zM461 647h588l-291 694zM602 1704l395 238l70 -119l-395 -234z" />
<glyph unicode="&#xc2;" d="M23 0l649 1513h170l651 -1513h-166l-219 510h-705l-221 -510h-159zM395 1616l297 258h135l293 -258h-182l-176 151l-180 -151h-187zM461 647h588l-291 694z" />
<glyph unicode="&#xc3;" d="M23 0l649 1513h170l651 -1513h-166l-219 510h-705l-221 -510h-159zM461 647h588l-291 694zM461 1743q78 100 190 100q18 0 103.5 -31.5t115.5 -31.5q55 0 117 63l68 -94q-25 -41 -80 -70.5t-107 -29.5q-43 0 -135 45q-47 20 -82 20q-29 0 -48 -9t-60 -44l-15 -12z" />
<glyph unicode="&#xc4;" d="M23 0l649 1513h170l651 -1513h-166l-219 510h-705l-221 -510h-159zM461 647h588l-291 694zM530 1616v258h152v-258h-152zM831 1616v258h152v-258h-152z" />
<glyph unicode="&#xc5;" d="M23 0l649 1513h170l651 -1513h-166l-219 510h-705l-221 -510h-159zM461 647h588l-291 694zM551 1769q0 88 60.5 148.5t148.5 60.5q84 0 144.5 -61.5t60.5 -144.5q0 -86 -60.5 -146.5t-146.5 -60.5t-146.5 60t-60.5 144zM643 1769q0 -47 34 -79.5t81 -32.5t80.5 33.5 t33.5 81t-33.5 81t-80.5 33.5t-81 -34t-34 -83z" />
<glyph unicode="&#xc6;" horiz-adv-x="2031" d="M23 0l1046 1513h848v-137h-653v-542h630v-138h-630v-559h653v-137h-805v512h-555l-354 -512h-180zM653 649h459v670z" />
<glyph unicode="&#xc7;" horiz-adv-x="1665" d="M90 752q0 340 223.5 564t560.5 224q236 0 422.5 -112.5t274.5 -307.5h-170q-178 281 -520 281q-270 0 -453.5 -185.5t-183.5 -457.5q0 -266 188.5 -455.5t450.5 -189.5q164 0 284.5 66.5t241.5 217.5h168q-225 -418 -680 -424l-23 -71l27 4q25 6 41 6q84 0 142.5 -54.5 t58.5 -138.5q0 -98 -62.5 -165.5t-165.5 -67.5q-76 0 -127 47t-69 127l108 12q20 -68 91 -67q43 0 70.5 29.5t27.5 74.5q0 49 -29 79t-76 30q-55 0 -94 -39l-65 39l63 157q-313 25 -519 244.5t-206 532.5z" />
<glyph unicode="&#xc8;" horiz-adv-x="1097" d="M156 0v1513h827v-137h-676v-542h654v-138h-654v-559h676v-137h-827zM260 1823l70 119l395 -238l-70 -115z" />
<glyph unicode="&#xc9;" horiz-adv-x="1097" d="M156 0v1513h827v-137h-676v-542h654v-138h-654v-559h676v-137h-827zM414 1704l395 238l70 -119l-396 -234z" />
<glyph unicode="&#xca;" horiz-adv-x="1097" d="M156 0v1513h827v-137h-676v-542h654v-138h-654v-559h676v-137h-827zM207 1616l297 258h135l293 -258h-182l-177 151l-180 -151h-186z" />
<glyph unicode="&#xcb;" horiz-adv-x="1097" d="M156 0v1513h827v-137h-676v-542h654v-138h-654v-559h676v-137h-827zM344 1616v258h152v-258h-152zM645 1616v258h152v-258h-152z" />
<glyph unicode="&#xcc;" horiz-adv-x="462" d="M-88 1823l70 119l395 -238l-70 -115zM156 0v1513h151v-1513h-151z" />
<glyph unicode="&#xcd;" horiz-adv-x="462" d="M86 1704l395 238l70 -119l-395 -234zM156 0v1513h151v-1513h-151z" />
<glyph unicode="&#xce;" horiz-adv-x="462" d="M-131 1616l297 258h135l293 -258h-182l-176 151l-181 -151h-186zM156 0v1513h151v-1513h-151z" />
<glyph unicode="&#xcf;" horiz-adv-x="462" d="M6 1616v258h152v-258h-152zM156 0v1513h151v-1513h-151zM307 1616v258h152v-258h-152z" />
<glyph unicode="&#xd0;" horiz-adv-x="1617" d="M53 711v137h197v665h356q207 0 339 -27.5t239 -90.5q168 -100 256 -265t88 -378q0 -342 -221.5 -547t-649.5 -205h-407v711h-197zM401 137h211q201 0 328 32t217 103q217 176 217 486q0 170 -71.5 306t-202.5 214q-162 98 -488 98h-211v-528h420v-137h-420v-574z" />
<glyph unicode="&#xd1;" d="M156 0v1513h204l848 -1255v1255h152v-1513h-152l-901 1331v-1331h-151zM463 1743q78 100 190 100q18 0 103.5 -31.5t115.5 -31.5q55 0 117 63l68 -94q-25 -41 -80 -70.5t-107 -29.5q-43 0 -135 45q-47 20 -82 20q-29 0 -48 -9t-60 -44l-15 -12z" />
<glyph unicode="&#xd2;" horiz-adv-x="1779" d="M90 766q0 315 237.5 544.5t563.5 229.5q330 0 564.5 -230.5t234.5 -553.5q0 -322 -235.5 -552.5t-563.5 -230.5q-334 0 -567.5 231.5t-233.5 561.5zM244 762q0 -268 189.5 -458.5t457.5 -190.5q264 0 454.5 189.5t190.5 451.5q0 266 -190.5 456.5t-454.5 190.5 q-262 0 -454.5 -189.5t-192.5 -449.5zM582 1823l69 119l396 -238l-70 -115z" />
<glyph unicode="&#xd3;" horiz-adv-x="1779" d="M90 766q0 315 237.5 544.5t563.5 229.5q330 0 564.5 -230.5t234.5 -553.5q0 -322 -235.5 -552.5t-563.5 -230.5q-334 0 -567.5 231.5t-233.5 561.5zM244 762q0 -268 189.5 -458.5t457.5 -190.5q264 0 454.5 189.5t190.5 451.5q0 266 -190.5 456.5t-454.5 190.5 q-262 0 -454.5 -189.5t-192.5 -449.5zM735 1704l395 238l70 -119l-395 -234z" />
<glyph unicode="&#xd4;" horiz-adv-x="1779" d="M90 766q0 315 237.5 544.5t563.5 229.5q330 0 564.5 -230.5t234.5 -553.5q0 -322 -235.5 -552.5t-563.5 -230.5q-334 0 -567.5 231.5t-233.5 561.5zM244 762q0 -268 189.5 -458.5t457.5 -190.5q264 0 454.5 189.5t190.5 451.5q0 266 -190.5 456.5t-454.5 190.5 q-262 0 -454.5 -189.5t-192.5 -449.5zM528 1616l297 258h136l292 -258h-182l-176 151l-180 -151h-187z" />
<glyph unicode="&#xd5;" horiz-adv-x="1779" d="M90 766q0 315 237.5 544.5t563.5 229.5q330 0 564.5 -230.5t234.5 -553.5q0 -322 -235.5 -552.5t-563.5 -230.5q-334 0 -567.5 231.5t-233.5 561.5zM244 762q0 -268 189.5 -458.5t457.5 -190.5q264 0 454.5 189.5t190.5 451.5q0 266 -190.5 456.5t-454.5 190.5 q-262 0 -454.5 -189.5t-192.5 -449.5zM596 1743q78 100 190 100q18 0 103.5 -31.5t116.5 -31.5q55 0 116 63l68 -94q-25 -41 -80 -70.5t-106 -29.5q-43 0 -136 45q-47 20 -82 20q-29 0 -48 -9t-60 -44l-14 -12z" />
<glyph unicode="&#xd6;" horiz-adv-x="1779" d="M90 766q0 315 237.5 544.5t563.5 229.5q330 0 564.5 -230.5t234.5 -553.5q0 -322 -235.5 -552.5t-563.5 -230.5q-334 0 -567.5 231.5t-233.5 561.5zM244 762q0 -268 189.5 -458.5t457.5 -190.5q264 0 454.5 189.5t190.5 451.5q0 266 -190.5 456.5t-454.5 190.5 q-262 0 -454.5 -189.5t-192.5 -449.5zM666 1616v258h151v-258h-151zM967 1616v258h151v-258h-151z" />
<glyph unicode="&#xd7;" horiz-adv-x="1241" d="M219 217l295 295l-295 295l107 106l295 -295l294 295l107 -106l-295 -295l295 -295l-107 -106l-294 295l-295 -295z" />
<glyph unicode="&#xd8;" horiz-adv-x="1777" d="M90 758q0 330 229.5 556t563.5 226q252 0 420 -115l192 256l111 -86l-189 -252q270 -227 271 -581q0 -330 -230.5 -559.5t-562.5 -229.5q-229 0 -418 113l-192 -256l-115 84l190 254q-270 225 -270 590zM244 750q0 -274 205 -467l770 1030q-145 88 -338 88 q-268 0 -452.5 -189.5t-184.5 -461.5zM561 199q164 -86 332 -86q268 0 454.5 187t186.5 456q0 276 -203 473z" />
<glyph unicode="&#xd9;" horiz-adv-x="1341" d="M156 569v944h151v-944q0 -457 365 -456q362 0 362 456v944h152v-944q0 -299 -138.5 -447.5t-377.5 -148.5q-238 0 -376 148.5t-138 447.5zM360 1823l70 119l395 -238l-69 -115z" />
<glyph unicode="&#xda;" horiz-adv-x="1341" d="M156 569v944h151v-944q0 -457 365 -456q362 0 362 456v944h152v-944q0 -299 -138.5 -447.5t-377.5 -148.5q-238 0 -376 148.5t-138 447.5zM516 1704l395 238l70 -119l-395 -234z" />
<glyph unicode="&#xdb;" horiz-adv-x="1341" d="M156 569v944h151v-944q0 -457 365 -456q362 0 362 456v944h152v-944q0 -299 -138.5 -447.5t-377.5 -148.5q-238 0 -376 148.5t-138 447.5zM309 1616l297 258h135l293 -258h-182l-176 151l-180 -151h-187z" />
<glyph unicode="&#xdc;" horiz-adv-x="1341" d="M156 569v944h151v-944q0 -457 365 -456q362 0 362 456v944h152v-944q0 -299 -138.5 -447.5t-377.5 -148.5q-238 0 -376 148.5t-138 447.5zM444 1616v258h152v-258h-152zM745 1616v258h152v-258h-152z" />
<glyph unicode="&#xdd;" horiz-adv-x="1212" d="M4 1513h168l430 -847l440 847h166l-528 -1007v-506h-152v506zM449 1704l395 238l69 -119l-395 -234z" />
<glyph unicode="&#xde;" horiz-adv-x="1212" d="M156 0v1513h137v-272h280q309 0 446.5 -109.5t137.5 -349.5q0 -223 -130 -332.5t-429 -109.5h-291v-340h-151zM307 477h281q225 0 320.5 70.5t95.5 234.5q0 90 -25 151.5t-59.5 94.5t-104.5 50.5t-130 21.5t-163 4h-215v-627z" />
<glyph unicode="&#xdf;" horiz-adv-x="1134" d="M121 0v985q0 555 418 555q186 0 309 -122t123 -304q0 -213 -174 -317q133 -43 204.5 -143.5t71.5 -245.5q0 -186 -119.5 -310.5t-300.5 -124.5q-266 0 -381 250v-223h-151zM272 416h105q2 -133 78.5 -218t193.5 -85q115 0 193 84t78 206q0 139 -98.5 219t-270.5 80 q-25 0 -92 -4v138h18q160 0 250 75.5t90 210.5q0 121 -77.5 200t-196.5 79q-139 0 -205 -98.5t-66 -317.5v-569z" />
<glyph unicode="&#xe0;" horiz-adv-x="1398" d="M86 557q0 252 169 421t421 169q283 0 442 -225v198h152v-1120h-152v197q-90 -121 -189.5 -172.5t-242.5 -51.5q-258 0 -429 167t-171 417zM240 567q0 -193 129 -323.5t319 -130.5q180 0 305 131t125 321q0 186 -127 314.5t-311 128.5q-182 0 -311 -129.5t-129 -311.5z M367 1450l69 119l395 -238l-69 -114z" />
<glyph unicode="&#xe1;" horiz-adv-x="1398" d="M86 557q0 252 169 421t421 169q283 0 442 -225v198h152v-1120h-152v197q-90 -121 -189.5 -172.5t-242.5 -51.5q-258 0 -429 167t-171 417zM240 567q0 -193 129 -323.5t319 -130.5q180 0 305 131t125 321q0 186 -127 314.5t-311 128.5q-182 0 -311 -129.5t-129 -311.5z M520 1331l395 238l70 -119l-395 -233z" />
<glyph unicode="&#xe2;" horiz-adv-x="1398" d="M86 557q0 252 169 421t421 169q283 0 442 -225v198h152v-1120h-152v197q-90 -121 -189.5 -172.5t-242.5 -51.5q-258 0 -429 167t-171 417zM240 567q0 -193 129 -323.5t319 -130.5q180 0 305 131t125 321q0 186 -127 314.5t-311 128.5q-182 0 -311 -129.5t-129 -311.5z M313 1243l297 258h135l293 -258h-182l-176 152l-180 -152h-187z" />
<glyph unicode="&#xe3;" horiz-adv-x="1398" d="M86 557q0 252 169 421t421 169q283 0 442 -225v198h152v-1120h-152v197q-90 -121 -189.5 -172.5t-242.5 -51.5q-258 0 -429 167t-171 417zM240 567q0 -193 129 -323.5t319 -130.5q180 0 305 131t125 321q0 186 -127 314.5t-311 128.5q-182 0 -311 -129.5t-129 -311.5z M379 1370q78 100 190 100q18 0 103.5 -31.5t115.5 -31.5q55 0 117 63l68 -94q-25 -41 -80 -70.5t-107 -29.5q-43 0 -135 45q-47 20 -82 20q-29 0 -48 -9t-60 -44l-15 -12z" />
<glyph unicode="&#xe4;" horiz-adv-x="1398" d="M86 557q0 252 169 421t421 169q283 0 442 -225v198h152v-1120h-152v197q-90 -121 -189.5 -172.5t-242.5 -51.5q-258 0 -429 167t-171 417zM240 567q0 -193 129 -323.5t319 -130.5q180 0 305 131t125 321q0 186 -127 314.5t-311 128.5q-182 0 -311 -129.5t-129 -311.5z M449 1243v258h151v-258h-151zM750 1243v258h151v-258h-151z" />
<glyph unicode="&#xe5;" horiz-adv-x="1398" d="M86 557q0 252 169 421t421 169q283 0 442 -225v198h152v-1120h-152v197q-90 -121 -189.5 -172.5t-242.5 -51.5q-258 0 -429 167t-171 417zM240 567q0 -193 129 -323.5t319 -130.5q180 0 305 131t125 321q0 186 -127 314.5t-311 128.5q-182 0 -311 -129.5t-129 -311.5z M469 1391q0 88 60.5 148t148.5 60q84 0 144.5 -61t60.5 -145q0 -86 -60.5 -146.5t-146.5 -60.5t-146.5 60.5t-60.5 144.5zM561 1391q0 -47 34 -80t81 -33t81 34t34 81t-34 80.5t-81 33.5t-81 -33.5t-34 -82.5z" />
<glyph unicode="&#xe6;" horiz-adv-x="2369" d="M86 557q0 246 168 418t422 172q285 0 446 -221v194h146v-194q176 221 442 221q250 0 415 -168t165 -473h-1014q14 -168 141 -280.5t301 -112.5q129 0 234.5 68.5t152.5 183.5h158q-59 -176 -208.5 -284t-336.5 -108q-266 0 -450 215v-188h-146v188q-94 -113 -199.5 -164 t-244.5 -51q-252 0 -422 168t-170 416zM242 561q0 -188 127 -318t313 -130t315 130t129 318q0 195 -126 321t-318 126q-188 0 -314 -128.5t-126 -318.5zM1282 643h860q-31 166 -148.5 265.5t-281.5 99.5q-168 0 -286.5 -101.5t-143.5 -263.5z" />
<glyph unicode="&#xe7;" horiz-adv-x="1325" d="M86 563q0 244 174 414t426 170q188 0 339 -99.5t218 -267.5h-170q-133 227 -389 228q-186 0 -315 -130t-129 -319q0 -186 131 -316t319 -130q119 0 207 50t176 167h172q-184 -350 -532 -357l-23 -71l27 4q27 6 41 6q84 0 142 -54.5t58 -138.5q0 -98 -62 -165.5 t-165 -67.5q-76 0 -127 47t-69 127l108 12q20 -68 90 -67q43 0 70.5 29.5t27.5 74.5q0 49 -28.5 79t-75.5 30q-55 0 -94 -39l-66 39l64 159q-236 23 -390.5 188t-154.5 398z" />
<glyph unicode="&#xe8;" horiz-adv-x="1331" d="M86 565q0 244 169 413t413 169q254 0 418.5 -173t164.5 -464h-1013q8 -166 136 -281.5t300 -115.5q127 0 235.5 70.5t155.5 185.5h158q-55 -166 -208 -281t-337 -115q-248 0 -420 171t-172 421zM242 647h858q-39 168 -155 264.5t-279 96.5q-160 0 -276.5 -99.5 t-147.5 -261.5zM358 1450l70 119l395 -238l-69 -114z" />
<glyph unicode="&#xe9;" horiz-adv-x="1331" d="M86 565q0 244 169 413t413 169q254 0 418.5 -173t164.5 -464h-1013q8 -166 136 -281.5t300 -115.5q127 0 235.5 70.5t155.5 185.5h158q-55 -166 -208 -281t-337 -115q-248 0 -420 171t-172 421zM242 647h858q-39 168 -155 264.5t-279 96.5q-160 0 -276.5 -99.5 t-147.5 -261.5zM512 1331l395 238l70 -119l-395 -233z" />
<glyph unicode="&#xea;" horiz-adv-x="1331" d="M86 565q0 244 169 413t413 169q254 0 418.5 -173t164.5 -464h-1013q8 -166 136 -281.5t300 -115.5q127 0 235.5 70.5t155.5 185.5h158q-55 -166 -208 -281t-337 -115q-248 0 -420 171t-172 421zM242 647h858q-39 168 -155 264.5t-279 96.5q-160 0 -276.5 -99.5 t-147.5 -261.5zM305 1243l297 258h135l293 -258h-182l-176 152l-180 -152h-187z" />
<glyph unicode="&#xeb;" horiz-adv-x="1331" d="M86 565q0 244 169 413t413 169q254 0 418.5 -173t164.5 -464h-1013q8 -166 136 -281.5t300 -115.5q127 0 235.5 70.5t155.5 185.5h158q-55 -166 -208 -281t-337 -115q-248 0 -420 171t-172 421zM242 647h858q-39 168 -155 264.5t-279 96.5q-160 0 -276.5 -99.5 t-147.5 -261.5zM440 1243v258h152v-258h-152zM741 1243v258h152v-258h-152z" />
<glyph unicode="&#xec;" horiz-adv-x="409" d="M-115 1450l70 119l395 -238l-69 -114zM129 0v1120h152v-1120h-152z" />
<glyph unicode="&#xed;" horiz-adv-x="409" d="M59 1331l396 238l69 -119l-395 -233zM129 0v1120h152v-1120h-152z" />
<glyph unicode="&#xee;" horiz-adv-x="409" d="M-158 1243l297 258h135l293 -258h-182l-176 152l-180 -152h-187zM129 0v1120h152v-1120h-152z" />
<glyph unicode="&#xef;" horiz-adv-x="409" d="M-23 1243v258h152v-258h-152zM129 0v1120h152v-1120h-152zM279 1243v258h151v-258h-151z" />
<glyph unicode="&#xf0;" horiz-adv-x="1341" d="M86 561q0 246 161 412t400 166q84 0 197 -37q-129 131 -195 188l-178 -80l-74 95l162 71q-35 35 -67 64l-56 49l109 59q84 -61 139 -112l195 86l79 -90l-182 -80q244 -215 361.5 -395.5t117.5 -385.5q0 -264 -159.5 -431t-411.5 -167q-258 0 -428 167t-170 421zM240 563 q0 -197 124.5 -323.5t317.5 -126.5q184 0 302 124.5t118 319.5t-122 323t-306 128q-186 0 -310 -127.5t-124 -317.5z" />
<glyph unicode="&#xf1;" horiz-adv-x="1249" d="M129 0v1120h152v-145q141 172 360 172q221 0 350 -138.5t129 -420.5v-588h-151v588q0 420 -346 420q-160 0 -251 -96.5t-91 -295.5v-616h-152zM328 1370q78 100 190 100q18 0 103.5 -31.5t115.5 -31.5q55 0 117 63l68 -94q-25 -41 -80.5 -70.5t-106.5 -29.5 q-43 0 -135 45q-47 20 -82 20q-29 0 -48 -9t-60 -44l-15 -12z" />
<glyph unicode="&#xf2;" horiz-adv-x="1341" d="M86 567q0 246 169 413t419 167q252 0 416.5 -167t164.5 -423q0 -252 -161.5 -418t-407.5 -166q-260 0 -430 168t-170 426zM240 563q0 -197 124.5 -323.5t317.5 -126.5q182 0 301 124.5t119 317.5q0 195 -122 324t-306 129q-186 0 -310 -127.5t-124 -317.5zM365 1450 l69 119l395 -238l-69 -114z" />
<glyph unicode="&#xf3;" horiz-adv-x="1341" d="M86 567q0 246 169 413t419 167q252 0 416.5 -167t164.5 -423q0 -252 -161.5 -418t-407.5 -166q-260 0 -430 168t-170 426zM240 563q0 -197 124.5 -323.5t317.5 -126.5q182 0 301 124.5t119 317.5q0 195 -122 324t-306 129q-186 0 -310 -127.5t-124 -317.5zM518 1331 l395 238l70 -119l-395 -233z" />
<glyph unicode="&#xf4;" horiz-adv-x="1341" d="M86 567q0 246 169 413t419 167q252 0 416.5 -167t164.5 -423q0 -252 -161.5 -418t-407.5 -166q-260 0 -430 168t-170 426zM240 563q0 -197 124.5 -323.5t317.5 -126.5q182 0 301 124.5t119 317.5q0 195 -122 324t-306 129q-186 0 -310 -127.5t-124 -317.5zM311 1243 l297 258h135l293 -258h-182l-176 152l-180 -152h-187z" />
<glyph unicode="&#xf5;" horiz-adv-x="1341" d="M86 567q0 246 169 413t419 167q252 0 416.5 -167t164.5 -423q0 -252 -161.5 -418t-407.5 -166q-260 0 -430 168t-170 426zM240 563q0 -197 124.5 -323.5t317.5 -126.5q182 0 301 124.5t119 317.5q0 195 -122 324t-306 129q-186 0 -310 -127.5t-124 -317.5zM377 1370 q78 100 190 100q18 0 103.5 -31.5t115.5 -31.5q55 0 117 63l68 -94q-25 -41 -80 -70.5t-107 -29.5q-43 0 -135 45q-47 20 -82 20q-29 0 -48 -9t-60 -44l-15 -12z" />
<glyph unicode="&#xf6;" horiz-adv-x="1341" d="M86 567q0 246 169 413t419 167q252 0 416.5 -167t164.5 -423q0 -252 -161.5 -418t-407.5 -166q-260 0 -430 168t-170 426zM240 563q0 -197 124.5 -323.5t317.5 -126.5q182 0 301 124.5t119 317.5q0 195 -122 324t-306 129q-186 0 -310 -127.5t-124 -317.5zM446 1243v258 h152v-258h-152zM748 1243v258h151v-258h-151z" />
<glyph unicode="&#xf7;" horiz-adv-x="1241" d="M129 436v152h983v-152h-983zM492 133q0 53 37.5 91t91 38t91.5 -38t38 -91t-38 -91t-91.5 -38t-91 38t-37.5 91zM492 891q0 53 37.5 91t91 38t91.5 -38t38 -91t-38 -91t-91.5 -38t-91 38t-37.5 91z" />
<glyph unicode="&#xf8;" horiz-adv-x="1337" d="M86 557q0 246 171 418t415 172q164 0 299 -84l116 154l109 -87l-115 -151q170 -156 170 -404q0 -262 -162.5 -432t-416.5 -170q-150 0 -307 84l-107 -137l-108 82l104 137q-92 106 -130 201.5t-38 216.5zM240 545q0 -156 100 -297l549 710q-98 49 -215 50 q-184 0 -309 -133t-125 -330zM446 162q109 -49 216 -49q193 0 314.5 129t121.5 331q0 174 -101 299z" />
<glyph unicode="&#xf9;" horiz-adv-x="1245" d="M129 516v604h152v-604q0 -403 335 -403q162 0 255.5 106.5t93.5 325.5v575h151v-1120h-151v174q-109 -201 -361 -201q-475 0 -475 543zM313 1450l70 119l395 -238l-69 -114z" />
<glyph unicode="&#xfa;" horiz-adv-x="1245" d="M129 516v604h152v-604q0 -403 335 -403q162 0 255.5 106.5t93.5 325.5v575h151v-1120h-151v174q-109 -201 -361 -201q-475 0 -475 543zM467 1331l395 238l70 -119l-395 -233z" />
<glyph unicode="&#xfb;" horiz-adv-x="1245" d="M129 516v604h152v-604q0 -403 335 -403q162 0 255.5 106.5t93.5 325.5v575h151v-1120h-151v174q-109 -201 -361 -201q-475 0 -475 543zM260 1243l297 258h135l293 -258h-182l-176 152l-181 -152h-186z" />
<glyph unicode="&#xfc;" horiz-adv-x="1245" d="M129 516v604h152v-604q0 -403 335 -403q162 0 255.5 106.5t93.5 325.5v575h151v-1120h-151v174q-109 -201 -361 -201q-475 0 -475 543zM395 1243v258h152v-258h-152zM696 1243v258h152v-258h-152z" />
<glyph unicode="&#xfd;" horiz-adv-x="1097" d="M18 1120h166l355 -893l379 893h161l-647 -1513h-162l183 430zM395 1331l396 238l69 -119l-395 -233z" />
<glyph unicode="&#xfe;" horiz-adv-x="1396" d="M129 -393v1906h152v-585q145 219 440 219q250 0 420 -170t170 -420q0 -246 -172 -415t-422 -169q-287 0 -436 220v-586h-152zM270 565q0 -195 127 -323.5t320 -128.5q186 0 313 128t127 316q0 193 -127 322t-315 129q-186 0 -315.5 -128.5t-129.5 -314.5z" />
<glyph unicode="&#xff;" horiz-adv-x="1097" d="M18 1120h166l355 -893l379 893h161l-647 -1513h-162l183 430zM324 1243v258h151v-258h-151zM625 1243v258h151v-258h-151z" />
<glyph unicode="&#x100;" d="M23 0l649 1513h170l651 -1513h-166l-219 510h-705l-221 -510h-159zM412 1679v131h690v-131h-690zM461 647h588l-291 694z" />
<glyph unicode="&#x101;" horiz-adv-x="1398" d="M86 557q0 252 169 421t421 169q283 0 442 -225v198h152v-1120h-152v197q-90 -121 -189.5 -172.5t-242.5 -51.5q-258 0 -429 167t-171 417zM240 567q0 -193 129 -323.5t319 -130.5q180 0 305 131t125 321q0 186 -127 314.5t-311 128.5q-182 0 -311 -129.5t-129 -311.5z M330 1307v131h690v-131h-690z" />
<glyph unicode="&#x102;" d="M23 0l649 1513h170l651 -1513h-166l-219 510h-705l-221 -510h-159zM446 1868h132q20 -127 180 -127t180 127h131q-25 -131 -102.5 -188.5t-208.5 -57.5q-267 0 -312 246zM461 647h588l-291 694z" />
<glyph unicode="&#x103;" horiz-adv-x="1398" d="M86 557q0 252 169 421t421 169q283 0 442 -225v198h152v-1120h-152v197q-90 -121 -189.5 -172.5t-242.5 -51.5q-258 0 -429 167t-171 417zM240 567q0 -193 129 -323.5t319 -130.5q180 0 305 131t125 321q0 186 -127 314.5t-311 128.5q-182 0 -311 -129.5t-129 -311.5z M362 1495h132q20 -127 180 -127t180 127h131q-25 -131 -102.5 -188.5t-208.5 -57.5q-267 0 -312 246z" />
<glyph unicode="&#x104;" d="M23 0l649 1513h170l651 -1513q-172 -98 -172 -256q0 -43 27.5 -73.5t68.5 -30.5q45 0 103 10v-154q-43 -8 -103 -8q-104 0 -176 76t-72 180q0 76 54 145q39 55 104 111l-219 510h-705l-221 -510h-159zM461 647h588l-291 694z" />
<glyph unicode="&#x105;" horiz-adv-x="1398" d="M86 557q0 252 169 421t421 169q283 0 442 -225v198h152v-1120q-172 -98 -172 -256q0 -43 27.5 -73.5t68.5 -30.5q45 0 102 10v-154q-43 -8 -102 -8q-104 0 -176 76t-72 180q0 135 172 256v197q-90 -121 -189.5 -172.5t-242.5 -51.5q-258 0 -429 167t-171 417zM240 567 q0 -193 129 -323.5t319 -130.5q180 0 305 131t125 321q0 186 -127 314.5t-311 128.5q-182 0 -311 -129.5t-129 -311.5z" />
<glyph unicode="&#x106;" horiz-adv-x="1665" d="M90 752q0 340 223.5 564t560.5 224q236 0 422.5 -112.5t274.5 -307.5h-170q-178 281 -520 281q-270 0 -453.5 -185.5t-183.5 -457.5q0 -266 188.5 -455.5t450.5 -189.5q164 0 284.5 66.5t241.5 217.5h168q-229 -424 -692 -424q-340 0 -567.5 223.5t-227.5 555.5z M719 1704l395 238l70 -119l-396 -234z" />
<glyph unicode="&#x107;" horiz-adv-x="1325" d="M86 563q0 244 174 414t426 170q188 0 339 -99.5t218 -267.5h-170q-133 227 -389 228q-186 0 -315 -130t-129 -319q0 -186 131 -316t319 -130q119 0 207 50t176 167h172q-188 -356 -549 -357q-258 0 -434 170t-176 420zM530 1331l396 238l69 -119l-395 -233z" />
<glyph unicode="&#x108;" horiz-adv-x="1665" d="M90 752q0 340 223.5 564t560.5 224q236 0 422.5 -112.5t274.5 -307.5h-170q-178 281 -520 281q-270 0 -453.5 -185.5t-183.5 -457.5q0 -266 188.5 -455.5t450.5 -189.5q164 0 284.5 66.5t241.5 217.5h168q-229 -424 -692 -424q-340 0 -567.5 223.5t-227.5 555.5z M512 1616l297 258h135l293 -258h-182l-176 151l-181 -151h-186z" />
<glyph unicode="&#x109;" horiz-adv-x="1325" d="M86 563q0 244 174 414t426 170q188 0 339 -99.5t218 -267.5h-170q-133 227 -389 228q-186 0 -315 -130t-129 -319q0 -186 131 -316t319 -130q119 0 207 50t176 167h172q-188 -356 -549 -357q-258 0 -434 170t-176 420zM324 1243l297 258h135l293 -258h-183l-176 152 l-180 -152h-186z" />
<glyph unicode="&#x10a;" horiz-adv-x="1665" d="M90 752q0 340 223.5 564t560.5 224q236 0 422.5 -112.5t274.5 -307.5h-170q-178 281 -520 281q-270 0 -453.5 -185.5t-183.5 -457.5q0 -266 188.5 -455.5t450.5 -189.5q164 0 284.5 66.5t241.5 217.5h168q-229 -424 -692 -424q-340 0 -567.5 223.5t-227.5 555.5z M799 1616v258h151v-258h-151z" />
<glyph unicode="&#x10b;" horiz-adv-x="1325" d="M86 563q0 244 174 414t426 170q188 0 339 -99.5t218 -267.5h-170q-133 227 -389 228q-186 0 -315 -130t-129 -319q0 -186 131 -316t319 -130q119 0 207 50t176 167h172q-188 -356 -549 -357q-258 0 -434 170t-176 420zM610 1243v258h152v-258h-152z" />
<glyph unicode="&#x10c;" horiz-adv-x="1665" d="M90 752q0 340 223.5 564t560.5 224q236 0 422.5 -112.5t274.5 -307.5h-170q-178 281 -520 281q-270 0 -453.5 -185.5t-183.5 -457.5q0 -266 188.5 -455.5t450.5 -189.5q164 0 284.5 66.5t241.5 217.5h168q-229 -424 -692 -424q-340 0 -567.5 223.5t-227.5 555.5z M512 1874h182l176 -152l181 152h186l-297 -258h-135z" />
<glyph unicode="&#x10d;" horiz-adv-x="1325" d="M86 563q0 244 174 414t426 170q188 0 339 -99.5t218 -267.5h-170q-133 227 -389 228q-186 0 -315 -130t-129 -319q0 -186 131 -316t319 -130q119 0 207 50t176 167h172q-188 -356 -549 -357q-258 0 -434 170t-176 420zM324 1501h182l176 -151l180 151h187l-297 -258h-136 z" />
<glyph unicode="&#x10e;" horiz-adv-x="1523" d="M156 0v1513h356q207 0 339 -27.5t239 -90.5q344 -203 344 -643q0 -342 -221.5 -547t-649.5 -205h-407zM307 137h211q201 0 328 32t217 103q217 176 217 486q0 170 -71.5 306t-202.5 214q-162 98 -488 98h-211v-1239zM399 1874h183l176 -152l180 152h186l-297 -258h-135z " />
<glyph unicode="&#x10f;" horiz-adv-x="1402" d="M86 559q0 250 171 419t425 169q270 0 440 -205v571h152v-1513h-152v203q-84 -121 -185 -175.5t-241 -54.5q-260 0 -435 168t-175 418zM240 565q0 -193 130 -322.5t322 -129.5q180 0 308 133t128 317.5t-132 314.5t-318 130q-182 0 -310 -129.5t-128 -313.5zM1403 1161 l98 352h152l-99 -352h-151z" />
<glyph unicode="&#x110;" horiz-adv-x="1617" d="M53 711v137h197v665h356q207 0 339 -27.5t239 -90.5q168 -100 256 -265t88 -378q0 -342 -221.5 -547t-649.5 -205h-407v711h-197zM401 137h211q201 0 328 32t217 103q217 176 217 486q0 170 -71.5 306t-202.5 214q-162 98 -488 98h-211v-528h420v-137h-420v-574z" />
<glyph unicode="&#x111;" horiz-adv-x="1402" d="M86 559q0 250 171 419t425 169q270 0 440 -205v291h-311v129h311v151h152v-151h129v-129h-129v-1233h-152v203q-84 -121 -185 -175.5t-241 -54.5q-260 0 -435 168t-175 418zM240 567q0 -195 129 -324.5t323 -129.5q180 0 308 133t128 317.5t-132 314.5t-318 130 q-182 0 -310 -129.5t-128 -311.5z" />
<glyph unicode="&#x112;" horiz-adv-x="1097" d="M156 0v1513h827v-137h-676v-542h654v-138h-654v-559h676v-137h-827zM225 1679v131h690v-131h-690z" />
<glyph unicode="&#x113;" horiz-adv-x="1331" d="M86 565q0 244 169 413t413 169q254 0 418.5 -173t164.5 -464h-1013q8 -166 136 -281.5t300 -115.5q127 0 235.5 70.5t155.5 185.5h158q-55 -166 -208 -281t-337 -115q-248 0 -420 171t-172 421zM242 647h858q-39 168 -155 264.5t-279 96.5q-160 0 -276.5 -99.5 t-147.5 -261.5zM322 1307v131h690v-131h-690z" />
<glyph unicode="&#x114;" horiz-adv-x="1097" d="M156 0v1513h827v-137h-676v-542h654v-138h-654v-559h676v-137h-827zM258 1868h131q20 -127 180 -127t181 127h131q-25 -131 -103 -188.5t-209 -57.5q-266 0 -311 246z" />
<glyph unicode="&#x115;" horiz-adv-x="1331" d="M86 565q0 244 169 413t413 169q254 0 418.5 -173t164.5 -464h-1013q8 -166 136 -281.5t300 -115.5q127 0 235.5 70.5t155.5 185.5h158q-55 -166 -208 -281t-337 -115q-248 0 -420 171t-172 421zM242 647h858q-39 168 -155 264.5t-279 96.5q-160 0 -276.5 -99.5 t-147.5 -261.5zM354 1495h131q20 -127 180 -127t181 127h131q-25 -131 -102.5 -188.5t-208.5 -57.5q-267 0 -312 246z" />
<glyph unicode="&#x116;" horiz-adv-x="1097" d="M156 0v1513h827v-137h-676v-542h654v-138h-654v-559h676v-137h-827zM494 1616v258h151v-258h-151z" />
<glyph unicode="&#x117;" horiz-adv-x="1331" d="M86 565q0 244 169 413t413 169q254 0 418.5 -173t164.5 -464h-1013q8 -166 136 -281.5t300 -115.5q127 0 235.5 70.5t155.5 185.5h158q-55 -166 -208 -281t-337 -115q-248 0 -420 171t-172 421zM242 647h858q-39 168 -155 264.5t-279 96.5q-160 0 -276.5 -99.5 t-147.5 -261.5zM592 1243v258h151v-258h-151z" />
<glyph unicode="&#x118;" horiz-adv-x="1097" d="M156 0v1513h827v-137h-676v-542h654v-138h-654v-559h676v-137q-172 -98 -172 -256q0 -43 27.5 -73.5t68.5 -30.5q45 0 103 10v-154q-43 -8 -103 -8q-104 0 -176 76t-72 180q0 135 172 256h-675z" />
<glyph unicode="&#x119;" horiz-adv-x="1331" d="M86 565q0 244 169 413t413 169q254 0 418.5 -173t164.5 -464h-1013q8 -166 136 -281.5t300 -115.5q127 0 235.5 70.5t155.5 185.5h158q-33 -96 -101.5 -179.5t-163.5 -138.5q-250 -143 -249 -307q0 -43 27.5 -73.5t68.5 -30.5q45 0 102 10v-154q-43 -8 -102 -8 q-104 0 -176 76t-72 180q0 121 137 229h-16q-248 0 -420 171t-172 421zM242 647h858q-39 168 -155 264.5t-279 96.5q-160 0 -276.5 -99.5t-147.5 -261.5z" />
<glyph unicode="&#x11a;" horiz-adv-x="1097" d="M156 0v1513h827v-137h-676v-542h654v-138h-654v-559h676v-137h-827zM207 1874h182l176 -152l180 152h187l-297 -258h-135z" />
<glyph unicode="&#x11b;" horiz-adv-x="1331" d="M86 565q0 244 169 413t413 169q254 0 418.5 -173t164.5 -464h-1013q8 -166 136 -281.5t300 -115.5q127 0 235.5 70.5t155.5 185.5h158q-55 -166 -208 -281t-337 -115q-248 0 -420 171t-172 421zM242 647h858q-39 168 -155 264.5t-279 96.5q-160 0 -276.5 -99.5 t-147.5 -261.5zM305 1501h182l177 -151l180 151h186l-297 -258h-135z" />
<glyph unicode="&#x11c;" horiz-adv-x="1785" d="M90 760q0 328 232.5 554t570.5 226q248 0 444.5 -117.5t272.5 -312.5h-170q-78 137 -218.5 214t-316.5 77q-281 0 -471 -186.5t-190 -458.5q0 -270 192.5 -456.5t470.5 -186.5q219 0 394.5 132t218.5 316h-846v137h1028q-18 -295 -241.5 -510t-547.5 -215 q-348 0 -585.5 227.5t-237.5 559.5zM530 1616l297 258h136l292 -258h-182l-176 151l-180 -151h-187z" />
<glyph unicode="&#x11d;" horiz-adv-x="1378" d="M86 555q0 254 164 423t409 169q272 0 439 -225v198h151v-919q0 -164 -23.5 -263.5t-80.5 -177.5q-152 -201 -455 -200q-211 0 -356.5 104.5t-206.5 300.5h147q84 -150 176.5 -208t235.5 -58q203 0 307.5 115.5t104.5 337.5v75q-129 -254 -428 -254q-246 0 -415 168 t-169 414zM240 567q0 -195 122.5 -324.5t307.5 -129.5q182 0 305 132t123 328q0 182 -125 308.5t-305 126.5q-186 0 -307 -124t-121 -317zM297 1243l297 258h135l293 -258h-182l-176 152l-181 -152h-186z" />
<glyph unicode="&#x11e;" horiz-adv-x="1785" d="M90 760q0 328 232.5 554t570.5 226q248 0 444.5 -117.5t272.5 -312.5h-170q-78 137 -218.5 214t-316.5 77q-281 0 -471 -186.5t-190 -458.5q0 -270 192.5 -456.5t470.5 -186.5q219 0 394.5 132t218.5 316h-846v137h1028q-18 -295 -241.5 -510t-547.5 -215 q-348 0 -585.5 227.5t-237.5 559.5zM582 1868h131q20 -127 180 -127t180 127h131q-25 -131 -102.5 -188.5t-208.5 -57.5q-266 0 -311 246z" />
<glyph unicode="&#x11f;" horiz-adv-x="1378" d="M86 555q0 254 164 423t409 169q272 0 439 -225v198h151v-919q0 -164 -23.5 -263.5t-80.5 -177.5q-152 -201 -455 -200q-211 0 -356.5 104.5t-206.5 300.5h147q84 -150 176.5 -208t235.5 -58q203 0 307.5 115.5t104.5 337.5v75q-129 -254 -428 -254q-246 0 -415 168 t-169 414zM240 567q0 -195 122.5 -324.5t307.5 -129.5q182 0 305 132t123 328q0 182 -125 308.5t-305 126.5q-186 0 -307 -124t-121 -317zM346 1495h131q20 -127 180 -127t181 127h131q-25 -131 -103 -188.5t-209 -57.5q-266 0 -311 246z" />
<glyph unicode="&#x120;" horiz-adv-x="1785" d="M90 760q0 328 232.5 554t570.5 226q248 0 444.5 -117.5t272.5 -312.5h-170q-78 137 -218.5 214t-316.5 77q-281 0 -471 -186.5t-190 -458.5q0 -270 192.5 -456.5t470.5 -186.5q219 0 394.5 132t218.5 316h-846v137h1028q-18 -295 -241.5 -510t-547.5 -215 q-348 0 -585.5 227.5t-237.5 559.5zM817 1616v258h152v-258h-152z" />
<glyph unicode="&#x121;" horiz-adv-x="1378" d="M86 555q0 254 164 423t409 169q272 0 439 -225v198h151v-919q0 -164 -23.5 -263.5t-80.5 -177.5q-152 -201 -455 -200q-211 0 -356.5 104.5t-206.5 300.5h147q84 -150 176.5 -208t235.5 -58q203 0 307.5 115.5t104.5 337.5v75q-129 -254 -428 -254q-246 0 -415 168 t-169 414zM240 567q0 -195 122.5 -324.5t307.5 -129.5q182 0 305 132t123 328q0 182 -125 308.5t-305 126.5q-186 0 -307 -124t-121 -317zM584 1243v258h151v-258h-151z" />
<glyph unicode="&#x122;" horiz-adv-x="1785" d="M90 760q0 328 232.5 554t570.5 226q248 0 444.5 -117.5t272.5 -312.5h-170q-78 137 -218.5 214t-316.5 77q-281 0 -471 -186.5t-190 -458.5q0 -270 192.5 -456.5t470.5 -186.5q219 0 394.5 132t218.5 316h-846v137h1028q-18 -295 -241.5 -510t-547.5 -215 q-348 0 -585.5 227.5t-237.5 559.5zM741 -461l99 352h151l-98 -352h-152z" />
<glyph unicode="&#x123;" horiz-adv-x="1378" d="M86 555q0 254 164 423t409 169q272 0 439 -225v198h151v-919q0 -164 -23.5 -263.5t-80.5 -177.5q-152 -201 -455 -200q-211 0 -356.5 104.5t-206.5 300.5h147q84 -150 176.5 -208t235.5 -58q203 0 307.5 115.5t104.5 337.5v75q-129 -254 -428 -254q-246 0 -415 168 t-169 414zM240 567q0 -195 122.5 -324.5t307.5 -129.5q182 0 305 132t123 328q0 182 -125 308.5t-305 126.5q-186 0 -307 -124t-121 -317zM535 1262l98 352h151l-98 -352h-151z" />
<glyph unicode="&#x124;" horiz-adv-x="1398" d="M156 0v1513h151v-665h785v665h151v-1513h-151v711h-785v-711h-151zM338 1616l297 258h135l293 -258h-182l-176 151l-181 -151h-186z" />
<glyph unicode="&#x125;" horiz-adv-x="1249" d="M129 0v1513h152v-538q119 172 356 172q225 0 354 -136.5t129 -408.5v-602h-151v602q0 203 -93.5 304.5t-252.5 101.5q-154 0 -248 -98.5t-94 -295.5v-614h-152zM262 1616l297 258h135l293 -258h-182l-176 151l-180 -151h-187z" />
<glyph unicode="&#x126;" horiz-adv-x="1398" d="M25 1157v131h131v225h151v-225h785v225h151v-225h137v-131h-137v-1157h-151v711h-785v-711h-151v1157h-131zM307 848h785v309h-785v-309z" />
<glyph unicode="&#x127;" horiz-adv-x="1249" d="M18 1260v131h111v122h152v-122h202v-131h-202l-2 -285q119 172 356 172q254 0 387 -174q96 -129 96 -371v-602h-151v602q0 188 -76 283q-96 123 -270 123q-184 0 -281 -140q-61 -84 -61 -254v-614h-152v1260h-109z" />
<glyph unicode="&#x128;" horiz-adv-x="462" d="M-63 1743q78 100 190 100q18 0 103 -31.5t116 -31.5q55 0 117 63l67 -94q-25 -41 -80 -70.5t-106 -29.5q-43 0 -135 45q-47 20 -82 20q-29 0 -48.5 -9t-60.5 -44l-14 -12zM156 0v1513h151v-1513h-151z" />
<glyph unicode="&#x129;" horiz-adv-x="409" d="M-92 1370q78 100 190 100q18 0 103.5 -31.5t115.5 -31.5q55 0 117 63l68 -94q-25 -41 -80 -70.5t-107 -29.5q-43 0 -135 45q-47 20 -82 20q-29 0 -48 -9t-60 -44l-15 -12zM129 0v1120h152v-1120h-152z" />
<glyph unicode="&#x12a;" horiz-adv-x="462" d="M-113 1679v131h691v-131h-691zM156 0v1513h151v-1513h-151z" />
<glyph unicode="&#x12b;" horiz-adv-x="409" d="M-141 1307v131h690v-131h-690zM129 0v1120h152v-1120h-152z" />
<glyph unicode="&#x12c;" horiz-adv-x="462" d="M-80 1868h131q20 -127 180 -127t181 127h131q-25 -131 -103 -188.5t-209 -57.5q-266 0 -311 246zM156 0v1513h151v-1513h-151z" />
<glyph unicode="&#x12d;" horiz-adv-x="409" d="M-109 1495h132q20 -127 179.5 -127t180.5 127h131q-25 -131 -102.5 -188.5t-208.5 -57.5q-267 0 -312 246zM129 0v1120h152v-1120h-152z" />
<glyph unicode="&#x12e;" horiz-adv-x="462" d="M-16 -256q0 135 172 256v1513h151v-1513q-172 -98 -172 -256q0 -43 27.5 -73.5t68.5 -30.5q45 0 103 10v-154q-43 -8 -103 -8q-104 0 -175.5 76t-71.5 180z" />
<glyph unicode="&#x12f;" horiz-adv-x="409" d="M-43 -256q0 135 172 256v1120h152v-1120q-172 -98 -172 -256q0 -43 27.5 -73.5t68.5 -30.5q45 0 102 10v-154q-43 -8 -102 -8q-104 0 -176 76t-72 180zM129 1243v258h152v-258h-152z" />
<glyph unicode="&#x130;" horiz-adv-x="462" d="M156 0v1513h151v-1513h-151zM156 1616v258h151v-258h-151z" />
<glyph unicode="&#x131;" horiz-adv-x="409" d="M129 0v1120h152v-1120h-152z" />
<glyph unicode="&#x134;" horiz-adv-x="987" d="M23 358h149q8 -115 76.5 -181t181.5 -66q250 0 250 362v1040h151v-1040q0 -250 -103 -376t-300 -126q-180 0 -287.5 102.5t-117.5 284.5zM393 1616l297 258h135l293 -258h-182l-176 151l-180 -151h-187z" />
<glyph unicode="&#x135;" horiz-adv-x="415" d="M-152 1243l297 258h136l292 -258h-182l-176 152l-180 -152h-187zM-92 -248q127 8 177 80t50 246v1042h152v-1042q0 -240 -93.5 -351.5t-285.5 -119.5v145z" />
<glyph unicode="&#x136;" horiz-adv-x="1210" d="M156 0v1513h151v-870l701 870h190l-598 -737l598 -776h-190l-504 655l-197 -241v-414h-151zM506 -461l98 352h152l-99 -352h-151z" />
<glyph unicode="&#x137;" horiz-adv-x="1028" d="M129 0v1513h152v-1073l522 680h186l-436 -563l465 -557h-189l-372 449l-176 -218v-231h-152zM403 -461l99 352h151l-98 -352h-152z" />
<glyph unicode="&#x139;" horiz-adv-x="946" d="M86 1704l395 238l70 -119l-395 -234zM156 0v1513h151v-1376h627v-137h-778z" />
<glyph unicode="&#x13a;" horiz-adv-x="409" d="M59 1704l396 238l69 -119l-395 -234zM129 0v1513h152v-1513h-152z" />
<glyph unicode="&#x13b;" horiz-adv-x="946" d="M156 0v1513h151v-1376h627v-137h-778zM393 -461l99 352h151l-98 -352h-152z" />
<glyph unicode="&#x13c;" horiz-adv-x="409" d="M53 -461l99 352h151l-98 -352h-152zM129 0v1513h152v-1513h-152z" />
<glyph unicode="&#x13d;" horiz-adv-x="946" d="M156 0v1513h151v-1376h627v-137h-778zM436 1161l99 352h151l-98 -352h-152z" />
<glyph unicode="&#x13e;" horiz-adv-x="409" d="M129 0v1513h152v-1513h-152zM410 1161l98 352h151l-98 -352h-151z" />
<glyph unicode="&#x13f;" horiz-adv-x="946" d="M156 0v1513h151v-1376h627v-137h-778zM629 655v258h151v-258h-151z" />
<glyph unicode="&#x140;" horiz-adv-x="561" d="M129 0v1513h152v-1513h-152zM410 655v258h151v-258h-151z" />
<glyph unicode="&#x141;" horiz-adv-x="1058" d="M53 459v170l197 164v720h151v-620l328 272v-172l-328 -270v-586h627v-137h-778v621z" />
<glyph unicode="&#x142;" horiz-adv-x="614" d="M74 600v148l159 108v657h152v-589l168 112v-149l-168 -111v-776h-152v709z" />
<glyph unicode="&#x143;" d="M156 0v1513h204l848 -1255v1255h152v-1513h-152l-901 1331v-1331h-151zM602 1704l395 238l70 -119l-395 -234z" />
<glyph unicode="&#x144;" horiz-adv-x="1249" d="M129 0v1120h152v-145q141 172 360 172q221 0 350 -138.5t129 -420.5v-588h-151v588q0 420 -346 420q-160 0 -251 -96.5t-91 -295.5v-616h-152zM469 1331l395 238l70 -119l-395 -233z" />
<glyph unicode="&#x145;" d="M156 0v1513h204l848 -1255v1255h152v-1513h-152l-901 1331v-1331h-151zM606 -461l99 352h151l-98 -352h-152z" />
<glyph unicode="&#x146;" horiz-adv-x="1249" d="M129 0v1120h152v-145q141 172 360 172q221 0 350 -138.5t129 -420.5v-588h-151v588q0 420 -346 420q-160 0 -251 -96.5t-91 -295.5v-616h-152zM473 -461l98 352h152l-98 -352h-152z" />
<glyph unicode="&#x147;" d="M156 0v1513h204l848 -1255v1255h152v-1513h-152l-901 1331v-1331h-151zM395 1874h183l176 -152l180 152h186l-297 -258h-135z" />
<glyph unicode="&#x148;" horiz-adv-x="1249" d="M129 0v1120h152v-145q141 172 360 172q221 0 350 -138.5t129 -420.5v-588h-151v588q0 420 -346 420q-160 0 -251 -96.5t-91 -295.5v-616h-152zM262 1501h182l177 -151l180 151h186l-297 -258h-135z" />
<glyph unicode="&#x14a;" d="M156 0v1513h204l848 -1255v1255h152v-1525q0 -250 -103.5 -376t-300.5 -126q-180 0 -287.5 102.5t-117.5 284.5h149q8 -115 77 -181.5t181 -66.5q111 0 180.5 96.5t69.5 227.5v51l-901 1331v-1331h-151z" />
<glyph unicode="&#x14b;" horiz-adv-x="1249" d="M129 0v1120h152v-145q141 172 360 172q221 0 350 -138.5t129 -420.5v-510q0 -240 -93 -351.5t-286 -119.5v145q127 8 177.5 80t50.5 246v510q0 420 -346 420q-160 0 -251 -96.5t-91 -295.5v-616h-152z" />
<glyph unicode="&#x14c;" horiz-adv-x="1779" d="M90 766q0 315 237.5 544.5t563.5 229.5q330 0 564.5 -230.5t234.5 -553.5q0 -322 -235.5 -552.5t-563.5 -230.5q-334 0 -567.5 231.5t-233.5 561.5zM244 762q0 -268 189.5 -458.5t457.5 -190.5q264 0 454.5 189.5t190.5 451.5q0 266 -190.5 456.5t-454.5 190.5 q-262 0 -454.5 -189.5t-192.5 -449.5zM547 1679v131h690v-131h-690z" />
<glyph unicode="&#x14d;" horiz-adv-x="1341" d="M86 567q0 246 169 413t419 167q252 0 416.5 -167t164.5 -423q0 -252 -161.5 -418t-407.5 -166q-260 0 -430 168t-170 426zM240 563q0 -197 124.5 -323.5t317.5 -126.5q182 0 301 124.5t119 317.5q0 195 -122 324t-306 129q-186 0 -310 -127.5t-124 -317.5zM328 1307v131 h690v-131h-690z" />
<glyph unicode="&#x14e;" horiz-adv-x="1779" d="M90 766q0 315 237.5 544.5t563.5 229.5q330 0 564.5 -230.5t234.5 -553.5q0 -322 -235.5 -552.5t-563.5 -230.5q-334 0 -567.5 231.5t-233.5 561.5zM244 762q0 -268 189.5 -458.5t457.5 -190.5q264 0 454.5 189.5t190.5 451.5q0 266 -190.5 456.5t-454.5 190.5 q-262 0 -454.5 -189.5t-192.5 -449.5zM580 1868h131q20 -127 180 -127t180 127h131q-25 -131 -102.5 -188.5t-208.5 -57.5q-266 0 -311 246z" />
<glyph unicode="&#x14f;" horiz-adv-x="1341" d="M86 567q0 246 169 413t419 167q252 0 416.5 -167t164.5 -423q0 -252 -161.5 -418t-407.5 -166q-260 0 -430 168t-170 426zM240 563q0 -197 124.5 -323.5t317.5 -126.5q182 0 301 124.5t119 317.5q0 195 -122 324t-306 129q-186 0 -310 -127.5t-124 -317.5zM360 1495h132 q20 -127 179.5 -127t180.5 127h131q-25 -131 -102.5 -188.5t-208.5 -57.5q-267 0 -312 246z" />
<glyph unicode="&#x150;" horiz-adv-x="1779" d="M90 766q0 315 237.5 544.5t563.5 229.5q330 0 564.5 -230.5t234.5 -553.5q0 -322 -235.5 -552.5t-563.5 -230.5q-334 0 -567.5 231.5t-233.5 561.5zM244 762q0 -268 189.5 -458.5t457.5 -190.5q264 0 454.5 189.5t190.5 451.5q0 266 -190.5 456.5t-454.5 190.5 q-262 0 -454.5 -189.5t-192.5 -449.5zM621 1688l350 251l78 -100l-357 -248zM1022 1688l350 251l78 -100l-356 -248z" />
<glyph unicode="&#x151;" horiz-adv-x="1341" d="M86 567q0 246 169 413t419 167q252 0 416.5 -167t164.5 -423q0 -252 -161.5 -418t-407.5 -166q-260 0 -430 168t-170 426zM240 563q0 -197 124.5 -323.5t317.5 -126.5q182 0 301 124.5t119 317.5q0 195 -122 324t-306 129q-186 0 -310 -127.5t-124 -317.5zM403 1294 l351 252l77 -100l-356 -248zM805 1294l350 252l78 -100l-356 -248z" />
<glyph unicode="&#x152;" horiz-adv-x="2445" d="M90 760q0 334 226.5 557t568.5 223q213 0 380 -85t261 -243v301h805v-137h-654v-542h631v-138h-631v-559h654v-137h-805v309q-195 -336 -615 -336q-354 0 -587.5 223.5t-233.5 563.5zM244 768q0 -283 186 -469t469 -186q272 0 450.5 184t178.5 465q0 279 -181.5 459 t-461.5 180q-274 0 -457.5 -182.5t-183.5 -450.5z" />
<glyph unicode="&#x153;" horiz-adv-x="2328" d="M86 561q0 248 167 417t411 169q326 0 505 -299q174 299 504 299q244 0 410 -162t166 -399q0 -8 -4 -78h-1000q10 -170 141.5 -282.5t301.5 -112.5q262 0 385 254h151q-43 -160 -189.5 -277t-338.5 -117q-176 0 -315.5 82t-211.5 228q-92 -162 -209.5 -236t-281.5 -74 q-250 0 -421 170t-171 418zM240 559q0 -188 126 -317t312 -129q178 0 299 129t121 317q0 193 -123 321t-307.5 128t-306 -128t-121.5 -321zM1245 645h858q-27 162 -147.5 262.5t-286.5 100.5q-156 0 -269.5 -96.5t-154.5 -266.5z" />
<glyph unicode="&#x154;" horiz-adv-x="1243" d="M156 0v1513h374q346 0 499 -121.5t153 -365.5q0 -201 -115 -319.5t-332 -141.5l424 -565h-188l-510 686q324 0 445.5 72.5t121.5 273.5q0 186 -120 265t-388 79h-213v-1376h-151zM467 1704l395 238l70 -119l-395 -234z" />
<glyph unicode="&#x155;" horiz-adv-x="616" d="M125 1331l395 238l70 -119l-395 -233zM129 0v1120h152v-159q45 92 120.5 136t196.5 50v-150q-317 -31 -317 -344v-653h-152z" />
<glyph unicode="&#x156;" horiz-adv-x="1243" d="M156 0v1513h374q346 0 499 -121.5t153 -365.5q0 -201 -115 -319.5t-332 -141.5l424 -565h-188l-510 686q324 0 445.5 72.5t121.5 273.5q0 186 -120 265t-388 79h-213v-1376h-151zM469 -461l98 352h152l-98 -352h-152z" />
<glyph unicode="&#x157;" horiz-adv-x="616" d="M53 -461l99 352h151l-98 -352h-152zM129 0v1120h152v-159q45 92 120.5 136t196.5 50v-150q-317 -31 -317 -344v-653h-152z" />
<glyph unicode="&#x158;" horiz-adv-x="1243" d="M156 0v1513h374q346 0 499 -121.5t153 -365.5q0 -201 -115 -319.5t-332 -141.5l424 -565h-188l-510 686q324 0 445.5 72.5t121.5 273.5q0 186 -120 265t-388 79h-213v-1376h-151zM260 1874h182l176 -152l181 152h186l-297 -258h-135z" />
<glyph unicode="&#x159;" horiz-adv-x="616" d="M-82 1501h182l176 -151l181 151h186l-297 -258h-135zM129 0v1120h152v-159q45 92 120.5 136t196.5 50v-150q-317 -31 -317 -344v-653h-152z" />
<glyph unicode="&#x15a;" horiz-adv-x="1019" d="M45 424h162q16 -150 101 -230.5t214 -80.5t214 85t85 216q0 125 -71.5 191.5t-266.5 125.5q-131 39 -184 64.5t-98 68.5q-106 100 -107 269q0 176 119 291.5t301 115.5q186 0 305 -113.5t119 -296.5h-158q0 121 -76.5 196t-193.5 75q-113 0 -187.5 -75t-74.5 -189.5 t71 -175.5q47 -41 224 -95q197 -59 280 -121q152 -113 152 -323q0 -193 -130 -321t-327 -128q-205 0 -334 123t-139 328zM358 1704l396 238l69 -119l-395 -234z" />
<glyph unicode="&#x15b;" horiz-adv-x="794" d="M37 330h149q0 -100 58.5 -158.5t152.5 -58.5q82 0 135.5 55t53.5 139q0 82 -44 123t-173 92q-119 47 -146.5 61.5t-60.5 47.5q-84 78 -84 200q0 137 90 226.5t227 89.5t226.5 -85t89.5 -218h-154q0 78 -44 121t-120 43q-68 0 -115 -47.5t-47 -114.5q0 -96 103 -148 q41 -20 211 -90q195 -82 194 -286q0 -154 -95 -251.5t-247 -97.5q-162 0 -261 97.5t-99 259.5zM240 1331l395 238l70 -119l-396 -233z" />
<glyph unicode="&#x15c;" horiz-adv-x="1019" d="M45 424h162q16 -150 101 -230.5t214 -80.5t214 85t85 216q0 125 -71.5 191.5t-266.5 125.5q-131 39 -184 64.5t-98 68.5q-106 100 -107 269q0 176 119 291.5t301 115.5q186 0 305 -113.5t119 -296.5h-158q0 121 -76.5 196t-193.5 75q-113 0 -187.5 -75t-74.5 -189.5 t71 -175.5q47 -41 224 -95q197 -59 280 -121q152 -113 152 -323q0 -193 -130 -321t-327 -128q-205 0 -334 123t-139 328zM152 1616l297 258h135l293 -258h-183l-176 151l-180 -151h-186z" />
<glyph unicode="&#x15d;" horiz-adv-x="794" d="M33 1243l297 258h135l293 -258h-183l-176 152l-180 -152h-186zM37 330h149q0 -100 58.5 -158.5t152.5 -58.5q82 0 135.5 55t53.5 139q0 82 -44 123t-173 92q-119 47 -146.5 61.5t-60.5 47.5q-84 78 -84 200q0 137 90 226.5t227 89.5t226.5 -85t89.5 -218h-154 q0 78 -44 121t-120 43q-68 0 -115 -47.5t-47 -114.5q0 -96 103 -148q41 -20 211 -90q195 -82 194 -286q0 -154 -95 -251.5t-247 -97.5q-162 0 -261 97.5t-99 259.5z" />
<glyph unicode="&#x15e;" horiz-adv-x="1019" d="M45 424h162q16 -150 101 -230.5t214 -80.5t214 85t85 216q0 125 -71.5 191.5t-266.5 125.5q-131 39 -184 64.5t-98 68.5q-106 100 -107 269q0 176 119 291.5t301 115.5q186 0 305 -113.5t119 -296.5h-158q0 121 -76.5 196t-193.5 75q-113 0 -187.5 -75t-74.5 -189.5 t71 -175.5q47 -41 224 -95q197 -59 280 -121q152 -113 152 -323q0 -190 -126 -317.5t-321 -131.5l-22 -71l26 4q25 6 41 6q84 0 142.5 -54.5t58.5 -138.5q0 -98 -62.5 -165.5t-164.5 -67.5q-76 0 -127 47t-70 127l109 12q20 -68 90 -67q43 0 70.5 29.5t27.5 74.5 q0 49 -28.5 79t-75.5 30q-55 0 -94 -39l-66 39l66 159q-176 23 -286 142t-118 305z" />
<glyph unicode="&#x15f;" horiz-adv-x="794" d="M37 330h149q0 -100 58.5 -158.5t152.5 -58.5q82 0 135.5 55t53.5 139q0 82 -44 123t-173 92q-119 47 -146.5 61.5t-60.5 47.5q-84 78 -84 200q0 137 90 226.5t227 89.5t226.5 -85t89.5 -218h-154q0 78 -44 121t-120 43q-68 0 -115 -47.5t-47 -114.5q0 -96 103 -148 q41 -20 211 -90q195 -82 194 -286q0 -150 -90 -246t-233 -103l-23 -71l25 4q27 6 43 6q84 0 142.5 -54.5t58.5 -138.5q0 -98 -62.5 -165.5t-165.5 -67.5q-76 0 -127 47t-69 127l108 12q20 -68 90 -67q43 0 71 29.5t28 74.5q0 49 -29 79t-76 30q-55 0 -94 -39l-66 39l66 159 q-137 18 -218 113t-81 240z" />
<glyph unicode="&#x160;" horiz-adv-x="1019" d="M45 424h162q16 -150 101 -230.5t214 -80.5t214 85t85 216q0 125 -71.5 191.5t-266.5 125.5q-131 39 -184 64.5t-98 68.5q-106 100 -107 269q0 176 119 291.5t301 115.5q186 0 305 -113.5t119 -296.5h-158q0 121 -76.5 196t-193.5 75q-113 0 -187.5 -75t-74.5 -189.5 t71 -175.5q47 -41 224 -95q197 -59 280 -121q152 -113 152 -323q0 -193 -130 -321t-327 -128q-205 0 -334 123t-139 328zM152 1874h182l176 -152l180 152h187l-297 -258h-136z" />
<glyph unicode="&#x161;" horiz-adv-x="794" d="M33 1501h182l176 -151l180 151h187l-297 -258h-135zM37 330h149q0 -100 58.5 -158.5t152.5 -58.5q82 0 135.5 55t53.5 139q0 82 -44 123t-173 92q-119 47 -146.5 61.5t-60.5 47.5q-84 78 -84 200q0 137 90 226.5t227 89.5t226.5 -85t89.5 -218h-154q0 78 -44 121t-120 43 q-68 0 -115 -47.5t-47 -114.5q0 -96 103 -148q41 -20 211 -90q195 -82 194 -286q0 -154 -95 -251.5t-247 -97.5q-162 0 -261 97.5t-99 259.5z" />
<glyph unicode="&#x162;" horiz-adv-x="872" d="M14 1376v137h844v-137h-346v-1376h-37l-31 -98l27 4q25 6 41 6q84 0 142.5 -54.5t58.5 -138.5q0 -98 -62.5 -165.5t-165.5 -67.5q-76 0 -127 47t-69 127l108 12q20 -68 90 -67q43 0 71 29.5t28 74.5q0 49 -29 79t-76 30q-55 0 -94 -39l-65 39l73 182h-35v1376h-346z" />
<glyph unicode="&#x163;" horiz-adv-x="694" d="M25 983v137h241v393h152v-393h252v-137h-252v-983h-25l-31 -98l27 4q25 6 41 6q84 0 142.5 -54.5t58.5 -138.5q0 -98 -62.5 -165.5t-165.5 -67.5q-76 0 -127 47t-69 127l108 12q20 -68 91 -67q43 0 70.5 29.5t27.5 74.5q0 49 -29 79t-76 30q-55 0 -94 -39l-65 39l73 182 h-47v983h-241z" />
<glyph unicode="&#x164;" horiz-adv-x="872" d="M14 1376v137h844v-137h-346v-1376h-152v1376h-346zM74 1874h182l176 -152l180 152h187l-297 -258h-135z" />
<glyph unicode="&#x165;" horiz-adv-x="694" d="M25 983v137h241v393h152v-393h252v-137h-252v-983h-152v983h-241zM483 1186l99 352h151l-98 -352h-152z" />
<glyph unicode="&#x168;" horiz-adv-x="1341" d="M156 569v944h151v-944q0 -457 365 -456q362 0 362 456v944h152v-944q0 -299 -138.5 -447.5t-377.5 -148.5q-238 0 -376 148.5t-138 447.5zM375 1743q78 100 190 100q18 0 103.5 -31.5t115.5 -31.5q55 0 117 63l68 -94q-25 -41 -80 -70.5t-107 -29.5q-43 0 -135 45 q-47 20 -82 20q-29 0 -48 -9t-60 -44l-15 -12z" />
<glyph unicode="&#x169;" horiz-adv-x="1245" d="M129 516v604h152v-604q0 -403 335 -403q162 0 255.5 106.5t93.5 325.5v575h151v-1120h-151v174q-109 -201 -361 -201q-475 0 -475 543zM326 1370q78 100 190 100q18 0 103.5 -31.5t115.5 -31.5q55 0 117 63l68 -94q-25 -41 -80.5 -70.5t-106.5 -29.5q-43 0 -135 45 q-47 20 -82 20q-29 0 -48 -9t-60 -44l-15 -12z" />
<glyph unicode="&#x16a;" horiz-adv-x="1341" d="M156 569v944h151v-944q0 -457 365 -456q362 0 362 456v944h152v-944q0 -299 -138.5 -447.5t-377.5 -148.5q-238 0 -376 148.5t-138 447.5zM326 1679v131h690v-131h-690z" />
<glyph unicode="&#x16b;" horiz-adv-x="1245" d="M129 516v604h152v-604q0 -403 335 -403q162 0 255.5 106.5t93.5 325.5v575h151v-1120h-151v174q-109 -201 -361 -201q-475 0 -475 543zM276 1307v131h691v-131h-691z" />
<glyph unicode="&#x16c;" horiz-adv-x="1341" d="M156 569v944h151v-944q0 -457 365 -456q362 0 362 456v944h152v-944q0 -299 -138.5 -447.5t-377.5 -148.5q-238 0 -376 148.5t-138 447.5zM360 1868h132q20 -127 179.5 -127t180.5 127h131q-25 -131 -102.5 -188.5t-208.5 -57.5q-267 0 -312 246z" />
<glyph unicode="&#x16d;" horiz-adv-x="1245" d="M129 516v604h152v-604q0 -403 335 -403q162 0 255.5 106.5t93.5 325.5v575h151v-1120h-151v174q-109 -201 -361 -201q-475 0 -475 543zM309 1495h131q20 -127 180 -127t181 127h131q-25 -131 -102.5 -188.5t-208.5 -57.5q-267 0 -312 246z" />
<glyph unicode="&#x16e;" horiz-adv-x="1341" d="M156 569v944h151v-944q0 -457 365 -456q362 0 362 456v944h152v-944q0 -299 -138.5 -447.5t-377.5 -148.5q-238 0 -376 148.5t-138 447.5zM465 1769q0 88 60.5 148.5t148.5 60.5q84 0 144.5 -61.5t60.5 -144.5q0 -86 -60.5 -146.5t-146.5 -60.5t-146.5 60t-60.5 144z M557 1769q0 -47 34 -79.5t81 -32.5t80.5 33.5t33.5 81t-33.5 81t-80.5 33.5t-81 -34t-34 -83z" />
<glyph unicode="&#x16f;" horiz-adv-x="1245" d="M129 516v604h152v-604q0 -403 335 -403q162 0 255.5 106.5t93.5 325.5v575h151v-1120h-151v174q-109 -201 -361 -201q-475 0 -475 543zM416 1391q0 88 60.5 148t148.5 60q84 0 144 -61t60 -145q0 -86 -60 -146.5t-146 -60.5t-146.5 60.5t-60.5 144.5zM508 1391 q0 -47 33.5 -80t81 -33t81 34t33.5 81t-33.5 80.5t-81 33.5t-81 -33.5t-33.5 -82.5z" />
<glyph unicode="&#x170;" horiz-adv-x="1341" d="M156 569v944h151v-944q0 -457 365 -456q362 0 362 456v944h152v-944q0 -299 -138.5 -447.5t-377.5 -148.5q-238 0 -376 148.5t-138 447.5zM401 1688l351 251l77 -100l-356 -248zM803 1688l350 251l78 -100l-357 -248z" />
<glyph unicode="&#x171;" horiz-adv-x="1245" d="M129 516v604h152v-604q0 -403 335 -403q162 0 255.5 106.5t93.5 325.5v575h151v-1120h-151v174q-109 -201 -361 -201q-475 0 -475 543zM352 1294l350 252l78 -100l-356 -248zM754 1294l350 252l78 -100l-357 -248z" />
<glyph unicode="&#x172;" horiz-adv-x="1341" d="M156 569v944h151v-944q0 -457 365 -456q362 0 362 456v944h152v-944q0 -416 -268 -544q-92 -43 -150.5 -117t-58.5 -164q0 -43 27.5 -73.5t68.5 -30.5q45 0 102 10v-154q-47 -8 -102 -8q-104 0 -176 76t-72 180q0 121 135 229h-22q-238 0 -376 148.5t-138 447.5z" />
<glyph unicode="&#x173;" horiz-adv-x="1245" d="M129 516v604h152v-604q0 -403 335 -403q162 0 255.5 106.5t93.5 325.5v575h151v-1120q-172 -98 -172 -256q0 -43 27.5 -73.5t68.5 -30.5q45 0 103 10v-154q-43 -8 -103 -8q-104 0 -175.5 76t-71.5 180q0 135 172 256v174q-109 -201 -361 -201q-475 0 -475 543z" />
<glyph unicode="&#x174;" horiz-adv-x="1966" d="M20 1513h156l373 -1316l362 1316h144l362 -1316l373 1316h156l-435 -1513h-194l-336 1241l-332 -1241h-196zM621 1616l297 258h135l293 -258h-183l-176 151l-180 -151h-186z" />
<glyph unicode="&#x175;" horiz-adv-x="1701" d="M14 1120h152l356 -938l264 801h125l265 -801l364 938h148l-435 -1120h-161l-244 743l-242 -743h-164zM487 1243l297 258h136l292 -258h-182l-176 152l-180 -152h-187z" />
<glyph unicode="&#x176;" horiz-adv-x="1212" d="M4 1513h168l430 -847l440 847h166l-528 -1007v-506h-152v506zM242 1616l297 258h135l293 -258h-183l-176 151l-180 -151h-186z" />
<glyph unicode="&#x177;" horiz-adv-x="1097" d="M18 1120h166l355 -893l379 893h161l-647 -1513h-162l183 430zM188 1243l297 258h136l292 -258h-182l-176 152l-180 -152h-187z" />
<glyph unicode="&#x178;" horiz-adv-x="1212" d="M4 1513h168l430 -847l440 847h166l-528 -1007v-506h-152v506zM379 1616v258h151v-258h-151zM680 1616v258h151v-258h-151z" />
<glyph unicode="&#x179;" horiz-adv-x="983" d="M35 0v137l743 1239h-721v137h891v-137l-741 -1239h764v-137h-936zM348 1704l395 238l70 -119l-395 -234z" />
<glyph unicode="&#x17a;" horiz-adv-x="870" d="M20 0v137l619 846h-598v137h770v-129l-612 -854h651v-137h-830zM270 1331l396 238l69 -119l-395 -233z" />
<glyph unicode="&#x17b;" horiz-adv-x="983" d="M35 0v137l743 1239h-721v137h891v-137l-741 -1239h764v-137h-936zM428 1616v258h152v-258h-152z" />
<glyph unicode="&#x17c;" horiz-adv-x="870" d="M20 0v137l619 846h-598v137h770v-129l-612 -854h651v-137h-830zM350 1243v258h152v-258h-152z" />
<glyph unicode="&#x17d;" horiz-adv-x="983" d="M35 0v137l743 1239h-721v137h891v-137l-741 -1239h764v-137h-936zM141 1874h183l176 -152l180 152h186l-297 -258h-135z" />
<glyph unicode="&#x17e;" horiz-adv-x="870" d="M20 0v137l619 846h-598v137h770v-129l-612 -854h651v-137h-830zM63 1501h183l176 -151l180 151h186l-296 -258h-136z" />
<glyph unicode="&#x17f;" horiz-adv-x="643" d="M33 983v137h174q-6 393 430 393v-137q-156 -2 -218.5 -59t-60.5 -197v-1120h-151v983h-174z" />
<glyph unicode="&#x18e;" horiz-adv-x="1097" d="M156 0v137h675v559h-653v138h653v542h-675v137h827v-1513h-827z" />
<glyph unicode="&#x192;" horiz-adv-x="1134" d="M37 -299l24 131q63 -8 99 -8q141 0 206.5 74.5t106.5 289.5l164 871h-231l26 137h227l9 47q41 215 144 323.5t247 108.5q16 0 59 -6l-22 -135q-23 4 -45 4q-180 0 -240 -295l-8 -47h229l-24 -137h-230l-164 -883q-33 -176 -63.5 -253t-89.5 -130q-119 -106 -305 -106 q-70 0 -119 14z" />
<glyph unicode="&#x1a0;" horiz-adv-x="1779" d="M90 766q0 315 237.5 544.5t563.5 229.5q332 0 569 -237q92 84 92 210h131q0 -201 -135 -315q141 -203 142 -442q0 -322 -235.5 -552.5t-563.5 -230.5q-334 0 -567.5 231.5t-233.5 561.5zM244 762q0 -268 189.5 -458.5t457.5 -190.5q264 0 454.5 189.5t190.5 451.5 q0 266 -190.5 456.5t-454.5 190.5q-262 0 -454.5 -189.5t-192.5 -449.5z" />
<glyph unicode="&#x1a1;" horiz-adv-x="1384" d="M86 567q0 246 169 413t419 167q143 0 263 -58.5t198 -160.5q74 78 73 192h131q0 -197 -133 -315q49 -119 49 -248q0 -252 -161.5 -418t-407.5 -166q-260 0 -430 168t-170 426zM240 563q0 -197 124.5 -323.5t317.5 -126.5q182 0 301 124.5t119 317.5q0 195 -122 324 t-306 129q-186 0 -310 -127.5t-124 -317.5z" />
<glyph unicode="&#x1af;" horiz-adv-x="1445" d="M156 569v944h151v-944q0 -207 70 -313q43 -66 122 -104.5t173 -38.5q92 0 171 38.5t122 104.5q70 106 69 313v944h152v-213q92 84 92 213h131q0 -260 -223 -376v-568q0 -268 -107 -409q-68 -88 -176 -137.5t-233 -49.5t-232.5 49.5t-175.5 137.5q-106 141 -106 409z" />
<glyph unicode="&#x1b0;" horiz-adv-x="1384" d="M129 516v604h152v-604q0 -174 53 -262q39 -68 113.5 -104.5t168.5 -36.5q180 0 281 139q68 100 68 293v575h151v-219q98 84 98 219h132q0 -264 -230 -379v-741h-151v174q-109 -201 -361 -201q-258 0 -387 179q-88 120 -88 364z" />
<glyph unicode="&#x1dd;" horiz-adv-x="1331" d="M86 610h1014q-8 166 -136 282t-300 116q-127 0 -236 -71t-156 -185h-157q55 166 207.5 280.5t336.5 114.5q250 0 421 -172t171 -420q0 -244 -169 -413t-412 -169q-254 0 -419 173t-165 464zM238 473q39 -168 154.5 -264t279.5 -96q160 0 276.5 99t147.5 261h-858z" />
<glyph unicode="&#x1e6;" horiz-adv-x="1785" d="M90 760q0 328 232.5 554t570.5 226q248 0 444.5 -117.5t272.5 -312.5h-170q-78 137 -218.5 214t-316.5 77q-281 0 -471 -186.5t-190 -458.5q0 -270 192.5 -456.5t470.5 -186.5q219 0 394.5 132t218.5 316h-846v137h1028q-18 -295 -241.5 -510t-547.5 -215 q-348 0 -585.5 227.5t-237.5 559.5zM530 1874h183l176 -152l180 152h186l-297 -258h-135z" />
<glyph unicode="&#x1e7;" horiz-adv-x="1378" d="M86 555q0 254 164 423t409 169q272 0 439 -225v198h151v-919q0 -164 -23.5 -263.5t-80.5 -177.5q-152 -201 -455 -200q-211 0 -356.5 104.5t-206.5 300.5h147q84 -150 176.5 -208t235.5 -58q203 0 307.5 115.5t104.5 337.5v75q-129 -254 -428 -254q-246 0 -415 168 t-169 414zM240 567q0 -195 122.5 -324.5t307.5 -129.5q182 0 305 132t123 328q0 182 -125 308.5t-305 126.5q-186 0 -307 -124t-121 -317zM297 1501h182l176 -151l181 151h186l-297 -258h-135z" />
<glyph unicode="&#x1ea;" horiz-adv-x="1779" d="M90 766q0 315 237.5 544.5t563.5 229.5q330 0 564.5 -230.5t234.5 -553.5q0 -238 -135.5 -433.5t-354.5 -287.5q-262 -106 -262 -291q0 -43 27.5 -73.5t68.5 -30.5q45 0 103 10v-154q-47 -8 -103 -8q-104 0 -176 76t-72 180q0 121 136 229h-31q-334 0 -567.5 231.5 t-233.5 561.5zM244 762q0 -268 189.5 -458.5t457.5 -190.5q264 0 454.5 189.5t190.5 451.5q0 266 -190.5 456.5t-454.5 190.5q-262 0 -454.5 -189.5t-192.5 -449.5z" />
<glyph unicode="&#x1eb;" horiz-adv-x="1341" d="M86 567q0 246 169 413t419 167q252 0 416.5 -167t164.5 -423q0 -162 -70.5 -293t-193.5 -207q-78 -49 -125 -86t-89 -98t-42 -129q0 -43 28 -73.5t68 -30.5q45 0 103 10v-154q-47 -8 -103 -8q-104 0 -175.5 76t-71.5 180q0 121 137 229h-35q-260 0 -430 168t-170 426z M240 563q0 -197 124.5 -323.5t317.5 -126.5q182 0 301 124.5t119 317.5q0 195 -122 324t-306 129q-186 0 -310 -127.5t-124 -317.5z" />
<glyph unicode="&#x1f4;" horiz-adv-x="1785" d="M90 760q0 328 232.5 554t570.5 226q248 0 444.5 -117.5t272.5 -312.5h-170q-78 137 -218.5 214t-316.5 77q-281 0 -471 -186.5t-190 -458.5q0 -270 192.5 -456.5t470.5 -186.5q219 0 394.5 132t218.5 316h-846v137h1028q-18 -295 -241.5 -510t-547.5 -215 q-348 0 -585.5 227.5t-237.5 559.5zM737 1704l396 238l69 -119l-395 -234z" />
<glyph unicode="&#x1f5;" horiz-adv-x="1378" d="M86 555q0 254 164 423t409 169q272 0 439 -225v198h151v-919q0 -164 -23.5 -263.5t-80.5 -177.5q-152 -201 -455 -200q-211 0 -356.5 104.5t-206.5 300.5h147q84 -150 176.5 -208t235.5 -58q203 0 307.5 115.5t104.5 337.5v75q-129 -254 -428 -254q-246 0 -415 168 t-169 414zM240 567q0 -195 122.5 -324.5t307.5 -129.5q182 0 305 132t123 328q0 182 -125 308.5t-305 126.5q-186 0 -307 -124t-121 -317zM504 1331l395 238l70 -119l-396 -233z" />
<glyph unicode="&#x1fa;" d="M23 0l649 1513h170l651 -1513h-166l-219 510h-705l-221 -510h-159zM461 647h588l-291 694zM551 1769q0 88 60.5 148.5t148.5 60.5q84 0 144.5 -61.5t60.5 -144.5q0 -86 -60.5 -146.5t-146.5 -60.5t-146.5 60t-60.5 144zM602 2134l395 238l70 -119l-395 -234zM643 1769 q0 -47 34 -79.5t81 -32.5t80.5 33.5t33.5 81t-33.5 81t-80.5 33.5t-81 -34t-34 -83z" />
<glyph unicode="&#x1fb;" horiz-adv-x="1398" d="M86 557q0 252 169 421t421 169q283 0 442 -225v198h152v-1120h-152v197q-90 -121 -189.5 -172.5t-242.5 -51.5q-258 0 -429 167t-171 417zM240 567q0 -193 129 -323.5t319 -130.5q180 0 305 131t125 321q0 186 -127 314.5t-311 128.5q-182 0 -311 -129.5t-129 -311.5z M469 1376q0 88 60.5 148.5t148.5 60.5q84 0 144.5 -61.5t60.5 -145.5q0 -86 -60.5 -146.5t-146.5 -60.5t-146.5 60.5t-60.5 144.5zM520 1741l395 237l70 -118l-395 -234zM561 1376q0 -47 34 -79.5t81 -32.5t81 33.5t34 80.5t-34 81t-81 34t-81 -34t-34 -83z" />
<glyph unicode="&#x1fc;" horiz-adv-x="2031" d="M23 0l1046 1513h848v-137h-653v-542h630v-138h-630v-559h653v-137h-805v512h-555l-354 -512h-180zM653 649h459v670zM1032 1704l395 238l70 -119l-395 -234z" />
<glyph unicode="&#x1fd;" horiz-adv-x="2369" d="M86 557q0 246 168 418t422 172q285 0 446 -221v194h146v-194q176 221 442 221q250 0 415 -168t165 -473h-1014q14 -168 141 -280.5t301 -112.5q129 0 234.5 68.5t152.5 183.5h158q-59 -176 -208.5 -284t-336.5 -108q-266 0 -450 215v-188h-146v188q-94 -113 -199.5 -164 t-244.5 -51q-252 0 -422 168t-170 416zM242 561q0 -188 127 -318t313 -130t315 130t129 318q0 195 -126 321t-318 126q-188 0 -314 -128.5t-126 -318.5zM1030 1331l395 238l70 -119l-395 -233zM1282 643h860q-31 166 -148.5 265.5t-281.5 99.5q-168 0 -286.5 -101.5 t-143.5 -263.5z" />
<glyph unicode="&#x1fe;" horiz-adv-x="1777" d="M90 758q0 330 229.5 556t563.5 226q252 0 420 -115l192 256l111 -86l-189 -252q270 -227 271 -581q0 -330 -230.5 -559.5t-562.5 -229.5q-229 0 -418 113l-192 -256l-115 84l190 254q-270 225 -270 590zM244 750q0 -274 205 -467l770 1030q-145 88 -338 88 q-268 0 -452.5 -189.5t-184.5 -461.5zM561 199q164 -86 332 -86q268 0 454.5 187t186.5 456q0 276 -203 473zM733 1704l395 238l70 -119l-395 -234z" />
<glyph unicode="&#x1ff;" horiz-adv-x="1337" d="M86 557q0 246 171 418t415 172q164 0 299 -84l116 154l109 -87l-115 -151q170 -156 170 -404q0 -262 -162.5 -432t-416.5 -170q-150 0 -307 84l-107 -137l-108 82l104 137q-92 106 -130 201.5t-38 216.5zM240 545q0 -156 100 -297l549 710q-98 49 -215 50 q-184 0 -309 -133t-125 -330zM446 162q109 -49 216 -49q193 0 314.5 129t121.5 331q0 174 -101 299zM514 1331l395 238l70 -119l-395 -233z" />
<glyph unicode="&#x200;" d="M23 0l649 1513h170l651 -1513h-166l-219 510h-705l-221 -510h-159zM199 1839l77 100l351 -251l-72 -97zM461 647h588l-291 694zM600 1839l78 100l350 -251l-72 -97z" />
<glyph unicode="&#x201;" horiz-adv-x="1398" d="M86 557q0 252 169 421t421 169q283 0 442 -225v198h152v-1120h-152v197q-90 -121 -189.5 -172.5t-242.5 -51.5q-258 0 -429 167t-171 417zM117 1446l78 100l350 -252l-72 -96zM240 567q0 -193 129 -323.5t319 -130.5q180 0 305 131t125 321q0 186 -127 314.5t-311 128.5 q-182 0 -311 -129.5t-129 -311.5zM518 1446l78 100l350 -252l-72 -96z" />
<glyph unicode="&#x204;" horiz-adv-x="1097" d="M10 1839l78 100l350 -251l-71 -97zM156 0v1513h827v-137h-676v-542h654v-138h-654v-559h676v-137h-827zM412 1839l77 100l351 -251l-72 -97z" />
<glyph unicode="&#x205;" horiz-adv-x="1331" d="M86 565q0 244 169 413t413 169q254 0 418.5 -173t164.5 -464h-1013q8 -166 136 -281.5t300 -115.5q127 0 235.5 70.5t155.5 185.5h158q-55 -166 -208 -281t-337 -115q-248 0 -420 171t-172 421zM109 1446l77 100l351 -252l-72 -96zM242 647h858q-39 168 -155 264.5 t-279 96.5q-160 0 -276.5 -99.5t-147.5 -261.5zM510 1446l78 100l350 -252l-72 -96z" />
<glyph unicode="&#x208;" horiz-adv-x="462" d="M-328 1839l78 100l350 -251l-71 -97zM74 1839l78 100l350 -251l-72 -97zM156 0v1513h151v-1513h-151z" />
<glyph unicode="&#x209;" horiz-adv-x="409" d="M-354 1446l78 100l350 -252l-72 -96zM47 1446l78 100l350 -252l-72 -96zM129 0v1120h152v-1120h-152z" />
<glyph unicode="&#x20c;" horiz-adv-x="1779" d="M90 766q0 315 237.5 544.5t563.5 229.5q330 0 564.5 -230.5t234.5 -553.5q0 -322 -235.5 -552.5t-563.5 -230.5q-334 0 -567.5 231.5t-233.5 561.5zM244 762q0 -268 189.5 -458.5t457.5 -190.5q264 0 454.5 189.5t190.5 451.5q0 266 -190.5 456.5t-454.5 190.5 q-262 0 -454.5 -189.5t-192.5 -449.5zM332 1839l78 100l350 -251l-72 -97zM733 1839l78 100l350 -251l-71 -97z" />
<glyph unicode="&#x20d;" horiz-adv-x="1341" d="M86 567q0 246 169 413t419 167q252 0 416.5 -167t164.5 -423q0 -252 -161.5 -418t-407.5 -166q-260 0 -430 168t-170 426zM115 1446l78 100l350 -252l-72 -96zM240 563q0 -197 124.5 -323.5t317.5 -126.5q182 0 301 124.5t119 317.5q0 195 -122 324t-306 129 q-186 0 -310 -127.5t-124 -317.5zM516 1446l78 100l350 -252l-72 -96z" />
<glyph unicode="&#x210;" horiz-adv-x="1243" d="M63 1839l78 100l351 -251l-72 -97zM156 0v1513h374q346 0 499 -121.5t153 -365.5q0 -201 -115 -319.5t-332 -141.5l424 -565h-188l-510 686q324 0 445.5 72.5t121.5 273.5q0 186 -120 265t-388 79h-213v-1376h-151zM465 1839l78 100l350 -251l-72 -97z" />
<glyph unicode="&#x211;" horiz-adv-x="616" d="M-279 1446l78 100l351 -252l-72 -96zM123 1446l78 100l350 -252l-72 -96zM129 0v1120h152v-159q45 92 120.5 136t196.5 50v-150q-317 -31 -317 -344v-653h-152z" />
<glyph unicode="&#x214;" horiz-adv-x="1341" d="M113 1839l77 100l351 -251l-72 -97zM156 569v944h151v-944q0 -457 365 -456q362 0 362 456v944h152v-944q0 -299 -138.5 -447.5t-377.5 -148.5q-238 0 -376 148.5t-138 447.5zM514 1839l78 100l350 -251l-72 -97z" />
<glyph unicode="&#x215;" horiz-adv-x="1245" d="M63 1446l78 100l351 -252l-72 -96zM129 516v604h152v-604q0 -403 335 -403q162 0 255.5 106.5t93.5 325.5v575h151v-1120h-151v174q-109 -201 -361 -201q-475 0 -475 543zM465 1446l78 100l350 -252l-72 -96z" />
<glyph unicode="&#x218;" horiz-adv-x="1019" d="M45 424h162q16 -150 101 -230.5t214 -80.5t214 85t85 216q0 125 -71.5 191.5t-266.5 125.5q-131 39 -184 64.5t-98 68.5q-106 100 -107 269q0 176 119 291.5t301 115.5q186 0 305 -113.5t119 -296.5h-158q0 121 -76.5 196t-193.5 75q-113 0 -187.5 -75t-74.5 -189.5 t71 -175.5q47 -41 224 -95q197 -59 280 -121q152 -113 152 -323q0 -193 -130 -321t-327 -128q-205 0 -334 123t-139 328zM362 -461l99 352h151l-98 -352h-152z" />
<glyph unicode="&#x219;" horiz-adv-x="794" d="M37 330h149q0 -100 58.5 -158.5t152.5 -58.5q82 0 135.5 55t53.5 139q0 82 -44 123t-173 92q-119 47 -146.5 61.5t-60.5 47.5q-84 78 -84 200q0 137 90 226.5t227 89.5t226.5 -85t89.5 -218h-154q0 78 -44 121t-120 43q-68 0 -115 -47.5t-47 -114.5q0 -96 103 -148 q41 -20 211 -90q195 -82 194 -286q0 -154 -95 -251.5t-247 -97.5q-162 0 -261 97.5t-99 259.5zM244 -461l98 352h152l-99 -352h-151z" />
<glyph unicode="&#x21a;" horiz-adv-x="872" d="M14 1376v137h844v-137h-346v-1376h-152v1376h-346zM285 -461l98 352h152l-99 -352h-151z" />
<glyph unicode="&#x21b;" horiz-adv-x="694" d="M25 983v137h241v393h152v-393h252v-137h-252v-983h-152v983h-241zM190 -461l99 352h151l-98 -352h-152z" />
<glyph unicode="&#x258;" horiz-adv-x="1331" d="M86 510q0 291 165 464t419 173q244 0 412.5 -169t168.5 -413q0 -250 -171 -421t-421 -171q-184 0 -336.5 115t-207.5 281h157q47 -115 156 -185.5t236 -70.5q172 0 300 115.5t136 281.5h-1014zM238 647h858q-31 162 -148 261.5t-276 99.5q-164 0 -279.5 -96.5 t-154.5 -264.5z" />
<glyph unicode="&#x259;" horiz-adv-x="1331" d="M86 610h1014q-8 166 -136 282t-300 116q-127 0 -236 -71t-156 -185h-157q55 166 207.5 280.5t336.5 114.5q250 0 421 -172t171 -420q0 -244 -169 -413t-412 -169q-254 0 -419 173t-165 464zM238 473q39 -168 154.5 -264t279.5 -96q160 0 276.5 99t147.5 261h-858z" />
<glyph unicode="&#x2be;" horiz-adv-x="1062" d="M131 905q-2 8 2 15.5t12 7.5h115q6 0 14 -8q82 -143 244 -144q119 0 200 82t81 201q0 117 -83 198.5t-202 81.5q-139 0 -242 -137q-2 -6 -12 -6h-115q-10 0 -14 7t0 16q129 248 379 247q180 0 302 -117.5t122 -291.5q0 -170 -121 -289t-295 -119q-133 0 -237.5 68.5 t-149.5 187.5z" />
<glyph unicode="&#x2bf;" horiz-adv-x="1062" d="M129 1059q0 170 121 288.5t295 118.5q133 0 237.5 -68.5t149.5 -187.5q2 -8 -2 -15t-12 -7h-115q-6 0 -15 8q-82 143 -243 143q-119 0 -200 -81.5t-81 -200.5q0 -117 83 -199t202 -82q139 0 242 137q4 6 12 7h115q10 0 14 -7.5t0 -15.5q-129 -248 -379 -248 q-180 0 -302 118t-122 292z" />
<glyph unicode="&#x2c6;" horiz-adv-x="1028" d="M152 1243l297 258h135l293 -258h-183l-176 152l-180 -152h-186z" />
<glyph unicode="&#x2c7;" horiz-adv-x="1028" d="M152 1501h182l176 -151l180 151h187l-297 -258h-136z" />
<glyph unicode="&#x2d8;" horiz-adv-x="927" d="M152 1495h131q20 -127 180 -127t180 127h131q-25 -131 -102.5 -188.5t-208.5 -57.5q-266 0 -311 246z" />
<glyph unicode="&#x2d9;" horiz-adv-x="454" d="M152 1243v258h151v-258h-151z" />
<glyph unicode="&#x2da;" horiz-adv-x="679" d="M133 1391q0 88 60.5 148t148.5 60q84 0 144.5 -61t60.5 -145q0 -86 -60.5 -146.5t-146.5 -60.5t-146.5 60.5t-60.5 144.5zM225 1391q0 -47 34 -80t81 -33t81 34t34 81t-34 80.5t-81 33.5t-81 -33.5t-34 -82.5z" />
<glyph unicode="&#x2db;" horiz-adv-x="618" d="M127 -256q0 135 172 256h152q-172 -98 -172 -256q0 -43 27.5 -73.5t68.5 -30.5q45 0 102 10v-154q-43 -8 -102 -8q-104 0 -176 76t-72 180z" />
<glyph unicode="&#x2dc;" horiz-adv-x="899" d="M154 1370q78 100 190 100q18 0 103 -31.5t116 -31.5q55 0 117 63l68 -94q-25 -41 -80.5 -70.5t-106.5 -29.5q-43 0 -135 45q-47 20 -82 20q-29 0 -48.5 -9t-59.5 -44l-15 -12z" />
<glyph unicode="&#x2dd;" horiz-adv-x="1130" d="M295 1294l350 252l78 -100l-356 -248zM696 1294l351 252l77 -100l-356 -248z" />
<glyph unicode="&#x300;" horiz-adv-x="0" d="M-1010 1450l70 119l395 -238l-69 -114z" />
<glyph unicode="&#x301;" horiz-adv-x="0" d="M-854 1331l395 238l70 -119l-395 -233z" />
<glyph unicode="&#x302;" horiz-adv-x="0" d="M-1061 1243l297 258h135l293 -258h-182l-176 152l-180 -152h-187z" />
<glyph unicode="&#x303;" horiz-adv-x="0" d="M-995 1370q78 100 190 100q18 0 103.5 -31.5t115.5 -31.5q55 0 117 63l68 -94q-25 -41 -80.5 -70.5t-106.5 -29.5q-43 0 -135 45q-47 20 -82 20q-29 0 -48 -9t-60 -44l-15 -12z" />
<glyph unicode="&#x304;" horiz-adv-x="0" d="M-1044 1307v131h690v-131h-690z" />
<glyph unicode="&#x306;" horiz-adv-x="0" d="M-1012 1495h131q20 -127 180 -127t181 127h131q-25 -131 -102.5 -188.5t-208.5 -57.5q-267 0 -312 246z" />
<glyph unicode="&#x307;" horiz-adv-x="0" d="M-774 1243v258h151v-258h-151z" />
<glyph unicode="&#x308;" horiz-adv-x="0" d="M-926 1243v258h152v-258h-152zM-625 1243v258h152v-258h-152z" />
<glyph unicode="&#x309;" horiz-adv-x="0" d="M-905 1407q6 211 211 211q88 0 145 -47t57 -119q0 -74 -79 -131q-68 -43 -70 -113h-109q2 113 91 183q57 41 57 63q0 27 -25.5 44.5t-66.5 17.5q-59 0 -88 -35v2q-8 -16 -17 -76h-106z" />
<glyph unicode="&#x30a;" horiz-adv-x="0" d="M-905 1391q0 88 60.5 148t148.5 60q84 0 144 -61t60 -145q0 -86 -60 -146.5t-146 -60.5t-146.5 60.5t-60.5 144.5zM-813 1391q0 -47 34 -80t81 -33t80.5 34t33.5 81t-33.5 80.5t-80.5 33.5t-81 -33.5t-34 -82.5z" />
<glyph unicode="&#x30b;" horiz-adv-x="0" d="M-969 1294l351 252l77 -100l-356 -248zM-567 1294l350 252l78 -100l-357 -248z" />
<glyph unicode="&#x30c;" horiz-adv-x="0" d="M-1061 1501h182l177 -151l180 151h186l-297 -258h-135z" />
<glyph unicode="&#x30f;" horiz-adv-x="0" d="M-1257 1446l77 100l351 -252l-72 -96zM-856 1446l78 100l350 -252l-72 -96z" />
<glyph unicode="&#x311;" horiz-adv-x="0" d="M-1012 1249q25 131 103 188.5t209 57.5q266 0 311 -246h-131q-20 127 -180 127t-181 -127h-131z" />
<glyph unicode="&#x323;" horiz-adv-x="0" d="M-774 -123h151v-258h-151v258z" />
<glyph unicode="&#x326;" horiz-adv-x="0" d="M-852 -461l98 352h152l-98 -352h-152z" />
<glyph unicode="&#x32e;" horiz-adv-x="0" d="M-1010 -129h131q20 -127 180 -127t181 127h131q-25 -131 -102.5 -188.5t-208.5 -57.5q-267 0 -312 246z" />
<glyph unicode="&#x32f;" horiz-adv-x="0" d="M-1010 -375q25 131 103 188.5t209 57.5q266 0 311 -246h-131q-20 127 -180 127t-181 -127h-131z" />
<glyph unicode="&#x330;" horiz-adv-x="0" d="M-995 -254q78 100 190 100q18 0 103.5 -31.5t115.5 -31.5q55 0 117 63l68 -94q-25 -41 -80.5 -70.5t-106.5 -29.5q-43 0 -135 45q-47 20 -82 20q-29 0 -48 -9t-60 -44l-15 -12z" />
<glyph unicode="&#x331;" horiz-adv-x="0" d="M-1044 -186h690v-131h-690v131z" />
<glyph unicode="&#x332;" horiz-adv-x="0" d="M-1044 -186h690v-131h-690v131z" />
<glyph unicode="&#x391;" d="M23 0l649 1513h170l651 -1513h-166l-219 510h-705l-221 -510h-159zM461 647h588l-291 694z" />
<glyph unicode="&#x392;" horiz-adv-x="1175" d="M156 0v1513h354q272 0 395 -97t123 -296q0 -219 -168 -313q254 -102 254 -373q0 -227 -136 -330.5t-448 -103.5h-374zM307 137h207q238 0 342.5 64.5t104.5 224.5q0 82 -26 139.5t-62.5 88t-104.5 47t-126 20.5t-155 4h-180v-588zM307 862h185q213 0 297.5 56.5t84.5 200 t-80.5 200.5t-304.5 57h-182v-514z" />
<glyph unicode="&#x393;" horiz-adv-x="993" d="M156 0v1513h768v-137h-617v-1376h-151z" />
<glyph unicode="&#x394;" horiz-adv-x="1320" d="M-2 0l586 1393h151l590 -1393h-1327zM244 154h835l-420 1017z" />
<glyph unicode="&#x395;" horiz-adv-x="1097" d="M156 0v1513h827v-137h-676v-542h654v-138h-654v-559h676v-137h-827z" />
<glyph unicode="&#x396;" horiz-adv-x="983" d="M35 0v137l743 1239h-721v137h891v-137l-741 -1239h764v-137h-936z" />
<glyph unicode="&#x397;" horiz-adv-x="1398" d="M156 0v1513h151v-665h785v665h151v-1513h-151v711h-785v-711h-151z" />
<glyph unicode="&#x398;" horiz-adv-x="1779" d="M90 766q0 315 237.5 544.5t563.5 229.5q330 0 564.5 -230.5t234.5 -553.5q0 -322 -235.5 -552.5t-563.5 -230.5q-334 0 -567.5 231.5t-233.5 561.5zM244 762q0 -268 189.5 -458.5t457.5 -190.5q264 0 454.5 189.5t190.5 451.5q0 266 -190.5 456.5t-454.5 190.5 q-262 0 -454.5 -189.5t-192.5 -449.5zM594 682v152h592v-152h-592z" />
<glyph unicode="&#x399;" horiz-adv-x="462" d="M156 0v1513h151v-1513h-151z" />
<glyph unicode="&#x39a;" horiz-adv-x="1210" d="M156 0v1513h151v-870l701 870h190l-598 -737l598 -776h-190l-504 655l-197 -241v-414h-151z" />
<glyph unicode="&#x39b;" d="M23 0l649 1513h170l651 -1513h-166l-569 1341l-576 -1341h-159z" />
<glyph unicode="&#x39c;" horiz-adv-x="1882" d="M156 0v1513h235l551 -1288l549 1288h235v-1513h-151v1348l-569 -1348h-132l-567 1348v-1348h-151z" />
<glyph unicode="&#x39d;" d="M156 0v1513h204l848 -1255v1255h152v-1513h-152l-901 1331v-1331h-151z" />
<glyph unicode="&#x39e;" horiz-adv-x="1398" d="M76 0v152h1247v-152h-1247zM76 1362v151h1247v-151h-1247zM227 682v152h944v-152h-944z" />
<glyph unicode="&#x39f;" horiz-adv-x="1779" d="M90 766q0 315 237.5 544.5t563.5 229.5q330 0 564.5 -230.5t234.5 -553.5q0 -322 -235.5 -552.5t-563.5 -230.5q-334 0 -567.5 231.5t-233.5 561.5zM244 762q0 -268 189.5 -458.5t457.5 -190.5q264 0 454.5 189.5t190.5 451.5q0 266 -190.5 456.5t-454.5 190.5 q-262 0 -454.5 -189.5t-192.5 -449.5z" />
<glyph unicode="&#x3a0;" horiz-adv-x="1302" d="M127 0v1393h1120v-1393h-170v1241h-780v-1241h-170z" />
<glyph unicode="&#x3a1;" horiz-adv-x="1212" d="M156 0v1513h417q309 0 446.5 -109.5t137.5 -348.5q0 -223 -130 -333t-429 -110h-291v-612h-151zM307 750h281q225 0 320.5 70.5t95.5 234.5q0 90 -25 151.5t-59.5 94t-104.5 50t-130 21.5t-163 4h-215v-626z" />
<glyph unicode="&#x3a3;" horiz-adv-x="927" d="M16 139l349 570l-332 542v142h848v-152h-654l330 -532l-342 -557h692v-152h-889z" />
<glyph unicode="&#x3a4;" horiz-adv-x="872" d="M14 1376v137h844v-137h-346v-1376h-152v1376h-346z" />
<glyph unicode="&#x3a5;" horiz-adv-x="1212" d="M4 1513h168l430 -847l440 847h166l-528 -1007v-506h-152v506z" />
<glyph unicode="&#x3a6;" horiz-adv-x="1656" d="M129 758q0 201 180 317.5t445 132.5v305h151v-305q262 -16 442.5 -133t180.5 -317q0 -203 -180.5 -319.5t-444.5 -133.5l2 -305h-151v305q-264 16 -444.5 133t-180.5 320zM281 758q0 -145 134 -218t339 -83l-2 600q-203 -10 -337 -83t-134 -216zM905 457q203 10 337 82.5 t134 218.5q0 143 -134 216t-337 83v-600z" />
<glyph unicode="&#x3a7;" horiz-adv-x="1247" d="M16 0l514 774l-485 739h178l402 -606l399 606h176l-485 -739l516 -774h-178l-428 647l-430 -647h-179z" />
<glyph unicode="&#x3a8;" horiz-adv-x="1628" d="M129 1120v393h152v-393q0 -186 132 -320t326 -159v872h152v-872q193 25 325 159t132 320v393h151v-393q0 -248 -176 -427t-434 -206l2 -487h-152v487q-258 27 -434 206t-176 427z" />
<glyph unicode="&#x3a9;" horiz-adv-x="1632" d="M70 688q-6 293 219 509t528 216q195 0 369 -97t279.5 -263t101.5 -357q-4 -168 -77 -319.5t-187 -224.5h159v-156h-475v160q176 51 294 199.5t120 340.5q2 221 -175 389t-407 168q-236 0 -411 -167.5t-172 -397.5q4 -188 123.5 -334.5t293.5 -197.5v-160h-481v156h168 q-117 74 -192.5 223t-77.5 313z" />
<glyph unicode="&#x3b1;" horiz-adv-x="1458" d="M129 537q0 250 155.5 430t387.5 180q129 0 228 -77t161 -208q43 154 96 258h172q-106 -199 -192 -592q4 -74 7 -116.5t14 -105t28.5 -96.5t51.5 -59.5t81 -25.5v-152q-203 0 -285 260q-139 -260 -362 -260q-225 0 -384 166.5t-159 397.5zM281 537q0 -170 113.5 -291 t277.5 -121q68 0 122 35t90 99.5t58.5 131t40.5 152.5q-10 188 -90 320t-221 132q-168 0 -279.5 -136t-111.5 -322z" />
<glyph unicode="&#x3b2;" horiz-adv-x="991" d="M74 -442q55 231 55 442v1120q0 174 109.5 300t271.5 126q143 0 234.5 -120.5t91.5 -286.5q0 -102 -57.5 -190.5t-151.5 -139.5q109 -61 172 -162.5t63 -220.5q0 -184 -97 -321.5t-255 -137.5q-121 0 -229 64v-31q0 -229 -52 -442h-155zM281 205q92 -86 229 -86 q96 0 148.5 91t52.5 216q0 133 -105.5 223t-249.5 90v140q133 0 230.5 72.5t97.5 187.5q0 104 -46 180t-128 76q-98 0 -163.5 -82t-65.5 -193v-915z" />
<glyph unicode="&#x3b3;" horiz-adv-x="976" d="M-33 1120h217q328 -319 414 -809l342 809h164l-479 -1136v-334h-152v350q0 311 -135 601t-371 519z" />
<glyph unicode="&#x3b4;" horiz-adv-x="1427" d="M129 567q0 227 146.5 389t369.5 187l-373 254l39 125h805v-138h-584q283 -164 535 -346q109 -80 170 -204.5t61 -276.5q0 -252 -161.5 -418t-407.5 -166q-260 0 -430 168t-170 426zM283 563q0 -197 124.5 -323.5t317.5 -126.5q182 0 301 124.5t119 317.5q0 195 -122 324 t-306 129q-186 0 -310 -127.5t-124 -317.5z" />
<glyph unicode="&#x3b5;" horiz-adv-x="1169" d="M129 367q0 172 190 247q-164 78 -163 240q0 150 133 241t313 91q238 0 494 -115l-58 -125q-197 88 -436 88q-121 0 -208 -46t-87 -134q0 -43 20.5 -76t65.5 -52t86 -31.5t114 -16.5t116 -5t125 -1v-135q-84 0 -130.5 -1t-123 -5.5t-119.5 -15.5t-90 -28.5t-68.5 -48 t-21.5 -71.5q0 -125 111.5 -202t262.5 -77q233 0 410 84l57 -123q-236 -113 -467 -112q-213 0 -369.5 121t-156.5 309z" />
<glyph unicode="&#x3b6;" horiz-adv-x="868" d="M129 561q0 229 91 441t255 374h-346v137h610v-137h-53q-193 -141 -299 -357t-106 -458q0 -88 5 -147.5t21.5 -127t53 -101t96.5 -33.5h51q98 0 160.5 -86t62.5 -203v-213h-135v213q0 55 -23.5 96t-64.5 41h-51q-113 0 -190 85t-107.5 207t-30.5 269z" />
<glyph unicode="&#x3b7;" horiz-adv-x="1110" d="M129 0v1120h152v-125q127 152 309 152q162 0 276.5 -118t114.5 -281v-1098h-152v1098q0 102 -69.5 174.5t-169.5 72.5q-123 0 -205 -96t-104 -242v-657h-152z" />
<glyph unicode="&#x3b8;" horiz-adv-x="1114" d="M129 733q0 158 20.5 292t66.5 255t133 190.5t208 69.5t208 -69.5t133 -190.5t66.5 -255t20.5 -292q0 -147 -22.5 -276t-70.5 -241t-134 -177.5t-201 -65.5t-201 65.5t-134 177.5t-70.5 241t-22.5 276zM281 657q2 -113 14 -197.5t41 -165.5t85 -125t136 -44t136.5 44 t85 125t40.5 166t15 197h-553zM281 809h553q-2 125 -12.5 214t-37 180t-84 138.5t-143.5 47.5t-143.5 -47.5t-84 -138.5t-36.5 -180t-12 -214z" />
<glyph unicode="&#x3b9;" horiz-adv-x="665" d="M258 449v671h152v-671q0 -78 2 -120t13 -100.5t39 -85t73 -26.5v-152q-141 0 -210 141.5t-69 342.5z" />
<glyph unicode="&#x3ba;" horiz-adv-x="1028" d="M129 0v1120h152v-680l522 680h186l-436 -563l465 -557h-189l-372 449l-176 -218v-231h-152z" />
<glyph unicode="&#x3bb;" horiz-adv-x="1247" d="M129 0l504 1014l-27 84q-39 121 -107.5 199.5t-166.5 78.5v152q147 0 255.5 -109.5t162.5 -275.5l368 -1143h-160l-260 807l-401 -807h-168z" />
<glyph unicode="&#x3bc;" horiz-adv-x="1245" d="M129 -350v1470h152v-569q31 -184 114.5 -298t227 -114t227.5 114t115 298v569h151v-1120h-151v188q-131 -203 -342 -200q-211 -2 -342 200v-538h-152z" />
<glyph unicode="&#x3bd;" horiz-adv-x="1009" d="M61 1120h158l264 -948q119 113 182.5 262.5t63.5 313.5q0 174 -27 372h152q27 -178 27 -372q0 -229 -103.5 -433t-290.5 -340l-116 43z" />
<glyph unicode="&#x3be;" horiz-adv-x="808" d="M129 459q0 117 59.5 217t159.5 162q-88 49 -140 129t-52 176q0 131 80 233h-107v137h551v-137h-234q-63 -20 -101 -85.5t-38 -147.5q0 -104 88 -169t209 -65v-137q-133 0 -228 -92t-95 -221q0 -307 143 -307h45q94 0 148.5 -86t54.5 -203v-213h-135v213q0 137 -68 137 h-45q-141 0 -218 135.5t-77 323.5z" />
<glyph unicode="&#x3bf;" horiz-adv-x="1341" d="M86 567q0 246 169 413t419 167q252 0 416.5 -167t164.5 -423q0 -252 -161.5 -418t-407.5 -166q-260 0 -430 168t-170 426zM240 563q0 -197 124.5 -323.5t317.5 -126.5q182 0 301 124.5t119 317.5q0 195 -122 324t-306 129q-186 0 -310 -127.5t-124 -317.5z" />
<glyph unicode="&#x3c0;" horiz-adv-x="1507" d="M129 748q0 152 99.5 262t242.5 110h907v-151h-274v-969h-152v969h-303v-969h-151v969h-27q-82 0 -136 -65.5t-54 -155.5h-152z" />
<glyph unicode="&#x3c1;" horiz-adv-x="1241" d="M129 -350v911q0 238 139.5 412t352.5 174t352 -174t139 -412q0 -240 -139 -414t-352 -174q-190 0 -340 133v-456h-152zM281 295q53 -82 144 -126t196 -44q150 0 245 130t95 306q0 174 -95.5 304t-245 130t-244.5 -130t-95 -304v-266z" />
<glyph unicode="&#x3c2;" horiz-adv-x="1107" d="M129 573.5q0 233.5 129 403.5t332 170q141 0 249.5 -95.5t131.5 -236.5l-135 -22q-14 88 -84 145t-162 57q-141 0 -225 -125t-84 -297t84 -296.5t225 -124.5h76q125 0 215 -84t90 -205v-213h-135v213q0 59 -51.5 98t-118.5 39h-76q-203 0 -332 170t-129 403.5z" />
<glyph unicode="&#x3c3;" horiz-adv-x="1490" d="M129 567q0 246 169 413t419 167q61 0 121 -12q240 16 557 86l32 -148q-168 -37 -342 -49q213 -170 213 -467q0 -252 -161.5 -418t-407.5 -166q-260 0 -430 168t-170 426zM283 563q0 -197 124.5 -323.5t317.5 -126.5q182 0 301 124.5t119 317.5q0 195 -122 324t-306 129 q-186 0 -310 -127.5t-124 -317.5z" />
<glyph unicode="&#x3c4;" horiz-adv-x="980" d="M129 969v151h723v-151h-287l2 -520q0 -127 82 -219.5t203 -92.5v-151q-182 0 -309 136t-127 327v520h-287z" />
<glyph unicode="&#x3c5;" horiz-adv-x="1107" d="M129 373v747h152v-747q0 -102 72.5 -175t174.5 -73q131 0 215 115.5t84 271.5q0 307 -55 608h156q51 -295 51 -608q0 -219 -128 -379t-323 -160q-166 0 -282.5 118t-116.5 282z" />
<glyph unicode="&#x3c6;" horiz-adv-x="1441" d="M127 561q0 168 77 319.5t214 252.5l88 -123q-106 -78 -166.5 -197t-60.5 -252q0 -162 104 -282.5t262 -147.5v381q0 125 15.5 230.5t51.5 200.5t104.5 149.5t162.5 54.5q117 0 195.5 -90t108.5 -216t30 -280q0 -223 -148.5 -389t-367.5 -195v-327h-152v327 q-219 29 -368.5 195t-149.5 389zM797 131q156 27 260 147.5t104 282.5q0 76 -2 124t-11 113.5t-27.5 103.5t-54.5 65.5t-87 27.5q-39 0 -67.5 -16t-48 -38.5t-33 -66t-19.5 -77t-10 -93t-4 -93.5v-99v-381z" />
<glyph unicode="&#x3c7;" horiz-adv-x="1148" d="M129 -350l360 735l-360 735h168l278 -563l277 563h168l-361 -735l361 -735h-168l-279 563l-276 -563h-168z" />
<glyph unicode="&#x3c8;" horiz-adv-x="1441" d="M131 373v747h152v-747q0 -115 102 -174.5t260 -71.5l2 1386h152v-1386q158 12 260 71.5t102 174.5v747h152v-747q0 -172 -148.5 -275.5t-365.5 -122.5v-325h-152v325q-219 18 -367.5 122t-148.5 276z" />
<glyph unicode="&#x3c9;" horiz-adv-x="1472" d="M129 586q0 244 57 534h140q-45 -227 -45 -534q0 -70 1 -111t6 -102.5t18 -99t32.5 -75.5t53.5 -55.5t79 -17.5q57 0 97 30.5t60.5 89t29 119t10.5 142.5q-6 80 -6 242h151v-125q0 -43 4 -120t11.5 -120t20.5 -99.5t32.5 -86t50.5 -51t69 -21.5q45 0 79 17.5t53.5 55.5 t33 75.5t18.5 99t6 102.5t1 111q0 307 -45 534h139q57 -291 57 -534q0 -162 -29.5 -293t-109.5 -225.5t-203 -94.5q-186 0 -268 195q-86 -195 -262 -195q-123 0 -203 94.5t-109.5 225.5t-29.5 293z" />
<glyph unicode="&#x3d1;" horiz-adv-x="1183" d="M129 449v299h152v-299q0 -131 77.5 -227.5t196.5 -96.5q117 0 194.5 96t77.5 228v382q-115 4 -203.5 15.5t-178 37t-148.5 65.5t-96 104.5t-37 150.5q0 158 114.5 267.5t276.5 109.5q178 0 301 -136t123 -325v-155h76v-138h-76v-378q0 -195 -122 -335.5t-302 -140.5 t-303 140.5t-123 335.5zM299 1204q0 -68 42 -115t121 -71.5t165 -35.5t200 -15v153q0 131 -77.5 228.5t-194.5 97.5q-104 0 -180 -71t-76 -171z" />
<glyph unicode="&#x3d5;" horiz-adv-x="1341" d="M86 567q0 225 144.5 386t365.5 190v370h152v-370q223 -25 365 -186.5t142 -399.5q0 -236 -142 -397.5t-365 -184.5v-325h-152v330q-227 29 -368.5 191.5t-141.5 395.5zM240 563q0 -172 98 -292.5t258 -149.5v880q-158 -27 -257 -147.5t-99 -290.5zM748 117 q158 23 256 144.5t98 293.5q0 174 -99.5 297t-254.5 149v-884z" />
<glyph unicode="&#x3d6;" horiz-adv-x="1472" d="M129 586q0 244 57 534h140q-45 -227 -45 -534q0 -70 1 -111t6 -102.5t18 -99t32.5 -75.5t53.5 -55.5t79 -17.5q57 0 97 30.5t60.5 89t29 119t10.5 142.5q-6 80 -6 242h151v-125q0 -43 4 -120t11.5 -120t20.5 -99.5t32.5 -86t50.5 -51t69 -21.5q45 0 79 17.5t53.5 55.5 t33 75.5t18.5 99t6 102.5t1 111q0 143 -19.5 267t-61.5 234.5t-123 174t-191 63.5q-229 0 -445 -74l-43 131q240 78 488 78q137 0 244.5 -74.5t172 -200.5t97 -278.5t32.5 -320.5q0 -162 -29.5 -293t-109.5 -225.5t-203 -94.5q-186 0 -268 195q-86 -195 -262 -195 q-123 0 -203 94.5t-109.5 225.5t-29.5 293z" />
<glyph unicode="&#x3f5;" horiz-adv-x="1325" d="M86 563q0 244 174 414t426 170q172 0 312.5 -82t215.5 -225h-182q-131 168 -348 168q-170 0 -293 -107.5t-147 -271.5h639v-137h-639q25 -162 150.5 -270.5t295.5 -108.5q199 0 344 168h183q-184 -307 -521 -308q-258 0 -434 170t-176 420z" />
<glyph unicode="&#x400;" horiz-adv-x="1097" d="M156 0v1513h827v-137h-676v-542h654v-138h-654v-559h676v-137h-827zM166 1884l65 119l406 -225l-68 -115z" />
<glyph unicode="&#x401;" horiz-adv-x="1097" d="M156 0v1513h827v-137h-676v-542h654v-138h-654v-559h676v-137h-827zM344 1634v258h152v-258h-152zM645 1634v258h152v-258h-152z" />
<glyph unicode="&#x402;" horiz-adv-x="872" d="M14 1376v137h1020v-137h-522v-450h311q172 0 283 -43t166 -133.5t73.5 -193.5t18.5 -259q0 -119 -10.5 -211t-37 -180t-72.5 -146.5t-120.5 -93.5t-177.5 -35h-131v138h135q78 0 132.5 47t81 129t37.5 166t11 182q0 86 -5 146.5t-27.5 132t-61.5 114.5t-112.5 72.5 t-176.5 29.5h-317v-788h-152v1376h-346z" />
<glyph unicode="&#x403;" horiz-adv-x="997" d="M156 0v1513h888v-137h-737v-1376h-151zM500 1778l395 237l70 -119l-396 -233z" />
<glyph unicode="&#x404;" horiz-adv-x="1667" d="M90 752q0 340 224.5 564t562.5 224q233 0 420.5 -112.5t275.5 -307.5h-172q-78 121 -164 178q-156 102 -356 103q-246 0 -423 -155.5t-208 -397.5h872v-137h-876q18 -250 203.5 -424t435.5 -174q219 0 372 125q66 47 152 159h168q-229 -424 -692 -424 q-338 0 -566.5 223.5t-228.5 555.5z" />
<glyph unicode="&#x405;" horiz-adv-x="1019" d="M45 424h162q14 -127 72 -199q90 -113 243 -112q129 0 214 85t85 216q0 143 -104 217q-70 49 -234 100q-131 39 -184 64.5t-98 68.5q-106 100 -107 269q0 176 119 291.5t301 115.5q186 0 305 -113.5t119 -296.5h-158q0 121 -76.5 196t-193.5 75q-113 0 -187.5 -75 t-74.5 -189q0 -111 71 -176q49 -43 224 -95q197 -59 280 -121q152 -113 152 -323q0 -193 -130 -321t-327 -128q-207 0 -340 124t-133 327z" />
<glyph unicode="&#x406;" horiz-adv-x="462" d="M156 0v1513h151v-1513h-151z" />
<glyph unicode="&#x407;" horiz-adv-x="462" d="M4 1595v258h152v-258h-152zM156 0v1513h151v-1513h-151zM305 1595v258h152v-258h-152z" />
<glyph unicode="&#x408;" horiz-adv-x="987" d="M23 358h149q0 -113 71.5 -180t186.5 -67q250 0 250 362v1040h151v-1040q0 -193 -59 -305q-96 -197 -344 -197q-184 0 -294.5 103.5t-110.5 283.5z" />
<glyph unicode="&#x409;" horiz-adv-x="1855" d="M72 0l571 1513h148l233 -612h389q311 0 420 -61q84 -47 143.5 -151.5t59.5 -235.5q0 -119 -46 -221.5t-124 -151.5q-133 -80 -414 -80h-250l-483 1325l-481 -1325h-166zM1075 764l236 -627h125q225 0 327 56q53 27 86 99.5t33 151.5q0 92 -38 168t-103 109 q-88 43 -332 43h-334z" />
<glyph unicode="&#x40a;" horiz-adv-x="1959" d="M156 0v1513h151v-614h598v614h152v-612h184q311 0 420 -61q84 -47 143.5 -151.5t59.5 -235.5q0 -119 -46 -221.5t-124 -151.5q-133 -80 -414 -80h-375v760h-598v-760h-151zM1057 137h207q225 0 327 56q53 27 86 99.5t33 151.5q0 92 -38 168t-103 109q-88 43 -332 43h-180 v-627z" />
<glyph unicode="&#x40b;" horiz-adv-x="872" d="M14 1376v137h1020v-137h-526v-471h346q115 0 170 -3t125 -26.5t115 -70.5q68 -70 85 -151t17 -267v-387h-152v465q0 164 -69 229q-47 43 -89 59.5t-87 15.5t-113 -1h-348v-768h-148v1376h-346z" />
<glyph unicode="&#x40c;" horiz-adv-x="1210" d="M156 0v1513h151v-1513h-151zM338 776l618 737h191l-619 -737l639 -776h-190zM582 1778l395 237l70 -119l-396 -233z" />
<glyph unicode="&#x40d;" d="M156 0v1513h151v-1343l731 1343h164v-1513h-151v1268l-676 -1268h-219zM274 1884l66 119l405 -225l-67 -115z" />
<glyph unicode="&#x40e;" horiz-adv-x="1220" d="M8 1513h168l430 -847l441 847h165l-528 -1007l-266 -506h-166l266 506zM299 1909h131q10 -66 53 -94q59 -33 127 -33t127 33q43 29 54 94h131q-14 -76 -36 -116t-65 -71q-82 -59 -211 -59q-266 0 -311 246z" />
<glyph unicode="&#x40f;" horiz-adv-x="1398" d="M156 0v1513h151v-1376h785v1376h151v-1513h-469v-287h-151v287h-467z" />
<glyph unicode="&#x410;" d="M23 0l649 1513h170l651 -1513h-166l-219 510h-705l-221 -510h-159zM461 647h588l-291 694z" />
<glyph unicode="&#x411;" horiz-adv-x="1169" d="M156 0v1513h950v-137h-799v-405h223q334 0 493 -116t159 -372q0 -252 -160 -367.5t-492 -115.5h-374zM307 137h213q256 0 382 77t126 269q0 197 -126 274t-382 77h-213v-697z" />
<glyph unicode="&#x412;" horiz-adv-x="1169" d="M156 0v1513h415q260 0 383 -88q135 -100 136 -305q0 -238 -175 -313q260 -84 261 -373q0 -231 -143.5 -332.5t-446.5 -101.5h-430zM307 137h268q217 0 332 62.5t115 226.5q0 172 -112.5 235.5t-360.5 63.5h-242v-588zM307 858h246q193 0 288 54.5t95 205.5 q0 156 -97.5 207t-310.5 51h-221v-518z" />
<glyph unicode="&#x413;" horiz-adv-x="997" d="M156 0v1513h888v-137h-737v-1376h-151z" />
<glyph unicode="&#x414;" horiz-adv-x="1736" d="M53 137h144l516 1376h147l514 -1376h144v-395h-152v258h-1161v-258h-152v395zM360 137h854l-428 1188z" />
<glyph unicode="&#x415;" horiz-adv-x="1097" d="M156 0v1513h827v-137h-676v-542h654v-138h-654v-559h676v-137h-827z" />
<glyph unicode="&#x416;" horiz-adv-x="1994" d="M92 0l598 776l-577 737h190l578 -737l-598 -776h-191zM932 0v1513h151v-1513h-151zM1124 776l578 737h190l-577 -737l598 -776h-191z" />
<glyph unicode="&#x417;" horiz-adv-x="1361" d="M90 397h162q47 -92 179 -188t306 -96q199 0 318 74.5t119 234.5q0 137 -95.5 223t-228.5 86h-254v137h258q123 0 201 72t78 184q0 129 -116 203t-267 74q-119 0 -213.5 -43t-138.5 -95.5t-66 -95.5l-21 -43h-153l10 31q10 31 33.5 77t69.5 100t107.5 100.5t161 77 t218.5 30.5q209 0 370.5 -114.5t161.5 -299.5q0 -221 -198 -333q90 -27 162.5 -128.5t72.5 -234.5q0 -227 -155.5 -342t-446.5 -115q-123 0 -230.5 38t-175 91.5t-121 117t-77 106t-31.5 71.5z" />
<glyph unicode="&#x418;" horiz-adv-x="1357" d="M156 0v1513h151v-1343l731 1343h164v-1513h-151v1268l-676 -1268h-219z" />
<glyph unicode="&#x419;" horiz-adv-x="1357" d="M156 0v1513h151v-1343l731 1343h164v-1513h-151v1268l-676 -1268h-219zM369 1882h131q10 -66 53 -94q59 -33 127 -33t127 33q43 29 53 94h131q-14 -76 -35.5 -116t-64.5 -70q-82 -59 -211 -60q-266 0 -311 246z" />
<glyph unicode="&#x41a;" horiz-adv-x="1210" d="M156 0v1513h151v-1513h-151zM338 776l618 737h191l-619 -737l639 -776h-190z" />
<glyph unicode="&#x41b;" horiz-adv-x="1437" d="M72 0l571 1513h148l571 -1513h-160l-483 1325l-481 -1325h-166z" />
<glyph unicode="&#x41c;" horiz-adv-x="1882" d="M217 0v1513h236l489 -1288l488 1288h235v-1513h-152v1348l-507 -1348h-132l-505 1348v-1348h-152z" />
<glyph unicode="&#x41d;" horiz-adv-x="1398" d="M156 0v1513h151v-665h785v665h151v-1513h-151v711h-785v-711h-151z" />
<glyph unicode="&#x41e;" horiz-adv-x="1779" d="M90 766q0 315 237.5 544.5t563.5 229.5q330 0 564.5 -230.5t234.5 -553.5q0 -322 -235.5 -552.5t-563.5 -230.5q-334 0 -567.5 231.5t-233.5 561.5zM244 762q0 -268 189.5 -458.5t457.5 -190.5q264 0 454.5 189.5t190.5 451.5q0 266 -190.5 456.5t-454.5 190.5 q-262 0 -454.5 -189.5t-192.5 -449.5z" />
<glyph unicode="&#x41f;" horiz-adv-x="1398" d="M156 0v1513h1087v-1513h-151v1376h-785v-1376h-151z" />
<glyph unicode="&#x420;" horiz-adv-x="1212" d="M156 0v1513h417q272 0 404 -79q180 -106 180 -379q0 -238 -151 -348q-129 -94 -408 -95h-291v-612h-151zM307 750h281q203 0 291 51q125 70 125 254q0 207 -138 276q-90 45 -344 45h-215v-626z" />
<glyph unicode="&#x421;" horiz-adv-x="1665" d="M90 752q0 340 223.5 564t560.5 224q236 0 422.5 -112.5t274.5 -307.5h-170q-78 123 -166 178q-152 102 -354 103q-270 0 -453.5 -185.5t-183.5 -457.5q0 -266 188.5 -455.5t450.5 -189.5q217 0 374 125q61 47 152 159h168q-229 -424 -692 -424q-340 0 -567.5 223.5 t-227.5 555.5z" />
<glyph unicode="&#x422;" horiz-adv-x="954" d="M14 1376v137h1049v-137h-449v-1376h-151v1376h-449z" />
<glyph unicode="&#x423;" horiz-adv-x="1220" d="M8 1513h168l430 -847l441 847h165l-528 -1007l-266 -506h-166l266 506z" />
<glyph unicode="&#x424;" horiz-adv-x="1689" d="M98 807q0 305 177.5 478t498.5 173v168h152v-168q313 0 497.5 -175t184.5 -486q0 -309 -183.5 -484.5t-498.5 -175.5v-223h-152v223q-326 0 -501 180.5t-175 489.5zM252 803q0 -242 138 -384.5t384 -142.5v1043q-244 0 -383 -138t-139 -378zM926 276q254 0 391 133.5 t137 385.5t-141.5 388t-386.5 136v-1043z" />
<glyph unicode="&#x425;" horiz-adv-x="1247" d="M16 0l514 774l-485 739h178l402 -606l399 606h176l-485 -739l516 -774h-178l-428 647l-430 -647h-179z" />
<glyph unicode="&#x426;" horiz-adv-x="1458" d="M156 0v1513h151v-1376h785v1376h151v-1376h125v-424h-151v287h-1061z" />
<glyph unicode="&#x427;" horiz-adv-x="1300" d="M135 1044v469h152v-481q0 -106 22.5 -169.5t75.5 -91.5t105.5 -35t148.5 -7h354v784h152v-1513h-152v592h-358q-281 0 -390.5 103t-109.5 349z" />
<glyph unicode="&#x428;" horiz-adv-x="1974" d="M156 0v1513h151v-1376h604v1376h152v-1376h604v1376h152v-1513h-1663z" />
<glyph unicode="&#x429;" horiz-adv-x="2013" d="M156 0v1513h151v-1376h604v1376h152v-1376h604v1376h152v-1376h125v-424h-152v287h-1636z" />
<glyph unicode="&#x42a;" horiz-adv-x="1454" d="M12 1376v137h580v-542h223q334 0 492.5 -116t158.5 -372q0 -252 -159.5 -367.5t-491.5 -115.5h-375v1376h-428zM592 137h213q256 0 382 77t126 269q0 197 -126 274t-382 77h-213v-697z" />
<glyph unicode="&#x42b;" horiz-adv-x="1519" d="M156 0v1513h151v-542h223q334 0 493 -116t159 -372q0 -252 -160 -367.5t-492 -115.5h-374zM307 137h213q256 0 382 77t126 269q0 197 -126 274t-382 77h-213v-697zM1339 0v1513h152v-1513h-152z" />
<glyph unicode="&#x42c;" horiz-adv-x="1169" d="M156 0v1513h151v-542h223q334 0 493 -116t159 -372q0 -252 -160 -367.5t-492 -115.5h-374zM307 137h213q256 0 382 77t126 269q0 197 -126 274t-382 77h-213v-697z" />
<glyph unicode="&#x42d;" horiz-adv-x="1667" d="M90 397h168q86 -113 152 -159q154 -125 372 -125q250 0 435.5 174t203.5 424h-876v137h872q-31 242 -208 397.5t-423 155.5q-201 0 -356 -103q-86 -57 -164 -178h-172q88 195 275.5 307.5t421.5 112.5q338 0 562 -224t224 -564q0 -332 -228.5 -555.5t-566.5 -223.5 q-463 0 -692 424z" />
<glyph unicode="&#x42e;" horiz-adv-x="2213" d="M156 0v1513h151v-665h225q35 289 263.5 490.5t529.5 201.5q330 0 564.5 -230.5t234.5 -553.5q0 -322 -235.5 -552.5t-563.5 -230.5q-317 0 -543.5 213t-249.5 525h-225v-711h-151zM678 762q0 -268 189.5 -458.5t457.5 -190.5q264 0 454.5 189.5t190.5 451.5 q0 266 -190.5 456.5t-454.5 190.5q-262 0 -454.5 -189.5t-192.5 -449.5z" />
<glyph unicode="&#x42f;" horiz-adv-x="1236" d="M55 1026q0 291 228 414q135 74 424 73h374v-1513h-151v1376h-213q-231 0 -348 -55q-160 -76 -160 -289q0 -258 229 -319q55 -14 420 -15l-592 -698h-188l491 571q-248 0 -381 124t-133 331z" />
<glyph unicode="&#x430;" horiz-adv-x="1398" d="M86 557q0 252 169 421t421 169q283 0 442 -225v198h152v-1120h-152v197q-90 -121 -189.5 -172.5t-242.5 -51.5q-258 0 -429 167t-171 417zM240 567q0 -193 129 -323.5t319 -130.5q180 0 305 131t125 321q0 186 -127 314.5t-311 128.5q-182 0 -311 -129.5t-129 -311.5z " />
<glyph unicode="&#x431;" horiz-adv-x="1343" d="M96 567q0 100 4 179t17.5 178.5t36 174.5t65.5 151.5t100.5 130t143.5 91t194 48.5q121 12 199 19t150.5 22.5t154.5 44.5v-146q-156 -66 -504 -92q-61 -4 -114.5 -24.5t-90 -46t-69.5 -64.5t-52.5 -71t-37 -76t-24.5 -65.5t-15 -55.5l-8 -35q160 217 438 217 q252 0 417 -167t165 -423q0 -252 -162 -418t-408 -166q-262 0 -431 167t-169 427zM250 563q0 -197 125 -323.5t317 -126.5q182 0 301 124.5t119 317.5q0 195 -122 324t-306 129q-186 0 -310 -127.5t-124 -317.5z" />
<glyph unicode="&#x432;" horiz-adv-x="968" d="M129 0v1120h389q168 0 252 -85t84 -193q0 -104 -70 -183q223 -88 224 -315q0 -164 -119 -254t-309 -90h-451zM281 139h297q279 4 278 205q0 104 -78 157.5t-207 53.5h-290v-416zM281 692h229q193 0 192 150q0 137 -186 139h-235v-289z" />
<glyph unicode="&#x433;" horiz-adv-x="755" d="M129 0v1120h719v-139h-569v-981h-150z" />
<glyph unicode="&#x434;" horiz-adv-x="1368" d="M55 137h135l414 983h160l414 -983h135v-383h-172v246h-914v-246h-172v383zM342 137h680l-344 805z" />
<glyph unicode="&#x435;" horiz-adv-x="1331" d="M86 565q0 244 169 413t413 169q160 0 296 -79t212 -212q76 -135 75 -346h-1013q8 -166 136 -281.5t300 -115.5q127 0 235.5 70.5t155.5 185.5h158q-43 -131 -164 -246q-160 -150 -381 -150q-248 0 -420 171t-172 421zM242 647h858q-39 168 -155 264.5t-279 96.5 q-160 0 -276.5 -99.5t-147.5 -261.5z" />
<glyph unicode="&#x436;" horiz-adv-x="1572" d="M14 0l465 557l-436 563h186l437 -563l-463 -557h-189zM752 0v1120h151v-1120h-151zM989 557l436 563h187l-436 -563l464 -557h-188z" />
<glyph unicode="&#x437;" horiz-adv-x="937" d="M55 309h138l18 -30q18 -31 52 -68t99.5 -67.5t141.5 -30.5q127 0 214 56t87 140q0 102 -79 157.5t-202 55.5h-147v150h147q86 0 141.5 45t55.5 137q0 68 -68.5 111t-148.5 43q-78 0 -135.5 -39t-75.5 -76l-19 -39h-137l19 47q16 45 53 99.5t114.5 100.5t180.5 46 q166 0 260 -82t94 -211q0 -78 -42 -150.5t-97 -95.5q94 -14 161.5 -105t67.5 -194q0 -145 -121.5 -240.5t-322.5 -95.5q-100 0 -183 35t-130.5 84t-80 98.5t-44.5 83.5z" />
<glyph unicode="&#x438;" horiz-adv-x="1245" d="M129 0v1120h150v-911l688 911h149v-1120h-149v911l-688 -911h-150z" />
<glyph unicode="&#x439;" horiz-adv-x="1245" d="M129 0v1120h150v-911l688 911h149v-1120h-149v911l-688 -911h-150zM313 1501h131q10 -66 54 -94q59 -33 126.5 -33t127.5 33q43 29 53 94h131q-14 -76 -35.5 -115.5t-64.5 -70.5q-82 -59 -211 -60q-267 0 -312 246z" />
<glyph unicode="&#x43a;" horiz-adv-x="976" d="M129 0v1120h152v-1120h-152zM367 557l436 563h186l-436 -563l465 -557h-189z" />
<glyph unicode="&#x43b;" horiz-adv-x="1134" d="M16 0l471 1120h160l471 -1120h-153l-402 942l-393 -942h-154z" />
<glyph unicode="&#x43c;" horiz-adv-x="1413" d="M129 0v1120h227l377 -942l385 942h228v-1120h-152v936l-397 -936h-140l-376 936v-936h-152z" />
<glyph unicode="&#x43d;" horiz-adv-x="1114" d="M129 0v1120h150v-471h628v471h150v-1120h-150v512h-628v-512h-150z" />
<glyph unicode="&#x43e;" horiz-adv-x="1341" d="M86 567q0 246 169 413t419 167q252 0 416.5 -167t164.5 -423q0 -252 -161.5 -418t-407.5 -166q-260 0 -430 168t-170 426zM240 563q0 -197 124.5 -323.5t317.5 -126.5q182 0 301 124.5t119 317.5q0 195 -122 324t-306 129q-186 0 -310 -127.5t-124 -317.5z" />
<glyph unicode="&#x43f;" horiz-adv-x="1124" d="M129 0v1120h928v-1120h-152v983h-624v-983h-152z" />
<glyph unicode="&#x440;" horiz-adv-x="1396" d="M129 -393v1513h152v-192q145 219 440 219q250 0 420 -170t170 -420q0 -246 -172 -415t-422 -169q-287 0 -436 220v-586h-152zM270 565q0 -195 127 -323.5t320 -128.5q186 0 313 128t127 316q0 193 -127 322t-315 129q-186 0 -315.5 -128.5t-129.5 -314.5z" />
<glyph unicode="&#x441;" horiz-adv-x="1325" d="M86 563q0 244 174 414t426 170q188 0 339 -99.5t218 -267.5h-170q-133 227 -389 228q-186 0 -315 -130t-129 -319q0 -186 131 -316t319 -130q119 0 207 50t176 167h172q-80 -154 -176 -230q-162 -127 -373 -127q-258 0 -434 170t-176 420z" />
<glyph unicode="&#x442;" horiz-adv-x="741" d="M12 983v137h983v-137h-415v-983h-152v983h-416z" />
<glyph unicode="&#x443;" horiz-adv-x="1097" d="M18 1120h166l355 -893l379 893h161l-647 -1513h-162l183 430z" />
<glyph unicode="&#x444;" horiz-adv-x="1490" d="M86 567q0 246 173 413t423 167v145h152v-145q240 0 405.5 -171t165.5 -419q0 -252 -163 -418t-408 -166v-194h-152v194q-260 0 -428 168t-168 426zM240 563q0 -197 124.5 -323.5t317.5 -126.5v895q-186 0 -314 -127.5t-128 -317.5zM834 113q182 0 299.5 126t117.5 316 q0 188 -121.5 320.5t-295.5 132.5v-895z" />
<glyph unicode="&#x445;" horiz-adv-x="983" d="M16 0l390 571l-390 549h172l304 -432l301 432h174l-392 -549l392 -571h-174l-301 449l-304 -449h-172z" />
<glyph unicode="&#x446;" horiz-adv-x="1146" d="M129 0v1120h152v-983h524v983h151v-983h136v-401h-152v264h-811z" />
<glyph unicode="&#x447;" horiz-adv-x="1024" d="M70 766v354h151v-346q0 -150 59.5 -189.5t235.5 -39.5h229v575h150v-1120h-150v412h-356q-147 0 -233 101t-86 253z" />
<glyph unicode="&#x448;" horiz-adv-x="1683" d="M129 0v1120h152v-983h485v983h152v-983h485v983h151v-1120h-1425z" />
<glyph unicode="&#x449;" horiz-adv-x="1806" d="M129 0v1120h152v-983h485v983h152v-983h485v983h151v-983h136v-401h-152v264h-1409z" />
<glyph unicode="&#x44a;" horiz-adv-x="1138" d="M12 963v157h453v-364h291q190 0 313 -106.5t123 -274.5t-121 -271.5t-307 -103.5h-451v963h-301zM465 137h297q125 2 201.5 66.5t76.5 171t-79.5 174t-204.5 67.5h-291v-479z" />
<glyph unicode="&#x44b;" horiz-adv-x="1269" d="M129 0v1120h152v-364h290q190 0 313.5 -106.5t123.5 -274.5t-121 -271.5t-307 -103.5h-451zM281 137h297q125 2 201.5 66.5t76.5 171t-80 174t-205 67.5h-290v-479zM1092 0v1120h151v-1120h-151z" />
<glyph unicode="&#x44c;" horiz-adv-x="954" d="M129 0v1120h152v-364h290q190 0 313.5 -106.5t123.5 -274.5t-121 -271.5t-307 -103.5h-451zM281 137h297q125 2 201.5 66.5t76.5 171t-80 174t-205 67.5h-290v-479z" />
<glyph unicode="&#x44d;" horiz-adv-x="1331" d="M86 330h172q90 -117 178 -167t207 -50q170 0 295 108.5t149 270.5h-649v137h652q-25 166 -149 272.5t-294 106.5q-256 0 -389 -228h-168q68 170 217.5 268.5t339.5 98.5q252 0 425 -170t173 -414q0 -250 -176 -420t-434 -170q-207 0 -373 127q-98 80 -176 230z" />
<glyph unicode="&#x44e;" horiz-adv-x="1746" d="M129 0v1120h150v-491h215q23 223 188.5 370.5t396.5 147.5q252 0 417 -167t165 -423q0 -252 -162 -418t-407 -166q-240 0 -405 144.5t-191 374.5h-217v-492h-150zM645 563q0 -197 125 -323.5t317 -126.5q182 0 301 124.5t119 317.5q0 195 -121.5 324t-306.5 129 q-186 0 -310 -127.5t-124 -317.5z" />
<glyph unicode="&#x44f;" horiz-adv-x="1028" d="M119 0l315 379q-139 35 -222 132t-83 234q0 168 121 271.5t307 103.5h451v-1120h-152v983h-297q-125 -2 -201.5 -66.5t-76.5 -171t79.5 -174t204.5 -67.5h160l-418 -504h-188z" />
<glyph unicode="&#x450;" horiz-adv-x="1331" d="M86 565q0 244 169 413t413 169q160 0 296 -79t212 -212q76 -135 75 -346h-1013q8 -166 136 -281.5t300 -115.5q127 0 235.5 70.5t155.5 185.5h158q-43 -131 -164 -246q-160 -150 -381 -150q-248 0 -420 171t-172 421zM242 647h858q-39 168 -155 264.5t-279 96.5 q-160 0 -276.5 -99.5t-147.5 -261.5zM264 1491l66 119l405 -226l-67 -114z" />
<glyph unicode="&#x451;" horiz-adv-x="1331" d="M86 565q0 244 169 413t413 169q160 0 296 -79t212 -212q76 -135 75 -346h-1013q8 -166 136 -281.5t300 -115.5q127 0 235.5 70.5t155.5 185.5h158q-43 -131 -164 -246q-160 -150 -381 -150q-248 0 -420 171t-172 421zM242 647h858q-39 168 -155 264.5t-279 96.5 q-160 0 -276.5 -99.5t-147.5 -261.5zM449 1276v258h151v-258h-151zM750 1276v258h151v-258h-151z" />
<glyph unicode="&#x452;" horiz-adv-x="1249" d="M12 1161v137h234v215h151v-215h447v-137h-447v-280h332q231 0 350 -97q158 -131 158 -319v-270q0 -274 -66 -396q-74 -135 -147 -166q-106 -45 -274 -45v127q184 0 251 78q84 94 84 320v340q0 166 -120 241q-27 16 -96.5 39t-133.5 23h-338v-756h-151v1161h-234z" />
<glyph unicode="&#x453;" horiz-adv-x="755" d="M129 0v1120h719v-139h-569v-981h-150zM369 1384l395 238l70 -119l-396 -233z" />
<glyph unicode="&#x454;" horiz-adv-x="1331" d="M86 563q0 244 173 414t425 170q190 0 340 -98.5t217 -268.5h-168q-133 227 -389 228q-170 0 -294 -106.5t-148 -272.5h651v-137h-649q25 -162 149.5 -270.5t294.5 -108.5q119 0 207 50t178 167h172q-78 -150 -176 -230q-166 -127 -373 -127q-258 0 -434 170t-176 420z " />
<glyph unicode="&#x455;" horiz-adv-x="794" d="M37 330h149q0 -100 58.5 -158.5t152.5 -58.5q82 0 135.5 55t53.5 139q0 96 -72 146q-49 33 -145 69q-121 51 -146.5 64.5t-60.5 44.5q-84 78 -84 200q0 137 90 226.5t227 89.5t226.5 -85t89.5 -218h-154q0 78 -44 121t-120 43q-68 0 -115 -47.5t-47 -114.5 q0 -96 103 -148q41 -20 211 -90q195 -82 194 -286q0 -154 -95 -251.5t-247 -97.5q-162 0 -261 97.5t-99 259.5z" />
<glyph unicode="&#x456;" horiz-adv-x="409" d="M129 0v1120h152v-1120h-152zM129 1255v258h152v-258h-152z" />
<glyph unicode="&#x457;" horiz-adv-x="409" d="M-20 1270v258h151v-258h-151zM129 0v1120h152v-1120h-152zM281 1270v258h151v-258h-151z" />
<glyph unicode="&#x458;" horiz-adv-x="415" d="M-92 -248q127 8 177 80t50 246v1042h152v-1042q0 -164 -31 -249t-113 -146q-96 -70 -235 -76v145zM135 1255v258h152v-258h-152z" />
<glyph unicode="&#x459;" horiz-adv-x="1388" d="M16 0l471 1120h160l176 -418h342q432 0 432 -356q0 -188 -106.5 -267t-325.5 -79h-200l-402 942l-393 -942h-154zM887 551l174 -414h104q156 0 226.5 48t70.5 155q0 115 -67.5 163t-229.5 48h-278z" />
<glyph unicode="&#x45a;" horiz-adv-x="1421" d="M129 0v1120h150v-418h374v418h152v-418h186q432 0 432 -356q0 -188 -106.5 -267t-325.5 -79h-338v553h-374v-553h-150zM805 137h186q156 0 226.5 48t70.5 155q0 115 -67.5 163t-229.5 48h-186v-414z" />
<glyph unicode="&#x45b;" horiz-adv-x="1249" d="M-39 1229v135h174v149h152v-149h364v-135h-364v-324h327q154 0 242 -19.5t155.5 -87t91 -142t23.5 -191.5v-465h-151v465q0 160 -70 229q-74 74 -289 74h-329v-768h-152v1229h-174z" />
<glyph unicode="&#x45c;" horiz-adv-x="1028" d="M129 0v1120h152v-1120h-152zM367 557l436 563h186l-436 -563l465 -557h-189zM489 1384l396 238l69 -119l-395 -233z" />
<glyph unicode="&#x45d;" horiz-adv-x="1245" d="M129 0v1120h150v-911l688 911h149v-1120h-149v911l-688 -911h-150zM219 1491l66 119l405 -226l-67 -114z" />
<glyph unicode="&#x45e;" horiz-adv-x="1097" d="M18 1120h166l355 -893l379 893h161l-647 -1513h-162l183 430zM238 1516h131q10 -66 53 -95q59 -33 126.5 -32.5t127.5 32.5q43 29 53 95h131q-14 -76 -35.5 -116t-64.5 -71q-82 -59 -211 -59q-266 0 -311 246z" />
<glyph unicode="&#x45f;" horiz-adv-x="1083" d="M129 0v1120h152v-983h522v983h151v-1120h-340v-287h-131v287h-354z" />
<glyph unicode="&#x48c;" horiz-adv-x="1169" d="M8 1149v131h148v233h151v-233h164v-131h-164v-287h185q311 0 419 -61q86 -47 144.5 -142.5t58.5 -224.5q0 -117 -45 -211t-125 -143q-133 -80 -414 -80h-374v1149h-148zM307 137h207q225 0 328 56q53 29 86 92t33 141q0 184 -142 256q-88 43 -332 43h-180v-588z" />
<glyph unicode="&#x48d;" horiz-adv-x="954" d="M6 846v131h123v143h152v-143h137v-131l-137 -2v-142h186q432 0 432 -356q0 -188 -106.5 -267t-325.5 -79h-340v846h-121zM281 137h186q156 0 226.5 48t70.5 155q0 115 -67.5 163t-229.5 48h-186v-414z" />
<glyph unicode="&#x48e;" horiz-adv-x="1212" d="M156 0v1513h417q272 0 404 -79q180 -106 180 -379q0 -238 -151 -348q-6 -6 -23 -15l160 -160l-92 -92l-197 197q-100 -25 -256 -25h-291v-612h-151zM307 750h281q90 0 145 8l-172 172l92 92l224 -223l2 2q125 70 125 254q0 207 -138 276q-90 45 -344 45h-215v-626z" />
<glyph unicode="&#x48f;" horiz-adv-x="1396" d="M129 -393v1513h152v-192q145 219 440 219q250 0 420 -170t170 -420q0 -242 -168 -410l168 -167l-92 -93l-179 179q-143 -92 -323 -93q-287 0 -436 220v-586h-152zM270 565q0 -195 127 -323.5t320 -128.5q119 0 219 55l-207 209l92 92l219 -219q117 127 117 307 q0 193 -127 322t-315 129q-186 0 -315.5 -128.5t-129.5 -314.5z" />
<glyph unicode="&#x490;" horiz-adv-x="997" d="M156 0v1513h675v136h152v-273h-676v-1376h-151z" />
<glyph unicode="&#x491;" horiz-adv-x="755" d="M129 0v1120h471v129h145v-268h-466v-981h-150z" />
<glyph unicode="&#x492;" horiz-adv-x="997" d="M20 879v131h136v503h827v-137h-676v-366h193v-131h-193v-879h-151v879h-136z" />
<glyph unicode="&#x493;" horiz-adv-x="755" d="M6 686v131h123v303h616v-139h-466v-164h172v-131h-175v-686h-149v686h-121z" />
<glyph unicode="&#x494;" horiz-adv-x="997" d="M156 0v1513h827v-137h-676v-450h311q172 0 283 -43t166 -133.5t73.5 -193.5t18.5 -259q0 -119 -10 -211t-37 -180t-73 -146.5t-120.5 -93.5t-177.5 -35h-131v138h135q78 0 132.5 47t81 129t38 166t11.5 182q0 86 -5.5 146.5t-28 132t-61.5 114.5t-112.5 72.5t-175.5 29.5 h-318v-788h-151z" />
<glyph unicode="&#x495;" horiz-adv-x="755" d="M129 0v1120h616v-139l-466 2v-266h147q231 0 350 -96q158 -131 158 -320v-106q0 -274 -66 -396q-74 -135 -147 -166q-106 -45 -275 -45v127q184 0 252 78q84 94 84 320v176q0 166 -120 241q-27 16 -96.5 39t-133.5 23h-153v-592h-150z" />
<glyph unicode="&#x496;" horiz-adv-x="1994" d="M92 0l598 776l-577 737h190l578 -737l-598 -776h-191zM932 0v1513h151v-1513h-151zM1124 776l578 737h190l-577 -737l491 -639h125v-424h-151v287h-58z" />
<glyph unicode="&#x497;" horiz-adv-x="1654" d="M14 0l465 557l-436 563h186l437 -563l-463 -557h-189zM752 0v1120h151v-1120h-151zM989 557l436 563h187l-436 -563l350 -420h135v-401h-152v264h-57z" />
<glyph unicode="&#x498;" horiz-adv-x="1144" d="M90 397h162q47 -92 179 -188t306 -96q199 0 318 74.5t119 234.5q0 137 -95.5 223t-228.5 86h-254v137h258q123 0 201 72t78 184q0 129 -116 203t-267 74q-119 0 -213.5 -43t-138.5 -95.5t-66 -95.5l-21 -43h-153l10 31q10 31 33.5 77t69.5 100t107.5 100.5t161 77 t218.5 30.5q209 0 370.5 -114.5t161.5 -299.5q0 -221 -198 -333q90 -27 162.5 -128.5t72.5 -234.5q0 -215 -140 -329.5t-405 -125.5q109 -80 109 -182q0 -80 -59.5 -132t-151.5 -52q-45 0 -105 18v94q43 -20 93 -20q51 0 85.5 28.5t34.5 71.5q0 74 -116 174 q-137 10 -252 66.5t-181.5 131.5t-102.5 131t-46 93z" />
<glyph unicode="&#x499;" horiz-adv-x="819" d="M55 309h138l18 -30q18 -31 52 -68t99.5 -67.5t141.5 -30.5q127 0 214 56t87 140q0 102 -79 157.5t-202 55.5h-147v150h147q86 0 141.5 45t55.5 137q0 68 -68.5 111t-148.5 43q-78 0 -135.5 -39t-75.5 -76l-19 -39h-137l19 47q16 45 53 99.5t114.5 100.5t180.5 46 q166 0 260 -82t94 -211q0 -78 -42 -150.5t-97 -95.5q94 -14 161.5 -105t67.5 -194q0 -135 -105.5 -227t-285.5 -107q111 -78 111 -182q0 -80 -59.5 -132t-151.5 -52q-47 0 -105 18v94q43 -20 92 -20q51 0 86 28.5t35 71.5q0 80 -119 174q-86 10 -158.5 48t-113.5 85.5 t-69.5 93.5t-38.5 77z" />
<glyph unicode="&#x49a;" horiz-adv-x="1210" d="M156 0v1513h151v-1513h-151zM338 776l618 737h191l-619 -737l527 -639h125v-424h-152v287h-51z" />
<glyph unicode="&#x49b;" horiz-adv-x="1028" d="M129 0v1120h152v-1120h-152zM367 557l436 563h186l-436 -563l350 -420h135v-401h-151v264h-58z" />
<glyph unicode="&#x49c;" horiz-adv-x="1210" d="M156 0v1513h151v-1513h-151zM338 776l53 64v366h131v-211l434 518h191l-619 -737l639 -776h-190l-455 553v-180h-131v338z" />
<glyph unicode="&#x49d;" horiz-adv-x="1028" d="M129 0v1120h152v-1120h-152zM367 557l45 57v340h131v-170l260 336h186l-436 -563l465 -557h-189l-286 344v-141h-131v301z" />
<glyph unicode="&#x49e;" horiz-adv-x="1210" d="M35 1235v131h168v147h151v-147h166v-131h-166v-1235h-151v1235h-168zM385 776l619 737h190l-619 -737l639 -776h-190z" />
<glyph unicode="&#x49f;" horiz-adv-x="1028" d="M2 874v132h127v114h152v-114h145v-132h-145v-874h-152v874h-127zM367 557l436 563h186l-436 -563l465 -557h-189z" />
<glyph unicode="&#x4a0;" horiz-adv-x="1210" d="M12 1376v137h580v-1513h-152v1376h-428zM623 776l618 737h191l-619 -737l639 -776h-190z" />
<glyph unicode="&#x4a1;" horiz-adv-x="1028" d="M12 963v157h453v-1120h-152v963h-301zM551 557l436 563h187l-437 -563l465 -557h-188z" />
<glyph unicode="&#x4a2;" horiz-adv-x="1398" d="M156 0v1513h151v-665h785v665h151v-1376h125v-424h-151v287h-125v711h-785v-711h-151z" />
<glyph unicode="&#x4a3;" horiz-adv-x="1083" d="M129 0v1120h150v-471h628v471h150v-983h135v-401h-152v264h-133v512h-628v-512h-150z" />
<glyph unicode="&#x4a4;" horiz-adv-x="1728" d="M156 0v1513h151v-665h785v665h888v-137h-737v-1376h-151v711h-785v-711h-151z" />
<glyph unicode="&#x4a5;" horiz-adv-x="1083" d="M129 0v1120h150v-471h628v471h719v-139h-569v-981h-150v512h-628v-512h-150z" />
<glyph unicode="&#x4a6;" horiz-adv-x="1398" d="M156 0v1513l1087 -4v-583h311q172 0 283 -43t166 -133.5t73.5 -193.5t18.5 -259q0 -119 -10 -211t-37 -180t-73 -146.5t-120.5 -93.5t-177.5 -35h-131v138h135q78 0 132.5 47t81 129t38 166t11.5 182q0 86 -5.5 146.5t-28 132t-61.5 114.5t-112.5 72.5t-175.5 29.5h-318 v-788h-151v1376h-785v-1376h-151z" />
<glyph unicode="&#x4a7;" horiz-adv-x="1083" d="M129 0v1120h825v-403h148q231 0 350 -96q158 -131 158 -320v-106q0 -274 -66 -396q-74 -135 -147 -166q-106 -45 -275 -45v127q184 0 252 78q84 94 84 320v176q0 166 -121 241q-27 16 -96.5 39t-132.5 23h-154v-592h-151v983h-522v-983h-152z" />
<glyph unicode="&#x4a8;" horiz-adv-x="1665" d="M90 752q0 340 223.5 564t560.5 224q236 0 422.5 -112.5t274.5 -307.5h-170q-78 123 -166 178q-152 102 -354 103q-270 0 -453.5 -185.5t-183.5 -457.5q0 -266 188.5 -455.5t450.5 -189.5q217 0 374 125q61 47 152 159h168q-229 -424 -692 -424q-340 0 -567.5 223.5 t-227.5 555.5z" />
<glyph unicode="&#x4a9;" horiz-adv-x="1325" d="M86 563q0 244 174 414t426 170q188 0 339 -99.5t218 -267.5h-170q-133 227 -389 228q-186 0 -315 -130t-129 -319q0 -186 131 -316t319 -130q119 0 207 50t176 167h172q-80 -154 -176 -230q-162 -127 -373 -127q-258 0 -434 170t-176 420z" />
<glyph unicode="&#x4aa;" horiz-adv-x="1665" d="M90 752q0 340 223.5 564t560.5 224q236 0 422.5 -112.5t274.5 -307.5h-170q-78 123 -166 178q-152 102 -354 103q-270 0 -453.5 -185.5t-183.5 -457.5q0 -266 188.5 -455.5t450.5 -189.5q217 0 374 125q61 47 152 159h168q-217 -399 -639 -422q109 -80 109 -182 q0 -80 -59.5 -132t-151.5 -52q-45 0 -105 18v94q43 -20 92 -20q51 0 86 28.5t35 71.5q0 74 -117 174q-319 20 -528 240t-209 537z" />
<glyph unicode="&#x4ab;" horiz-adv-x="1325" d="M86 563q0 244 174 414t426 170q188 0 339 -99.5t218 -267.5h-170q-133 227 -389 228q-186 0 -315 -130t-129 -319q0 -186 131 -316t319 -130q119 0 207 50t176 167h172q-80 -154 -176 -230q-137 -109 -319 -125q111 -78 110 -182q0 -80 -59.5 -132t-151.5 -52 q-47 0 -104 18v94q43 -20 92 -20q51 0 86 28.5t35 71.5q0 80 -119 174q-238 20 -395.5 186t-157.5 402z" />
<glyph unicode="&#x4ac;" horiz-adv-x="872" d="M14 1376v137h1049v-137h-449v-1239h125v-424h-151v287h-125v1376h-449z" />
<glyph unicode="&#x4ad;" horiz-adv-x="741" d="M12 983v137h983v-137h-415v-846h135v-401h-152v264h-135v983h-416z" />
<glyph unicode="&#x4ae;" horiz-adv-x="1212" d="M4 1513h168l430 -847l440 847h166l-528 -1007v-506h-152v506z" />
<glyph unicode="&#x4af;" horiz-adv-x="1134" d="M16 1120h154l393 -942l402 942h153l-471 -1120v-393h-160v393z" />
<glyph unicode="&#x4b0;" horiz-adv-x="1212" d="M4 1513h168l430 -847l440 847h166l-526 -1003h272v-131h-276v-379h-152v379h-262v131h262z" />
<glyph unicode="&#x4b1;" horiz-adv-x="1134" d="M16 1120h154l393 -942l402 942h153l-416 -989h216v-131h-271v-393h-160v393h-258v131h203z" />
<glyph unicode="&#x4b2;" horiz-adv-x="1247" d="M16 0l514 774l-485 739h178l402 -606l399 606h176l-485 -739l424 -637h125v-424h-152v287h-59l-428 647l-430 -647h-179z" />
<glyph unicode="&#x4b3;" horiz-adv-x="983" d="M16 0l390 571l-390 549h172l304 -432l301 432h174l-392 -549l297 -434h136v-401h-152v264h-63l-301 449l-304 -449h-172z" />
<glyph unicode="&#x4b4;" horiz-adv-x="1519" d="M156 0v1513h151v-1376h785v1376h151v-1376h187v-424h-152v287h-1122z" />
<glyph unicode="&#x4b5;" horiz-adv-x="1208" d="M129 0v1120h152v-983h524v983h151v-983h197v-401h-152v264h-872z" />
<glyph unicode="&#x4b6;" horiz-adv-x="1300" d="M135 1065v448h152v-460q0 -164 69 -230q47 -43 87 -59t84 -15t112 1h354v763h152v-1376h125v-424h-152v287h-125v612h-358q-121 0 -170 2t-117.5 25t-114.5 70q-70 74 -84 126t-14 230z" />
<glyph unicode="&#x4b7;" horiz-adv-x="1024" d="M70 766v354h151v-346q0 -127 70 -184q33 -27 58.5 -36t67.5 -9h115h213v575h150v-983h135v-401h-151v264h-134v412h-356q-137 0 -235 100q-84 84 -84 254z" />
<glyph unicode="&#x4b8;" horiz-adv-x="1300" d="M135 1067v449h152v-461q0 -164 69 -230q43 -39 83 -55t65.5 -18t93.5 0v262h131v-262h264v761h152v-1513h-152v614h-264v-292h-131v292q-100 0 -150.5 4.5t-111 26t-103.5 66.5q-70 74 -84 126t-14 230z" />
<glyph unicode="&#x4b9;" horiz-adv-x="1024" d="M70 768v352h151v-344q0 -127 70 -184q35 -29 61.5 -37t77.5 -8v225h131v-225h184v573h150v-1120h-150v414h-184v-207h-131v207h-41q-137 0 -235 100q-84 84 -84 254z" />
<glyph unicode="&#x4ba;" horiz-adv-x="1300" d="M135 0v1513h152v-608h346q115 0 170 -3t124.5 -26.5t114.5 -70.5q68 -70 85.5 -151t17.5 -267v-387h-152v465q0 164 -69 229q-47 43 -89 59.5t-87.5 15.5t-112.5 -1h-348v-768h-152z" />
<glyph unicode="&#x4bb;" horiz-adv-x="1024" d="M70 0v1120h149v-411h356q137 0 236 -101q84 -84 84 -254v-354h-152v346q0 127 -69 184q-33 27 -58.5 36t-67.5 9h-116h-213v-575h-149z" />
<glyph unicode="&#x4bc;" horiz-adv-x="1665" d="M90 762q0 332 228.5 555t566.5 223t566 -223t228 -555v-96h-1429q31 -242 208 -397.5t423 -155.5q201 0 356 102q86 57 164 178h172q-88 -195 -275.5 -307.5t-420.5 -112.5q-338 0 -562.5 224.5t-224.5 564.5zM246 803h1278q-18 250 -203.5 424t-435.5 174t-435.5 -174 t-203.5 -424z" />
<glyph unicode="&#x4bd;" horiz-adv-x="1325" d="M86 565q0 244 169 413t413 169q160 0 296 -79t212 -212q76 -135 75 -346h-1013q8 -166 136 -281.5t300 -115.5q127 0 235.5 70.5t155.5 185.5h158q-43 -131 -164 -246q-160 -150 -381 -150q-248 0 -420 171t-172 421zM242 647h858q-39 168 -155 264.5t-279 96.5 q-160 0 -276.5 -99.5t-147.5 -261.5z" />
<glyph unicode="&#x4be;" horiz-adv-x="1665" d="M90 752q0 340 223.5 564t560.5 224q236 0 422.5 -112.5t274.5 -307.5h-170q-78 123 -166 178q-152 102 -354 103q-270 0 -453.5 -185.5t-183.5 -457.5q0 -266 188.5 -455.5t450.5 -189.5q217 0 374 125q61 47 152 159h168q-229 -424 -692 -424q-340 0 -567.5 223.5 t-227.5 555.5z" />
<glyph unicode="&#x4bf;" horiz-adv-x="1325" d="M86 563q0 244 174 414t426 170q188 0 339 -99.5t218 -267.5h-170q-133 227 -389 228q-186 0 -315 -130t-129 -319q0 -186 131 -316t319 -130q119 0 207 50t176 167h172q-80 -154 -176 -230q-162 -127 -373 -127q-258 0 -434 170t-176 420z" />
<glyph unicode="&#x4c0;" horiz-adv-x="462" d="M156 0v1513h151v-1513h-151z" />
<glyph unicode="&#x4c1;" horiz-adv-x="1994" d="M92 0l598 776l-577 737h190l578 -737l-598 -776h-191zM692 1909h131q10 -66 54 -94q59 -33 126.5 -33t126.5 33q43 29 54 94h131q-14 -76 -36 -116t-65 -71q-82 -59 -210 -59q-267 0 -312 246zM932 0v1513h151v-1513h-151zM1124 776l578 737h190l-577 -737l598 -776h-191 z" />
<glyph unicode="&#x4c2;" horiz-adv-x="1654" d="M14 0l465 557l-436 563h186l437 -563l-463 -557h-189zM516 1516h131q10 -66 53 -95q59 -33 127 -32.5t127 32.5q43 29 54 95h131q-14 -76 -36 -116t-65 -71q-82 -59 -211 -59q-266 0 -311 246zM752 0v1120h151v-1120h-151zM989 557l436 563h187l-436 -563l464 -557h-188z " />
<glyph unicode="&#x4c3;" horiz-adv-x="1210" d="M156 0v1513h151v-1513h-151zM338 776l618 737h191l-619 -737l639 -776h-190z" />
<glyph unicode="&#x4c4;" horiz-adv-x="1028" d="M129 0v1120h152v-1120h-152zM367 557l436 563h186l-436 -563l465 -557h-189z" />
<glyph unicode="&#x4c7;" horiz-adv-x="1398" d="M156 0v1513h151v-665h785v665h151v-1513h-151v711h-785v-711h-151z" />
<glyph unicode="&#x4c8;" horiz-adv-x="1083" d="M129 0v1120h150v-471h628v471h150v-1120h-150v512h-628v-512h-150z" />
<glyph unicode="&#x4cb;" horiz-adv-x="1300" d="M135 1065v448h152v-460q0 -164 69 -230q47 -43 87 -59t84 -15t112 1h354v763h152v-1513h-125v-287h-152v424h125v475h-358q-121 0 -170 2t-117.5 25t-114.5 70q-70 74 -84 126t-14 230z" />
<glyph unicode="&#x4cc;" horiz-adv-x="1024" d="M70 766v354h151v-346q0 -127 70 -184q33 -27 58.5 -36t67.5 -9h115h213v575h150v-1120h-133v-264h-152v401h135v275h-356q-137 0 -235 100q-84 84 -84 254z" />
<glyph unicode="&#x4d0;" d="M23 0l649 1513h170l651 -1513h-166l-219 510h-705l-221 -510h-159zM446 1909h132q10 -66 53 -94q59 -33 126.5 -33t127.5 33q43 29 53 94h131q-14 -76 -35.5 -116t-64.5 -71q-82 -59 -211 -59q-267 0 -312 246zM461 647h588l-291 694z" />
<glyph unicode="&#x4d1;" horiz-adv-x="1398" d="M86 557q0 252 169 421t421 169q283 0 442 -225v198h152v-1120h-152v197q-90 -121 -189.5 -172.5t-242.5 -51.5q-258 0 -429 167t-171 417zM240 567q0 -193 129 -323.5t319 -130.5q180 0 305 131t125 321q0 186 -127 314.5t-311 128.5q-182 0 -311 -129.5t-129 -311.5z M442 1571h131q10 -66 54 -94q59 -33 126.5 -33t127.5 33q43 29 53 94h131q-14 -76 -35.5 -116t-64.5 -71q-82 -59 -211 -59q-267 0 -312 246z" />
<glyph unicode="&#x4d2;" d="M23 0l649 1513h170l651 -1513h-166l-219 510h-705l-221 -510h-159zM461 647h588l-291 694zM530 1663v258h152v-258h-152zM831 1663v258h152v-258h-152z" />
<glyph unicode="&#x4d3;" horiz-adv-x="1398" d="M86 557q0 252 169 421t421 169q283 0 442 -225v198h152v-1120h-152v197q-90 -121 -189.5 -172.5t-242.5 -51.5q-258 0 -429 167t-171 417zM240 567q0 -193 129 -323.5t319 -130.5q180 0 305 131t125 321q0 186 -127 314.5t-311 128.5q-182 0 -311 -129.5t-129 -311.5z M528 1325v258h152v-258h-152zM829 1325v258h152v-258h-152z" />
<glyph unicode="&#x4d4;" horiz-adv-x="2031" d="M23 0l1046 1513h848v-137h-653v-542h630v-138h-630v-559h653v-137h-805v512h-555l-354 -512h-180zM653 649h459v670z" />
<glyph unicode="&#x4d5;" horiz-adv-x="2369" d="M86 557q0 240 158 410q164 180 432 180q285 0 446 -221v194h146v-194q176 221 442 221q152 0 281 -69.5t211 -196.5q88 -141 88 -375h-1014q14 -168 141 -280.5t301 -112.5q129 0 234.5 68.5t152.5 183.5h158q-59 -176 -208.5 -284t-336.5 -108q-266 0 -450 215v-188 h-146v188q-94 -113 -199.5 -164t-244.5 -51q-252 0 -422 168t-170 416zM242 561q0 -188 127 -318t313 -130t315 130t129 318q0 195 -126 321t-318 126q-188 0 -314 -128.5t-126 -318.5zM1282 643h860q-31 166 -148.5 265.5t-281.5 99.5q-168 0 -286.5 -101.5t-143.5 -263.5z " />
<glyph unicode="&#x4d6;" horiz-adv-x="1097" d="M156 0v1513h827v-137h-676v-542h654v-138h-654v-559h676v-137h-827zM258 1909h131q10 -66 53 -94q59 -33 127 -33t127 33q43 29 54 94h131q-14 -76 -36 -116t-65 -71q-82 -59 -211 -59q-266 0 -311 246z" />
<glyph unicode="&#x4d7;" horiz-adv-x="1331" d="M86 565q0 244 169 413t413 169q160 0 296 -79t212 -212q76 -135 75 -346h-1013q8 -166 136 -281.5t300 -115.5q127 0 235.5 70.5t155.5 185.5h158q-43 -131 -164 -246q-160 -150 -381 -150q-248 0 -420 171t-172 421zM242 647h858q-39 168 -155 264.5t-279 96.5 q-160 0 -276.5 -99.5t-147.5 -261.5zM434 1571h131q10 -66 53 -94q59 -33 127 -33t127 33q43 29 54 94h131q-14 -76 -36 -116t-65 -71q-82 -59 -211 -59q-266 0 -311 246z" />
<glyph unicode="&#x4d8;" horiz-adv-x="1785" d="M90 752v96h1430q-31 242 -208 397.5t-423 155.5q-201 0 -357 -103q-86 -57 -163 -178h-172q88 195 275 307.5t421 112.5q338 0 562 -224t224 -564q0 -332 -228 -555.5t-566 -223.5t-566.5 223.5t-228.5 555.5zM246 711q18 -250 203.5 -424t435.5 -174t435 174t204 424 h-1278z" />
<glyph unicode="&#x4d9;" horiz-adv-x="1325" d="M86 610h1014q-8 166 -136 282t-300 116q-127 0 -236 -71t-156 -185h-157q45 133 164 245q160 150 380 150q250 0 421 -172t171 -420q0 -244 -169 -413t-412 -169q-160 0 -296 79t-212 212q-76 135 -76 346zM238 473q39 -168 154.5 -264t279.5 -96q160 0 276.5 99 t147.5 261h-858z" />
<glyph unicode="&#x4da;" horiz-adv-x="1785" d="M90 752v96h1430q-31 242 -208 397.5t-423 155.5q-201 0 -357 -103q-86 -57 -163 -178h-172q88 195 275 307.5t421 112.5q338 0 562 -224t224 -564q0 -332 -228 -555.5t-566 -223.5t-566.5 223.5t-228.5 555.5zM246 711q18 -250 203.5 -424t435.5 -174t435 174t204 424 h-1278zM668 1663v258h151v-258h-151zM969 1663v258h151v-258h-151z" />
<glyph unicode="&#x4db;" horiz-adv-x="1325" d="M86 610h1014q-8 166 -136 282t-300 116q-127 0 -236 -71t-156 -185h-157q45 133 164 245q160 150 380 150q250 0 421 -172t171 -420q0 -244 -169 -413t-412 -169q-160 0 -296 79t-212 212q-76 135 -76 346zM238 473q39 -168 154.5 -264t279.5 -96q160 0 276.5 99 t147.5 261h-858zM434 1270v258h152v-258h-152zM735 1270v258h152v-258h-152z" />
<glyph unicode="&#x4dc;" horiz-adv-x="1994" d="M92 0l598 776l-577 737h190l578 -737l-598 -776h-191zM776 1663v258h152v-258h-152zM932 0v1513h151v-1513h-151zM1077 1663v258h152v-258h-152zM1124 776l578 737h190l-577 -737l598 -776h-191z" />
<glyph unicode="&#x4dd;" horiz-adv-x="1654" d="M14 0l465 557l-436 563h186l437 -563l-463 -557h-189zM602 1270v258h152v-258h-152zM752 0v1120h151v-1120h-151zM903 1270v258h152v-258h-152zM989 557l436 563h187l-436 -563l464 -557h-188z" />
<glyph unicode="&#x4de;" horiz-adv-x="1144" d="M90 397h162q47 -92 179 -188t306 -96q199 0 318 74.5t119 234.5q0 137 -95.5 223t-228.5 86h-254v137h258q123 0 201 72t78 184q0 129 -116 203t-267 74q-119 0 -213.5 -43t-138.5 -95.5t-66 -95.5l-21 -43h-153l10 31q10 31 33.5 77t69.5 100t107.5 100.5t161 77 t218.5 30.5q209 0 370.5 -114.5t161.5 -299.5q0 -221 -198 -333q90 -27 162.5 -128.5t72.5 -234.5q0 -227 -155.5 -342t-446.5 -115q-123 0 -230.5 38t-175 91.5t-121 117t-77 106t-31.5 71.5zM532 1663v258h152v-258h-152zM834 1663v258h151v-258h-151z" />
<glyph unicode="&#x4df;" horiz-adv-x="819" d="M55 309h138l18 -30q18 -31 52 -68t99.5 -67.5t141.5 -30.5q127 0 214 56t87 140q0 102 -79 157.5t-202 55.5h-147v150h147q86 0 141.5 45t55.5 137q0 68 -68.5 111t-148.5 43q-78 0 -135.5 -39t-75.5 -76l-19 -39h-137l19 47q16 45 53 99.5t114.5 100.5t180.5 46 q166 0 260 -82t94 -211q0 -78 -42 -150.5t-97 -95.5q94 -14 161.5 -105t67.5 -194q0 -145 -121.5 -240.5t-322.5 -95.5q-100 0 -183 35t-130.5 84t-80 98.5t-44.5 83.5zM279 1270v258h151v-258h-151zM580 1270v258h151v-258h-151z" />
<glyph unicode="&#x4e0;" horiz-adv-x="1144" d="M90 397h162q47 -92 179 -188t306 -96q199 0 318 74.5t119 234.5q0 137 -95.5 223t-228.5 86h-254v137h258q123 0 201 72t78 184q0 129 -116 203t-267 74q-119 0 -213.5 -43t-138.5 -95.5t-66 -95.5l-21 -43h-153l10 31q10 31 33.5 77t69.5 100t107.5 100.5t161 77 t218.5 30.5q209 0 370.5 -114.5t161.5 -299.5q0 -221 -198 -333q90 -27 162.5 -128.5t72.5 -234.5q0 -227 -155.5 -342t-446.5 -115q-123 0 -230.5 38t-175 91.5t-121 117t-77 106t-31.5 71.5z" />
<glyph unicode="&#x4e1;" horiz-adv-x="819" d="M55 309h138l18 -30q18 -31 52 -68t99.5 -67.5t141.5 -30.5q127 0 214 56t87 140q0 102 -79 157.5t-202 55.5h-147v150h147q86 0 141.5 45t55.5 137q0 68 -68.5 111t-148.5 43q-78 0 -135.5 -39t-75.5 -76l-19 -39h-137l19 47q16 45 53 99.5t114.5 100.5t180.5 46 q166 0 260 -82t94 -211q0 -78 -42 -150.5t-97 -95.5q94 -14 161.5 -105t67.5 -194q0 -145 -121.5 -240.5t-322.5 -95.5q-100 0 -183 35t-130.5 84t-80 98.5t-44.5 83.5z" />
<glyph unicode="&#x4e2;" d="M156 0v1513h151v-1331l901 1331h152v-1513h-152v1255l-848 -1255h-204zM414 1718v131h690v-131h-690z" />
<glyph unicode="&#x4e3;" horiz-adv-x="1245" d="M129 0v1120h150v-911l688 911h149v-1120h-149v911l-688 -911h-150zM287 1319v135h688v-135h-688z" />
<glyph unicode="&#x4e4;" d="M156 0v1513h151v-1331l901 1331h152v-1513h-152v1255l-848 -1255h-204zM532 1718v258h152v-258h-152zM834 1718v258h151v-258h-151z" />
<glyph unicode="&#x4e5;" horiz-adv-x="1245" d="M129 0v1120h150v-911l688 911h149v-1120h-149v911l-688 -911h-150zM401 1319v258h152v-258h-152zM700 1319v258h152v-258h-152z" />
<glyph unicode="&#x4e6;" horiz-adv-x="1779" d="M90 766q0 315 237.5 544.5t563.5 229.5q330 0 564.5 -230.5t234.5 -553.5q0 -322 -235.5 -552.5t-563.5 -230.5q-334 0 -567.5 231.5t-233.5 561.5zM244 762q0 -268 189.5 -458.5t457.5 -190.5q264 0 454.5 189.5t190.5 451.5q0 266 -190.5 456.5t-454.5 190.5 q-262 0 -454.5 -189.5t-192.5 -449.5zM664 1718v258h151v-258h-151zM965 1718v258h151v-258h-151z" />
<glyph unicode="&#x4e7;" horiz-adv-x="1341" d="M86 567q0 246 169 413t419 167q252 0 416.5 -167t164.5 -423q0 -252 -161.5 -418t-407.5 -166q-260 0 -430 168t-170 426zM240 563q0 -197 124.5 -323.5t317.5 -126.5q182 0 301 124.5t119 317.5q0 195 -122 324t-306 129q-186 0 -310 -127.5t-124 -317.5zM444 1325v258 h152v-258h-152zM745 1325v258h152v-258h-152z" />
<glyph unicode="&#x4e8;" horiz-adv-x="1779" d="M90 766q0 315 237.5 544.5t563.5 229.5q330 0 564.5 -230.5t234.5 -553.5q0 -322 -235.5 -552.5t-563.5 -230.5q-334 0 -567.5 231.5t-233.5 561.5zM248 692q27 -246 210 -412.5t433 -166.5q248 0 433 169t210 410h-1286zM248 823h1284q-27 242 -211 410t-430 168 t-433 -169t-210 -409z" />
<glyph unicode="&#x4e9;" horiz-adv-x="1341" d="M86 567q0 246 169 413t419 167q252 0 416.5 -167t164.5 -423q0 -252 -161.5 -418t-407.5 -166q-260 0 -430 168t-170 426zM244 494q23 -170 142.5 -275.5t295.5 -105.5q166 0 281.5 106.5t134.5 274.5h-854zM244 625h854q-23 168 -140.5 275.5t-283.5 107.5 q-170 0 -290 -107.5t-140 -275.5z" />
<glyph unicode="&#x4ea;" horiz-adv-x="1779" d="M90 766q0 315 237.5 544.5t563.5 229.5q330 0 564.5 -230.5t234.5 -553.5q0 -322 -235.5 -552.5t-563.5 -230.5q-334 0 -567.5 231.5t-233.5 561.5zM248 692q27 -246 210 -412.5t433 -166.5q248 0 433 169t210 410h-1286zM248 823h1284q-27 242 -211 410t-430 168 t-433 -169t-210 -409zM664 1718v258h151v-258h-151zM965 1718v258h151v-258h-151z" />
<glyph unicode="&#x4eb;" horiz-adv-x="1341" d="M86 567q0 246 169 413t419 167q252 0 416.5 -167t164.5 -423q0 -252 -161.5 -418t-407.5 -166q-260 0 -430 168t-170 426zM244 494q23 -170 142.5 -275.5t295.5 -105.5q166 0 281.5 106.5t134.5 274.5h-854zM244 625h854q-23 168 -140.5 275.5t-283.5 107.5 q-170 0 -290 -107.5t-140 -275.5zM444 1325v258h152v-258h-152zM745 1325v258h152v-258h-152z" />
<glyph unicode="&#x4ec;" horiz-adv-x="1667" d="M90 397h168q86 -113 152 -159q154 -125 372 -125q250 0 435.5 174t203.5 424h-876v137h872q-31 242 -208 397.5t-423 155.5q-201 0 -356 -103q-86 -57 -164 -178h-172q88 195 275.5 307.5t421.5 112.5q338 0 562 -224t224 -564q0 -332 -228.5 -555.5t-566.5 -223.5 q-463 0 -692 424zM565 1663v258h152v-258h-152zM866 1663v258h152v-258h-152z" />
<glyph unicode="&#x4ed;" horiz-adv-x="1331" d="M86 330h172q90 -117 178 -167t207 -50q170 0 295 108.5t149 270.5h-649v137h652q-25 166 -149 272.5t-294 106.5q-256 0 -389 -228h-168q68 170 217.5 268.5t339.5 98.5q252 0 425 -170t173 -414q0 -250 -176 -420t-434 -170q-207 0 -373 127q-98 80 -176 230zM422 1270 v258h151v-258h-151zM723 1270v258h151v-258h-151z" />
<glyph unicode="&#x4ee;" horiz-adv-x="1220" d="M8 1513h168l430 -847l441 847h165l-528 -1007l-266 -506h-166l266 506zM266 1663v131h690v-131h-690z" />
<glyph unicode="&#x4ef;" horiz-adv-x="1097" d="M18 1120h166l355 -893l379 893h161l-647 -1513h-162l183 430zM205 1270v131h690v-131h-690z" />
<glyph unicode="&#x4f0;" horiz-adv-x="1220" d="M8 1513h168l430 -847l441 847h165l-528 -1007l-266 -506h-166l266 506zM385 1663v258h152v-258h-152zM686 1663v258h152v-258h-152z" />
<glyph unicode="&#x4f1;" horiz-adv-x="1097" d="M18 1120h166l355 -893l379 893h161l-647 -1513h-162l183 430zM324 1270v258h151v-258h-151zM625 1270v258h151v-258h-151z" />
<glyph unicode="&#x4f2;" horiz-adv-x="1220" d="M8 1513h168l430 -847l441 847h165l-528 -1007l-266 -506h-166l266 506zM338 1759l350 252l78 -100l-356 -248zM739 1759l351 252l77 -100l-356 -248z" />
<glyph unicode="&#x4f3;" horiz-adv-x="1097" d="M18 1120h166l355 -893l379 893h161l-647 -1513h-162l183 430zM276 1366l351 252l78 -100l-357 -248zM678 1366l350 252l78 -100l-356 -248z" />
<glyph unicode="&#x4f4;" horiz-adv-x="1300" d="M135 1044v469h152v-481q0 -106 22.5 -169.5t75.5 -91.5t105.5 -35t148.5 -7h354v784h152v-1513h-152v592h-358q-281 0 -390.5 103t-109.5 349zM414 1663v258h151v-258h-151zM715 1663v258h151v-258h-151z" />
<glyph unicode="&#x4f5;" horiz-adv-x="1024" d="M70 766v354h151v-346q0 -150 59.5 -189.5t235.5 -39.5h229v575h150v-1120h-150v412h-356q-147 0 -233 101t-86 253zM256 1270v258h152v-258h-152zM557 1270v258h152v-258h-152z" />
<glyph unicode="&#x4f8;" horiz-adv-x="1593" d="M156 0v1513h151v-542h223q334 0 493 -116t159 -372q0 -252 -160 -367.5t-492 -115.5h-374zM307 137h213q256 0 382 77t126 269q0 197 -126 274t-382 77h-213v-697zM532 1663v258h152v-258h-152zM834 1663v258h151v-258h-151zM1339 0v1513h152v-1513h-152z" />
<glyph unicode="&#x4f9;" horiz-adv-x="1300" d="M129 0v1120h152v-364h290q190 0 313.5 -106.5t123.5 -274.5t-121 -271.5t-307 -103.5h-451zM281 137h297q125 2 201.5 66.5t76.5 171t-80 174t-205 67.5h-290v-479zM418 1270v258h151v-258h-151zM719 1270v258h151v-258h-151zM1092 0v1120h151v-1120h-151z" />
<glyph unicode="&#xe3f;" horiz-adv-x="1175" d="M156 0v1513h354h25v170h112v-176q199 -25 290 -120t91 -267q0 -219 -168 -313q254 -102 254 -373q0 -205 -109.5 -308t-357.5 -122v-174h-112v170h-5h-374zM307 137h207q238 0 342.5 64.5t104.5 224.5q0 82 -26 139.5t-62.5 88t-104.5 47t-126 20.5t-155 4h-180v-588z M307 862h185q213 0 297.5 56.5t84.5 200t-80.5 200.5t-304.5 57h-182v-514z" />
<glyph unicode="&#x1e0c;" horiz-adv-x="1523" d="M156 0v1513h356q207 0 339 -27.5t239 -90.5q344 -203 344 -643q0 -342 -221.5 -547t-649.5 -205h-407zM307 137h211q201 0 328 32t217 103q217 176 217 486q0 170 -71.5 306t-202.5 214q-162 98 -488 98h-211v-1239zM686 -123h152v-258h-152v258z" />
<glyph unicode="&#x1e0d;" horiz-adv-x="1402" d="M86 559q0 250 171 419t425 169q270 0 440 -205v571h152v-1513h-152v203q-84 -121 -185 -175.5t-241 -54.5q-260 0 -435 168t-175 418zM240 565q0 -193 130 -322.5t322 -129.5q180 0 308 133t128 317.5t-132 314.5t-318 130q-182 0 -310 -129.5t-128 -313.5zM627 -123h151 v-258h-151v258z" />
<glyph unicode="&#x1e0e;" horiz-adv-x="1523" d="M156 0v1513h356q207 0 339 -27.5t239 -90.5q344 -203 344 -643q0 -342 -221.5 -547t-649.5 -205h-407zM307 137h211q201 0 328 32t217 103q217 176 217 486q0 170 -71.5 306t-202.5 214q-162 98 -488 98h-211v-1239zM418 -186h690v-131h-690v131z" />
<glyph unicode="&#x1e0f;" horiz-adv-x="1402" d="M86 559q0 250 171 419t425 169q270 0 440 -205v571h152v-1513h-152v203q-84 -121 -185 -175.5t-241 -54.5q-260 0 -435 168t-175 418zM240 565q0 -193 130 -322.5t322 -129.5q180 0 308 133t128 317.5t-132 314.5t-318 130q-182 0 -310 -129.5t-128 -313.5zM356 -186h691 v-131h-691v131z" />
<glyph unicode="&#x1e24;" horiz-adv-x="1398" d="M156 0v1513h151v-665h785v665h151v-1513h-151v711h-785v-711h-151zM625 -123h151v-258h-151v258z" />
<glyph unicode="&#x1e25;" horiz-adv-x="1249" d="M129 0v1513h152v-538q119 172 356 172q225 0 354 -136.5t129 -408.5v-602h-151v602q0 203 -93.5 304.5t-252.5 101.5q-154 0 -248 -98.5t-94 -295.5v-614h-152zM549 -123h151v-258h-151v258z" />
<glyph unicode="&#x1e26;" horiz-adv-x="1398" d="M156 0v1513h151v-665h785v665h151v-1513h-151v711h-785v-711h-151zM473 1616v258h152v-258h-152zM774 1616v258h152v-258h-152z" />
<glyph unicode="&#x1e27;" horiz-adv-x="1249" d="M129 0v1513h152v-538q119 172 356 172q225 0 354 -136.5t129 -408.5v-602h-151v602q0 203 -93.5 304.5t-252.5 101.5q-154 0 -248 -98.5t-94 -295.5v-614h-152zM399 1616v258h152v-258h-152zM700 1616v258h152v-258h-152z" />
<glyph unicode="&#x1e2a;" horiz-adv-x="1398" d="M156 0v1513h151v-665h785v665h151v-1513h-151v711h-785v-711h-151zM389 -129h131q20 -127 180 -127t181 127h131q-25 -131 -103 -188.5t-209 -57.5q-266 0 -311 246z" />
<glyph unicode="&#x1e2b;" horiz-adv-x="1249" d="M129 0v1513h152v-538q119 172 356 172q225 0 354 -136.5t129 -408.5v-602h-151v602q0 203 -93.5 304.5t-252.5 101.5q-154 0 -248 -98.5t-94 -295.5v-614h-152zM313 -129h131q20 -127 180 -127t181 127h131q-25 -131 -102.5 -188.5t-208.5 -57.5q-267 0 -312 246z" />
<glyph unicode="&#x1e36;" horiz-adv-x="946" d="M156 0v1513h151v-1376h627v-137h-778zM469 -123h152v-258h-152v258z" />
<glyph unicode="&#x1e37;" horiz-adv-x="409" d="M129 0v1513h152v-1513h-152zM129 -123h152v-258h-152v258z" />
<glyph unicode="&#x1e38;" horiz-adv-x="946" d="M-113 1679v131h691v-131h-691zM156 0v1513h151v-1376h627v-137h-778zM469 -123h152v-258h-152v258z" />
<glyph unicode="&#x1e39;" horiz-adv-x="409" d="M-139 1679v131h690v-131h-690zM129 0v1513h152v-1513h-152zM129 -123h152v-258h-152v258z" />
<glyph unicode="&#x1e42;" horiz-adv-x="1882" d="M156 0v1513h235l551 -1288l549 1288h235v-1513h-151v1348l-569 -1348h-132l-567 1348v-1348h-151zM866 -123h152v-258h-152v258z" />
<glyph unicode="&#x1e43;" horiz-adv-x="1921" d="M129 0v1120h152v-129q63 84 135.5 120t179.5 36q125 0 213 -51.5t154 -163.5q137 217 389 217q199 0 319.5 -124t120.5 -359v-666h-152v649q0 360 -297 361q-141 0 -224 -89.5t-83 -271.5v-649h-151v653q0 178 -83 266.5t-220 88.5q-141 0 -221 -93.5t-80 -261.5v-653 h-152zM885 -123h151v-258h-151v258z" />
<glyph unicode="&#x1e44;" d="M156 0v1513h204l848 -1255v1255h152v-1513h-152l-901 1331v-1331h-151zM682 1616v258h152v-258h-152z" />
<glyph unicode="&#x1e45;" horiz-adv-x="1249" d="M129 0v1120h152v-145q141 172 360 172q221 0 350 -138.5t129 -420.5v-588h-151v588q0 420 -346 420q-160 0 -251 -96.5t-91 -295.5v-616h-152zM549 1243v258h151v-258h-151z" />
<glyph unicode="&#x1e46;" d="M156 0v1513h204l848 -1255v1255h152v-1513h-152l-901 1331v-1331h-151zM682 -123h152v-258h-152v258z" />
<glyph unicode="&#x1e47;" horiz-adv-x="1249" d="M129 0v1120h152v-145q141 172 360 172q221 0 350 -138.5t129 -420.5v-588h-151v588q0 420 -346 420q-160 0 -251 -96.5t-91 -295.5v-616h-152zM549 -123h151v-258h-151v258z" />
<glyph unicode="&#x1e58;" horiz-adv-x="1243" d="M156 0v1513h374q346 0 499 -121.5t153 -365.5q0 -201 -115 -319.5t-332 -141.5l424 -565h-188l-510 686q324 0 445.5 72.5t121.5 273.5q0 186 -120 265t-388 79h-213v-1376h-151zM547 1616v258h151v-258h-151z" />
<glyph unicode="&#x1e59;" horiz-adv-x="616" d="M129 0v1120h152v-159q45 92 120.5 136t196.5 50v-150q-317 -31 -317 -344v-653h-152zM205 1243v258h151v-258h-151z" />
<glyph unicode="&#x1e5a;" horiz-adv-x="1243" d="M156 0v1513h374q346 0 499 -121.5t153 -365.5q0 -201 -115 -319.5t-332 -141.5l424 -565h-188l-510 686q324 0 445.5 72.5t121.5 273.5q0 186 -120 265t-388 79h-213v-1376h-151zM547 -123h151v-258h-151v258z" />
<glyph unicode="&#x1e5b;" horiz-adv-x="616" d="M129 0v1120h152v-159q45 92 120.5 136t196.5 50v-150q-317 -31 -317 -344v-653h-152zM129 -123h152v-258h-152v258z" />
<glyph unicode="&#x1e5c;" horiz-adv-x="1243" d="M156 0v1513h374q346 0 499 -121.5t153 -365.5q0 -201 -115 -319.5t-332 -141.5l424 -565h-188l-510 686q324 0 445.5 72.5t121.5 273.5q0 186 -120 265t-388 79h-213v-1376h-151zM276 1679v131h691v-131h-691zM547 -123h151v-258h-151v258z" />
<glyph unicode="&#x1e5d;" horiz-adv-x="616" d="M-66 1333v131h691v-131h-691zM129 0v1120h152v-159q45 92 120.5 136t196.5 50v-150q-317 -31 -317 -344v-653h-152zM129 -123h152v-258h-152v258z" />
<glyph unicode="&#x1e62;" horiz-adv-x="1019" d="M45 424h162q16 -150 101 -230.5t214 -80.5t214 85t85 216q0 125 -71.5 191.5t-266.5 125.5q-131 39 -184 64.5t-98 68.5q-106 100 -107 269q0 176 119 291.5t301 115.5q186 0 305 -113.5t119 -296.5h-158q0 121 -76.5 196t-193.5 75q-113 0 -187.5 -75t-74.5 -189.5 t71 -175.5q47 -41 224 -95q197 -59 280 -121q152 -113 152 -323q0 -193 -130 -321t-327 -128q-205 0 -334 123t-139 328zM438 -123h152v-258h-152v258z" />
<glyph unicode="&#x1e63;" horiz-adv-x="794" d="M37 330h149q0 -100 58.5 -158.5t152.5 -58.5q82 0 135.5 55t53.5 139q0 82 -44 123t-173 92q-119 47 -146.5 61.5t-60.5 47.5q-84 78 -84 200q0 137 90 226.5t227 89.5t226.5 -85t89.5 -218h-154q0 78 -44 121t-120 43q-68 0 -115 -47.5t-47 -114.5q0 -96 103 -148 q41 -20 211 -90q195 -82 194 -286q0 -154 -95 -251.5t-247 -97.5q-162 0 -261 97.5t-99 259.5zM319 -123h152v-258h-152v258z" />
<glyph unicode="&#x1e6c;" horiz-adv-x="872" d="M14 1376v137h844v-137h-346v-1376h-152v1376h-346zM360 -123h152v-258h-152v258z" />
<glyph unicode="&#x1e6d;" horiz-adv-x="694" d="M25 983v137h241v393h152v-393h252v-137h-252v-983h-152v983h-241zM266 -123h152v-258h-152v258z" />
<glyph unicode="&#x1e6e;" horiz-adv-x="872" d="M14 1376v137h844v-137h-346v-1376h-152v1376h-346zM92 -186h690v-131h-690v131z" />
<glyph unicode="&#x1e6f;" horiz-adv-x="694" d="M-2 -186h690v-131h-690v131zM25 983v137h241v393h152v-393h252v-137h-252v-983h-152v983h-241z" />
<glyph unicode="&#x1e80;" horiz-adv-x="1966" d="M20 1513h156l373 -1316l362 1316h144l362 -1316l373 1316h156l-435 -1513h-194l-336 1241l-332 -1241h-196zM674 1823l69 119l396 -238l-70 -115z" />
<glyph unicode="&#x1e81;" horiz-adv-x="1701" d="M14 1120h152l356 -938l264 801h125l265 -801l364 938h148l-435 -1120h-161l-244 743l-242 -743h-164zM539 1450l69 119l396 -238l-70 -114z" />
<glyph unicode="&#x1e82;" horiz-adv-x="1966" d="M20 1513h156l373 -1316l362 1316h144l362 -1316l373 1316h156l-435 -1513h-194l-336 1241l-332 -1241h-196zM827 1704l396 238l69 -119l-395 -234z" />
<glyph unicode="&#x1e83;" horiz-adv-x="1701" d="M14 1120h152l356 -938l264 801h125l265 -801l364 938h148l-435 -1120h-161l-244 743l-242 -743h-164zM694 1331l396 238l69 -119l-395 -233z" />
<glyph unicode="&#x1e84;" horiz-adv-x="1966" d="M20 1513h156l373 -1316l362 1316h144l362 -1316l373 1316h156l-435 -1513h-194l-336 1241l-332 -1241h-196zM758 1616v258h151v-258h-151zM1059 1616v258h151v-258h-151z" />
<glyph unicode="&#x1e85;" horiz-adv-x="1701" d="M14 1120h152l356 -938l264 801h125l265 -801l364 938h148l-435 -1120h-161l-244 743l-242 -743h-164zM623 1243v258h151v-258h-151zM924 1243v258h151v-258h-151z" />
<glyph unicode="&#x1e92;" horiz-adv-x="983" d="M35 0v137l743 1239h-721v137h891v-137l-741 -1239h764v-137h-936zM428 -123h152v-258h-152v258z" />
<glyph unicode="&#x1e93;" horiz-adv-x="870" d="M20 0v137l619 846h-598v137h770v-129l-612 -854h651v-137h-830zM350 -123h152v-258h-152v258z" />
<glyph unicode="&#x1e97;" horiz-adv-x="694" d="M25 983v137h241v393h152v-393h252v-137h-252v-983h-152v983h-241zM117 1616v258h151v-258h-151zM418 1616v258h151v-258h-151z" />
<glyph unicode="&#x1ea0;" d="M23 0l649 1513h170l651 -1513h-166l-219 510h-705l-221 -510h-159zM461 647h588l-291 694zM682 -123h152v-258h-152v258z" />
<glyph unicode="&#x1ea1;" horiz-adv-x="1398" d="M86 557q0 252 169 421t421 169q283 0 442 -225v198h152v-1120h-152v197q-90 -121 -189.5 -172.5t-242.5 -51.5q-258 0 -429 167t-171 417zM240 567q0 -193 129 -323.5t319 -130.5q180 0 305 131t125 321q0 186 -127 314.5t-311 128.5q-182 0 -311 -129.5t-129 -311.5z M600 -123h152v-258h-152v258z" />
<glyph unicode="&#x1ea2;" d="M23 0l649 1513h170l651 -1513h-166l-219 510h-705l-221 -510h-159zM461 647h588l-291 694zM551 1800q6 211 211 211q88 0 145.5 -47t57.5 -119q0 -74 -80 -131q-68 -43 -70 -112h-108q2 113 90 182q57 41 57 63q0 27 -25.5 44.5t-66.5 17.5q-59 0 -88 -35v2 q-8 -16 -17 -76h-106z" />
<glyph unicode="&#x1ea3;" horiz-adv-x="1398" d="M86 557q0 252 169 421t421 169q283 0 442 -225v198h152v-1120h-152v197q-90 -121 -189.5 -172.5t-242.5 -51.5q-258 0 -429 167t-171 417zM240 567q0 -193 129 -323.5t319 -130.5q180 0 305 131t125 321q0 186 -127 314.5t-311 128.5q-182 0 -311 -129.5t-129 -311.5z M469 1407q6 211 211 211q88 0 145.5 -47t57.5 -119q0 -74 -80 -131q-68 -43 -70 -113h-108q2 113 90 183q57 41 57 63q0 27 -25.5 44.5t-66.5 17.5q-59 0 -88 -35v2q-8 -16 -17 -76h-106z" />
<glyph unicode="&#x1ea4;" d="M23 0l649 1513h170l651 -1513h-166l-219 510h-705l-221 -510h-159zM395 1616l297 258h135l293 -258h-182l-176 151l-180 -151h-187zM461 647h588l-291 694zM602 2030l395 237l70 -119l-395 -233z" />
<glyph unicode="&#x1ea5;" horiz-adv-x="1398" d="M86 557q0 252 169 421t421 169q283 0 442 -225v198h152v-1120h-152v197q-90 -121 -189.5 -172.5t-242.5 -51.5q-258 0 -429 167t-171 417zM240 567q0 -193 129 -323.5t319 -130.5q180 0 305 131t125 321q0 186 -127 314.5t-311 128.5q-182 0 -311 -129.5t-129 -311.5z M313 1223l297 258h135l293 -258h-182l-176 151l-180 -151h-187zM520 1636l395 238l70 -119l-395 -233z" />
<glyph unicode="&#x1ea6;" d="M23 0l649 1513h170l651 -1513h-166l-219 510h-705l-221 -510h-159zM395 1616l297 258h135l293 -258h-182l-176 151l-180 -151h-187zM449 2148l69 119l395 -237l-69 -115zM461 647h588l-291 694z" />
<glyph unicode="&#x1ea7;" horiz-adv-x="1398" d="M86 557q0 252 169 421t421 169q283 0 442 -225v198h152v-1120h-152v197q-90 -121 -189.5 -172.5t-242.5 -51.5q-258 0 -429 167t-171 417zM240 567q0 -193 129 -323.5t319 -130.5q180 0 305 131t125 321q0 186 -127 314.5t-311 128.5q-182 0 -311 -129.5t-129 -311.5z M313 1223l297 258h135l293 -258h-182l-176 151l-180 -151h-187zM367 1755l69 119l395 -238l-69 -114z" />
<glyph unicode="&#x1ea8;" d="M23 0l649 1513h170l651 -1513h-166l-219 510h-705l-221 -510h-159zM395 1616l297 258h135l293 -258h-182l-176 151l-180 -151h-187zM461 647h588l-291 694zM707 2138q6 211 211 211q88 0 145 -47t57 -119q0 -74 -80 -131q-68 -43 -69 -113h-109q2 113 90 183q57 41 58 63 q0 27 -26 44.5t-66 17.5q-59 0 -89 -35v2q-8 -16 -16 -76h-106z" />
<glyph unicode="&#x1ea9;" horiz-adv-x="1398" d="M86 557q0 252 169 421t421 169q283 0 442 -225v198h152v-1120h-152v197q-90 -121 -189.5 -172.5t-242.5 -51.5q-258 0 -429 167t-171 417zM240 567q0 -193 129 -323.5t319 -130.5q180 0 305 131t125 321q0 186 -127 314.5t-311 128.5q-182 0 -311 -129.5t-129 -311.5z M313 1223l297 258h135l293 -258h-182l-176 151l-180 -151h-187zM625 1745q6 211 211 211q88 0 145 -47t57 -119q0 -74 -80 -131q-68 -43 -69 -113h-109q2 113 90 183q57 41 58 63q0 27 -25.5 44t-66.5 17q-59 0 -88 -34v2q-8 -16 -17 -76h-106z" />
<glyph unicode="&#x1eaa;" d="M23 0l649 1513h170l651 -1513h-166l-219 510h-705l-221 -510h-159zM395 1616l297 258h135l293 -258h-182l-176 151l-180 -151h-187zM461 647h588l-291 694zM463 2030q78 100 190 100q18 0 103.5 -32t115.5 -32q55 0 117 64l68 -94q-25 -41 -80 -71t-107 -30 q-43 0 -135 45q-47 20 -82 21q-29 0 -48 -9.5t-60 -43.5l-15 -13z" />
<glyph unicode="&#x1eab;" horiz-adv-x="1398" d="M86 557q0 252 169 421t421 169q283 0 442 -225v198h152v-1120h-152v197q-90 -121 -189.5 -172.5t-242.5 -51.5q-258 0 -429 167t-171 417zM240 567q0 -193 129 -323.5t319 -130.5q180 0 305 131t125 321q0 186 -127 314.5t-311 128.5q-182 0 -311 -129.5t-129 -311.5z M313 1223l297 258h135l293 -258h-182l-176 151l-180 -151h-187zM381 1636q78 100 190 101q18 0 103.5 -32t116.5 -32q55 0 116 64l68 -95q-25 -41 -80 -70.5t-107 -29.5q-43 0 -135 45q-47 20 -82 21q-29 0 -48 -9.5t-60 -44.5l-14 -12z" />
<glyph unicode="&#x1eac;" d="M23 0l649 1513h170l651 -1513h-166l-219 510h-705l-221 -510h-159zM395 1616l297 258h135l293 -258h-182l-176 151l-180 -151h-187zM461 647h588l-291 694zM682 -123h152v-258h-152v258z" />
<glyph unicode="&#x1ead;" horiz-adv-x="1398" d="M86 557q0 252 169 421t421 169q283 0 442 -225v198h152v-1120h-152v197q-90 -121 -189.5 -172.5t-242.5 -51.5q-258 0 -429 167t-171 417zM240 567q0 -193 129 -323.5t319 -130.5q180 0 305 131t125 321q0 186 -127 314.5t-311 128.5q-182 0 -311 -129.5t-129 -311.5z M313 1243l297 258h135l293 -258h-182l-176 152l-180 -152h-187zM600 -123h152v-258h-152v258z" />
<glyph unicode="&#x1eae;" d="M23 0l649 1513h170l651 -1513h-166l-219 510h-705l-221 -510h-159zM446 1868h132q20 -127 180 -127t180 127h131q-25 -131 -102.5 -188.5t-208.5 -57.5q-267 0 -312 246zM461 647h588l-291 694zM641 2048l395 238l70 -119l-395 -234z" />
<glyph unicode="&#x1eaf;" horiz-adv-x="1398" d="M86 557q0 252 169 421t421 169q283 0 442 -225v198h152v-1120h-152v197q-90 -121 -189.5 -172.5t-242.5 -51.5q-258 0 -429 167t-171 417zM240 567q0 -193 129 -323.5t319 -130.5q180 0 305 131t125 321q0 186 -127 314.5t-311 128.5q-182 0 -311 -129.5t-129 -311.5z M367 1475h131q20 -127 180 -127t180 127h131q-25 -131 -102.5 -188.5t-208.5 -57.5q-266 0 -311 246zM561 1655l395 237l70 -118l-395 -234z" />
<glyph unicode="&#x1eb0;" d="M23 0l649 1513h170l651 -1513h-166l-219 510h-705l-221 -510h-159zM406 2167l69 119l395 -238l-69 -115zM446 1868h132q20 -127 180 -127t180 127h131q-25 -131 -102.5 -188.5t-208.5 -57.5q-267 0 -312 246zM461 647h588l-291 694z" />
<glyph unicode="&#x1eb1;" horiz-adv-x="1398" d="M86 557q0 252 169 421t421 169q283 0 442 -225v198h152v-1120h-152v197q-90 -121 -189.5 -172.5t-242.5 -51.5q-258 0 -429 167t-171 417zM240 567q0 -193 129 -323.5t319 -130.5q180 0 305 131t125 321q0 186 -127 314.5t-311 128.5q-182 0 -311 -129.5t-129 -311.5z M326 1774l69 118l396 -237l-70 -115zM367 1475h131q20 -127 180 -127t180 127h131q-25 -131 -102.5 -188.5t-208.5 -57.5q-266 0 -311 246z" />
<glyph unicode="&#x1eb2;" d="M23 0l649 1513h170l651 -1513h-166l-219 510h-705l-221 -510h-159zM446 1868h132q20 -127 180 -127t180 127h131q-25 -131 -102.5 -188.5t-208.5 -57.5q-267 0 -312 246zM461 647h588l-291 694zM551 2040q6 211 211 211q88 0 145.5 -47t57.5 -119q0 -74 -80 -131 q-68 -43 -70 -113h-108q2 113 90 182q57 41 57 64q0 27 -25.5 44t-66.5 17q-59 0 -88 -34v2q-8 -16 -17 -76h-106z" />
<glyph unicode="&#x1eb3;" horiz-adv-x="1398" d="M86 557q0 252 169 421t421 169q283 0 442 -225v198h152v-1120h-152v197q-90 -121 -189.5 -172.5t-242.5 -51.5q-258 0 -429 167t-171 417zM240 567q0 -193 129 -323.5t319 -130.5q180 0 305 131t125 321q0 186 -127 314.5t-311 128.5q-182 0 -311 -129.5t-129 -311.5z M367 1475h131q20 -127 180 -127t180 127h131q-25 -131 -102.5 -188.5t-208.5 -57.5q-266 0 -311 246zM471 1647q6 211 211 211q88 0 145.5 -47.5t57.5 -118.5q0 -74 -80 -131q-68 -43 -70 -113h-108q2 113 90 182q57 41 57 64q0 27 -25.5 44t-66.5 17q-59 0 -88 -35v2 q-8 -16 -16 -75h-107z" />
<glyph unicode="&#x1eb4;" d="M23 0l649 1513h170l651 -1513h-166l-219 510h-705l-221 -510h-159zM446 1868h132q20 -127 180 -127t180 127h131q-25 -131 -102.5 -188.5t-208.5 -57.5q-267 0 -312 246zM461 647h588l-291 694zM461 2048q78 100 190 100q18 0 103.5 -31.5t115.5 -31.5q55 0 117 63 l68 -94q-25 -41 -80 -70.5t-107 -29.5q-43 0 -135 45q-47 20 -82 20q-29 0 -48 -9t-60 -44l-15 -12z" />
<glyph unicode="&#x1eb5;" horiz-adv-x="1398" d="M86 557q0 252 169 421t421 169q283 0 442 -225v198h152v-1120h-152v197q-90 -121 -189.5 -172.5t-242.5 -51.5q-258 0 -429 167t-171 417zM240 567q0 -193 129 -323.5t319 -130.5q180 0 305 131t125 321q0 186 -127 314.5t-311 128.5q-182 0 -311 -129.5t-129 -311.5z M367 1475h131q20 -127 180 -127t180 127h131q-25 -131 -102.5 -188.5t-208.5 -57.5q-266 0 -311 246zM381 1655q78 100 190 100q18 0 103.5 -31.5t116.5 -31.5q55 0 116 63l68 -94q-25 -41 -80 -70.5t-107 -29.5q-43 0 -135 45q-47 20 -82 20q-29 0 -48 -9t-60 -44l-14 -12z " />
<glyph unicode="&#x1eb6;" d="M23 0l649 1513h170l651 -1513h-166l-219 510h-705l-221 -510h-159zM446 1868h132q20 -127 180 -127t180 127h131q-25 -131 -102.5 -188.5t-208.5 -57.5q-267 0 -312 246zM461 647h588l-291 694zM682 -123h152v-258h-152v258z" />
<glyph unicode="&#x1eb7;" horiz-adv-x="1398" d="M86 557q0 252 169 421t421 169q283 0 442 -225v198h152v-1120h-152v197q-90 -121 -189.5 -172.5t-242.5 -51.5q-258 0 -429 167t-171 417zM240 567q0 -193 129 -323.5t319 -130.5q180 0 305 131t125 321q0 186 -127 314.5t-311 128.5q-182 0 -311 -129.5t-129 -311.5z M362 1495h132q20 -127 180 -127t180 127h131q-25 -131 -102.5 -188.5t-208.5 -57.5q-267 0 -312 246zM600 -123h152v-258h-152v258z" />
<glyph unicode="&#x1eb8;" horiz-adv-x="1097" d="M156 0v1513h827v-137h-676v-542h654v-138h-654v-559h676v-137h-827zM473 -123h152v-258h-152v258z" />
<glyph unicode="&#x1eb9;" horiz-adv-x="1331" d="M86 565q0 244 169 413t413 169q254 0 418.5 -173t164.5 -464h-1013q8 -166 136 -281.5t300 -115.5q127 0 235.5 70.5t155.5 185.5h158q-55 -166 -208 -281t-337 -115q-248 0 -420 171t-172 421zM242 647h858q-39 168 -155 264.5t-279 96.5q-160 0 -276.5 -99.5 t-147.5 -261.5zM592 -123h151v-258h-151v258z" />
<glyph unicode="&#x1eba;" horiz-adv-x="1097" d="M156 0v1513h827v-137h-676v-542h654v-138h-654v-559h676v-137h-827zM362 1800q6 211 211 211q88 0 145.5 -47t57.5 -119q0 -74 -80 -131q-68 -43 -69 -112h-109q2 113 90 182q57 41 58 63q0 27 -26 44.5t-67 17.5q-59 0 -88 -35v2q-8 -16 -16 -76h-107z" />
<glyph unicode="&#x1ebb;" horiz-adv-x="1331" d="M86 565q0 244 169 413t413 169q254 0 418.5 -173t164.5 -464h-1013q8 -166 136 -281.5t300 -115.5q127 0 235.5 70.5t155.5 185.5h158q-55 -166 -208 -281t-337 -115q-248 0 -420 171t-172 421zM242 647h858q-39 168 -155 264.5t-279 96.5q-160 0 -276.5 -99.5 t-147.5 -261.5zM461 1407q6 211 211 211q88 0 145 -47t57 -119q0 -74 -79 -131q-68 -43 -70 -113h-109q2 113 91 183q57 41 57 63q0 27 -25.5 44.5t-66.5 17.5q-59 0 -88 -35v2q-8 -16 -17 -76h-106z" />
<glyph unicode="&#x1ebc;" horiz-adv-x="1097" d="M156 0v1513h827v-137h-676v-542h654v-138h-654v-559h676v-137h-827zM274 1743q78 100 191 100q18 0 103 -31.5t116 -31.5q55 0 117 63l67 -94q-25 -41 -80 -70.5t-106 -29.5q-43 0 -135 45q-47 20 -82 20q-29 0 -48.5 -9t-60.5 -44l-14 -12z" />
<glyph unicode="&#x1ebd;" horiz-adv-x="1331" d="M86 565q0 244 169 413t413 169q254 0 418.5 -173t164.5 -464h-1013q8 -166 136 -281.5t300 -115.5q127 0 235.5 70.5t155.5 185.5h158q-55 -166 -208 -281t-337 -115q-248 0 -420 171t-172 421zM242 647h858q-39 168 -155 264.5t-279 96.5q-160 0 -276.5 -99.5 t-147.5 -261.5zM371 1370q78 100 190 100q18 0 103.5 -31.5t115.5 -31.5q55 0 117 63l68 -94q-25 -41 -80.5 -70.5t-106.5 -29.5q-43 0 -135 45q-47 20 -82 20q-29 0 -48 -9t-60 -44l-15 -12z" />
<glyph unicode="&#x1ebe;" horiz-adv-x="1097" d="M156 0v1513h827v-137h-676v-542h654v-138h-654v-559h676v-137h-827zM207 1616l297 258h135l293 -258h-182l-177 151l-180 -151h-186zM414 2030l395 237l70 -119l-396 -233z" />
<glyph unicode="&#x1ebf;" horiz-adv-x="1331" d="M86 565q0 244 169 413t413 169q254 0 418.5 -173t164.5 -464h-1013q8 -166 136 -281.5t300 -115.5q127 0 235.5 70.5t155.5 185.5h158q-55 -166 -208 -281t-337 -115q-248 0 -420 171t-172 421zM242 647h858q-39 168 -155 264.5t-279 96.5q-160 0 -276.5 -99.5 t-147.5 -261.5zM305 1223l297 258h135l293 -258h-182l-176 151l-180 -151h-187zM512 1636l395 238l70 -119l-395 -233z" />
<glyph unicode="&#x1ec0;" horiz-adv-x="1097" d="M156 0v1513h827v-137h-676v-542h654v-138h-654v-559h676v-137h-827zM207 1616l297 258h135l293 -258h-182l-177 151l-180 -151h-186zM260 2148l70 119l395 -237l-70 -115z" />
<glyph unicode="&#x1ec1;" horiz-adv-x="1331" d="M86 565q0 244 169 413t413 169q254 0 418.5 -173t164.5 -464h-1013q8 -166 136 -281.5t300 -115.5q127 0 235.5 70.5t155.5 185.5h158q-55 -166 -208 -281t-337 -115q-248 0 -420 171t-172 421zM242 647h858q-39 168 -155 264.5t-279 96.5q-160 0 -276.5 -99.5 t-147.5 -261.5zM305 1223l297 258h135l293 -258h-182l-176 151l-180 -151h-187zM358 1755l70 119l395 -238l-69 -114z" />
<glyph unicode="&#x1ec2;" horiz-adv-x="1097" d="M156 0v1513h827v-137h-676v-542h654v-138h-654v-559h676v-137h-827zM207 1616l297 258h135l293 -258h-182l-177 151l-180 -151h-186zM518 2138q6 211 211 211q88 0 145.5 -47t57.5 -119q0 -74 -80 -131q-68 -43 -70 -113h-108q2 113 90 183q57 41 57 63q0 27 -25.5 44.5 t-66.5 17.5q-59 0 -88 -35v2q-8 -16 -16 -76h-107z" />
<glyph unicode="&#x1ec3;" horiz-adv-x="1331" d="M86 565q0 244 169 413t413 169q254 0 418.5 -173t164.5 -464h-1013q8 -166 136 -281.5t300 -115.5q127 0 235.5 70.5t155.5 185.5h158q-55 -166 -208 -281t-337 -115q-248 0 -420 171t-172 421zM242 647h858q-39 168 -155 264.5t-279 96.5q-160 0 -276.5 -99.5 t-147.5 -261.5zM305 1223l297 258h135l293 -258h-182l-176 151l-180 -151h-187zM616 1745q6 211 211 211q88 0 145.5 -47t57.5 -119q0 -74 -80 -131q-68 -43 -69 -113h-109q2 113 90 183q57 41 58 63q0 27 -26 44t-67 17q-59 0 -88 -34v2q-8 -16 -16 -76h-107z" />
<glyph unicode="&#x1ec4;" horiz-adv-x="1097" d="M156 0v1513h827v-137h-676v-542h654v-138h-654v-559h676v-137h-827zM207 1616l297 258h135l293 -258h-182l-177 151l-180 -151h-186zM274 2030q78 100 191 100q18 0 103 -32t116 -32q55 0 117 64l67 -94q-25 -41 -80 -71t-106 -30q-43 0 -135 45q-47 20 -82 21 q-29 0 -48.5 -9.5t-60.5 -43.5l-14 -13z" />
<glyph unicode="&#x1ec5;" horiz-adv-x="1331" d="M86 565q0 244 169 413t413 169q254 0 418.5 -173t164.5 -464h-1013q8 -166 136 -281.5t300 -115.5q127 0 235.5 70.5t155.5 185.5h158q-55 -166 -208 -281t-337 -115q-248 0 -420 171t-172 421zM242 647h858q-39 168 -155 264.5t-279 96.5q-160 0 -276.5 -99.5 t-147.5 -261.5zM305 1223l297 258h135l293 -258h-182l-176 151l-180 -151h-187zM373 1636q78 100 190 101q18 0 103.5 -32t115.5 -32q55 0 117 64l68 -95q-25 -41 -80.5 -70.5t-106.5 -29.5q-43 0 -135 45q-47 20 -82 21q-29 0 -48 -9.5t-60 -44.5l-15 -12z" />
<glyph unicode="&#x1ec6;" horiz-adv-x="1097" d="M156 0v1513h827v-137h-676v-542h654v-138h-654v-559h676v-137h-827zM207 1616l297 258h135l293 -258h-182l-177 151l-180 -151h-186zM473 -123h152v-258h-152v258z" />
<glyph unicode="&#x1ec7;" horiz-adv-x="1331" d="M86 565q0 244 169 413t413 169q254 0 418.5 -173t164.5 -464h-1013q8 -166 136 -281.5t300 -115.5q127 0 235.5 70.5t155.5 185.5h158q-55 -166 -208 -281t-337 -115q-248 0 -420 171t-172 421zM242 647h858q-39 168 -155 264.5t-279 96.5q-160 0 -276.5 -99.5 t-147.5 -261.5zM305 1243l297 258h135l293 -258h-182l-176 152l-180 -152h-187zM592 -123h151v-258h-151v258z" />
<glyph unicode="&#x1ec8;" horiz-adv-x="462" d="M25 1800q6 211 211 211q88 0 145 -47t57 -119q0 -74 -80 -131q-68 -43 -69 -112h-109q2 113 90 182q57 41 58 63q0 27 -26 44.5t-66 17.5q-59 0 -89 -35v2q-8 -16 -16 -76h-106zM156 0v1513h151v-1513h-151z" />
<glyph unicode="&#x1ec9;" horiz-adv-x="409" d="M-2 1407q6 211 211 211q88 0 145.5 -47t57.5 -119q0 -74 -80 -131q-68 -43 -70 -113h-108q2 113 90 183q57 41 57 63q0 27 -25.5 44.5t-66.5 17.5q-59 0 -88 -35v2q-8 -16 -17 -76h-106zM129 0v1120h152v-1120h-152z" />
<glyph unicode="&#x1eca;" horiz-adv-x="462" d="M156 0v1513h151v-1513h-151zM156 -123h151v-258h-151v258z" />
<glyph unicode="&#x1ecb;" horiz-adv-x="409" d="M129 0v1120h152v-1120h-152zM129 -123h152v-258h-152v258zM129 1243v258h152v-258h-152z" />
<glyph unicode="&#x1ecc;" horiz-adv-x="1779" d="M90 766q0 315 237.5 544.5t563.5 229.5q330 0 564.5 -230.5t234.5 -553.5q0 -322 -235.5 -552.5t-563.5 -230.5q-334 0 -567.5 231.5t-233.5 561.5zM244 762q0 -268 189.5 -458.5t457.5 -190.5q264 0 454.5 189.5t190.5 451.5q0 266 -190.5 456.5t-454.5 190.5 q-262 0 -454.5 -189.5t-192.5 -449.5zM815 -123h152v-258h-152v258z" />
<glyph unicode="&#x1ecd;" horiz-adv-x="1341" d="M86 567q0 246 169 413t419 167q252 0 416.5 -167t164.5 -423q0 -252 -161.5 -418t-407.5 -166q-260 0 -430 168t-170 426zM240 563q0 -197 124.5 -323.5t317.5 -126.5q182 0 301 124.5t119 317.5q0 195 -122 324t-306 129q-186 0 -310 -127.5t-124 -317.5zM598 -123h152 v-258h-152v258z" />
<glyph unicode="&#x1ece;" horiz-adv-x="1779" d="M90 766q0 315 237.5 544.5t563.5 229.5q330 0 564.5 -230.5t234.5 -553.5q0 -322 -235.5 -552.5t-563.5 -230.5q-334 0 -567.5 231.5t-233.5 561.5zM244 762q0 -268 189.5 -458.5t457.5 -190.5q264 0 454.5 189.5t190.5 451.5q0 266 -190.5 456.5t-454.5 190.5 q-262 0 -454.5 -189.5t-192.5 -449.5zM684 1800q6 211 211 211q88 0 145.5 -47t57.5 -119q0 -74 -80 -131q-68 -43 -70 -112h-108q2 113 90 182q57 41 57 63q0 27 -25.5 44.5t-66.5 17.5q-59 0 -88 -35v2q-8 -16 -16 -76h-107z" />
<glyph unicode="&#x1ecf;" horiz-adv-x="1341" d="M86 567q0 246 169 413t419 167q252 0 416.5 -167t164.5 -423q0 -252 -161.5 -418t-407.5 -166q-260 0 -430 168t-170 426zM240 563q0 -197 124.5 -323.5t317.5 -126.5q182 0 301 124.5t119 317.5q0 195 -122 324t-306 129q-186 0 -310 -127.5t-124 -317.5zM467 1407 q6 211 211 211q88 0 145.5 -47t57.5 -119q0 -74 -80 -131q-68 -43 -70 -113h-108q2 113 90 183q57 41 57 63q0 27 -25.5 44.5t-66.5 17.5q-59 0 -88 -35v2q-8 -16 -17 -76h-106z" />
<glyph unicode="&#x1ed0;" horiz-adv-x="1779" d="M90 766q0 315 237.5 544.5t563.5 229.5q330 0 564.5 -230.5t234.5 -553.5q0 -322 -235.5 -552.5t-563.5 -230.5q-334 0 -567.5 231.5t-233.5 561.5zM244 762q0 -268 189.5 -458.5t457.5 -190.5q264 0 454.5 189.5t190.5 451.5q0 266 -190.5 456.5t-454.5 190.5 q-262 0 -454.5 -189.5t-192.5 -449.5zM528 1616l297 258h136l292 -258h-182l-176 151l-180 -151h-187zM735 2030l395 237l70 -119l-395 -233z" />
<glyph unicode="&#x1ed1;" horiz-adv-x="1341" d="M86 567q0 246 169 413t419 167q252 0 416.5 -167t164.5 -423q0 -252 -161.5 -418t-407.5 -166q-260 0 -430 168t-170 426zM240 563q0 -197 124.5 -323.5t317.5 -126.5q182 0 301 124.5t119 317.5q0 195 -122 324t-306 129q-186 0 -310 -127.5t-124 -317.5zM311 1223 l297 258h135l293 -258h-182l-176 151l-180 -151h-187zM518 1636l395 238l70 -119l-395 -233z" />
<glyph unicode="&#x1ed2;" horiz-adv-x="1779" d="M90 766q0 315 237.5 544.5t563.5 229.5q330 0 564.5 -230.5t234.5 -553.5q0 -322 -235.5 -552.5t-563.5 -230.5q-334 0 -567.5 231.5t-233.5 561.5zM244 762q0 -268 189.5 -458.5t457.5 -190.5q264 0 454.5 189.5t190.5 451.5q0 266 -190.5 456.5t-454.5 190.5 q-262 0 -454.5 -189.5t-192.5 -449.5zM528 1616l297 258h136l292 -258h-182l-176 151l-180 -151h-187zM582 2148l69 119l396 -237l-70 -115z" />
<glyph unicode="&#x1ed3;" horiz-adv-x="1341" d="M86 567q0 246 169 413t419 167q252 0 416.5 -167t164.5 -423q0 -252 -161.5 -418t-407.5 -166q-260 0 -430 168t-170 426zM240 563q0 -197 124.5 -323.5t317.5 -126.5q182 0 301 124.5t119 317.5q0 195 -122 324t-306 129q-186 0 -310 -127.5t-124 -317.5zM311 1223 l297 258h135l293 -258h-182l-176 151l-180 -151h-187zM365 1755l69 119l395 -238l-69 -114z" />
<glyph unicode="&#x1ed4;" horiz-adv-x="1779" d="M90 766q0 315 237.5 544.5t563.5 229.5q330 0 564.5 -230.5t234.5 -553.5q0 -322 -235.5 -552.5t-563.5 -230.5q-334 0 -567.5 231.5t-233.5 561.5zM244 762q0 -268 189.5 -458.5t457.5 -190.5q264 0 454.5 189.5t190.5 451.5q0 266 -190.5 456.5t-454.5 190.5 q-262 0 -454.5 -189.5t-192.5 -449.5zM528 1616l297 258h136l292 -258h-182l-176 151l-180 -151h-187zM840 2138q6 211 211 211q88 0 145 -47t57 -119q0 -74 -79 -131q-68 -43 -70 -113h-109q2 113 90 183q57 41 58 63q0 27 -25.5 44.5t-66.5 17.5q-59 0 -88 -35v2 q-8 -16 -17 -76h-106z" />
<glyph unicode="&#x1ed5;" horiz-adv-x="1341" d="M86 567q0 246 169 413t419 167q252 0 416.5 -167t164.5 -423q0 -252 -161.5 -418t-407.5 -166q-260 0 -430 168t-170 426zM240 563q0 -197 124.5 -323.5t317.5 -126.5q182 0 301 124.5t119 317.5q0 195 -122 324t-306 129q-186 0 -310 -127.5t-124 -317.5zM311 1223 l297 258h135l293 -258h-182l-176 151l-180 -151h-187zM623 1745q6 211 211 211q88 0 145 -47t57 -119q0 -74 -80 -131q-68 -43 -69 -113h-109q2 113 90 183q57 41 58 63q0 27 -26 44t-66 17q-59 0 -89 -34v2q-8 -16 -16 -76h-106z" />
<glyph unicode="&#x1ed6;" horiz-adv-x="1779" d="M90 766q0 315 237.5 544.5t563.5 229.5q330 0 564.5 -230.5t234.5 -553.5q0 -322 -235.5 -552.5t-563.5 -230.5q-334 0 -567.5 231.5t-233.5 561.5zM244 762q0 -268 189.5 -458.5t457.5 -190.5q264 0 454.5 189.5t190.5 451.5q0 266 -190.5 456.5t-454.5 190.5 q-262 0 -454.5 -189.5t-192.5 -449.5zM528 1616l297 258h136l292 -258h-182l-176 151l-180 -151h-187zM596 2030q78 100 190 100q18 0 103.5 -32t116.5 -32q55 0 116 64l68 -94q-25 -41 -80 -71t-106 -30q-43 0 -136 45q-47 20 -82 21q-29 0 -48 -9.5t-60 -43.5l-14 -13z " />
<glyph unicode="&#x1ed7;" horiz-adv-x="1341" d="M86 567q0 246 169 413t419 167q252 0 416.5 -167t164.5 -423q0 -252 -161.5 -418t-407.5 -166q-260 0 -430 168t-170 426zM240 563q0 -197 124.5 -323.5t317.5 -126.5q182 0 301 124.5t119 317.5q0 195 -122 324t-306 129q-186 0 -310 -127.5t-124 -317.5zM311 1223 l297 258h135l293 -258h-182l-176 151l-180 -151h-187zM379 1636q78 100 190 101q18 0 103.5 -32t115.5 -32q55 0 117 64l68 -95q-25 -41 -80 -70.5t-107 -29.5q-43 0 -135 45q-47 20 -82 21q-29 0 -48 -9.5t-60 -44.5l-15 -12z" />
<glyph unicode="&#x1ed8;" horiz-adv-x="1779" d="M90 766q0 315 237.5 544.5t563.5 229.5q330 0 564.5 -230.5t234.5 -553.5q0 -322 -235.5 -552.5t-563.5 -230.5q-334 0 -567.5 231.5t-233.5 561.5zM244 762q0 -268 189.5 -458.5t457.5 -190.5q264 0 454.5 189.5t190.5 451.5q0 266 -190.5 456.5t-454.5 190.5 q-262 0 -454.5 -189.5t-192.5 -449.5zM528 1616l297 258h136l292 -258h-182l-176 151l-180 -151h-187zM815 -123h152v-258h-152v258z" />
<glyph unicode="&#x1ed9;" horiz-adv-x="1341" d="M86 567q0 246 169 413t419 167q252 0 416.5 -167t164.5 -423q0 -252 -161.5 -418t-407.5 -166q-260 0 -430 168t-170 426zM240 563q0 -197 124.5 -323.5t317.5 -126.5q182 0 301 124.5t119 317.5q0 195 -122 324t-306 129q-186 0 -310 -127.5t-124 -317.5zM311 1243 l297 258h135l293 -258h-182l-176 152l-180 -152h-187zM598 -123h152v-258h-152v258z" />
<glyph unicode="&#x1eda;" horiz-adv-x="1779" d="M90 766q0 315 237.5 544.5t563.5 229.5q332 0 569 -237q92 84 92 210h131q0 -201 -135 -315q141 -203 142 -442q0 -322 -235.5 -552.5t-563.5 -230.5q-334 0 -567.5 231.5t-233.5 561.5zM244 762q0 -268 189.5 -458.5t457.5 -190.5q264 0 454.5 189.5t190.5 451.5 q0 266 -190.5 456.5t-454.5 190.5q-262 0 -454.5 -189.5t-192.5 -449.5zM735 1704l395 238l70 -119l-395 -234z" />
<glyph unicode="&#x1edb;" horiz-adv-x="1384" d="M86 567q0 246 169 413t419 167q143 0 263 -58.5t198 -160.5q74 78 73 192h131q0 -197 -133 -315q49 -119 49 -248q0 -252 -161.5 -418t-407.5 -166q-260 0 -430 168t-170 426zM240 563q0 -197 124.5 -323.5t317.5 -126.5q182 0 301 124.5t119 317.5q0 195 -122 324 t-306 129q-186 0 -310 -127.5t-124 -317.5zM518 1331l395 238l70 -119l-395 -233z" />
<glyph unicode="&#x1edc;" horiz-adv-x="1779" d="M90 766q0 315 237.5 544.5t563.5 229.5q332 0 569 -237q92 84 92 210h131q0 -201 -135 -315q141 -203 142 -442q0 -322 -235.5 -552.5t-563.5 -230.5q-334 0 -567.5 231.5t-233.5 561.5zM244 762q0 -268 189.5 -458.5t457.5 -190.5q264 0 454.5 189.5t190.5 451.5 q0 266 -190.5 456.5t-454.5 190.5q-262 0 -454.5 -189.5t-192.5 -449.5zM582 1823l69 119l396 -238l-70 -115z" />
<glyph unicode="&#x1edd;" horiz-adv-x="1384" d="M86 567q0 246 169 413t419 167q143 0 263 -58.5t198 -160.5q74 78 73 192h131q0 -197 -133 -315q49 -119 49 -248q0 -252 -161.5 -418t-407.5 -166q-260 0 -430 168t-170 426zM240 563q0 -197 124.5 -323.5t317.5 -126.5q182 0 301 124.5t119 317.5q0 195 -122 324 t-306 129q-186 0 -310 -127.5t-124 -317.5zM365 1450l69 119l395 -238l-69 -114z" />
<glyph unicode="&#x1ede;" horiz-adv-x="1779" d="M90 766q0 315 237.5 544.5t563.5 229.5q332 0 569 -237q92 84 92 210h131q0 -201 -135 -315q141 -203 142 -442q0 -322 -235.5 -552.5t-563.5 -230.5q-334 0 -567.5 231.5t-233.5 561.5zM244 762q0 -268 189.5 -458.5t457.5 -190.5q264 0 454.5 189.5t190.5 451.5 q0 266 -190.5 456.5t-454.5 190.5q-262 0 -454.5 -189.5t-192.5 -449.5zM684 1800q6 211 211 211q88 0 145.5 -47t57.5 -119q0 -74 -80 -131q-68 -43 -70 -112h-108q2 113 90 182q57 41 57 63q0 27 -25.5 44.5t-66.5 17.5q-59 0 -88 -35v2q-8 -16 -16 -76h-107z" />
<glyph unicode="&#x1edf;" horiz-adv-x="1384" d="M86 567q0 246 169 413t419 167q143 0 263 -58.5t198 -160.5q74 78 73 192h131q0 -197 -133 -315q49 -119 49 -248q0 -252 -161.5 -418t-407.5 -166q-260 0 -430 168t-170 426zM240 563q0 -197 124.5 -323.5t317.5 -126.5q182 0 301 124.5t119 317.5q0 195 -122 324 t-306 129q-186 0 -310 -127.5t-124 -317.5zM467 1407q6 211 211 211q88 0 145.5 -47t57.5 -119q0 -74 -80 -131q-68 -43 -70 -113h-108q2 113 90 183q57 41 57 63q0 27 -25.5 44.5t-66.5 17.5q-59 0 -88 -35v2q-8 -16 -17 -76h-106z" />
<glyph unicode="&#x1ee0;" horiz-adv-x="1779" d="M90 766q0 315 237.5 544.5t563.5 229.5q332 0 569 -237q92 84 92 210h131q0 -201 -135 -315q141 -203 142 -442q0 -322 -235.5 -552.5t-563.5 -230.5q-334 0 -567.5 231.5t-233.5 561.5zM244 762q0 -268 189.5 -458.5t457.5 -190.5q264 0 454.5 189.5t190.5 451.5 q0 266 -190.5 456.5t-454.5 190.5q-262 0 -454.5 -189.5t-192.5 -449.5zM596 1743q78 100 190 100q18 0 103.5 -31.5t116.5 -31.5q55 0 116 63l68 -94q-25 -41 -80 -70.5t-106 -29.5q-43 0 -136 45q-47 20 -82 20q-29 0 -48 -9t-60 -44l-14 -12z" />
<glyph unicode="&#x1ee1;" horiz-adv-x="1384" d="M86 567q0 246 169 413t419 167q143 0 263 -58.5t198 -160.5q74 78 73 192h131q0 -197 -133 -315q49 -119 49 -248q0 -252 -161.5 -418t-407.5 -166q-260 0 -430 168t-170 426zM240 563q0 -197 124.5 -323.5t317.5 -126.5q182 0 301 124.5t119 317.5q0 195 -122 324 t-306 129q-186 0 -310 -127.5t-124 -317.5zM377 1370q78 100 190 100q18 0 103.5 -31.5t115.5 -31.5q55 0 117 63l68 -94q-25 -41 -80 -70.5t-107 -29.5q-43 0 -135 45q-47 20 -82 20q-29 0 -48 -9t-60 -44l-15 -12z" />
<glyph unicode="&#x1ee2;" horiz-adv-x="1779" d="M90 766q0 315 237.5 544.5t563.5 229.5q332 0 569 -237q92 84 92 210h131q0 -201 -135 -315q141 -203 142 -442q0 -322 -235.5 -552.5t-563.5 -230.5q-334 0 -567.5 231.5t-233.5 561.5zM244 762q0 -268 189.5 -458.5t457.5 -190.5q264 0 454.5 189.5t190.5 451.5 q0 266 -190.5 456.5t-454.5 190.5q-262 0 -454.5 -189.5t-192.5 -449.5zM815 -123h152v-258h-152v258z" />
<glyph unicode="&#x1ee3;" horiz-adv-x="1384" d="M86 567q0 246 169 413t419 167q143 0 263 -58.5t198 -160.5q74 78 73 192h131q0 -197 -133 -315q49 -119 49 -248q0 -252 -161.5 -418t-407.5 -166q-260 0 -430 168t-170 426zM240 563q0 -197 124.5 -323.5t317.5 -126.5q182 0 301 124.5t119 317.5q0 195 -122 324 t-306 129q-186 0 -310 -127.5t-124 -317.5zM598 -123h152v-258h-152v258z" />
<glyph unicode="&#x1ee4;" horiz-adv-x="1341" d="M156 569v944h151v-944q0 -457 365 -456q362 0 362 456v944h152v-944q0 -299 -138.5 -447.5t-377.5 -148.5q-238 0 -376 148.5t-138 447.5zM596 -123h152v-258h-152v258z" />
<glyph unicode="&#x1ee5;" horiz-adv-x="1245" d="M129 516v604h152v-604q0 -403 335 -403q162 0 255.5 106.5t93.5 325.5v575h151v-1120h-151v174q-109 -201 -361 -201q-475 0 -475 543zM547 -123h151v-258h-151v258z" />
<glyph unicode="&#x1ee6;" horiz-adv-x="1341" d="M156 569v944h151v-944q0 -457 365 -456q362 0 362 456v944h152v-944q0 -299 -138.5 -447.5t-377.5 -148.5q-238 0 -376 148.5t-138 447.5zM465 1800q6 211 211 211q88 0 145.5 -47t57.5 -119q0 -74 -80 -131q-68 -43 -70 -112h-108q2 113 90 182q57 41 57 63 q0 27 -25.5 44.5t-66.5 17.5q-59 0 -88 -35v2q-8 -16 -17 -76h-106z" />
<glyph unicode="&#x1ee7;" horiz-adv-x="1245" d="M129 516v604h152v-604q0 -403 335 -403q162 0 255.5 106.5t93.5 325.5v575h151v-1120h-151v174q-109 -201 -361 -201q-475 0 -475 543zM416 1407q6 211 211 211q88 0 145 -47t57 -119q0 -74 -79 -131q-68 -43 -70 -113h-109q2 113 91 183q57 41 57 63q0 27 -25.5 44.5 t-66.5 17.5q-59 0 -88 -35v2q-8 -16 -17 -76h-106z" />
<glyph unicode="&#x1ee8;" horiz-adv-x="1445" d="M156 569v944h151v-944q0 -207 70 -313q43 -66 122 -104.5t173 -38.5q92 0 171 38.5t122 104.5q70 106 69 313v944h152v-213q92 84 92 213h131q0 -260 -223 -376v-568q0 -268 -107 -409q-68 -88 -176 -137.5t-233 -49.5t-232.5 49.5t-175.5 137.5q-106 141 -106 409z M516 1704l395 238l70 -119l-395 -234z" />
<glyph unicode="&#x1ee9;" horiz-adv-x="1384" d="M129 516v604h152v-604q0 -174 53 -262q39 -68 113.5 -104.5t168.5 -36.5q180 0 281 139q68 100 68 293v575h151v-219q98 84 98 219h132q0 -264 -230 -379v-741h-151v174q-109 -201 -361 -201q-258 0 -387 179q-88 120 -88 364zM467 1331l395 238l70 -119l-395 -233z" />
<glyph unicode="&#x1eea;" horiz-adv-x="1445" d="M156 569v944h151v-944q0 -207 70 -313q43 -66 122 -104.5t173 -38.5q92 0 171 38.5t122 104.5q70 106 69 313v944h152v-213q92 84 92 213h131q0 -260 -223 -376v-568q0 -268 -107 -409q-68 -88 -176 -137.5t-233 -49.5t-232.5 49.5t-175.5 137.5q-106 141 -106 409z M360 1823l70 119l395 -238l-69 -115z" />
<glyph unicode="&#x1eeb;" horiz-adv-x="1384" d="M129 516v604h152v-604q0 -174 53 -262q39 -68 113.5 -104.5t168.5 -36.5q180 0 281 139q68 100 68 293v575h151v-219q98 84 98 219h132q0 -264 -230 -379v-741h-151v174q-109 -201 -361 -201q-258 0 -387 179q-88 120 -88 364zM313 1450l70 119l395 -238l-69 -114z" />
<glyph unicode="&#x1eec;" horiz-adv-x="1445" d="M156 569v944h151v-944q0 -207 70 -313q43 -66 122 -104.5t173 -38.5q92 0 171 38.5t122 104.5q70 106 69 313v944h152v-213q92 84 92 213h131q0 -260 -223 -376v-568q0 -268 -107 -409q-68 -88 -176 -137.5t-233 -49.5t-232.5 49.5t-175.5 137.5q-106 141 -106 409z M465 1800q6 211 211 211q88 0 145.5 -47t57.5 -119q0 -74 -80 -131q-68 -43 -70 -112h-108q2 113 90 182q57 41 57 63q0 27 -25.5 44.5t-66.5 17.5q-59 0 -88 -35v2q-8 -16 -17 -76h-106z" />
<glyph unicode="&#x1eed;" horiz-adv-x="1384" d="M129 516v604h152v-604q0 -174 53 -262q39 -68 113.5 -104.5t168.5 -36.5q180 0 281 139q68 100 68 293v575h151v-219q98 84 98 219h132q0 -264 -230 -379v-741h-151v174q-109 -201 -361 -201q-258 0 -387 179q-88 120 -88 364zM416 1407q6 211 211 211q88 0 145 -47 t57 -119q0 -74 -79 -131q-68 -43 -70 -113h-109q2 113 91 183q57 41 57 63q0 27 -25.5 44.5t-66.5 17.5q-59 0 -88 -35v2q-8 -16 -17 -76h-106z" />
<glyph unicode="&#x1eee;" horiz-adv-x="1445" d="M156 569v944h151v-944q0 -207 70 -313q43 -66 122 -104.5t173 -38.5q92 0 171 38.5t122 104.5q70 106 69 313v944h152v-213q92 84 92 213h131q0 -260 -223 -376v-568q0 -268 -107 -409q-68 -88 -176 -137.5t-233 -49.5t-232.5 49.5t-175.5 137.5q-106 141 -106 409z M375 1743q78 100 190 100q18 0 103.5 -31.5t115.5 -31.5q55 0 117 63l68 -94q-25 -41 -80 -70.5t-107 -29.5q-43 0 -135 45q-47 20 -82 20q-29 0 -48 -9t-60 -44l-15 -12z" />
<glyph unicode="&#x1eef;" horiz-adv-x="1384" d="M129 516v604h152v-604q0 -174 53 -262q39 -68 113.5 -104.5t168.5 -36.5q180 0 281 139q68 100 68 293v575h151v-219q98 84 98 219h132q0 -264 -230 -379v-741h-151v174q-109 -201 -361 -201q-258 0 -387 179q-88 120 -88 364zM326 1370q78 100 190 100q18 0 103.5 -31.5 t115.5 -31.5q55 0 117 63l68 -94q-25 -41 -80.5 -70.5t-106.5 -29.5q-43 0 -135 45q-47 20 -82 20q-29 0 -48 -9t-60 -44l-15 -12z" />
<glyph unicode="&#x1ef0;" horiz-adv-x="1445" d="M156 569v944h151v-944q0 -207 70 -313q43 -66 122 -104.5t173 -38.5q92 0 171 38.5t122 104.5q70 106 69 313v944h152v-213q92 84 92 213h131q0 -260 -223 -376v-568q0 -268 -107 -409q-68 -88 -176 -137.5t-233 -49.5t-232.5 49.5t-175.5 137.5q-106 141 -106 409z M596 -123h152v-258h-152v258z" />
<glyph unicode="&#x1ef1;" horiz-adv-x="1384" d="M129 516v604h152v-604q0 -174 53 -262q39 -68 113.5 -104.5t168.5 -36.5q180 0 281 139q68 100 68 293v575h151v-219q98 84 98 219h132q0 -264 -230 -379v-741h-151v174q-109 -201 -361 -201q-258 0 -387 179q-88 120 -88 364zM547 -123h151v-258h-151v258z" />
<glyph unicode="&#x1ef2;" horiz-adv-x="1212" d="M4 1513h168l430 -847l440 847h166l-528 -1007v-506h-152v506zM295 1823l70 119l395 -238l-70 -115z" />
<glyph unicode="&#x1ef3;" horiz-adv-x="1097" d="M18 1120h166l355 -893l379 893h161l-647 -1513h-162l183 430zM242 1450l69 119l396 -238l-70 -114z" />
<glyph unicode="&#x1ef4;" horiz-adv-x="1212" d="M4 1513h168l430 -847l440 847h166l-528 -1007v-506h-152v506zM528 -123h152v-258h-152v258z" />
<glyph unicode="&#x1ef5;" horiz-adv-x="1097" d="M18 1120h166l355 -893l379 893h161l-647 -1513h-162l183 430zM748 -123h151v-258h-151v258z" />
<glyph unicode="&#x1ef6;" horiz-adv-x="1212" d="M4 1513h168l430 -847l440 847h166l-528 -1007v-506h-152v506zM397 1800q6 211 211 211q88 0 145.5 -47t57.5 -119q0 -74 -80 -131q-68 -43 -69 -112h-109q2 113 90 182q57 41 57 63q0 27 -25.5 44.5t-66.5 17.5q-59 0 -88 -35v2q-8 -16 -16 -76h-107z" />
<glyph unicode="&#x1ef7;" horiz-adv-x="1097" d="M18 1120h166l355 -893l379 893h161l-647 -1513h-162l183 430zM344 1407q6 211 211 211q88 0 145.5 -47t57.5 -119q0 -74 -80 -131q-68 -43 -70 -113h-108q2 113 90 183q57 41 57 63q0 27 -25.5 44.5t-66.5 17.5q-59 0 -88 -35v2q-8 -16 -16 -76h-107z" />
<glyph unicode="&#x1ef8;" horiz-adv-x="1212" d="M4 1513h168l430 -847l440 847h166l-528 -1007v-506h-152v506zM309 1743q78 100 191 100q18 0 103 -31.5t116 -31.5q55 0 117 63l67 -94q-25 -41 -80 -70.5t-106 -29.5q-43 0 -135 45q-47 20 -82 20q-29 0 -48.5 -9t-60.5 -44l-14 -12z" />
<glyph unicode="&#x1ef9;" horiz-adv-x="1097" d="M18 1120h166l355 -893l379 893h161l-647 -1513h-162l183 430zM254 1370q78 100 190 100q18 0 103.5 -31.5t116.5 -31.5q55 0 116 63l68 -94q-25 -41 -80 -70.5t-106 -29.5q-43 0 -136 45q-47 20 -82 20q-29 0 -48 -9t-60 -44l-14 -12z" />
<glyph unicode="&#x2000;" horiz-adv-x="1185" />
<glyph unicode="&#x2001;" horiz-adv-x="2371" />
<glyph unicode="&#x2002;" horiz-adv-x="1185" />
<glyph unicode="&#x2003;" horiz-adv-x="2371" />
<glyph unicode="&#x2004;" horiz-adv-x="790" />
<glyph unicode="&#x2005;" horiz-adv-x="591" />
<glyph unicode="&#x2006;" horiz-adv-x="395" />
<glyph unicode="&#x2007;" horiz-adv-x="395" />
<glyph unicode="&#x2008;" horiz-adv-x="294" />
<glyph unicode="&#x2009;" horiz-adv-x="473" />
<glyph unicode="&#x200a;" horiz-adv-x="131" />
<glyph unicode="&#x2010;" horiz-adv-x="679" d="M63 477v129h555v-129h-555z" />
<glyph unicode="&#x2011;" horiz-adv-x="679" d="M63 477v129h555v-129h-555z" />
<glyph unicode="&#x2012;" horiz-adv-x="679" d="M63 477v129h555v-129h-555z" />
<glyph unicode="&#x2013;" horiz-adv-x="1024" d="M0 477v129h1024v-129h-1024z" />
<glyph unicode="&#x2014;" horiz-adv-x="2048" d="M0 477v129h2048v-129h-2048z" />
<glyph unicode="&#x2016;" horiz-adv-x="1241" d="M393 -256v1769h152v-1769h-152zM696 -256v1769h152v-1769h-152z" />
<glyph unicode="&#x2018;" horiz-adv-x="718" d="M201 1513h151l180 -393h-151z" />
<glyph unicode="&#x2019;" horiz-adv-x="718" d="M186 1120l181 393h151l-180 -393h-152z" />
<glyph unicode="&#x201a;" horiz-adv-x="724" d="M182 -137l180 395h152l-180 -395h-152z" />
<glyph unicode="&#x201c;" horiz-adv-x="1028" d="M197 1513h151l180 -393h-151zM500 1513h151l180 -393h-151z" />
<glyph unicode="&#x201d;" horiz-adv-x="991" d="M178 1120l180 393h152l-180 -393h-152zM473 1120l180 393h152l-180 -393h-152z" />
<glyph unicode="&#x201e;" horiz-adv-x="1028" d="M182 -137l180 395h152l-180 -395h-152zM483 -137l181 395h151l-180 -395h-152z" />
<glyph unicode="&#x2020;" horiz-adv-x="1132" d="M121 963v135h364v415h152v-415h375v-135h-375v-1235h-152v1235h-364z" />
<glyph unicode="&#x2021;" horiz-adv-x="1132" d="M121 678v143h366v189h-366v143h366v360h152v-360h373v-143h-373v-189h373v-143h-373v-950h-152v950h-366z" />
<glyph unicode="&#x2022;" horiz-adv-x="1241" d="M242 621q0 158 110.5 268t268 110t268 -109.5t110.5 -266.5q0 -160 -110.5 -270.5t-272.5 -110.5q-154 0 -264 111.5t-110 267.5z" />
<glyph unicode="&#x2026;" horiz-adv-x="2048" d="M266 0v258h152v-258h-152zM948 0v258h152v-258h-152zM1630 0v258h152v-258h-152z" />
<glyph unicode="&#x202f;" horiz-adv-x="473" />
<glyph unicode="&#x2030;" horiz-adv-x="2404" d="M27 1174q0 152 105.5 256t256.5 104q145 0 250.5 -106.5t105.5 -253.5q0 -150 -105 -255.5t-255 -105.5q-147 0 -252.5 105.5t-105.5 255.5zM162 1174q0 -92 65.5 -159t157.5 -67q90 0 155.5 65.5t65.5 160.5q0 92 -64.5 158.5t-154.5 66.5q-94 0 -159.5 -65.5 t-65.5 -159.5zM373 0l680 1513h151l-684 -1513h-147zM821 332q0 152 105.5 256t257.5 104q145 0 250.5 -106.5t105.5 -251.5q0 -150 -105.5 -255.5t-254.5 -105.5q-147 0 -253 106t-106 253zM958 332q0 -92 66 -157.5t156 -65.5t155.5 65.5t65.5 157.5t-64.5 158.5 t-154.5 66.5q-94 0 -159 -65.5t-65 -159.5zM1638 332q0 152 105.5 256t257.5 104q145 0 250.5 -106.5t105.5 -251.5q0 -150 -105.5 -255.5t-254.5 -105.5q-147 0 -253 106t-106 253zM1776 332q0 -92 65.5 -157.5t155.5 -65.5t155.5 65.5t65.5 157.5t-64.5 158.5t-154.5 66.5 q-94 0 -158.5 -65.5t-64.5 -159.5z" />
<glyph unicode="&#x2031;" horiz-adv-x="3221" d="M27 1174q0 152 105.5 256t256.5 104q145 0 250.5 -106.5t105.5 -253.5q0 -150 -105 -255.5t-255 -105.5q-147 0 -252.5 105.5t-105.5 255.5zM162 1174q0 -92 65.5 -159t157.5 -67q90 0 155.5 65.5t65.5 160.5q0 92 -64.5 158.5t-154.5 66.5q-94 0 -159.5 -65.5 t-65.5 -159.5zM373 0l680 1513h151l-684 -1513h-147zM821 332q0 152 105.5 256t257.5 104q145 0 250.5 -106.5t105.5 -251.5q0 -150 -105.5 -255.5t-254.5 -105.5q-147 0 -253 106t-106 253zM958 332q0 -92 66 -157.5t156 -65.5t155.5 65.5t65.5 157.5t-64.5 158.5 t-154.5 66.5q-94 0 -159 -65.5t-65 -159.5zM1638 332q0 152 105.5 256t257.5 104q145 0 250.5 -106.5t105.5 -251.5q0 -150 -105.5 -255.5t-254.5 -105.5q-147 0 -253 106t-106 253zM1776 332q0 -92 65.5 -157.5t155.5 -65.5t155.5 65.5t65.5 157.5t-64.5 158.5t-154.5 66.5 q-94 0 -158.5 -65.5t-64.5 -159.5zM2456 332q0 152 105 256t257 104q145 0 250.5 -106.5t105.5 -251.5q0 -150 -105.5 -255.5t-254.5 -105.5q-147 0 -252.5 106t-105.5 253zM2593 332q0 -92 65.5 -157.5t155.5 -65.5t155.5 65.5t65.5 157.5t-64.5 158.5t-154.5 66.5 q-94 0 -158.5 -65.5t-64.5 -159.5z" />
<glyph unicode="&#x2039;" horiz-adv-x="514" d="M82 614l229 408l121 -66l-190 -342l190 -344l-121 -67z" />
<glyph unicode="&#x203a;" horiz-adv-x="514" d="M82 270l190 344l-190 342l121 66l229 -408l-229 -411z" />
<glyph unicode="&#x203b;" horiz-adv-x="1241" d="M63 512q0 53 38 91t91.5 38t91.5 -38t38 -91t-38 -91t-91.5 -38t-91.5 38t-38 91zM219 217l295 295l-295 295l107 106l295 -295l294 295l107 -106l-295 -295l295 -295l-107 -106l-294 295l-295 -295zM492 84q0 53 37.5 91t91 38t91.5 -38t38 -91t-38 -91t-91.5 -38 t-91 38t-37.5 91zM492 940q0 53 37.5 91t91 38t91.5 -38t38 -91t-38 -91t-91.5 -38t-91 38t-37.5 91zM920 512q0 53 37.5 91t91 38t91.5 -38t38 -91t-38 -91t-91.5 -38t-91 38t-37.5 91z" />
<glyph unicode="&#x203d;" horiz-adv-x="1210" d="M133 1040q6 217 114.5 344t287.5 150v184h151v-184q174 -23 281.5 -143.5t107.5 -294.5q0 -98 -42 -178t-142 -170.5t-147.5 -157t-57.5 -141.5v-54h-151v1000q-233 -41 -259 -355h-143zM535 0v258h151v-258h-151zM686 748q29 31 66 65q104 96 138 153.5t34 133.5 q0 113 -65.5 192.5t-172.5 102.5v-647z" />
<glyph unicode="&#x2044;" horiz-adv-x="339" d="M-236 0l701 1513h110l-700 -1513h-111z" />
<glyph unicode="&#x2045;" horiz-adv-x="737" d="M129 63v312q0 78 47 145.5t123 108.5q-76 39 -123 105.5t-47 146.5v311q0 152 142.5 236.5t336.5 84.5v-139q-137 0 -232 -44t-95 -138v-311q0 -96 95 -139.5t232 -43.5v-139q-137 0 -232 -44t-95 -140v-312q0 -94 95 -138t232 -44v-139q-195 0 -337 84.5t-142 236.5z " />
</font>
</defs>
</svg>
