<?xml version="1.0" standalone="no"?>
<!DOCTYPE svg PUBLIC "-//W3C//DTD SVG 1.1//EN" "http://www.w3.org/Graphics/SVG/1.1/DTD/svg11.dtd" >
<svg>
<metadata>
Created by FontForge 20120731 at Mon Jun 16 15:40:10 2014

LL Circular Air font files are proprietary and protected by copyright of LINETO GMBH. They are for exclusive use by licensed users and appointed third parties only, to carry out work for and on behalf of AirBnB under the limited license expiring on 15 June 2018.
Use by unauthorised or unlicensed users and third parties is prohibited and constitutes a criminal offence. It is strictly prohibited to modify, adapt or translate the encoding, reproduce, decompile, disassemble, change, modify or otherwise attempt to reveal the source code of the font software.
</metadata>
<defs>
<font id="CircularAir-Light" horiz-adv-x="576" >
  <font-face 
    font-family="Circular Air Light"
    font-weight="300"
    font-stretch="normal"
    units-per-em="1000"
    panose-1="2 0 5 3 0 0 0 2 0 3"
    ascent="809"
    descent="-191"
    x-height="477"
    cap-height="709"
    bbox="-37 -239 1485 1014"
    underline-thickness="80"
    underline-position="-115"
    unicode-range="U+000D-FB04"
  />
<missing-glyph horiz-adv-x="250" 
 />
    <glyph glyph-name="fi" unicode="fi" horiz-adv-x="559" 
d="M396 675q0 21 14 35.5t35 14.5q20 0 35 -14.5t15 -35.5q0 -20 -15 -34.5t-35 -14.5q-21 0 -35 14.5t-14 34.5zM256 730q19 0 32.5 -3t21.5 -7v-54q-7 3 -18 5.5t-27 2.5q-36 0 -63 -22.5t-27 -78.5v-96h300v-477h-60v422h-240v-422h-62v422h-97v55h97v99q0 77 40.5 115.5
t102.5 38.5z" />
    <glyph glyph-name="fl" unicode="fl" horiz-adv-x="558" 
d="M265 674q-36 0 -63 -22.5t-27 -78.5v-96h239v245h60v-722h-60v422h-239v-422h-62v422h-97v55h97v99q0 77 40.5 115.5t102.5 38.5q19 0 32.5 -3t21.5 -7v-54q-7 3 -18 5.5t-27 2.5z" />
    <glyph glyph-name="uniFB00" unicode="ff" horiz-adv-x="628" 
d="M565 674q-37 0 -64 -22.5t-27 -78.5v-96h133v-55h-133v-422h-61v422h-238v-422h-62v422h-97v55h97v99q0 77 40.5 115.5t102.5 38.5q19 0 32.5 -3t21.5 -7v-54q-7 3 -18 5.5t-27 2.5q-36 0 -63 -22.5t-27 -78.5v-96h238v99q0 77 40.5 115.5t102.5 38.5q19 0 32 -3t22 -7
v-54q-7 3 -18 5.5t-27 2.5z" />
    <glyph glyph-name="uniFB03" unicode="ffi" horiz-adv-x="858" 
d="M695 675q0 21 14.5 35.5t34.5 14.5q21 0 35.5 -14.5t14.5 -35.5q0 -20 -14.5 -34.5t-35.5 -14.5q-20 0 -34.5 14.5t-14.5 34.5zM113 576q0 77 40.5 115.5t102.5 38.5q19 0 32.5 -3t21.5 -7v-54q-7 3 -18 5.5t-27 2.5q-36 0 -63 -22.5t-27 -78.5v-96h238v99
q0 77 40.5 115.5t102.5 38.5q19 0 32 -3t22 -7v-54q-7 3 -18 5.5t-27 2.5q-37 0 -64 -22.5t-27 -78.5v-96h300v-477h-59v422h-241v-422h-61v422h-238v-422h-62v422h-97v55h97v99z" />
    <glyph glyph-name="uniFB04" unicode="ffl" horiz-adv-x="858" 
d="M113 576q0 77 40.5 115.5t102.5 38.5q19 0 32.5 -3t21.5 -7v-54q-7 3 -18 5.5t-27 2.5q-36 0 -63 -22.5t-27 -78.5v-96h238v99q0 77 40.5 115.5t102.5 38.5q19 0 32 -3t22 -7v-54q-7 3 -18 5.5t-27 2.5q-37 0 -64 -22.5t-27 -78.5v-96h241v245h59v-722h-59v422h-241v-422
h-61v422h-238v-422h-62v422h-97v55h97v99z" />
    <glyph glyph-name=".notdef" horiz-adv-x="250" 
 />
    <glyph glyph-name="NULL" horiz-adv-x="0" 
 />
    <glyph glyph-name="NULL" horiz-adv-x="0" 
 />
    <glyph glyph-name="nonmarkingreturn" unicode="&#xd;" horiz-adv-x="253" 
 />
    <glyph glyph-name="space" unicode=" " horiz-adv-x="253" 
 />
    <glyph glyph-name="lslash" unicode="&#x142;" horiz-adv-x="253" 
d="M95 0v295l-95 -42v56l95 42v371h60v-345l107 47v-56l-107 -47v-321h-60z" />
    <glyph glyph-name="Scaron" unicode="&#x160;" horiz-adv-x="575" 
d="M466 528q-6 27 -18.5 52t-33.5 44t-51 30.5t-70 11.5q-32 0 -61 -10t-51.5 -28.5t-36 -44.5t-13.5 -57q0 -48 29 -80t83 -45l108 -25q83 -20 130.5 -67.5t47.5 -122.5q0 -41 -16.5 -77t-47.5 -63t-74 -43t-97 -16q-59 0 -104 18t-77 47t-50.5 67t-22.5 79l59 19
q3 -35 17.5 -66t39.5 -55t59.5 -38t78.5 -14q41 0 73 10.5t54 29t33.5 43.5t11.5 54q0 50 -33 84.5t-94 48.5l-107 25q-36 8 -66 23.5t-51.5 38.5t-34 53t-12.5 68q0 41 18.5 77.5t49 63.5t71 43t84.5 16q54 0 94.5 -14.5t68 -38.5t44 -55.5t24.5 -65.5zM198 878l97 -84
l98 84h59l-116 -119h-82l-115 119h59z" />
    <glyph glyph-name="scaron" unicode="&#x161;" horiz-adv-x="437" 
d="M94 146q7 -47 40 -77t91 -30q47 0 77 23.5t30 61.5q0 33 -21.5 53t-59.5 28l-80 18q-51 12 -83 43.5t-32 83.5q0 29 13 54.5t35 44.5t51 30t62 11q42 0 71.5 -12t50 -30.5t32 -41t16.5 -43.5l-53 -20q-3 17 -11 34t-22 30.5t-35 22t-49 8.5q-20 0 -38.5 -6t-32.5 -17
t-22.5 -26.5t-8.5 -34.5q0 -59 73 -76l79 -17q60 -14 92 -47.5t32 -85.5q0 -27 -11 -52t-32.5 -45t-52.5 -32t-71 -12q-44 0 -77 12.5t-55.5 32.5t-35.5 45t-17 50zM130 676l91 -100l91 100h55l-109 -138h-74l-109 138h55z" />
    <glyph glyph-name="Yacute" unicode="&#xdd;" horiz-adv-x="597" 
d="M19 709h76l206 -347l205 347h72l-248 -406v-303h-62v303zM303 759h-58l107 119h84z" />
    <glyph glyph-name="yacute" unicode="&#xfd;" horiz-adv-x="488" 
d="M98 -194l120 256l-205 415h68l169 -353l158 353h64l-309 -671h-65zM246 537h-49l89 139h78z" />
    <glyph glyph-name="Thorn" unicode="&#xde;" horiz-adv-x="572" 
d="M157 156v-156h-63v709h63v-146h168q49 0 89 -15.5t69 -42.5t45 -64.5t16 -81.5t-16 -81.5t-44.5 -64.5t-69 -42t-88.5 -15h-169zM318 213q75 0 118.5 40t43.5 106q0 33 -11.5 60t-32.5 46.5t-51 30t-67 10.5h-161v-293h161z" />
    <glyph glyph-name="thorn" unicode="&#xfe;" horiz-adv-x="575" 
d="M471 239q0 42 -11.5 78t-33.5 62t-52.5 41t-67.5 15t-67.5 -15t-52 -41.5t-33 -62t-11.5 -77.5t11.5 -78.5t33 -63t52 -41.5t67.5 -15t67.5 15t52.5 42t33.5 63t11.5 78zM84 -190v912h60v-338q9 18 23.5 36.5t36 33.5t49.5 24.5t63 9.5q51 0 91 -19t67.5 -52.5t42.5 -79
t15 -98.5t-15 -99t-43.5 -80t-69 -53t-90.5 -19q-35 0 -62.5 9t-48.5 24t-36 33t-24 36v-280h-59z" />
    <glyph glyph-name="Zcaron" unicode="&#x17d;" horiz-adv-x="620" 
d="M46 0v65l466 586h-460v58h534v-63l-467 -587h470v-59h-543zM226 878l97 -84l98 84h59l-116 -119h-82l-115 119h59z" />
    <glyph glyph-name="zcaron" unicode="&#x17e;" horiz-adv-x="447" 
d="M34 0v53l301 369h-298v55h371v-53l-300 -370h305v-54h-379zM125 676l91 -100l91 100h55l-109 -138h-74l-109 138h55z" />
    <glyph glyph-name="onehalf" unicode="&#xbd;" horiz-adv-x="801" 
d="M150 347v277q-2 -3 -12.5 -8t-24 -9.5t-27 -7.5t-22.5 -4v40q37 5 60 26.5t28 48.5h49v-363h-51zM92 0l489 709h58l-488 -709h-59zM479 232q-1 5 -1.5 12t-0.5 12q0 47 34 80t94 33q29 0 52 -8.5t39.5 -23.5t25 -35t8.5 -42q0 -35 -20 -62t-52 -47l-74 -45
q-18 -11 -30.5 -26.5t-15.5 -35.5h196v-43h-258v4q0 40 18 74.5t60 60.5l69 43q25 15 40.5 34.5t15.5 43.5q0 26 -19.5 46t-54.5 20t-57 -20.5t-22 -55.5q0 -3 0.5 -9.5t2.5 -12.5z" />
    <glyph glyph-name="onequarter" unicode="&#xbc;" horiz-adv-x="787" 
d="M146 347v277q-2 -3 -12.5 -8t-24 -9.5t-27 -7.5t-22.5 -4v40q37 5 60 26.5t28 48.5h49v-363h-51zM89 0l489 709h58l-488 -709h-59zM413 133l180 230h61v-237h70v-44h-70v-81h-51v81h-190v51zM603 306l-140 -180h140v180z" />
    <glyph glyph-name="onesuperior" unicode="&#xb9;" horiz-adv-x="264" 
d="M146 347v277q-2 -3 -12.5 -8t-24 -9.5t-27 -7.5t-22.5 -4v40q37 5 60 26.5t28 48.5h49v-363h-51z" />
    <glyph glyph-name="threequarters" unicode="&#xbe;" horiz-adv-x="867" 
d="M154 560l115 105h-195v44h261v-42l-116 -105q2 1 9 1q22 0 43 -7t37 -20.5t25.5 -33t9.5 -46.5q0 -24 -10 -45.5t-28 -37t-43.5 -25t-56.5 -9.5q-61 0 -98.5 31t-43.5 75l46 17q3 -37 31 -58t64 -21q38 0 62.5 20.5t24.5 52.5q0 36 -24.5 53.5t-58.5 17.5q-17 0 -32 -5z
M169 0l489 709h58l-488 -709h-59zM492 133l180 230h61v-237h70v-44h-70v-81h-51v81h-190v51zM682 306l-140 -180h140v180z" />
    <glyph glyph-name="threesuperior" unicode="&#xb3;" horiz-adv-x="409" 
d="M154 560l115 105h-195v44h261v-42l-116 -105q2 1 9 1q22 0 43 -7t37 -20.5t25.5 -33t9.5 -46.5q0 -24 -10 -45.5t-28 -37t-43.5 -25t-56.5 -9.5q-61 0 -98.5 31t-43.5 75l46 17q3 -37 31 -58t64 -21q38 0 62.5 20.5t24.5 52.5q0 36 -24.5 53.5t-58.5 17.5q-17 0 -32 -5z
" />
    <glyph glyph-name="twosuperior" unicode="&#xb2;" horiz-adv-x="392" 
d="M70 578q-1 5 -1.5 12t-0.5 12q0 47 34 80t94 33q29 0 52 -8.5t39.5 -23.5t25 -35t8.5 -42q0 -35 -20 -62t-52 -47l-74 -45q-18 -11 -30.5 -26.5t-15.5 -35.5h196v-43h-258v4q0 40 18 74.5t60 60.5l69 43q25 15 40.5 34.5t15.5 43.5q0 26 -19.5 46t-54.5 20t-57 -20.5
t-22 -55.5q0 -3 0.5 -9.5t2.5 -12.5z" />
    <glyph glyph-name="brokenbar" unicode="&#xa6;" horiz-adv-x="246" 
d="M149 777v-399h-53v399h53zM149 259v-400h-53v400h53z" />
    <glyph glyph-name="minus" unicode="&#x2212;" horiz-adv-x="544" 
d="M61 303v50h422v-50h-422z" />
    <glyph glyph-name="multiply" unicode="&#xd7;" horiz-adv-x="521" 
d="M259 291l-177 -185l-36 36l178 185l-177 185l36 37l177 -185l178 185l36 -36l-179 -186l180 -185l-36 -37z" />
    <glyph glyph-name="Lslash" unicode="&#x141;" horiz-adv-x="563" 
d="M107 0v303l-99 -44v56l99 44v350h64v-322l162 72v-56l-162 -72v-272h357v-59h-421z" />
    <glyph glyph-name="exclam" unicode="!" horiz-adv-x="292" 
d="M169 189h-41l-18 520h76zM96 45q0 21 14.5 35.5t35.5 14.5q20 0 35 -14.5t15 -35.5q0 -20 -15 -34.5t-35 -14.5q-21 0 -35.5 14.5t-14.5 34.5z" />
    <glyph glyph-name="quotedbl" unicode="&#x22;" horiz-adv-x="293" 
d="M170 673q0 20 12.5 32.5t30.5 12.5q19 0 31 -12.5t12 -32.5q0 -6 -1 -15.5t-3 -16.5l-28 -152h-22l-28 151q-2 8 -3 18t-1 15zM37 673q0 20 12.5 32.5t30.5 12.5q19 0 31 -12.5t12 -32.5q0 -6 -1 -15.5t-3 -16.5l-28 -152h-22l-28 151q-2 8 -3 18t-1 15z" />
    <glyph glyph-name="numbersign" unicode="#" horiz-adv-x="768" 
d="M272 258h177l39 194h-178zM106 502h159l42 207h55l-42 -207h177l43 207h55l-42 -207h159v-50h-170l-38 -194h158v-50h-169l-41 -208h-56l42 208h-178l-41 -208h-55l42 208h-150v50h160l39 194h-149v50z" />
    <glyph glyph-name="dollar" unicode="$" horiz-adv-x="609" 
d="M147 525q0 -97 112 -124l27 -7v265q-28 -3 -53.5 -14t-44.5 -28.5t-30 -41t-11 -50.5zM483 184q0 48 -31 82.5t-92 48.5l-22 5v-271q72 7 108.5 45t36.5 90zM286 -109v104q-52 4 -92.5 22.5t-69 47t-45 64t-20.5 74.5l58 19q3 -32 15.5 -61t33.5 -52.5t51 -39.5t69 -20
v283l-42 10q-71 15 -114.5 59.5t-43.5 119.5q0 38 15.5 71.5t42.5 59t63.5 41.5t78.5 19v105h52v-105q45 -4 79.5 -19.5t58.5 -38.5t39 -52t22 -59l-55 -21q-5 24 -16.5 46.5t-29.5 40.5t-42.5 31t-55.5 18v-276l32 -7q80 -19 127.5 -66t47.5 -121q0 -38 -14.5 -71.5
t-41.5 -59.5t-65 -42.5t-86 -19.5v-104h-52z" />
    <glyph glyph-name="percent" unicode="%" horiz-adv-x="851" 
d="M63 559q0 33 12.5 61.5t33.5 50t49.5 33.5t61.5 12t61.5 -12t50 -33.5t34 -50t12.5 -61.5t-12.5 -62t-34 -50t-50 -33.5t-61.5 -12.5t-61.5 12t-49.5 33.5t-33.5 50.5t-12.5 62zM215 0h-60l489 709h59zM117 559q0 -46 29.5 -76.5t73.5 -30.5q45 0 74 30.5t29 76.5
q0 22 -8 42t-21.5 34t-32.5 22.5t-41 8.5t-40.5 -8.5t-32.5 -22.5t-22 -34t-8 -42zM479 150q0 33 12.5 62t33.5 50.5t49.5 33.5t60.5 12q33 0 62 -12t50 -33.5t33.5 -50.5t12.5 -62t-12.5 -61.5t-33.5 -50t-50 -33.5t-62 -12q-32 0 -60.5 12t-49.5 33.5t-33.5 50t-12.5 61.5
zM533 150q0 -23 8 -42.5t21.5 -33.5t32 -22.5t40.5 -8.5t41 8.5t33 22.5t22 33.5t8 42.5t-8 42.5t-22 34t-33 23t-41 8.5q-44 0 -73 -31t-29 -77z" />
    <glyph glyph-name="ampersand" unicode="&#x26;" horiz-adv-x="670" 
d="M174 559q0 -32 17 -60t40 -53l36 -37l60 44q67 47 67 109q0 21 -8 40.5t-22.5 34t-34.5 23t-44 8.5t-44 -8.5t-35 -23t-23.5 -34.5t-8.5 -43zM271 46q48 0 87.5 29.5t74.5 71.5l2 3l-177 182l-35 -25q-35 -26 -59 -59t-24 -79q0 -24 9 -46.5t25.5 -39.5t41 -27t55.5 -10z
M475 108q-48 -57 -96.5 -88.5t-109.5 -31.5q-47 0 -82.5 15t-60.5 39.5t-37.5 56t-12.5 65.5q0 65 35 110.5t89 84.5l19 15l-31 31q-13 14 -26 30.5t-24 35t-18 40t-7 44.5q0 37 14 67.5t37 52.5t54 34.5t66 12.5q37 0 69 -12t54.5 -33.5t35.5 -51t13 -65.5
q0 -26 -8.5 -47.5t-22 -40.5t-31 -35t-35.5 -30l-52 -39l167 -173l146 174v-84l-107 -130l151 -156h-84z" />
    <glyph glyph-name="quotesingle" unicode="'" horiz-adv-x="160" 
d="M37 673q0 20 12.5 32.5t30.5 12.5q19 0 31 -12.5t12 -32.5q0 -6 -1 -15.5t-3 -16.5l-28 -152h-22l-28 151q-2 8 -3 18t-1 15z" />
    <glyph glyph-name="parenleft" unicode="(" horiz-adv-x="283" 
d="M61 317q0 80 14 148t39 126t59 107t73 91l36 -32q-38 -43 -69 -90.5t-52.5 -101.5t-33.5 -116t-12 -132q0 -141 45.5 -248t121.5 -192l-36 -32q-39 41 -73 89.5t-59 107t-39 127t-14 148.5z" />
    <glyph glyph-name="parenright" unicode=")" horiz-adv-x="286" 
d="M224 317q0 -80 -14 -148.5t-38.5 -127t-58.5 -107t-73 -89.5l-37 32q76 85 122 192t46 248q0 70 -12 132t-34 116t-53 101.5t-69 90.5l37 32q39 -42 73 -91t58.5 -107t38.5 -126t14 -148z" />
    <glyph glyph-name="asterisk" unicode="*" horiz-adv-x="434" 
d="M242 562l139 48l15 -46l-140 -48l91 -123l-39 -30l-92 126l-88 -125l-39 30l88 122l-139 47l16 47l137 -49v148h51v-147z" />
    <glyph glyph-name="plus" unicode="+" horiz-adv-x="564" 
d="M255 353v207h52v-207h195v-50h-195v-210h-52v210h-194v50h194z" />
    <glyph glyph-name="comma" unicode="," horiz-adv-x="264" 
d="M76 48q0 20 15.5 35t38.5 15t41 -18t18 -53q0 -38 -10.5 -67.5t-27 -51.5t-38 -36t-43.5 -19v37q34 11 54 43.5t21 67.5q-5 -5 -19 -5q-21 0 -35.5 14.5t-14.5 37.5z" />
    <glyph glyph-name="hyphen" unicode="-" horiz-adv-x="365" 
d="M51 260v54h263v-54h-263z" />
    <glyph glyph-name="period" unicode="." horiz-adv-x="258" 
d="M76 48q0 22 15 37.5t37 15.5q23 0 38 -15.5t15 -37.5t-15 -37t-38 -15q-22 0 -37 15t-15 37z" />
    <glyph glyph-name="slash" unicode="/" horiz-adv-x="421" 
d="M69 0h-60l343 709h59z" />
    <glyph glyph-name="zero" unicode="0" horiz-adv-x="628" 
d="M53 354q0 67 12 132t43 118t81 85.5t125 32.5t125 -32.5t81 -85.5q30 -53 42.5 -118t12.5 -132q0 -66 -12.5 -131t-42.5 -118q-31 -54 -81 -86t-125 -32t-125 32.5t-81 85.5t-43 118t-12 131zM114 354q0 -71 13 -130t41 -101q23 -37 58.5 -59t87.5 -22q51 0 87 22t59 59
q28 42 40.5 101t12.5 130q0 72 -12.5 130.5t-40.5 100.5q-23 37 -58.5 59.5t-87.5 22.5q-53 0 -88.5 -22.5t-58.5 -59.5q-28 -42 -40.5 -100.5t-12.5 -130.5z" />
    <glyph glyph-name="one" unicode="1" horiz-adv-x="362" 
d="M205 0v585q-5 -11 -24.5 -23t-46 -22.5t-55 -18t-52.5 -8.5v48q36 3 66.5 16t53.5 32.5t38 45t22 54.5h58v-709h-60z" />
    <glyph glyph-name="two" unicode="2" horiz-adv-x="551" 
d="M52 468q-1 5 -1.5 17t-0.5 16q0 45 15.5 85t44.5 70.5t72 48t97 17.5q53 0 94 -16t69.5 -44t43.5 -65.5t15 -79.5q0 -70 -38 -122.5t-95 -90.5l-146 -97q-37 -25 -66 -62.5t-35 -86.5h388v-58h-462q2 72 35.5 137t110.5 117l132 89q55 37 84.5 79t29.5 94
q0 30 -10.5 57.5t-30.5 48.5t-49.5 33.5t-68.5 12.5q-80 0 -124 -48.5t-44 -126.5q0 -8 0.5 -16t1.5 -17z" />
    <glyph glyph-name="three" unicode="3" horiz-adv-x="568" 
d="M283 -13q-56 0 -100.5 17t-76 47t-49.5 70t-21 86l60 14q2 -41 17.5 -74.5t40.5 -56.5t58 -35.5t71 -12.5q40 0 73 12.5t57 34.5t37 52t13 65q0 39 -13 69.5t-36 51.5t-55 32t-69 11q-36 0 -67 -11l-30 52l237 241h-376v57h454v-59l-229 -233q7 2 15.5 3t13.5 1
q42 0 81 -13.5t69.5 -40.5t48.5 -67t18 -93q0 -45 -17.5 -85t-49 -70t-76.5 -47.5t-99 -17.5z" />
    <glyph glyph-name="four" unicode="4" horiz-adv-x="589" 
d="M37 247l320 462h89v-478h126v-56h-126v-175h-60v175h-349v72zM386 653l-291 -422h291v422z" />
    <glyph glyph-name="five" unicode="5" horiz-adv-x="573" 
d="M288 -13q-51 0 -94 16t-74.5 44t-50.5 65.5t-23 79.5l59 18q3 -36 17.5 -67t38.5 -53.5t56 -35t71 -12.5q40 0 73.5 13.5t57.5 37.5t37 56.5t13 70.5q0 42 -13.5 75.5t-37.5 56.5t-57 35.5t-72 12.5q-48 0 -88.5 -19t-68.5 -54q-6 2 -14 5t-17 7t-17.5 7t-13.5 5l80 358
h355v-57h-312l-57 -264q29 35 74 51t90 16q52 0 94.5 -16.5t73 -47t47.5 -73.5t17 -96q0 -49 -17.5 -92t-49.5 -74.5t-77 -50t-100 -18.5z" />
    <glyph glyph-name="six" unicode="6" horiz-adv-x="599" 
d="M528 629q-22 14 -56 25.5t-80 11.5q-71 0 -122.5 -27t-85.5 -73.5t-51 -107.5t-18 -130v-13q7 27 24 53.5t44 48t63.5 34.5t82.5 13q49 0 91.5 -16.5t73.5 -48t49 -76t18 -100.5q0 -54 -20 -97.5t-54 -74t-78.5 -47.5t-92.5 -17q-54 0 -102 20.5t-83.5 61t-56.5 102
t-21 142.5q0 104 27.5 181t74.5 127.5t109 75.5t131 25q50 0 88.5 -12.5t64.5 -29.5zM133 224q0 -41 15 -75t40.5 -58t58.5 -37t69 -13q37 0 70.5 13t58.5 37t39.5 58t14.5 75q0 43 -14 77t-39 58t-58 37t-70 13q-38 0 -71.5 -13.5t-59 -38.5t-40 -59t-14.5 -74z" />
    <glyph glyph-name="seven" unicode="7" horiz-adv-x="516" 
d="M508 646q-51 -47 -102 -107t-94.5 -139t-75.5 -178t-45 -222h-63q12 134 49.5 240t84 186t95.5 136t85 90h-433v57h499v-63z" />
    <glyph glyph-name="eight" unicode="8" horiz-adv-x="578" 
d="M289 -13q-57 0 -101.5 15.5t-74.5 42t-46 62t-16 76.5q0 67 41.5 115t106.5 65q-29 7 -53 23t-41.5 38t-27.5 49.5t-10 59.5q0 40 16.5 75t45.5 60t70 39.5t90 14.5t90.5 -14.5t70.5 -39.5t45.5 -60t16.5 -75q0 -31 -10 -58.5t-27.5 -50t-42 -38.5t-53.5 -23
q66 -17 107.5 -65t41.5 -115q0 -41 -16 -76.5t-46.5 -62t-75 -42t-101.5 -15.5zM289 389q36 0 65.5 10.5t51 29t33.5 44.5t12 57q0 30 -11 55.5t-32 44.5t-51 29.5t-68 10.5t-67.5 -10.5t-50.5 -29.5t-32 -44.5t-11 -55.5q0 -63 44.5 -101.5t116.5 -39.5zM289 41
q42 0 75 11.5t55.5 31.5t34.5 46.5t12 57.5t-11.5 58t-34 47t-55.5 31.5t-76 11.5t-75.5 -11.5t-55 -31.5t-34 -47t-11.5 -58t11.5 -57.5t34 -46.5t55.5 -31.5t75 -11.5z" />
    <glyph glyph-name="nine" unicode="9" horiz-adv-x="597" 
d="M465 489q-1 41 -15.5 74t-39 56t-57 35.5t-68.5 12.5t-68 -13t-56.5 -36.5t-38.5 -56.5t-14 -74q0 -43 14 -76.5t38 -57t56.5 -35.5t70.5 -12q37 0 69.5 12.5t56.5 36.5t38 58t14 76zM242 43q122 0 180.5 82.5t59.5 228.5v14t-1 20q-17 -59 -69 -97.5t-131 -38.5
q-46 0 -88.5 15.5t-75 45t-52 72.5t-19.5 99q0 53 19 97t51 75t75.5 48.5t93.5 17.5q57 0 104.5 -21.5t82 -63.5t54 -105t19.5 -146q0 -200 -76.5 -299.5t-224.5 -99.5q-26 0 -53 5t-51.5 14t-45.5 21.5t-34 27.5l29 47q25 -26 66.5 -42.5t86.5 -16.5z" />
    <glyph glyph-name="colon" unicode=":" horiz-adv-x="262" 
d="M78 428q0 23 15 38t37 15q23 0 38 -15t15 -38q0 -22 -15 -37t-38 -15q-22 0 -37 15t-15 37zM79 48q0 22 15 37.5t37 15.5t37.5 -15.5t15.5 -37.5t-15.5 -37t-37.5 -15t-37 15t-15 37z" />
    <glyph glyph-name="semicolon" unicode=";" horiz-adv-x="265" 
d="M75 428q0 22 15 37.5t37 15.5q23 0 38 -15.5t15 -37.5t-15 -37t-38 -15q-22 0 -37 15t-15 37zM78 47q0 20 15 34.5t38 14.5t40.5 -17t17.5 -52q0 -37 -10 -66.5t-26.5 -51t-37.5 -35t-43 -18.5v36q33 11 52.5 43t20.5 66q-5 -5 -18 -5q-21 0 -35 14t-14 37z" />
    <glyph glyph-name="less" unicode="&#x3c;" horiz-adv-x="530" 
d="M64 354l402 207v-59l-344 -174l344 -175v-60l-402 207v54z" />
    <glyph glyph-name="equal" unicode="=" horiz-adv-x="589" 
d="M71 400v49h447v-49h-447zM71 206v50h447v-50h-447z" />
    <glyph glyph-name="greater" unicode="&#x3e;" horiz-adv-x="485" 
d="M443 300l-402 -207v60l345 175l-345 174v59l402 -207v-54z" />
    <glyph glyph-name="question" unicode="?" horiz-adv-x="495" 
d="M209 189q-2 8 -2.5 17.5t-0.5 20.5q0 47 16.5 82.5t55.5 64.5l44 34q32 24 50.5 55t18.5 68q0 27 -9 51t-27 43t-44.5 30t-60.5 11q-38 0 -66 -12.5t-46 -33t-27 -47t-9 -54.5q0 -25 8 -54l-61 9q-8 23 -8 51q0 35 12.5 70.5t38.5 63.5t65 45.5t93 17.5q48 0 86 -16
t64.5 -42.5t40 -61t13.5 -70.5q0 -55 -27.5 -97t-72.5 -75l-45 -33q-27 -21 -37 -49t-10 -57q0 -9 0.5 -17t1.5 -15h-55zM187 45q0 21 14.5 35.5t34.5 14.5q21 0 36 -14.5t15 -35.5q0 -20 -15 -34.5t-36 -14.5q-20 0 -34.5 14.5t-14.5 34.5z" />
    <glyph glyph-name="at" unicode="@" horiz-adv-x="825" 
d="M599 145q-42 0 -66.5 21.5t-27.5 56.5q-20 -37 -53.5 -58t-71.5 -21q-31 0 -58 12t-46.5 34t-30.5 52.5t-11 68.5q0 45 14.5 86t40.5 71.5t61 49t76 18.5q38 0 70.5 -21t40.5 -60l12 69h51l-50 -250q-3 -15 -3 -28q0 -23 12 -39.5t43 -16.5q24 0 47.5 16t41.5 43.5
t29.5 65.5t11.5 82q0 54 -20.5 104t-59 89t-94.5 62t-127 23q-69 0 -128.5 -25.5t-104 -71t-69.5 -108.5t-25 -137q0 -70 23 -130.5t66.5 -104.5t105.5 -69.5t140 -25.5q66 0 126.5 23t108.5 68l27 -34q-24 -24 -54 -43.5t-64.5 -33t-71 -20.5t-72.5 -7q-86 0 -157.5 28
t-122.5 78t-79.5 119.5t-28.5 152.5q0 84 30 155t82 122.5t120.5 81t146.5 29.5q80 0 145 -26.5t111.5 -71.5t71.5 -103.5t25 -122.5q0 -56 -15.5 -102t-41.5 -80t-59 -52.5t-68 -18.5zM519 383q0 47 -24.5 76t-71.5 29q-28 0 -53 -14t-43.5 -37t-29 -54t-10.5 -65
q0 -25 6 -48t18 -40t30.5 -27.5t44.5 -10.5q33 0 57.5 16.5t41 43t25 61t9.5 70.5z" />
    <glyph glyph-name="A" unicode="A" horiz-adv-x="689" 
d="M197 277h293l-147 369zM513 219h-339l-87 -219h-68l287 709h76l287 -709h-68z" />
    <glyph glyph-name="B" unicode="B" horiz-adv-x="585" 
d="M298 709q51 0 91 -14t67.5 -38.5t42 -59.5t14.5 -77q0 -57 -30 -98t-78 -58q29 -7 53 -23.5t41.5 -39.5t27 -51t9.5 -59q0 -42 -16 -77t-44.5 -60.5t-68.5 -39.5t-89 -14h-224v709h204zM314 386q29 0 54 9.5t43 27t28 41t10 52.5q0 63 -41 100t-116 37h-135v-267h157z
M312 56q73 0 116.5 37.5t43.5 101.5q0 30 -10.5 55t-30 43t-46.5 28t-60 10h-168v-275h155z" />
    <glyph glyph-name="C" unicode="C" horiz-adv-x="742" 
d="M393 -13q-66 0 -128.5 24t-111 70.5t-78 115t-29.5 157.5t29.5 157.5t78.5 115.5t111.5 71t127.5 24q60 0 110.5 -16.5t89.5 -46t66 -71t39 -92.5l-57 -20q-21 88 -86 138t-162 50q-54 0 -105 -20t-90.5 -59t-63.5 -97t-24 -134t24 -133.5t63.5 -96.5t90.5 -59t105 -20
q50 0 91.5 14t74 39.5t54.5 60.5t33 77l55 -20q-13 -50 -40 -92t-66.5 -72.5t-90.5 -47.5t-111 -17z" />
    <glyph glyph-name="D" unicode="D" horiz-adv-x="697" 
d="M94 0v709h221q67 0 128.5 -23t107.5 -68t73.5 -111.5t27.5 -153.5t-27.5 -153t-74.5 -110.5t-108.5 -67t-128.5 -22.5h-219zM311 56q55 0 105 18.5t88 55.5t60.5 93t22.5 130q0 75 -22 131t-59.5 93.5t-87.5 56.5t-105 19h-156v-597h154z" />
    <glyph glyph-name="E" unicode="E" horiz-adv-x="569" 
d="M94 0v709h418v-58h-355v-267h324v-58h-324v-268h355v-58h-418z" />
    <glyph glyph-name="F" unicode="F" horiz-adv-x="560" 
d="M94 0v709h419v-58h-356v-275h325v-58h-325v-318h-63z" />
    <glyph glyph-name="G" unicode="G" horiz-adv-x="762" 
d="M643 0l-6 137q-10 -23 -30 -49t-51 -48.5t-74.5 -37.5t-101.5 -15q-62 0 -122 24t-107 70.5t-76 115t-29 158.5q0 89 29 157.5t77 115t110 70.5t127 24q57 0 106.5 -15.5t89 -43.5t68.5 -67t44 -87l-57 -24q-26 83 -91.5 131t-159.5 48q-54 0 -104 -19.5t-89 -58.5
t-62.5 -97t-23.5 -134q0 -77 23.5 -135t62 -97t87.5 -59t99 -20q70 0 117.5 23.5t77 58.5t42.5 75t14 74h-262v58h322v-333h-50z" />
    <glyph glyph-name="H" unicode="H" horiz-adv-x="720" 
d="M563 0v331h-406v-331h-63v709h63v-319h406v319h63v-709h-63z" />
    <glyph glyph-name="I" unicode="I" horiz-adv-x="252" 
d="M94 0v709h64v-709h-64z" />
    <glyph glyph-name="J" unicode="J" horiz-adv-x="521" 
d="M27 253l63 15v-57q0 -79 38 -122.5t106 -43.5t104 43.5t36 119.5v501h63v-500q0 -48 -13.5 -89t-40 -70.5t-64 -46t-85.5 -16.5q-97 0 -152 59.5t-55 161.5v45z" />
    <glyph glyph-name="K" unicode="K" horiz-adv-x="645" 
d="M279 349l-122 -130v-219h-63v709h63v-406l376 406h83l-295 -315l299 -394h-80z" />
    <glyph glyph-name="L" unicode="L" horiz-adv-x="550" 
d="M94 0v709h63v-650h358v-59h-421z" />
    <glyph glyph-name="M" unicode="M" horiz-adv-x="929" 
d="M772 0v614l-278 -614h-60l-277 614v-614h-63v709h89l282 -626l282 626h88v-709h-63z" />
    <glyph glyph-name="N" unicode="N" horiz-adv-x="747" 
d="M586 0l-429 630v-630h-63v709h87l409 -605v605h63v-709h-67z" />
    <glyph glyph-name="O" unicode="O" horiz-adv-x="784" 
d="M46 354q0 89 29.5 157.5t78 115.5t111 71t127.5 24t127.5 -24t111 -71t78.5 -115.5t30 -157.5t-30 -157.5t-78.5 -115t-111 -70.5t-127.5 -24t-127.5 24t-111 70.5t-78 115t-29.5 157.5zM110 354q0 -76 23.5 -133.5t63 -96.5t90.5 -59t105 -20t105 20t90.5 59t63.5 96.5
t24 133.5t-24 134t-63.5 97t-90.5 59t-105 20t-105 -20t-90.5 -59t-63 -97t-23.5 -134z" />
    <glyph glyph-name="P" unicode="P" horiz-adv-x="574" 
d="M157 300v-300h-63v709h233q49 0 89 -15.5t68.5 -43t44 -65t15.5 -81.5t-15.5 -81.5t-44 -64.5t-68.5 -42.5t-89 -15.5h-170zM317 357q76 0 119.5 40.5t43.5 106.5t-43.5 107t-119.5 41h-160v-295h160z" />
    <glyph glyph-name="Q" unicode="Q" horiz-adv-x="784" 
d="M592 50q-44 -32 -95 -47.5t-105 -15.5q-65 0 -127.5 24t-111 70.5t-78 115t-29.5 157.5t29.5 157.5t78 115.5t111 71t127.5 24t127.5 -24t111 -71t78.5 -115.5t30 -157.5q0 -87 -28.5 -153.5t-74.5 -113.5l92 -102l-42 -38zM392 45q43 0 84 12.5t76 37.5l-141 155l44 38
l140 -156q36 39 58 94.5t22 127.5q0 76 -24 134t-63.5 97t-90.5 59t-105 20t-105 -20t-90.5 -59t-63 -97t-23.5 -134t23.5 -133.5t63 -96.5t90.5 -59t105 -20z" />
    <glyph glyph-name="R" unicode="R" horiz-adv-x="605" 
d="M331 364q71 0 114 39t43 104q0 66 -43 105.5t-114 39.5h-173v-288h173zM306 306h-148v-306h-64v709h248q48 0 86.5 -15.5t66.5 -42.5t43 -64t15 -80q0 -39 -12.5 -72.5t-36 -59t-56.5 -42.5t-73 -22l176 -311h-74z" />
    <glyph glyph-name="S" unicode="S" horiz-adv-x="575" 
d="M466 528q-6 27 -18.5 52t-33.5 44t-51 30.5t-70 11.5q-32 0 -61 -10t-51.5 -28.5t-36 -44.5t-13.5 -57q0 -48 29 -80t83 -45l108 -25q83 -20 130.5 -67.5t47.5 -122.5q0 -41 -16.5 -77t-47.5 -63t-74 -43t-97 -16q-59 0 -104 18t-77 47t-50.5 67t-22.5 79l59 19
q3 -35 17.5 -66t39.5 -55t59.5 -38t78.5 -14q41 0 73 10.5t54 29t33.5 43.5t11.5 54q0 50 -33 84.5t-94 48.5l-107 25q-36 8 -66 23.5t-51.5 38.5t-34 53t-12.5 68q0 41 18.5 77.5t49 63.5t71 43t84.5 16q54 0 94.5 -14.5t68 -38.5t44 -55.5t24.5 -65.5z" />
    <glyph glyph-name="T" unicode="T" horiz-adv-x="610" 
d="M337 651v-651h-64v651h-250v58h565v-58h-251z" />
    <glyph glyph-name="U" unicode="U" horiz-adv-x="654" 
d="M327 -13q-54 0 -98.5 16t-77 47.5t-50 78t-17.5 107.5v473h63v-470q0 -94 46 -144t134 -50t134 50t46 144v470h63v-473q0 -60 -17.5 -106.5t-49.5 -78t-77 -48t-99 -16.5z" />
    <glyph glyph-name="V" unicode="V" horiz-adv-x="643" 
d="M557 709h67l-273 -709h-63l-269 709h68l234 -633z" />
    <glyph glyph-name="W" unicode="W" horiz-adv-x="984" 
d="M898 709h65l-204 -709h-69l-198 626l-198 -626h-66l-207 709h66l176 -616l195 616h69l197 -620z" />
    <glyph glyph-name="X" unicode="X" horiz-adv-x="598" 
d="M336 356l238 -356h-75l-200 305l-202 -305h-74l240 356l-238 353h76l199 -304l200 304h75z" />
    <glyph glyph-name="Y" unicode="Y" horiz-adv-x="597" 
d="M19 709h76l206 -347l205 347h72l-248 -406v-303h-62v303z" />
    <glyph glyph-name="Z" unicode="Z" horiz-adv-x="620" 
d="M46 0v65l466 586h-460v58h534v-63l-467 -587h470v-59h-543z" />
    <glyph glyph-name="bracketleft" unicode="[" horiz-adv-x="268" 
d="M96 -141v918h154v-49h-101v-820h101v-49h-154z" />
    <glyph glyph-name="backslash" unicode="\" horiz-adv-x="421" 
d="M9 709h61l341 -709h-60z" />
    <glyph glyph-name="bracketright" unicode="]" horiz-adv-x="268" 
d="M18 -141v49h101v820h-101v49h154v-918h-154z" />
    <glyph glyph-name="asciicircum" unicode="^" horiz-adv-x="503" 
d="M408 355l-156 293l-158 -293h-63l194 354h53l193 -354h-63z" />
    <glyph glyph-name="underscore" unicode="_" horiz-adv-x="554" 
d="M21 -51v51h512v-51h-512z" />
    <glyph glyph-name="grave" unicode="`" horiz-adv-x="248" 
d="M41 676h77l89 -139h-48z" />
    <glyph glyph-name="a" unicode="a" horiz-adv-x="504" 
d="M215 39q34 0 63 11t50 31t32.5 49t11.5 65v57q-2 -2 -9 -5t-16.5 -5.5t-19.5 -5t-18 -3.5l-106 -16q-42 -6 -66 -29t-24 -62q0 -33 26 -60t76 -27zM51 123q0 61 39 95.5t105 45.5l127 19q29 5 39.5 17.5t10.5 29.5q0 48 -31 78t-89 30q-57 0 -92.5 -30t-40.5 -82l-58 13
q4 34 20 62t41 48t58 30.5t71 10.5q46 0 80.5 -13t56.5 -35.5t33 -53t11 -64.5v-242q0 -29 2 -48t4 -34h-58q-2 8 -4 30.5t-2 51.5q-9 -17 -23.5 -33.5t-35.5 -30t-47.5 -22t-59.5 -8.5q-38 0 -67 11.5t-49 30t-30.5 43t-10.5 50.5z" />
    <glyph glyph-name="b" unicode="b" horiz-adv-x="575" 
d="M84 0v722h59v-337q8 18 22.5 36.5t36 33.5t50 24.5t64.5 9.5q51 0 91 -19t68 -52.5t42.5 -79t14.5 -98.5q0 -54 -15 -100t-43.5 -79.5t-68.5 -53t-91 -19.5q-35 0 -62.5 9t-48.5 24t-36 34t-24 38v-93h-59zM471 240q0 43 -11.5 79t-33.5 62t-52.5 40.5t-67.5 14.5
t-67 -14.5t-51.5 -40.5t-33.5 -62t-12 -79t12 -79.5t33.5 -63t51.5 -41.5t67 -15t67.5 15t52 41.5t33.5 63t12 79.5z" />
    <glyph glyph-name="c" unicode="c" horiz-adv-x="522" 
d="M278 435q-36 0 -67.5 -13.5t-55 -39t-37 -62t-13.5 -82.5q0 -45 13.5 -81.5t37 -62t55 -39t67.5 -13.5q34 0 60.5 10.5t45.5 27.5t31 37.5t18 40.5l53 -22q-9 -28 -26 -54.5t-43.5 -47.5t-61 -34t-77.5 -13q-51 0 -93.5 18.5t-74 52t-49 79.5t-17.5 101t17.5 101.5t49 80
t74.5 52t93 18.5q43 0 77 -12t59.5 -33t42.5 -48t25 -57l-53 -22q-6 21 -17.5 42t-29.5 37.5t-44 27t-60 10.5z" />
    <glyph glyph-name="d" unicode="d" horiz-adv-x="574" 
d="M105 239q0 -42 11.5 -78t32.5 -63t51.5 -42t68.5 -15q37 0 67 15t51 42t32.5 63.5t11.5 78.5t-11.5 78t-32.5 62t-50.5 41t-66.5 15q-38 0 -68 -14.5t-52 -41t-33.5 -62.5t-11.5 -79zM431 94q-8 -18 -22 -37t-34.5 -34.5t-48 -25t-62.5 -9.5q-50 0 -91 19t-69.5 53
t-44 80t-15.5 99q0 52 16 98t44.5 79.5t69 53t90.5 19.5q38 0 66.5 -10t48.5 -25.5t32.5 -33.5t18.5 -33v335h60v-631q0 -38 2 -62.5t3 -28.5h-59q-2 9 -3.5 29t-1.5 46v19z" />
    <glyph glyph-name="e" unicode="e" horiz-adv-x="531" 
d="M485 135q-10 -30 -28.5 -57t-45 -47.5t-60.5 -32t-75 -11.5q-47 0 -89.5 17t-74 49.5t-50 79.5t-18.5 107q0 56 18 102t48 79t70 51t85 18q53 0 94 -18t69.5 -50t44 -76t15.5 -97q0 -6 -0.5 -11t-1.5 -11h-380v-4q0 -41 13.5 -75t36.5 -58t54 -37t66 -13q32 0 57.5 9
t45 24.5t32.5 36t21 44.5zM425 277q-1 33 -12 62t-31 50.5t-49.5 34t-66.5 12.5q-33 0 -61 -12.5t-49 -34t-33.5 -50.5t-14.5 -62h317z" />
    <glyph glyph-name="f" unicode="f" horiz-adv-x="328" 
d="M175 422v-422h-62v422h-97v55h97v99q0 77 40.5 115.5t102.5 38.5q19 0 32.5 -3t21.5 -7v-54q-7 3 -18 5.5t-27 2.5q-36 0 -63 -22.5t-27 -78.5v-96h132v-55h-132z" />
    <glyph glyph-name="g" unicode="g" horiz-adv-x="555" 
d="M267 78q35 0 64 13.5t49.5 37.5t31.5 56.5t11 71.5q0 38 -11 70.5t-31.5 56.5t-49.5 37.5t-64 13.5q-36 0 -65.5 -13.5t-50.5 -37t-32.5 -56t-11.5 -71.5t11.5 -72t32.5 -56.5t50.5 -37t65.5 -13.5zM103 -13q3 -28 15.5 -53t32.5 -43.5t46.5 -29.5t58.5 -11q47 0 78.5 15
t50.5 40t27 58.5t8 70.5v88q-8 -18 -22 -35.5t-34 -31t-46 -21.5t-59 -8q-47 0 -86 17.5t-67.5 48t-44 73t-15.5 92.5q0 49 15.5 91t43.5 73t67 48.5t87 17.5q67 0 106.5 -28.5t55.5 -66.5v85h59v-442q0 -42 -10.5 -84t-36 -76.5t-69 -56t-109.5 -21.5q-44 0 -80 13.5
t-63.5 37t-44.5 55.5t-21 70z" />
    <glyph glyph-name="h" unicode="h" horiz-adv-x="540" 
d="M144 0h-60v722h60v-320q19 36 58 61.5t95 25.5q42 0 74 -14t53 -38t31.5 -56.5t10.5 -69.5v-311h-60v301q0 28 -7.5 52.5t-23.5 42.5t-40 28.5t-58 10.5q-30 0 -54.5 -12t-42 -32.5t-27 -47.5t-9.5 -56v-287z" />
    <glyph glyph-name="i" unicode="i" horiz-adv-x="227" 
d="M64 674q0 21 14.5 36t34.5 15q21 0 35.5 -15t14.5 -36q0 -20 -14.5 -34t-35.5 -14q-20 0 -34.5 14t-14.5 34zM84 0v477h59v-477h-59z" />
    <glyph glyph-name="j" unicode="j" horiz-adv-x="228" 
d="M64 675q0 21 14.5 35.5t34.5 14.5q21 0 35.5 -14.5t14.5 -35.5q0 -20 -14.5 -34.5t-35.5 -14.5q-20 0 -34.5 14.5t-14.5 34.5zM84 477h60v-541q0 -66 -34.5 -102t-91.5 -36q-20 0 -32.5 2.5t-20.5 6.5v51q16 -6 41 -6q78 0 78 86v539z" />
    <glyph glyph-name="k" unicode="k" horiz-adv-x="500" 
d="M273 274l207 -274h-75l-174 233l-88 -87v-146h-59v722h59v-497l250 252h83z" />
    <glyph glyph-name="l" unicode="l" horiz-adv-x="228" 
d="M84 0v722h60v-722h-60z" />
    <glyph glyph-name="m" unicode="m" horiz-adv-x="846" 
d="M84 0v477h58v-79q17 37 56.5 64t95.5 27t96 -28.5t54 -79.5q22 52 64.5 80t99.5 28q35 0 65 -11.5t52.5 -34t35 -55t12.5 -73.5v-315h-60v308q0 54 -31 91t-91 37q-30 0 -54.5 -11.5t-42 -31t-27 -46t-9.5 -55.5v-292h-60v308q0 54 -30.5 91t-91.5 37q-30 0 -54.5 -11.5
t-42 -31t-27 -45.5t-9.5 -56v-292h-59z" />
    <glyph glyph-name="n" unicode="n" horiz-adv-x="540" 
d="M144 0h-60v477h58v-81q20 41 60 67t95 26q42 0 74 -14t53 -38t31.5 -56.5t10.5 -69.5v-311h-60v301q0 28 -7.5 52.5t-23.5 42.5t-40 28.5t-58 10.5q-31 0 -55.5 -12.5t-42 -33t-26.5 -47.5t-9 -57v-285z" />
    <glyph glyph-name="o" unicode="o" horiz-adv-x="557" 
d="M278 490q49 0 92 -18.5t74.5 -51.5t50 -79.5t18.5 -102.5t-18 -102t-50 -79t-75 -51.5t-92 -18.5t-91.5 18.5t-74 51.5t-50 79t-18.5 102t18 102.5t49.5 79.5t74 51.5t92.5 18.5zM278 41q35 0 66.5 13.5t55.5 38.5t38 61.5t14 83.5t-14 83.5t-38 62t-55.5 38.5t-66.5 13
t-66.5 -13t-55 -38.5t-37.5 -62t-14 -83.5t14 -83.5t37.5 -61.5t55 -38.5t66.5 -13.5z" />
    <glyph glyph-name="p" unicode="p" horiz-adv-x="575" 
d="M471 239q0 42 -11.5 78t-33.5 62t-52.5 41t-67.5 15t-67.5 -15t-52 -41.5t-33 -62t-11.5 -77.5t11.5 -78.5t33 -63t52 -41.5t67.5 -15t67.5 15t52.5 42t33.5 63t11.5 78zM84 -190v667h59v-95q9 18 23.5 37t36 34.5t49.5 25t64 9.5q51 0 91 -19t67.5 -52.5t42.5 -79
t15 -98.5t-15 -99t-43.5 -80t-69 -53t-90.5 -19q-35 0 -62.5 9t-48.5 24t-36 33t-24 36v-280h-59z" />
    <glyph glyph-name="q" unicode="q" horiz-adv-x="566" 
d="M431 -190v281q-9 -19 -23.5 -37.5t-35.5 -33t-48 -23.5t-61 -9q-50 0 -90.5 19.5t-69 53t-44 79.5t-15.5 99q0 52 15 98t43.5 79.5t68.5 53t91 19.5q36 0 64 -10t49 -25.5t35 -34.5t22 -37v95h59v-667h-60zM105 239q0 -42 11.5 -78t33 -63t52 -42t67.5 -15t67 15t51.5 42
t33 63t11.5 78t-11.5 78t-33 62.5t-51.5 41t-67 14.5q-38 0 -68 -14.5t-51.5 -41t-33 -62.5t-11.5 -78z" />
    <glyph glyph-name="r" unicode="r" horiz-adv-x="352" 
d="M327 415q-18 5 -42 5q-61 0 -101 -39.5t-40 -121.5v-259h-60v477h58v-89q23 50 61.5 72.5t86.5 22.5q24 0 37 -5v-63z" />
    <glyph glyph-name="s" unicode="s" horiz-adv-x="437" 
d="M94 146q7 -47 40 -77t91 -30q47 0 77 23.5t30 61.5q0 33 -21.5 53t-59.5 28l-80 18q-51 12 -83 43.5t-32 83.5q0 29 13 54.5t35 44.5t51 30t62 11q42 0 71.5 -12t50 -30.5t32 -41t16.5 -43.5l-53 -20q-3 17 -11 34t-22 30.5t-35 22t-49 8.5q-20 0 -38.5 -6t-32.5 -17
t-22.5 -26.5t-8.5 -34.5q0 -59 73 -76l79 -17q60 -14 92 -47.5t32 -85.5q0 -27 -11 -52t-32.5 -45t-52.5 -32t-71 -12q-44 0 -77 12.5t-55.5 32.5t-35.5 45t-17 50z" />
    <glyph glyph-name="t" unicode="t" horiz-adv-x="342" 
d="M175 477h124v-55h-124v-287q0 -86 81 -86q13 0 25.5 2.5t17.5 4.5v-52q-6 -3 -21.5 -6t-37.5 -3q-58 0 -91.5 34t-33.5 100v293h-101v55h36q70 0 70 70v81h55v-151z" />
    <glyph glyph-name="u" unicode="u" horiz-adv-x="543" 
d="M404 74q-17 -35 -55 -61t-95 -26q-45 0 -78.5 15.5t-55.5 42t-33 60.5t-11 72v300h60v-291q0 -29 7 -55t22.5 -46.5t40 -32.5t59.5 -12q32 0 57 11.5t42.5 31t26.5 46t9 56.5v292h60v-386q0 -27 2 -51t4 -40h-57q-2 8 -3.5 26t-1.5 41v7v0z" />
    <glyph glyph-name="v" unicode="v" horiz-adv-x="474" 
d="M269 0h-63l-190 477h68l154 -409l155 409h64z" />
    <glyph glyph-name="w" unicode="w" horiz-adv-x="768" 
d="M418 477l142 -403l127 403h63l-158 -477h-64l-144 404l-142 -404h-65l-159 477h66l128 -403l142 403h64z" />
    <glyph glyph-name="x" unicode="x" horiz-adv-x="463" 
d="M196 243l-175 234h72l140 -191l139 191h70l-173 -234l181 -243h-72l-147 200l-146 -200h-72z" />
    <glyph glyph-name="y" unicode="y" horiz-adv-x="488" 
d="M98 -194l120 256l-205 415h68l169 -353l158 353h64l-309 -671h-65z" />
    <glyph glyph-name="z" unicode="z" horiz-adv-x="447" 
d="M34 0v53l301 369h-298v55h371v-53l-300 -370h305v-54h-379z" />
    <glyph glyph-name="braceleft" unicode="{" horiz-adv-x="330" 
d="M51 347q45 3 75 29t30 77v160q0 158 147 158h9v-49h-9q-54 0 -74 -26t-20 -80v-175q0 -49 -28 -82t-77 -41q50 -8 77.5 -41t27.5 -82v-175q0 -54 20 -80t74 -26h9v-48h-9q-147 0 -147 158v159q0 51 -30 77t-75 29v58z" />
    <glyph glyph-name="bar" unicode="|" horiz-adv-x="246" 
d="M96 -141v918h53v-918h-53z" />
    <glyph glyph-name="braceright" unicode="}" horiz-adv-x="330" 
d="M278 289q-45 -3 -74.5 -29t-29.5 -77v-159q0 -158 -147 -158h-9v48h9q54 0 74 26t20 80v175q0 49 27.5 82t77.5 41q-49 8 -77 41t-28 82v175q0 54 -20 80t-74 26h-9v49h9q147 0 147 -158v-160q0 -51 29.5 -77t74.5 -29v-58z" />
    <glyph glyph-name="asciitilde" unicode="~" horiz-adv-x="557" 
d="M241 318q-36 19 -65 19q-31 0 -54.5 -14.5t-43.5 -41.5l-37 29q52 80 135 80q42 0 91 -26l46 -25q17 -9 35.5 -14.5t33.5 -5.5q32 0 55.5 13.5t41.5 41.5l37 -30q-51 -78 -134 -78q-43 0 -94 28z" />
    <glyph glyph-name="Adieresis" unicode="&#xc4;" horiz-adv-x="689" 
d="M420 819q0 18 12.5 30.5t29.5 12.5q19 0 31.5 -12.5t12.5 -30.5t-12.5 -30.5t-31.5 -12.5q-17 0 -29.5 12.5t-12.5 30.5zM182 819q0 18 12.5 30.5t29.5 12.5q18 0 31 -12.5t13 -30.5t-13 -30.5t-31 -12.5q-17 0 -29.5 12.5t-12.5 30.5zM197 277h293l-147 369zM513 219
h-339l-87 -219h-68l287 709h76l287 -709h-68z" />
    <glyph glyph-name="Aring" unicode="&#xc5;" horiz-adv-x="689" 
d="M400 768q0 26 -16.5 43t-41.5 17q-24 0 -40.5 -17t-16.5 -43t16.5 -42.5t40.5 -16.5q25 0 41.5 16.5t16.5 42.5zM197 277h293l-147 369zM448 768q0 -29 -15.5 -53t-38.5 -37l275 -678h-68l-88 219h-339l-87 -219h-68l275 677q-25 13 -40.5 37t-15.5 54q0 22 8.5 41
t22.5 33.5t33.5 22.5t40.5 8t40.5 -8t33.5 -22.5t22.5 -33.5t8.5 -41z" />
    <glyph glyph-name="Ccedilla" unicode="&#xc7;" horiz-adv-x="742" 
d="M343 -66l34 53q-64 3 -123.5 28.5t-105.5 72t-74 113.5t-28 153q0 89 29.5 157.5t78.5 115.5t111.5 71t127.5 24q60 0 110.5 -16.5t89.5 -46t66 -71t39 -92.5l-57 -20q-21 88 -86 138t-162 50q-54 0 -105 -20t-90.5 -59t-63.5 -97t-24 -134t24 -133.5t63.5 -96.5
t90.5 -59t105 -20q49 0 90.5 14t74 39.5t55 60.5t33.5 77l55 -20q-12 -47 -36.5 -86.5t-60 -69.5t-81 -49t-98.5 -23l-30 -45q8 5 21 5q42 0 67 -20.5t25 -55.5t-27.5 -58.5t-81.5 -23.5q-35 0 -63.5 14t-43.5 33l27 32q11 -14 31 -26.5t49 -12.5q28 0 44.5 11t16.5 31
q0 19 -14 30t-43 11q-8 0 -18 -1.5t-18 -6.5z" />
    <glyph glyph-name="Eacute" unicode="&#xc9;" horiz-adv-x="569" 
d="M94 0v709h418v-58h-355v-267h324v-58h-324v-268h355v-58h-418zM309 759h-58l107 119h84z" />
    <glyph glyph-name="Ntilde" unicode="&#xd1;" horiz-adv-x="747" 
d="M586 0l-429 630v-630h-63v709h87l409 -605v605h63v-709h-67zM528 861q0 -48 -24.5 -73.5t-59.5 -25.5q-21 0 -37.5 6.5t-30.5 17.5l-19 15q-13 11 -23.5 16t-24.5 5q-42 0 -42 -56h-46v12q0 46 24.5 71.5t60.5 25.5q21 0 38.5 -8t32.5 -19l19 -14q12 -8 22 -13.5t24 -5.5
q18 0 29.5 13.5t11.5 40.5v3h45v-11z" />
    <glyph glyph-name="Odieresis" unicode="&#xd6;" horiz-adv-x="784" 
d="M495 819q0 18 12.5 30.5t29.5 12.5q19 0 31.5 -12.5t12.5 -30.5t-12.5 -30.5t-31.5 -12.5q-17 0 -29.5 12.5t-12.5 30.5zM203 819q0 18 12.5 30.5t30.5 12.5t30.5 -12.5t12.5 -30.5t-12.5 -30.5t-30.5 -12.5t-30.5 12.5t-12.5 30.5zM46 354q0 89 29.5 157.5t78 115.5
t111 71t127.5 24t127.5 -24t111 -71t78.5 -115.5t30 -157.5t-30 -157.5t-78.5 -115t-111 -70.5t-127.5 -24t-127.5 24t-111 70.5t-78 115t-29.5 157.5zM110 354q0 -76 23.5 -133.5t63 -96.5t90.5 -59t105 -20t105 20t90.5 59t63.5 96.5t24 133.5t-24 134t-63.5 97t-90.5 59
t-105 20t-105 -20t-90.5 -59t-63 -97t-23.5 -134z" />
    <glyph glyph-name="Udieresis" unicode="&#xdc;" horiz-adv-x="654" 
d="M385 819q0 18 12.5 30.5t30.5 12.5t30.5 -12.5t12.5 -30.5t-12.5 -30.5t-30.5 -12.5t-30.5 12.5t-12.5 30.5zM186 819q0 18 12.5 30.5t30.5 12.5t30.5 -12.5t12.5 -30.5t-12.5 -30.5t-30.5 -12.5t-30.5 12.5t-12.5 30.5zM327 -13q-54 0 -98.5 16t-77 47.5t-50 78
t-17.5 107.5v473h63v-470q0 -94 46 -144t134 -50t134 50t46 144v470h63v-473q0 -60 -17.5 -106.5t-49.5 -78t-77 -48t-99 -16.5z" />
    <glyph glyph-name="aacute" unicode="&#xe1;" horiz-adv-x="504" 
d="M215 39q34 0 63 11t50 31t32.5 49t11.5 65v57q-2 -2 -9 -5t-16.5 -5.5t-19.5 -5t-18 -3.5l-106 -16q-42 -6 -66 -29t-24 -62q0 -33 26 -60t76 -27zM51 123q0 61 39 95.5t105 45.5l127 19q29 5 39.5 17.5t10.5 29.5q0 48 -31 78t-89 30q-57 0 -92.5 -30t-40.5 -82l-58 13
q4 34 20 62t41 48t58 30.5t71 10.5q46 0 80.5 -13t56.5 -35.5t33 -53t11 -64.5v-242q0 -29 2 -48t4 -34h-58q-2 8 -4 30.5t-2 51.5q-9 -17 -23.5 -33.5t-35.5 -30t-47.5 -22t-59.5 -8.5q-38 0 -67 11.5t-49 30t-30.5 43t-10.5 50.5zM271 537h-49l89 139h78z" />
    <glyph glyph-name="agrave" unicode="&#xe0;" horiz-adv-x="504" 
d="M215 39q34 0 63 11t50 31t32.5 49t11.5 65v57q-2 -2 -9 -5t-16.5 -5.5t-19.5 -5t-18 -3.5l-106 -16q-42 -6 -66 -29t-24 -62q0 -33 26 -60t76 -27zM51 123q0 61 39 95.5t105 45.5l127 19q29 5 39.5 17.5t10.5 29.5q0 48 -31 78t-89 30q-57 0 -92.5 -30t-40.5 -82l-58 13
q4 34 20 62t41 48t58 30.5t71 10.5q46 0 80.5 -13t56.5 -35.5t33 -53t11 -64.5v-242q0 -29 2 -48t4 -34h-58q-2 8 -4 30.5t-2 51.5q-9 -17 -23.5 -33.5t-35.5 -30t-47.5 -22t-59.5 -8.5q-38 0 -67 11.5t-49 30t-30.5 43t-10.5 50.5zM119 676h77l89 -139h-48z" />
    <glyph glyph-name="acircumflex" unicode="&#xe2;" horiz-adv-x="504" 
d="M215 39q34 0 63 11t50 31t32.5 49t11.5 65v57q-2 -2 -9 -5t-16.5 -5.5t-19.5 -5t-18 -3.5l-106 -16q-42 -6 -66 -29t-24 -62q0 -33 26 -60t76 -27zM51 123q0 61 39 95.5t105 45.5l127 19q29 5 39.5 17.5t10.5 29.5q0 48 -31 78t-89 30q-57 0 -92.5 -30t-40.5 -82l-58 13
q4 34 20 62t41 48t58 30.5t71 10.5q46 0 80.5 -13t56.5 -35.5t33 -53t11 -64.5v-242q0 -29 2 -48t4 -34h-58q-2 8 -4 30.5t-2 51.5q-9 -17 -23.5 -33.5t-35.5 -30t-47.5 -22t-59.5 -8.5q-38 0 -67 11.5t-49 30t-30.5 43t-10.5 50.5zM110 538l110 137h72l110 -137h-54l-92 99
l-92 -99h-54z" />
    <glyph glyph-name="adieresis" unicode="&#xe4;" horiz-adv-x="504" 
d="M215 39q34 0 63 11t50 31t32.5 49t11.5 65v57q-2 -2 -9 -5t-16.5 -5.5t-19.5 -5t-18 -3.5l-106 -16q-42 -6 -66 -29t-24 -62q0 -33 26 -60t76 -27zM51 123q0 61 39 95.5t105 45.5l127 19q29 5 39.5 17.5t10.5 29.5q0 48 -31 78t-89 30q-57 0 -92.5 -30t-40.5 -82l-58 13
q4 34 20 62t41 48t58 30.5t71 10.5q46 0 80.5 -13t56.5 -35.5t33 -53t11 -64.5v-242q0 -29 2 -48t4 -34h-58q-2 8 -4 30.5t-2 51.5q-9 -17 -23.5 -33.5t-35.5 -30t-47.5 -22t-59.5 -8.5q-38 0 -67 11.5t-49 30t-30.5 43t-10.5 50.5zM302 610q0 17 12 30t30 13q17 0 29.5 -13
t12.5 -30q0 -18 -12.5 -30t-29.5 -12q-18 0 -30 12t-12 30zM125 610q0 17 12.5 30t29.5 13q18 0 30.5 -13t12.5 -30q0 -18 -12.5 -30t-30.5 -12q-17 0 -29.5 12t-12.5 30z" />
    <glyph glyph-name="atilde" unicode="&#xe3;" horiz-adv-x="504" 
d="M215 39q34 0 63 11t50 31t32.5 49t11.5 65v57q-2 -2 -9 -5t-16.5 -5.5t-19.5 -5t-18 -3.5l-106 -16q-42 -6 -66 -29t-24 -62q0 -33 26 -60t76 -27zM51 123q0 61 39 95.5t105 45.5l127 19q29 5 39.5 17.5t10.5 29.5q0 48 -31 78t-89 30q-57 0 -92.5 -30t-40.5 -82l-58 13
q4 34 20 62t41 48t58 30.5t71 10.5q46 0 80.5 -13t56.5 -35.5t33 -53t11 -64.5v-242q0 -29 2 -48t4 -34h-58q-2 8 -4 30.5t-2 51.5q-9 -17 -23.5 -33.5t-35.5 -30t-47.5 -22t-59.5 -8.5q-38 0 -67 11.5t-49 30t-30.5 43t-10.5 50.5zM407 648q0 -48 -25 -72.5t-60 -24.5
q-20 0 -35 6.5t-29 16.5l-19 15q-11 9 -22 14.5t-25 5.5q-40 0 -40 -55h-47v12q0 46 24.5 70.5t60.5 24.5q21 0 37 -8t31 -19l18 -13q11 -8 21 -13t23 -5q40 0 40 56h47v-11z" />
    <glyph glyph-name="aring" unicode="&#xe5;" horiz-adv-x="504" 
d="M215 39q34 0 63 11t50 31t32.5 49t11.5 65v57q-2 -2 -9 -5t-16.5 -5.5t-19.5 -5t-18 -3.5l-106 -16q-42 -6 -66 -29t-24 -62q0 -33 26 -60t76 -27zM51 123q0 61 39 95.5t105 45.5l127 19q29 5 39.5 17.5t10.5 29.5q0 48 -31 78t-89 30q-57 0 -92.5 -30t-40.5 -82l-58 13
q4 34 20 62t41 48t58 30.5t71 10.5q46 0 80.5 -13t56.5 -35.5t33 -53t11 -64.5v-242q0 -29 2 -48t4 -34h-58q-2 8 -4 30.5t-2 51.5q-9 -17 -23.5 -33.5t-35.5 -30t-47.5 -22t-59.5 -8.5q-38 0 -67 11.5t-49 30t-30.5 43t-10.5 50.5zM358 635q0 -22 -8.5 -41t-22.5 -33.5
t-33 -22.5t-41 -8q-21 0 -40.5 8t-33.5 22.5t-22.5 33.5t-8.5 41t8.5 41t22.5 33t33.5 22.5t40.5 8.5q22 0 41 -8.5t33 -22.5t22.5 -33t8.5 -41zM314 635q0 26 -17.5 44.5t-43.5 18.5t-43.5 -18.5t-17.5 -44.5t17.5 -44.5t43.5 -18.5t43.5 18.5t17.5 44.5z" />
    <glyph glyph-name="ccedilla" unicode="&#xe7;" horiz-adv-x="522" 
d="M225 -67l35 55q-47 3 -87 23t-68.5 53t-44.5 77.5t-16 96.5q0 55 17.5 101.5t49 80t74.5 52t93 18.5q43 0 77 -12t59.5 -33t42.5 -48t25 -57l-53 -22q-6 21 -17.5 42t-29.5 37.5t-44 27t-60 10.5q-36 0 -67.5 -14t-55 -39.5t-37 -62t-13.5 -81.5t13.5 -81.5t37 -62
t55 -39t67.5 -13.5q34 0 60.5 10.5t45.5 27.5t31 37.5t18 40.5l53 -22q-8 -26 -23 -50.5t-37.5 -44.5t-52 -34t-66.5 -18l-30 -46q4 2 10 3t11 1q42 0 67 -20t25 -55t-27.5 -58.5t-81.5 -23.5q-35 0 -63.5 13.5t-43.5 33.5l27 32q11 -14 31 -27t49 -13q28 0 44.5 11.5
t16.5 31.5q0 19 -14 30t-43 11q-18 0 -36 -8z" />
    <glyph glyph-name="eacute" unicode="&#xe9;" horiz-adv-x="531" 
d="M485 135q-10 -30 -28.5 -57t-45 -47.5t-60.5 -32t-75 -11.5q-47 0 -89.5 17t-74 49.5t-50 79.5t-18.5 107q0 56 18 102t48 79t70 51t85 18q53 0 94 -18t69.5 -50t44 -76t15.5 -97q0 -6 -0.5 -11t-1.5 -11h-380v-4q0 -41 13.5 -75t36.5 -58t54 -37t66 -13q32 0 57.5 9
t45 24.5t32.5 36t21 44.5zM425 277q-1 33 -12 62t-31 50.5t-49.5 34t-66.5 12.5q-33 0 -61 -12.5t-49 -34t-33.5 -50.5t-14.5 -62h317zM292 537h-49l89 139h78z" />
    <glyph glyph-name="egrave" unicode="&#xe8;" horiz-adv-x="531" 
d="M485 135q-10 -30 -28.5 -57t-45 -47.5t-60.5 -32t-75 -11.5q-47 0 -89.5 17t-74 49.5t-50 79.5t-18.5 107q0 56 18 102t48 79t70 51t85 18q53 0 94 -18t69.5 -50t44 -76t15.5 -97q0 -6 -0.5 -11t-1.5 -11h-380v-4q0 -41 13.5 -75t36.5 -58t54 -37t66 -13q32 0 57.5 9
t45 24.5t32.5 36t21 44.5zM425 277q-1 33 -12 62t-31 50.5t-49.5 34t-66.5 12.5q-33 0 -61 -12.5t-49 -34t-33.5 -50.5t-14.5 -62h317zM144 676h77l89 -139h-48z" />
    <glyph glyph-name="ecircumflex" unicode="&#xea;" horiz-adv-x="531" 
d="M485 135q-10 -30 -28.5 -57t-45 -47.5t-60.5 -32t-75 -11.5q-47 0 -89.5 17t-74 49.5t-50 79.5t-18.5 107q0 56 18 102t48 79t70 51t85 18q53 0 94 -18t69.5 -50t44 -76t15.5 -97q0 -6 -0.5 -11t-1.5 -11h-380v-4q0 -41 13.5 -75t36.5 -58t54 -37t66 -13q32 0 57.5 9
t45 24.5t32.5 36t21 44.5zM425 277q-1 33 -12 62t-31 50.5t-49.5 34t-66.5 12.5q-33 0 -61 -12.5t-49 -34t-33.5 -50.5t-14.5 -62h317zM128 538l110 137h72l110 -137h-54l-92 99l-92 -99h-54z" />
    <glyph glyph-name="edieresis" unicode="&#xeb;" horiz-adv-x="531" 
d="M485 135q-10 -30 -28.5 -57t-45 -47.5t-60.5 -32t-75 -11.5q-47 0 -89.5 17t-74 49.5t-50 79.5t-18.5 107q0 56 18 102t48 79t70 51t85 18q53 0 94 -18t69.5 -50t44 -76t15.5 -97q0 -6 -0.5 -11t-1.5 -11h-380v-4q0 -41 13.5 -75t36.5 -58t54 -37t66 -13q32 0 57.5 9
t45 24.5t32.5 36t21 44.5zM425 277q-1 33 -12 62t-31 50.5t-49.5 34t-66.5 12.5q-33 0 -61 -12.5t-49 -34t-33.5 -50.5t-14.5 -62h317zM320 610q0 17 12 30t30 13q17 0 29.5 -13t12.5 -30q0 -18 -12.5 -30t-29.5 -12q-18 0 -30 12t-12 30zM143 610q0 17 12.5 30t29.5 13
q18 0 30.5 -13t12.5 -30q0 -18 -12.5 -30t-30.5 -12q-17 0 -29.5 12t-12.5 30z" />
    <glyph glyph-name="iacute" unicode="&#xed;" horiz-adv-x="227" 
d="M84 0v477h59v-477h-59zM137 537h-49l89 139h78z" />
    <glyph glyph-name="igrave" unicode="&#xec;" horiz-adv-x="227" 
d="M84 0v477h59v-477h-59zM-25 676h77l89 -139h-48z" />
    <glyph glyph-name="icircumflex" unicode="&#xee;" horiz-adv-x="227" 
d="M84 0v477h59v-477h-59zM-32 538l110 137h72l110 -137h-54l-92 99l-92 -99h-54z" />
    <glyph glyph-name="idieresis" unicode="&#xef;" horiz-adv-x="227" 
d="M137 610q0 17 11 28.5t28 11.5t28.5 -11.5t11.5 -28.5t-11.5 -28t-28.5 -11t-28 11t-11 28zM12 610q0 17 11 28.5t28 11.5t28.5 -11.5t11.5 -28.5t-11.5 -28t-28.5 -11t-28 11t-11 28zM84 0v477h59v-477h-59z" />
    <glyph glyph-name="ntilde" unicode="&#xf1;" horiz-adv-x="540" 
d="M144 0h-60v477h58v-81q20 41 60 67t95 26q42 0 74 -14t53 -38t31.5 -56.5t10.5 -69.5v-311h-60v301q0 28 -7.5 52.5t-23.5 42.5t-40 28.5t-58 10.5q-31 0 -55.5 -12.5t-42 -33t-26.5 -47.5t-9 -57v-285zM433 648q0 -48 -25 -72.5t-60 -24.5q-20 0 -35 6.5t-29 16.5
l-19 15q-11 9 -22 14.5t-25 5.5q-40 0 -40 -55h-47v12q0 46 24.5 70.5t60.5 24.5q21 0 37 -8t31 -19l18 -13q11 -8 21 -13t23 -5q40 0 40 56h47v-11z" />
    <glyph glyph-name="oacute" unicode="&#xf3;" horiz-adv-x="557" 
d="M278 490q49 0 92 -18.5t74.5 -51.5t50 -79.5t18.5 -102.5t-18 -102t-50 -79t-75 -51.5t-92 -18.5t-91.5 18.5t-74 51.5t-50 79t-18.5 102t18 102.5t49.5 79.5t74 51.5t92.5 18.5zM278 41q35 0 66.5 13.5t55.5 38.5t38 61.5t14 83.5t-14 83.5t-38 62t-55.5 38.5t-66.5 13
t-66.5 -13t-55 -38.5t-37.5 -62t-14 -83.5t14 -83.5t37.5 -61.5t55 -38.5t66.5 -13.5zM294 537h-49l89 139h78z" />
    <glyph glyph-name="ograve" unicode="&#xf2;" horiz-adv-x="557" 
d="M278 490q49 0 92 -18.5t74.5 -51.5t50 -79.5t18.5 -102.5t-18 -102t-50 -79t-75 -51.5t-92 -18.5t-91.5 18.5t-74 51.5t-50 79t-18.5 102t18 102.5t49.5 79.5t74 51.5t92.5 18.5zM278 41q35 0 66.5 13.5t55.5 38.5t38 61.5t14 83.5t-14 83.5t-38 62t-55.5 38.5t-66.5 13
t-66.5 -13t-55 -38.5t-37.5 -62t-14 -83.5t14 -83.5t37.5 -61.5t55 -38.5t66.5 -13.5zM141 676h77l89 -139h-48z" />
    <glyph glyph-name="ocircumflex" unicode="&#xf4;" horiz-adv-x="557" 
d="M278 490q49 0 92 -18.5t74.5 -51.5t50 -79.5t18.5 -102.5t-18 -102t-50 -79t-75 -51.5t-92 -18.5t-91.5 18.5t-74 51.5t-50 79t-18.5 102t18 102.5t49.5 79.5t74 51.5t92.5 18.5zM278 41q35 0 66.5 13.5t55.5 38.5t38 61.5t14 83.5t-14 83.5t-38 62t-55.5 38.5t-66.5 13
t-66.5 -13t-55 -38.5t-37.5 -62t-14 -83.5t14 -83.5t37.5 -61.5t55 -38.5t66.5 -13.5zM133 538l110 137h72l110 -137h-54l-92 99l-92 -99h-54z" />
    <glyph glyph-name="odieresis" unicode="&#xf6;" horiz-adv-x="557" 
d="M278 490q49 0 92 -18.5t74.5 -51.5t50 -79.5t18.5 -102.5t-18 -102t-50 -79t-75 -51.5t-92 -18.5t-91.5 18.5t-74 51.5t-50 79t-18.5 102t18 102.5t49.5 79.5t74 51.5t92.5 18.5zM278 41q35 0 66.5 13.5t55.5 38.5t38 61.5t14 83.5t-14 83.5t-38 62t-55.5 38.5t-66.5 13
t-66.5 -13t-55 -38.5t-37.5 -62t-14 -83.5t14 -83.5t37.5 -61.5t55 -38.5t66.5 -13.5zM325 610q0 17 12 30t30 13q17 0 29.5 -13t12.5 -30q0 -18 -12.5 -30t-29.5 -12q-18 0 -30 12t-12 30zM148 610q0 17 12.5 30t29.5 13q18 0 30.5 -13t12.5 -30q0 -18 -12.5 -30t-30.5 -12
q-17 0 -29.5 12t-12.5 30z" />
    <glyph glyph-name="otilde" unicode="&#xf5;" horiz-adv-x="557" 
d="M278 490q49 0 92 -18.5t74.5 -51.5t50 -79.5t18.5 -102.5t-18 -102t-50 -79t-75 -51.5t-92 -18.5t-91.5 18.5t-74 51.5t-50 79t-18.5 102t18 102.5t49.5 79.5t74 51.5t92.5 18.5zM278 41q35 0 66.5 13.5t55.5 38.5t38 61.5t14 83.5t-14 83.5t-38 62t-55.5 38.5t-66.5 13
t-66.5 -13t-55 -38.5t-37.5 -62t-14 -83.5t14 -83.5t37.5 -61.5t55 -38.5t66.5 -13.5zM430 648q0 -48 -25 -72.5t-60 -24.5q-20 0 -35 6.5t-29 16.5l-19 15q-11 9 -22 14.5t-25 5.5q-40 0 -40 -55h-47v12q0 46 24.5 70.5t60.5 24.5q21 0 37 -8t31 -19l18 -13q11 -8 21 -13
t23 -5q40 0 40 56h47v-11z" />
    <glyph glyph-name="uacute" unicode="&#xfa;" horiz-adv-x="543" 
d="M404 74q-17 -35 -55 -61t-95 -26q-45 0 -78.5 15.5t-55.5 42t-33 60.5t-11 72v300h60v-291q0 -29 7 -55t22.5 -46.5t40 -32.5t59.5 -12q32 0 57 11.5t42.5 31t26.5 46t9 56.5v292h60v-386q0 -27 2 -51t4 -40h-57q-2 8 -3.5 26t-1.5 41v7v0zM269 537h-49l89 139h78z" />
    <glyph glyph-name="ugrave" unicode="&#xf9;" horiz-adv-x="543" 
d="M404 74q-17 -35 -55 -61t-95 -26q-45 0 -78.5 15.5t-55.5 42t-33 60.5t-11 72v300h60v-291q0 -29 7 -55t22.5 -46.5t40 -32.5t59.5 -12q32 0 57 11.5t42.5 31t26.5 46t9 56.5v292h60v-386q0 -27 2 -51t4 -40h-57q-2 8 -3.5 26t-1.5 41v7v0zM146 676h77l89 -139h-48z" />
    <glyph glyph-name="ucircumflex" unicode="&#xfb;" horiz-adv-x="543" 
d="M404 74q-17 -35 -55 -61t-95 -26q-45 0 -78.5 15.5t-55.5 42t-33 60.5t-11 72v300h60v-291q0 -29 7 -55t22.5 -46.5t40 -32.5t59.5 -12q32 0 57 11.5t42.5 31t26.5 46t9 56.5v292h60v-386q0 -27 2 -51t4 -40h-57q-2 8 -3.5 26t-1.5 41v7v0zM123 538l110 137h72l110 -137
h-54l-92 99l-92 -99h-54z" />
    <glyph glyph-name="udieresis" unicode="&#xfc;" horiz-adv-x="543" 
d="M404 74q-17 -35 -55 -61t-95 -26q-45 0 -78.5 15.5t-55.5 42t-33 60.5t-11 72v300h60v-291q0 -29 7 -55t22.5 -46.5t40 -32.5t59.5 -12q32 0 57 11.5t42.5 31t26.5 46t9 56.5v292h60v-386q0 -27 2 -51t4 -40h-57q-2 8 -3.5 26t-1.5 41v7v0zM313 610q0 17 12 30t30 13
q17 0 29.5 -13t12.5 -30q0 -18 -12.5 -30t-29.5 -12q-18 0 -30 12t-12 30zM136 610q0 17 12.5 30t29.5 13q18 0 30.5 -13t12.5 -30q0 -18 -12.5 -30t-30.5 -12q-17 0 -29.5 12t-12.5 30z" />
    <glyph glyph-name="dagger" unicode="&#x2020;" horiz-adv-x="381" 
d="M164 162v335h-136v51h136v161h53v-161h136v-51h-136v-335h-53z" />
    <glyph glyph-name="degree" unicode="&#xb0;" horiz-adv-x="368" 
d="M31 565q0 32 12 60t32.5 48.5t48.5 32.5t60 12q31 0 59 -12t48.5 -32.5t32.5 -48.5t12 -60t-12 -60t-32.5 -48.5t-48.5 -32.5t-59 -12q-32 0 -60 12t-48.5 32.5t-32.5 48.5t-12 60zM84 565q0 -45 28.5 -74.5t71.5 -29.5t71 29.5t28 74.5t-28 74.5t-71 29.5t-71.5 -29.5
t-28.5 -74.5z" />
    <glyph glyph-name="cent" unicode="&#xa2;" horiz-adv-x="564" 
d="M505 247q-8 -26 -24 -51t-39.5 -45.5t-54.5 -34t-69 -16.5v-100h-53v101q-46 5 -84 26t-65 54t-42 76t-15 94t15.5 94.5t42.5 76t65 53t83 25.5v109h53v-107q38 -3 68.5 -16t53.5 -33t38.5 -45.5t23.5 -53.5l-52 -22q-5 19 -15.5 38.5t-26.5 36t-38.5 28t-51.5 14.5v-397
q29 3 52 15t40 28.5t28 36t17 38.5zM117 351q0 -41 11 -75t31 -59.5t47 -41.5t59 -21v394q-32 -6 -59 -22t-47 -41.5t-31 -59t-11 -74.5z" />
    <glyph glyph-name="sterling" unicode="&#xa3;" horiz-adv-x="613" 
d="M159 363q-15 36 -29.5 73t-14.5 84q0 44 15.5 81t42.5 64t65 42t83 15q51 0 89 -15.5t64 -41t39.5 -58t16.5 -67.5l-63 -12q-3 63 -42.5 100.5t-101.5 37.5q-30 0 -56.5 -10t-46 -29t-31 -46t-11.5 -61q0 -44 15 -81t31 -76h204v-55h-188q6 -26 6 -54q0 -70 -31.5 -119.5
t-74.5 -78.5h247q62 0 94 38.5t36 96.5l60 -10q-2 -40 -14.5 -73.5t-35 -57.5t-54 -37t-71.5 -13h-335v62q24 14 45.5 33.5t37.5 43.5t25.5 52t9.5 59q0 28 -8 58h-100v55h82z" />
    <glyph glyph-name="section" unicode="&#xa7;" horiz-adv-x="549" 
d="M228 382q-30 -8 -53.5 -35t-23.5 -63q0 -34 20.5 -58t58.5 -44l93 -50q15 4 28.5 13t24.5 21.5t17.5 28.5t6.5 34q0 35 -20 59t-58 44zM459 238q0 -48 -28.5 -81t-67.5 -47q50 -29 75 -66t25 -85q0 -38 -15 -69t-41 -53t-60.5 -34t-72.5 -12q-44 0 -78 13t-58.5 37
t-38 57t-14.5 73l57 12q2 -63 36.5 -102t97.5 -39q54 0 90 30t36 81q0 39 -20 65t-57 46l-106 57q-27 14 -50.5 29t-40 33t-26 40.5t-9.5 51.5q0 48 29 82t66 46q-48 28 -72.5 65t-24.5 86q0 38 15.5 69t41 53t59 34t70.5 12q43 0 77.5 -13.5t58.5 -37.5t37 -56.5t14 -71.5
l-58 -13q-1 64 -35 102.5t-95 38.5q-25 0 -47.5 -8t-40 -22.5t-27.5 -35t-10 -46.5q0 -38 20.5 -64t55.5 -45l106 -57q27 -14 50 -29t40 -33.5t26.5 -41t9.5 -51.5z" />
    <glyph glyph-name="bullet" unicode="&#x2022;" horiz-adv-x="567" 
d="M76 282q0 43 16.5 81t44.5 66t65.5 44.5t80.5 16.5t80.5 -16.5t65.5 -44.5t44.5 -66t16.5 -81q0 -42 -16.5 -80t-44.5 -66t-65.5 -44.5t-80.5 -16.5t-80.5 16.5t-65.5 44.5t-44.5 66t-16.5 80z" />
    <glyph glyph-name="paragraph" unicode="&#xb6;" horiz-adv-x="608" 
d="M317 -198h-52v525h-33q-39 0 -73.5 15t-61 40.5t-41.5 60.5t-15 74q0 42 16.5 77.5t45.5 61t68.5 39.5t86.5 14h319v-51h-94v-856h-53v856h-113v-856z" />
    <glyph glyph-name="germandbls" unicode="&#xdf;" horiz-adv-x="553" 
d="M336 343q0 -17 11.5 -26t30.5 -19l39 -21q41 -21 69 -57.5t28 -86.5q0 -26 -9.5 -52t-29 -47t-48.5 -34t-68 -13q-42 0 -71 13.5t-48 34t-27.5 45t-9.5 46.5l56 14q0 -15 5.5 -33t17.5 -33t31 -25t46 -10q24 0 42 8t29.5 20.5t17.5 28.5t6 32q0 36 -20 60t-50 40l-38 20
q-13 6 -25.5 14.5t-23 19.5t-17 25.5t-6.5 33.5q0 28 13.5 48.5t37.5 36.5l38 26q26 17 41 41t15 59q0 24 -9 45t-25.5 36.5t-41 25t-55.5 9.5q-30 0 -56 -11.5t-45.5 -34t-31 -56t-11.5 -77.5v-489h-60v492q0 55 16 97.5t43.5 72t65 45t79.5 15.5q44 0 79.5 -13t60.5 -36
t38.5 -53.5t13.5 -66.5q0 -54 -24 -87.5t-54 -53.5l-37 -25q-13 -8 -21 -18t-8 -26z" />
    <glyph glyph-name="registered" unicode="&#xae;" horiz-adv-x="830" 
d="M51 354q0 76 28.5 143t77.5 117t115 79t142 29t142.5 -29t116 -79t78 -117t28.5 -143t-28.5 -142.5t-78 -116.5t-116 -79t-142.5 -29t-142 29t-115 79t-77.5 116.5t-28.5 142.5zM102 354q0 -67 24.5 -125.5t66.5 -101.5t99 -68t122 -25t122 25t99 68t66.5 101.5
t24.5 125.5t-24.5 126t-66.5 102t-99 68t-122 25t-122 -25t-99 -68t-66.5 -102t-24.5 -126zM425 360q39 0 61.5 20.5t22.5 55.5q0 36 -22.5 56.5t-61.5 20.5h-74v-153h74zM351 156h-49v400h130q28 0 51.5 -9t40 -25t26 -38t9.5 -47q0 -44 -26 -75t-68 -40l95 -166h-57
l-92 162h-60v-162z" />
    <glyph glyph-name="copyright" unicode="&#xa9;" horiz-adv-x="830" 
d="M51 354q0 76 28.5 143t77.5 117t115 79t142 29t142.5 -29t116 -79t78 -117t28.5 -143t-28.5 -142.5t-78 -116.5t-116 -79t-142.5 -29t-142 29t-115 79t-77.5 116.5t-28.5 142.5zM102 354q0 -67 24.5 -125.5t66.5 -101.5t99 -68t122 -25t122 25t99 68t66.5 101.5
t24.5 125.5t-24.5 126t-66.5 102t-99 68t-122 25t-122 -25t-99 -68t-66.5 -102t-24.5 -126zM417 514q-29 0 -54.5 -11t-44.5 -31.5t-29.5 -50t-10.5 -66.5t10.5 -66.5t29.5 -50.5t44 -32t55 -11q28 0 49.5 8.5t37.5 22.5t26 30.5t15 33.5l44 -20q-8 -23 -22.5 -44.5t-36 -38
t-50 -27t-63.5 -10.5q-42 0 -76.5 15.5t-60 43t-39.5 65t-14 81.5q0 45 14 82.5t39.5 64.5t60.5 42.5t76 15.5q36 0 64 -10t49 -26.5t35 -39t21 -46.5l-45 -18q-11 38 -41 66t-83 28z" />
    <glyph glyph-name="trademark" unicode="&#x2122;" horiz-adv-x="806" 
d="M196 665v-310h-49v310h-117v44h282v-44h-116zM692 355v269l-120 -269h-40l-120 268v-268h-48v354h62l127 -285l127 285h60v-354h-48z" />
    <glyph glyph-name="acute" unicode="&#xb4;" horiz-adv-x="249" 
d="M90 537h-49l89 139h78z" />
    <glyph glyph-name="dieresis" unicode="&#xa8;" horiz-adv-x="346" 
d="M219 610q0 17 12 30t30 13q17 0 29.5 -13t12.5 -30q0 -18 -12.5 -30t-29.5 -12q-18 0 -30 12t-12 30zM42 610q0 17 12.5 30t29.5 13q18 0 30.5 -13t12.5 -30q0 -18 -12.5 -30t-30.5 -12q-17 0 -29.5 12t-12.5 30z" />
    <glyph glyph-name="notequal" unicode="&#x2260;" horiz-adv-x="589" 
d="M237 206l-81 -110h-61l81 110h-105v50h142l106 144h-248v49h285l79 108h61l-79 -108h101v-49h-138l-106 -144h244v-50h-281z" />
    <glyph glyph-name="AE" unicode="&#xc6;" horiz-adv-x="993" 
d="M517 268v385l-251 -385h251zM517 0v212h-288l-138 -212h-80l472 709h452v-58h-355v-267h324v-58h-324v-268h355v-58h-418z" />
    <glyph glyph-name="Oslash" unicode="&#xd8;" horiz-adv-x="784" 
d="M110 354q0 -74 22 -130t59 -95l371 478q-36 28 -80 42.5t-90 14.5q-54 0 -105 -20t-90.5 -59t-63 -97t-23.5 -134zM675 354q0 69 -20 123t-53 93l-370 -476q35 -25 76 -37t84 -12q54 0 105 20t90.5 59t63.5 96.5t24 133.5zM46 354q0 89 29.5 157.5t78 115.5t111 71
t127.5 24q55 0 108 -17t98 -52l75 96l43 -32l-77 -99q45 -46 72.5 -112t27.5 -152q0 -89 -30 -157.5t-78.5 -115t-111 -70.5t-127.5 -24q-52 0 -102 15t-94 45l-70 -90l-43 32l71 92q-49 47 -78.5 115t-29.5 158z" />
    <glyph glyph-name="infinity" unicode="&#x221e;" horiz-adv-x="806" 
d="M402 289q-40 -54 -86 -88.5t-101 -34.5q-35 0 -64.5 13t-52 35t-35 51.5t-12.5 63.5t12.5 64t35 52t52 35t64.5 13q55 0 102.5 -35t85.5 -89q40 54 86.5 89t100.5 35q34 0 64 -13t52.5 -35t35 -52t12.5 -64t-12.5 -63.5t-35 -51.5t-52.5 -35t-64 -13q-54 0 -101.5 34.5
t-86.5 88.5zM216 442q-24 0 -44.5 -9t-35.5 -24.5t-23.5 -36t-8.5 -44.5q0 -23 8.5 -43.5t23.5 -35.5t35.5 -24t44.5 -9q23 0 44 9t40.5 24t37 35.5t34.5 44.5q-35 48 -72 80.5t-84 32.5zM589 216q24 0 44.5 9t35.5 24t23.5 35.5t8.5 43.5q0 24 -8.5 44.5t-23.5 36
t-35.5 24.5t-44.5 9q-47 0 -84 -32.5t-71 -79.5q17 -24 34.5 -44.5t36.5 -36t40 -24.5t44 -9z" />
    <glyph glyph-name="plusminus" unicode="&#xb1;" horiz-adv-x="572" 
d="M259 413v146h53v-146h189v-49h-189v-146h-53v146h-188v49h188zM501 155v-50h-430v50h430z" />
    <glyph glyph-name="lessequal" unicode="&#x2264;" horiz-adv-x="547" 
d="M71 414l405 147v-55l-337 -119l337 -118v-55l-405 147v53zM476 155v-50h-405v50h405z" />
    <glyph glyph-name="greaterequal" unicode="&#x2265;" horiz-adv-x="547" 
d="M476 361l-405 -147v55l337 118l-337 119v55l405 -147v-53zM476 155v-50h-405v50h405z" />
    <glyph glyph-name="yen" unicode="&#xa5;" horiz-adv-x="610" 
d="M339 182v-182h-62v182h-188v50h188v90h-188v49h154l-210 338h73l202 -333l198 333h72l-207 -338h157v-49h-189v-90h189v-50h-189z" />
    <glyph glyph-name="mu" unicode="&#xb5;" horiz-adv-x="554" 
d="M415 74q-17 -35 -55.5 -61t-94.5 -26q-41 0 -71 14t-48 40v-231h-60v667h60v-291q0 -29 7 -55t22.5 -46.5t40.5 -32.5t60 -12q31 0 56.5 11.5t42.5 31t26.5 46t9.5 56.5v292h60v-386q0 -27 1.5 -52t3.5 -39h-57q-2 8 -3 26t-1 41v7v0z" />
    <glyph glyph-name="partialdiff" unicode="&#x2202;" horiz-adv-x="610" 
d="M242 667q-28 0 -65.5 -7t-73.5 -25l-20 49q40 21 84.5 29.5t83.5 8.5q67 0 123 -24.5t97 -72t64 -118t23 -162.5q0 -76 -16.5 -141.5t-49.5 -113.5t-83.5 -75.5t-118.5 -27.5q-47 0 -90 15.5t-75 45.5t-51 73.5t-19 98.5q0 52 18.5 94.5t51 72.5t75.5 46.5t93 16.5
q67 0 120 -25t83 -67q-2 64 -16.5 120.5t-44.5 98.5t-77.5 66t-115.5 24zM302 397q-44 0 -78.5 -14t-58.5 -38t-36.5 -57t-12.5 -71q0 -40 14 -72.5t38.5 -55t56.5 -35t68 -12.5q53 0 90.5 22.5t61.5 57.5t35.5 79t13.5 87q-32 54 -82.5 81.5t-109.5 27.5z" />
    <glyph glyph-name="summation" unicode="&#x2211;" horiz-adv-x="568" 
d="M51 58l282 299l-282 293v59h485v-58h-404l281 -294l-287 -299h410v-58h-485v58z" />
    <glyph glyph-name="product" unicode="&#x220f;" horiz-adv-x="699" 
d="M542 0v654h-383v-654h-63v709h507v-709h-61z" />
    <glyph glyph-name="pi" unicode="&#x3c0;" horiz-adv-x="598" 
d="M551 4q-11 -4 -25 -7t-32 -3q-26 0 -45.5 8.5t-32.5 23t-19 34t-6 41.5v323h-204v-424h-60v424h-95v53h515v-53h-96v-318q0 -30 17 -45.5t44 -15.5q9 0 19.5 2t19.5 4v-47v0z" />
    <glyph glyph-name="integral" unicode="&#x222b;" horiz-adv-x="307" 
d="M124 557q0 72 39 112t105 40h28v-54h-24q-40 0 -64 -26t-24 -76v-600q0 -72 -37 -112.5t-103 -40.5h-33v54h25q39 0 63.5 26.5t24.5 77.5v599z" />
    <glyph glyph-name="ordfeminine" unicode="&#xaa;" horiz-adv-x="412" 
d="M187 406q51 0 77.5 32t26.5 88v23q-4 -6 -23 -9l-92 -15q-26 -5 -42.5 -19.5t-16.5 -41.5q0 -22 17.5 -40t52.5 -18zM67 462q0 43 27 67.5t72 31.5l93 14q18 2 25 11t7 20q0 30 -21 50.5t-61 20.5q-39 0 -62 -21t-28 -56l-46 11q5 48 41.5 78.5t93.5 30.5q35 0 60 -9.5
t41 -26t23.5 -38.5t7.5 -46v-169q0 -18 1.5 -33.5t2.5 -23.5h-48q-2 7 -3 20t-1 33q-12 -23 -40.5 -42.5t-71.5 -19.5q-27 0 -48.5 8t-35.5 21.5t-21.5 31t-7.5 36.5z" />
    <glyph glyph-name="ordmasculine" unicode="&#xba;" horiz-adv-x="472" 
d="M236 720q36 0 66.5 -13t53.5 -36.5t36 -56t13 -72.5q0 -39 -13 -72t-36 -56t-53.5 -36t-66.5 -13t-66.5 13t-53 36t-35.5 56t-13 72q0 40 13 72.5t35.5 56t53 36.5t66.5 13zM236 409q24 0 45.5 9t38 26t26 41.5t9.5 56.5t-9.5 56.5t-26 41.5t-38 26t-45.5 9t-45 -9
t-37.5 -26t-26 -41.5t-9.5 -56.5t9.5 -56.5t26 -41.5t37.5 -26t45 -9z" />
    <glyph glyph-name="Omega" unicode="&#x2126;" horiz-adv-x="802" 
d="M401 666q-56 0 -108 -20t-92 -57.5t-64.5 -91.5t-24.5 -121q0 -60 20.5 -110.5t54 -88t77 -61.5t90.5 -33v-83h-296v55h221q-45 14 -87 42.5t-74 70t-51 94t-19 114.5q0 79 29 143t77.5 109t112.5 69.5t134 24.5t133.5 -24.5t112.5 -69.5t78 -109t29 -143
q0 -62 -19 -114.5t-51.5 -94t-74.5 -70t-87 -42.5h222v-55h-296v83q46 9 90 33t77.5 61.5t54 88t20.5 110.5q0 67 -24.5 121t-64.5 91.5t-92.5 57.5t-107.5 20z" />
    <glyph glyph-name="ae" unicode="&#xe6;" horiz-adv-x="863" 
d="M817 137q-10 -31 -29 -58.5t-46 -47.5t-61 -32t-73 -12q-65 0 -118.5 31.5t-83.5 91.5q-10 -24 -26.5 -46.5t-40.5 -39t-55.5 -26.5t-71.5 -10q-39 0 -69 11.5t-50.5 30t-31 43t-10.5 50.5q0 61 39 95.5t105 45.5l130 19q29 5 40 18t11 29q0 47 -32 77.5t-90 30.5
t-94 -30t-42 -81l-57 12q4 35 21 63t43 47.5t59 30t69 10.5q66 0 107.5 -28t58.5 -73q30 48 76.5 74.5t101.5 26.5q53 0 94 -18t69.5 -50t43.5 -76t15 -97v-10.5t-1 -11.5h-381v-4q0 -41 13.5 -75t37 -58t54.5 -37t66 -13q32 0 57.5 9t45 25t33 37t21.5 44zM756 277
q0 33 -11 62t-31.5 50.5t-49.5 34t-66 12.5q-33 0 -61 -12.5t-49 -34t-33.5 -50.5t-14.5 -62h316zM219 39q31 0 59.5 10.5t50.5 30t34.5 48t12.5 64.5v60q-2 -2 -9 -5t-16.5 -5.5t-19 -4.5t-16.5 -3l-114 -17q-40 -6 -64 -29t-24 -62q0 -34 26.5 -60.5t79.5 -26.5z" />
    <glyph glyph-name="oslash" unicode="&#xf8;" horiz-adv-x="557" 
d="M105 238q0 -42 11 -74.5t31 -58.5l231 297q-44 33 -100 33q-35 0 -66.5 -13t-55 -38.5t-37.5 -62t-14 -83.5zM278 41q35 0 66.5 13.5t55.5 38.5t38 61.5t14 83.5q0 40 -10.5 72.5t-28.5 56.5l-230 -296q42 -30 95 -30zM278 490q38 0 72 -11.5t63 -31.5l55 71l39 -31
l-57 -73q29 -32 46 -77t17 -99q0 -56 -18 -102t-50 -79t-75 -51.5t-92 -18.5q-73 0 -130 40l-53 -68l-38 31l53 69q-31 32 -48.5 78t-17.5 101q0 56 18 102.5t49.5 79.5t74 51.5t92.5 18.5z" />
    <glyph glyph-name="questiondown" unicode="&#xbf;" horiz-adv-x="495" 
d="M302 438q0 -21 -14.5 -35.5t-35.5 -14.5q-20 0 -35 14.5t-15 35.5q0 20 15 34.5t35 14.5q21 0 35.5 -14.5t14.5 -34.5zM281 295q3 -15 3 -38q0 -48 -17 -83.5t-56 -64.5l-44 -33q-32 -25 -50 -56t-18 -68q0 -27 9 -51t26.5 -43t43.5 -30t61 -11q38 0 66 12.5t46 33t27 47
t9 54.5q0 25 -8 54l62 -8q7 -25 7 -52q0 -35 -12.5 -70t-38.5 -63.5t-65 -46t-93 -17.5q-48 0 -86 16t-64 42.5t-39.5 61t-13.5 70.5q0 55 27 97t72 75l45 33q28 21 37.5 49t9.5 57q0 10 -0.5 18t-1.5 15h56z" />
    <glyph glyph-name="exclamdown" unicode="&#xa1;" horiz-adv-x="280" 
d="M90 438q0 20 14.5 34.5t35.5 14.5q20 0 35 -14.5t15 -34.5q0 -21 -15 -35.5t-35 -14.5q-21 0 -35.5 14.5t-14.5 35.5zM178 -226h-76l17 520h42z" />
    <glyph glyph-name="logicalnot" unicode="&#xac;" horiz-adv-x="562" 
d="M433 157v201h-385v54h440v-255h-55z" />
    <glyph glyph-name="radical" unicode="&#x221a;" horiz-adv-x="645" 
d="M548 796l-268 -796h-57l-182 518h69l142 -417l248 751h174v-56h-126z" />
    <glyph glyph-name="florin" unicode="&#x192;" horiz-adv-x="475" 
d="M218 423h-117v54h128l23 113q14 72 57.5 105.5t96.5 33.5q25 0 39 -3t25 -6v-54q-7 2 -20 4.5t-32 2.5q-17 0 -34 -5t-31 -16.5t-25 -31.5t-17 -50l-20 -93h133v-54h-143l-86 -432q-14 -72 -57.5 -105.5t-96.5 -33.5q-26 0 -40 3t-25 6v54q7 -2 20 -4.5t33 -2.5
q17 0 33.5 5t31 16.5t25.5 31.5t17 50z" />
    <glyph glyph-name="approxequal" unicode="&#x2248;" horiz-adv-x="557" 
d="M515 429q-25 -35 -57 -54t-74 -19q-23 0 -46.5 8t-49.5 22l-47 25q-18 9 -35.5 14.5t-34.5 5.5q-56 0 -95 -49l-35 30q26 36 57 55t73 19q23 0 46 -8t49 -22l46 -24q19 -11 39.5 -16.5t38.5 -5.5q29 0 50.5 11.5t41.5 36.5zM515 236q-25 -35 -57 -54t-74 -19
q-23 0 -46.5 7.5t-49.5 21.5l-47 26q-18 9 -35.5 14.5t-34.5 5.5q-56 0 -95 -49l-35 30q26 36 57 55t73 19q23 0 46 -8t49 -22l46 -24q19 -11 39.5 -17t38.5 -6q55 0 92 49z" />
    <glyph glyph-name="Delta" unicode="&#x394;" horiz-adv-x="657" 
d="M292 709h72l284 -709h-639zM99 58h458l-230 584z" />
    <glyph glyph-name="guillemotleft" unicode="&#xab;" horiz-adv-x="424" 
d="M338 95l-133 191l133 191h59l-131 -191l131 -191h-59zM169 95l-133 191l133 191h60l-132 -191l132 -191h-60z" />
    <glyph glyph-name="guillemotright" unicode="&#xbb;" horiz-adv-x="424" 
d="M26 95l133 191l-133 191h60l133 -191l-133 -191h-60zM195 95l131 191l-131 191h59l133 -191l-133 -191h-59z" />
    <glyph glyph-name="ellipsis" unicode="&#x2026;" horiz-adv-x="778" 
d="M179 45q0 -21 -14 -35t-35 -14q-20 0 -34.5 14t-14.5 35q0 20 14.5 34.5t34.5 14.5q21 0 35 -14.5t14 -34.5zM438 45q0 -21 -14.5 -35t-34.5 -14q-21 0 -35.5 14t-14.5 35q0 20 14.5 34.5t35.5 14.5q20 0 34.5 -14.5t14.5 -34.5zM698 45q0 -21 -14.5 -35t-35.5 -14
q-20 0 -34.5 14t-14.5 35q0 20 14.5 34.5t34.5 14.5q21 0 35.5 -14.5t14.5 -34.5z" />
    <glyph glyph-name="Agrave" unicode="&#xc0;" horiz-adv-x="689" 
d="M197 277h293l-147 369zM513 219h-339l-87 -219h-68l287 709h76l287 -709h-68zM180 878h84l107 -119h-57z" />
    <glyph glyph-name="Atilde" unicode="&#xc3;" horiz-adv-x="689" 
d="M197 277h293l-147 369zM513 219h-339l-87 -219h-68l287 709h76l287 -709h-68zM496 861q0 -48 -24.5 -73.5t-59.5 -25.5q-21 0 -37.5 6.5t-30.5 17.5l-19 15q-13 11 -23.5 16t-24.5 5q-42 0 -42 -56h-46v12q0 46 24.5 71.5t60.5 25.5q21 0 38.5 -8t32.5 -19l19 -14
q12 -8 22 -13.5t24 -5.5q18 0 29.5 13.5t11.5 40.5v3h45v-11z" />
    <glyph glyph-name="Otilde" unicode="&#xd5;" horiz-adv-x="784" 
d="M46 354q0 89 29.5 157.5t78 115.5t111 71t127.5 24t127.5 -24t111 -71t78.5 -115.5t30 -157.5t-30 -157.5t-78.5 -115t-111 -70.5t-127.5 -24t-127.5 24t-111 70.5t-78 115t-29.5 157.5zM110 354q0 -76 23.5 -133.5t63 -96.5t90.5 -59t105 -20t105 20t90.5 59t63.5 96.5
t24 133.5t-24 134t-63.5 97t-90.5 59t-105 20t-105 -20t-90.5 -59t-63 -97t-23.5 -134zM548 861q0 -48 -24.5 -73.5t-59.5 -25.5q-21 0 -37.5 6.5t-30.5 17.5l-19 15q-13 11 -23.5 16t-24.5 5q-42 0 -42 -56h-46v12q0 46 24.5 71.5t60.5 25.5q21 0 38.5 -8t32.5 -19l19 -14
q12 -8 22 -13.5t24 -5.5q18 0 29.5 13.5t11.5 40.5v3h45v-11z" />
    <glyph glyph-name="OE" unicode="&#x152;" horiz-adv-x="1154" 
d="M110 354q0 -76 24 -133.5t63.5 -96.5t91 -59t105.5 -20t105.5 20t91 59t63.5 96.5t24 133.5t-24 134t-63.5 97t-91 59t-105.5 20t-105.5 -20t-91 -59t-63.5 -97t-24 -134zM678 0v144q-48 -80 -124.5 -118.5t-159.5 -38.5q-65 0 -127.5 24t-111.5 70.5t-79 115t-30 157.5
t30 157.5t79 115.5t111.5 71t127.5 24q83 0 159.5 -40t124.5 -118v145h418v-58h-355v-267h324v-58h-324v-268h355v-58h-418z" />
    <glyph glyph-name="oe" unicode="&#x153;" horiz-adv-x="944" 
d="M898 137q-10 -31 -29 -58.5t-45.5 -47.5t-60.5 -32t-74 -12q-65 0 -119 32.5t-83 95.5q-29 -62 -83.5 -95t-122.5 -33q-50 0 -93 18.5t-75 51.5t-50.5 79t-18.5 102t18 102.5t50 79.5t75.5 51.5t93.5 18.5q67 0 122 -33.5t84 -93.5q27 60 78.5 93.5t112.5 33.5
q53 0 94 -18t69.5 -50t43.5 -76t15 -97v-10.5t-1 -11.5h-380v-4q0 -41 13.5 -75t36.5 -58t54 -37t66 -13q32 0 57.5 9t45 25t33 37t21.5 44zM837 277q0 33 -11 62t-31 50.5t-49.5 34t-66.5 12.5q-33 0 -61 -12.5t-49 -34t-33.5 -50.5t-14.5 -62h316zM281 41q35 0 67 13.5
t56 38.5t38.5 61.5t14.5 83.5t-14.5 83.5t-38.5 62t-56 39t-67 13.5t-67 -13.5t-56 -39t-38.5 -62t-14.5 -83.5t14.5 -83.5t38.5 -61.5t56 -38.5t67 -13.5z" />
    <glyph glyph-name="endash" unicode="&#x2013;" horiz-adv-x="643" 
d="M71 260v54h500v-54h-500z" />
    <glyph glyph-name="emdash" unicode="&#x2014;" horiz-adv-x="1081" 
d="M81 260v54h919v-54h-919z" />
    <glyph glyph-name="quotedblleft" unicode="&#x201c;" horiz-adv-x="327" 
d="M141 536q0 -19 -14 -32.5t-35 -13.5q-22 0 -38.5 16.5t-16.5 49.5q0 34 9.5 62t25.5 48t35.5 33t40.5 18v-35q-32 -10 -50.5 -40.5t-19.5 -62.5q5 5 18 5q19 0 32 -13.5t13 -34.5zM282 536q0 -19 -14 -32.5t-36 -13.5t-38.5 16.5t-16.5 49.5q0 34 9.5 62t25.5 48t35.5 33
t40.5 18v-35q-32 -10 -50.5 -40.5t-19.5 -62.5q7 5 18 5q20 0 33 -13.5t13 -34.5z" />
    <glyph glyph-name="quotedblright" unicode="&#x201d;" horiz-adv-x="327" 
d="M186 668q0 20 14 33.5t35 13.5q22 0 38.5 -16.5t16.5 -49.5q0 -35 -9.5 -62.5t-25.5 -47.5t-35.5 -33t-40.5 -18v34q16 5 28.5 15.5t21.5 24.5t14.5 30.5t5.5 32.5q-2 -2 -6.5 -3.5t-11.5 -1.5q-19 0 -32 13.5t-13 34.5zM46 668q0 20 14 33.5t35 13.5q22 0 38.5 -16.5
t16.5 -49.5q0 -35 -9.5 -62.5t-25.5 -47.5t-35.5 -33t-40.5 -18v34q16 5 28.5 15.5t21.5 24.5t14.5 30.5t5.5 32.5q-2 -2 -6.5 -3.5t-11.5 -1.5q-19 0 -32 13.5t-13 34.5z" />
    <glyph glyph-name="quoteleft" unicode="&#x2018;" horiz-adv-x="187" 
d="M141 535q0 -20 -14 -33.5t-35 -13.5q-22 0 -38.5 16.5t-16.5 49.5q0 34 9.5 62t25.5 48t35.5 33t40.5 18v-34q-16 -5 -28.5 -16t-21.5 -25t-14.5 -30.5t-5.5 -32.5q5 5 18 5q19 0 32 -13.5t13 -33.5z" />
    <glyph glyph-name="quoteright" unicode="&#x2019;" horiz-adv-x="189" 
d="M46 669q0 19 14 33t36 14t39 -17t17 -50q0 -35 -10 -63.5t-25.5 -49t-36 -33.5t-41.5 -18v35q32 10 51 41t20 64q-5 -5 -18 -5q-20 0 -33 13.5t-13 35.5z" />
    <glyph glyph-name="divide" unicode="&#xf7;" horiz-adv-x="564" 
d="M233 505q0 20 14.5 33.5t33.5 13.5q20 0 33.5 -13.5t13.5 -33.5q0 -19 -13.5 -33.5t-33.5 -14.5q-19 0 -33.5 14.5t-14.5 33.5zM61 354h441v-53h-441v53zM233 149q0 20 14.5 34t33.5 14q20 0 33.5 -14t13.5 -34q0 -19 -13.5 -33t-33.5 -14q-19 0 -33.5 14t-14.5 33z" />
    <glyph glyph-name="lozenge" unicode="&#x25ca;" horiz-adv-x="550" 
d="M250 709h50l208 -355l-207 -354h-52l-208 354zM275 72l168 282l-168 283l-169 -283z" />
    <glyph glyph-name="ydieresis" unicode="&#xff;" horiz-adv-x="488" 
d="M98 -194l120 256l-205 415h68l169 -353l158 353h64l-309 -671h-65zM290 610q0 17 12 30t30 13q17 0 29.5 -13t12.5 -30q0 -18 -12.5 -30t-29.5 -12q-18 0 -30 12t-12 30zM113 610q0 17 12.5 30t29.5 13q18 0 30.5 -13t12.5 -30q0 -18 -12.5 -30t-30.5 -12q-17 0 -29.5 12
t-12.5 30z" />
    <glyph glyph-name="Ydieresis" unicode="&#x178;" horiz-adv-x="597" 
d="M19 709h76l206 -347l205 347h72l-248 -406v-303h-62v303zM358 819q0 18 12.5 30.5t29.5 12.5q19 0 31.5 -12.5t12.5 -30.5t-12.5 -30.5t-31.5 -12.5q-17 0 -29.5 12.5t-12.5 30.5zM155 819q0 18 12.5 30.5t30.5 12.5t30.5 -12.5t12.5 -30.5t-12.5 -30.5t-30.5 -12.5
t-30.5 12.5t-12.5 30.5z" />
    <glyph glyph-name="fraction" unicode="&#x2044;" horiz-adv-x="547" 
d="M0 0l489 709h58l-488 -709h-59z" />
    <glyph glyph-name="currency" unicode="&#xa4;" horiz-adv-x="593" 
d="M81 319q0 39 13 74.5t36 63.5l-77 78l38 38l77 -79q28 21 61.5 33t71.5 12q73 0 127 -42l74 76l37 -38l-71 -74q24 -29 38.5 -65t14.5 -77q0 -40 -13.5 -76t-38.5 -63l71 -73l-37 -37l-72 73q-27 -21 -60.5 -32.5t-69.5 -11.5q-39 0 -74 13t-62 36l-75 -78l-37 37l74 78
q-22 27 -34 61.5t-12 72.5zM134 319q0 -36 13 -66.5t35.5 -53t53 -35.5t65.5 -13q34 0 64 13t52 35.5t35 53t13 66.5t-13 66.5t-35 53t-52 35.5t-64 13q-35 0 -65.5 -13t-53 -35.5t-35.5 -53t-13 -66.5z" />
    <glyph glyph-name="guilsinglleft" unicode="&#x2039;" horiz-adv-x="255" 
d="M169 95l-133 191l133 191h60l-132 -191l132 -191h-60z" />
    <glyph glyph-name="guilsinglright" unicode="&#x203a;" horiz-adv-x="255" 
d="M26 95l133 191l-133 191h60l133 -191l-133 -191h-60z" />
    <glyph glyph-name="daggerdbl" unicode="&#x2021;" horiz-adv-x="402" 
d="M175 212v285h-136v51h136v161h53v-161h135v-51h-135v-285h135v-51h-135v-161h-53v161h-136v51h136z" />
    <glyph glyph-name="periodcentered" unicode="&#xb7;" horiz-adv-x="251" 
d="M74 284q0 22 14.5 37t36.5 15q23 0 37.5 -15t14.5 -37t-14.5 -36.5t-37.5 -14.5q-22 0 -36.5 14.5t-14.5 36.5z" />
    <glyph glyph-name="quotesinglbase" unicode="&#x201a;" horiz-adv-x="208" 
d="M55 45q0 20 14.5 34t35.5 14q23 0 39.5 -17t16.5 -50q0 -36 -9.5 -64t-25.5 -48.5t-36 -33.5t-41 -18v35q16 5 29 15.5t22 25t14.5 31t5.5 32.5q-3 -2 -7.5 -3.5t-10.5 -1.5q-20 0 -33.5 14t-13.5 35z" />
    <glyph glyph-name="quotedblbase" unicode="&#x201e;" horiz-adv-x="346" 
d="M195 44q0 20 14 33.5t36 13.5q21 0 37.5 -16.5t16.5 -49.5q0 -35 -9.5 -62.5t-25 -47.5t-35.5 -33t-41 -18v34q16 5 29 15.5t22 24.5t14.5 30.5t5.5 32.5q-3 -2 -7 -3.5t-11 -1.5q-20 0 -33 13.5t-13 34.5zM55 44q0 20 14 33.5t35 13.5q22 0 38.5 -16.5t16.5 -49.5
q0 -35 -9.5 -62.5t-25 -47.5t-35.5 -33t-41 -18v34q16 5 29 15.5t22 24.5t14.5 30.5t5.5 32.5q-3 -2 -7.5 -3.5t-10.5 -1.5q-20 0 -33 13.5t-13 34.5z" />
    <glyph glyph-name="perthousand" unicode="&#x2030;" horiz-adv-x="1107" 
d="M63 559q0 33 12.5 61.5t33.5 50t49.5 33.5t61.5 12t61.5 -12t50 -33.5t34 -50t12.5 -61.5t-12.5 -62t-34 -50t-50 -33.5t-61.5 -12.5t-61.5 12t-49.5 33.5t-33.5 50.5t-12.5 62zM155 0l489 709h59l-488 -709h-60zM117 559q0 -46 29.5 -76.5t73.5 -30.5q45 0 74 30.5
t29 76.5q0 22 -8 42t-21.5 34t-32.5 22.5t-41 8.5t-40.5 -8.5t-32.5 -22.5t-22 -34t-8 -42zM479 151q0 33 12.5 62t34 50t50 33.5t61.5 12.5q42 0 76.5 -20.5t54.5 -54.5q20 34 54 54.5t77 20.5q33 0 61.5 -12.5t50 -33.5t34 -50t12.5 -62t-12.5 -62t-34 -50.5t-50 -33.5
t-61.5 -12q-43 0 -77 20t-54 53q-20 -33 -54.5 -53t-76.5 -20q-33 0 -61.5 12t-50 33.5t-34 50.5t-12.5 62zM637 43q22 0 41 8.5t33 23t22 34t8 42.5v3q-2 44 -31.5 74t-72.5 30q-22 0 -41 -8.5t-33 -22.5t-22 -34t-8 -42q0 -23 8 -42.5t22 -34t33 -23t41 -8.5zM899 43
q22 0 41 8.5t33 23t22 34t8 42.5q0 22 -8 42t-22 34t-33 22.5t-41 8.5q-44 0 -73.5 -29.5t-30.5 -74.5v-6q1 -45 30.5 -75t73.5 -30z" />
    <glyph glyph-name="Acircumflex" unicode="&#xc2;" horiz-adv-x="689" 
d="M197 277h293l-147 369zM513 219h-339l-87 -219h-68l287 709h76l287 -709h-68zM186 759l115 119h82l116 -119h-59l-98 84l-97 -84h-59z" />
    <glyph glyph-name="Ecircumflex" unicode="&#xca;" horiz-adv-x="569" 
d="M94 0v709h418v-58h-355v-267h324v-58h-324v-268h355v-58h-418zM148 759l115 119h82l116 -119h-59l-98 84l-97 -84h-59z" />
    <glyph glyph-name="Aacute" unicode="&#xc1;" horiz-adv-x="689" 
d="M197 277h293l-147 369zM513 219h-339l-87 -219h-68l287 709h76l287 -709h-68zM373 759h-58l107 119h84z" />
    <glyph glyph-name="Edieresis" unicode="&#xcb;" horiz-adv-x="569" 
d="M94 0v709h418v-58h-355v-267h324v-58h-324v-268h355v-58h-418zM364 819q0 18 12.5 30.5t29.5 12.5q19 0 31.5 -12.5t12.5 -30.5t-12.5 -30.5t-31.5 -12.5q-17 0 -29.5 12.5t-12.5 30.5zM161 819q0 18 12.5 30.5t30.5 12.5t30.5 -12.5t12.5 -30.5t-12.5 -30.5t-30.5 -12.5
t-30.5 12.5t-12.5 30.5z" />
    <glyph glyph-name="Egrave" unicode="&#xc8;" horiz-adv-x="569" 
d="M94 0v709h418v-58h-355v-267h324v-58h-324v-268h355v-58h-418zM166 878h84l107 -119h-57z" />
    <glyph glyph-name="Iacute" unicode="&#xcd;" horiz-adv-x="252" 
d="M94 0v709h64v-709h-64zM156 759h-58l107 119h84z" />
    <glyph glyph-name="Icircumflex" unicode="&#xce;" horiz-adv-x="252" 
d="M94 0v709h64v-709h-64zM-29 759l115 119h82l116 -119h-59l-98 84l-97 -84h-59z" />
    <glyph glyph-name="Idieresis" unicode="&#xcf;" horiz-adv-x="252" 
d="M153 819q0 17 11.5 28.5t27.5 11.5q17 0 28.5 -11.5t11.5 -28.5t-11.5 -28.5t-28.5 -11.5q-16 0 -27.5 11.5t-11.5 28.5zM21 819q0 17 11 28.5t28 11.5t28.5 -11.5t11.5 -28.5t-11.5 -28.5t-28.5 -11.5t-28 11.5t-11 28.5zM94 0v709h64v-709h-64z" />
    <glyph glyph-name="Igrave" unicode="&#xcc;" horiz-adv-x="252" 
d="M94 0v709h64v-709h-64zM-37 878h84l107 -119h-57z" />
    <glyph glyph-name="Oacute" unicode="&#xd3;" horiz-adv-x="784" 
d="M46 354q0 89 29.5 157.5t78 115.5t111 71t127.5 24t127.5 -24t111 -71t78.5 -115.5t30 -157.5t-30 -157.5t-78.5 -115t-111 -70.5t-127.5 -24t-127.5 24t-111 70.5t-78 115t-29.5 157.5zM110 354q0 -76 23.5 -133.5t63 -96.5t90.5 -59t105 -20t105 20t90.5 59t63.5 96.5
t24 133.5t-24 134t-63.5 97t-90.5 59t-105 20t-105 -20t-90.5 -59t-63 -97t-23.5 -134zM417 759h-58l107 119h84z" />
    <glyph glyph-name="Ocircumflex" unicode="&#xd4;" horiz-adv-x="784" 
d="M46 354q0 89 29.5 157.5t78 115.5t111 71t127.5 24t127.5 -24t111 -71t78.5 -115.5t30 -157.5t-30 -157.5t-78.5 -115t-111 -70.5t-127.5 -24t-127.5 24t-111 70.5t-78 115t-29.5 157.5zM110 354q0 -76 23.5 -133.5t63 -96.5t90.5 -59t105 -20t105 20t90.5 59t63.5 96.5
t24 133.5t-24 134t-63.5 97t-90.5 59t-105 20t-105 -20t-90.5 -59t-63 -97t-23.5 -134zM236 759l115 119h82l116 -119h-59l-98 84l-97 -84h-59z" />
    <glyph glyph-name="apple" horiz-adv-x="0" 
 />
    <glyph glyph-name="Ograve" unicode="&#xd2;" horiz-adv-x="784" 
d="M46 354q0 89 29.5 157.5t78 115.5t111 71t127.5 24t127.5 -24t111 -71t78.5 -115.5t30 -157.5t-30 -157.5t-78.5 -115t-111 -70.5t-127.5 -24t-127.5 24t-111 70.5t-78 115t-29.5 157.5zM110 354q0 -76 23.5 -133.5t63 -96.5t90.5 -59t105 -20t105 20t90.5 59t63.5 96.5
t24 133.5t-24 134t-63.5 97t-90.5 59t-105 20t-105 -20t-90.5 -59t-63 -97t-23.5 -134zM236 878h84l107 -119h-57z" />
    <glyph glyph-name="Uacute" unicode="&#xda;" horiz-adv-x="654" 
d="M327 -13q-54 0 -98.5 16t-77 47.5t-50 78t-17.5 107.5v473h63v-470q0 -94 46 -144t134 -50t134 50t46 144v470h63v-473q0 -60 -17.5 -106.5t-49.5 -78t-77 -48t-99 -16.5zM332 759h-58l107 119h84z" />
    <glyph glyph-name="Ucircumflex" unicode="&#xdb;" horiz-adv-x="654" 
d="M327 -13q-54 0 -98.5 16t-77 47.5t-50 78t-17.5 107.5v473h63v-470q0 -94 46 -144t134 -50t134 50t46 144v470h63v-473q0 -60 -17.5 -106.5t-49.5 -78t-77 -48t-99 -16.5zM171 759l115 119h82l116 -119h-59l-98 84l-97 -84h-59z" />
    <glyph glyph-name="Ugrave" unicode="&#xd9;" horiz-adv-x="654" 
d="M327 -13q-54 0 -98.5 16t-77 47.5t-50 78t-17.5 107.5v473h63v-470q0 -94 46 -144t134 -50t134 50t46 144v470h63v-473q0 -60 -17.5 -106.5t-49.5 -78t-77 -48t-99 -16.5zM189 878h84l107 -119h-57z" />
    <glyph glyph-name="dotlessi" unicode="&#x131;" horiz-adv-x="227" 
d="M84 0v477h59v-477h-59z" />
    <glyph glyph-name="circumflex" unicode="&#x2c6;" horiz-adv-x="374" 
d="M41 538l110 137h72l110 -137h-54l-92 99l-92 -99h-54z" />
    <glyph glyph-name="tilde" unicode="&#x2dc;" horiz-adv-x="381" 
d="M342 648q0 -48 -25 -72.5t-60 -24.5q-20 0 -35 6.5t-29 16.5l-19 15q-11 9 -22 14.5t-25 5.5q-40 0 -40 -55h-47v12q0 46 24.5 70.5t60.5 24.5q21 0 37 -8t31 -19l18 -13q11 -8 21 -13t23 -5q40 0 40 56h47v-11z" />
    <glyph glyph-name="macron" unicode="&#xaf;" horiz-adv-x="336" 
d="M41 581v52h254v-52h-254z" />
    <glyph glyph-name="breve" unicode="&#x2d8;" horiz-adv-x="362" 
d="M181 538q-34 0 -60 12t-43.5 31.5t-27 44t-9.5 50.5h47q1 -16 6.5 -32t17 -28.5t28.5 -20.5t41 -8t41 8t28.5 20.5t17 28.5t6.5 32h47q0 -26 -9 -50.5t-26.5 -44t-44 -31.5t-60.5 -12z" />
    <glyph glyph-name="dotaccent" unicode="&#x2d9;" horiz-adv-x="168" 
d="M37 607q0 20 13.5 33.5t33.5 13.5t33.5 -13.5t13.5 -33.5t-13.5 -33.5t-33.5 -13.5t-33.5 13.5t-13.5 33.5z" />
    <glyph glyph-name="ring" unicode="&#x2da;" horiz-adv-x="292" 
d="M251 635q0 -22 -8.5 -41t-22.5 -33.5t-33 -22.5t-41 -8q-21 0 -40.5 8t-33.5 22.5t-22.5 33.5t-8.5 41t8.5 41t22.5 33t33.5 22.5t40.5 8.5q22 0 41 -8.5t33 -22.5t22.5 -33t8.5 -41zM207 635q0 26 -17.5 44.5t-43.5 18.5t-43.5 -18.5t-17.5 -44.5t17.5 -44.5t43.5 -18.5
t43.5 18.5t17.5 44.5z" />
    <glyph glyph-name="cedilla" unicode="&#xb8;" horiz-adv-x="298" 
d="M91 -66l48 74h48l-44 -65q10 5 22 5q41 0 66 -20.5t25 -55.5t-27 -58.5t-81 -23.5q-35 0 -64 14t-44 33l27 32q11 -14 31.5 -26.5t48.5 -12.5q29 0 45.5 11t16.5 31q0 19 -14.5 30t-42.5 11q-9 0 -18.5 -1.5t-18.5 -6.5z" />
    <glyph glyph-name="hungarumlaut" unicode="&#x2dd;" horiz-adv-x="328" 
d="M194 537h-44l75 139h67zM88 537h-44l63 139h67z" />
    <glyph glyph-name="ogonek" unicode="&#x2db;" horiz-adv-x="230" 
d="M41 -117q0 24 8.5 44t22 36t30 28t32.5 21l41 -12q-14 -7 -28.5 -17.5t-26.5 -24t-20 -29.5t-8 -35q0 -29 18.5 -43t44.5 -14q19 0 34 5v-44q-9 -4 -19.5 -6t-25.5 -2q-43 0 -73 24t-30 69z" />
    <glyph glyph-name="caron" unicode="&#x2c7;" horiz-adv-x="374" 
d="M96 676l91 -100l91 100h55l-109 -138h-74l-109 138h55z" />
    <glyph glyph-name="AEacute" unicode="&#x1fc;" horiz-adv-x="993" 
d="M517 268v385l-251 -385h251zM517 0v212h-288l-138 -212h-80l472 709h452v-58h-355v-267h324v-58h-324v-268h355v-58h-418zM574 759h-58l107 119h84z" />
    <glyph glyph-name="Abreve" unicode="&#x102;" horiz-adv-x="689" 
d="M197 277h293l-147 369zM513 219h-339l-87 -219h-68l287 709h76l287 -709h-68zM343 754q-34 0 -60 10.5t-44 28.5t-28 40.5t-12 46.5h51q1 -14 7.5 -28t17.5 -25t28 -18t40 -7t39.5 7t28 18t17.5 25t7 28h51q-2 -24 -11.5 -46.5t-27.5 -40.5t-44 -28.5t-60 -10.5z" />
    <glyph glyph-name="Amacron" unicode="&#x100;" horiz-adv-x="689" 
d="M197 277h293l-147 369zM513 219h-339l-87 -219h-68l287 709h76l287 -709h-68zM207 793v53h272v-53h-272z" />
    <glyph glyph-name="Aogonek" unicode="&#x104;" horiz-adv-x="689" 
d="M635 -210q-43 0 -73.5 24t-30.5 69q0 41 23 69.5t52 47.5h-5l-88 219h-339l-87 -219h-68l287 709h76l287 -709l-3 -1q-14 -7 -28.5 -17.5t-26.5 -23.5t-20 -29t-8 -35q0 -29 18.5 -43t44.5 -14q19 0 34 5v-44q-9 -4 -19.5 -6t-25.5 -2zM197 277h293l-147 369z" />
    <glyph glyph-name="Aringacute" unicode="&#x1fa;" horiz-adv-x="689" 
d="M372 902h-56l103 112h82zM399 767q0 25 -16 41.5t-41 16.5q-23 0 -39 -16.5t-16 -41.5t16 -41t39 -16q25 0 41 16t16 41zM197 277h293l-147 369zM444 767q0 -29 -14 -51.5t-37 -34.5l276 -681h-68l-88 219h-339l-87 -219h-68l276 680q-23 13 -37.5 35.5t-14.5 51.5
q0 21 8 39.5t21.5 32t31.5 21.5t39 8t39 -8t32 -21.5t22 -32t8 -39.5z" />
    <glyph glyph-name="Cacute" unicode="&#x106;" horiz-adv-x="742" 
d="M393 -13q-66 0 -128.5 24t-111 70.5t-78 115t-29.5 157.5t29.5 157.5t78.5 115.5t111.5 71t127.5 24q60 0 110.5 -16.5t89.5 -46t66 -71t39 -92.5l-57 -20q-21 88 -86 138t-162 50q-54 0 -105 -20t-90.5 -59t-63.5 -97t-24 -134t24 -133.5t63.5 -96.5t90.5 -59t105 -20
q50 0 91.5 14t74 39.5t54.5 60.5t33 77l55 -20q-13 -50 -40 -92t-66.5 -72.5t-90.5 -47.5t-111 -17zM419 759h-58l107 119h84z" />
    <glyph glyph-name="Ccaron" unicode="&#x10c;" horiz-adv-x="742" 
d="M393 -13q-66 0 -128.5 24t-111 70.5t-78 115t-29.5 157.5t29.5 157.5t78.5 115.5t111.5 71t127.5 24q60 0 110.5 -16.5t89.5 -46t66 -71t39 -92.5l-57 -20q-21 88 -86 138t-162 50q-54 0 -105 -20t-90.5 -59t-63.5 -97t-24 -134t24 -133.5t63.5 -96.5t90.5 -59t105 -20
q50 0 91.5 14t74 39.5t54.5 60.5t33 77l55 -20q-13 -50 -40 -92t-66.5 -72.5t-90.5 -47.5t-111 -17zM299 878l97 -84l98 84h59l-116 -119h-82l-115 119h59z" />
    <glyph glyph-name="Ccircumflex" unicode="&#x108;" horiz-adv-x="742" 
d="M393 -13q-66 0 -128.5 24t-111 70.5t-78 115t-29.5 157.5t29.5 157.5t78.5 115.5t111.5 71t127.5 24q60 0 110.5 -16.5t89.5 -46t66 -71t39 -92.5l-57 -20q-21 88 -86 138t-162 50q-54 0 -105 -20t-90.5 -59t-63.5 -97t-24 -134t24 -133.5t63.5 -96.5t90.5 -59t105 -20
q50 0 91.5 14t74 39.5t54.5 60.5t33 77l55 -20q-13 -50 -40 -92t-66.5 -72.5t-90.5 -47.5t-111 -17zM243 759l115 119h82l116 -119h-59l-98 84l-97 -84h-59z" />
    <glyph glyph-name="Cdotaccent" unicode="&#x10a;" horiz-adv-x="742" 
d="M393 -13q-66 0 -128.5 24t-111 70.5t-78 115t-29.5 157.5t29.5 157.5t78.5 115.5t111.5 71t127.5 24q60 0 110.5 -16.5t89.5 -46t66 -71t39 -92.5l-57 -20q-21 88 -86 138t-162 50q-54 0 -105 -20t-90.5 -59t-63.5 -97t-24 -134t24 -133.5t63.5 -96.5t90.5 -59t105 -20
q50 0 91.5 14t74 39.5t54.5 60.5t33 77l55 -20q-13 -50 -40 -92t-66.5 -72.5t-90.5 -47.5t-111 -17zM350 819q0 20 14 33.5t34 13.5t33.5 -13.5t13.5 -33.5t-13.5 -34t-33.5 -14t-34 14t-14 34z" />
    <glyph glyph-name="Ebreve" unicode="&#x114;" horiz-adv-x="569" 
d="M94 0v709h418v-58h-355v-267h324v-58h-324v-268h355v-58h-418zM305 754q-34 0 -60 10.5t-44 28.5t-28 40.5t-12 46.5h51q1 -14 7.5 -28t17.5 -25t28 -18t40 -7t39.5 7t28 18t17.5 25t7 28h51q-2 -24 -11.5 -46.5t-27.5 -40.5t-44 -28.5t-60 -10.5z" />
    <glyph glyph-name="Ecaron" unicode="&#x11a;" horiz-adv-x="569" 
d="M94 0v709h418v-58h-355v-267h324v-58h-324v-268h355v-58h-418zM213 878l97 -84l98 84h59l-116 -119h-82l-115 119h59z" />
    <glyph glyph-name="Edotaccent" unicode="&#x116;" horiz-adv-x="569" 
d="M94 0v709h418v-58h-355v-267h324v-58h-324v-268h355v-58h-418zM258 819q0 20 14 33.5t34 13.5t33.5 -13.5t13.5 -33.5t-13.5 -34t-33.5 -14t-34 14t-14 34z" />
    <glyph glyph-name="Emacron" unicode="&#x112;" horiz-adv-x="569" 
d="M94 0v709h418v-58h-355v-267h324v-58h-324v-268h355v-58h-418zM166 793v53h272v-53h-272z" />
    <glyph glyph-name="Eogonek" unicode="&#x118;" horiz-adv-x="569" 
d="M377 -117q0 42 22.5 70t51.5 47h-357v709h418v-58h-355v-267h324v-58h-324v-268h355v-58q-14 -7 -28.5 -17.5t-26.5 -24t-20 -29.5t-8 -35q0 -29 18.5 -43t44.5 -14q19 0 34 5v-44q-9 -4 -19.5 -6t-25.5 -2q-43 0 -73.5 24t-30.5 69z" />
    <glyph glyph-name="Dcaron" unicode="&#x10e;" horiz-adv-x="697" 
d="M94 0v709h221q67 0 128.5 -23t107.5 -68t73.5 -111.5t27.5 -153.5t-27.5 -153t-74.5 -110.5t-108.5 -67t-128.5 -22.5h-219zM311 56q55 0 105 18.5t88 55.5t60.5 93t22.5 130q0 75 -22 131t-59.5 93.5t-87.5 56.5t-105 19h-156v-597h154zM248 878l97 -84l98 84h59
l-116 -119h-82l-115 119h59z" />
    <glyph glyph-name="Dcroat" unicode="&#x110;" horiz-adv-x="699" 
d="M95 0v339h-78v54h78v316h221q67 0 128.5 -23t107.5 -68t73.5 -111.5t27.5 -153.5t-27.5 -153t-74.5 -110.5t-108.5 -67t-128.5 -22.5h-219zM312 56q55 0 105.5 18.5t88.5 55.5t60.5 93t22.5 130q0 75 -22 131t-60 93.5t-88 56.5t-105 19h-155v-260h142v-54h-142v-283h153
z" />
    <glyph glyph-name="Gbreve" unicode="&#x11e;" horiz-adv-x="762" 
d="M643 0l-6 137q-10 -23 -30 -49t-51 -48.5t-74.5 -37.5t-101.5 -15q-62 0 -122 24t-107 70.5t-76 115t-29 158.5q0 89 29 157.5t77 115t110 70.5t127 24q57 0 106.5 -15.5t89 -43.5t68.5 -67t44 -87l-57 -24q-26 83 -91.5 131t-159.5 48q-54 0 -104 -19.5t-89 -58.5
t-62.5 -97t-23.5 -134q0 -77 23.5 -135t62 -97t87.5 -59t99 -20q70 0 117.5 23.5t77 58.5t42.5 75t14 74h-262v58h322v-333h-50zM383 754q-34 0 -60 10.5t-44 28.5t-28 40.5t-12 46.5h51q1 -14 7.5 -28t17.5 -25t28 -18t40 -7t39.5 7t28 18t17.5 25t7 28h51
q-2 -24 -11.5 -46.5t-27.5 -40.5t-44 -28.5t-60 -10.5z" />
    <glyph glyph-name="Gcircumflex" unicode="&#x11c;" horiz-adv-x="762" 
d="M643 0l-6 137q-10 -23 -30 -49t-51 -48.5t-74.5 -37.5t-101.5 -15q-62 0 -122 24t-107 70.5t-76 115t-29 158.5q0 89 29 157.5t77 115t110 70.5t127 24q57 0 106.5 -15.5t89 -43.5t68.5 -67t44 -87l-57 -24q-26 83 -91.5 131t-159.5 48q-54 0 -104 -19.5t-89 -58.5
t-62.5 -97t-23.5 -134q0 -77 23.5 -135t62 -97t87.5 -59t99 -20q70 0 117.5 23.5t77 58.5t42.5 75t14 74h-262v58h322v-333h-50zM234 759l115 119h82l116 -119h-59l-98 84l-97 -84h-59z" />
    <glyph glyph-name="Gcommaaccent" unicode="&#x122;" horiz-adv-x="762" 
d="M347 -84q0 19 13.5 30.5t31.5 11.5t34.5 -13.5t16.5 -45.5q0 -26 -8.5 -45.5t-22 -33t-31 -21t-36.5 -8.5v31q25 2 43 18.5t19 39.5q-6 -6 -18 -6q-19 0 -30.5 11t-11.5 31zM643 0l-6 137q-10 -23 -30 -49t-51 -48.5t-74.5 -37.5t-101.5 -15q-62 0 -122 24t-107 70.5
t-76 115t-29 158.5q0 89 29 157.5t77 115t110 70.5t127 24q57 0 106.5 -15.5t89 -43.5t68.5 -67t44 -87l-57 -24q-26 83 -91.5 131t-159.5 48q-54 0 -104 -19.5t-89 -58.5t-62.5 -97t-23.5 -134q0 -77 23.5 -135t62 -97t87.5 -59t99 -20q70 0 117.5 23.5t77 58.5t42.5 75
t14 74h-262v58h322v-333h-50z" />
    <glyph glyph-name="Gdotaccent" unicode="&#x120;" horiz-adv-x="762" 
d="M643 0l-6 137q-10 -23 -30 -49t-51 -48.5t-74.5 -37.5t-101.5 -15q-62 0 -122 24t-107 70.5t-76 115t-29 158.5q0 89 29 157.5t77 115t110 70.5t127 24q57 0 106.5 -15.5t89 -43.5t68.5 -67t44 -87l-57 -24q-26 83 -91.5 131t-159.5 48q-54 0 -104 -19.5t-89 -58.5
t-62.5 -97t-23.5 -134q0 -77 23.5 -135t62 -97t87.5 -59t99 -20q70 0 117.5 23.5t77 58.5t42.5 75t14 74h-262v58h322v-333h-50zM342 819q0 20 14 33.5t34 13.5t33.5 -13.5t13.5 -33.5t-13.5 -34t-33.5 -14t-34 14t-14 34z" />
    <glyph glyph-name="Hbar" unicode="&#x126;" horiz-adv-x="729" 
d="M567 390v136h-405v-136h405zM567 0v331h-405v-331h-63v526h-69v48h69v135h63v-135h405v135h64v-135h73v-48h-73v-526h-64z" />
    <glyph glyph-name="Hcircumflex" unicode="&#x124;" horiz-adv-x="720" 
d="M563 0v331h-406v-331h-63v709h63v-319h406v319h63v-709h-63zM202 759l115 119h82l116 -119h-59l-98 84l-97 -84h-59z" />
    <glyph glyph-name="Idotaccent" unicode="&#x130;" horiz-adv-x="252" 
d="M94 0v709h64v-709h-64zM78 819q0 20 14 33.5t34 13.5t33.5 -13.5t13.5 -33.5t-13.5 -34t-33.5 -14t-34 14t-14 34z" />
    <glyph glyph-name="Ibreve" unicode="&#x12c;" horiz-adv-x="252" 
d="M94 0v709h64v-709h-64zM127 754q-34 0 -60 10.5t-44 28.5t-28 40.5t-12 46.5h51q1 -14 7.5 -28t17.5 -25t28 -18t40 -7t39.5 7t28 18t17.5 25t7 28h51q-2 -24 -11.5 -46.5t-27.5 -40.5t-44 -28.5t-60 -10.5z" />
    <glyph glyph-name="Imacron" unicode="&#x12a;" horiz-adv-x="252" 
d="M94 0v709h64v-709h-64zM-10 793v53h272v-53h-272z" />
    <glyph glyph-name="Iogonek" unicode="&#x12e;" horiz-adv-x="252" 
d="M23 -117q0 42 22 70t51 47h-2v709h64v-709q-14 -7 -28.5 -17.5t-26.5 -24t-20 -29.5t-8 -35q0 -29 18.5 -43t43.5 -14q11 0 19 1.5t16 3.5v-44q-10 -4 -20 -6t-25 -2q-43 0 -73.5 24t-30.5 69z" />
    <glyph glyph-name="Itilde" unicode="&#x128;" horiz-adv-x="252" 
d="M94 0v709h64v-709h-64zM280 861q0 -48 -24.5 -73.5t-59.5 -25.5q-21 0 -37.5 6.5t-30.5 17.5l-19 15q-13 11 -23.5 16t-24.5 5q-42 0 -42 -56h-46v12q0 46 24.5 71.5t60.5 25.5q21 0 38.5 -8t32.5 -19l19 -14q12 -8 22 -13.5t24 -5.5q18 0 29.5 13.5t11.5 40.5v3h45v-11z
" />
    <glyph glyph-name="IJ" unicode="&#x132;" horiz-adv-x="578" 
d="M84 300v409h64v-409h-64zM148 226v-15q0 -81 37.5 -123.5t105.5 -42.5t103.5 43.5t35.5 119.5v501h64v-500q0 -48 -13.5 -88.5t-40 -70t-64 -46.5t-85.5 -17q-98 0 -152.5 59t-54.5 162v6z" />
    <glyph glyph-name="Jcircumflex" unicode="&#x134;" horiz-adv-x="518" 
d="M25 253l63 15v-57q0 -79 38 -122.5t106 -43.5t104 43.5t36 119.5v501h63v-500q0 -48 -13.5 -89t-40 -70.5t-64 -46t-85.5 -16.5q-97 0 -152 59.5t-55 161.5v45zM248 759l115 119h82l116 -119h-59l-98 84l-97 -84h-59z" />
    <glyph glyph-name="Kcommaaccent" unicode="&#x136;" horiz-adv-x="645" 
d="M299 -84q0 19 13.5 30.5t31.5 11.5t34.5 -13.5t16.5 -45.5q0 -26 -8.5 -45.5t-22 -33t-31 -21t-36.5 -8.5v31q25 2 43 18.5t19 39.5q-6 -6 -18 -6q-19 0 -30.5 11t-11.5 31zM279 349l-122 -130v-219h-63v709h63v-406l376 406h83l-295 -315l299 -394h-80z" />
    <glyph glyph-name="Lacute" unicode="&#x139;" horiz-adv-x="550" 
d="M94 0v709h63v-650h358v-59h-421zM156 759h-58l107 119h84z" />
    <glyph glyph-name="Lcaron" unicode="&#x13d;" horiz-adv-x="550" 
d="M324 573h-47l38 186h71zM94 0v709h63v-650h358v-59h-421z" />
    <glyph glyph-name="Lcommaaccent" unicode="&#x13b;" horiz-adv-x="550" 
d="M94 0v709h63v-650h358v-59h-421zM262 -84q0 19 13.5 30.5t31.5 11.5t34.5 -13.5t16.5 -45.5q0 -26 -8.5 -45.5t-22 -33t-31 -21t-36.5 -8.5v31q25 2 43 18.5t19 39.5q-6 -6 -18 -6q-19 0 -30.5 11t-11.5 31z" />
    <glyph glyph-name="Ldot" unicode="&#x13f;" horiz-adv-x="550" 
d="M94 0v709h63v-650h358v-59h-421zM320 376q0 20 13.5 33.5t33.5 13.5t33.5 -13.5t13.5 -33.5t-13.5 -33.5t-33.5 -13.5t-33.5 13.5t-13.5 33.5z" />
    <glyph glyph-name="Nacute" unicode="&#x143;" horiz-adv-x="747" 
d="M586 0l-429 630v-630h-63v709h87l409 -605v605h63v-709h-67zM373 759h-58l107 119h84z" />
    <glyph glyph-name="Ncaron" unicode="&#x147;" horiz-adv-x="747" 
d="M586 0l-429 630v-630h-63v709h87l409 -605v605h63v-709h-67zM278 878l97 -84l98 84h59l-116 -119h-82l-115 119h59z" />
    <glyph glyph-name="Ncommaaccent" unicode="&#x145;" horiz-adv-x="747" 
d="M586 0l-429 630v-630h-63v709h87l409 -605v605h63v-709h-67zM338 -84q0 19 13.5 30.5t31.5 11.5t34.5 -13.5t16.5 -45.5q0 -26 -8.5 -45.5t-22 -33t-31 -21t-36.5 -8.5v31q25 2 43 18.5t19 39.5q-6 -6 -18 -6q-19 0 -30.5 11t-11.5 31z" />
    <glyph glyph-name="Eng" unicode="&#x14a;" horiz-adv-x="745" 
d="M522 -144q36 0 51 19t15 53v64l-431 634v-626h-63v709h84l410 -606v606h63v-782q0 -56 -30 -90.5t-83 -34.5q-22 0 -35.5 2.5t-20.5 5.5v51q17 -5 40 -5z" />
    <glyph glyph-name="Obreve" unicode="&#x14e;" horiz-adv-x="784" 
d="M46 354q0 89 29.5 157.5t78 115.5t111 71t127.5 24t127.5 -24t111 -71t78.5 -115.5t30 -157.5t-30 -157.5t-78.5 -115t-111 -70.5t-127.5 -24t-127.5 24t-111 70.5t-78 115t-29.5 157.5zM110 354q0 -76 23.5 -133.5t63 -96.5t90.5 -59t105 -20t105 20t90.5 59t63.5 96.5
t24 133.5t-24 134t-63.5 97t-90.5 59t-105 20t-105 -20t-90.5 -59t-63 -97t-23.5 -134zM395 754q-34 0 -60 10.5t-44 28.5t-28 40.5t-12 46.5h51q1 -14 7.5 -28t17.5 -25t28 -18t40 -7t39.5 7t28 18t17.5 25t7 28h51q-2 -24 -11.5 -46.5t-27.5 -40.5t-44 -28.5t-60 -10.5z
" />
    <glyph glyph-name="Ohungarumlaut" unicode="&#x150;" horiz-adv-x="784" 
d="M46 354q0 89 29.5 157.5t78 115.5t111 71t127.5 24t127.5 -24t111 -71t78.5 -115.5t30 -157.5t-30 -157.5t-78.5 -115t-111 -70.5t-127.5 -24t-127.5 24t-111 70.5t-78 115t-29.5 157.5zM110 354q0 -76 23.5 -133.5t63 -96.5t90.5 -59t105 -20t105 20t90.5 59t63.5 96.5
t24 133.5t-24 134t-63.5 97t-90.5 59t-105 20t-105 -20t-90.5 -59t-63 -97t-23.5 -134zM463 759h-45l81 119h68zM348 759h-44l65 119h67z" />
    <glyph glyph-name="Omacron" unicode="&#x14c;" horiz-adv-x="784" 
d="M46 354q0 89 29.5 157.5t78 115.5t111 71t127.5 24t127.5 -24t111 -71t78.5 -115.5t30 -157.5t-30 -157.5t-78.5 -115t-111 -70.5t-127.5 -24t-127.5 24t-111 70.5t-78 115t-29.5 157.5zM110 354q0 -76 23.5 -133.5t63 -96.5t90.5 -59t105 -20t105 20t90.5 59t63.5 96.5
t24 133.5t-24 134t-63.5 97t-90.5 59t-105 20t-105 -20t-90.5 -59t-63 -97t-23.5 -134zM257 793v53h272v-53h-272z" />
    <glyph glyph-name="Oslashacute" unicode="&#x1fe;" horiz-adv-x="784" 
d="M110 354q0 -74 22 -130t59 -95l371 478q-36 28 -80 42.5t-90 14.5q-54 0 -105 -20t-90.5 -59t-63 -97t-23.5 -134zM675 354q0 69 -20 123t-53 93l-370 -476q35 -25 76 -37t84 -12q54 0 105 20t90.5 59t63.5 96.5t24 133.5zM46 354q0 89 29.5 157.5t78 115.5t111 71
t127.5 24q55 0 108 -17t98 -52l75 96l43 -32l-77 -99q45 -46 72.5 -112t27.5 -152q0 -89 -30 -157.5t-78.5 -115t-111 -70.5t-127.5 -24q-52 0 -102 15t-94 45l-70 -90l-43 32l71 92q-49 47 -78.5 115t-29.5 158zM419 759h-58l107 119h84z" />
    <glyph glyph-name="Racute" unicode="&#x154;" horiz-adv-x="605" 
d="M331 364q71 0 114 39t43 104q0 66 -43 105.5t-114 39.5h-173v-288h173zM306 306h-148v-306h-64v709h248q48 0 86.5 -15.5t66.5 -42.5t43 -64t15 -80q0 -39 -12.5 -72.5t-36 -59t-56.5 -42.5t-73 -22l176 -311h-74zM307 759h-58l107 119h84z" />
    <glyph glyph-name="Rcaron" unicode="&#x158;" horiz-adv-x="605" 
d="M331 364q71 0 114 39t43 104q0 66 -43 105.5t-114 39.5h-173v-288h173zM306 306h-148v-306h-64v709h248q48 0 86.5 -15.5t66.5 -42.5t43 -64t15 -80q0 -39 -12.5 -72.5t-36 -59t-56.5 -42.5t-73 -22l176 -311h-74zM197 878l97 -84l98 84h59l-116 -119h-82l-115 119h59z
" />
    <glyph glyph-name="Rcommaaccent" unicode="&#x156;" horiz-adv-x="605" 
d="M331 364q71 0 114 39t43 104q0 66 -43 105.5t-114 39.5h-173v-288h173zM306 306h-148v-306h-64v709h248q48 0 86.5 -15.5t66.5 -42.5t43 -64t15 -80q0 -39 -12.5 -72.5t-36 -59t-56.5 -42.5t-73 -22l176 -311h-74zM277 -84q0 19 13.5 30.5t31.5 11.5t34.5 -13.5
t16.5 -45.5q0 -26 -8.5 -45.5t-22 -33t-31 -21t-36.5 -8.5v31q25 2 43 18.5t19 39.5q-6 -6 -18 -6q-19 0 -30.5 11t-11.5 31z" />
    <glyph glyph-name="Sacute" unicode="&#x15a;" horiz-adv-x="575" 
d="M466 528q-6 27 -18.5 52t-33.5 44t-51 30.5t-70 11.5q-32 0 -61 -10t-51.5 -28.5t-36 -44.5t-13.5 -57q0 -48 29 -80t83 -45l108 -25q83 -20 130.5 -67.5t47.5 -122.5q0 -41 -16.5 -77t-47.5 -63t-74 -43t-97 -16q-59 0 -104 18t-77 47t-50.5 67t-22.5 79l59 19
q3 -35 17.5 -66t39.5 -55t59.5 -38t78.5 -14q41 0 73 10.5t54 29t33.5 43.5t11.5 54q0 50 -33 84.5t-94 48.5l-107 25q-36 8 -66 23.5t-51.5 38.5t-34 53t-12.5 68q0 41 18.5 77.5t49 63.5t71 43t84.5 16q54 0 94.5 -14.5t68 -38.5t44 -55.5t24.5 -65.5zM315 759h-58
l107 119h84z" />
    <glyph glyph-name="Scedilla" unicode="&#x15e;" horiz-adv-x="575" 
d="M466 528q-6 27 -18.5 52t-33.5 44t-51 30.5t-70 11.5q-32 0 -61 -10.5t-51.5 -29t-36 -44t-13.5 -56.5q0 -48 29 -80t83 -45l108 -25q83 -20 130.5 -67.5t47.5 -122.5q0 -38 -14 -71.5t-40 -59.5t-63 -43.5t-83 -22.5l-30 -46q8 5 21 5q42 0 67 -20.5t25 -55.5
t-27.5 -58.5t-81.5 -23.5q-35 0 -63.5 14t-43.5 33l27 32q11 -14 31 -26.5t49 -12.5q28 0 44.5 11t16.5 31q0 19 -14 30t-43 11q-8 0 -18 -1.5t-18 -6.5l-24 29l35 53q-55 2 -98 20t-73.5 47.5t-48.5 67t-22 77.5l59 19q3 -35 17.5 -66.5t39.5 -55.5t59.5 -38t78.5 -14
q41 0 73 10.5t54 29t33.5 43.5t11.5 54q0 50 -33.5 84.5t-93.5 48.5l-107 25q-36 8 -66 23.5t-51.5 38.5t-34 53t-12.5 68q0 41 18.5 77.5t49 63.5t71 43t84.5 16q54 0 94.5 -14.5t68 -38.5t44 -55.5t24.5 -65.5z" />
    <glyph glyph-name="Scircumflex" unicode="&#x15c;" horiz-adv-x="575" 
d="M466 528q-6 27 -18.5 52t-33.5 44t-51 30.5t-70 11.5q-32 0 -61 -10t-51.5 -28.5t-36 -44.5t-13.5 -57q0 -48 29 -80t83 -45l108 -25q83 -20 130.5 -67.5t47.5 -122.5q0 -41 -16.5 -77t-47.5 -63t-74 -43t-97 -16q-59 0 -104 18t-77 47t-50.5 67t-22.5 79l59 19
q3 -35 17.5 -66t39.5 -55t59.5 -38t78.5 -14q41 0 73 10.5t54 29t33.5 43.5t11.5 54q0 50 -33 84.5t-94 48.5l-107 25q-36 8 -66 23.5t-51.5 38.5t-34 53t-12.5 68q0 41 18.5 77.5t49 63.5t71 43t84.5 16q54 0 94.5 -14.5t68 -38.5t44 -55.5t24.5 -65.5zM148 759l115 119h82
l116 -119h-59l-98 84l-97 -84h-59z" />
    <glyph glyph-name="Scommaaccent" unicode="&#x218;" horiz-adv-x="575" 
d="M466 528q-6 27 -18.5 52t-33.5 44t-51 30.5t-70 11.5q-32 0 -61 -10t-51.5 -28.5t-36 -44.5t-13.5 -57q0 -48 29 -80t83 -45l108 -25q83 -20 130.5 -67.5t47.5 -122.5q0 -41 -16.5 -77t-47.5 -63t-74 -43t-97 -16q-59 0 -104 18t-77 47t-50.5 67t-22.5 79l59 19
q3 -35 17.5 -66t39.5 -55t59.5 -38t78.5 -14q41 0 73 10.5t54 29t33.5 43.5t11.5 54q0 50 -33 84.5t-94 48.5l-107 25q-36 8 -66 23.5t-51.5 38.5t-34 53t-12.5 68q0 41 18.5 77.5t49 63.5t71 43t84.5 16q54 0 94.5 -14.5t68 -38.5t44 -55.5t24.5 -65.5zM252 -84
q0 19 13.5 30.5t31.5 11.5t34.5 -13.5t16.5 -45.5q0 -26 -8.5 -45.5t-22 -33t-31 -21t-36.5 -8.5v31q25 2 43 18.5t19 39.5q-6 -6 -18 -6q-19 0 -30.5 11t-11.5 31z" />
    <glyph glyph-name="Tcaron" unicode="&#x164;" horiz-adv-x="610" 
d="M337 651v-651h-64v651h-250v58h565v-58h-251zM207 878l97 -84l98 84h59l-116 -119h-82l-115 119h59z" />
    <glyph glyph-name="Tcommaaccent" unicode="&#x162;" horiz-adv-x="610" 
d="M258 -84q0 19 13.5 30.5t31.5 11.5t34.5 -13.5t16.5 -45.5q0 -26 -8.5 -45.5t-22 -33t-31 -21t-36.5 -8.5v31q25 2 43 18.5t19 39.5q-6 -6 -18 -6q-19 0 -30.5 11t-11.5 31zM337 651v-651h-64v651h-250v58h565v-58h-251z" />
    <glyph glyph-name="Tbar" unicode="&#x166;" horiz-adv-x="612" 
d="M339 651v-280h126v-53h-126v-318h-64v318h-125v53h125v280h-251v58h566v-58h-251z" />
    <glyph glyph-name="Tcedilla" horiz-adv-x="621" 
d="M300 -210q-35 0 -64 14t-44 33l27 32q11 -14 31.5 -26.5t48.5 -12.5q29 0 45.5 11t16.5 31q0 19 -14.5 30t-42.5 11q-9 0 -18.5 -1.5t-18.5 -6.5l-24 29l43 66h-13v651h-250v58h565v-58h-251v-643h2l-2 -3v-5h-3l-39 -57q10 5 22 5q41 0 66 -20.5t25 -55.5t-27 -58.5
t-81 -23.5z" />
    <glyph glyph-name="Ubreve" unicode="&#x16c;" horiz-adv-x="654" 
d="M327 -13q-54 0 -98.5 16t-77 47.5t-50 78t-17.5 107.5v473h63v-470q0 -94 46 -144t134 -50t134 50t46 144v470h63v-473q0 -60 -17.5 -106.5t-49.5 -78t-77 -48t-99 -16.5zM329 754q-34 0 -60 10.5t-44 28.5t-28 40.5t-12 46.5h51q1 -14 7.5 -28t17.5 -25t28 -18t40 -7
t39.5 7t28 18t17.5 25t7 28h51q-2 -24 -11.5 -46.5t-27.5 -40.5t-44 -28.5t-60 -10.5z" />
    <glyph glyph-name="Uhungarumlaut" unicode="&#x170;" horiz-adv-x="654" 
d="M327 -13q-54 0 -98.5 16t-77 47.5t-50 78t-17.5 107.5v473h63v-470q0 -94 46 -144t134 -50t134 50t46 144v470h63v-473q0 -60 -17.5 -106.5t-49.5 -78t-77 -48t-99 -16.5zM391 759h-45l81 119h68zM276 759h-44l65 119h67z" />
    <glyph glyph-name="Umacron" unicode="&#x16a;" horiz-adv-x="654" 
d="M327 -13q-54 0 -98.5 16t-77 47.5t-50 78t-17.5 107.5v473h63v-470q0 -94 46 -144t134 -50t134 50t46 144v470h63v-473q0 -60 -17.5 -106.5t-49.5 -78t-77 -48t-99 -16.5zM192 793v53h272v-53h-272z" />
    <glyph glyph-name="Uogonek" unicode="&#x172;" horiz-adv-x="654" 
d="M269 -117q0 35 16.5 60.5t39.5 43.5h-5q-53 1 -96 17.5t-74.5 48t-48.5 77.5t-17 106v473h63v-470q0 -94 46 -144t134 -50t134 50t46 144v470h63v-473q0 -100 -46 -160.5t-124 -79.5q-8 -2 -12 -6q-26 -17 -46.5 -40.5t-20.5 -55.5q0 -29 18.5 -43t43.5 -14q20 0 35 5
v-44q-10 -4 -20 -6t-25 -2q-43 0 -73.5 24t-30.5 69z" />
    <glyph glyph-name="Uring" unicode="&#x16e;" horiz-adv-x="654" 
d="M327 -13q-54 0 -98.5 16t-77 47.5t-50 78t-17.5 107.5v473h63v-470q0 -94 46 -144t134 -50t134 50t46 144v470h63v-473q0 -60 -17.5 -106.5t-49.5 -78t-77 -48t-99 -16.5zM429 845q0 -21 -8 -39.5t-22 -32t-32 -21t-39 -7.5t-39 7.5t-31.5 21t-21.5 32t-8 39.5t8 40
t21.5 32.5t31.5 21.5t39 8t39 -8t32 -21.5t22 -32.5t8 -40zM384 845q0 25 -16 42t-40 17t-40 -17t-16 -42q0 -24 16 -40.5t40 -16.5t40 16.5t16 40.5z" />
    <glyph glyph-name="Utilde" unicode="&#x168;" horiz-adv-x="654" 
d="M327 -13q-54 0 -98.5 16t-77 47.5t-50 78t-17.5 107.5v473h63v-470q0 -94 46 -144t134 -50t134 50t46 144v470h63v-473q0 -60 -17.5 -106.5t-49.5 -78t-77 -48t-99 -16.5zM482 861q0 -48 -24.5 -73.5t-59.5 -25.5q-21 0 -37.5 6.5t-30.5 17.5l-19 15q-13 11 -23.5 16
t-24.5 5q-42 0 -42 -56h-46v12q0 46 24.5 71.5t60.5 25.5q21 0 38.5 -8t32.5 -19l19 -14q12 -8 22 -13.5t24 -5.5q18 0 29.5 13.5t11.5 40.5v3h45v-11z" />
    <glyph glyph-name="Wacute" unicode="&#x1e82;" horiz-adv-x="984" 
d="M898 709h65l-204 -709h-69l-198 626l-198 -626h-66l-207 709h66l176 -616l195 616h69l197 -620zM523 759h-58l107 119h84z" />
    <glyph glyph-name="Wcircumflex" unicode="&#x174;" horiz-adv-x="984" 
d="M898 709h65l-204 -709h-69l-198 626l-198 -626h-66l-207 709h66l176 -616l195 616h69l197 -620zM335 759l115 119h82l116 -119h-59l-98 84l-97 -84h-59z" />
    <glyph glyph-name="Wdieresis" unicode="&#x1e84;" horiz-adv-x="984" 
d="M898 709h65l-204 -709h-69l-198 626l-198 -626h-66l-207 709h66l176 -616l195 616h69l197 -620zM581 819q0 18 12.5 30.5t29.5 12.5q19 0 31.5 -12.5t12.5 -30.5t-12.5 -30.5t-31.5 -12.5q-17 0 -29.5 12.5t-12.5 30.5zM318 819q0 18 12.5 30.5t30.5 12.5t30.5 -12.5
t12.5 -30.5t-12.5 -30.5t-30.5 -12.5t-30.5 12.5t-12.5 30.5z" />
    <glyph glyph-name="Wgrave" unicode="&#x1e80;" horiz-adv-x="984" 
d="M898 709h65l-204 -709h-69l-198 626l-198 -626h-66l-207 709h66l176 -616l195 616h69l197 -620zM330 878h84l107 -119h-57z" />
    <glyph glyph-name="uni1E8A" unicode="&#x1e8a;" horiz-adv-x="598" 
d="M336 356l238 -356h-75l-200 305l-202 -305h-74l240 356l-238 353h76l199 -304l200 304h75zM251 819q0 20 14 33.5t34 13.5t33.5 -13.5t13.5 -33.5t-13.5 -34t-33.5 -14t-34 14t-14 34z" />
    <glyph glyph-name="Ycircumflex" unicode="&#x176;" horiz-adv-x="597" 
d="M19 709h76l206 -347l205 347h72l-248 -406v-303h-62v303zM142 759l115 119h82l116 -119h-59l-98 84l-97 -84h-59z" />
    <glyph glyph-name="Ygrave" unicode="&#x1ef2;" horiz-adv-x="597" 
d="M19 709h76l206 -347l205 347h72l-248 -406v-303h-62v303zM150 878h84l107 -119h-57z" />
    <glyph glyph-name="Zacute" unicode="&#x179;" horiz-adv-x="620" 
d="M46 0v65l466 586h-460v58h534v-63l-467 -587h470v-59h-543zM323 759h-58l107 119h84z" />
    <glyph glyph-name="Zdotaccent" unicode="&#x17b;" horiz-adv-x="620" 
d="M46 0v65l466 586h-460v58h534v-63l-467 -587h470v-59h-543zM273 819q0 20 14 33.5t34 13.5t33.5 -13.5t13.5 -33.5t-13.5 -34t-33.5 -14t-34 14t-14 34z" />
    <glyph glyph-name="uni01B5" unicode="&#x1b5;" horiz-adv-x="633" 
d="M52 0v65l222 278h-168v54h211l201 254h-459v58h533v-63l-198 -249h152v-54h-195l-226 -284h470v-59h-543z" />
    <glyph glyph-name="uni018F" unicode="&#x18f;" horiz-adv-x="780" 
d="M385 722q70 0 133.5 -24t111.5 -70.5t76.5 -115t28.5 -157.5q0 -90 -29 -158.5t-77 -115t-110.5 -70.5t-128.5 -24q-68 0 -130 24.5t-109.5 70.5t-76 112.5t-28.5 150.5v14h624q-2 76 -25.5 133t-62.5 95t-90 57.5t-107 19.5q-47 0 -90 -14t-78.5 -39t-61.5 -60t-39 -78
l-57 20q16 51 48 93t74.5 72t94.5 47t109 17zM596 141q29 30 47.5 70.5t23.5 91.5h-557q4 -49 21.5 -88.5t46.5 -68.5q36 -51 92.5 -76t119.5 -25q61 0 114.5 24t91.5 72z" />
    <glyph glyph-name="abreve" unicode="&#x103;" horiz-adv-x="504" 
d="M215 39q34 0 63 11t50 31t32.5 49t11.5 65v57q-2 -2 -9 -5t-16.5 -5.5t-19.5 -5t-18 -3.5l-106 -16q-42 -6 -66 -29t-24 -62q0 -33 26 -60t76 -27zM51 123q0 61 39 95.5t105 45.5l127 19q29 5 39.5 17.5t10.5 29.5q0 48 -31 78t-89 30q-57 0 -92.5 -30t-40.5 -82l-58 13
q4 34 20 62t41 48t58 30.5t71 10.5q46 0 80.5 -13t56.5 -35.5t33 -53t11 -64.5v-242q0 -29 2 -48t4 -34h-58q-2 8 -4 30.5t-2 51.5q-9 -17 -23.5 -33.5t-35.5 -30t-47.5 -22t-59.5 -8.5q-38 0 -67 11.5t-49 30t-30.5 43t-10.5 50.5zM254 538q-34 0 -60 12t-43.5 31.5t-27 44
t-9.5 50.5h47q1 -16 6.5 -32t17 -28.5t28.5 -20.5t41 -8t41 8t28.5 20.5t17 28.5t6.5 32h47q0 -26 -9 -50.5t-26.5 -44t-44 -31.5t-60.5 -12z" />
    <glyph glyph-name="amacron" unicode="&#x101;" horiz-adv-x="504" 
d="M215 39q34 0 63 11t50 31t32.5 49t11.5 65v57q-2 -2 -9 -5t-16.5 -5.5t-19.5 -5t-18 -3.5l-106 -16q-42 -6 -66 -29t-24 -62q0 -33 26 -60t76 -27zM51 123q0 61 39 95.5t105 45.5l127 19q29 5 39.5 17.5t10.5 29.5q0 48 -31 78t-89 30q-57 0 -92.5 -30t-40.5 -82l-58 13
q4 34 20 62t41 48t58 30.5t71 10.5q46 0 80.5 -13t56.5 -35.5t33 -53t11 -64.5v-242q0 -29 2 -48t4 -34h-58q-2 8 -4 30.5t-2 51.5q-9 -17 -23.5 -33.5t-35.5 -30t-47.5 -22t-59.5 -8.5q-38 0 -67 11.5t-49 30t-30.5 43t-10.5 50.5zM128 581v52h254v-52h-254z" />
    <glyph glyph-name="aogonek" unicode="&#x105;" horiz-adv-x="504" 
d="M304 -117q0 42 23.5 71t52.5 47q-2 7 -4 29.5t-2 51.5q-9 -17 -23.5 -33.5t-35.5 -30t-47.5 -22t-59.5 -8.5q-38 0 -67 11.5t-49 30t-30.5 43t-10.5 50.5q0 61 39 95.5t105 45.5l127 19q29 5 39.5 17.5t10.5 29.5q0 48 -31 78t-89 30q-57 0 -92.5 -30t-40.5 -82l-58 13
q4 34 20 62t41 48t58 30.5t71 10.5q46 0 80.5 -13t56.5 -35.5t33 -53t11 -64.5v-242q0 -29 2 -48t4 -34q-14 -7 -28.5 -17.5t-26.5 -24t-19.5 -29.5t-7.5 -35q0 -29 18.5 -43t43.5 -14q20 0 35 5v-44q-9 -4 -19.5 -6t-25.5 -2q-43 0 -73.5 24t-30.5 69zM215 39q34 0 63 11
t50 31t32.5 49t11.5 65v57q-2 -2 -9 -5t-16.5 -5.5t-19.5 -5t-18 -3.5l-106 -16q-41 -6 -65.5 -29t-24.5 -62q0 -33 26 -60t76 -27z" />
    <glyph glyph-name="aringacute" unicode="&#x1fb;" horiz-adv-x="504" 
d="M215 39q34 0 63 11t50 31t32.5 49t11.5 65v57q-2 -2 -9 -5t-16.5 -5.5t-19.5 -5t-18 -3.5l-106 -16q-42 -6 -66 -29t-24 -62q0 -33 26 -60t76 -27zM51 123q0 61 39 95.5t105 45.5l127 19q29 5 39.5 17.5t10.5 29.5q0 48 -31 78t-89 30q-57 0 -92.5 -30t-40.5 -82l-58 13
q4 34 20 62t41 48t58 30.5t71 10.5q46 0 80.5 -13t56.5 -35.5t33 -53t11 -64.5v-242q0 -29 2 -48t4 -34h-58q-2 8 -4 30.5t-2 51.5q-9 -17 -23.5 -33.5t-35.5 -30t-47.5 -22t-59.5 -8.5q-38 0 -67 11.5t-49 30t-30.5 43t-10.5 50.5zM357 633q0 -22 -8.5 -41t-22.5 -33.5
t-33 -22.5t-41 -8q-21 0 -40.5 8t-33.5 22.5t-22.5 33.5t-8.5 41t8.5 41t22.5 33t33.5 22.5t40.5 8.5q22 0 41 -8.5t33 -22.5t22.5 -33t8.5 -41zM313 633q0 26 -17.5 44.5t-43.5 18.5t-43.5 -18.5t-17.5 -44.5t17.5 -44.5t43.5 -18.5t43.5 18.5t17.5 44.5zM277 779h-49
l89 139h78z" />
    <glyph glyph-name="aeacute" unicode="&#x1fd;" horiz-adv-x="863" 
d="M817 137q-10 -31 -29 -58.5t-46 -47.5t-61 -32t-73 -12q-65 0 -118.5 31.5t-83.5 91.5q-10 -24 -26.5 -46.5t-40.5 -39t-55.5 -26.5t-71.5 -10q-39 0 -69 11.5t-50.5 30t-31 43t-10.5 50.5q0 61 39 95.5t105 45.5l130 19q29 5 40 18t11 29q0 47 -32 77.5t-90 30.5
t-94 -30t-42 -81l-57 12q4 35 21 63t43 47.5t59 30t69 10.5q66 0 107.5 -28t58.5 -73q30 48 76.5 74.5t101.5 26.5q53 0 94 -18t69.5 -50t43.5 -76t15 -97v-10.5t-1 -11.5h-381v-4q0 -41 13.5 -75t37 -58t54.5 -37t66 -13q32 0 57.5 9t45 25t33 37t21.5 44zM756 277
q0 33 -11 62t-31.5 50.5t-49.5 34t-66 12.5q-33 0 -61 -12.5t-49 -34t-33.5 -50.5t-14.5 -62h316zM219 39q31 0 59.5 10.5t50.5 30t34.5 48t12.5 64.5v60q-2 -2 -9 -5t-16.5 -5.5t-19 -4.5t-16.5 -3l-114 -17q-40 -6 -64 -29t-24 -62q0 -34 26.5 -60.5t79.5 -26.5zM451 537
h-49l89 139h78z" />
    <glyph glyph-name="cacute" unicode="&#x107;" horiz-adv-x="522" 
d="M278 435q-36 0 -67.5 -13.5t-55 -39t-37 -62t-13.5 -82.5q0 -45 13.5 -81.5t37 -62t55 -39t67.5 -13.5q34 0 60.5 10.5t45.5 27.5t31 37.5t18 40.5l53 -22q-9 -28 -26 -54.5t-43.5 -47.5t-61 -34t-77.5 -13q-51 0 -93.5 18.5t-74 52t-49 79.5t-17.5 101t17.5 101.5t49 80
t74.5 52t93 18.5q43 0 77 -12t59.5 -33t42.5 -48t25 -57l-53 -22q-6 21 -17.5 42t-29.5 37.5t-44 27t-60 10.5zM295 537h-49l89 139h78z" />
    <glyph glyph-name="ccaron" unicode="&#x10d;" horiz-adv-x="522" 
d="M278 435q-36 0 -67.5 -13.5t-55 -39t-37 -62t-13.5 -82.5q0 -45 13.5 -81.5t37 -62t55 -39t67.5 -13.5q34 0 60.5 10.5t45.5 27.5t31 37.5t18 40.5l53 -22q-9 -28 -26 -54.5t-43.5 -47.5t-61 -34t-77.5 -13q-51 0 -93.5 18.5t-74 52t-49 79.5t-17.5 101t17.5 101.5t49 80
t74.5 52t93 18.5q43 0 77 -12t59.5 -33t42.5 -48t25 -57l-53 -22q-6 21 -17.5 42t-29.5 37.5t-44 27t-60 10.5zM183 676l91 -100l91 100h55l-109 -138h-74l-109 138h55z" />
    <glyph glyph-name="ccircumflex" unicode="&#x109;" horiz-adv-x="522" 
d="M278 435q-36 0 -67.5 -13.5t-55 -39t-37 -62t-13.5 -82.5q0 -45 13.5 -81.5t37 -62t55 -39t67.5 -13.5q34 0 60.5 10.5t45.5 27.5t31 37.5t18 40.5l53 -22q-9 -28 -26 -54.5t-43.5 -47.5t-61 -34t-77.5 -13q-51 0 -93.5 18.5t-74 52t-49 79.5t-17.5 101t17.5 101.5t49 80
t74.5 52t93 18.5q43 0 77 -12t59.5 -33t42.5 -48t25 -57l-53 -22q-6 21 -17.5 42t-29.5 37.5t-44 27t-60 10.5zM134 538l110 137h72l110 -137h-54l-92 99l-92 -99h-54z" />
    <glyph glyph-name="cdotaccent" unicode="&#x10b;" horiz-adv-x="522" 
d="M278 435q-36 0 -67.5 -13.5t-55 -39t-37 -62t-13.5 -82.5q0 -45 13.5 -81.5t37 -62t55 -39t67.5 -13.5q34 0 60.5 10.5t45.5 27.5t31 37.5t18 40.5l53 -22q-9 -28 -26 -54.5t-43.5 -47.5t-61 -34t-77.5 -13q-51 0 -93.5 18.5t-74 52t-49 79.5t-17.5 101t17.5 101.5t49 80
t74.5 52t93 18.5q43 0 77 -12t59.5 -33t42.5 -48t25 -57l-53 -22q-6 21 -17.5 42t-29.5 37.5t-44 27t-60 10.5zM234 607q0 20 13.5 33.5t33.5 13.5t33.5 -13.5t13.5 -33.5t-13.5 -33.5t-33.5 -13.5t-33.5 13.5t-13.5 33.5z" />
    <glyph glyph-name="dcaron" unicode="&#x10f;" horiz-adv-x="575" 
d="M587 546h-46l36 176h68zM105 239q0 -42 11.5 -78t32.5 -63t51.5 -42t68.5 -15q37 0 67 15t51 42t32.5 63.5t11.5 78.5t-11.5 78t-32.5 62t-50.5 41t-66.5 15q-38 0 -68 -14.5t-52 -41t-33.5 -62.5t-11.5 -79zM431 94q-8 -18 -22 -37t-34.5 -34.5t-48 -25t-62.5 -9.5
q-50 0 -91 19t-69.5 53t-44 80t-15.5 99q0 52 16 98t44.5 79.5t69 53t90.5 19.5q38 0 66.5 -10t48.5 -25.5t32.5 -33.5t18.5 -33v335h60v-631q0 -38 2 -62.5t3 -28.5h-59q-2 9 -3.5 29t-1.5 46v19z" />
    <glyph glyph-name="dcroat" unicode="&#x111;" horiz-adv-x="575" 
d="M105 239q0 -42 11.5 -78t32.5 -63t51.5 -42t68.5 -15q37 0 67 15t51 42t32.5 63.5t11.5 78.5t-11.5 78t-32.5 62t-50.5 41t-66.5 15q-38 0 -68 -14.5t-52 -41t-33.5 -62.5t-11.5 -79zM490 618h94v-50h-94v-477q0 -38 2 -62.5t3 -28.5h-59q-2 9 -3.5 29t-1.5 46v19
q-8 -18 -22 -37t-34.5 -34.5t-48 -25t-62.5 -9.5q-50 0 -91 19t-69.5 53t-44 80t-15.5 99q0 52 16 98t44.5 79.5t69 53t90.5 19.5q38 0 66.5 -10t48.5 -25.5t32.5 -33.5t18.5 -33v181h-132v50h132v104h60v-104z" />
    <glyph glyph-name="ebreve" unicode="&#x115;" horiz-adv-x="531" 
d="M485 135q-10 -30 -28.5 -57t-45 -47.5t-60.5 -32t-75 -11.5q-47 0 -89.5 17t-74 49.5t-50 79.5t-18.5 107q0 56 18 102t48 79t70 51t85 18q53 0 94 -18t69.5 -50t44 -76t15.5 -97q0 -6 -0.5 -11t-1.5 -11h-380v-4q0 -41 13.5 -75t36.5 -58t54 -37t66 -13q32 0 57.5 9
t45 24.5t32.5 36t21 44.5zM425 277q-1 33 -12 62t-31 50.5t-49.5 34t-66.5 12.5q-33 0 -61 -12.5t-49 -34t-33.5 -50.5t-14.5 -62h317zM275 538q-34 0 -60 12t-43.5 31.5t-27 44t-9.5 50.5h47q1 -16 6.5 -32t17 -28.5t28.5 -20.5t41 -8t41 8t28.5 20.5t17 28.5t6.5 32h47
q0 -26 -9 -50.5t-26.5 -44t-44 -31.5t-60.5 -12z" />
    <glyph glyph-name="ecaron" unicode="&#x11b;" horiz-adv-x="531" 
d="M485 135q-10 -30 -28.5 -57t-45 -47.5t-60.5 -32t-75 -11.5q-47 0 -89.5 17t-74 49.5t-50 79.5t-18.5 107q0 56 18 102t48 79t70 51t85 18q53 0 94 -18t69.5 -50t44 -76t15.5 -97q0 -6 -0.5 -11t-1.5 -11h-380v-4q0 -41 13.5 -75t36.5 -58t54 -37t66 -13q32 0 57.5 9
t45 24.5t32.5 36t21 44.5zM425 277q-1 33 -12 62t-31 50.5t-49.5 34t-66.5 12.5q-33 0 -61 -12.5t-49 -34t-33.5 -50.5t-14.5 -62h317zM185 676l91 -100l91 100h55l-109 -138h-74l-109 138h55z" />
    <glyph glyph-name="edotaccent" unicode="&#x117;" horiz-adv-x="531" 
d="M485 135q-10 -30 -28.5 -57t-45 -47.5t-60.5 -32t-75 -11.5q-47 0 -89.5 17t-74 49.5t-50 79.5t-18.5 107q0 56 18 102t48 79t70 51t85 18q53 0 94 -18t69.5 -50t44 -76t15.5 -97q0 -6 -0.5 -11t-1.5 -11h-380v-4q0 -41 13.5 -75t36.5 -58t54 -37t66 -13q32 0 57.5 9
t45 24.5t32.5 36t21 44.5zM425 277q-1 33 -12 62t-31 50.5t-49.5 34t-66.5 12.5q-33 0 -61 -12.5t-49 -34t-33.5 -50.5t-14.5 -62h317zM230 607q0 20 13.5 33.5t33.5 13.5t33.5 -13.5t13.5 -33.5t-13.5 -33.5t-33.5 -13.5t-33.5 13.5t-13.5 33.5z" />
    <glyph glyph-name="emacron" unicode="&#x113;" horiz-adv-x="531" 
d="M485 135q-10 -30 -28.5 -57t-45 -47.5t-60.5 -32t-75 -11.5q-47 0 -89.5 17t-74 49.5t-50 79.5t-18.5 107q0 56 18 102t48 79t70 51t85 18q53 0 94 -18t69.5 -50t44 -76t15.5 -97q0 -6 -0.5 -11t-1.5 -11h-380v-4q0 -41 13.5 -75t36.5 -58t54 -37t66 -13q32 0 57.5 9
t45 24.5t32.5 36t21 44.5zM425 277q-1 33 -12 62t-31 50.5t-49.5 34t-66.5 12.5q-33 0 -61 -12.5t-49 -34t-33.5 -50.5t-14.5 -62h317zM149 581v52h254v-52h-254z" />
    <glyph glyph-name="eogonek" unicode="&#x119;" horiz-adv-x="531" 
d="M324 -209q-43 0 -73.5 24t-30.5 68q0 35 16.5 60.5t39.5 44.5q-3 -1 -10 -1q-45 2 -85.5 20t-71 50.5t-48 78.5t-17.5 104q0 56 18 102t48 79t70 51t85 18q53 0 94 -18t69.5 -50t44 -76t15.5 -97v-9.5t-2 -12.5h-380v-4q0 -41 13.5 -75t37 -58t54.5 -37t66 -13
q32 0 57.5 9t45 25t33 37t21.5 44l52 -18q-12 -35 -29.5 -59t-36.5 -40t-37.5 -25t-31.5 -14q-14 -6 -28.5 -16.5t-25.5 -23.5t-18 -29t-7 -34q0 -30 19 -44.5t43 -14.5q18 0 35 5v-44q-9 -3 -19.5 -5t-25.5 -2zM425 277q-1 33 -12 62t-31 50.5t-49.5 34t-66.5 12.5
q-33 0 -61 -12.5t-49 -34t-33.5 -50.5t-14.5 -62h317z" />
    <glyph glyph-name="gbreve" unicode="&#x11f;" horiz-adv-x="555" 
d="M267 78q35 0 64 13.5t49.5 37.5t31.5 56.5t11 71.5q0 38 -11 70.5t-31.5 56.5t-49.5 37.5t-64 13.5q-36 0 -65.5 -13.5t-50.5 -37t-32.5 -56t-11.5 -71.5t11.5 -72t32.5 -56.5t50.5 -37t65.5 -13.5zM103 -13q3 -28 15.5 -53t32.5 -43.5t46.5 -29.5t58.5 -11q47 0 78.5 15
t50.5 40t27 58.5t8 70.5v88q-8 -18 -22 -35.5t-34 -31t-46 -21.5t-59 -8q-47 0 -86 17.5t-67.5 48t-44 73t-15.5 92.5q0 49 15.5 91t43.5 73t67 48.5t87 17.5q67 0 106.5 -28.5t55.5 -66.5v85h59v-442q0 -42 -10.5 -84t-36 -76.5t-69 -56t-109.5 -21.5q-44 0 -80 13.5
t-63.5 37t-44.5 55.5t-21 70zM269 538q-34 0 -60 12t-43.5 31.5t-27 44t-9.5 50.5h47q1 -16 6.5 -32t17 -28.5t28.5 -20.5t41 -8t41 8t28.5 20.5t17 28.5t6.5 32h47q0 -26 -9 -50.5t-26.5 -44t-44 -31.5t-60.5 -12z" />
    <glyph glyph-name="gcircumflex" unicode="&#x11d;" horiz-adv-x="555" 
d="M267 78q35 0 64 13.5t49.5 37.5t31.5 56.5t11 71.5q0 38 -11 70.5t-31.5 56.5t-49.5 37.5t-64 13.5q-36 0 -65.5 -13.5t-50.5 -37t-32.5 -56t-11.5 -71.5t11.5 -72t32.5 -56.5t50.5 -37t65.5 -13.5zM103 -13q3 -28 15.5 -53t32.5 -43.5t46.5 -29.5t58.5 -11q47 0 78.5 15
t50.5 40t27 58.5t8 70.5v88q-8 -18 -22 -35.5t-34 -31t-46 -21.5t-59 -8q-47 0 -86 17.5t-67.5 48t-44 73t-15.5 92.5q0 49 15.5 91t43.5 73t67 48.5t87 17.5q67 0 106.5 -28.5t55.5 -66.5v85h59v-442q0 -42 -10.5 -84t-36 -76.5t-69 -56t-109.5 -21.5q-44 0 -80 13.5
t-63.5 37t-44.5 55.5t-21 70zM128 538l110 137h72l110 -137h-54l-92 99l-92 -99h-54z" />
    <glyph glyph-name="gcommaaccent" unicode="&#x123;" horiz-adv-x="555" 
d="M314 573q0 -20 -13 -31t-33 -11q-17 0 -33.5 13.5t-16.5 45.5q0 25 8.5 44.5t22 33t31 21t36.5 9.5v-31q-25 -2 -43 -18.5t-19 -39.5q2 2 6.5 4t11.5 2q19 0 30.5 -11.5t11.5 -30.5zM267 78q35 0 64 13.5t49.5 37.5t31.5 56.5t11 71.5q0 38 -11 70.5t-31.5 56.5
t-49.5 37.5t-64 13.5q-36 0 -65.5 -13.5t-50.5 -37t-32.5 -56t-11.5 -71.5t11.5 -72t32.5 -56.5t50.5 -37t65.5 -13.5zM103 -13q3 -28 15.5 -53t32.5 -43.5t46.5 -29.5t58.5 -11q47 0 78.5 15t50.5 40t27 58.5t8 70.5v88q-8 -18 -22 -35.5t-34 -31t-46 -21.5t-59 -8
q-47 0 -86 17.5t-67.5 48t-44 73t-15.5 92.5q0 49 15.5 91t43.5 73t67 48.5t87 17.5q67 0 106.5 -28.5t55.5 -66.5v85h59v-442q0 -42 -10.5 -84t-36 -76.5t-69 -56t-109.5 -21.5q-44 0 -80 13.5t-63.5 37t-44.5 55.5t-21 70z" />
    <glyph glyph-name="gdotaccent" unicode="&#x121;" horiz-adv-x="555" 
d="M267 78q35 0 64 13.5t49.5 37.5t31.5 56.5t11 71.5q0 38 -11 70.5t-31.5 56.5t-49.5 37.5t-64 13.5q-36 0 -65.5 -13.5t-50.5 -37t-32.5 -56t-11.5 -71.5t11.5 -72t32.5 -56.5t50.5 -37t65.5 -13.5zM103 -13q3 -28 15.5 -53t32.5 -43.5t46.5 -29.5t58.5 -11q47 0 78.5 15
t50.5 40t27 58.5t8 70.5v88q-8 -18 -22 -35.5t-34 -31t-46 -21.5t-59 -8q-47 0 -86 17.5t-67.5 48t-44 73t-15.5 92.5q0 49 15.5 91t43.5 73t67 48.5t87 17.5q67 0 106.5 -28.5t55.5 -66.5v85h59v-442q0 -42 -10.5 -84t-36 -76.5t-69 -56t-109.5 -21.5q-44 0 -80 13.5
t-63.5 37t-44.5 55.5t-21 70zM224 607q0 20 13.5 33.5t33.5 13.5t33.5 -13.5t13.5 -33.5t-13.5 -33.5t-33.5 -13.5t-33.5 13.5t-13.5 33.5z" />
    <glyph glyph-name="hbar" unicode="&#x127;" horiz-adv-x="542" 
d="M146 0h-60v570h-95v50h95v102h60v-102h130v-50h-130v-168q19 36 58 61.5t95 25.5q42 0 74 -14t53 -38t31.5 -56.5t10.5 -69.5v-311h-60v301q0 28 -7.5 52.5t-23.5 42.5t-40 28.5t-58 10.5q-30 0 -55 -12t-42 -32.5t-26.5 -47.5t-9.5 -56v-287z" />
    <glyph glyph-name="hcircumflex" unicode="&#x125;" horiz-adv-x="540" 
d="M144 0h-60v722h60v-320q19 36 58 61.5t95 25.5q42 0 74 -14t53 -38t31.5 -56.5t10.5 -69.5v-311h-60v301q0 28 -7.5 52.5t-23.5 42.5t-40 28.5t-58 10.5q-30 0 -54.5 -12t-42 -32.5t-27 -47.5t-9.5 -56v-287zM120 763l115 119h82l116 -119h-59l-98 84l-97 -84h-59z" />
    <glyph glyph-name="ibreve" unicode="&#x12d;" horiz-adv-x="227" 
d="M84 0v477h59v-477h-59zM114 538q-34 0 -60 12t-43.5 31.5t-27 44t-9.5 50.5h47q1 -16 6.5 -32t17 -28.5t28.5 -20.5t41 -8t41 8t28.5 20.5t17 28.5t6.5 32h47q0 -26 -9 -50.5t-26.5 -44t-44 -31.5t-60.5 -12z" />
    <glyph glyph-name="imacron" unicode="&#x12b;" horiz-adv-x="227" 
d="M84 0v477h59v-477h-59zM-12 581v52h254v-52h-254z" />
    <glyph glyph-name="iogonek" unicode="&#x12f;" horiz-adv-x="227" 
d="M64 674q0 21 14.5 36t34.5 15q21 0 35.5 -15t14.5 -36q0 -20 -14.5 -34t-35.5 -14q-20 0 -34.5 14t-14.5 34zM61 -106q0 -29 18.5 -43t43.5 -14q20 0 35 5v-44q-9 -4 -19.5 -6t-25.5 -2q-43 0 -73.5 24t-30.5 69q0 42 23 70.5t52 47.5v476h59v-477q-14 -7 -28.5 -17.5
t-26.5 -24t-19.5 -29.5t-7.5 -35z" />
    <glyph glyph-name="itilde" unicode="&#x129;" horiz-adv-x="227" 
d="M84 0v477h59v-477h-59zM266 648q0 -48 -25 -72.5t-60 -24.5q-20 0 -35 6.5t-29 16.5l-19 15q-11 9 -22 14.5t-25 5.5q-40 0 -40 -55h-47v12q0 46 24.5 70.5t60.5 24.5q21 0 37 -8t31 -19l18 -13q11 -8 21 -13t23 -5q40 0 40 56h47v-11z" />
    <glyph glyph-name="idotaccent" horiz-adv-x="227" 
d="M84 0v477h59v-477h-59zM64 674q0 21 14.5 36t34.5 15q21 0 35.5 -15t14.5 -36q0 -20 -14.5 -34t-35.5 -14q-20 0 -34.5 14t-14.5 34zM84 0v477h59v-477h-59z" />
    <glyph glyph-name="ij" unicode="&#x133;" horiz-adv-x="474" 
d="M64 674q0 21 14.5 36t34.5 15q21 0 35.5 -15t14.5 -36q0 -20 -14.5 -34t-35.5 -14q-20 0 -34.5 14t-14.5 34zM84 0v477h59v-477h-59zM310 675q0 21 14.5 35.5t34.5 14.5q21 0 35.5 -14.5t14.5 -35.5q0 -20 -14.5 -34.5t-35.5 -14.5q-20 0 -34.5 14.5t-14.5 34.5zM330 477
h60v-541q0 -66 -34.5 -102t-91.5 -36q-20 0 -32.5 2.5t-20.5 6.5v51q16 -6 41 -6q78 0 78 86v539z" />
    <glyph glyph-name="jcircumflex" unicode="&#x135;" horiz-adv-x="228" 
d="M84 477h60v-539q0 -66 -33 -103.5t-91 -37.5q-26 0 -39.5 3.5t-15.5 4.5v50q2 -1 13.5 -3t25.5 -2q80 0 80 90v537zM-33 538l110 137h72l110 -137h-54l-92 99l-92 -99h-54z" />
    <glyph glyph-name="dotlessj" unicode="&#x237;" horiz-adv-x="228" 
d="M84 477h60v-539q0 -66 -33 -103.5t-91 -37.5q-26 0 -39.5 3.5t-15.5 4.5v50q2 -1 13.5 -3t25.5 -2q80 0 80 90v537z" />
    <glyph glyph-name="kcommaaccent" unicode="&#x137;" horiz-adv-x="500" 
d="M273 274l207 -274h-75l-174 233l-88 -87v-146h-59v722h59v-497l250 252h83zM229 -84q0 19 13.5 30.5t31.5 11.5t34.5 -13.5t16.5 -45.5q0 -26 -8.5 -45.5t-22 -33t-31 -21t-36.5 -8.5v31q25 2 43 18.5t19 39.5q-6 -6 -18 -6q-19 0 -30.5 11t-11.5 31z" />
    <glyph glyph-name="lacute" unicode="&#x13a;" horiz-adv-x="228" 
d="M84 0v722h60v-722h-60zM135 763h-49l89 139h78z" />
    <glyph glyph-name="lcaron" unicode="&#x13e;" horiz-adv-x="228" 
d="M84 0v722h60v-722h-60zM239 545h-46l36 176h68z" />
    <glyph glyph-name="lcommaaccent" unicode="&#x13c;" horiz-adv-x="228" 
d="M84 0v722h60v-722h-60zM66 -84q0 19 13.5 30.5t31.5 11.5t34.5 -13.5t16.5 -45.5q0 -26 -8.5 -45.5t-22 -33t-31 -21t-36.5 -8.5v31q25 2 43 18.5t19 39.5q-6 -6 -18 -6q-19 0 -30.5 11t-11.5 31z" />
    <glyph glyph-name="ldot" unicode="&#x140;" horiz-adv-x="270" 
d="M84 0v722h60v-722h-60zM200 324q0 20 13.5 33.5t33.5 13.5t33.5 -13.5t13.5 -33.5t-13.5 -33.5t-33.5 -13.5t-33.5 13.5t-13.5 33.5z" />
    <glyph glyph-name="nacute" unicode="&#x144;" horiz-adv-x="540" 
d="M144 0h-60v477h58v-81q20 41 60 67t95 26q42 0 74 -14t53 -38t31.5 -56.5t10.5 -69.5v-311h-60v301q0 28 -7.5 52.5t-23.5 42.5t-40 28.5t-58 10.5q-31 0 -55.5 -12.5t-42 -33t-26.5 -47.5t-9 -57v-285zM282 537h-49l89 139h78z" />
    <glyph glyph-name="napostrophe" unicode="&#x149;" horiz-adv-x="549" 
d="M153 0h-60v477h58v-81q20 41 60 67t95 26q42 0 74 -14t53 -38t31.5 -56.5t10.5 -69.5v-311h-60v301q0 28 -7.5 52.5t-23.5 42.5t-40 28.5t-58 10.5q-31 0 -55.5 -12.5t-42 -33t-26.5 -47.5t-9 -57v-285zM83 650q0 19 13.5 30t32.5 11q18 0 34.5 -13.5t16.5 -45.5
q0 -26 -8.5 -45t-22.5 -32.5t-31.5 -21t-36.5 -8.5v30q26 2 43.5 18.5t19.5 39.5q-2 -2 -6.5 -4t-12.5 -2q-18 0 -30 11.5t-12 31.5z" />
    <glyph glyph-name="ncaron" unicode="&#x148;" horiz-adv-x="540" 
d="M144 0h-60v477h58v-81q20 41 60 67t95 26q42 0 74 -14t53 -38t31.5 -56.5t10.5 -69.5v-311h-60v301q0 28 -7.5 52.5t-23.5 42.5t-40 28.5t-58 10.5q-31 0 -55.5 -12.5t-42 -33t-26.5 -47.5t-9 -57v-285zM176 676l91 -100l91 100h55l-109 -138h-74l-109 138h55z" />
    <glyph glyph-name="ncommaaccent" unicode="&#x146;" horiz-adv-x="540" 
d="M144 0h-60v477h58v-81q20 41 60 67t95 26q42 0 74 -14t53 -38t31.5 -56.5t10.5 -69.5v-311h-60v301q0 28 -7.5 52.5t-23.5 42.5t-40 28.5t-58 10.5q-31 0 -55.5 -12.5t-42 -33t-26.5 -47.5t-9 -57v-285zM234 -84q0 19 13.5 30.5t31.5 11.5t34.5 -13.5t16.5 -45.5
q0 -26 -8.5 -45.5t-22 -33t-31 -21t-36.5 -8.5v31q25 2 43 18.5t19 39.5q-6 -6 -18 -6q-19 0 -30.5 11t-11.5 31z" />
    <glyph glyph-name="eng" unicode="&#x14b;" horiz-adv-x="540" 
d="M144 0h-60v477h58v-81q20 41 60 67t95 26q42 0 74 -14t53 -38t31.5 -56.5t10.5 -69.5v-390q0 -55 -29 -89.5t-83 -34.5q-21 0 -34.5 2.5t-21.5 5.5v50q8 -2 19 -3.5t22 -1.5q35 0 51 20t16 54v377q0 28 -7.5 52.5t-23.5 42.5t-40 28.5t-58 10.5q-31 0 -55.5 -12.5
t-42 -33t-26.5 -47.5t-9 -57v-285z" />
    <glyph glyph-name="obreve" unicode="&#x14f;" horiz-adv-x="557" 
d="M278 490q49 0 92 -18.5t74.5 -51.5t50 -79.5t18.5 -102.5t-18 -102t-50 -79t-75 -51.5t-92 -18.5t-91.5 18.5t-74 51.5t-50 79t-18.5 102t18 102.5t49.5 79.5t74 51.5t92.5 18.5zM278 41q35 0 66.5 13.5t55.5 38.5t38 61.5t14 83.5t-14 83.5t-38 62t-55.5 38.5t-66.5 13
t-66.5 -13t-55 -38.5t-37.5 -62t-14 -83.5t14 -83.5t37.5 -61.5t55 -38.5t66.5 -13.5zM278 538q-34 0 -60 12t-43.5 31.5t-27 44t-9.5 50.5h47q1 -16 6.5 -32t17 -28.5t28.5 -20.5t41 -8t41 8t28.5 20.5t17 28.5t6.5 32h47q0 -26 -9 -50.5t-26.5 -44t-44 -31.5t-60.5 -12z
" />
    <glyph glyph-name="ohungarumlaut" unicode="&#x151;" horiz-adv-x="557" 
d="M278 490q49 0 92 -18.5t74.5 -51.5t50 -79.5t18.5 -102.5t-18 -102t-50 -79t-75 -51.5t-92 -18.5t-91.5 18.5t-74 51.5t-50 79t-18.5 102t18 102.5t49.5 79.5t74 51.5t92.5 18.5zM278 41q35 0 66.5 13.5t55.5 38.5t38 61.5t14 83.5t-14 83.5t-38 62t-55.5 38.5t-66.5 13
t-66.5 -13t-55 -38.5t-37.5 -62t-14 -83.5t14 -83.5t37.5 -61.5t55 -38.5t66.5 -13.5zM350 537h-44l75 139h67zM244 537h-44l63 139h67z" />
    <glyph glyph-name="omacron" unicode="&#x14d;" horiz-adv-x="557" 
d="M278 490q49 0 92 -18.5t74.5 -51.5t50 -79.5t18.5 -102.5t-18 -102t-50 -79t-75 -51.5t-92 -18.5t-91.5 18.5t-74 51.5t-50 79t-18.5 102t18 102.5t49.5 79.5t74 51.5t92.5 18.5zM278 41q35 0 66.5 13.5t55.5 38.5t38 61.5t14 83.5t-14 83.5t-38 62t-55.5 38.5t-66.5 13
t-66.5 -13t-55 -38.5t-37.5 -62t-14 -83.5t14 -83.5t37.5 -61.5t55 -38.5t66.5 -13.5zM153 581v52h254v-52h-254z" />
    <glyph glyph-name="oslashacute" unicode="&#x1ff;" horiz-adv-x="557" 
d="M105 238q0 -42 11 -74.5t31 -58.5l231 297q-44 33 -100 33q-35 0 -66.5 -13t-55 -38.5t-37.5 -62t-14 -83.5zM278 41q35 0 66.5 13.5t55.5 38.5t38 61.5t14 83.5q0 40 -10.5 72.5t-28.5 56.5l-230 -296q42 -30 95 -30zM278 490q38 0 72 -11.5t63 -31.5l55 71l39 -31
l-57 -73q29 -32 46 -77t17 -99q0 -56 -18 -102t-50 -79t-75 -51.5t-92 -18.5q-73 0 -130 40l-53 -68l-38 31l53 69q-31 32 -48.5 78t-17.5 101q0 56 18 102.5t49.5 79.5t74 51.5t92.5 18.5zM299 537h-49l89 139h78z" />
    <glyph glyph-name="racute" unicode="&#x155;" horiz-adv-x="352" 
d="M327 415q-18 5 -42 5q-61 0 -101 -39.5t-40 -121.5v-259h-60v477h58v-89q23 50 61.5 72.5t86.5 22.5q24 0 37 -5v-63zM203 537h-49l89 139h78z" />
    <glyph glyph-name="rcaron" unicode="&#x159;" horiz-adv-x="352" 
d="M327 415q-18 5 -42 5q-61 0 -101 -39.5t-40 -121.5v-259h-60v477h58v-89q23 50 61.5 72.5t86.5 22.5q24 0 37 -5v-63zM111 676l91 -100l91 100h55l-109 -138h-74l-109 138h55z" />
    <glyph glyph-name="rcommaaccent" unicode="&#x157;" horiz-adv-x="352" 
d="M327 415q-18 5 -42 5q-61 0 -101 -39.5t-40 -121.5v-259h-60v477h58v-89q23 50 61.5 72.5t86.5 22.5q24 0 37 -5v-63zM66 -84q0 19 13.5 30.5t31.5 11.5t34.5 -13.5t16.5 -45.5q0 -26 -8.5 -45.5t-22 -33t-31 -21t-36.5 -8.5v31q25 2 43 18.5t19 39.5q-6 -6 -18 -6
q-19 0 -30.5 11t-11.5 31z" />
    <glyph glyph-name="sacute" unicode="&#x15b;" horiz-adv-x="437" 
d="M94 146q7 -47 40 -77t91 -30q47 0 77 23.5t30 61.5q0 33 -21.5 53t-59.5 28l-80 18q-51 12 -83 43.5t-32 83.5q0 29 13 54.5t35 44.5t51 30t62 11q42 0 71.5 -12t50 -30.5t32 -41t16.5 -43.5l-53 -20q-3 17 -11 34t-22 30.5t-35 22t-49 8.5q-20 0 -38.5 -6t-32.5 -17
t-22.5 -26.5t-8.5 -34.5q0 -59 73 -76l79 -17q60 -14 92 -47.5t32 -85.5q0 -27 -11 -52t-32.5 -45t-52.5 -32t-71 -12q-44 0 -77 12.5t-55.5 32.5t-35.5 45t-17 50zM236 537h-49l89 139h78z" />
    <glyph glyph-name="scedilla" unicode="&#x15f;" horiz-adv-x="437" 
d="M94 147q7 -47 40 -77.5t91 -30.5q47 0 77 23.5t30 61.5q0 33 -21.5 53t-59.5 28l-80 18q-51 12 -83 44t-32 83q0 29 13 54.5t35 44.5t51 30t62 11q42 0 71.5 -12t50 -30.5t32 -41t16.5 -43.5l-53 -20q-3 17 -11 34t-22 30.5t-35 22t-49 8.5q-20 0 -38.5 -6t-32.5 -17
t-22.5 -26.5t-8.5 -34.5q0 -59 73 -76l79 -17q60 -14 92 -47.5t32 -85.5q0 -24 -9 -47.5t-27 -42.5t-44.5 -32.5t-60.5 -17.5l-30 -45q10 5 22 5q41 0 66.5 -20.5t25.5 -55.5t-27.5 -58.5t-81.5 -23.5q-35 0 -64 14t-44 33l27 32q11 -14 31.5 -26.5t48.5 -12.5q29 0 45.5 11
t16.5 31q0 19 -14.5 30t-42.5 11q-9 0 -18.5 -1.5t-18.5 -6.5l-23 29l35 54q-39 3 -68 16t-49.5 32.5t-32.5 43.5t-15 48z" />
    <glyph glyph-name="scircumflex" unicode="&#x15d;" horiz-adv-x="437" 
d="M94 146q7 -47 40 -77t91 -30q47 0 77 23.5t30 61.5q0 33 -21.5 53t-59.5 28l-80 18q-51 12 -83 43.5t-32 83.5q0 29 13 54.5t35 44.5t51 30t62 11q42 0 71.5 -12t50 -30.5t32 -41t16.5 -43.5l-53 -20q-3 17 -11 34t-22 30.5t-35 22t-49 8.5q-20 0 -38.5 -6t-32.5 -17
t-22.5 -26.5t-8.5 -34.5q0 -59 73 -76l79 -17q60 -14 92 -47.5t32 -85.5q0 -27 -11 -52t-32.5 -45t-52.5 -32t-71 -12q-44 0 -77 12.5t-55.5 32.5t-35.5 45t-17 50zM81 538l110 137h72l110 -137h-54l-92 99l-92 -99h-54z" />
    <glyph glyph-name="scommaaccent" unicode="&#x219;" horiz-adv-x="437" 
d="M94 146q7 -47 40 -77t91 -30q47 0 77 23.5t30 61.5q0 33 -21.5 53t-59.5 28l-80 18q-51 12 -83 43.5t-32 83.5q0 29 13 54.5t35 44.5t51 30t62 11q42 0 71.5 -12t50 -30.5t32 -41t16.5 -43.5l-53 -20q-3 17 -11 34t-22 30.5t-35 22t-49 8.5q-20 0 -38.5 -6t-32.5 -17
t-22.5 -26.5t-8.5 -34.5q0 -59 73 -76l79 -17q60 -14 92 -47.5t32 -85.5q0 -27 -11 -52t-32.5 -45t-52.5 -32t-71 -12q-44 0 -77 12.5t-55.5 32.5t-35.5 45t-17 50zM176 -84q0 19 13.5 30.5t31.5 11.5t34.5 -13.5t16.5 -45.5q0 -26 -8.5 -45.5t-22 -33t-31 -21t-36.5 -8.5
v31q25 2 43 18.5t19 39.5q-6 -6 -18 -6q-19 0 -30.5 11t-11.5 31z" />
    <glyph glyph-name="tbar" unicode="&#x167;" horiz-adv-x="342" 
d="M256 49q13 0 25.5 2.5t17.5 4.5v-52q-7 -3 -22.5 -6t-37.5 -3q-57 0 -90.5 34t-33.5 100v98h-93v51h93v144h-102v55h37q70 0 70 70v81h55v-151h124v-55h-124v-144h133v-51h-133v-92q0 -86 81 -86z" />
    <glyph glyph-name="tcaron" unicode="&#x165;" horiz-adv-x="342" 
d="M290 554h-46l36 176h68zM175 477h124v-55h-124v-287q0 -86 81 -86q13 0 25.5 2.5t17.5 4.5v-52q-6 -3 -21.5 -6t-37.5 -3q-58 0 -91.5 34t-33.5 100v293h-101v55h36q70 0 70 70v81h55v-151z" />
    <glyph glyph-name="tcommaaccent" unicode="&#x163;" horiz-adv-x="342" 
d="M175 477h124v-55h-124v-287q0 -86 81 -86q13 0 25.5 2.5t17.5 4.5v-52q-6 -3 -21.5 -6t-37.5 -3q-58 0 -91.5 34t-33.5 100v293h-101v55h36q70 0 70 70v81h55v-151zM168 -84q0 19 13.5 30.5t31.5 11.5t34.5 -13.5t16.5 -45.5q0 -26 -8.5 -45.5t-22 -33t-31 -21
t-36.5 -8.5v31q25 2 43 18.5t19 39.5q-6 -6 -18 -6q-19 0 -30.5 11t-11.5 31z" />
    <glyph glyph-name="tcedilla" horiz-adv-x="342" 
d="M216 -210q-35 0 -64 14t-44 33l27 32q11 -14 31.5 -26.5t48.5 -12.5q29 0 45.5 11t16.5 31q0 19 -14.5 30t-42.5 11q-9 0 -18.5 -1.5t-18.5 -6.5l-24 29l42 66q-41 10 -63.5 42.5t-22.5 86.5v293h-101v55h36q70 0 70 70v81h55v-151h124v-55h-124v-287q0 -86 81 -86
q13 0 25.5 2.5t17.5 4.5v-52q-6 -3 -21 -6t-32 -3l-35 -52q10 5 22 5q41 0 66 -20.5t25 -55.5t-27 -58.5t-81 -23.5z" />
    <glyph glyph-name="ubreve" unicode="&#x16d;" horiz-adv-x="543" 
d="M404 74q-17 -35 -55 -61t-95 -26q-45 0 -78.5 15.5t-55.5 42t-33 60.5t-11 72v300h60v-291q0 -29 7 -55t22.5 -46.5t40 -32.5t59.5 -12q32 0 57 11.5t42.5 31t26.5 46t9 56.5v292h60v-386q0 -27 2 -51t4 -40h-57q-2 8 -3.5 26t-1.5 41v7v0zM269 538q-34 0 -60 12
t-43.5 31.5t-27 44t-9.5 50.5h47q1 -16 6.5 -32t17 -28.5t28.5 -20.5t41 -8t41 8t28.5 20.5t17 28.5t6.5 32h47q0 -26 -9 -50.5t-26.5 -44t-44 -31.5t-60.5 -12z" />
    <glyph glyph-name="uhungarumlaut" unicode="&#x171;" horiz-adv-x="543" 
d="M404 74q-17 -35 -55 -61t-95 -26q-45 0 -78.5 15.5t-55.5 42t-33 60.5t-11 72v300h60v-291q0 -29 7 -55t22.5 -46.5t40 -32.5t59.5 -12q32 0 57 11.5t42.5 31t26.5 46t9 56.5v292h60v-386q0 -27 2 -51t4 -40h-57q-2 8 -3.5 26t-1.5 41v7v0zM326 537h-44l75 139h67z
M220 537h-44l63 139h67z" />
    <glyph glyph-name="umacron" unicode="&#x16b;" horiz-adv-x="543" 
d="M404 74q-17 -35 -55 -61t-95 -26q-45 0 -78.5 15.5t-55.5 42t-33 60.5t-11 72v300h60v-291q0 -29 7 -55t22.5 -46.5t40 -32.5t59.5 -12q32 0 57 11.5t42.5 31t26.5 46t9 56.5v292h60v-386q0 -27 2 -51t4 -40h-57q-2 8 -3.5 26t-1.5 41v7v0zM141 581v52h254v-52h-254z" />
    <glyph glyph-name="uogonek" unicode="&#x173;" horiz-adv-x="543" 
d="M332 -117q0 43 23.5 71.5t53.5 47.5q-2 8 -3.5 25.5t-1.5 39.5v7q-17 -35 -55 -61t-95 -26q-45 0 -78.5 15.5t-55.5 42t-33 60.5t-11 72v300h60v-291q0 -29 7 -55t22.5 -46.5t40 -32.5t59.5 -12q32 0 57 11.5t42.5 31t26.5 46t9 56.5v292h60v-386q0 -28 2 -51.5t4 -39.5
q-14 -7 -28.5 -17.5t-26.5 -24t-20 -29.5t-8 -35q0 -29 18.5 -43t44.5 -14q11 0 19 1.5t15 3.5v-44q-9 -4 -19.5 -6t-25.5 -2q-43 0 -73 24t-30 69z" />
    <glyph glyph-name="uring" unicode="&#x16f;" horiz-adv-x="543" 
d="M404 74q-17 -35 -55 -61t-95 -26q-45 0 -78.5 15.5t-55.5 42t-33 60.5t-11 72v300h60v-291q0 -29 7 -55t22.5 -46.5t40 -32.5t59.5 -12q32 0 57 11.5t42.5 31t26.5 46t9 56.5v292h60v-386q0 -27 2 -51t4 -40h-57q-2 8 -3.5 26t-1.5 41v7v0zM372 635q0 -22 -8.5 -41
t-22.5 -33.5t-33 -22.5t-41 -8q-21 0 -40.5 8t-33.5 22.5t-22.5 33.5t-8.5 41t8.5 41t22.5 33t33.5 22.5t40.5 8.5q22 0 41 -8.5t33 -22.5t22.5 -33t8.5 -41zM328 635q0 26 -17.5 44.5t-43.5 18.5t-43.5 -18.5t-17.5 -44.5t17.5 -44.5t43.5 -18.5t43.5 18.5t17.5 44.5z" />
    <glyph glyph-name="utilde" unicode="&#x169;" horiz-adv-x="543" 
d="M404 74q-17 -35 -55 -61t-95 -26q-45 0 -78.5 15.5t-55.5 42t-33 60.5t-11 72v300h60v-291q0 -29 7 -55t22.5 -46.5t40 -32.5t59.5 -12q32 0 57 11.5t42.5 31t26.5 46t9 56.5v292h60v-386q0 -27 2 -51t4 -40h-57q-2 8 -3.5 26t-1.5 41v7v0zM419 648q0 -48 -25 -72.5
t-60 -24.5q-20 0 -35 6.5t-29 16.5l-19 15q-11 9 -22 14.5t-25 5.5q-40 0 -40 -55h-47v12q0 46 24.5 70.5t60.5 24.5q21 0 37 -8t31 -19l18 -13q11 -8 21 -13t23 -5q40 0 40 56h47v-11z" />
    <glyph glyph-name="wacute" unicode="&#x1e83;" horiz-adv-x="768" 
d="M418 477l142 -403l127 403h63l-158 -477h-64l-144 404l-142 -404h-65l-159 477h66l128 -403l142 403h64zM412 537h-49l89 139h78z" />
    <glyph glyph-name="wcircumflex" unicode="&#x175;" horiz-adv-x="768" 
d="M418 477l142 -403l127 403h63l-158 -477h-64l-144 404l-142 -404h-65l-159 477h66l128 -403l142 403h64zM238 538l110 137h72l110 -137h-54l-92 99l-92 -99h-54z" />
    <glyph glyph-name="wdieresis" unicode="&#x1e85;" horiz-adv-x="768" 
d="M418 477l142 -403l127 403h63l-158 -477h-64l-144 404l-142 -404h-65l-159 477h66l128 -403l142 403h64zM450 610q0 17 12 30t30 13q17 0 29.5 -13t12.5 -30q0 -18 -12.5 -30t-29.5 -12q-18 0 -30 12t-12 30zM233 610q0 17 12.5 30t29.5 13q18 0 30.5 -13t12.5 -30
q0 -18 -12.5 -30t-30.5 -12q-17 0 -29.5 12t-12.5 30z" />
    <glyph glyph-name="wgrave" unicode="&#x1e81;" horiz-adv-x="768" 
d="M418 477l142 -403l127 403h63l-158 -477h-64l-144 404l-142 -404h-65l-159 477h66l128 -403l142 403h64zM244 676h77l89 -139h-48z" />
    <glyph glyph-name="uni1E8B" unicode="&#x1e8b;" horiz-adv-x="463" 
d="M196 243l-175 234h72l140 -191l139 191h70l-173 -234l181 -243h-72l-147 200l-146 -200h-72zM184 607q0 20 13.5 33.5t33.5 13.5t33.5 -13.5t13.5 -33.5t-13.5 -33.5t-33.5 -13.5t-33.5 13.5t-13.5 33.5z" />
    <glyph glyph-name="ycircumflex" unicode="&#x177;" horiz-adv-x="488" 
d="M98 -194l120 256l-205 415h68l169 -353l158 353h64l-309 -671h-65zM96 538l110 137h72l110 -137h-54l-92 99l-92 -99h-54z" />
    <glyph glyph-name="ygrave" unicode="&#x1ef3;" horiz-adv-x="488" 
d="M98 -194l120 256l-205 415h68l169 -353l158 353h64l-309 -671h-65zM120 676h77l89 -139h-48z" />
    <glyph glyph-name="zacute" unicode="&#x17a;" horiz-adv-x="447" 
d="M34 0v53l301 369h-298v55h371v-53l-300 -370h305v-54h-379zM225 537h-49l89 139h78z" />
    <glyph glyph-name="zdotaccent" unicode="&#x17c;" horiz-adv-x="447" 
d="M34 0v53l301 369h-298v55h371v-53l-300 -370h305v-54h-379zM170 607q0 20 13.5 33.5t33.5 13.5t33.5 -13.5t13.5 -33.5t-13.5 -33.5t-33.5 -13.5t-33.5 13.5t-13.5 33.5z" />
    <glyph glyph-name="kgreenlandic" unicode="&#x138;" horiz-adv-x="497" 
d="M273 274l207 -274h-75l-174 233l-88 -87v-146h-59v477h59v-252l250 252h83z" />
    <glyph glyph-name="uni01B6" unicode="&#x1b6;" horiz-adv-x="458" 
d="M39 0v53l141 172h-134v49h174l120 148h-298v55h372v-53l-122 -150h106v-49h-146l-139 -171h305v-54h-379z" />
    <glyph glyph-name="uni0259" unicode="&#x259;" horiz-adv-x="533" 
d="M47 340q10 31 29.5 58t46.5 47.5t61 32.5t74 12q50 0 92.5 -18t73.5 -51t48.5 -80t17.5 -105q0 -56 -17.5 -102t-47.5 -78.5t-70.5 -50.5t-86.5 -18q-53 0 -94 17.5t-70 49t-44.5 75.5t-15.5 97v9.5t2 13.5h382v4q0 41 -13.5 74.5t-36 57.5t-53.5 37.5t-67 13.5
q-32 0 -57.5 -9t-46 -25t-34.5 -36.5t-22 -43.5zM108 199q0 -33 11 -62t31.5 -50.5t50 -34t66.5 -12.5q34 0 62 12.5t49 34t33.5 50.5t14.5 62h-318z" />
    <glyph glyph-name="Euro" unicode="&#x20ac;" horiz-adv-x="736" 
d="M709 65q-37 -33 -92 -56t-124 -23q-56 0 -110 17t-100 51t-80 83.5t-50 114.5h-102v52h92q-2 11 -2.5 24.5t-0.5 27.5q0 11 0.5 22.5t1.5 21.5h-91v51h100q16 66 51.5 117t82.5 85t102.5 51.5t111.5 17.5t102 -13.5t80 -37.5l-26 -49q-32 23 -71 33.5t-83 10.5
q-48 0 -93.5 -14t-83.5 -41t-67 -67.5t-43 -92.5h350l-26 -51h-333q-3 -21 -3 -46q0 -29 3 -50h289l-26 -52h-252q14 -52 42.5 -91t65.5 -65.5t80 -39.5t88 -13q56 0 105 19t78 48z" />
    <glyph glyph-name="Pcircle" unicode="&#x24c5;" horiz-adv-x="830" 
d="M51 354q0 76 28.5 143t77.5 117t115 79t142 29t142.5 -29t116 -79t78 -117t28.5 -143t-28.5 -142.5t-78 -116.5t-116 -79t-142.5 -29t-142 29t-115 79t-77.5 116.5t-28.5 142.5zM102 354q0 -67 24.5 -125.5t66.5 -101.5t99 -68t122 -25t122 25t99 68t66.5 101.5
t24.5 125.5t-24.5 126t-66.5 102t-99 68t-122 25t-122 -25t-99 -68t-66.5 -102t-24.5 -126zM353 313v-158h-49v400h141q28 0 51.5 -9.5t40.5 -25.5t26.5 -38.5t9.5 -47.5q0 -26 -9.5 -48t-26.5 -38t-40.5 -25.5t-51.5 -9.5h-92zM437 356q39 0 62.5 21t23.5 56
q0 36 -23.5 57.5t-62.5 21.5h-84v-156h84z" />
    <glyph glyph-name="registered.salt" horiz-adv-x="432" 
d="M31 530q0 39 14.5 73t39.5 59.5t58.5 40t72.5 14.5q38 0 72 -14.5t59 -40t39.5 -59.5t14.5 -73q0 -38 -14.5 -72t-39.5 -59t-59 -39.5t-72 -14.5q-39 0 -72.5 14.5t-58.5 39.5t-39.5 59t-14.5 72zM66 530q0 -32 11.5 -60t31.5 -48.5t48 -32.5t60 -12q31 0 58.5 12
t47.5 32.5t31.5 48.5t11.5 60t-11.5 60t-31.5 49t-47.5 33t-58.5 12q-32 0 -60 -12t-48 -33t-31.5 -49t-11.5 -60zM218 536q17 0 26.5 8.5t9.5 24.5q0 14 -9.5 23t-26.5 9h-28v-65h28zM215 505h-25v-70h-36v196h71q29 0 48.5 -18t19.5 -44q0 -20 -12 -36t-31 -22l42 -76h-40
z" />
    <glyph glyph-name="Delta" horiz-adv-x="657" 
d="M292 709h72l284 -709h-639zM99 58h458l-230 584z" />
    <glyph glyph-name="uni00A0" unicode="&#xa0;" horiz-adv-x="0" 
 />
    <glyph glyph-name="dieresis.salt" horiz-adv-x="278" 
d="M162 610q0 17 11 28.5t28 11.5t28.5 -11.5t11.5 -28.5t-11.5 -28t-28.5 -11t-28 11t-11 28zM37 610q0 17 11 28.5t28 11.5t28.5 -11.5t11.5 -28.5t-11.5 -28t-28.5 -11t-28 11t-11 28z" />
    <glyph glyph-name="commaaccent" unicode="&#xf6c3;" horiz-adv-x="187" 
d="M48 650q0 19 13.5 30t32.5 11q18 0 34.5 -13.5t16.5 -45.5q0 -26 -8.5 -45t-22.5 -32.5t-31.5 -21t-36.5 -8.5v30q26 2 43.5 18.5t19.5 39.5q-2 -2 -6.5 -4t-12.5 -2q-18 0 -30 11.5t-12 31.5z" />
    <glyph glyph-name="caron.alt" horiz-adv-x="186" 
d="M87 533h-46l36 176h68z" />
    <glyph glyph-name="commaturn" horiz-adv-x="179" 
d="M135 573q0 -20 -13 -31t-33 -11q-17 0 -33.5 13.5t-16.5 45.5q0 25 8.5 44.5t22 33t31 21t36.5 9.5v-31q-25 -2 -43 -18.5t-19 -39.5q2 2 6.5 4t11.5 2q19 0 30.5 -11.5t11.5 -30.5z" />
    <glyph glyph-name="undercommaaccent" horiz-adv-x="180" 
d="M45 -84q0 19 13.5 30.5t31.5 11.5t34.5 -13.5t16.5 -45.5q0 -26 -8.5 -45.5t-22 -33t-31 -21t-36.5 -8.5v31q25 2 43 18.5t19 39.5q-6 -6 -18 -6q-19 0 -30.5 11t-11.5 31z" />
    <glyph glyph-name="grave.uc" horiz-adv-x="265" 
d="M34 878h84l107 -119h-57z" />
    <glyph glyph-name="acute.uc" horiz-adv-x="265" 
d="M97 759h-58l107 119h84z" />
    <glyph glyph-name="dieresis.uc" horiz-adv-x="367" 
d="M242 819q0 18 12.5 30.5t29.5 12.5q19 0 31.5 -12.5t12.5 -30.5t-12.5 -30.5t-31.5 -12.5q-17 0 -29.5 12.5t-12.5 30.5zM39 819q0 18 12.5 30.5t30.5 12.5t30.5 -12.5t12.5 -30.5t-12.5 -30.5t-30.5 -12.5t-30.5 12.5t-12.5 30.5z" />
    <glyph glyph-name="dieresis.uc.salt" horiz-adv-x="287" 
d="M170 819q0 17 11.5 28.5t27.5 11.5q17 0 28.5 -11.5t11.5 -28.5t-11.5 -28.5t-28.5 -11.5q-16 0 -27.5 11.5t-11.5 28.5zM38 819q0 17 11 28.5t28 11.5t28.5 -11.5t11.5 -28.5t-11.5 -28.5t-28.5 -11.5t-28 11.5t-11 28.5z" />
    <glyph glyph-name="macron.uc" horiz-adv-x="340" 
d="M34 793v53h272v-53h-272z" />
    <glyph glyph-name="circumflex.uc" horiz-adv-x="390" 
d="M39 759l115 119h82l116 -119h-59l-98 84l-97 -84h-59z" />
    <glyph glyph-name="caron.uc" horiz-adv-x="390" 
d="M98 878l97 -84l98 84h59l-116 -119h-82l-115 119h59z" />
    <glyph glyph-name="breve.uc" horiz-adv-x="365" 
d="M183 754q-34 0 -60 10.5t-44 28.5t-28 40.5t-12 46.5h51q1 -14 7.5 -28t17.5 -25t28 -18t40 -7t39.5 7t28 18t17.5 25t7 28h51q-2 -24 -11.5 -46.5t-27.5 -40.5t-44 -28.5t-60 -10.5z" />
    <glyph glyph-name="dotaccent.uc" horiz-adv-x="168" 
d="M36 819q0 20 14 33.5t34 13.5t33.5 -13.5t13.5 -33.5t-13.5 -34t-33.5 -14t-34 14t-14 34z" />
    <glyph glyph-name="ring.uc" horiz-adv-x="276" 
d="M239 845q0 -21 -8 -39.5t-22 -32t-32 -21t-39 -7.5t-39 7.5t-31.5 21t-21.5 32t-8 39.5t8 40t21.5 32.5t31.5 21.5t39 8t39 -8t32 -21.5t22 -32.5t8 -40zM194 845q0 25 -16 42t-40 17t-40 -17t-16 -42q0 -24 16 -40.5t40 -16.5t40 16.5t16 40.5z" />
    <glyph glyph-name="tilde.uc" horiz-adv-x="382" 
d="M345 861q0 -48 -24.5 -73.5t-59.5 -25.5q-21 0 -37.5 6.5t-30.5 17.5l-19 15q-13 11 -23.5 16t-24.5 5q-42 0 -42 -56h-46v12q0 46 24.5 71.5t60.5 25.5q21 0 38.5 -8t32.5 -19l19 -14q12 -8 22 -13.5t24 -5.5q18 0 29.5 13.5t11.5 40.5v3h45v-11z" />
    <glyph glyph-name="hungarumlaut.uc" horiz-adv-x="339" 
d="M198 759h-45l81 119h68zM83 759h-44l65 119h67z" />
    <glyph glyph-name="caron.alt.uc" horiz-adv-x="188" 
d="M88 523h-47l38 186h71z" />
    <glyph glyph-name="dollar.tf" 
d="M140 522q0 -47 27 -78t83 -45l27 -6v261q-28 -3 -53 -13.5t-43.5 -28t-29.5 -40.5t-11 -50zM473 185q0 49 -30.5 82.5t-90.5 47.5l-22 5v-268q69 6 106 44t37 89zM277 -109v108q-51 3 -90.5 21.5t-68 46.5t-45 63.5t-20.5 73.5l58 18q3 -31 15 -60t33 -52t50.5 -38.5
t67.5 -19.5v280l-40 10q-70 15 -113.5 59t-43.5 118q0 38 15.5 71t42 57.5t62.5 40.5t77 19v110h53v-110q45 -4 78 -19.5t57 -38t38.5 -51t22.5 -58.5l-54 -21q-12 52 -46 88.5t-96 45.5v-272l30 -7q79 -18 126 -65t47 -120q0 -37 -14 -70.5t-40.5 -59t-64 -41.5t-84.5 -19
v-108h-53z" />
    <glyph glyph-name="Euro.tf" horiz-adv-x="577" 
d="M95 354q0 20 1 38.5t3 27.5h-66v51h76q16 64 51 111t80.5 78t96 46t96.5 15q39 0 64.5 -5t51.5 -13l-15 -53q-19 7 -42 11t-59 4t-76.5 -11.5t-77 -35.5t-65 -60.5t-41.5 -86.5h306l-16 -51h-303q-2 -10 -3 -26t-1 -40q0 -25 1.5 -43t3.5 -26h281l-16 -52h-252
q14 -49 41 -85t62 -59.5t75 -35t79 -11.5q33 0 58 4.5t44 12.5l16 -52q-24 -8 -50.5 -13.5t-67.5 -5.5q-49 0 -99 14.5t-94 44.5t-78 76.5t-50 109.5h-77v52h67q-2 8 -3.5 27.5t-1.5 41.5z" />
    <glyph glyph-name="sterling.tf" 
d="M541 181q-2 -40 -14 -73.5t-34.5 -57.5t-54.5 -37t-72 -13h-321v62q24 14 45.5 33.5t37.5 43.5t25.5 52t9.5 59q0 28 -8 58h-101v55h82q-15 35 -29 72.5t-14 84.5q0 44 15 81t42 64t65 42t83 15q51 0 88.5 -15.5t63 -41t39 -58t16.5 -67.5l-63 -12q-3 63 -42 100.5
t-101 37.5q-30 0 -56.5 -10t-46 -29t-30.5 -46t-11 -61q0 -44 15.5 -80.5t30.5 -76.5h200v-55h-183q2 -13 4 -26.5t2 -27.5q0 -70 -31.5 -119.5t-75.5 -78.5h235q62 0 93.5 38.5t35.5 96.5l60 -10v0z" />
    <glyph glyph-name="yen.tf" 
d="M323 182v-182h-62v182h-189v50h189v90h-189v49h155l-211 338h73l203 -333l199 333h72l-207 -338h156v-49h-189v-90h189v-50h-189z" />
    <glyph glyph-name="zero.tf" 
d="M46 354q0 67 9 132.5t37 118.5q27 53 75.5 85t121.5 32t121 -32t76 -85t37 -118.5t9 -132.5q0 -66 -9 -132t-37 -119q-28 -52 -76 -84t-121 -32t-121.5 32t-75.5 85q-28 53 -37 118.5t-9 131.5zM107 354q0 -55 6.5 -110.5t26 -100.5t55 -73t94.5 -28t94.5 28t55 73
t26 100.5t6.5 110.5t-6 110.5t-25.5 100.5t-55.5 73.5t-95 28.5t-95 -28.5t-55.5 -73.5t-25.5 -100.5t-6 -110.5z" />
    <glyph glyph-name="one.tf" 
d="M283 56v528q-4 -9 -22.5 -19t-43.5 -19.5t-52.5 -16t-48.5 -7.5v48q34 3 63 14.5t50.5 30t36.5 43t21 51.5h57v-653h169v-56h-407v56h177z" />
    <glyph glyph-name="two.tf" 
d="M78 468q-2 8 -2 17.5v15.5q0 45 15.5 85t44.5 70.5t72 48t97 17.5q53 0 94 -16t69.5 -44t43.5 -65.5t15 -79.5q0 -70 -38 -122.5t-96 -90.5l-145 -97q-37 -25 -66 -62.5t-35 -86.5h387v-58h-462q2 72 36 137t111 117l132 89q55 37 84 79t29 94q0 30 -10 57.5t-30.5 48.5
t-50 33.5t-68.5 12.5q-79 0 -123.5 -48.5t-44.5 -126.5q0 -15 3 -33z" />
    <glyph glyph-name="three.tf" 
d="M289 -13q-56 0 -100.5 17t-76 47t-49.5 70t-21 86l60 14q1 -41 16.5 -74.5t41 -56.5t58.5 -35.5t71 -12.5q40 0 73 12.5t57 34.5t37 52t13 65q0 39 -13 69.5t-36 51.5t-55 32t-69 11q-36 0 -67 -11l-30 52l237 241h-376v57h454v-59l-229 -233q7 2 15.5 3t13.5 1
q42 0 81 -13.5t69 -40.5t48.5 -67t18.5 -93q0 -45 -17.5 -85t-49 -70t-76.5 -47.5t-99 -17.5z" />
    <glyph glyph-name="four.tf" 
d="M27 247l320 462h90v-478h123v-56h-123v-175h-60v175h-350v72zM377 653l-292 -422h292v422z" />
    <glyph glyph-name="five.tf" 
d="M291 -13q-52 0 -95 16t-74.5 44t-50 65.5t-22.5 79.5l58 18q3 -36 18 -67t39 -53.5t56 -35t71 -12.5q40 0 73.5 13.5t57.5 37.5t37 56.5t13 70.5q0 42 -13.5 75.5t-37.5 56.5t-57 35.5t-72 12.5q-48 0 -88.5 -19t-69.5 -54q-11 4 -31 12t-31 12l81 358h355v-57h-313
l-57 -264q29 35 74.5 51t90.5 16q52 0 94.5 -16.5t73 -47t47 -73.5t16.5 -96q0 -49 -17.5 -92t-49 -74.5t-76.5 -50t-100 -18.5z" />
    <glyph glyph-name="six.tf" 
d="M510 629q-21 14 -55.5 25.5t-79.5 11.5q-71 0 -122.5 -27t-86 -73t-51.5 -107.5t-18 -129.5v-5.5t1 -7.5q7 27 24 53.5t43.5 47.5t63 34t82.5 13q49 0 92 -17t74.5 -48.5t49.5 -76t18 -99.5q0 -53 -20.5 -96.5t-54.5 -74.5t-78.5 -48t-93.5 -17q-54 0 -101.5 20.5
t-83 61.5t-56.5 102t-21 143q0 103 27.5 180t74 127.5t109 75.5t131.5 25q49 0 87.5 -12.5t64.5 -29.5zM116 224q0 -41 15 -75t40.5 -58t58.5 -37t69 -13q37 0 70.5 13t58.5 37t39.5 58t14.5 75q0 43 -14 77t-38.5 58t-57.5 37t-70 13q-38 0 -72 -13.5t-59.5 -38.5t-40 -59
t-14.5 -74z" />
    <glyph glyph-name="seven.tf" 
d="M549 646q-51 -47 -102.5 -107t-95.5 -139t-76.5 -178t-45.5 -222h-64q13 134 50.5 240t85 186t97 136t85.5 90h-441v57h507v-63z" />
    <glyph glyph-name="eight.tf" 
d="M294 -13q-57 0 -101.5 15.5t-75 42t-46.5 62t-16 76.5q0 67 41.5 115t107.5 65q-29 7 -53 23t-42 38t-28 49.5t-10 59.5q0 40 16.5 75t45.5 60t70 39.5t91 14.5q49 0 90 -14.5t70 -39.5t45.5 -60t16.5 -75q0 -31 -10 -58.5t-27.5 -50t-42 -38.5t-52.5 -23
q65 -17 106.5 -65t41.5 -115q0 -41 -16 -76.5t-46 -62t-74.5 -42t-101.5 -15.5zM294 389q72 1 116.5 39.5t44.5 101.5q0 30 -11 55.5t-32 44.5t-51 29.5t-67 10.5q-38 0 -68 -10.5t-51 -29.5t-32 -44.5t-11 -55.5q0 -31 12 -57t33.5 -44.5t51 -29t65.5 -10.5zM294 41
q42 0 74.5 11.5t55 31.5t34.5 46.5t12 57.5t-11.5 58t-34 47t-55 31.5t-75.5 11.5t-76 -11.5t-55.5 -31.5t-34 -47t-11.5 -58t12 -57.5t34.5 -46.5t55.5 -31.5t75 -11.5z" />
    <glyph glyph-name="nine.tf" 
d="M459 489q0 41 -14.5 74t-39 56t-57 35.5t-68.5 12.5q-37 0 -69.5 -13t-56.5 -36.5t-38 -56.5t-14 -74q0 -43 14 -76.5t38 -57t56.5 -35.5t70.5 -12q37 0 69.5 12.5t56.5 36.5t38 58t14 76zM83 102q25 -26 67 -42.5t87 -16.5q122 0 180 82.5t60 228.5v13.5t-2 19.5
q-17 -58 -68.5 -96.5t-131.5 -38.5q-45 0 -87.5 15.5t-75.5 45t-53 72.5t-20 99q0 53 19 97t51.5 75t76 48.5t93.5 17.5q57 0 104.5 -21.5t82 -63.5t54 -105t19.5 -146q0 -201 -76.5 -300t-223.5 -99q-26 0 -53 5t-51.5 14t-46 21.5t-34.5 27.5z" />
    <glyph glyph-name="cent.tf" 
d="M515 247q-8 -26 -24 -51t-39.5 -45.5t-54.5 -34t-69 -16.5v-100h-53v101q-46 5 -84 26t-65 54t-42 76t-15 94t15.5 94.5t42.5 76t65 53t83 25.5v109h53v-107q38 -3 68.5 -16t53.5 -33t38.5 -45.5t23.5 -53.5l-52 -22q-5 19 -15.5 38.5t-26.5 36t-38.5 28t-51.5 14.5v-397
q29 3 52 15t40 28.5t28 36t17 38.5zM127 351q0 -41 11 -75t31 -59.5t47 -41.5t59 -21v394q-32 -6 -59 -22t-47 -41.5t-31 -59t-11 -74.5z" />
    <glyph glyph-name="percent.tf" horiz-adv-x="560" 
d="M21 580q0 28 10.5 52.5t28.5 42.5t42.5 28t52.5 10t52.5 -10t43 -28t29 -42.5t10.5 -52.5t-10.5 -52.5t-29 -42.5t-43 -28.5t-52.5 -10.5t-52.5 10.5t-42.5 28.5t-28.5 42.5t-10.5 52.5zM70 580q0 -37 24.5 -61.5t60.5 -24.5q37 0 61.5 24.5t24.5 61.5t-24.5 61t-61.5 24
q-36 0 -60.5 -24t-24.5 -61zM527 494l-482 -328v58l482 329v-59zM270 126q0 28 10.5 52.5t28.5 42.5t42.5 28t52.5 10t52.5 -10t42.5 -28t28.5 -42.5t10.5 -52.5t-10.5 -52.5t-28.5 -42.5t-42.5 -28t-52.5 -10t-52.5 10t-42.5 28t-28.5 42.5t-10.5 52.5zM319 126
q0 -37 24.5 -61.5t60.5 -24.5q37 0 61 24.5t24 61.5t-24 61.5t-61 24.5q-36 0 -60.5 -24.5t-24.5 -61.5z" />
    <glyph glyph-name="perthousand.tf" 
d="M20 597q0 25 9.5 46.5t25.5 37.5t37.5 25t46.5 9q24 0 46 -9t38 -25t25.5 -37.5t9.5 -46.5t-9.5 -46.5t-25.5 -37.5t-38 -25t-46 -9q-25 0 -46.5 9t-37.5 25t-25.5 37.5t-9.5 46.5zM65 597q0 -32 21.5 -53t52.5 -21t51.5 21t20.5 53t-20.5 52.5t-51.5 20.5t-52.5 -20.5
t-21.5 -52.5zM543 595l-497 -385v59l497 387v-61zM125 109q0 25 9.5 46.5t25.5 37.5t37.5 25t46.5 9q29 0 54 -13.5t41 -37.5q15 24 40 37.5t56 13.5q24 0 46 -9t38 -25t25.5 -37.5t9.5 -46.5t-9.5 -46.5t-25.5 -37.5t-38 -25t-46 -9q-31 0 -56 13.5t-40 36.5
q-16 -23 -41 -36.5t-54 -13.5q-25 0 -46.5 9t-37.5 25t-25.5 37.5t-9.5 46.5zM435 182q-32 0 -53 -20.5t-21 -52.5t21 -52.5t53 -20.5q31 0 51.5 20.5t20.5 52.5t-20.5 52.5t-51.5 20.5zM244 182q-32 0 -53 -20.5t-21 -52.5t21 -52.5t53 -20.5q31 0 51.5 20.5t20.5 52.5
t-20.5 52.5t-51.5 20.5z" />
    <glyph glyph-name="section.tf" horiz-adv-x="559" 
d="M234 384q-15 -4 -28.5 -13t-24 -21.5t-17 -28.5t-6.5 -34q0 -34 20 -57.5t58 -43.5l93 -50q14 4 28 13t24.5 21.5t17 28t6.5 33.5q0 35 -20 59t-57 44zM464 241q0 -47 -28.5 -80t-67.5 -47q100 -56 100 -150q0 -38 -15 -68.5t-41 -52.5t-60 -34t-72 -12q-87 0 -136 49.5
t-52 129.5l57 12q2 -62 36.5 -101t96.5 -39q54 0 89.5 29.5t35.5 80.5q0 39 -20 65t-56 46l-106 56q-27 14 -50 29t-39.5 33t-26 40t-9.5 51q0 48 29 81.5t66 45.5q-48 28 -72.5 65t-24.5 85q0 38 15.5 69t41 52.5t59 33.5t69.5 12q43 0 77 -13.5t58 -37t37 -56t14 -71.5
l-58 -13q-1 64 -35 102t-94 38q-25 0 -47.5 -7.5t-39.5 -22t-27 -35t-10 -46.5q0 -38 20 -63.5t55 -44.5l106 -57q26 -14 49 -29t40 -33t26.5 -40.5t9.5 -51.5z" />
    <glyph glyph-name="numbersign.tf" 
d="M183 241h153l49 230h-154zM453 523h111v-52h-122l-49 -230h112v-52h-124l-39 -189h-58l41 189h-153l-41 -189h-58l41 189h-102v52h114l48 230h-103v52h114l40 186h58l-40 -186h152l40 186h58z" />
    <glyph glyph-name="logicalnot.tf" 
d="M441 197v202h-385v52h439v-254h-54z" />
    <glyph glyph-name="currency.tf" 
d="M70 319q0 39 13 74.5t36 63.5l-77 78l39 38l76 -79q28 21 61.5 33t71.5 12q73 0 127 -42l74 76l37 -38l-71 -74q24 -29 38.5 -65t14.5 -77q0 -40 -13.5 -76t-37.5 -63l71 -73l-37 -37l-73 73q-27 -21 -60.5 -32.5t-69.5 -11.5q-39 0 -74 13t-62 36l-75 -78l-37 37l75 78
q-47 56 -47 134zM124 319q0 -36 13 -66.5t35.5 -53t52.5 -35.5t65 -13q34 0 64.5 13t52.5 35.5t35 53t13 66.5t-13 66.5t-35 53t-52.5 35.5t-64.5 13q-35 0 -65 -13t-52.5 -35.5t-35.5 -53t-13 -66.5z" />
    <glyph glyph-name="plus.tf" 
d="M261 353v207h53v-207h195v-50h-195v-210h-53v210h-193v50h193z" />
    <glyph glyph-name="minus.tf" 
d="M77 303v50h422v-50h-422z" />
    <glyph glyph-name="multiply.tf" 
d="M290 291l-178 -185l-35 36l178 185l-178 185l36 37l178 -185l178 185l35 -36l-179 -186l180 -185l-36 -37z" />
    <glyph glyph-name="divide.tf" 
d="M240 505q0 20 14.5 33.5t33.5 13.5q20 0 33.5 -13.5t13.5 -33.5q0 -19 -13.5 -33.5t-33.5 -14.5q-19 0 -33.5 14.5t-14.5 33.5zM68 354h441v-53h-441v53zM240 149q0 20 14.5 34t33.5 14q20 0 33.5 -14t13.5 -34q0 -19 -13.5 -33t-33.5 -14q-19 0 -33.5 14t-14.5 33z" />
    <glyph glyph-name="equal.tf" 
d="M66 400v49h447v-49h-447zM66 206v50h447v-50h-447z" />
    <glyph glyph-name="less.tf" 
d="M83 354l402 207v-59l-343 -174l343 -175v-60l-402 207v54z" />
    <glyph glyph-name="greater.tf" 
d="M495 300l-402 -207v60l344 175l-344 174v59l402 -207v-54z" />
    <glyph glyph-name="florin.tf" horiz-adv-x="559" 
d="M274 423h-117v54h128l23 113q14 72 57.5 105.5t96.5 33.5q25 0 39 -3t25 -6v-54q-7 2 -20 4.5t-32 2.5q-17 0 -34 -5t-31 -16.5t-25 -31.5t-17 -50l-20 -93h133v-54h-143l-86 -432q-14 -72 -57.5 -105.5t-96.5 -33.5q-26 0 -40 3t-25 6v54q7 -2 20 -4.5t33 -2.5
q17 0 33.5 5t31 16.5t25.5 31.5t17 50z" />
    <glyph glyph-name="plusminus.tf" 
d="M261 413v146h53v-146h189v-49h-189v-146h-53v146h-188v49h188zM503 155v-50h-430v50h430z" />
    <glyph glyph-name="notequal.tf" 
d="M234 206l-85 -110h-62l85 110h-107v50h145l111 144h-256v49h293l83 108h61l-83 -108h92v-49h-129l-111 -144h240v-50h-277z" />
    <glyph glyph-name="approxequal.tf" 
d="M525 429q-25 -35 -57 -54t-74 -19q-23 0 -46.5 8t-49.5 22l-47 25q-18 9 -35.5 14.5t-34.5 5.5q-56 0 -95 -49l-35 30q26 36 57 55t73 19q23 0 46 -8t49 -22l46 -24q19 -11 39.5 -16.5t38.5 -5.5q29 0 50.5 11.5t41.5 36.5zM525 236q-25 -35 -57 -54t-74 -19
q-23 0 -46.5 7.5t-49.5 21.5l-47 26q-18 9 -35.5 14.5t-34.5 5.5q-56 0 -95 -49l-35 30q26 36 57 55t73 19q23 0 46 -8t49 -22l46 -24q19 -11 39.5 -17t38.5 -6q55 0 92 49z" />
    <glyph glyph-name="lessequal.tf" 
d="M87 414l404 147v-55l-336 -119l336 -118v-55l-404 147v53zM491 155v-50h-404v50h404z" />
    <glyph glyph-name="greaterequal.tf" 
d="M491 361l-404 -147v55l337 118l-337 119v55l404 -147v-53zM491 155v-50h-404v50h404z" />
    <glyph glyph-name="period.tf" horiz-adv-x="560" 
d="M216 55q0 26 17.5 43.5t42.5 17.5q26 0 43.5 -17.5t17.5 -43.5q0 -25 -17.5 -42.5t-43.5 -17.5q-25 0 -42.5 17.5t-17.5 42.5z" />
    <glyph glyph-name="comma.tf" horiz-adv-x="560" 
d="M211 55q0 23 18 40.5t44 17.5q27 0 47.5 -20.5t20.5 -61.5q0 -43 -12 -77.5t-31 -59.5t-44 -41t-50 -22v43q19 6 35 19t27.5 30.5t18 37.5t6.5 40q-8 -6 -22 -6q-24 0 -41 17t-17 43z" />
    <glyph glyph-name="colon.tf" horiz-adv-x="560" 
d="M225 426q0 24 16 40t39 16t39 -16t16 -40q0 -23 -16 -38.5t-39 -15.5t-39 15.5t-16 38.5zM225 48q0 23 16 39.5t39 16.5t39 -16.5t16 -39.5t-16 -39t-39 -16t-39 16t-16 39z" />
    <glyph glyph-name="semicolon.tf" horiz-adv-x="560" 
d="M217 427q0 23 15.5 39t38.5 16t39 -16t16 -39t-16 -38.5t-39 -15.5t-38.5 15.5t-15.5 38.5zM220 50q0 21 15.5 36t39.5 15t42 -18t18 -54q0 -39 -10.5 -69.5t-27.5 -53t-39 -36.5t-44 -19v38q17 5 31 17t24 27.5t15.5 33t5.5 35.5q-5 -5 -19 -5q-22 0 -36.5 14.5
t-14.5 38.5z" />
    <glyph glyph-name="space.tf" horiz-adv-x="560" 
 />
    <glyph glyph-name="zero.numr" horiz-adv-x="422" 
d="M63 527q0 35 8 70.5t29 63.5q17 23 43.5 38.5t67.5 15.5q42 0 68.5 -15.5t43.5 -38.5q21 -28 28.5 -63.5t7.5 -70.5t-7.5 -70t-28.5 -63q-17 -23 -43.5 -38.5t-68.5 -15.5q-41 0 -67.5 15.5t-43.5 38.5q-21 28 -29 63t-8 70zM115 527q0 -25 4 -50.5t15 -46t29.5 -33.5
t47.5 -13t47.5 13t29.5 33.5t15 46t4 50.5t-4 51t-15 46.5t-29.5 33.5t-47.5 13t-47.5 -13t-29.5 -33.5t-15 -46.5t-4 -51z" />
    <glyph glyph-name="one.numr" horiz-adv-x="287" 
d="M143 347v277q-2 -3 -12.5 -8t-24 -9.5t-27 -7.5t-22.5 -4v40q37 5 60 26.5t28 48.5h49v-363h-51z" />
    <glyph glyph-name="two.numr" horiz-adv-x="385" 
d="M67 578q-1 5 -1.5 12t-0.5 12q0 47 34 80t94 33q29 0 52 -8.5t39.5 -23.5t25 -35t8.5 -42q0 -35 -20 -62t-52 -47l-74 -45q-18 -11 -30.5 -26.5t-15.5 -35.5h196v-43h-258v4q0 40 18 74.5t60 60.5l69 43q25 15 40.5 34.5t15.5 43.5q0 26 -19.5 46t-54.5 20t-57 -20.5
t-22 -55.5q0 -3 0.5 -9.5t2.5 -12.5z" />
    <glyph glyph-name="three.numr" horiz-adv-x="403" 
d="M151 560l115 105h-195v44h261v-42l-116 -105q2 1 9 1q22 0 43 -7t37 -20.5t25.5 -33t9.5 -46.5q0 -24 -10 -45.5t-28 -37t-43.5 -25t-56.5 -9.5q-61 0 -98.5 31t-43.5 75l46 17q3 -37 31 -58t64 -21q38 0 62.5 20.5t24.5 52.5q0 36 -24.5 53.5t-58.5 17.5q-17 0 -32 -5z
" />
    <glyph glyph-name="four.numr" horiz-adv-x="434" 
d="M63 479l180 230h61v-237h70v-44h-70v-81h-51v81h-190v51zM253 652l-140 -180h140v180z" />
    <glyph glyph-name="five.numr" horiz-adv-x="391" 
d="M108 458q5 -32 30 -53.5t60 -21.5q38 0 62.5 22t24.5 57q0 37 -24 58.5t-62 21.5q-45 0 -79 -34l-44 16l49 185h196v-44h-162l-30 -114q17 17 39 24.5t44 7.5q56 0 90 -33t34 -86q0 -26 -9.5 -48.5t-27.5 -39t-43.5 -26.5t-57.5 -10q-27 0 -50 8t-41 22t-29.5 31.5
t-14.5 37.5z" />
    <glyph glyph-name="six.numr" horiz-adv-x="412" 
d="M323 657q-29 16 -69 16q-32 0 -57 -11t-43 -30.5t-28 -46t-12 -57.5q11 25 40.5 43t65.5 18q56 0 92.5 -33.5t36.5 -90.5q0 -28 -11 -51t-30 -39.5t-44.5 -25.5t-54.5 -9q-30 0 -56.5 11t-46.5 32t-31.5 52.5t-11.5 72.5q0 50 15 89t40.5 65.5t59.5 40t73 13.5
q53 0 85 -19zM123 465q0 -37 26.5 -59.5t60.5 -22.5q35 0 61 22.5t26 59.5q0 38 -26 59.5t-61 21.5q-34 0 -60.5 -21.5t-26.5 -59.5z" />
    <glyph glyph-name="seven.numr" horiz-adv-x="411" 
d="M347 663q-23 -20 -49.5 -47.5t-49.5 -66t-41 -88.5t-25 -114h-54q7 68 27 121t43.5 92.5t47 65.5t38.5 39h-221v44h284v-46z" />
    <glyph glyph-name="eight.numr" horiz-adv-x="401" 
d="M200 340q-66 0 -101.5 30t-35.5 74q0 31 20.5 55t54.5 34q-29 9 -46.5 31.5t-17.5 51.5q0 44 34.5 72t91.5 28t92.5 -28t35.5 -72q0 -29 -18 -51.5t-47 -31.5q34 -10 54.5 -34t20.5 -55q0 -44 -36 -74t-102 -30zM200 553q35 0 56 17t21 44q0 26 -20.5 43.5t-56.5 17.5
t-56 -17.5t-20 -43.5q0 -27 21 -44t55 -17zM200 383q42 0 64 18.5t22 45.5q0 29 -22 47.5t-64 18.5q-41 0 -63 -18.5t-22 -47.5q0 -27 22 -45.5t63 -18.5z" />
    <glyph glyph-name="nine.numr" horiz-adv-x="410" 
d="M287 592q0 37 -26 58.5t-61 21.5t-60.5 -21.5t-25.5 -58.5q0 -38 25.5 -59.5t60.5 -21.5t61 21.5t26 59.5zM88 401q15 -9 34.5 -13.5t38.5 -4.5q59 0 96 36.5t39 110.5q-11 -27 -40 -44t-64 -17q-27 0 -50.5 8.5t-41 24.5t-27.5 39t-10 51q0 27 11 49.5t29.5 39t44 26
t54.5 9.5q30 0 56 -11t45.5 -32t31 -52.5t11.5 -71.5q0 -47 -11.5 -85.5t-35 -66.5t-57.5 -43t-79 -15q-24 0 -48 6t-40 15z" />
    <glyph glyph-name="zero.dnom" horiz-adv-x="429" 
d="M66 180q0 35 8 70.5t29 63.5q17 23 43.5 38.5t67.5 15.5q42 0 68.5 -15.5t43.5 -38.5q21 -28 28.5 -63.5t7.5 -70.5t-7.5 -70t-28.5 -63q-17 -23 -43.5 -38.5t-68.5 -15.5q-41 0 -67.5 15.5t-43.5 38.5q-21 28 -29 63t-8 70zM118 180q0 -25 4 -50.5t15 -46t29.5 -33.5
t47.5 -13t47.5 13t29.5 33.5t15 46t4 50.5t-4 51t-15 46.5t-29.5 33.5t-47.5 13t-47.5 -13t-29.5 -33.5t-15 -46.5t-4 -51z" />
    <glyph glyph-name="one.dnom" horiz-adv-x="287" 
d="M143 0v277q-2 -3 -12.5 -8t-24 -9.5t-27 -7.5t-22.5 -4v40q37 5 60 26.5t28 48.5h49v-363h-51z" />
    <glyph glyph-name="two.dnom" horiz-adv-x="385" 
d="M67 231q-1 5 -1.5 12t-0.5 12q0 47 34 80t94 33q29 0 52 -8.5t39.5 -23.5t25 -35t8.5 -42q0 -35 -20 -62t-52 -47l-74 -45q-18 -11 -30.5 -26.5t-15.5 -35.5h196v-43h-258v4q0 40 18 74.5t60 60.5l69 43q25 15 40.5 34.5t15.5 43.5q0 26 -19.5 46t-54.5 20t-57 -20.5
t-22 -55.5q0 -3 0.5 -9.5t2.5 -12.5z" />
    <glyph glyph-name="three.dnom" horiz-adv-x="403" 
d="M151 213l115 105h-195v44h261v-42l-116 -105q2 1 9 1q22 0 43 -7t37 -20.5t25.5 -33t9.5 -46.5q0 -24 -10 -45.5t-28 -37t-43.5 -25t-56.5 -9.5q-61 0 -98.5 31t-43.5 75l46 17q3 -37 31 -58t64 -21q38 0 62.5 20.5t24.5 52.5q0 36 -24.5 53.5t-58.5 17.5q-17 0 -32 -5z
" />
    <glyph glyph-name="four.dnom" horiz-adv-x="435" 
d="M63 132l180 230h61v-237h70v-44h-70v-81h-51v81h-190v51zM253 305l-140 -180h140v180z" />
    <glyph glyph-name="five.dnom" horiz-adv-x="400" 
d="M108 111q5 -32 30 -53.5t60 -21.5q38 0 62.5 22t24.5 57q0 37 -24 58.5t-62 21.5q-45 0 -79 -34l-44 16l49 185h196v-44h-162l-30 -114q17 17 39 24.5t44 7.5q56 0 90 -33t34 -86q0 -26 -9.5 -48.5t-27.5 -39t-43.5 -26.5t-57.5 -10q-27 0 -50 8t-41 22t-29.5 31.5
t-14.5 37.5z" />
    <glyph glyph-name="six.dnom" horiz-adv-x="412" 
d="M323 310q-29 16 -69 16q-32 0 -57 -11t-43 -30.5t-28 -46t-12 -57.5q11 25 40.5 43t65.5 18q56 0 92.5 -33.5t36.5 -90.5q0 -28 -11 -51t-30 -39.5t-44.5 -25.5t-54.5 -9q-30 0 -56.5 11t-46.5 32t-31.5 52.5t-11.5 72.5q0 50 15 89t40.5 65.5t59.5 40t73 13.5
q53 0 85 -19zM123 118q0 -37 26.5 -59.5t60.5 -22.5q35 0 61 22.5t26 59.5q0 38 -26 59.5t-61 21.5q-34 0 -60.5 -21.5t-26.5 -59.5z" />
    <glyph glyph-name="seven.dnom" horiz-adv-x="411" 
d="M347 316q-23 -20 -49.5 -47.5t-49.5 -66t-41 -88.5t-25 -114h-54q7 68 27 121t43.5 92.5t47 65.5t38.5 39h-221v44h284v-46z" />
    <glyph glyph-name="eight.dnom" horiz-adv-x="401" 
d="M200 -7q-66 0 -101.5 30t-35.5 74q0 31 20.5 55t54.5 34q-29 9 -46.5 31.5t-17.5 51.5q0 44 34.5 72t91.5 28t92.5 -28t35.5 -72q0 -29 -18 -51.5t-47 -31.5q34 -10 54.5 -34t20.5 -55q0 -44 -36 -74t-102 -30zM200 206q35 0 56 17t21 44q0 26 -20.5 43.5t-56.5 17.5
t-56 -17.5t-20 -43.5q0 -27 21 -44t55 -17zM200 36q42 0 64 18.5t22 45.5q0 29 -22 47.5t-64 18.5q-41 0 -63 -18.5t-22 -47.5q0 -27 22 -45.5t63 -18.5z" />
    <glyph glyph-name="nine.dnom" horiz-adv-x="410" 
d="M287 246q0 37 -26 58.5t-61 21.5t-60.5 -21.5t-25.5 -58.5q0 -38 25.5 -59.5t60.5 -21.5t61 21.5t26 59.5zM88 55q15 -9 34.5 -13.5t38.5 -4.5q59 0 96 36.5t39 110.5q-11 -27 -40 -44t-64 -17q-27 0 -50.5 8.5t-41 24.5t-27.5 39t-10 51q0 27 11 49.5t29.5 39t44 26
t54.5 9.5q30 0 56 -11t45.5 -32t31 -52.5t11.5 -71.5q0 -47 -11.5 -85.5t-35 -66.5t-57.5 -43t-79 -15q-24 0 -48 6t-40 15z" />
    <glyph glyph-name="uni2070" unicode="&#x2070;" horiz-adv-x="429" 
d="M66 527q0 35 8 70.5t29 63.5q17 23 43.5 38.5t67.5 15.5q42 0 68.5 -15.5t43.5 -38.5q21 -28 28.5 -63.5t7.5 -70.5t-7.5 -70t-28.5 -63q-17 -23 -43.5 -38.5t-68.5 -15.5q-41 0 -67.5 15.5t-43.5 38.5q-21 28 -29 63t-8 70zM118 527q0 -25 4 -50.5t15 -46t29.5 -33.5
t47.5 -13t47.5 13t29.5 33.5t15 46t4 50.5t-4 51t-15 46.5t-29.5 33.5t-47.5 13t-47.5 -13t-29.5 -33.5t-15 -46.5t-4 -51z" />
    <glyph glyph-name="uni2074" unicode="&#x2074;" horiz-adv-x="435" 
d="M63 479l180 230h61v-237h70v-44h-70v-81h-51v81h-190v51zM253 652l-140 -180h140v180z" />
    <glyph glyph-name="uni2075" unicode="&#x2075;" horiz-adv-x="400" 
d="M108 458q5 -32 30 -53.5t60 -21.5q38 0 62.5 22t24.5 57q0 37 -24 58.5t-62 21.5q-45 0 -79 -34l-44 16l49 185h196v-44h-162l-30 -114q17 17 39 24.5t44 7.5q56 0 90 -33t34 -86q0 -26 -9.5 -48.5t-27.5 -39t-43.5 -26.5t-57.5 -10q-27 0 -50 8t-41 22t-29.5 31.5
t-14.5 37.5z" />
    <glyph glyph-name="uni2076" unicode="&#x2076;" horiz-adv-x="412" 
d="M323 657q-29 16 -69 16q-32 0 -57 -11t-43 -30.5t-28 -46t-12 -57.5q11 25 40.5 43t65.5 18q56 0 92.5 -33.5t36.5 -90.5q0 -28 -11 -51t-30 -39.5t-44.5 -25.5t-54.5 -9q-30 0 -56.5 11t-46.5 32t-31.5 52.5t-11.5 72.5q0 50 15 89t40.5 65.5t59.5 40t73 13.5
q53 0 85 -19zM123 465q0 -37 26.5 -59.5t60.5 -22.5q35 0 61 22.5t26 59.5q0 38 -26 59.5t-61 21.5q-34 0 -60.5 -21.5t-26.5 -59.5z" />
    <glyph glyph-name="uni2077" unicode="&#x2077;" horiz-adv-x="411" 
d="M347 663q-23 -20 -49.5 -47.5t-49.5 -66t-41 -88.5t-25 -114h-54q7 68 27 121t43.5 92.5t47 65.5t38.5 39h-221v44h284v-46z" />
    <glyph glyph-name="uni2078" unicode="&#x2078;" horiz-adv-x="401" 
d="M200 340q-66 0 -101.5 30t-35.5 74q0 31 20.5 55t54.5 34q-29 9 -46.5 31.5t-17.5 51.5q0 44 34.5 72t91.5 28t92.5 -28t35.5 -72q0 -29 -18 -51.5t-47 -31.5q34 -10 54.5 -34t20.5 -55q0 -44 -36 -74t-102 -30zM200 553q35 0 56 17t21 44q0 26 -20.5 43.5t-56.5 17.5
t-56 -17.5t-20 -43.5q0 -27 21 -44t55 -17zM200 383q42 0 64 18.5t22 45.5q0 29 -22 47.5t-64 18.5q-41 0 -63 -18.5t-22 -47.5q0 -27 22 -45.5t63 -18.5z" />
    <glyph glyph-name="uni2079" unicode="&#x2079;" horiz-adv-x="410" 
d="M287 592q0 37 -26 58.5t-61 21.5t-60.5 -21.5t-25.5 -58.5q0 -38 25.5 -59.5t60.5 -21.5t61 21.5t26 59.5zM88 401q15 -9 34.5 -13.5t38.5 -4.5q59 0 96 36.5t39 110.5q-11 -27 -40 -44t-64 -17q-27 0 -50.5 8.5t-41 24.5t-27.5 39t-10 51q0 27 11 49.5t29.5 39t44 26
t54.5 9.5q30 0 56 -11t45.5 -32t31 -52.5t11.5 -71.5q0 -47 -11.5 -85.5t-35 -66.5t-57.5 -43t-79 -15q-24 0 -48 6t-40 15z" />
    <glyph glyph-name="uni2080" unicode="&#x2080;" horiz-adv-x="422" 
d="M63 99q0 35 8 70.5t29 63.5q17 23 43.5 38.5t67.5 15.5q42 0 68.5 -15.5t43.5 -38.5q21 -28 28.5 -63.5t7.5 -70.5t-7.5 -70t-28.5 -63q-17 -23 -43.5 -38.5t-68.5 -15.5q-41 0 -67.5 15.5t-43.5 38.5q-21 28 -29 63t-8 70zM115 99q0 -25 4 -50.5t15 -46t29.5 -33.5
t47.5 -13t47.5 13t29.5 33.5t15 46t4 50.5t-4 51t-15 46.5t-29.5 33.5t-47.5 13t-47.5 -13t-29.5 -33.5t-15 -46.5t-4 -51z" />
    <glyph glyph-name="uni2081" unicode="&#x2081;" horiz-adv-x="287" 
d="M143 -81v277q-2 -3 -12.5 -8t-24 -9.5t-27 -7.5t-22.5 -4v40q37 5 60 26.5t28 48.5h49v-363h-51z" />
    <glyph glyph-name="uni2082" unicode="&#x2082;" horiz-adv-x="385" 
d="M67 150q-1 5 -1.5 12t-0.5 12q0 47 34 80t94 33q29 0 52 -8.5t39.5 -23.5t25 -35t8.5 -42q0 -35 -20 -62t-52 -47l-74 -45q-18 -11 -30.5 -26.5t-15.5 -35.5h196v-43h-258v4q0 40 18 74.5t60 60.5l69 43q25 15 40.5 34.5t15.5 43.5q0 26 -19.5 46t-54.5 20t-57 -20.5
t-22 -55.5q0 -3 0.5 -9.5t2.5 -12.5z" />
    <glyph glyph-name="uni2083" unicode="&#x2083;" horiz-adv-x="403" 
d="M151 132l115 105h-195v44h261v-42l-116 -105q2 1 9 1q22 0 43 -7t37 -20.5t25.5 -33t9.5 -46.5q0 -24 -10 -45.5t-28 -37t-43.5 -25t-56.5 -9.5q-61 0 -98.5 31t-43.5 75l46 17q3 -37 31 -58t64 -21q38 0 62.5 20.5t24.5 52.5q0 36 -24.5 53.5t-58.5 17.5q-17 0 -32 -5z
" />
    <glyph glyph-name="uni2084" unicode="&#x2084;" horiz-adv-x="435" 
d="M63 51l180 230h61v-237h70v-44h-70v-81h-51v81h-190v51zM253 224l-140 -180h140v180z" />
    <glyph glyph-name="uni2085" unicode="&#x2085;" horiz-adv-x="400" 
d="M108 30q5 -32 30 -53.5t60 -21.5q38 0 62.5 22t24.5 57q0 37 -24 58.5t-62 21.5q-45 0 -79 -34l-44 16l49 185h196v-44h-162l-30 -114q17 17 39 24.5t44 7.5q56 0 90 -33t34 -86q0 -26 -9.5 -48.5t-27.5 -39t-43.5 -26.5t-57.5 -10q-27 0 -50 8t-41 22t-29.5 31.5
t-14.5 37.5z" />
    <glyph glyph-name="uni2086" unicode="&#x2086;" horiz-adv-x="412" 
d="M323 229q-29 16 -69 16q-32 0 -57 -11t-43 -30.5t-28 -46t-12 -57.5q11 25 40.5 43t65.5 18q56 0 92.5 -33.5t36.5 -90.5q0 -28 -11 -51t-30 -39.5t-44.5 -25.5t-54.5 -9q-30 0 -56.5 11t-46.5 32t-31.5 52.5t-11.5 72.5q0 50 15 89t40.5 65.5t59.5 40t73 13.5
q53 0 85 -19zM123 37q0 -37 26.5 -59.5t60.5 -22.5q35 0 61 22.5t26 59.5q0 38 -26 59.5t-61 21.5q-34 0 -60.5 -21.5t-26.5 -59.5z" />
    <glyph glyph-name="uni2087" unicode="&#x2087;" horiz-adv-x="411" 
d="M347 235q-23 -20 -49.5 -47.5t-49.5 -66t-41 -88.5t-25 -114h-54q7 68 27 121t43.5 92.5t47 65.5t38.5 39h-221v44h284v-46z" />
    <glyph glyph-name="uni2088" unicode="&#x2088;" horiz-adv-x="401" 
d="M200 -88q-66 0 -101.5 30t-35.5 74q0 31 20.5 55t54.5 34q-29 9 -46.5 31.5t-17.5 51.5q0 44 34.5 72t91.5 28t92.5 -28t35.5 -72q0 -29 -18 -51.5t-47 -31.5q34 -10 54.5 -34t20.5 -55q0 -44 -36 -74t-102 -30zM200 125q35 0 56 17t21 44q0 26 -20.5 43.5t-56.5 17.5
t-56 -17.5t-20 -43.5q0 -27 21 -44t55 -17zM200 -45q42 0 64 18.5t22 45.5q0 29 -22 47.5t-64 18.5q-41 0 -63 -18.5t-22 -47.5q0 -27 22 -45.5t63 -18.5z" />
    <glyph glyph-name="uni2089" unicode="&#x2089;" horiz-adv-x="410" 
d="M287 164q0 37 -26 58.5t-61 21.5t-60.5 -21.5t-25.5 -58.5q0 -38 25.5 -59.5t60.5 -21.5t61 21.5t26 59.5zM88 -27q15 -9 34.5 -13.5t38.5 -4.5q59 0 96 36.5t39 110.5q-11 -27 -40 -44t-64 -17q-27 0 -50.5 8.5t-41 24.5t-27.5 39t-10 51q0 27 11 49.5t29.5 39t44 26
t54.5 9.5q30 0 56 -11t45.5 -32t31 -52.5t11.5 -71.5q0 -47 -11.5 -85.5t-35 -66.5t-57.5 -43t-79 -15q-24 0 -48 6t-40 15z" />
    <glyph glyph-name="questiondown.case" horiz-adv-x="495" 
d="M308 665q0 -21 -14.5 -35.5t-35.5 -14.5q-20 0 -35 14.5t-15 35.5q0 20 15 34.5t35 14.5q21 0 35.5 -14.5t14.5 -34.5zM287 522q3 -15 3 -38q0 -48 -17 -83.5t-56 -64.5l-44 -33q-32 -25 -50 -56t-18 -68q0 -27 9 -51t26.5 -43t43.5 -30t61 -11q38 0 66 12.5t46 33t27 47
t9 54.5q0 25 -8 54l62 -8q7 -25 7 -52q0 -35 -12.5 -70t-38.5 -63.5t-65 -46t-93 -17.5q-48 0 -86 16t-64 42.5t-39.5 61t-13.5 70.5q0 55 27 97t72 75l45 33q28 21 37.5 49t9.5 57q0 10 -0.5 18t-1.5 15h56z" />
    <glyph glyph-name="exclamdown.case" horiz-adv-x="292" 
d="M96 664q0 20 14.5 34.5t35.5 14.5q20 0 35 -14.5t15 -34.5q0 -21 -15 -35.5t-35 -14.5q-21 0 -35.5 14.5t-14.5 35.5zM184 0h-76l17 520h42z" />
    <glyph glyph-name="hyphen.case" horiz-adv-x="365" 
d="M51 310v54h263v-54h-263z" />
    <glyph glyph-name="endash.case" horiz-adv-x="635" 
d="M67 310v54h500v-54h-500z" />
    <glyph glyph-name="emdash.case" horiz-adv-x="1074" 
d="M77 310v54h919v-54h-919z" />
    <glyph glyph-name="guilsinglleft.case" horiz-adv-x="255" 
d="M169 147l-133 191l133 191h60l-132 -191l132 -191h-60z" />
    <glyph glyph-name="guilsinglright.case" horiz-adv-x="255" 
d="M26 147l133 191l-133 191h60l133 -191l-133 -191h-60z" />
    <glyph glyph-name="guillemotleft.case" horiz-adv-x="421" 
d="M335 147l-133 191l133 191h60l-132 -191l132 -191h-60zM169 147l-133 191l133 191h60l-132 -191l132 -191h-60z" />
    <glyph glyph-name="guillemotright.case" horiz-adv-x="421" 
d="M26 147l133 191l-133 191h60l133 -191l-133 -191h-60zM192 147l132 191l-132 191h60l133 -191l-133 -191h-60z" />
    <glyph glyph-name="parenleft.case" horiz-adv-x="279" 
d="M61 352q0 70 13.5 132.5t37.5 117.5t57 102t71 87l36 -32q-76 -83 -119.5 -182t-43.5 -225q0 -64 11.5 -120t32.5 -106t51 -94.5t68 -86.5l-36 -32q-38 40 -71 87t-57 101.5t-37.5 117t-13.5 133.5z" />
    <glyph glyph-name="parenright.case" horiz-adv-x="279" 
d="M218 352q0 -71 -13.5 -133.5t-37.5 -117t-57 -101.5t-71 -87l-36 32q38 42 68 86.5t51 94.5t32 106t11 120q0 126 -43 225t-119 182l36 32q38 -40 71 -87t57 -102t37.5 -117.5t13.5 -132.5z" />
    <glyph glyph-name="bracketleft.case" horiz-adv-x="268" 
d="M96 -62v856h154v-50h-100v-757h100v-49h-154z" />
    <glyph glyph-name="bracketright.case" horiz-adv-x="268" 
d="M18 -62v49h100v757h-100v50h154v-856h-154z" />
    <glyph glyph-name="braceleft.case" horiz-adv-x="333" 
d="M51 393q22 2 41.5 9.5t34.5 21t23.5 32.5t8.5 45v137q0 155 147 155h9v-48h-9q-54 0 -74.5 -24.5t-20.5 -78.5v-154q0 -49 -27.5 -80.5t-73.5 -42.5q46 -10 73.5 -42t27.5 -81v-153q0 -53 20.5 -77.5t74.5 -24.5h9v-49h-9q-147 0 -147 155v137q0 25 -8.5 44.5t-23.5 32.5
t-34.5 20.5t-41.5 9.5v56z" />
    <glyph glyph-name="braceright.case" horiz-adv-x="333" 
d="M282 337q-22 -2 -41.5 -9.5t-34.5 -20.5t-23.5 -32.5t-8.5 -44.5v-137q0 -155 -147 -155h-9v49h9q54 0 74.5 24.5t20.5 77.5v153q0 49 27.5 81t73.5 42q-46 11 -73.5 42.5t-27.5 80.5v154q0 54 -20.5 78.5t-74.5 24.5h-9v48h9q147 0 147 -155v-137q0 -26 8.5 -45
t23.5 -32.5t34.5 -21t41.5 -9.5v-56z" />
    <glyph glyph-name="thinspace" unicode="&#x2009;" horiz-adv-x="0" 
 />
    <glyph glyph-name="divisionslash" unicode="&#x2215;" horiz-adv-x="391" 
d="M68 0h-59l314 648h59z" />
    <glyph glyph-name="arrowleft" unicode="&#x2190;" horiz-adv-x="998" 
d="M32 290l194 163v-137h714v-53h-714v-137z" />
    <glyph glyph-name="arrowup" unicode="&#x2191;" horiz-adv-x="407" 
d="M378 592h-142v-739h-54v739h-142l169 204z" />
    <glyph glyph-name="arrowright" unicode="&#x2192;" horiz-adv-x="998" 
d="M744 116v147h-700v53h700v147l206 -173z" />
    <glyph glyph-name="arrowdown" unicode="&#x2193;" horiz-adv-x="407" 
d="M198 -158l-173 206h146v737h54v-737h147z" />
    <glyph glyph-name="uni2196" unicode="&#x2196;" horiz-adv-x="839" 
d="M302 709l-106 -106l574 -573l-38 -38l-573 573l-107 -108v252h250z" />
    <glyph glyph-name="uni2197" unicode="&#x2197;" horiz-adv-x="801" 
d="M733 709v-252l-107 108l-573 -573l-39 38l574 573l-106 106h251z" />
    <glyph glyph-name="uni2198" unicode="&#x2198;" horiz-adv-x="839" 
d="M520 0l106 106l-574 573l38 38l573 -573l107 108v-252h-250z" />
    <glyph glyph-name="uni2199" unicode="&#x2199;" horiz-adv-x="798" 
d="M48 0v252l107 -108l573 573l39 -38l-574 -573l106 -106h-251z" />
    <glyph glyph-name="uni21BA" unicode="&#x21ba;" horiz-adv-x="739" 
d="M76 0v586h437v137l194 -164l-194 -164v137h-384v-532h-53z" />
    <glyph glyph-name="uni21BB" unicode="&#x21bb;" horiz-adv-x="759" 
d="M50 559l195 164v-137h418v-586h-53v532h-365v-137z" />
    <glyph glyph-name="uni21A9" unicode="&#x21a9;" horiz-adv-x="754" 
d="M659 717v-585h-437v-138l-194 164l194 164v-137h384v532h53z" />
    <glyph glyph-name="uni21B0" unicode="&#x21b0;" horiz-adv-x="783" 
d="M726 158l-195 -164v138h-437v585h54v-532h383v137z" />
    <glyph glyph-name="uni21B1" unicode="&#x21b1;" horiz-adv-x="767" 
d="M27 709h565v-528h137l-164 -194l-164 194h137v475h-511v53z" />
    <glyph glyph-name="uni21B2" unicode="&#x21b2;" horiz-adv-x="767" 
d="M38 181h137v528h565v-53h-511v-475h137l-164 -194z" />
    <glyph glyph-name="uni21B3" unicode="&#x21b3;" horiz-adv-x="1059" 
d="M58 540l195 164v-137h721v-54h-721v-137zM807 6v137h-722v54h722v137l194 -164z" />
    <glyph glyph-name="uni21B4" unicode="&#x21b4;" horiz-adv-x="835" 
d="M423 654h168q42 0 79 -15t64.5 -41.5t43.5 -62.5t16 -78q0 -44 -17 -80.5t-45.5 -62.5t-66 -40t-77.5 -14h-369v-137l-195 164l195 164v-137h367q30 0 58 10t49.5 28.5t34.5 45t13 59.5q0 31 -12 57.5t-33 46t-49 30t-60 10.5h-164v53z" />
    <glyph glyph-name="uni21B5" unicode="&#x21b5;" horiz-adv-x="1086" 
d="M48 355h130q0 76 29 143t79 116.5t116.5 78.5t142.5 29q50 0 95.5 -12.5t85.5 -35.5l-23 -47q-35 20 -75 31t-83 11q-65 0 -122 -24.5t-99.5 -67.5t-67 -100t-24.5 -122h134l-159 -191zM912 355q0 -76 -29 -143t-79 -116.5t-116.5 -78.5t-142.5 -29q-50 0 -95.5 12
t-85.5 35l23 48q35 -20 75 -31t83 -11q65 0 122 24.5t99.5 67t67 100t24.5 122.5h-132l159 191l159 -191h-132z" />
    <glyph glyph-name="uni21C6" unicode="&#x21c6;" horiz-adv-x="969" 
d="M755 546l159 -191h-129q0 -76 -29 -143t-79 -116.5t-117 -78.5t-143 -29t-143 29t-116.5 78.5t-78.5 116.5t-29 143t29 143t78.5 116.5t116.5 78.5t143 29q50 0 95.5 -12.5t85.5 -35.5l-23 -47q-35 20 -74.5 31t-83.5 11q-65 0 -122 -24.5t-99.5 -67.5t-67 -100
t-24.5 -122t24.5 -122.5t67 -100.5t99.5 -67.5t122 -24.5t122.5 24.5t100 67.5t67 100.5t24.5 122.5h-135z" />
    <glyph glyph-name="uni2160" unicode="&#x2160;" horiz-adv-x="510" 
d="M449 592h-163v-535h163v-57h-388v57h164v535h-164v56h388v-56z" />
    <glyph glyph-name="uni2161" unicode="&#x2161;" horiz-adv-x="774" 
d="M713 0h-652v57h157v535h-157v56h652v-56h-158v-535h158v-57zM494 592h-214v-535h214v535z" />
    <glyph glyph-name="uni2162" unicode="&#x2162;" horiz-adv-x="1044" 
d="M983 0h-922v57h157v535h-157v56h922v-56h-157v-535h157v-57zM280 57h211v535h-211v-535zM764 592h-211v-535h211v535z" />
    <glyph glyph-name="uni2163" unicode="&#x2163;" horiz-adv-x="1010" 
d="M948 0h-887v57h152v535h-152v56h887v-56h-114l-185 -535h299v-57zM769 592h-335l168 -505zM274 57h276l-182 535h-94v-535z" />
    <glyph glyph-name="uni2164" unicode="&#x2164;" horiz-adv-x="807" 
d="M746 592h-110l-184 -535h290v-57h-676v57h287l-183 535h-109v56h685v-56zM572 592h-336l168 -505z" />
    <glyph glyph-name="uni2165" unicode="&#x2165;" horiz-adv-x="1010" 
d="M948 0h-887v57h297l-183 535h-114v56h887v-56h-142v-535h142v-57zM577 592h-336l168 -505zM457 57h288v535h-104z" />
    <glyph glyph-name="uni2166" unicode="&#x2166;" horiz-adv-x="1297" 
d="M1236 0h-1175v57h296l-182 535h-114v56h1175v-56h-158v-535h158v-57zM576 592h-335l168 -505zM456 57h288v535h-103zM1017 592h-211v-535h211v535z" />
    <glyph glyph-name="uni2167" unicode="&#x2167;" horiz-adv-x="1546" 
d="M1485 0h-1424v57h294l-180 535h-114v56h1424v-56h-154v-535h154v-57zM571 592h-330l165 -505zM453 57h287v535h-104zM1066 57h203v535h-203v-535zM801 57h204v535h-204v-535z" />
    <glyph glyph-name="uni2168" unicode="&#x2168;" horiz-adv-x="980" 
d="M919 0h-858v57h152v535h-152v56h857v-56h-102l-191 -272l187 -263h107v-57zM590 369l156 223h-310zM366 592h-92v-535h94l188 263zM438 57h303l-151 215z" />
    <glyph glyph-name="uni2169" unicode="&#x2169;" horiz-adv-x="771" 
d="M709 592h-98l-192 -274l184 -261h106v-57h-648v57h102l187 261l-193 274h-96v56h648v-56zM384 366l157 226h-313zM233 57h299l-148 212z" />
    <glyph glyph-name="uni216C" unicode="&#x216c;" horiz-adv-x="658" 
d="M597 0h-536v57h144v535h-144v56h358v-56h-153v-535h269v220h62v-277z" />
    <glyph glyph-name="uni216D" unicode="&#x216d;" horiz-adv-x="704" 
d="M642 0h-61v95q-28 -44 -77.5 -75.5t-129.5 -31.5q-61 0 -117.5 22t-100 64.5t-69.5 105.5t-26 144q0 82 26 144.5t69.5 105.5t100 65t116.5 22q40 0 71.5 -8.5t56.5 -22.5t44 -33t33 -40v92h61v-216h-61q-6 39 -22 70.5t-41.5 54.5t-60.5 35.5t-81 12.5q-50 0 -95.5 -18
t-80 -53t-54.5 -88t-20 -123t20 -122.5t54 -87.5t79.5 -52.5t96.5 -17.5q50 0 87 14.5t62 39t39.5 56t19.5 66.5h61v-220z" />
    <glyph glyph-name="uni216E" unicode="&#x216e;" horiz-adv-x="730" 
d="M363 648q60 0 115.5 -20.5t98 -61.5t67.5 -102t25 -141t-25 -140t-68 -101t-99 -61.5t-118 -20.5h-298v57h149v535h-149v56h302zM360 57q48 0 92 16t78.5 49t55 83t20.5 118q0 66 -19.5 116.5t-53.5 84.5t-78.5 51t-94.5 17h-90v-535h90z" />
    <glyph glyph-name="uni216F" unicode="&#x216f;" horiz-adv-x="1073" 
d="M533 84l250 564h226v-56h-137v-535h140v-57h-317v57h116v507l-253 -564h-51l-252 564v-507h123v-57h-317v57h134v535h-134v56h223z" />
    <glyph glyph-name="uni2780" unicode="&#x2780;" horiz-adv-x="829" 
d="M51 354q0 76 28.5 143t77.5 117t115 79t141 29q76 0 142.5 -29t116 -79t78 -117t28.5 -143q0 -75 -28.5 -142t-78 -117t-116 -79t-142.5 -29q-75 0 -141 29t-115 79t-77.5 117t-28.5 142zM101 354q0 -67 24.5 -125t66.5 -101.5t99 -68.5t122 -25t122 25t99.5 68.5
t67 101.5t24.5 125t-24.5 126t-67 102t-99.5 68t-122 25t-122 -25t-99 -68t-66.5 -102t-24.5 -126zM265 354q0 35 8 70.5t29 63.5q17 23 43.5 38.5t67.5 15.5q42 0 68.5 -15.5t43.5 -38.5q21 -28 28.5 -63.5t7.5 -70.5t-7.5 -70t-28.5 -63q-17 -23 -43.5 -38.5t-68.5 -15.5
q-41 0 -67.5 15.5t-43.5 38.5q-21 28 -29 63t-8 70zM317 354q0 -25 4 -50.5t15 -46t29.5 -33.5t47.5 -13t47.5 13t29.5 33.5t15 46t4 50.5t-4 51t-15 46.5t-29.5 33.5t-47.5 13t-47.5 -13t-29.5 -33.5t-15 -46.5t-4 -51z" />
    <glyph glyph-name="uni2781" unicode="&#x2781;" horiz-adv-x="829" 
d="M51 354q0 76 28.5 143t77.5 117t115 79t141 29q76 0 142.5 -29t116 -79t78 -117t28.5 -143q0 -75 -28.5 -142t-78 -117t-116 -79t-142.5 -29q-75 0 -141 29t-115 79t-77.5 117t-28.5 142zM101 354q0 -67 24.5 -125t66.5 -101.5t99 -68.5t122 -25t122 25t99.5 68.5
t67 101.5t24.5 125t-24.5 126t-67 102t-99.5 68t-122 25t-122 -25t-99 -68t-66.5 -102t-24.5 -126zM397 174v277q-2 -3 -12.5 -8t-24 -9.5t-27.5 -7.5t-23 -4v40q38 5 61 26.5t28 48.5h49v-363h-51z" />
    <glyph glyph-name="uni2782" unicode="&#x2782;" horiz-adv-x="829" 
d="M51 354q0 76 28.5 143t77.5 117t115 79t141 29q76 0 142.5 -29t116 -79t78 -117t28.5 -143q0 -75 -28.5 -142t-78 -117t-116 -79t-142.5 -29q-75 0 -141 29t-115 79t-77.5 117t-28.5 142zM101 354q0 -67 24.5 -125t66.5 -101.5t99 -68.5t122 -25t122 25t99.5 68.5
t67 101.5t24.5 125t-24.5 126t-67 102t-99.5 68t-122 25t-122 -25t-99 -68t-66.5 -102t-24.5 -126zM285 407q-1 5 -1.5 12t-0.5 12q0 47 34 80t94 33q29 0 52 -8.5t39 -23.5t24.5 -35t8.5 -42q0 -35 -20 -62t-52 -47l-73 -45q-18 -11 -31 -26.5t-15 -35.5h196v-43h-258v4
q0 40 18 74.5t60 60.5l69 43q25 15 40 34.5t15 43.5q0 26 -19.5 46t-54.5 20q-34 0 -56 -20.5t-22 -55.5q0 -3 0.5 -9.5t2.5 -12.5z" />
    <glyph glyph-name="uni2783" unicode="&#x2783;" horiz-adv-x="829" 
d="M51 354q0 76 28.5 143t77.5 117t115 79t141 29q76 0 142.5 -29t116 -79t78 -117t28.5 -143q0 -75 -28.5 -142t-78 -117t-116 -79t-142.5 -29q-75 0 -141 29t-115 79t-77.5 117t-28.5 142zM101 354q0 -67 24.5 -125t66.5 -101.5t99 -68.5t122 -25t122 25t99.5 68.5
t67 101.5t24.5 125t-24.5 126t-67 102t-99.5 68t-122 25t-122 -25t-99 -68t-66.5 -102t-24.5 -126zM361 387l115 104h-195v44h262v-43l-116 -104q4 2 9 2q22 -1 43 -8t37 -20.5t25.5 -33t9.5 -46.5q0 -24 -10 -45.5t-28 -37t-44 -25t-57 -9.5q-61 0 -98 31t-44 75l47 17
q3 -36 31 -57.5t63 -21.5q38 0 62.5 20.5t24.5 52.5q0 36 -24.5 53t-58.5 17q-8 0 -16.5 -1t-15.5 -3z" />
    <glyph glyph-name="uni2784" unicode="&#x2784;" horiz-adv-x="829" 
d="M51 354q0 76 28.5 143t77.5 117t115 79t141 29q76 0 142.5 -29t116 -79t78 -117t28.5 -143q0 -75 -28.5 -142t-78 -117t-116 -79t-142.5 -29q-75 0 -141 29t-115 79t-77.5 117t-28.5 142zM101 354q0 -67 24.5 -125t66.5 -101.5t99 -68.5t122 -25t122 25t99.5 68.5
t67 101.5t24.5 125t-24.5 126t-67 102t-99.5 68t-122 25t-122 -25t-99 -68t-66.5 -102t-24.5 -126zM237 308l180 230h61v-237h70v-44h-70v-81h-51v81h-190v51zM427 481l-140 -180h140v180z" />
    <glyph glyph-name="uni2785" unicode="&#x2785;" horiz-adv-x="829" 
d="M51 354q0 76 28.5 143t77.5 117t115 79t141 29q76 0 142.5 -29t116 -79t78 -117t28.5 -143q0 -75 -28.5 -142t-78 -117t-116 -79t-142.5 -29q-75 0 -141 29t-115 79t-77.5 117t-28.5 142zM101 354q0 -67 24.5 -125t66.5 -101.5t99 -68.5t122 -25t122 25t99.5 68.5
t67 101.5t24.5 125t-24.5 126t-67 102t-99.5 68t-122 25t-122 -25t-99 -68t-66.5 -102t-24.5 -126zM314 284q5 -32 30 -53.5t60 -21.5q38 0 62.5 22t24.5 57q0 37 -24 58.5t-62 21.5q-45 0 -79 -34l-44 16l49 185h196v-44h-162l-30 -114q17 17 39 24.5t44 7.5q56 0 90 -33
t34 -86q0 -26 -9.5 -48.5t-27.5 -39t-43.5 -26.5t-57.5 -10q-27 0 -50 8t-41 22t-29.5 31.5t-14.5 37.5z" />
    <glyph glyph-name="uni2786" unicode="&#x2786;" horiz-adv-x="829" 
d="M51 354q0 76 28.5 143t77.5 117t115 79t141 29q76 0 142.5 -29t116 -79t78 -117t28.5 -143q0 -75 -28.5 -142t-78 -117t-116 -79t-142.5 -29q-75 0 -141 29t-115 79t-77.5 117t-28.5 142zM101 354q0 -67 24.5 -125t66.5 -101.5t99 -68.5t122 -25t122 25t99.5 68.5
t67 101.5t24.5 125t-24.5 126t-67 102t-99.5 68t-122 25t-122 -25t-99 -68t-66.5 -102t-24.5 -126zM514 484q-29 16 -69 16q-32 0 -57 -11t-43 -30.5t-28 -46t-12 -57.5q11 25 40.5 43t65.5 18q56 0 92.5 -33.5t36.5 -90.5q0 -28 -11 -51t-30 -39.5t-44.5 -25.5t-54.5 -9
q-30 0 -56.5 11t-46.5 32t-31.5 52.5t-11.5 72.5q0 50 15 89t40.5 65.5t59.5 40t73 13.5q53 0 85 -19zM314 292q0 -37 26.5 -59.5t60.5 -22.5q35 0 61 22.5t26 59.5q0 38 -26 59.5t-61 21.5q-34 0 -60.5 -21.5t-26.5 -59.5z" />
    <glyph glyph-name="uni2787" unicode="&#x2787;" horiz-adv-x="829" 
d="M51 354q0 76 28.5 143t77.5 117t115 79t141 29q76 0 142.5 -29t116 -79t78 -117t28.5 -143q0 -75 -28.5 -142t-78 -117t-116 -79t-142.5 -29q-75 0 -141 29t-115 79t-77.5 117t-28.5 142zM101 354q0 -67 24.5 -125t66.5 -101.5t99 -68.5t122 -25t122 25t99.5 68.5
t67 101.5t24.5 125t-24.5 126t-67 102t-99.5 68t-122 25t-122 -25t-99 -68t-66.5 -102t-24.5 -126zM558 489q-23 -20 -49.5 -47.5t-49.5 -66t-41 -88.5t-25 -114h-54q7 68 27 121t43.5 92.5t47 65.5t38.5 39h-221v44h284v-46z" />
    <glyph glyph-name="uni2788" unicode="&#x2788;" horiz-adv-x="829" 
d="M51 354q0 76 28.5 143t77.5 117t115 79t141 29q76 0 142.5 -29t116 -79t78 -117t28.5 -143q0 -75 -28.5 -142t-78 -117t-116 -79t-142.5 -29q-75 0 -141 29t-115 79t-77.5 117t-28.5 142zM101 354q0 -67 24.5 -125t66.5 -101.5t99 -68.5t122 -25t122 25t99.5 68.5
t67 101.5t24.5 125t-24.5 126t-67 102t-99.5 68t-122 25t-122 -25t-99 -68t-66.5 -102t-24.5 -126zM412 167q-66 0 -101.5 30t-35.5 74q0 31 20.5 55t54.5 34q-29 9 -46.5 31.5t-17.5 51.5q0 44 34.5 72t91.5 28t92.5 -28t35.5 -72q0 -29 -18 -51.5t-47 -31.5
q34 -10 54.5 -34t20.5 -55q0 -44 -36 -74t-102 -30zM412 380q35 0 56 17t21 44q0 26 -20.5 43.5t-56.5 17.5t-56 -17.5t-20 -43.5q0 -27 21 -44t55 -17zM412 210q42 0 64 18.5t22 45.5q0 29 -22 47.5t-64 18.5q-41 0 -63 -18.5t-22 -47.5q0 -27 22 -45.5t63 -18.5z" />
    <glyph glyph-name="uni2789" unicode="&#x2789;" horiz-adv-x="829" 
d="M51 354q0 76 28.5 143t77.5 117t115 79t141 29q76 0 142.5 -29t116 -79t78 -117t28.5 -143q0 -75 -28.5 -142t-78 -117t-116 -79t-142.5 -29q-75 0 -141 29t-115 79t-77.5 117t-28.5 142zM101 354q0 -67 24.5 -125t66.5 -101.5t99 -68.5t122 -25t122 25t99.5 68.5
t67 101.5t24.5 125t-24.5 126t-67 102t-99.5 68t-122 25t-122 -25t-99 -68t-66.5 -102t-24.5 -126zM503 419q0 37 -26 58.5t-61 21.5t-60.5 -21.5t-25.5 -58.5q0 -38 25.5 -59.5t60.5 -21.5t61 21.5t26 59.5zM304 228q15 -9 34.5 -13.5t38.5 -4.5q59 0 96 36.5t39 110.5
q-11 -27 -40 -44t-64 -17q-27 0 -50.5 8.5t-41 24.5t-27.5 39t-10 51q0 27 11 49.5t29.5 39t44 26t54.5 9.5q30 0 56 -11t45.5 -32t31 -52.5t11.5 -71.5q0 -47 -11.5 -85.5t-35 -66.5t-57.5 -43t-79 -15q-24 0 -48 6t-40 15z" />
    <glyph glyph-name="uni2051" unicode="&#x2051;" horiz-adv-x="425" 
d="M235 577l125 43l13 -41l-126 -44l82 -110l-35 -27l-83 113l-79 -112l-35 27l79 109l-125 43l15 42l123 -44v133h46v-132zM235 180l125 43l13 -41l-126 -44l82 -110l-35 -27l-83 113l-79 -112l-35 27l79 109l-125 43l15 42l123 -44v133h46v-132z" />
    <glyph glyph-name="uni2042" unicode="&#x2042;" horiz-adv-x="843" 
d="M444 577l125 43l13 -41l-126 -44l82 -110l-35 -27l-83 113l-79 -112l-35 27l79 109l-125 43l15 42l123 -44v133h46v-132zM660 180l125 43l13 -41l-126 -44l82 -110l-35 -27l-83 113l-79 -112l-35 27l79 109l-125 43l15 42l123 -44v133h46v-132zM228 180l125 43l13 -41
l-126 -44l82 -110l-35 -27l-83 113l-79 -112l-35 27l79 109l-125 43l15 42l123 -44v133h46v-132z" />
    <glyph glyph-name="uni262E" unicode="&#x262e;" horiz-adv-x="830" 
d="M779 354q0 -75 -28.5 -142t-78 -117t-116.5 -79t-143 -29q-75 0 -141 29t-115 79t-77.5 117t-28.5 142q0 76 28.5 143t77.5 117t115 79t141 29q76 0 143 -29t116.5 -79t78 -117t28.5 -143zM102 354q0 -51 14.5 -97t41.5 -85l228 228v273q-60 -5 -112 -31.5t-90.5 -69
t-60 -98.5t-21.5 -120zM726 354q0 64 -22 120t-60.5 98.5t-91 69t-112.5 31.5v-273l229 -229q27 39 42 85t15 98zM190 130q38 -41 88 -65.5t108 -28.5v289zM440 36q58 4 108 28.5t88 63.5l-196 197v-289z" />
    <glyph glyph-name="uni2715" unicode="&#x2715;" horiz-adv-x="747" 
d="M373 307l-304 -311l-38 38l304 311l-303 311l38 38l303 -310l303 310l39 -38l-305 -311l305 -311l-37 -38z" />
    <glyph glyph-name="uni2713" unicode="&#x2713;" horiz-adv-x="981" 
d="M312 -16l-281 314l38 36l246 -270l596 644l38 -37z" />
    <glyph glyph-name="uni25A0" unicode="&#x25a0;" horiz-adv-x="908" 
d="M104 709h701v-709h-701v709z" />
    <glyph glyph-name="uni25A1" unicode="&#x25a1;" horiz-adv-x="908" 
d="M104 0v709h701v-709h-701zM156 49h596v611h-596v-611z" />
    <glyph glyph-name="uni25B2" unicode="&#x25b2;" horiz-adv-x="840" 
d="M840 0h-840l422 726z" />
    <glyph glyph-name="uni25B3" unicode="&#x25b3;" horiz-adv-x="840" 
d="M840 0h-840l422 726zM421 621l-331 -572h660z" />
    <glyph glyph-name="uni25CF" unicode="&#x25cf;" horiz-adv-x="840" 
d="M51 354q0 76 29 143.5t79 117.5t117 79t143 29t143.5 -29t118 -79t79.5 -117.5t29 -143.5q0 -77 -29 -144t-79.5 -116.5t-118 -78.5t-143.5 -29t-143 29t-117 78.5t-79 116.5t-29 144z" />
    <glyph glyph-name="uni25CB" unicode="&#x25cb;" horiz-adv-x="840" 
d="M51 354q0 76 29 143.5t79 117.5t117 79t143 29t143.5 -29t118 -79t79.5 -117.5t29 -143.5q0 -77 -29 -144t-79.5 -116.5t-118 -78.5t-143.5 -29t-143 29t-117 78.5t-79 116.5t-29 144zM105 354q0 -66 24.5 -124t67 -100.5t100 -67.5t122.5 -25q66 0 123.5 25t100 67.5
t67 100.5t24.5 124t-24.5 124t-67 100.5t-100 67.5t-123.5 25q-65 0 -122.5 -25t-100 -67.5t-67 -100.5t-24.5 -124z" />
    <glyph glyph-name="G.salt" horiz-adv-x="758" 
d="M395 -13q-66 0 -128.5 24.5t-111.5 71.5t-79 115.5t-30 156.5t30 156t79 115t111.5 71.5t127.5 24.5q57 0 107 -15.5t89.5 -44.5t68 -69.5t42.5 -89.5l-58 -21q-26 87 -90.5 134.5t-158.5 47.5q-54 0 -105.5 -20t-91 -59t-63.5 -96.5t-24 -133.5t24 -134t63.5 -97
t91 -59.5t106.5 -20.5q54 0 98 17t76.5 46.5t53 69.5t26.5 87h-297v56h362v-22q-4 -66 -28 -123t-65 -98.5t-98.5 -65.5t-127.5 -24z" />
    <glyph glyph-name="Gbreve.salt" horiz-adv-x="758" 
d="M395 -13q-66 0 -128.5 24.5t-111.5 71.5t-79 115.5t-30 156.5t30 156t79 115t111.5 71.5t127.5 24.5q57 0 107 -15.5t89.5 -44.5t68 -69.5t42.5 -89.5l-58 -21q-26 87 -90.5 134.5t-158.5 47.5q-54 0 -105.5 -20t-91 -59t-63.5 -96.5t-24 -133.5t24 -134t63.5 -97
t91 -59.5t106.5 -20.5q54 0 98 17t76.5 46.5t53 69.5t26.5 87h-297v56h362v-22q-4 -66 -28 -123t-65 -98.5t-98.5 -65.5t-127.5 -24zM395 754q-34 0 -60 10.5t-44 28.5t-28 40.5t-12 46.5h51q1 -14 7.5 -28t17.5 -25t28 -18t40 -7t39.5 7t28 18t17.5 25t7 28h51
q-2 -24 -11.5 -46.5t-27.5 -40.5t-44 -28.5t-60 -10.5z" />
    <glyph glyph-name="Gcircumflex.salt" horiz-adv-x="758" 
d="M395 -13q-66 0 -128.5 24.5t-111.5 71.5t-79 115.5t-30 156.5t30 156t79 115t111.5 71.5t127.5 24.5q57 0 107 -15.5t89.5 -44.5t68 -69.5t42.5 -89.5l-58 -21q-26 87 -90.5 134.5t-158.5 47.5q-54 0 -105.5 -20t-91 -59t-63.5 -96.5t-24 -133.5t24 -134t63.5 -97
t91 -59.5t106.5 -20.5q54 0 98 17t76.5 46.5t53 69.5t26.5 87h-297v56h362v-22q-4 -66 -28 -123t-65 -98.5t-98.5 -65.5t-127.5 -24zM239 759l115 119h82l116 -119h-59l-98 84l-97 -84h-59z" />
    <glyph glyph-name="Gcommaaccent.salt" horiz-adv-x="758" 
d="M355 -84q0 19 13.5 30.5t31.5 11.5t34.5 -13.5t16.5 -45.5q0 -26 -8.5 -45.5t-22 -33t-31 -21t-36.5 -8.5v31q25 2 43 18.5t19 39.5q-6 -6 -18 -6q-19 0 -30.5 11t-11.5 31zM395 -13q-66 0 -128.5 24.5t-111.5 71.5t-79 115.5t-30 156.5t30 156t79 115t111.5 71.5
t127.5 24.5q57 0 107 -15.5t89.5 -44.5t68 -69.5t42.5 -89.5l-58 -21q-26 87 -90.5 134.5t-158.5 47.5q-54 0 -105.5 -20t-91 -59t-63.5 -96.5t-24 -133.5t24 -134t63.5 -97t91 -59.5t106.5 -20.5q54 0 98 17t76.5 46.5t53 69.5t26.5 87h-297v56h362v-22q-4 -66 -28 -123
t-65 -98.5t-98.5 -65.5t-127.5 -24z" />
    <glyph glyph-name="Gdotaccent.salt" horiz-adv-x="758" 
d="M395 -13q-66 0 -128.5 24.5t-111.5 71.5t-79 115.5t-30 156.5t30 156t79 115t111.5 71.5t127.5 24.5q57 0 107 -15.5t89.5 -44.5t68 -69.5t42.5 -89.5l-58 -21q-26 87 -90.5 134.5t-158.5 47.5q-54 0 -105.5 -20t-91 -59t-63.5 -96.5t-24 -133.5t24 -134t63.5 -97
t91 -59.5t106.5 -20.5q54 0 98 17t76.5 46.5t53 69.5t26.5 87h-297v56h362v-22q-4 -66 -28 -123t-65 -98.5t-98.5 -65.5t-127.5 -24zM348 819q0 20 14 33.5t34 13.5t33.5 -13.5t13.5 -33.5t-13.5 -34t-33.5 -14t-34 14t-14 34z" />
    <glyph glyph-name="ampersand.salt" horiz-adv-x="669" 
d="M395 316h253v-57h-84v-27q0 -52 -18 -96.5t-50.5 -77.5t-78.5 -52t-102 -19q-53 0 -98 15.5t-77.5 43.5t-50.5 66t-18 82q0 70 42 120.5t109 70.5q-56 17 -86.5 59t-30.5 99q0 36 15.5 68.5t42 57t62 39t76.5 14.5q52 0 91 -14t66 -39t42 -59.5t20 -74.5l-61 -12
q-7 67 -44.5 105.5t-109.5 38.5q-28 0 -53 -9.5t-44 -26.5t-30 -40t-11 -50q0 -56 38.5 -90t104.5 -37h5v-56q-37 -1 -70 -12t-57.5 -31.5t-39 -50t-14.5 -67.5q0 -32 13 -60t36.5 -49t57 -33t74.5 -12t75.5 14t59 39t38.5 60t14 76v27h-107v57z" />
    <glyph glyph-name="uni2113" unicode="&#x2113;" horiz-adv-x="382" 
d="M38 261q14 5 32 11.5t37 16.5v222q0 73 33 111.5t83 38.5q59 0 87 -37t28 -97q0 -88 -48 -156.5t-123 -113.5v-121q0 -42 20 -64t52 -22q46 0 84 24v-55q-14 -8 -34 -16t-51 -8q-64 0 -97.5 37.5t-33.5 101.5v94q-33 -14 -69 -24v57zM278 527q0 36 -11.5 58t-40.5 22
q-27 0 -43 -22.5t-16 -73.5v-185q47 33 79 82.5t32 118.5z" />
    <glyph glyph-name="aring.ss02" horiz-adv-x="570" 
d="M105 240q0 -42 11.5 -78.5t32.5 -63t51.5 -42t68.5 -15.5q37 0 67 15t51 42t32.5 63.5t11.5 78.5t-11.5 78t-32.5 62t-50.5 41t-66.5 15q-38 0 -68 -14.5t-52 -40.5t-33.5 -62t-11.5 -79zM431 94q-8 -18 -22 -37t-34.5 -34.5t-48 -25t-62.5 -9.5q-50 0 -91 19.5
t-69.5 53.5t-44 80t-15.5 99q0 52 16 97.5t44.5 79.5t69 53t90.5 19q38 0 66.5 -10t48.5 -25.5t32.5 -33.5t18.5 -33v90h60v-386q0 -37 2 -62t3 -29h-59q-2 9 -3.5 29t-1.5 46v19zM377 635q0 -22 -8.5 -41t-22.5 -33.5t-33 -22.5t-41 -8q-21 0 -40.5 8t-33.5 22.5
t-22.5 33.5t-8.5 41t8.5 41t22.5 33t33.5 22.5t40.5 8.5q22 0 41 -8.5t33 -22.5t22.5 -33t8.5 -41zM333 635q0 26 -17.5 44.5t-43.5 18.5t-43.5 -18.5t-17.5 -44.5t17.5 -44.5t43.5 -18.5t43.5 18.5t17.5 44.5z" />
    <glyph glyph-name="k.ordn" horiz-adv-x="408" 
d="M233 510l147 -197h-63l-119 162l-59 -60v-102h-50v509h50v-339l166 167h69z" />
    <glyph glyph-name="acircumflex.ss02" horiz-adv-x="570" 
d="M130 538l110 137h72l110 -137h-54l-92 99l-92 -99h-54zM105 240q0 -42 11.5 -78.5t32.5 -63t51.5 -42t68.5 -15.5q37 0 67 15t51 42t32.5 63.5t11.5 78.5t-11.5 78t-32.5 62t-50.5 41t-66.5 15q-38 0 -68 -14.5t-52 -40.5t-33.5 -62t-11.5 -79zM431 94q-8 -18 -22 -37
t-34.5 -34.5t-48 -25t-62.5 -9.5q-50 0 -91 19.5t-69.5 53.5t-44 80t-15.5 99q0 52 16 97.5t44.5 79.5t69 53t90.5 19q38 0 66.5 -10t48.5 -25.5t32.5 -33.5t18.5 -33v90h60v-386q0 -37 2 -62t3 -29h-59q-2 9 -3.5 29t-1.5 46v19z" />
    <glyph glyph-name="amacron.ss02" horiz-adv-x="570" 
d="M105 240q0 -42 11.5 -78.5t32.5 -63t51.5 -42t68.5 -15.5q37 0 67 15t51 42t32.5 63.5t11.5 78.5t-11.5 78t-32.5 62t-50.5 41t-66.5 15q-38 0 -68 -14.5t-52 -40.5t-33.5 -62t-11.5 -79zM431 94q-8 -18 -22 -37t-34.5 -34.5t-48 -25t-62.5 -9.5q-50 0 -91 19.5
t-69.5 53.5t-44 80t-15.5 99q0 52 16 97.5t44.5 79.5t69 53t90.5 19q38 0 66.5 -10t48.5 -25.5t32.5 -33.5t18.5 -33v90h60v-386q0 -37 2 -62t3 -29h-59q-2 9 -3.5 29t-1.5 46v19zM140 581v52h254v-52h-254z" />
    <glyph glyph-name="i.ordn" horiz-adv-x="255" 
d="M90 785q0 17 10.5 28t27.5 11q16 0 27 -11t11 -28q0 -16 -11 -27t-27 -11q-17 0 -27.5 11t-10.5 27zM103 313v337h50v-337h-50z" />
    <glyph glyph-name="b.ordn" horiz-adv-x="478" 
d="M89 313v509h50v-232q11 24 40.5 46.5t77.5 22.5q37 0 65.5 -13.5t48 -37t30 -56t10.5 -69.5q0 -38 -11 -70.5t-31 -56.5t-49 -38t-65 -14q-46 0 -74.5 22.5t-42.5 49.5v-63h-49zM359 483q0 59 -30 95t-80 36t-80.5 -36.5t-30.5 -94.5q0 -59 30.5 -96.5t80.5 -37.5
t80 37.5t30 96.5z" />
    <glyph glyph-name="a.ss02" horiz-adv-x="570" 
d="M105 240q0 -42 11.5 -78.5t32.5 -63t51.5 -42t68.5 -15.5q37 0 67 15t51 42t32.5 63.5t11.5 78.5t-11.5 78t-32.5 62t-50.5 41t-66.5 15q-38 0 -68 -14.5t-52 -40.5t-33.5 -62t-11.5 -79zM431 94q-8 -18 -22 -37t-34.5 -34.5t-48 -25t-62.5 -9.5q-50 0 -91 19.5
t-69.5 53.5t-44 80t-15.5 99q0 52 16 97.5t44.5 79.5t69 53t90.5 19q38 0 66.5 -10t48.5 -25.5t32.5 -33.5t18.5 -33v90h60v-386q0 -37 2 -62t3 -29h-59q-2 9 -3.5 29t-1.5 46v19z" />
    <glyph glyph-name="t.ordn" horiz-adv-x="320" 
d="M175 650h85v-45h-85v-193q0 -58 55 -58q8 0 16.5 1.5t13.5 3.5v-43q-4 -2 -16 -4.5t-28 -2.5q-42 0 -66.5 24.5t-24.5 71.5v200h-69v45h24q49 0 49 50v59h46v-109z" />
    <glyph glyph-name="adieresis.ss02" horiz-adv-x="570" 
d="M105 240q0 -42 11.5 -78.5t32.5 -63t51.5 -42t68.5 -15.5q37 0 67 15t51 42t32.5 63.5t11.5 78.5t-11.5 78t-32.5 62t-50.5 41t-66.5 15q-38 0 -68 -14.5t-52 -40.5t-33.5 -62t-11.5 -79zM431 94q-8 -18 -22 -37t-34.5 -34.5t-48 -25t-62.5 -9.5q-50 0 -91 19.5
t-69.5 53.5t-44 80t-15.5 99q0 52 16 97.5t44.5 79.5t69 53t90.5 19q38 0 66.5 -10t48.5 -25.5t32.5 -33.5t18.5 -33v90h60v-386q0 -37 2 -62t3 -29h-59q-2 9 -3.5 29t-1.5 46v19zM325 610q0 17 12 30t30 13q17 0 29.5 -13t12.5 -30q0 -18 -12.5 -30t-29.5 -12q-18 0 -30 12
t-12 30zM148 610q0 17 12.5 30t29.5 13q18 0 30.5 -13t12.5 -30q0 -18 -12.5 -30t-30.5 -12q-17 0 -29.5 12t-12.5 30z" />
    <glyph glyph-name="m.ordn" horiz-adv-x="670" 
d="M90 589v15t-0.5 19.5t-0.5 17.5v9h47q0 -2 0.5 -8.5t0.5 -14.5t0.5 -16.5t0.5 -14.5q13 26 41 44.5t66 18.5t66 -20t39 -54q15 35 45 54.5t69 19.5q49 0 83.5 -32t34.5 -92v-222h-50v214q0 37 -20.5 62t-62.5 25q-20 0 -36 -8t-27.5 -21t-18 -30.5t-6.5 -36.5v-205h-50
v214q0 37 -20.5 62t-61.5 25q-40 0 -64.5 -28.5t-24.5 -68.5v-204h-50v276z" />
    <glyph glyph-name="q.ordn" horiz-adv-x="461" 
d="M339 179v193q-13 -25 -41.5 -46.5t-74.5 -21.5q-35 0 -64 14t-49 38t-31 56.5t-11 70.5q0 36 10.5 68t30.5 56t48.5 37.5t64.5 13.5q25 0 44.5 -6.5t33.5 -17t24 -23t15 -24.5v63h50v-471h-50zM118 483q0 -58 30.5 -96t80.5 -38t80.5 37.5t30.5 96.5q0 56 -30.5 93
t-80.5 37t-80.5 -36.5t-30.5 -93.5z" />
    <glyph glyph-name="z.ordn" horiz-adv-x="405" 
d="M68 313v44l203 248h-200v45h263v-44l-204 -249h208v-44h-270z" />
    <glyph glyph-name="o.ordn" horiz-adv-x="473" 
d="M236 659q36 0 66.5 -13t53.5 -36t36 -56t13 -72q0 -40 -13 -72.5t-35.5 -56t-53.5 -36.5t-67 -13t-66.5 13t-53 36.5t-35.5 56t-13 72.5q0 39 13 72t35.5 56t53 36t66.5 13zM236 349q24 0 45 9t37.5 26t26 41.5t9.5 56.5q0 31 -9.5 56t-26 41.5t-37.5 25.5t-45 9t-45 -9
t-37.5 -25.5t-26 -41.5t-9.5 -56q0 -32 9.5 -56.5t26 -41.5t37.5 -26t45 -9z" />
    <glyph glyph-name="p.ordn" horiz-adv-x="478" 
d="M360 482q0 57 -30.5 94t-80.5 37t-80.5 -37t-30.5 -94q0 -58 30.5 -95.5t80.5 -37.5q25 0 45.5 10t35 28t22.5 42t8 53zM89 179v471h49v-63q12 26 41.5 48.5t77.5 22.5q36 0 64.5 -13.5t48 -37.5t30 -56t10.5 -69q0 -38 -11 -70.5t-31 -56.5t-48.5 -37.5t-64.5 -13.5
q-46 0 -75 21.5t-41 45.5v-192h-50z" />
    <glyph glyph-name="n.ordn" horiz-adv-x="456" 
d="M141 313h-50v280q0 6 -0.5 14.5t-0.5 17t-0.5 15.5t-0.5 10h49q0 -4 1 -22t1 -32q14 27 42 45t65 18q30 0 52.5 -10t37.5 -27.5t22.5 -40.5t7.5 -50v-218h-50v210q0 38 -21 64t-66 26q-42 0 -65 -29t-24 -70v-201z" />
    <glyph glyph-name="one.ss05" horiz-adv-x="459" 
d="M220 55v534q-5 -11 -24 -23t-44 -22t-52.5 -17.5t-51.5 -8.5v47q35 3 64.5 15.5t52 32t37.5 44t21 52.5h58v-654h171v-55h-414v55h182z" />
    <glyph glyph-name="e.ordn" horiz-adv-x="450" 
d="M382 410q-14 -45 -52.5 -75.5t-96.5 -30.5q-34 0 -64 12t-52.5 35t-36 56.5t-13.5 75.5q0 40 13 72.5t34.5 55.5t50 35.5t60.5 12.5q76 0 117.5 -47.5t41.5 -123.5q0 -6 -0.5 -10t-1.5 -7h-264v-2q0 -27 9.5 -49.5t25 -38.5t36.5 -24.5t44 -8.5q44 0 69 22.5t36 53.5z
M331 510q0 44 -27 74.5t-78 30.5q-46 0 -74.5 -31t-31.5 -74h211z" />
    <glyph glyph-name="c.ordn" horiz-adv-x="451" 
d="M235 613q-48 0 -82 -35t-34 -96q0 -63 34 -97.5t82 -34.5q23 0 41 7t30.5 18.5t21 25t12.5 27.5l44 -18q-6 -20 -18.5 -39t-31 -34t-43.5 -24t-56 -9q-36 0 -66.5 13t-53 37t-35 56.5t-12.5 71.5t12.5 71.5t35 56t53 36.5t66.5 13q31 0 56 -9t43 -23.5t30 -34t18 -40.5
l-45 -19q-4 15 -12 29t-20 25.5t-29.5 18.5t-40.5 7z" />
    <glyph glyph-name="v.ordn" horiz-adv-x="379" 
d="M215 313h-51l-136 337h56l106 -278l105 278h54z" />
    <glyph glyph-name="s.ordn" horiz-adv-x="388" 
d="M113 418q4 -31 26 -51.5t61 -20.5q32 0 51.5 15.5t19.5 39.5q0 21 -14.5 35t-39.5 19l-55 11q-38 8 -61 32t-23 60q0 21 9 39.5t25 32t37 21.5t45 8q31 0 52.5 -8.5t36 -22t23 -29.5t11.5 -31l-44 -15q-2 12 -7.5 23.5t-15 20.5t-23.5 14.5t-33 5.5q-27 0 -47 -15.5
t-20 -40.5q0 -39 49 -50l54 -11q43 -9 66.5 -33.5t23.5 -61.5q0 -20 -8 -38t-23 -32t-37.5 -22.5t-51.5 -8.5q-32 0 -56 9t-40 23.5t-25 32t-11 35.5z" />
    <glyph glyph-name="abreve.ss02" horiz-adv-x="570" 
d="M105 240q0 -42 11.5 -78.5t32.5 -63t51.5 -42t68.5 -15.5q37 0 67 15t51 42t32.5 63.5t11.5 78.5t-11.5 78t-32.5 62t-50.5 41t-66.5 15q-38 0 -68 -14.5t-52 -40.5t-33.5 -62t-11.5 -79zM431 94q-8 -18 -22 -37t-34.5 -34.5t-48 -25t-62.5 -9.5q-50 0 -91 19.5
t-69.5 53.5t-44 80t-15.5 99q0 52 16 97.5t44.5 79.5t69 53t90.5 19q38 0 66.5 -10t48.5 -25.5t32.5 -33.5t18.5 -33v90h60v-386q0 -37 2 -62t3 -29h-59q-2 9 -3.5 29t-1.5 46v19zM271 538q-34 0 -60 12t-43.5 31.5t-27 44t-9.5 50.5h47q1 -16 6.5 -32t17 -28.5t28.5 -20.5
t41 -8t41 8t28.5 20.5t17 28.5t6.5 32h47q0 -26 -9 -50.5t-26.5 -44t-44 -31.5t-60.5 -12z" />
    <glyph glyph-name="d.ordn" horiz-adv-x="481" 
d="M119 483q0 -29 8 -53.5t22 -42.5t34.5 -28t45.5 -10q51 0 80.5 38t29.5 96q0 57 -29.5 93.5t-80.5 36.5q-50 0 -80 -36t-30 -94zM388 377q0 -17 1 -36t3 -28h-49q-2 8 -3 21t-1 33v8q-6 -12 -15.5 -24.5t-24 -23t-33 -17t-41.5 -6.5q-36 0 -65 14t-49.5 38t-31.5 56.5
t-11 70.5q0 37 11 69t31.5 55.5t49.5 37t64 13.5q26 0 45.5 -6.5t33.5 -16.5t22.5 -21.5t12.5 -21.5v230h50v-445z" />
    <glyph glyph-name="h.ordn" horiz-adv-x="454" 
d="M139 313h-50v509h50v-221q14 25 41 41.5t64 16.5q30 0 53 -10t38 -27.5t22.5 -40.5t7.5 -50v-218h-51v209q0 38 -20.5 64.5t-65.5 26.5q-41 0 -64 -29t-25 -68v-203z" />
    <glyph glyph-name="x.ordn" horiz-adv-x="392" 
d="M166 484l-123 166h60l93 -129l93 129h59l-122 -165q2 -3 12 -16.5t23 -31.5t28.5 -38.5t29 -38.5t23 -31t12.5 -16h-60l-99 135q0 -1 -7.5 -11t-18 -25t-23 -32t-23.5 -32t-18.5 -25l-7.5 -10h-59z" />
    <glyph glyph-name="f.ordn" horiz-adv-x="344" 
d="M185 605v-293h-51v293h-67v45h67v62q0 55 29 83t76 28q25 0 39 -7v-43q-6 2 -13.5 3.5t-18.5 1.5q-23 0 -42 -15t-19 -53v-60h90v-45h-90z" />
    <glyph glyph-name="agrave.ss02" horiz-adv-x="570" 
d="M105 240q0 -42 11.5 -78.5t32.5 -63t51.5 -42t68.5 -15.5q37 0 67 15t51 42t32.5 63.5t11.5 78.5t-11.5 78t-32.5 62t-50.5 41t-66.5 15q-38 0 -68 -14.5t-52 -40.5t-33.5 -62t-11.5 -79zM431 94q-8 -18 -22 -37t-34.5 -34.5t-48 -25t-62.5 -9.5q-50 0 -91 19.5
t-69.5 53.5t-44 80t-15.5 99q0 52 16 97.5t44.5 79.5t69 53t90.5 19q38 0 66.5 -10t48.5 -25.5t32.5 -33.5t18.5 -33v90h60v-386q0 -37 2 -62t3 -29h-59q-2 9 -3.5 29t-1.5 46v19zM141 676h77l89 -139h-48z" />
    <glyph glyph-name="l.ordn" horiz-adv-x="228" 
d="M89 313v509h50v-509h-50z" />
    <glyph glyph-name="atilde.ss02" horiz-adv-x="570" 
d="M105 240q0 -42 11.5 -78.5t32.5 -63t51.5 -42t68.5 -15.5q37 0 67 15t51 42t32.5 63.5t11.5 78.5t-11.5 78t-32.5 62t-50.5 41t-66.5 15q-38 0 -68 -14.5t-52 -40.5t-33.5 -62t-11.5 -79zM431 94q-8 -18 -22 -37t-34.5 -34.5t-48 -25t-62.5 -9.5q-50 0 -91 19.5
t-69.5 53.5t-44 80t-15.5 99q0 52 16 97.5t44.5 79.5t69 53t90.5 19q38 0 66.5 -10t48.5 -25.5t32.5 -33.5t18.5 -33v90h60v-386q0 -37 2 -62t3 -29h-59q-2 9 -3.5 29t-1.5 46v19zM424 648q0 -48 -25 -72.5t-60 -24.5q-20 0 -35 6.5t-29 16.5l-19 15q-11 9 -22 14.5t-25 5.5
q-40 0 -40 -55h-47v12q0 46 24.5 70.5t60.5 24.5q21 0 37 -8t31 -19l18 -13q11 -8 21 -13t23 -5q40 0 40 56h47v-11z" />
    <glyph glyph-name="y.ordn" horiz-adv-x="390" 
d="M89 176l83 180l-144 294h57l115 -241l106 241h54l-217 -474h-54z" />
    <glyph glyph-name="j.ordn" horiz-adv-x="289" 
d="M140 786q0 17 10.5 27.5t27.5 10.5q16 0 27 -10.5t11 -27.5t-11 -27.5t-27 -10.5q-17 0 -27.5 10.5t-10.5 27.5zM153 650h50v-380q0 -47 -25 -73.5t-67 -26.5q-14 0 -24.5 2t-15.5 4v43q12 -4 29 -4q53 0 53 58v377z" />
    <glyph glyph-name="r.ordn" horiz-adv-x="274" 
d="M73 313v337h48q1 -8 1 -27.5v-33.5q15 35 43 50t60 15q8 0 14.5 -0.5t11.5 -1.5v-54q-7 2 -14.5 3t-15.5 1q-42 0 -69.5 -27t-27.5 -85v-177h-51z" />
    <glyph glyph-name="a.ordn" horiz-adv-x="412" 
d="M187 346q51 0 77.5 31.5t26.5 87.5v23q-3 -4 -16.5 -7t-23.5 -5l-74 -12q-27 -5 -43 -19.5t-16 -40.5q0 -23 17 -40.5t52 -17.5zM67 402q0 42 27 67t72 31l93 14q18 3 25 11.5t7 19.5q0 30 -21 50.5t-61 20.5q-38 0 -61.5 -21t-28.5 -56l-46 12q5 47 41.5 77.5t93.5 30.5
q35 0 60.5 -9.5t41.5 -26t23.5 -38.5t7.5 -46v-169q0 -18 1 -33.5t3 -23.5h-49q-2 8 -3 20.5t-1 32.5q-12 -23 -40.5 -42.5t-71.5 -19.5q-27 0 -48.5 8t-35.5 21.5t-21.5 31.5t-7.5 37z" />
    <glyph glyph-name="u.ordn" horiz-adv-x="422" 
d="M299 363q-12 -25 -39.5 -42t-65.5 -17q-32 0 -55.5 11t-39.5 29.5t-23.5 42.5t-7.5 51v212h50v-204q0 -19 5 -36.5t15.5 -31t27 -21.5t39.5 -8q43 0 66.5 28t23.5 68v205h51v-274q0 -19 1 -37t3 -26h-48q-2 9 -2.5 23t-0.5 27z" />
    <glyph glyph-name="aacute.ss02" horiz-adv-x="570" 
d="M105 240q0 -42 11.5 -78.5t32.5 -63t51.5 -42t68.5 -15.5q37 0 67 15t51 42t32.5 63.5t11.5 78.5t-11.5 78t-32.5 62t-50.5 41t-66.5 15q-38 0 -68 -14.5t-52 -40.5t-33.5 -62t-11.5 -79zM431 94q-8 -18 -22 -37t-34.5 -34.5t-48 -25t-62.5 -9.5q-50 0 -91 19.5
t-69.5 53.5t-44 80t-15.5 99q0 52 16 97.5t44.5 79.5t69 53t90.5 19q38 0 66.5 -10t48.5 -25.5t32.5 -33.5t18.5 -33v90h60v-386q0 -37 2 -62t3 -29h-59q-2 9 -3.5 29t-1.5 46v19zM281 537h-49l89 139h78z" />
    <glyph glyph-name="w.ordn" horiz-adv-x="583" 
d="M317 650l97 -274l84 274h53l-110 -337h-54l-97 277l-96 -277h-55l-111 337h54l86 -274l96 274h53z" />
    <glyph glyph-name="aringacute.ss02" horiz-adv-x="570" 
d="M105 240q0 -42 11.5 -78.5t32.5 -63t51.5 -42t68.5 -15.5q37 0 67 15t51 42t32.5 63.5t11.5 78.5t-11.5 78t-32.5 62t-50.5 41t-66.5 15q-38 0 -68 -14.5t-52 -40.5t-33.5 -62t-11.5 -79zM431 94q-8 -18 -22 -37t-34.5 -34.5t-48 -25t-62.5 -9.5q-50 0 -91 19.5
t-69.5 53.5t-44 80t-15.5 99q0 52 16 97.5t44.5 79.5t69 53t90.5 19q38 0 66.5 -10t48.5 -25.5t32.5 -33.5t18.5 -33v90h60v-386q0 -37 2 -62t3 -29h-59q-2 9 -3.5 29t-1.5 46v19zM375 631q0 -22 -8.5 -41t-22.5 -33.5t-33 -22.5t-41 -8q-21 0 -40.5 8t-33.5 22.5
t-22.5 33.5t-8.5 41t8.5 41t22.5 33t33.5 22.5t40.5 8.5q22 0 41 -8.5t33 -22.5t22.5 -33t8.5 -41zM331 631q0 26 -17.5 44.5t-43.5 18.5t-43.5 -18.5t-17.5 -44.5t17.5 -44.5t43.5 -18.5t43.5 18.5t17.5 44.5zM295 769h-49l89 139h78z" />
    <glyph glyph-name="g.ordn" horiz-adv-x="446" 
d="M226 374q48 0 77 33.5t29 86.5q0 52 -29 85.5t-77 33.5t-77.5 -33.5t-29.5 -85.5q0 -54 29.5 -87t77.5 -33zM68 295q3 1 9.5 2.5t14.5 3.5t14.5 3.5t9.5 2.5q5 -39 32 -66t71 -27q32 0 53 9.5t34 26.5t18 40t5 49v55q-11 -25 -38 -44t-72 -19q-33 0 -61 12t-48 34t-31 52
t-11 65q0 34 11 64t31 52t47.5 35t61.5 13q46 0 73 -19.5t38 -45.5v57h49v-310q0 -30 -7 -60.5t-25 -55t-49 -39.5t-78 -15q-32 0 -58 9.5t-46 26.5t-32.5 40t-15.5 49z" />
    <glyph glyph-name="aogonek.ss02" horiz-adv-x="584" 
d="M464 -210q-43 0 -73 24t-30 69q0 42 22.5 71t51.5 47q-2 9 -3 29t-1 45v19q-8 -18 -22 -37t-34.5 -34.5t-48 -25t-62.5 -9.5q-50 0 -91 19.5t-69.5 53.5t-44 80t-15.5 99q0 52 16 97.5t44.5 79.5t69 53t90.5 19q38 0 66.5 -10t48.5 -25.5t32.5 -33.5t18.5 -33v90h60v-386
q0 -36 2 -60t3 -31q-14 -7 -28.5 -17.5t-26.5 -24t-20 -29.5t-8 -35q0 -29 18.5 -43t44.5 -14q19 0 34 5v-44q-9 -4 -19.5 -6t-25.5 -2zM105 240q0 -42 11.5 -78.5t32.5 -63t51.5 -42t68.5 -15.5q37 0 67 15t51 42t32.5 63.5t11.5 78.5t-11.5 78t-32.5 62t-50.5 41t-66.5 15
q-38 0 -68 -14.5t-52 -40.5t-33.5 -62t-11.5 -79z" />
    <glyph glyph-name="Eth" unicode="&#xd0;" horiz-adv-x="699" 
d="M95 0v339h-78v54h78v316h221q67 0 128.5 -23t107.5 -68t73.5 -111.5t27.5 -153.5t-27.5 -153t-74.5 -110.5t-108.5 -67t-128.5 -22.5h-219zM312 56q55 0 105.5 18.5t88.5 55.5t60.5 93t22.5 130q0 75 -22 131t-60 93.5t-88 56.5t-105 19h-155v-260h142v-54h-142v-283h153
z" />
    <glyph glyph-name="eth" unicode="&#xf0;" horiz-adv-x="555" 
d="M372 603q61 -60 100 -148t39 -200q0 -57 -15.5 -105.5t-45.5 -84.5t-73.5 -56t-98.5 -20q-51 0 -94 18t-74 50t-48 75.5t-17 94.5q0 55 19 98.5t50 73.5t71.5 46t84.5 16q51 0 94 -18.5t69 -60.5q-16 58 -45 107t-70 87l-133 -67l-19 41l111 55q-64 49 -137 68l19 49
q38 -10 84 -31.5t91 -56.5l113 57l20 -41zM278 42q39 0 70.5 14.5t54 40t35 61t12.5 78.5q0 40 -14 72.5t-37.5 55t-55 34.5t-65.5 12q-35 0 -66 -12.5t-54.5 -36t-37.5 -57.5t-14 -77q0 -42 13.5 -76.5t36.5 -58.5t54.5 -37t67.5 -13z" />
    </font>
</defs>
</svg>
