<?xml version="1.0" encoding="iso-8859-1"?>
<!-- Generator: Adobe Illustrator 21.0.0, SVG Export Plug-In . SVG Version: 6.00 Build 0)  -->
<svg xmlns="http://www.w3.org/2000/svg" xmlns:xlink="http://www.w3.org/1999/xlink" version="1.1" id="Capa_1" x="0px" y="0px" viewBox="0 0 512.003 512.003" style="enable-background:new 0 0 512.003 512.003;" xml:space="preserve" width="512" height="512">
<g>
	<path style="fill:#16B7BD;" d="M252.825,511.662c-2.205-0.48-54.623-12.074-107.813-40.98   C71.935,430.968,33.309,377.605,33.309,316.361V75.571c0-8.311,6.716-15.049,15-15.049c79.622,0,127.106-15.015,155.437-27.61   c29.351-13.05,39.488-26.216,40.363-27.194c6.515-8.173,18.44-7.401,23.887,1.15c0.908,1.195,12.976,13.884,39.664,26.499   c26.209,12.387,77.033,27.155,156.034,27.155c8.284,0,15,6.738,15,15.049v240.79c0,61.244-38.626,114.607-111.702,154.321   c-53.19,28.906-105.608,40.5-107.813,40.98C257.085,512.116,254.918,512.116,252.825,511.662z"/>
	<path style="fill:#139DA4;" d="M463.694,60.521c-79.001,0-129.825-14.767-156.034-27.155   c-26.688-12.615-38.756-25.304-39.664-26.499c-2.617-4.109-6.903-6.72-11.994-6.841v511.976   c9.099,0,222.692-50.316,222.692-195.642V75.571C478.694,67.259,471.978,60.521,463.694,60.521z"/>
	<path style="fill:#E1E4F9;" d="M211.048,246.13v-50.666c0-23.484,18.499-44.646,45.406-44.646c24.537,0,44.5,20.029,44.5,44.646   c0,8.311,6.716,15.049,15,15.049s15-6.738,15-15.049c0-39.919-31.782-74.745-75.406-74.745c-41.079,0-74.5,33.531-74.5,74.745   v50.666H211.048z"/>
	<path style="fill:#D6DAF6;" d="M256.001,120.719v30.099c25.96,0,44.953,20.822,44.953,44.646c0,8.311,6.716,15.049,15,15.049   s15-6.738,15-15.049C330.954,155.119,298.579,120.719,256.001,120.719z"/>
	<path style="fill:#FEB655;" d="M346.001,241.114h-180c-8.284,0-15,6.738-15,15.049v120.395c0,8.311,6.716,15.049,15,15.049h180   c8.284,0,15-6.738,15-15.049V256.163C361.001,247.852,354.285,241.114,346.001,241.114z M256.001,331.41   c-8.284,0-15-6.738-15-15.049s6.716-15.049,15-15.049s15,6.738,15,15.049S264.285,331.41,256.001,331.41z"/>
	<path style="fill:#FD9A2B;" d="M346.001,241.114h-90v60.198c8.284,0,15,6.738,15,15.049s-6.716,15.049-15,15.049v60.198h90   c8.284,0,15-6.738,15-15.049V256.163C361.001,247.852,354.285,241.114,346.001,241.114z"/>
	<path style="fill:none;" d="M241.001,316.361c0,8.311,6.716,15.049,15,15.049v-30.099   C247.717,301.311,241.001,308.049,241.001,316.361z"/>
	<path style="fill:none;" d="M271.001,316.361c0-8.311-6.716-15.049-15-15.049v30.099   C264.285,331.41,271.001,324.672,271.001,316.361z"/>
</g>















</svg>
