<?xml version="1.0" encoding="iso-8859-1"?>
<!-- Generator: Adobe Illustrator 21.0.0, SVG Export Plug-In . SVG Version: 6.00 Build 0)  -->
<svg xmlns="http://www.w3.org/2000/svg" xmlns:xlink="http://www.w3.org/1999/xlink" version="1.1" id="Capa_1" x="0px" y="0px" viewBox="0 0 512 512" style="enable-background:new 0 0 512 512;" xml:space="preserve" width="512" height="512">
<g>
	<path style="fill:#E1E4F9;" d="M466,0H46C21.19,0,1,20.269,1,45.177v331.294c0,24.907,20.19,45.177,45,45.177h420   c24.81,0,45-20.269,45-45.177V45.177C511,20.269,490.81,0,466,0z"/>
	<path style="fill:#D6DAF6;" d="M466,0H256v421.647h210c24.81,0,45-20.269,45-45.177V45.177C511,20.269,490.81,0,466,0z"/>
	<path style="fill:#F0725F;" d="M335.394,507.59l-19.393-19.469l-19.394,19.469c-5.857,5.88-15.355,5.88-21.213,0l-19.394-19.47   l-19.394,19.47c-5.857,5.88-15.355,5.88-21.213,0l-19.394-19.47l-19.394,19.47c-5.857,5.88-15.355,5.88-21.213,0l-30.001-30.118   c-2.813-2.824-4.394-6.654-4.394-10.648V316.236c0-74.731,60.561-135.53,135-135.53s135,60.798,135,135.53v150.588   c0,3.994-1.58,7.825-4.394,10.648l-30,30.118C350.755,513.466,341.249,513.471,335.394,507.59z"/>
	<path style="fill:#EA3D2C;" d="M256,180.706v307.415l19.395,19.469c5.857,5.88,15.355,5.88,21.213,0l19.394-19.469l19.393,19.469   c5.856,5.881,15.361,5.876,21.213,0l30-30.118c2.813-2.824,4.394-6.654,4.394-10.648V316.236   C391,241.504,330.439,180.706,256,180.706z"/>
	<path style="fill:#FEB655;" d="M226,331.294h-30c-8.284,0-15-6.742-15-15.059s6.716-15.059,15-15.059h30   c8.284,0,15,6.742,15,15.059S234.284,331.294,226,331.294z"/>
	<path style="fill:#FD9A2B;" d="M316,331.294h-30c-8.284,0-15-6.742-15-15.059s6.716-15.059,15-15.059h30   c8.284,0,15,6.742,15,15.059S324.284,331.294,316,331.294z"/>
	<ellipse style="fill:#139DA4;" cx="436" cy="105.412" rx="15" ry="15.059"/>
	<ellipse style="fill:#FD9A2B;" cx="376" cy="105.412" rx="15" ry="15.059"/>
	<ellipse style="fill:#EA3D2C;" cx="316" cy="105.412" rx="15" ry="15.059"/>
	<path style="fill:#7A86E8;" d="M271,105.412c0,8.312-6.72,15.059-15,15.059H1V90.353h255C264.28,90.353,271,97.099,271,105.412z"/>
	<path style="fill:#4B5ADD;" d="M256,90.353v30.118c8.28,0,15-6.747,15-15.059C271,97.099,264.28,90.353,256,90.353z"/>
</g>















</svg>
