<?xml version="1.0" encoding="utf-8"?>
<!-- Generator: Adobe Illustrator 18.0.0, SVG Export Plug-In . SVG Version: 6.00 Build 0)  -->
<!DOCTYPE svg PUBLIC "-//W3C//DTD SVG 1.1//EN" "http://www.w3.org/Graphics/SVG/1.1/DTD/svg11.dtd">
<svg version="1.1" id="community" xmlns="http://www.w3.org/2000/svg" xmlns:xlink="http://www.w3.org/1999/xlink" x="0px" y="0px"
	 viewBox="0 0 32 32" enable-background="new 0 0 32 32" xml:space="preserve">
<g>
	<path fill="#4D2C7C" d="M17,20c1.1-3.2,1.5-6.5,1.4-9.9c-0.1-2-0.5-4-1.5-5.8c-0.7-1.4-1.7-2.6-3.1-3.5c-2.2-1.3-4.5-1-6.2,1.1
		C6.5,3.4,6,5.1,5.9,7c-0.1,1.7,0.2,3.3,0.5,4.9c0.7,3.6,2.6,6.6,5.4,9c0.5,0.4,1.1,0.9,1.6,1.3c0,0,0,0.1-0.1,0.1
		c-0.3-0.1-0.6-0.2-0.9-0.3c-1.1-0.5-2.1-1-3.2-1.5c-0.3-0.2-0.5-0.1-0.8,0c-1.5,0.9-2.6,2.3-3.5,3.8c-0.8,1.4-1.4,2.9-1.2,4.5
		C3.9,30.6,5,31.9,7,32c1.2,0.1,2.3-0.3,3.3-0.9c2.5-1.5,4.1-3.7,5.2-6.4C16,23.2,16.4,21.5,17,20z"/>
	<path fill="#4D2C7C" d="M25.3,9.4c-0.2,0.1-0.4,0.2-0.5,0.3c-0.7,0.6-1.4,1.3-2,2c-1.5,1.9-2.6,4-3.5,6.2c-0.8,2-1.7,4-2.5,6
		c-0.5,1.3-0.9,2.6-1.3,3.9c-0.2,0.8-0.3,1.6-0.1,2.5c0.2,0.7,0.8,1,1.5,0.7c0.4-0.2,0.8-0.5,1.1-0.8c1.5-1.5,2.3-3.3,2.7-5.4
		c0.1-0.6,0.2-1.1,0.3-1.8c-0.5,0-1,0-1.4,0c0,0,0-0.1-0.1-0.1c1.1-0.4,2-1.1,2.7-2c1.5-1.9,3-3.9,4-6.1c0.6-1.3,1.1-2.6,1-4
		C27.4,9.3,26.6,8.8,25.3,9.4z"/>
</g>
</svg>
