<svg version="1.1" id="surface-icon" xmlns="http://www.w3.org/2000/svg" xmlns:xlink="http://www.w3.org/1999/xlink" x="0px"
	 y="0px" viewBox="0 0 1000 1000" enable-background="new 0 0 1000 1000" xml:space="preserve">
<g>
	<g>
		<path fill="#009BDF" d="M688.122,706.558L126.04,667.666l90.644-354.346l577.589-21.726L688.122,706.558 M885.292,206.892
			c-0.52-0.008-1.051-0.001-1.588,0.025l-697.799,40.384c-9.298,0.413-18.771,9.398-21.449,19.868L50.764,711.617
			c-2.749,10.747,2.143,19.67,11.088,20.636l671.932,60.738c0.676,0.068,1.352,0.107,2.019,0.117
			c12.23,0.184,24.372-8.973,27.511-21.246l138.926-543.091C905.352,216.605,897.732,207.079,885.292,206.892"/>
	</g>
	<polygon fill="#009BDF" points="950,749.259 842.458,741.713 901.422,510.966 	"/>
</g>
</svg>
