<?xml version="1.0" encoding="utf-8"?>
<!-- Generator: Adobe Illustrator 16.0.4, SVG Export Plug-In . SVG Version: 6.00 Build 0)  -->
<!DOCTYPE svg PUBLIC "-//W3C//DTD SVG 1.1//EN" "http://www.w3.org/Graphics/SVG/1.1/DTD/svg11.dtd">
<svg version="1.1" xmlns="http://www.w3.org/2000/svg" xmlns:xlink="http://www.w3.org/1999/xlink" x="0px" y="0px" width="18px"
	 height="20px" viewBox="0 0 18 20" enable-background="new 0 0 18 20" xml:space="preserve">

<g id="Global_Nav_Small_Icons">
</g>
<g id="Global_Nav_Small_1_">
</g>
<g id="Bag">
	<path id="Bag_2_" fill="#0088CC" d="M14.633,4.875H12.5c0-1.733-0.925-3.5-3.5-3.5c-2.615,0-3.5,1.757-3.5,3.5H3.367
		C2.613,4.875,2,5.488,2,6.242v10.391C2,17.387,2.613,18,3.367,18h11.266C15.387,18,16,17.387,16,16.633V6.242
		C16,5.488,15.387,4.875,14.633,4.875z M9,2.25c1.75,0,2.625,1.319,2.625,2.625h-5.25C6.375,3.559,7.25,2.25,9,2.25z M15.125,16.633
		c0,0.271-0.221,0.492-0.492,0.492H3.367c-0.271,0-0.492-0.221-0.492-0.492V6.242c0-0.271,0.221-0.492,0.492-0.492h11.266
		c0.271,0,0.492,0.221,0.492,0.492V16.633z"/>
</g>
<g id="Global_Nav_Large_Icons">
</g>
<g id="Global_Nav_Large_1_">
</g>
<g id="Guides">
</g>
<g id="NOTES">
</g>
</svg>
