<?xml version="1.0" encoding="utf-8"?>
<!-- Generator: Adobe Illustrator 16.0.4, SVG Export Plug-In . SVG Version: 6.00 Build 0)  -->
<!DOCTYPE svg PUBLIC "-//W3C//DTD SVG 1.1//EN" "http://www.w3.org/Graphics/SVG/1.1/DTD/svg11.dtd">
<svg version="1.1" xmlns="http://www.w3.org/2000/svg" xmlns:xlink="http://www.w3.org/1999/xlink" x="0px" y="0px" width="18px"
	 height="20px" viewBox="0 0 18 20" enable-background="new 0 0 18 20" xml:space="preserve">

<g id="Global_Nav_Small_Icons">
</g>
<g id="Global_Nav_Small_1_">
</g>
<g id="Bag">
	<path id="Favorites" fill="#0088CC" d="M11.5,4.009c1.922,0,3.5,1.25,3.5,3.025c0,0.897-0.376,1.611-1.069,2.243L8.5,14.596
		L3.062,9.271C2.378,8.646,2,7.933,2,7.034c0-1.72,1.5-3.025,3.5-3.025c1.275,0,2.306,1.132,2.71,1.647L8.5,6.025l0.29-0.369
		C9.459,4.805,10.416,4.009,11.5,4.009 M11.5,3c-1.035,0-2.081,0.515-3,1.464C7.822,3.767,6.785,3,5.5,3C2.935,3,1,4.734,1,7.034
		c0,1.137,0.468,2.142,1.392,2.984l5.412,5.302L8.5,16.002l0.696-0.682l5.431-5.318C15.543,9.168,16,8.188,16,7.034
		C16,4.734,14.065,3,11.5,3L11.5,3z"/>
</g>
<g id="Global_Nav_Large_Icons">
</g>
<g id="Global_Nav_Large_1_">
</g>
<g id="Guides">
</g>
<g id="NOTES">
</g>
</svg>
