<?xml version="1.0" encoding="utf-8"?>
<!-- Generator: Adobe Illustrator 18.0.0, SVG Export Plug-In . SVG Version: 6.00 Build 0)  -->
<!DOCTYPE svg PUBLIC "-//W3C//DTD SVG 1.1//EN" "http://www.w3.org/Graphics/SVG/1.1/DTD/svg11.dtd">
<svg version="1.1" xmlns="http://www.w3.org/2000/svg" xmlns:xlink="http://www.w3.org/1999/xlink" x="0px" y="0px" width="21px"
	 height="60px" viewBox="0 0 21 60" enable-background="new 0 0 21 60" xml:space="preserve">
<g id="FPO">
</g>
<g id="Global_Nav_Small_Icons">
</g>
<g id="Global_Nav_Small_1_">
</g>
<g id="Bag">
</g>
<g id="Global_Nav_Large_Icons">
	<path id="Suggested_Search_-_Hover_1_" fill="#0088CC" d="M18,52.293l-4.276-4.276C14.519,47.062,15,45.837,15,44.5
		c0-3.033-2.468-5.5-5.5-5.5S4,41.467,4,44.5S6.468,50,9.5,50c1.337,0,2.562-0.48,3.517-1.276L17.293,53L18,52.293z M5,44.5
		C5,42.015,7.015,40,9.5,40s4.5,2.015,4.5,4.5c0,2.486-2.015,4.5-4.5,4.5S5,46.986,5,44.5z"/>
	<path id="Suggested_Search_1_" fill="#ADADAD" d="M18,22.293l-4.276-4.276C14.519,17.062,15,15.837,15,14.5
		C15,11.467,12.532,9,9.5,9S4,11.467,4,14.5S6.468,20,9.5,20c1.337,0,2.562-0.48,3.517-1.276L17.293,23L18,22.293z M5,14.5
		C5,12.015,7.015,10,9.5,10s4.5,2.015,4.5,4.5c0,2.486-2.015,4.5-4.5,4.5S5,16.986,5,14.5z"/>
</g>
<g id="Global_Nav_Large_1_">
</g>
<g id="Guides">
</g>
<g id="NOTES">
</g>
</svg>
