<?xml version="1.0" encoding="utf-8"?>
<!-- Generator: Adobe Illustrator 16.0.4, SVG Export Plug-In . SVG Version: 6.00 Build 0)  -->
<!DOCTYPE svg PUBLIC "-//W3C//DTD SVG 1.1//EN" "http://www.w3.org/Graphics/SVG/1.1/DTD/svg11.dtd">
<svg version="1.1" id="Layer_1" xmlns="http://www.w3.org/2000/svg" xmlns:xlink="http://www.w3.org/1999/xlink" x="0px" y="0px"
	 width="26px" height="26px" viewBox="12 12 26 26" enable-background="new 12 12 26 26" xml:space="preserve">
<path fill="#0B88CA" d="M36.203,20.902c0.47,1.281,0.739,2.657,0.739,4.098c0,6.586-5.356,11.942-11.942,11.942
	S13.057,31.586,13.057,25S18.414,13.057,25,13.057c1.862,0,3.62,0.441,5.192,1.204l0.478-0.941C28.954,12.483,27.034,12,25,12
	c-7.168,0-13,5.832-13,13c0,7.168,5.832,13,13,13c7.168,0,13-5.832,13-13c0-1.577-0.297-3.083-0.812-4.482L36.203,20.902z"/>
</svg>
