<?xml version="1.0" encoding="utf-8"?>
<!-- Generator: Adobe Illustrator 19.1.0, SVG Export Plug-In . SVG Version: 6.00 Build 0)  -->
<svg version="1.1" id="Layer_1" xmlns="http://www.w3.org/2000/svg" xmlns:xlink="http://www.w3.org/1999/xlink" x="0px" y="0px"
	 width="35px" height="35px" viewBox="-288 379 35 35" style="enable-background:new -288 379 35 35;" xml:space="preserve">
<path style="fill:#FFFFFF;" d="M-281.9,394.6L-281.9,394.6c0,0,1.4-0.1,2.4,0.3h0.1c0.1,0,0.3-0.1,0.3-0.2c0.1-0.2-0.1-0.3-0.2-0.4
	c-0.8-0.2-1.9-0.5-2-0.5c-1.1-0.3-1.5-0.7-1.6-0.8s-0.3-0.1-0.5,0c-0.2,0.1-0.1,0.3,0,0.5C-283.4,393.6-283.3,394.3-281.9,394.6z"/>
<path style="fill:#FFFFFF;" d="M-264.1,407.3c-2,0-3.7-1.6-3.7-3.7c0-1,0.4-1.8,1-2.5h-8.6c-0.1,3.3-2.8,6-6.1,6
	c-3.4,0-6.1-2.8-6.1-6.1c0-3.4,2.8-6.1,6.1-6.1c1.7,0,3.3,0.7,4.5,2v-1.1c0-0.6,0.5-1,1-1h2.4l0.5-0.5c0.1-0.1,0.2-0.1,0.3-0.1
	l7.5,0.5l0,0c0.5,0,1,0.5,1,1v3.9c0.3,0.1,0.5,0.3,0.6,0.6c1.8,0.2,3.3,1.7,3.3,3.6S-262,407.3-264.1,407.3z M-275.7,400.4h10.1
	c0.2,0,0.3,0.1,0.4,0.3c0,0.2,0,0.3-0.2,0.4c-1,0.5-1.6,1.5-1.6,2.6c0,1.6,1.3,2.9,2.9,2.9s2.9-1.3,2.9-2.9c0-1.6-1.3-2.9-2.9-2.9
	c-0.1,0-0.2-0.1-0.3-0.1c-0.1-0.1-0.1-0.2-0.1-0.3l0,0c0-0.1-0.1-0.1-0.1-0.1h-0.1c-0.2,0-0.4-0.2-0.4-0.4v-4.2
	c0-0.1-0.1-0.3-0.3-0.3l-7.3-0.5l-0.5,0.5c-0.1,0.1-0.2,0.1-0.3,0.1h-2.6c-0.1,0-0.3,0.1-0.3,0.3v2.2c0,0.2-0.1,0.3-0.3,0.4
	c-0.2,0-0.3,0-0.4-0.2c-1-1.6-2.7-2.5-4.5-2.5c-3,0-5.4,2.4-5.4,5.4s2.4,5.4,5.4,5.4s5.4-2.4,5.4-5.4v-0.2
	C-276.1,400.5-275.9,400.4-275.7,400.4z"/>
<polyline style="fill:#FFFFFF;" points="-268.4,394.5 -268.4,392.6 -268.6,392.6 -268.6,391 -269.2,391 -269.2,392.6 -269.4,392.6 
	-269.4,394.5 "/>
<path style="fill:#FFFFFF;" d="M-281.5,404.8c-2.1,0-3.8-1.7-3.8-3.8s1.7-3.8,3.8-3.8s3.8,1.7,3.8,3.8S-279.4,404.8-281.5,404.8z
	 M-281.5,397.9c-1.7,0-3.1,1.4-3.1,3.1s1.4,3.1,3.1,3.1c1.7,0,3.1-1.4,3.1-3.1S-279.8,397.9-281.5,397.9z"/>
<path style="fill:#FFFFFF;" d="M-277.8,393.1c-0.1,0.2-0.3,0.2-0.5,0.1l0,0c-0.2-0.1-0.2-0.3-0.1-0.5l1.5-2.2
	c0.1-0.2,0.3-0.2,0.5-0.1l0,0c0.2,0.1,0.2,0.3,0.1,0.5L-277.8,393.1z"/>
<rect x="-277.733" y="393.02" transform="matrix(-0.8319 -0.555 0.555 -0.8319 -722.3817 567.7891)" style="fill:#FFFFFF;" width="5.1" height="0.6"/>
<path style="fill:#FFFFFF;" d="M-264.1,405.1c-0.8,0-1.4-0.6-1.4-1.4c0-0.8,0.6-1.4,1.4-1.4c0.8,0,1.4,0.6,1.4,1.4
	C-262.6,404.4-263.3,405.1-264.1,405.1z M-264.1,403c-0.4,0-0.7,0.3-0.7,0.7c0,0.4,0.3,0.7,0.7,0.7s0.7-0.3,0.7-0.7
	C-263.4,403.3-263.7,403-264.1,403z"/>
<path style="fill:#FFFFFF;" d="M-264.9,398h-2.2c-0.2,0-0.4-0.2-0.4-0.4c0-0.2,0.2-0.4,0.4-0.4h2.2c0.2,0,0.4,0.2,0.4,0.4
	C-264.5,397.8-264.7,398-264.9,398z"/>
<path style="fill:#FFFFFF;" d="M-264.9,396.9h-3.1c-0.2,0-0.4-0.2-0.4-0.4s0.2-0.4,0.4-0.4h3.1c0.2,0,0.4,0.2,0.4,0.4
	S-264.7,396.9-264.9,396.9z"/>
<path style="fill:#FFFFFF;" d="M-264.9,399.2h-1.2c-0.2,0-0.4-0.2-0.4-0.4c0-0.2,0.2-0.4,0.4-0.4h1.2c0.2,0,0.4,0.2,0.4,0.4
	C-264.5,399-264.7,399.2-264.9,399.2z"/>
<rect x="-263.9" y="381.4" style="fill:#FFFFFF;" width="1.4" height="1.4"/>
<rect x="-266.2" y="381.4" style="fill:#FFFFFF;" width="1.4" height="1.4"/>
<rect x="-268.6" y="381.4" style="fill:#FFFFFF;" width="1.4" height="1.4"/>
<rect x="-263.9" y="383.8" style="fill:#FFFFFF;" width="1.4" height="1.4"/>
<rect x="-266.2" y="383.8" style="fill:#FFFFFF;" width="1.4" height="1.4"/>
<rect x="-263.9" y="386.2" style="fill:#FFFFFF;" width="1.4" height="1.4"/>
<rect x="-268.6" y="386.2" style="fill:#FFFFFF;" width="1.4" height="1.4"/>
<rect x="-266.2" y="388.6" style="fill:#FFFFFF;" width="1.4" height="1.4"/>
<rect x="-263.9" y="391.1" style="fill:#FFFFFF;" width="1.4" height="1.4"/>
<rect x="-266.2" y="391.1" style="fill:#FFFFFF;" width="1.4" height="1.4"/>
<rect x="-256.8" y="387.8" style="fill:#FFFFFF;" width="1.4" height="1.4"/>
<rect x="-259.2" y="387.8" style="fill:#FFFFFF;" width="1.4" height="1.4"/>
<rect x="-256.8" y="390.2" style="fill:#FFFFFF;" width="1.4" height="1.4"/>
<rect x="-259.2" y="392.7" style="fill:#FFFFFF;" width="1.4" height="1.4"/>
<rect x="-256.8" y="395.1" style="fill:#FFFFFF;" width="1.4" height="1.4"/>
<rect x="-256.8" y="397.5" style="fill:#FFFFFF;" width="1.4" height="1.4"/>
<path style="fill:#FFFFFF;" d="M-260.4,398.4h-0.9v-18.5h-8.6v10h-0.9v-10.2c0-0.4,0.3-0.7,0.7-0.7h8.9c0.4,0,0.7,0.3,0.7,0.7v18.7
	H-260.4z"/>
<path style="fill:#FFFFFF;" d="M-253.4,399.9h-0.9v-13.3h-6.5v-0.9h6.7c0.4,0,0.7,0.3,0.7,0.7V399.9z"/>
</svg>
