<?xml version="1.0" encoding="utf-8"?>
<!-- Generator: Adobe Illustrator 19.2.1, SVG Export Plug-In . SVG Version: 6.00 Build 0)  -->
<svg version="1.1" id="Layer_1" xmlns="http://www.w3.org/2000/svg" xmlns:xlink="http://www.w3.org/1999/xlink" x="0px" y="0px"
	 width="32px" height="32px" viewBox="0 0 32 32" style="enable-background:new 0 0 32 32;" xml:space="preserve">
<g>
	<path d="M15.971,29.887c-0.125,0-0.25-0.03-0.364-0.091l-9.666-5.103c-0.256-0.135-0.416-0.4-0.416-0.688v-5.445
		c0-0.431,0.349-0.779,0.779-0.779s0.779,0.348,0.779,0.779v4.976l8.888,4.692l8.944-4.694v-4.974c0-0.431,0.348-0.779,0.779-0.779
		c0.431,0,0.779,0.348,0.779,0.779v5.445c0,0.29-0.161,0.555-0.416,0.689l-9.724,5.103C16.22,29.858,16.096,29.887,15.971,29.887z"
		/>
</g>
<g>
	<path d="M15.971,29.887c-0.431,0-0.779-0.348-0.779-0.779v-9.892l-2.844,2.901c-0.248,0.254-0.635,0.305-0.943,0.132l-9.012-5.146
		c-0.2-0.114-0.34-0.313-0.381-0.54c-0.04-0.228,0.023-0.462,0.172-0.638l3.108-3.684L2.177,8.448C2.029,8.268,1.97,8.03,2.015,7.8
		c0.046-0.229,0.193-0.426,0.399-0.535l9.552-5.061c0.319-0.17,0.713-0.097,0.95,0.175l3.056,3.486l3.082-3.488
		c0.239-0.269,0.628-0.339,0.946-0.174l9.581,5.033c0.209,0.11,0.356,0.308,0.402,0.539c0.045,0.231-0.016,0.47-0.167,0.651
		l-3.111,3.712l3.115,3.794c0.144,0.177,0.206,0.409,0.164,0.634c-0.041,0.225-0.178,0.421-0.376,0.535l-8.956,5.174
		c-0.304,0.178-0.691,0.127-0.941-0.124l-2.963-2.963v9.92C16.75,29.539,16.402,29.887,15.971,29.887z M16.526,16.761l3.866,3.867
		l7.644-4.417l-2.943-3.584c-0.238-0.29-0.236-0.707,0.005-0.994l2.905-3.467l-8.185-4.3l-3.264,3.693
		c-0.148,0.167-0.361,0.263-0.584,0.263H15.97c-0.224,0-0.436-0.097-0.585-0.265l-3.233-3.688L3.986,8.196l2.921,3.557
		c0.238,0.29,0.236,0.709-0.007,0.996l-2.922,3.465l7.678,4.384l3.758-3.834c0.002-0.002,0.005-0.005,0.007-0.007
		c0.001-0.001,0.002-0.002,0.003-0.003c0,0,0,0,0.002-0.001l0,0c0.001,0,0.001-0.001,0.002-0.001l0,0
		c0.137-0.133,0.312-0.207,0.489-0.219h0.001l0,0c0.049-0.002,0.099-0.002,0.149,0.004c0.15,0.019,0.295,0.08,0.416,0.185
		C16.497,16.733,16.512,16.747,16.526,16.761z"/>
</g>
<g>
	<path d="M15.971,18.087c-0.124,0-0.248-0.029-0.362-0.09l-9.665-5.06c-0.256-0.134-0.416-0.398-0.417-0.686
		c-0.001-0.288,0.157-0.553,0.41-0.69l9.666-5.203c0.229-0.121,0.502-0.123,0.73-0.004l9.725,5.089
		c0.256,0.134,0.416,0.399,0.417,0.687c0.001,0.289-0.159,0.554-0.414,0.69l-9.724,5.174C16.223,18.057,16.098,18.087,15.971,18.087
		z M7.967,12.238l8.002,4.189l8.058-4.288l-8.051-4.213L7.967,12.238z"/>
</g>
</svg>
