<?xml version="1.0" encoding="utf-8"?>
<!-- Generator: Adobe Illustrator 19.1.0, SVG Export Plug-In . SVG Version: 6.00 Build 0)  -->
<svg version="1.1" id="Layer_1" xmlns="http://www.w3.org/2000/svg" xmlns:xlink="http://www.w3.org/1999/xlink" x="0px" y="0px"
	 width="60px" height="60px" viewBox="-275 367 60 60" style="enable-background:new -275 367 60 60;" xml:space="preserve">
<path d="M-265.2,423.1c-5.1,0-9.3-4.2-9.3-9.3c0-4.6,3.3-8.4,7.7-9.2c-0.1-0.2-0.1-0.3-0.1-0.5v-3.4c0-2.1,5-3.2,9.9-3.2
	c4.7,0,9.9,1.7,9.9,3.2l0,0V415c0,2.1-4.9,3.2-9.8,3.2C-258.5,421.1-261.6,423.1-265.2,423.1z M-265.6,405.7
	c-4.3,0.3-7.7,3.8-7.7,8.1c0,4.5,3.7,8.2,8.2,8.2c3.1,0,5.8-1.7,7.2-4.3v-0.1c0-0.2,0.1-0.4,0.3-0.5c0.4-1,0.7-2.1,0.7-3.3
	c0-4.5-3.7-8.2-8.2-8.2C-265.3,405.6-265.4,405.6-265.6,405.7C-265.6,405.6-265.6,405.6-265.6,405.7z M-255.9,414.4
	c-0.1,0.9-0.2,1.8-0.6,2.6c5.3-0.1,8.2-1.4,8.2-2.1v-2.2C-249.9,413.7-252.9,414.3-255.9,414.4z M-256.3,410.8
	c0.3,0.8,0.4,1.6,0.5,2.4c5-0.2,7.6-1.4,7.6-2v-2C-249.9,410.2-253.1,410.7-256.3,410.8z M-258.5,407.3c0.7,0.7,1.2,1.5,1.7,2.3
	c5.6,0,8.6-1.4,8.6-2.1v-1.9C-250.3,406.9-254.6,407.5-258.5,407.3z M-260.1,406c1,0.1,2,0.2,3.1,0.2c5.7,0,8.7-1.4,8.7-2.1v-1.9
	c-3.5,2.1-14,2.1-17.5,0v1.9c0,0.1,0.1,0.2,0.3,0.4C-263.5,404.4-261.6,405-260.1,406z M-257,398.6c-5.7,0-8.7,1.4-8.7,2.1
	c0,0.7,3.1,2.1,8.7,2.1c5.5,0,8.5-1.3,8.7-2C-248.8,400.1-252.3,398.6-257,398.6z M-265.3,420.4c-0.3,0-0.6-0.3-0.6-0.6v-1.7
	c-0.8,0-1.6-0.3-2.1-0.6c-0.3-0.2-0.4-0.5-0.2-0.8c0.2-0.3,0.5-0.4,0.8-0.2c0.4,0.2,1.1,0.5,1.8,0.5c0.9,0,2.3-0.2,2.3-1.4
	c0-0.8-0.6-1.1-2-1.5c-0.9-0.3-2.7-1-2.6-2.5c0-0.8,0.6-1.7,2-1.9v-1.8c0-0.3,0.3-0.6,0.6-0.6c0.3,0,0.6,0.3,0.6,0.6v1.7
	c0.9,0.1,1.5,0.3,2,0.5c0.3,0.1,0.4,0.5,0.3,0.8c-0.1,0.3-0.5,0.4-0.8,0.3c-0.3-0.1-1-0.4-1.9-0.4c-1.1,0-1.5,0.4-1.5,0.8
	c0,0.6,0.7,1,1.9,1.4c1.2,0.4,2.8,1,2.8,2.6c0,1.1-0.7,2.3-2.7,2.5v1.8C-264.7,420.2-265,420.4-265.3,420.4z"/>
<path d="M-242,412.3h-3c-0.4,0-0.8-0.4-0.8-0.8s0.4-0.8,0.8-0.8h2.2v-11.2c0-0.4,0.4-0.8,0.8-0.8h8.5c0.4,0,0.8,0.4,0.8,0.8v11.2
	h10.2v-17.4c0-0.4,0.4-0.8,0.8-0.8h3.6l-7.1-7.1c-0.1-0.1-0.2-0.3-0.2-0.6v-9.3h-3.7v4.1c0,0.3-0.2,0.6-0.5,0.7
	c-0.3,0.1-0.6,0.1-0.9-0.2l-7.3-7.4l-19.7,19.8h3.8c0.4,0,0.8,0.4,0.8,0.8v2.7c0,0.4-0.4,0.8-0.8,0.8c-0.4,0-0.8-0.4-0.8-0.8v-1.9
	h-4.9c-0.3,0-0.6-0.2-0.7-0.5c-0.1-0.3-0.1-0.6,0.2-0.9l21.5-21.6c0.1-0.1,0.3-0.2,0.6-0.2l0,0c0.2,0,0.4,0.1,0.6,0.2l6.6,6.6v-3
	c0-0.4,0.4-0.8,0.8-0.8h5.2c0.4,0,0.8,0.4,0.8,0.8v9.9l8.2,8.2c0.2,0.2,0.3,0.6,0.2,0.9c-0.1,0.3-0.4,0.5-0.7,0.5h-4.9v17.4
	c0,0.4-0.4,0.8-0.8,0.8h-11.7c-0.4,0-0.8-0.4-0.8-0.8v-11.3h-7v11.2C-241.2,412-241.6,412.3-242,412.3z"/>
</svg>
