<svg viewBox="0 0 32 32" xmlns="http://www.w3.org/2000/svg"><g fill="none" fill-rule="evenodd"><path d="M25.498 13.05c-.41 0-.807.06-1.186.163-.466-3.25-3.256-5.753-6.637-5.753-2.938 0-5.43 1.892-6.34 4.52l-.402-.02c-2.1 0-3.86 1.447-4.345 3.398l-.12-.013c-1.84 0-3.328 1.49-3.328 3.328 0 1.824 1.468 3.3 3.285 3.323L6.42 22h18.946l-.005-.008.14.008c2.47 0 4.477-2.004 4.477-4.476S27.97 13.05 25.5 13.05z" fill-opacity=".6" fill="#447EFF"/><path d="M16.854 27.985l.005-4.078-3.22 2.808.014.007c-.192.166-.353.373-.47.616-.458.96-.05 2.11.914 2.57.963.463 2.116.06 2.575-.898.157-.332.213-.685.178-1.025z" fill="#005DFF"/></g></svg>