<svg viewBox="0 0 32 32" xmlns="http://www.w3.org/2000/svg"><g fill="none" fill-rule="evenodd"><path d="M9.85 1c2.005.967 3.387 3.02 3.387 5.394 0 3.308-2.68 5.988-5.987 5.988-1.662 0-3.165-.678-4.25-1.77 1.11 2.06 3.29 3.46 5.795 3.46 3.633 0 6.58-2.945 6.58-6.578 0-3.274-2.393-5.99-5.524-6.494z" fill="#FFB200"/><path d="M25.5 13.048c-.41 0-.806.06-1.185.163-.466-3.25-3.256-5.75-6.637-5.75-2.938 0-5.43 1.89-6.34 4.52l-.402-.02c-2.1 0-3.86 1.448-4.345 3.4l-.12-.014c-1.835 0-3.324 1.49-3.324 3.328 0 1.825 1.468 3.302 3.285 3.324L6.423 22H25.37l-.006-.01.137.008c2.475 0 4.48-2.004 4.48-4.476s-2.004-4.474-4.476-4.474z" fill-opacity=".6" fill="#447EFF"/><path d="M16.854 27.985l.005-4.078-3.22 2.808.014.007c-.192.166-.353.373-.47.616-.458.96-.05 2.11.914 2.57.963.463 2.116.06 2.575-.898.157-.332.213-.685.178-1.025z" fill="#005DFF"/></g></svg>