<svg width="60" height="24" viewBox="0 0 79 32" xmlns="http://www.w3.org/2000/svg"><path d="M12.96.52H8.78c-4.1 0-7.6 3.15-7.6 9.25 0 3.67 1.7 6.37 4.7 7.7L.28 27.7c-.2.32 0 .58.3.58h2.6c.2 0 .35-.07.43-.26L8.7 18h1.84v10c0 .1.1.26.25.26H13c.22 0 .3-.1.3-.3V.9c0-.25-.16-.36-.4-.36zm-2.42 15.1H9c-2.42 0-4.77-1.78-4.77-6.22 0-4.62 2.2-6.5 4.44-6.5h1.87v12.7zm16.22-5.9h-2.28c-.18 0-.3.15-.3.26v7.07H20V9.98c0-.18-.08-.26-.26-.26h-2.27c-.2 0-.3.1-.3.26v18c0 .18.08.3.26.3h2.32c.15 0 .25-.12.25-.3v-8.6h4.22v8.6c0 .18.1.3.28.3h2.28c.18 0 .25-.16.25-.3v-18c0-.15-.1-.26-.24-.26m51.8 17.36l-.3-1.26c-.1-.1-.1-.14-.2-.14-.2 0-1.2.4-2.6.4-2.8 0-4.2-2.7-4.2-7 0-3.77 1.1-7.5 3-7.5.5 0 1.1.14 2.1 1.07.1.1.1.15.3.15.1 0 .2-.08.3-.26l1-1.63c0-.1.1-.2.1-.3 0-.1-.2-.2-.4-.3-1.5-.7-2.6-.9-3.4-.9-3.5 0-6.2 4.2-6.2 10.6 0 5.6 2.5 8.8 6.2 8.8 1.6 0 3.2-.7 3.9-1.2.1-.1.2-.2.1-.4m-16-9L67 10c.05-.1 0-.2-.1-.2h-2.2c-.64 0-.86.3-1.08.7l-3.3 7c-.2.4-.38.66-.56.78V10c0-.14-.1-.25-.2-.25h-2.4c-.1 0-.2.1-.2.26v18c0 .2 0 .3.2.3h2.4c.1 0 .2-.1.2-.2v-9.2c.1.1.2.2.2.4L64.1 28c.22.46.55.57 1.03.57h2.36c.1 0 .2-.15.1-.26l-5.1-9.9zm-21 7.9H41c-.5 0-.7-.2-.7-.6V10c0-.18-.03-.26-.2-.26H33c-.17 0-.3.1-.3.3v1.34c0 4.5-.24 10.3-2.6 14.66h-.8c-.2 0-.3.1-.3.3v5.4c0 .2.16.2.27.2h1.76c.4 0 .55-.3.55-.5v-3.1h7.83v3.36c0 .14.1.25.3.25h1.9c.2 0 .5-.2.5-.52v-5.1c0-.2-.1-.3-.3-.3zm-4 0H32c1.8-3.2 2.6-6.8 2.8-11.3.05-.9.1-1.9.1-2.6h2.33V26zM49.2 9.3c-3.94 0-5.7 5.03-5.7 10.5 0 5.6 2.5 8.93 6.15 8.93 1.8 0 3.37-.7 4.18-1.2.15-.04.18-.2.15-.3l-.3-1.26c-.03-.14-.1-.2-.3-.2-.13 0-1.2.4-2.7.4-2.82 0-4.14-2.5-4.14-5.74v-.9s1.47.18 2.3.18h5.36v-1.6c0-5.7-2.04-8.8-4.97-8.8zm-.4 8.03c-.83 0-2.15.2-2.15.2s0-.56.07-1.15c.3-3.13 1.1-4.73 2.36-4.73 1.18 0 1.9 1.63 2.1 4.48.03.6.03 1.26.03 1.26h-2.4z" fill="#fff"/></svg>