<svg viewBox="0 0 32 32" xmlns="http://www.w3.org/2000/svg"><g fill="none" fill-rule="evenodd"><path d="M7.22 5.802L4.38 2.96l-.67.67 2.837 2.836c.21-.24.438-.46.674-.664zm6.75-1.358l1-3.722-.915-.245-1.002 3.738c.31.057.617.13.92.23zm3.076 2.064l2.88-2.88-.67-.67-2.873 2.873c.24.215.457.44.663.68zM5.196 8.802L1.32 7.764l-.246.914 3.88 1.04c.06-.308.14-.614.242-.916zm5.277-4.58L9.43.326l-.917.246 1.044 3.894c.3-.102.606-.184.916-.244zm-5.51 8.19l-3.89 1.043.246.916 3.89-1.04c-.107-.3-.19-.604-.25-.914zm12.32-1.36c0 3.033-2.46 5.492-5.494 5.492-3.04 0-5.498-2.46-5.498-5.493 0-3.03 2.46-5.49 5.494-5.49 3.033 0 5.492 2.46 5.492 5.494z" fill="#FF9C00"/><path d="M24.315 13.21c-.465-3.25-3.255-5.75-6.637-5.75-2.938 0-5.43 1.892-6.34 4.52l-.402-.02c-2.1 0-3.86 1.447-4.345 3.398l-.12-.013c-1.835 0-3.324 1.49-3.324 3.328 0 1.825 1.468 3.302 3.285 3.324l18.94.005.13-.002c2.473 0 4.478-2.004 4.478-4.476S27.972 13.05 25.5 13.05c-.41 0-.806.06-1.185.163z" fill-opacity=".6" fill="#447EFF"/><path d="M12.854 29.888l.005-4.078-3.22 2.808.014.007c-.19.166-.353.373-.47.616-.457.96-.05 2.11.914 2.575.962.462 2.116.06 2.575-.9.158-.33.214-.684.178-1.024zm9-1.87l.006-4.078-3.218 2.81.016.005c-.19.167-.353.374-.47.617-.458.96-.05 2.11.913 2.57.968.462 2.12.06 2.58-.9.157-.33.213-.684.18-1.024z" fill="#005DFF"/></g></svg>