<?xml version="1.0" encoding="utf-8"?>
<!-- Generator: Adobe Illustrator 18.0.0, SVG Export Plug-In . SVG Version: 6.00 Build 0)  -->
<!DOCTYPE svg PUBLIC "-//W3C//DTD SVG 1.1//EN" "http://www.w3.org/Graphics/SVG/1.1/DTD/svg11.dtd">
<svg version="1.1" xmlns="http://www.w3.org/2000/svg" xmlns:xlink="http://www.w3.org/1999/xlink" x="0px" y="0px" width="45px"
	 height="45px" viewBox="0 0 45 45" enable-background="new 0 0 45 45" xml:space="preserve">
<g id="Tool_Kit_Financing__x5B__Dark__x5D_">
</g>
<g id="Tool_Kit_Financing__x5B__Light__x5D_">
	<path id="default" fill="#888888" d="M21.8,35.03h1.25v-3.17c0.72-0.12,1.35-0.33,1.91-0.64c0.55-0.3,1.01-0.68,1.38-1.13
		c0.37-0.45,0.65-0.94,0.85-1.48c0.19-0.54,0.29-1.1,0.29-1.69c0-0.67-0.1-1.27-0.3-1.8c-0.2-0.53-0.5-1.01-0.87-1.43
		c-0.38-0.42-0.85-0.82-1.41-1.17c-0.56-0.36-1.19-0.7-1.88-1.02c-0.65-0.3-1.22-0.59-1.7-0.87c-0.48-0.28-0.87-0.56-1.18-0.87
		c-0.31-0.31-0.54-0.64-0.69-1.01c-0.15-0.37-0.23-0.79-0.23-1.28c0-0.37,0.06-0.74,0.2-1.11c0.13-0.38,0.34-0.72,0.63-1.04
		c0.28-0.32,0.65-0.57,1.1-0.76c0.45-0.19,0.98-0.29,1.62-0.29c0.87,0,1.6,0.13,2.18,0.38c0.58,0.25,1.01,0.47,1.3,0.66l0.64-1.13
		c-0.39-0.26-0.88-0.49-1.47-0.7c-0.59-0.21-1.3-0.33-2.13-0.37V9.97h-1.25v3.2c-0.61,0.08-1.17,0.26-1.68,0.52
		c-0.51,0.26-0.95,0.59-1.33,0.99c-0.38,0.39-0.67,0.85-0.87,1.37c-0.2,0.52-0.3,1.08-0.3,1.69c0,1.24,0.42,2.24,1.25,3
		c0.83,0.76,1.98,1.46,3.44,2.09c1.12,0.53,1.98,1.11,2.59,1.76c0.61,0.65,0.91,1.48,0.91,2.49c0,0.51-0.09,0.99-0.29,1.43
		c-0.19,0.45-0.46,0.83-0.81,1.16c-0.35,0.33-0.76,0.58-1.25,0.78c-0.49,0.19-1.03,0.29-1.64,0.29c-0.75,0-1.47-0.13-2.15-0.38
		c-0.68-0.25-1.26-0.56-1.75-0.93l-0.61,1.13c0.51,0.41,1.15,0.73,1.92,0.97c0.77,0.24,1.55,0.37,2.35,0.37V35.03L21.8,35.03z
		 M22.5,3C33.25,3,42,11.75,42,22.5S33.25,42,22.5,42S3,33.25,3,22.5S11.75,3,22.5,3 M22.5,2C11.18,2,2,11.18,2,22.5
		S11.18,43,22.5,43S43,33.82,43,22.5S33.82,2,22.5,2L22.5,2z"/>
</g>
</svg>
