<?xml version="1.0" encoding="utf-8"?>
<!-- Generator: Adobe Illustrator 16.0.4, SVG Export Plug-In . SVG Version: 6.00 Build 0)  -->
<!DOCTYPE svg PUBLIC "-//W3C//DTD SVG 1.1//EN" "http://www.w3.org/Graphics/SVG/1.1/DTD/svg11.dtd">
<svg version="1.1" id="Global_Nav_Small_Icons" xmlns="http://www.w3.org/2000/svg" xmlns:xlink="http://www.w3.org/1999/xlink"
	 x="0px" y="0px" width="21px" height="48px" viewBox="0 0.5 21 48" enable-background="new 0 0.5 21 48" xml:space="preserve">
<path id="Apple_1_" fill="#FFFFFF" d="M19.35,26.896c-0.119,0.34-0.244,0.664-0.377,0.974c-0.324,0.733-0.705,1.409-1.149,2.028
	c-0.604,0.847-1.097,1.432-1.479,1.754c-0.59,0.535-1.223,0.81-1.9,0.824c-0.487,0-1.074-0.137-1.758-0.412
	c-0.686-0.273-1.314-0.412-1.891-0.412c-0.604,0-1.251,0.139-1.943,0.412c-0.694,0.275-1.253,0.42-1.68,0.434
	c-0.65,0.027-1.298-0.253-1.945-0.846c-0.414-0.353-0.929-0.957-1.548-1.817c-0.664-0.915-1.209-1.979-1.636-3.192
	c-0.456-1.309-0.685-2.576-0.685-3.803c0-1.408,0.311-2.621,0.929-3.637c0.487-0.816,1.135-1.461,1.945-1.934
	s1.687-0.713,2.629-0.729c0.517,0,1.193,0.158,2.035,0.467c0.839,0.309,1.376,0.464,1.613,0.464c0.177,0,0.774-0.183,1.789-0.55
	c0.958-0.338,1.769-0.478,2.433-0.422c1.797,0.142,3.146,0.838,4.043,2.093c-1.605,0.959-2.4,2.298-2.387,4.014
	c0.016,1.341,0.51,2.455,1.481,3.339C18.311,26.355,18.803,26.674,19.35,26.896z M14.828,11.518
	c0.015,0.141,0.021,0.279,0.021,0.421c0,1.047-0.389,2.027-1.166,2.936c-0.939,1.078-2.074,1.701-3.307,1.604
	c-0.016-0.126-0.024-0.259-0.024-0.398c0-1.009,0.445-2.085,1.24-2.969c0.396-0.446,0.899-0.816,1.509-1.109
	C13.709,11.707,14.287,11.546,14.828,11.518z"/>
</svg>
1-.452-.194-.845-.473-1.177-.834-.332-.361-.588-.801-.768-1.316-.18-.516-.269-1.088-.269-1.718 0-.562.08-1.103.239-1.618.159-.516.399-.968.718-1.356.32-.388.715-.7 1.188-.935.472-.234 1.021-.351 1.646-.351.519 0 .958.06 1.316.18.359.12.651.247.878.381l.339-.795c-.187-.13-.495-.256-.928-.381-.432-.123-.935-.185-1.506-.185-.705 0-1.353.127-1.944.38-.592.254-1.101.604-1.526 1.05-.426.447-.758.983-.997 1.61-.239.627-.359 1.32-.359 2.08 0 .733.106 1.399.319 2 .213.6.515 1.117.907 1.55.393.434.864.767 1.416 1 .552.233 1.167.35 1.846.35.678 0 1.25-.068 1.715-.204.466-.137.799-.257.998-.361l-.241-.756z"/></svg>865 0 1.576-.203 2.135-.609.559-.406.957-.871 1.197-1.391h.06v1.779h.897c-.026-.332-.047-.699-.06-1.1-.014-.4-.02-.773-.02-1.119v-11.959h-.938zm0 10.34c0 .229-.033.488-.1.781-.213.812-.598 1.43-1.156 1.85-.559.42-1.164.631-1.815.631-.559 0-1.041-.113-1.446-.342-.406-.227-.745-.533-1.017-.92-.273-.387-.476-.826-.608-1.318-.133-.494-.199-1.014-.199-1.561 0-.613.076-1.184.229-1.711.152-.525.372-.982.658-1.369.285-.387.635-.688 1.047-.9s.871-.32 1.377-.32c.372 0 .721.064 1.047.191.326.125.615.293.867.5.253.205.466.453.639.738.173.287.299.59.379.91l.07.43c.02.141.029.285.029.432v1.978z"/></svg>9-1.865-.479-.599 0-1.153.12-1.665.36-.512.239-.955.586-1.326 1.039-.373.454-.666.997-.878 1.631-.213.633-.319 1.35-.319 2.149 0 .707.102 1.357.306 1.95.204.594.496 1.104.878 1.53.381.427.841.76 1.38 1 .538.239 1.146.359 1.825.359.797 0 1.439-.075 1.925-.224.485-.149.82-.276 1.007-.381l-.239-.735c-.267.12-.602.24-1.008.36-.405.12-.927.18-1.565.18-.479 0-.935-.076-1.366-.23-.433-.154-.811-.405-1.137-.754-.327-.348-.586-.793-.778-1.336-.193-.543-.289-1.209-.289-2l6.88.02zm-6.822-.8c.04-.369.126-.748.259-1.137.132-.389.324-.744.576-1.066.252-.323.562-.59.934-.801.371-.211.808-.316 1.312-.316.557 0 1.014.109 1.372.326.357.218.644.49.854.82.212.329.358.689.438 1.077.079.389.119.754.119 1.097h-5.864z"/></svg>0.318-1.258-0.318-1.985
		c0-0.753,0.12-1.442,0.357-2.064c0.238-0.622,0.569-1.154,0.993-1.598c0.424-0.443,0.93-0.791,1.519-1.044
		c0.589-0.25,1.234-0.376,1.935-0.376c0.569,0,1.069,0.062,1.5,0.184c0.43,0.123,0.737,0.249,0.923,0.378l-0.337,0.788
		c-0.225-0.133-0.517-0.257-0.874-0.377c-0.357-0.119-0.794-0.179-1.31-0.179c-0.623,0-1.168,0.117-1.638,0.35
		c-0.47,0.232-0.863,0.542-1.181,0.928c-0.318,0.385-0.556,0.835-0.715,1.346c-0.159,0.513-0.238,1.048-0.238,1.606
		c0,0.624,0.09,1.193,0.268,1.704c0.179,0.513,0.433,0.948,0.764,1.308c0.33,0.359,0.721,0.635,1.171,0.828
		c0.45,0.192,0.946,0.288,1.489,0.288c0.556,0,1.012-0.06,1.37-0.179c0.357-0.118,0.668-0.231,0.933-0.337L45.74,30.627z"/>
</g>
<g id="Bag">
</g>
<g id="Global_Nav_Large_Icons">
</g>
<g id="Global_Nav_Large_1_">
</g>
<g id="Guides">
</g>
<g id="NOTES">
	<rect x="-10" y="-17" fill="#F7009F" width="10" height="17"/>
	<rect x="-10" y="31" fill="#F7009F" width="10" height="17"/>
</g>
</svg>
 6.758zm7.252-11.355v1.777h-1.576v.738h1.576v6.08c0 .428.032.824.097 1.191.065.365.179.68.342.939.163.26.386.463.67.609s.646.221 1.085.221c.532 0 .958-.074 1.277-.221l-.101-.719c-.119.039-.266.072-.438.1-.173.027-.379.039-.618.039-.506 0-.861-.17-1.067-.51-.206-.34-.31-.83-.31-1.469v-6.262h2.653v-.738h-2.653v-2.139l-.937.364z"/></svg>