<?xml version="1.0" encoding="utf-8"?>
<!-- Generator: Adobe Illustrator 19.2.1, SVG Export Plug-In . SVG Version: 6.00 Build 0)  -->
<svg version="1.1" id="Layer_1" xmlns="http://www.w3.org/2000/svg" xmlns:xlink="http://www.w3.org/1999/xlink" x="0px" y="0px"
	 width="18px" height="20px" viewBox="0 0 18 20" style="enable-background:new 0 0 18 20;" xml:space="preserve">
<style type="text/css">
	.st0{fill:#0070C9;}
</style>
<path id="Sign_In" class="st0" d="M11.7,14.1c-0.4-0.1-0.7-0.2-1.1-0.3c-0.5-0.1-0.7-0.4-0.7-0.9c0-0.1-0.1-0.8,0-0.8
	c0.3-0.2,0.4-0.8,0.4-1.1c0-0.3,0.2-0.4,0.3-0.6c0.1-0.2,0.2-0.6,0.3-0.8C10.9,9.3,11,9,11,8.8c0-0.2-0.2-0.3-0.2-0.5
	c0-0.2,0-0.4,0.1-0.7c0-0.4,0-0.8,0-1.1c0-0.2-0.1-0.4-0.2-0.6c-0.1-0.2-0.3-0.4-0.5-0.5C9.6,5,9,4.8,8.4,4.8C7.9,4.8,7.3,5,6.8,5.3
	C6.6,5.4,6.4,5.6,6.3,5.9C6.2,6,6.1,6.2,6.1,6.4C6,6.8,6,7.2,6,7.6c0,0.2,0.1,0.4,0.1,0.7c0,0.2-0.1,0.4-0.2,0.5C5.9,9,6,9.3,6,9.5
	c0.1,0.3,0.2,0.6,0.3,0.8c0.1,0.2,0.2,0.3,0.3,0.6c0,0.4,0.1,0.9,0.4,1.1c0.1,0,0,0.7,0,0.8c0,0.6-0.2,0.8-0.7,0.9
	c-0.4,0.1-0.8,0.2-1.1,0.3c-0.1,0-0.7,0.5-0.7,0.6c0,0,1.4,1.4,4,1.5c2.6,0,4.2-1.6,4.2-1.6C12.6,14.5,11.8,14.1,11.7,14.1 M8.5,2.9
	c3.6,0,6.6,2.9,6.6,6.6s-3,6.6-6.6,6.6c-3.6,0-6.5-2.9-6.5-6.6C1.9,5.9,4.9,2.9,8.5,2.9 M8.5,2C4.4,2,1,5.4,1,9.5S4.3,17,8.4,17
	c4.2,0,7.6-3.4,7.6-7.5S12.6,2,8.5,2L8.5,2z"/>
</svg>
