<?xml version="1.0" encoding="utf-8"?>
<!-- Generator: Adobe Illustrator 18.0.0, SVG Export Plug-In . SVG Version: 6.00 Build 0)  -->
<!DOCTYPE svg PUBLIC "-//W3C//DTD SVG 1.1//EN" "http://www.w3.org/Graphics/SVG/1.1/DTD/svg11.dtd">

<svg xmlns="http://www.w3.org/2000/svg" fill="#FFFFFF" viewBox="103.4 1379.4 1367 241.3" preserveAspectRatio="xMidYMid meet">
  <path d="M542.3 1427.6l-53.4 144.8h-18.7l-52.6-144.8h19l40.2 114.9c1.4 4 2.3 8.3 2.9 12.9h0.3c0.3-3.2 1.4-7.8 3.4-12.9l40.8-114.6h18.1L542.3 1427.6 542.3 1427.6zM656.4 1544.8c0 8.9-3.4 16.1-10.3 21.8 -6.9 5.5-16.1 8.3-27.6 8.3 -9.8 0-18.4-2-25.6-6.3v-17.8c8 6.6 17.2 9.8 27 9.8 13.2 0 19.8-4.9 19.8-14.4 0-4-1.1-7.2-3.7-9.5 -2.6-2.6-8.3-5.7-17.5-10.1 -9.2-4-15.5-8-19.5-12.6 -3.7-4.6-5.7-10.3-5.7-17.8 0-8.6 3.4-15.8 10.3-21.5 6.9-5.7 15.5-8.6 26.1-8.6 8 0 15.5 1.7 22.1 4.9v16.7c-6.6-4.9-14.6-7.5-23.6-7.5 -5.5 0-9.8 1.4-13.2 4s-4.9 6-4.9 10.3c0 4.6 1.1 8 3.7 10.6 2.6 2.6 7.8 5.5 15.8 8.6 9.8 4.3 16.7 8.6 20.7 13.2C654.4 1532.2 656.4 1537.9 656.4 1544.8zM757.5 1572.4h-16.4V1556h-0.3c-6.9 12.6-17.5 19-31.9 19 -24.7 0-37.1-14.6-37.1-44.2V1469h16.7v59.2c0 21.8 8.3 32.7 25 32.7 8.3 0 14.9-2.9 20.1-8.9 5.2-6 7.8-13.8 7.8-23.3V1469h16.7v103.4H757.5zM856.6 1572.4h-16.7v-16.1h-0.3c-7.2 12.4-17.8 18.7-31.9 18.7 -10.1 0-17.8-2.6-23.8-8 -6-5.5-8.9-12.6-8.9-21.8 0-19.2 11.5-30.4 34.2-33.6l31-4.3c0-17.5-7.2-26.1-21.3-26.1 -12.4 0-23.8 4.3-33.6 12.6v-16.9c3.2-2.3 8.3-4.6 15.5-6.6 7.5-2 13.8-3.2 19.5-3.2 24.4 0 36.5 12.9 36.5 38.8v66.6L856.6 1572.4 856.6 1572.4zM840.2 1520.1l-25 3.4c-8.6 1.1-14.6 3.2-18.1 6s-5.2 7.5-5.2 13.8c0 5.2 1.7 9.5 5.5 12.4 3.7 3.2 8.3 4.6 14.4 4.6 8.3 0 14.9-2.9 20.4-8.6s8-12.9 8-21.8L840.2 1520.1 840.2 1520.1zM898 1572.4h-16.7v-153.1H898V1572.4zM1028.9 1535.9c0 12.1-4.3 21.8-12.9 28.7 -8.6 6.9-20.4 10.3-35 10.3 -5.5 0-11.5-0.9-18.1-2.6 -6.9-1.7-11.5-3.7-14.4-5.7v-20.1c4 3.7 9.5 6.9 16.1 9.2 6.6 2.6 12.9 3.7 18.7 3.7 18.7 0 27.9-7.2 27.9-21.8 0-6-2-11.2-6-15.5s-12.1-10.1-24.4-17.2c-11.8-6.6-20.4-13.2-25-19.2 -4.9-6-7.2-13.5-7.2-22.1 0-11.5 4.3-20.7 12.9-27.9 8.6-7.2 19.5-10.6 33-10.6 12.9 0 22.4 1.7 28.4 5.2v19c-7.5-6-17.2-8.9-29.3-8.9 -8 0-14.6 2-19.5 6 -5.2 4-7.8 9.2-7.8 15.8 0 4.9 0.9 8.6 2.3 11.5 1.4 2.9 4 5.7 7.8 8.6 3.7 2.9 9.8 6.6 18.1 11.5 12.9 7.2 21.8 13.8 27 20.1C1026.4 1520.4 1028.9 1527.6 1028.9 1535.9zM1095 1571.5c-4 2.3-9.2 3.4-15.5 3.4 -18.1 0-27-10.1-27-30.4V1483h-17.8v-14h17.8v-25.3l16.7-5.5v30.7h26.1v14.1h-26.1v58.3c0 6.9 1.1 11.8 3.4 14.9 2.3 2.9 6.3 4.3 11.8 4.3 4 0 7.8-1.1 10.6-3.4V1571.5L1095 1571.5zM1195 1572.4h-16.7V1556h-0.3c-6.9 12.6-17.5 19-31.9 19 -24.7 0-37.1-14.6-37.1-44.2V1469h16.7v59.2c0 21.8 8.3 32.7 25 32.7 8.3 0 14.9-2.9 20.1-8.9s7.8-13.8 7.8-23.3V1469h16.7v103.4H1195zM1308.4 1572.4h-16.7v-17.5h-0.3c-7.8 13.5-19.5 20.1-35.6 20.1 -12.9 0-23.6-4.6-31.3-14.1 -7.8-9.5-11.5-21.8-11.5-37.6 0-17.2 4.3-30.7 12.9-41.1 8.6-10.3 20.1-15.5 34.5-15.5 14.1 0 24.4 5.5 31 16.7h0.3v-64.1h16.7V1572.4zM1291.8 1525.6v-15.2c0-8.6-2.9-15.5-8.6-21.3 -5.7-5.7-12.6-8.6-20.7-8.6 -10.1 0-17.8 3.7-23.8 10.9 -5.7 7.5-8.9 17.5-8.9 30.7 0 11.8 2.9 21.3 8.3 28.2 5.5 6.9 12.9 10.3 22.4 10.3 9.2 0 16.7-3.2 22.4-9.8C1288.9 1544.2 1291.8 1535.9 1291.8 1525.6zM1470.4 1520.4c0 16.4-4.6 29.6-14.1 39.6 -9.2 10.1-21.8 14.9-37.6 14.9 -15.2 0-27.6-4.9-36.5-14.6 -9.2-9.8-13.8-22.4-13.8-38.5 0-17.2 4.6-30.7 14.1-40.5 9.5-10.1 22.1-14.9 38.8-14.9 15.2 0 27.3 4.9 36.2 14.4C1466.1 1490.5 1470.4 1503.7 1470.4 1520.4zM1453.5 1521c0-12.9-2.9-23-8.6-29.9s-14.1-10.3-24.7-10.3 -19 3.4-25.3 10.6 -9.2 17.2-9.2 30.2c0 12.4 3.2 22.1 9.5 29s14.6 10.3 25.3 10.3c10.6 0 19-3.4 24.7-10.3C1450.6 1543.7 1453.5 1533.9 1453.5 1521zM575.4 1435.1c0 3.2-1.1 5.7-3.2 7.8 -2.3 2-4.6 3.2-7.8 3.2s-5.5-0.9-7.8-2.9c-2-2-3.2-4.6-3.2-7.8 0-2.9 1.1-5.5 3.2-7.5 2-2 4.6-3.2 7.8-3.2s5.7 1.1 7.8 3.2C574.5 1429.6 575.4 1431.9 575.4 1435.1zM572.5 1572.7h-16.7v-103.4h16.7V1572.7zM1352.7 1435.1c0 3.2-1.1 5.7-3.2 7.8 -2.3 2-4.6 3.2-7.8 3.2s-5.5-0.9-7.8-2.9c-2-2-3.2-4.6-3.2-7.8 0-2.9 1.1-5.5 3.2-7.5 2-2 4.6-3.2 7.8-3.2s5.7 1.1 7.8 3.2C1351.8 1429.6 1352.7 1431.9 1352.7 1435.1zM1349.8 1572.7h-16.7v-103.4h16.7V1572.7zM284.4 1379.4l-95.7 95.7 -61.2-47.4 -24.1 12.1v120.6l24.1 12.1 61.2-47.7 95.7 95.9 60.3-24.1v-193L284.4 1379.4zM127.5 1536.2v-72.4l36.2 36.2L127.5 1536.2zM220.6 1500l63.8-49.7v99.4L220.6 1500z"></path>
</svg>
