<?xml version="1.0" encoding="utf-8"?>
<!-- Generator: Adobe Illustrator 18.0.0, SVG Export Plug-In . SVG Version: 6.00 Build 0)  -->
<!DOCTYPE svg PUBLIC "-//W3C//DTD SVG 1.1//EN" "http://www.w3.org/Graphics/SVG/1.1/DTD/svg11.dtd">

<svg xmlns="http://www.w3.org/2000/svg" fill="#FFFFFF" viewBox="0 0 479.3 84.1" preserveAspectRatio="xMidYMid meet">
  <g>
    <path d="M155.7,42.1c0,5.2-1,9.8-2.9,13.7c-1.9,3.9-4.6,7-8.2,9.1c-3.6,2.1-7.7,3.2-12.3,3.2c-4.5,0-8.5-1-12-3.1      c-3.5-2.1-6.2-5-8.1-8.8c-1.9-3.8-2.9-8.1-2.9-12.9c0-5.2,1-9.7,2.9-13.7c1.9-3.9,4.7-7,8.3-9.1c3.6-2.1,7.8-3.2,12.6-3.2      c4.4,0,8.3,1,11.7,3.1c3.5,2.1,6.1,5,8,8.8C154.7,33,155.7,37.2,155.7,42.1z M149.7,42.8c0-6.4-1.5-11.4-4.5-15      c-3-3.6-7.2-5.4-12.5-5.4c-3.4,0-6.4,0.8-9,2.5c-2.7,1.7-4.7,4.1-6.2,7.2c-1.5,3.1-2.2,6.6-2.2,10.5c0,3.9,0.7,7.4,2.1,10.5      c1.4,3.1,3.4,5.4,6,7.1c2.6,1.7,5.6,2.5,8.9,2.5c5.4,0,9.7-1.8,12.8-5.3C148.1,54,149.7,49.1,149.7,42.8z" />
    <path d="M190.4,67.2h-5.6v-5.5h-0.1c-2.3,4.3-5.9,6.4-10.8,6.4c-8.4,0-12.6-5-12.6-15V32.2h5.6v20       c0,7.4,2.8,11.1,8.5,11.1c2.8,0,5-1,6.8-3c1.7-2,2.6-4.6,2.6-7.9V32.2h5.6V67.2z" />
    <path d="M215.9,66.9c-1.3,0.8-3.1,1.1-5.3,1.1c-6.1,0-9.2-3.4-9.2-10.3V36.9h-6v-4.8h6v-8.6l5.6-1.8v10.4h8.8v4.8        h-8.8v19.8c0,2.3,0.4,4,1.2,5c0.8,1,2.1,1.5,4,1.5c1.4,0,2.6-0.4,3.6-1.1V66.9z" />
    <path d="M227.7,67.2H222V15.3h5.6V67.2z" />
    <path d="M268.4,49.5c0,5.6-1.6,10-4.7,13.4c-3.2,3.4-7.4,5.1-12.7,5.1c-5.2,0-9.3-1.6-12.4-4.9         c-3.1-3.3-4.6-7.6-4.6-13c0-5.8,1.6-10.4,4.8-13.7c3.2-3.4,7.5-5,13.1-5c5.2,0,9.3,1.6,12.2,4.9C266.9,39.4,268.4,43.9,268.4,49.5z         M262.6,49.8c0-4.4-1-7.8-2.9-10.1c-2-2.3-4.7-3.5-8.4-3.5c-3.6,0-6.5,1.2-8.6,3.6c-2.1,2.4-3.1,5.8-3.1,10.2         c0,4.2,1.1,7.5,3.2,9.8c2.1,2.4,5,3.5,8.5,3.5c3.6,0,6.4-1.2,8.4-3.5C261.7,57.5,262.6,54.1,262.6,49.8z" />
    <path d="M307.1,49.5c0,5.6-1.6,10-4.7,13.4c-3.2,3.4-7.4,5.1-12.7,5.1c-5.2,0-9.3-1.6-12.4-4.9          c-3.1-3.3-4.6-7.6-4.6-13c0-5.8,1.6-10.4,4.8-13.7c3.2-3.4,7.5-5,13.1-5c5.2,0,9.3,1.6,12.2,4.9C305.7,39.4,307.1,43.9,307.1,49.5z          M301.4,49.8c0-4.4-1-7.8-2.9-10.1c-2-2.3-4.7-3.5-8.4-3.5c-3.6,0-6.5,1.2-8.6,3.6c-2.1,2.4-3.1,5.8-3.1,10.2          c0,4.2,1.1,7.5,3.2,9.8c2.1,2.4,5,3.5,8.5,3.5c3.6,0,6.4-1.2,8.4-3.5C300.4,57.5,301.4,54.1,301.4,49.8z" />
    <path d="M342.3,67.2h-7.9L319,50.4h-0.1v16.8h-5.6V15.3h5.6v32.9h0.1l14.7-16h7.4l-16.3,16.9L342.3,67.2z" />
    <path d="M354.2,64.1c0,1-0.4,1.9-1.1,2.7c-0.7,0.8-1.7,1.2-2.8,1.2c-1,0-1.9-0.4-2.7-1.1c-0.7-0.8-1.1-1.7-1.1-2.7           c0-1.1,0.4-2,1.1-2.7c0.7-0.8,1.6-1.1,2.7-1.1c1,0,2,0.4,2.7,1.1C353.9,62.2,354.2,63.1,354.2,64.1z" />
    <path d="M384.1,65.6c-2.7,1.6-5.9,2.5-9.6,2.5c-3.2,0-6.1-0.7-8.6-2.2c-2.5-1.5-4.5-3.6-5.9-6.2            c-1.4-2.7-2.1-5.7-2.1-9.1c0-5.8,1.7-10.4,5-14c3.3-3.5,7.7-5.3,13.3-5.3c3.1,0,5.8,0.6,8.1,1.8v5.7c-2.6-1.8-5.4-2.7-8.3-2.7            c-3.6,0-6.6,1.3-8.8,3.9c-2.3,2.6-3.4,5.9-3.4,10c0,4.1,1.1,7.3,3.2,9.7c2.2,2.4,5,3.6,8.7,3.6c3.1,0,5.9-1,8.6-3V65.6z" />
    <path d="M423,49.5c0,5.6-1.6,10-4.7,13.4c-3.2,3.4-7.4,5.1-12.7,5.1c-5.2,0-9.3-1.6-12.4-4.9             c-3.1-3.3-4.6-7.6-4.6-13c0-5.8,1.6-10.4,4.8-13.7c3.2-3.4,7.5-5,13.1-5c5.2,0,9.3,1.6,12.2,4.9C421.5,39.4,423,43.9,423,49.5z             M417.2,49.8c0-4.4-1-7.8-2.9-10.1c-2-2.3-4.7-3.5-8.4-3.5c-3.6,0-6.5,1.2-8.6,3.6c-2.1,2.4-3.1,5.8-3.1,10.2             c0,4.2,1.1,7.5,3.2,9.8c2.1,2.4,5,3.5,8.5,3.5c3.7,0,6.4-1.2,8.4-3.5C416.3,57.5,417.2,54.1,417.2,49.8z" />
    <path d="M479.3,67.2h-5.6V47.1c0-3.9-0.6-6.7-1.8-8.4c-1.2-1.7-3.2-2.5-6-2.5c-2.4,0-4.4,1.1-6.1,3.3              c-1.7,2.2-2.5,4.8-2.5,7.8v20h-5.6V46.4c0-6.9-2.7-10.3-8-10.3c-2.5,0-4.5,1-6.1,3.1c-1.6,2.1-2.4,4.7-2.4,8v20h-5.6v-35h5.6v5.5              h0.1c2.5-4.3,6.1-6.4,10.8-6.4c2.3,0,4.3,0.6,6.2,1.9c1.8,1.3,3.1,3.1,3.8,5.4c2.6-4.9,6.5-7.3,11.6-7.3c7.7,0,11.6,4.8,11.6,14.3              V67.2z" />
  </g>
  <g>
    <path d="M64.2,45.6c-0.4,0.3-1,0.5-1.5,0.5c-0.5,0-1-0.2-1.5-0.5l-6-4.6v26.3h32.2c1.7,0,3.1-1.4,3.1-3.1V24.7               L64.2,45.6z" />
    <path d="M50.6,38.7L50.6,38.7l0-3.7l0,0V21.1v-2.9h0V0L0,9v66.3l50.6,8.7V66.2h0v-2.9V38.7z M35.1,45.4                c-0.1,1.1-0.4,2.1-0.7,3.1c-0.3,1-0.7,1.8-1.1,2.7c-0.4,0.8-0.9,1.6-1.5,2.3c-0.6,0.7-1.2,1.3-1.8,1.8c-0.6,0.5-1.3,0.9-2,1.2                c-0.7,0.3-1.5,0.5-2.2,0.7c-0.8,0.1-1.6,0.2-2.4,0.1c-0.8-0.1-1.6-0.2-2.3-0.4c-0.7-0.2-1.4-0.5-2.1-0.9c-0.6-0.4-1.2-0.8-1.8-1.3                c-0.6-0.5-1.1-1.1-1.6-1.8c-0.5-0.7-0.9-1.4-1.3-2.2c-0.4-0.8-0.7-1.6-0.9-2.4c-0.2-0.9-0.4-1.8-0.5-2.7c-0.1-0.9-0.2-1.9-0.2-3                c0-1.1,0.1-2.1,0.2-3.1c0.1-1,0.3-1.9,0.5-2.8c0.2-0.9,0.5-1.7,0.9-2.5c0.4-0.8,0.8-1.5,1.3-2.2c0.5-0.7,1-1.4,1.6-1.9                c0.6-0.6,1.2-1,1.9-1.4c0.7-0.4,1.4-0.7,2.2-0.9c0.8-0.2,1.6-0.4,2.5-0.4c0.8-0.1,1.6,0,2.4,0.1c0.8,0.1,1.5,0.3,2.2,0.6                c0.7,0.3,1.4,0.7,2,1.2c0.6,0.5,1.2,1.1,1.8,1.7c0.6,0.7,1,1.4,1.5,2.2c0.4,0.8,0.8,1.7,1,2.6c0.3,0.9,0.5,1.9,0.6,3                c0.1,1.1,0.2,2.2,0.2,3.3C35.3,43.2,35.3,44.3,35.1,45.4z" />
    <path d="M55.3,36.1l7.4,5.8l27.8-22.1c-0.2-1.5-1.5-2.7-3.1-2.7H55.3V36.1z" />
    <path d="M29,38.2c-0.1-0.6-0.3-1.2-0.5-1.7c-0.2-0.5-0.4-1-0.7-1.4c-0.3-0.4-0.5-0.8-0.9-1.1                 c-0.3-0.3-0.6-0.5-1-0.7c-0.4-0.2-0.7-0.3-1.1-0.4c-0.4-0.1-0.8-0.1-1.3-0.1c-0.5,0-0.9,0.1-1.3,0.2c-0.4,0.1-0.8,0.3-1.2,0.5                 c-0.4,0.2-0.7,0.5-1,0.9c-0.3,0.3-0.6,0.7-0.9,1.2c-0.2,0.4-0.5,0.9-0.7,1.4c-0.2,0.5-0.3,1-0.5,1.6c-0.1,0.6-0.2,1.1-0.3,1.7                 c-0.1,0.6-0.1,1.3-0.1,1.9c0,0.7,0,1.4,0.1,2.1c0.1,0.6,0.2,1.3,0.3,1.8c0.1,0.6,0.3,1.1,0.5,1.6c0.2,0.5,0.4,1,0.7,1.4                 c0.3,0.4,0.5,0.7,0.8,1c0.3,0.3,0.6,0.6,1,0.8c0.3,0.2,0.7,0.4,1.1,0.5c0.4,0.1,0.8,0.2,1.2,0.2c0.4,0,0.8,0,1.2-0.1                 c0.4-0.1,0.8-0.2,1.1-0.4c0.4-0.2,0.7-0.4,1-0.7c0.3-0.3,0.6-0.6,0.9-1c0.3-0.4,0.5-0.9,0.8-1.3c0.2-0.5,0.4-1,0.5-1.6                 c0.1-0.6,0.3-1.2,0.3-1.9c0.1-0.7,0.1-1.4,0.1-2.2c0-0.8,0-1.5-0.1-2.2C29.2,39.5,29.1,38.8,29,38.2z" />
  </g>
</svg>