<?xml version="1.0" encoding="utf-8"?>
<!-- Generator: Adobe Illustrator 19.2.1, SVG Export Plug-In . SVG Version: 6.00 Build 0)  -->
<svg version="1.1" id="Layer_1" xmlns="http://www.w3.org/2000/svg" xmlns:xlink="http://www.w3.org/1999/xlink" x="0px" y="0px"
	 width="18px" height="20px" viewBox="0 0 18 20" style="enable-background:new 0 0 18 20;" xml:space="preserve">
<style type="text/css">
	.st0{fill:#0070C9;}
</style>
<path id="Account" class="st0" d="M8.9,2.9v1C9.7,4,10.4,4.3,11,4.7L11.7,4l1.2,1.2L12.3,6c0.4,0.6,0.8,1.4,0.9,2.2h1v1.8h-1
	c-0.1,0.8-0.4,1.5-0.9,2.2l0.7,0.7l-1.2,1.2L11,13.3c-0.6,0.5-1.4,0.8-2.2,0.9v1H7.1v-1C6.3,14,5.6,13.7,5,13.3l-0.7,0.7L3,12.7
	L3.7,12C3.3,11.4,3,10.7,2.8,9.9h-1V8.1h1C3,7.3,3.3,6.6,3.7,6L3,5.3l1.2-1.2L5,4.7C5.6,4.3,6.3,4,7.1,3.8v-1H8.9 M9.8,2H6.2v1.1
	C5.8,3.3,5.5,3.4,5.1,3.6L4.3,2.8L1.8,5.3l0.8,0.8C2.4,6.5,2.3,6.8,2.1,7.2H1v3.5h1.1c0.1,0.4,0.3,0.8,0.5,1.2l-0.8,0.8l2.5,2.5
	l0.8-0.8c0.4,0.2,0.8,0.4,1.2,0.5V16h3.5v-1.1c0.4-0.1,0.8-0.3,1.2-0.5l0.8,0.8l2.5-2.5l-0.6-0.6l-0.2-0.2c0.2-0.4,0.4-0.8,0.5-1.2
	H15V7.3h-1.1c-0.1-0.4-0.3-0.8-0.5-1.2l0.8-0.8l-2.5-2.5l-0.8,0.8c-0.4-0.2-0.8-0.4-1.2-0.5V2L9.8,2z M8,7.2C9,7.2,9.8,8,9.8,9
	S9,10.8,8,10.8S6.2,10,6.2,9S7,7.2,8,7.2 M8,6.4C6.6,6.4,5.4,7.6,5.4,9s1.2,2.6,2.6,2.6s2.6-1.2,2.6-2.6S9.4,6.4,8,6.4L8,6.4z"/>
</svg>
