<?xml version="1.0" encoding="utf-8"?>
<!-- Generator: Adobe Illustrator 19.2.1, SVG Export Plug-In . SVG Version: 6.00 Build 0)  -->
<svg version="1.1" id="Layer_1" xmlns="http://www.w3.org/2000/svg" xmlns:xlink="http://www.w3.org/1999/xlink" x="0px" y="0px"
	 width="18px" height="20px" viewBox="0 0 18 20" style="enable-background:new 0 0 18 20;" xml:space="preserve">
<style type="text/css">
	.st0{fill:#0070C9;}
</style>
<path id="Bag_2_" class="st0" d="M14.6,4.9h-2.1c0-1.7-0.9-3.5-3.5-3.5c-2.6,0-3.5,1.8-3.5,3.5H3.4C2.6,4.9,2,5.5,2,6.2v10.4
	C2,17.4,2.6,18,3.4,18h11.3c0.8,0,1.4-0.6,1.4-1.4V6.2C16,5.5,15.4,4.9,14.6,4.9z M9,2.2c1.8,0,2.6,1.3,2.6,2.6H6.4
	C6.4,3.6,7.2,2.2,9,2.2z M15.1,16.6c0,0.3-0.2,0.5-0.5,0.5H3.4c-0.3,0-0.5-0.2-0.5-0.5V6.2c0-0.3,0.2-0.5,0.5-0.5h11.3
	c0.3,0,0.5,0.2,0.5,0.5C15.1,6.2,15.1,16.6,15.1,16.6z"/>
</svg>
