<?xml version="1.0" encoding="utf-8"?>
<!-- Generator: Adobe Illustrator 19.2.1, SVG Export Plug-In . SVG Version: 6.00 Build 0)  -->
<svg version="1.1" id="Layer_1" xmlns="http://www.w3.org/2000/svg" xmlns:xlink="http://www.w3.org/1999/xlink" x="0px" y="0px"
	 width="18px" height="20px" viewBox="0 0 18 20" style="enable-background:new 0 0 18 20;" xml:space="preserve">
<style type="text/css">
	.st0{fill:#0070C9;}
</style>
<path id="Favorites" class="st0" d="M11.5,4C13.4,4,15,5.3,15,7c0,0.9-0.4,1.6-1.1,2.2l-5.4,5.3L3.1,9.3C2.4,8.6,2,7.9,2,7
	c0-1.7,1.5-3,3.5-3c1.3,0,2.3,1.1,2.7,1.6L8.5,6l0.3-0.4C9.5,4.8,10.4,4,11.5,4 M11.5,3c-1,0-2.1,0.5-3,1.5C7.8,3.8,6.8,3,5.5,3
	C2.9,3,1,4.7,1,7c0,1.1,0.5,2.1,1.4,3l5.4,5.3L8.5,16l0.7-0.7l5.4-5.3C15.5,9.2,16,8.2,16,7C16,4.7,14.1,3,11.5,3L11.5,3z"/>
</svg>
