<svg id="Layer_1" xmlns="http://www.w3.org/2000/svg" width="18" height="90" viewBox="0 0 18 90"><style>.st0{fill:#6bf}.st1{fill:#a2a2a2}</style><g id="Global_Nav_Small_Icons"><path id="Suggested_Search_-_Hover" class="st0" d="M17 74.3l-4.6-4.6c1-1.1 1.6-2.6 1.6-4.2 0-3.6-2.9-6.5-6.5-6.5S1 61.9 1 65.5 3.9 72 7.5 72c1.6 0 3.1-.6 4.2-1.6l4.6 4.6.7-.7zM2 65.5c0-3 2.5-5.5 5.5-5.5s5.5 2.5 5.5 5.5S10.5 71 7.5 71 2 68.5 2 65.5z"/><path id="Suggested_Search" class="st1" d="M17 29.3l-4.6-4.6c1-1.1 1.6-2.6 1.6-4.2 0-3.6-2.9-6.5-6.5-6.5S1 16.9 1 20.5 3.9 27 7.5 27c1.6 0 3.1-.6 4.2-1.6l4.6 4.6.7-.7zM2 20.5c0-3 2.5-5.5 5.5-5.5s5.5 2.5 5.5 5.5S10.5 26 7.5 26 2 23.5 2 20.5z"/></g></svg>