<svg id="Layer_1" xmlns="http://www.w3.org/2000/svg" width="21" height="60" viewBox="0 0 21 60"><style>.st0{fill:#0070c9}.st1{fill:#adadad}</style><g id="Global_Nav_Large_Icons"><path id="Suggested_Search_-_Hover_1_" class="st0" d="M18 52.3L13.7 48c.8-1 1.3-2.2 1.3-3.5 0-3-2.5-5.5-5.5-5.5S4 41.5 4 44.5 6.5 50 9.5 50c1.3 0 2.6-.5 3.5-1.3l4.3 4.3.7-.7zM5 44.5C5 42 7 40 9.5 40s4.5 2 4.5 4.5S12 49 9.5 49 5 47 5 44.5z"/><path id="Suggested_Search_1_" class="st1" d="M18 22.3L13.7 18c.8-1 1.3-2.2 1.3-3.5 0-3-2.5-5.5-5.5-5.5S4 11.5 4 14.5 6.5 20 9.5 20c1.3 0 2.6-.5 3.5-1.3l4.3 4.3.7-.7zM5 14.5C5 12 7 10 9.5 10s4.5 2 4.5 4.5S12 19 9.5 19 5 17 5 14.5z"/></g></svg>