<?xml version="1.0" encoding="utf-8"?>
<!-- Generator: Adobe Illustrator 18.0.0, SVG Export Plug-In . SVG Version: 6.00 Build 0)  -->
<!DOCTYPE svg PUBLIC "-//W3C//DTD SVG 1.1//EN" "http://www.w3.org/Graphics/SVG/1.1/DTD/svg11.dtd">
<svg version="1.1" xmlns="http://www.w3.org/2000/svg" xmlns:xlink="http://www.w3.org/1999/xlink" x="0px" y="0px" width="45px"
	 height="45px" viewBox="0 0 45 45" enable-background="new 0 0 45 45" xml:space="preserve">
<g id="Tool_Kit_Financing__x5B__Dark__x5D_">
	<path id="Apple_Store_App_2_" fill="#999999" d="M26.98,12h-8.95c0.1-2.21,2.06-3.98,4.47-3.98C24.92,8.02,26.88,9.79,26.98,12z
		 M22.99,18.15c-0.39,0.45-0.58,0.93-0.58,1.45c0,0.07,0,0.14,0.01,0.2c0.6,0.05,1.13-0.2,1.59-0.75c0.38-0.46,0.57-0.97,0.57-1.5
		c0-0.07,0-0.14-0.01-0.21c-0.27,0.01-0.55,0.1-0.84,0.25C23.43,17.74,23.19,17.92,22.99,18.15z M25.36,23.02
		c-0.01-0.87,0.38-1.55,1.16-2.04c-0.44-0.64-1.09-0.99-1.96-1.06c-0.32-0.03-0.72,0.04-1.18,0.21c-0.49,0.19-0.78,0.28-0.87,0.28
		c-0.12,0-0.38-0.08-0.78-0.24c-0.41-0.16-0.74-0.23-0.99-0.23c-0.46,0.01-0.88,0.13-1.28,0.37c-0.39,0.24-0.71,0.57-0.94,0.98
		c-0.3,0.52-0.45,1.13-0.45,1.84c0,0.62,0.11,1.27,0.33,1.93c0.21,0.62,0.47,1.15,0.79,1.62c0.3,0.44,0.55,0.74,0.75,0.92
		c0.32,0.3,0.63,0.44,0.94,0.43c0.21-0.01,0.48-0.08,0.82-0.22c0.34-0.14,0.65-0.21,0.94-0.21c0.28,0,0.59,0.07,0.92,0.21
		c0.33,0.14,0.62,0.21,0.85,0.21c0.33-0.01,0.64-0.15,0.92-0.42c0.19-0.16,0.43-0.46,0.72-0.89c0.21-0.32,0.4-0.66,0.56-1.03
		c0.06-0.16,0.13-0.32,0.18-0.49c-0.26-0.11-0.5-0.27-0.72-0.48C25.61,24.27,25.37,23.7,25.36,23.02z M43,11.23v22.55
		c0,5.15-4.12,9.23-9.21,9.23H11.23C6.14,43,2,38.92,2,33.77V11.23C2,6.08,6.14,2,11.23,2h22.55C38.86,2,43,6.08,43,11.23z M34,14
		c0-1.01-1.01-2-2-2h-3.01c-0.1-3.31-2.96-5.98-6.5-5.98c-3.51,0-6.38,2.67-6.47,5.98H13c-0.99,0-2,0.99-2,2v19c0,1.01,1.01,2,2,2
		h19c0.99,0,2-0.99,2-2V14z"/>
</g>
<g id="Tool_Kit_Financing__x5B__Light__x5D_">
</g>
</svg>
37-0.66-3.59-5.87-4.16-6.67C12.83,6.38,12.33,5.85,11.4,5.85z"/>
</g>
<g id="Tool_Kit_Financing__x5B__Light__x5D_">
</g>
</svg>
