<?xml version="1.0" encoding="utf-8"?>
<!-- Generator: Adobe Illustrator 18.0.0, SVG Export Plug-In . SVG Version: 6.00 Build 0)  -->
<!DOCTYPE svg PUBLIC "-//W3C//DTD SVG 1.1//EN" "http://www.w3.org/Graphics/SVG/1.1/DTD/svg11.dtd">
<svg version="1.1" xmlns="http://www.w3.org/2000/svg" xmlns:xlink="http://www.w3.org/1999/xlink" x="0px" y="0px" width="20px"
	 height="44px" viewBox="0 0 20 44" enable-background="new 0 0 20 44" xml:space="preserve">
<g id="FPO">
</g>
<g id="Global_Nav_Small_Icons">
</g>
<g id="Global_Nav_Small_1_">
</g>
<g id="Bag">
</g>
<g id="Global_Nav_Large_Icons">
	<path id="Apple" fill="#FFFFFF" d="M18.1,24.227c-0.106,0.307-0.217,0.6-0.335,0.881c-0.288,0.664-0.628,1.275-1.022,1.836
		c-0.536,0.766-0.976,1.296-1.315,1.59c-0.525,0.483-1.088,0.731-1.691,0.744c-0.433,0-0.954-0.123-1.562-0.372
		c-0.609-0.249-1.169-0.372-1.681-0.372c-0.537,0-1.113,0.123-1.729,0.372c-0.617,0.249-1.114,0.38-1.494,0.392
		c-0.578,0.025-1.154-0.229-1.729-0.764c-0.367-0.32-0.826-0.869-1.376-1.646c-0.59-0.83-1.075-1.793-1.455-2.891
		C2.304,22.812,2.1,21.664,2.1,20.553c0-1.273,0.275-2.371,0.826-3.291c0.433-0.739,1.009-1.322,1.73-1.75
		c0.721-0.428,1.5-0.646,2.339-0.66c0.459,0,1.061,0.142,1.809,0.421c0.746,0.28,1.225,0.422,1.435,0.422
		c0.157,0,0.689-0.166,1.591-0.497c0.853-0.307,1.573-0.434,2.163-0.384c1.598,0.129,2.798,0.759,3.597,1.894
		c-1.429,0.866-2.136,2.079-2.122,3.635c0.013,1.212,0.452,2.221,1.316,3.022C17.176,23.736,17.614,24.023,18.1,24.227z
		 M14.08,10.305c0.013,0.127,0.019,0.254,0.019,0.38c0,0.95-0.347,1.837-1.038,2.658c-0.835,0.976-1.845,1.54-2.94,1.451
		c-0.014-0.114-0.022-0.234-0.022-0.36c0-0.912,0.397-1.888,1.102-2.686c0.352-0.404,0.8-0.74,1.342-1.008
		C13.085,10.476,13.598,10.33,14.08,10.305z"/>
</g>
<g id="Global_Nav_Large_1_">
</g>
<g id="Guides">
</g>
<g id="NOTES">
</g>
</svg>
78-1.311-0.78-2.241c0-0.899,0.25-1.645,0.748-2.242c0.498-0.598,1.196-0.896,2.094-0.896
	c0.635,0,1.194,0.132,1.675,0.395l0.312-0.986C28.325,19.057,27.667,18.915,26.857,18.915L26.857,18.915z"/>
</svg>
.203h-1.188
	v4.547c-0.418-0.782-1.173-1.173-2.263-1.173c-0.942,0-1.729,0.354-2.357,1.063c-0.66,0.76-0.99,1.756-0.99,2.984
	c0,1.125,0.302,2.044,0.906,2.758c0.604,0.713,1.36,1.07,2.266,1.07c1.208,0,2.052-0.494,2.531-1.484h0.032l0.062,1.312h1.062l0,0
	C27.783,26.415,27.762,25.791,27.762,25.135L27.762,25.135z M25.978,25.523c-0.397,0.459-0.91,0.688-1.537,0.688
	c-0.722,0-1.292-0.292-1.709-0.876c-0.387-0.533-0.581-1.223-0.581-2.068c0-0.888,0.209-1.616,0.628-2.187
	c0.417-0.568,0.988-0.853,1.709-0.853c0.502,0,0.946,0.161,1.333,0.484c0.355,0.314,0.59,0.706,0.706,1.176
	c0.031,0.167,0.047,0.371,0.047,0.611v1.394C26.574,24.521,26.375,25.064,25.978,25.523z"/>
</svg>
312v4.407h1.187V22.469z M45.106,20.546c-0.531-0.833-1.333-1.249-2.406-1.249
	c-1.031,0-1.863,0.379-2.493,1.141c-0.63,0.759-0.945,1.734-0.945,2.921c0,1.146,0.323,2.066,0.969,2.758
	c0.646,0.692,1.521,1.039,2.625,1.039c0.958,0,1.766-0.156,2.422-0.468l-0.219-0.859c-0.594,0.271-1.271,0.406-2.031,0.406
	c-0.761,0-1.365-0.22-1.813-0.66c-0.521-0.492-0.786-1.22-0.797-2.184h5.235c0.031-0.157,0.046-0.36,0.046-0.609
	C45.7,21.916,45.501,21.172,45.106,20.546L45.106,20.546z M40.418,22.515c0.062-0.614,0.256-1.129,0.58-1.547
	c0.397-0.53,0.92-0.796,1.569-0.796c0.701,0,1.224,0.271,1.569,0.812c0.261,0.417,0.387,0.927,0.376,1.531H40.418z"/>
</svg>
81-0.589-1.263-0.589-2.044c0-0.823,0.19-1.522,0.572-2.092
	c0.438-0.665,1.053-0.999,1.851-0.999c0.765,0,1.366,0.328,1.802,0.984c0.383,0.57,0.574,1.257,0.574,2.06
	C42.535,23.945,42.338,24.638,41.945,25.229L41.945,25.229z M49.42,19.203c-0.107-0.021-0.23-0.031-0.367-0.031
	c-0.466,0-0.891,0.151-1.271,0.452c-0.382,0.303-0.662,0.708-0.843,1.216h-0.048l-0.046-1.509h-1.05
	c0.031,0.773,0.048,1.552,0.048,2.336v5.339h1.207v-4.147c0-0.668,0.147-1.235,0.442-1.7c0.358-0.562,0.853-0.842,1.484-0.842
	c0.168,0,0.316,0,0.443,0V19.203z M55.09,19.331h-2.004v-1.796l-1.207,0.397v1.399H50.67v0.937h1.209v4.386
	c0,0.901,0.168,1.544,0.508,1.931c0.34,0.387,0.82,0.58,1.447,0.58c0.467,0,0.852-0.059,1.16-0.175l-0.064-0.938
	c-0.219,0.074-0.488,0.112-0.803,0.112c-0.693,0-1.041-0.503-1.041-1.51v-4.386h2.004V19.331z"/>
</svg>
