<?xml version="1.0" encoding="utf-8"?>
<!-- Generator: Adobe Illustrator 18.1.1, SVG Export Plug-In . SVG Version: 6.00 Build 0)  -->
<svg version="1.1" id="Layer_2" xmlns="http://www.w3.org/2000/svg" xmlns:xlink="http://www.w3.org/1999/xlink" x="0px" y="0px"
	 viewBox="0 0 3168 2448" enable-background="new 0 0 3168 2448" xml:space="preserve">
<polygon fill="#333333" points="2894.2,1247.4 2907.5,1274.5 2937.4,1278.8 2915.8,1299.9 2920.9,1329.7 2894.2,1315.6 
	2867.4,1329.7 2872.5,1299.9 2850.9,1278.8 2880.8,1274.5 "/>
<polygon fill="#333333" points="2951.7,1335 2965,1362.1 2994.9,1366.4 2973.3,1387.5 2978.4,1417.3 2951.7,1403.2 2925,1417.3 
	2930.1,1387.5 2908.5,1366.4 2938.3,1362.1 "/>
<polygon fill="#333333" points="2836.6,1335 2850,1362.1 2879.9,1366.4 2858.2,1387.5 2863.3,1417.3 2836.6,1403.2 2809.9,1417.3 
	2815,1387.5 2793.4,1366.4 2823.3,1362.1 "/>
</svg>
